<svg xmlns="http://www.w3.org/2000/svg" viewBox="0 0 1373 892" width="1373" height="892">
  <defs>
    <marker id="arrowA" markerWidth="10" markerHeight="7" refX="9" refY="3.5" orient="auto">
      <polygon points="0 0, 10 3.5, 0 7" fill="#7c3aed"/>
    </marker>
    <marker id="arrowB" markerWidth="10" markerHeight="7" refX="9" refY="3.5" orient="auto">
      <polygon points="0 0, 10 3.5, 0 7" fill="#10b981"/>
    </marker>
    <marker id="arrowC" markerWidth="10" markerHeight="7" refX="9" refY="3.5" orient="auto">
      <polygon points="0 0, 10 3.5, 0 7" fill="#2563eb"/>
    </marker>
    <marker id="arrowE" markerWidth="10" markerHeight="7" refX="9" refY="3.5" orient="auto">
      <polygon points="0 0, 10 3.5, 0 7" fill="#f97316"/>
    </marker>
    <marker id="arrowF" markerWidth="10" markerHeight="7" refX="9" refY="3.5" orient="auto">
      <polygon points="0 0, 10 3.5, 0 7" fill="#7c3aed"/>
    </marker>
    <marker id="arrowG" markerWidth="10" markerHeight="7" refX="9" refY="3.5" orient="auto">
      <polygon points="0 0, 10 3.5, 0 7" fill="#ef4444"/>
    </marker>
    <marker id="arrowH" markerWidth="10" markerHeight="7" refX="9" refY="3.5" orient="auto">
      <polygon points="0 0, 10 3.5, 0 7" fill="#6b7280"/>
    </marker>
    <filter id="shadowSoft" x="-20%" y="-20%" width="140%" height="160%">
      <feDropShadow dx="0" dy="3" stdDeviation="6" flood-color="#0f172a" flood-opacity="0.12"/>
    </filter>
    <filter id="shadowGlass" x="-20%" y="-20%" width="140%" height="160%">
      <feDropShadow dx="0" dy="10" stdDeviation="16" flood-color="#020617" flood-opacity="0.28"/>
    </filter>
    <style>
    text { font-family: 'Helvetica Neue', Helvetica, Arial, 'PingFang SC', 'Microsoft YaHei', 'Microsoft JhengHei', 'SimHei', sans-serif; }
    .title { font-size: 30px; font-weight: 700; fill: #111827; }
    .subtitle { font-size: 14px; font-weight: 500; fill: #6b7280; }
    .section { font-size: 13px; font-weight: 700; fill: #2563eb; letter-spacing: 1.4px; }
    .section-sub { font-size: 12px; font-weight: 500; fill: #94a3b8; }
    .node-title { font-size: 18px; font-weight: 700; fill: #111827; }
    .node-sub { font-size: 12px; font-weight: 500; fill: #6b7280; }
    .node-type { font-size: 12px; font-weight: 700; fill: #9ca3af; letter-spacing: 0.08em; }
    .arrow-label { font-size: 12px; font-weight: 600; fill: #6b7280; }
    .legend { font-size: 12px; font-weight: 500; fill: #6b7280; }
    .footnote { font-size: 12px; font-weight: 500; fill: #94a3b8; }
    </style>
  </defs>
  <rect width="1373.0" height="892.0" fill="#ffffff"/>
  <text x="686.5" y="56" text-anchor="middle" class="title">34.2.2 系统架构</text>
  <text x="686.5" y="82" text-anchor="middle" class="subtitle">part-08-physical-infrastructure/chapter-34-gpu-server.md:66</text>
  <path d="M 142.0,212.0 L 142.0,232.4 L 581.5,263.6 L 581.5,284.0" fill="none" stroke="#7c3aed" stroke-width="2.4" marker-end="url(#arrowA)"/>
  <path d="M 356.5,212.0 L 356.5,232.4 L 791.5,269.6 L 791.5,290.0" fill="none" stroke="#7c3aed" stroke-width="2.4" marker-end="url(#arrowA)"/>
  <path d="M 586.0,212.0 L 586.0,232.4 L 791.5,269.6 L 791.5,290.0" fill="none" stroke="#7c3aed" stroke-width="2.4" marker-end="url(#arrowA)"/>
  <path d="M 581.5,354.0 L 581.5,374.4 L 577.0,405.6 L 577.0,426.0" fill="none" stroke="#7c3aed" stroke-width="2.4" marker-end="url(#arrowA)"/>
  <path d="M 791.5,348.0 L 791.5,368.4 L 796.0,405.6 L 796.0,426.0" fill="none" stroke="#7c3aed" stroke-width="2.4" marker-end="url(#arrowA)"/>
  <path d="M 796.0,484.0 L 796.0,504.4 L 686.5,535.6 L 686.5,556.0" fill="none" stroke="#7c3aed" stroke-width="2.4" marker-end="url(#arrowA)"/>
  <path d="M 686.5,626.0 L 686.5,698.0" fill="none" stroke="#7c3aed" stroke-width="2.4" marker-end="url(#arrowA)"/>
  <path d="M 577.0,484.0 L 577.0,504.4 L 686.5,677.6 L 686.5,698.0" fill="none" stroke="#7c3aed" stroke-width="2.4" marker-end="url(#arrowA)"/>
  <rect x="60.0" y="154.0" width="164.0" height="58.0" rx="10.0" fill="#eff6ff" stroke="#bfdbfe" stroke-width="1.8"/>
  <text x="142.0" y="183.0" text-anchor="middle" class="node-title">BMC / Redfish</text>
  <rect x="270.0" y="154.0" width="173.0" height="58.0" rx="10.0" fill="#fff7ed" stroke="#fed7aa" stroke-width="1.8"/>
  <text x="356.5" y="183.0" text-anchor="middle" class="node-title">Power Shelf / PSU</text>
  <rect x="489.0" y="154.0" width="194.0" height="58.0" rx="10.0" fill="#f0fdfa" stroke="#99f6e4" stroke-width="1.8"/>
  <text x="586.0" y="183.0" text-anchor="middle" class="node-title">Fan / Liquid Cooling</text>
  <rect x="729.0" y="154.0" width="164.0" height="58.0" rx="10.0" fill="#f8fafc" stroke="#cbd5e1" stroke-width="1.8"/>
  <text x="811.0" y="183.0" text-anchor="middle" class="node-title">CPU / NUMA</text>
  <rect x="939.0" y="154.0" width="164.0" height="58.0" rx="10.0" fill="#eff6ff" stroke="#bfdbfe" stroke-width="1.8"/>
  <text x="1021.0" y="183.0" text-anchor="middle" class="node-title">PCIe</text>
  <rect x="1149.0" y="154.0" width="164.0" height="58.0" rx="10.0" fill="#f0fdf4" stroke="#bbf7d0" stroke-width="1.8"/>
  <text x="1231.0" y="183.0" text-anchor="middle" class="node-title">GPU</text>
  <rect x="499.5" y="284.0" width="164.0" height="70.0" rx="10.0" fill="#f0fdf4" stroke="#bbf7d0" stroke-width="1.8"/>
  <text x="581.5" y="319.0" text-anchor="middle" class="node-title">Hardware Events</text>
  <text x="581.5" y="341.0" text-anchor="middle" class="node-sub">Health State</text>
  <rect x="709.5" y="290.0" width="164.0" height="58.0" rx="10.0" fill="#faf5ff" stroke="#e9d5ff" stroke-width="1.8"/>
  <text x="791.5" y="319.0" text-anchor="middle" class="node-title">GPU Server</text>
  <rect x="490.5" y="426.0" width="173.0" height="58.0" rx="10.0" fill="#fff7ed" stroke="#fed7aa" stroke-width="1.8"/>
  <text x="577.0" y="455.0" text-anchor="middle" class="node-title">GPU Resource Pool</text>
  <rect x="709.5" y="426.0" width="173.0" height="58.0" rx="10.0" fill="#faf5ff" stroke="#e9d5ff" stroke-width="1.8"/>
  <text x="796.0" y="455.0" text-anchor="middle" class="node-title">Driver / Firmware</text>
  <rect x="600.0" y="556.0" width="173.0" height="70.0" rx="10.0" fill="#f0fdfa" stroke="#99f6e4" stroke-width="1.8"/>
  <text x="686.5" y="591.0" text-anchor="middle" class="node-title">CUDA / NCCL</text>
  <text x="686.5" y="613.0" text-anchor="middle" class="node-sub">Container Runtime</text>
  <rect x="596.5" y="698.0" width="180.0" height="58.0" rx="10.0" fill="#f8fafc" stroke="#cbd5e1" stroke-width="1.8"/>
  <text x="686.5" y="727.0" text-anchor="middle" class="node-title">Kubernetes / Slurm</text>
  <text x="1093.0" y="876.0" class="footnote">Rendered with fireworks-tech-graph</text>
</svg>