<svg xmlns="http://www.w3.org/2000/svg" width="960" height="880" viewBox="0 0 960 880"><defs><marker id="arrowA" markerHeight="7" markerWidth="10" orient="auto" refX="9" refY="3.5"><polygon fill="#7c3aed" points="0 0 10 3.5 0 7"/></marker><marker id="arrowB" markerHeight="7" markerWidth="10" orient="auto" refX="9" refY="3.5"><polygon fill="#10b981" points="0 0 10 3.5 0 7"/></marker><marker id="arrowC" markerHeight="7" markerWidth="10" orient="auto" refX="9" refY="3.5"><polygon fill="#2563eb" points="0 0 10 3.5 0 7"/></marker><marker id="arrowE" markerHeight="7" markerWidth="10" orient="auto" refX="9" refY="3.5"><polygon fill="#f97316" points="0 0 10 3.5 0 7"/></marker><marker id="arrowF" markerHeight="7" markerWidth="10" orient="auto" refX="9" refY="3.5"><polygon fill="#7c3aed" points="0 0 10 3.5 0 7"/></marker><marker id="arrowG" markerHeight="7" markerWidth="10" orient="auto" refX="9" refY="3.5"><polygon fill="#ef4444" points="0 0 10 3.5 0 7"/></marker><marker id="arrowH" markerHeight="7" markerWidth="10" orient="auto" refX="9" refY="3.5"><polygon fill="#6b7280" points="0 0 10 3.5 0 7"/></marker><filter id="shadowSoft" width="140%" height="160%" x="-20%" y="-20%"><feDropShadow dx="0" dy="3" flood-color="#0f172a" flood-opacity=".12" stdDeviation="6"/></filter><filter id="shadowGlass" width="140%" height="160%" x="-20%" y="-20%"><feDropShadow dx="0" dy="10" flood-color="#020617" flood-opacity=".28" stdDeviation="16"/></filter><style>text{font-family:&apos;Helvetica Neue&apos;,Helvetica,Arial,&apos;PingFang SC&apos;,&apos;Microsoft YaHei&apos;,&apos;Microsoft JhengHei&apos;,&apos;SimHei&apos;,sans-serif}.title{font-size:30px;font-weight:700;fill:#111827}.subtitle{font-size:14px;font-weight:500;fill:#6b7280}.node-title{font-size:18px;font-weight:700;fill:#111827}.footnote,.node-sub{font-size:12px;font-weight:500}.node-sub{fill:#6b7280}.footnote{fill:#94a3b8}</style></defs><rect width="960" height="880" fill="#fff"/><text x="480" y="56" class="title" text-anchor="middle">42.2.2 系统架构</text><text x="480" y="82" class="subtitle" text-anchor="middle">part-10-economics-cases/chapter-42-business-models.md:68</text><path fill="none" stroke="#7c3aed" stroke-width="2.4" marker-end="url(#arrowA)" d="M 480.0,212.0 L 480.0,232.4 L 205.0,263.6 L 205.0,284.0"/><path fill="none" stroke="#7c3aed" stroke-width="2.4" marker-end="url(#arrowA)" d="M 205.0,354.0 L 205.0,374.4 L 236.5,405.6 L 236.5,426.0"/><path fill="none" stroke="#7c3aed" stroke-width="2.4" marker-end="url(#arrowA)" d="M 480.0,212.0 L 480.0,232.4 L 504.5,269.6 L 504.5,290.0"/><path fill="none" stroke="#7c3aed" stroke-width="2.4" marker-end="url(#arrowA)" d="M 504.5,348.0 L 504.5,368.4 L 454.5,405.6 L 454.5,426.0"/><path fill="none" stroke="#7c3aed" stroke-width="2.4" marker-end="url(#arrowA)" d="M 480.0,212.0 L 480.0,232.4 L 779.5,269.6 L 779.5,290.0"/><path fill="none" stroke="#7c3aed" stroke-width="2.4" marker-end="url(#arrowA)" d="M 779.5,348.0 L 779.5,368.4 L 698.0,405.6 L 698.0,426.0"/><path fill="none" stroke="#7c3aed" stroke-width="2.4" marker-end="url(#arrowA)" d="M 236.5,484.0 L 236.5,504.4 L 480.0,535.6 L 480.0,556.0"/><path fill="none" stroke="#7c3aed" stroke-width="2.4" marker-end="url(#arrowA)" d="M 698.0,484.0 L 698.0,504.4 L 480.0,535.6 L 480.0,556.0"/><path fill="none" stroke="#7c3aed" stroke-width="2.4" marker-end="url(#arrowA)" d="M 454.5,484.0 L 454.5,504.4 L 480.0,535.6 L 480.0,556.0"/><path fill="none" stroke="#7c3aed" stroke-width="2.4" marker-end="url(#arrowA)" d="M 480.0,614.0 L 480.0,686.0"/><rect width="164" height="58" x="398" y="154" fill="#eff6ff" stroke="#bfdbfe" stroke-width="1.8" rx="10"/><text x="480" y="183" class="node-title" text-anchor="middle">商业模式</text><rect width="278" height="70" x="66" y="284" fill="#f0fdf4" stroke="#bbf7d0" stroke-width="1.8" rx="10"/><text x="205" y="319" class="node-title" text-anchor="middle">价值单位: token / GPU hour</text><text x="205" y="341" class="node-sub" text-anchor="middle">subscription / project / outcome</text><rect width="229" height="58" x="390" y="290" fill="#faf5ff" stroke="#e9d5ff" stroke-width="1.8" rx="10"/><text x="504.5" y="319" class="node-title" text-anchor="middle">客户承诺: SLO / SLA / 验收 / 支持</text><rect width="229" height="58" x="665" y="290" fill="#f8fafc" stroke="#cbd5e1" stroke-width="1.8" rx="10"/><text x="779.5" y="319" class="node-title" text-anchor="middle">交付方式: 云服务 / 私有化 / 混合 / 边缘</text><rect width="164" height="58" x="154.5" y="426" fill="#fff7ed" stroke="#fed7aa" stroke-width="1.8" rx="10"/><text x="236.5" y="455" class="node-title" text-anchor="middle">计量 / 计费 / 成本归因</text><rect width="180" height="58" x="364.5" y="426" fill="#f0fdfa" stroke="#99f6e4" stroke-width="1.8" rx="10"/><text x="454.5" y="455" class="node-title" text-anchor="middle">SRE / 变更 / 升级 / 赔付</text><rect width="215" height="58" x="590.5" y="426" fill="#eff6ff" stroke="#bfdbfe" stroke-width="1.8" rx="10"/><text x="698" y="455" class="node-title" text-anchor="middle">GPU IaaS / 网络 / 存储 / 隔离</text><rect width="164" height="58" x="398" y="556" fill="#f0fdf4" stroke="#bbf7d0" stroke-width="1.8" rx="10"/><text x="480" y="585" class="node-title" text-anchor="middle">毛利 / ROI / 预算</text><rect width="164" height="58" x="398" y="686" fill="#fff7ed" stroke="#fed7aa" stroke-width="1.8" rx="10"/><text x="480" y="715" class="node-title" text-anchor="middle">产品路线 / 扩容 / 优化</text><text x="680" y="864" class="footnote">Rendered with fireworks-tech-graph</text></svg>