<svg xmlns="http://www.w3.org/2000/svg" viewBox="0 0 1800 404" width="1800" height="404">
  <defs>
    <marker id="arrowA" markerWidth="10" markerHeight="7" refX="9" refY="3.5" orient="auto">
      <polygon points="0 0, 10 3.5, 0 7" fill="#7c3aed"/>
    </marker>
    <marker id="arrowB" markerWidth="10" markerHeight="7" refX="9" refY="3.5" orient="auto">
      <polygon points="0 0, 10 3.5, 0 7" fill="#10b981"/>
    </marker>
    <marker id="arrowC" markerWidth="10" markerHeight="7" refX="9" refY="3.5" orient="auto">
      <polygon points="0 0, 10 3.5, 0 7" fill="#2563eb"/>
    </marker>
    <marker id="arrowE" markerWidth="10" markerHeight="7" refX="9" refY="3.5" orient="auto">
      <polygon points="0 0, 10 3.5, 0 7" fill="#f97316"/>
    </marker>
    <marker id="arrowF" markerWidth="10" markerHeight="7" refX="9" refY="3.5" orient="auto">
      <polygon points="0 0, 10 3.5, 0 7" fill="#7c3aed"/>
    </marker>
    <marker id="arrowG" markerWidth="10" markerHeight="7" refX="9" refY="3.5" orient="auto">
      <polygon points="0 0, 10 3.5, 0 7" fill="#ef4444"/>
    </marker>
    <marker id="arrowH" markerWidth="10" markerHeight="7" refX="9" refY="3.5" orient="auto">
      <polygon points="0 0, 10 3.5, 0 7" fill="#6b7280"/>
    </marker>
    <filter id="shadowSoft" x="-20%" y="-20%" width="140%" height="160%">
      <feDropShadow dx="0" dy="3" stdDeviation="6" flood-color="#0f172a" flood-opacity="0.12"/>
    </filter>
    <filter id="shadowGlass" x="-20%" y="-20%" width="140%" height="160%">
      <feDropShadow dx="0" dy="10" stdDeviation="16" flood-color="#020617" flood-opacity="0.28"/>
    </filter>
    <style>
    text { font-family: 'Helvetica Neue', Helvetica, Arial, 'PingFang SC', 'Microsoft YaHei', 'Microsoft JhengHei', 'SimHei', sans-serif; }
    .title { font-size: 30px; font-weight: 700; fill: #111827; }
    .subtitle { font-size: 14px; font-weight: 500; fill: #6b7280; }
    .section { font-size: 13px; font-weight: 700; fill: #2563eb; letter-spacing: 1.4px; }
    .section-sub { font-size: 12px; font-weight: 500; fill: #94a3b8; }
    .node-title { font-size: 18px; font-weight: 700; fill: #111827; }
    .node-sub { font-size: 12px; font-weight: 500; fill: #6b7280; }
    .node-type { font-size: 12px; font-weight: 700; fill: #9ca3af; letter-spacing: 0.08em; }
    .arrow-label { font-size: 12px; font-weight: 600; fill: #6b7280; }
    .legend { font-size: 12px; font-weight: 500; fill: #6b7280; }
    .footnote { font-size: 12px; font-weight: 500; fill: #94a3b8; }
    </style>
  </defs>
  <rect width="1800.0" height="404.0" fill="#ffffff"/>
  <text x="900.0" y="56" text-anchor="middle" class="title">44.4.1 工程实现</text>
  <text x="900.0" y="82" text-anchor="middle" class="subtitle">part-10-economics-cases/chapter-44-building-ai-factory.md:856</text>
  <path d="M 311.0,217.0 L 383.0,217.0" fill="none" stroke="#7c3aed" stroke-width="2.4" marker-end="url(#arrowA)"/>
  <path d="M 556.0,217.0 L 576.4,217.0 L 607.6,155.0 L 628.0,155.0" fill="none" stroke="#7c3aed" stroke-width="2.4" marker-end="url(#arrowA)"/>
  <path d="M 864.0,155.0 L 936.0,155.0" fill="none" stroke="#7c3aed" stroke-width="2.4" marker-end="url(#arrowA)"/>
  <path d="M 556.0,217.0 L 576.4,217.0 L 607.6,273.0 L 628.0,273.0" fill="none" stroke="#7c3aed" stroke-width="2.4" marker-end="url(#arrowA)"/>
  <path d="M 864.0,273.0 L 884.4,273.0 L 948.1,267.0 L 968.5,267.0" fill="none" stroke="#7c3aed" stroke-width="2.4" marker-end="url(#arrowA)"/>
  <path d="M 1132.5,267.0 L 1152.9,267.0 L 1216.6,217.0 L 1237.0,217.0" fill="none" stroke="#7c3aed" stroke-width="2.4" marker-end="url(#arrowA)"/>
  <path d="M 1165.0,155.0 L 1185.4,155.0 L 1510.6,211.0 L 1531.0,211.0" fill="none" stroke="#7c3aed" stroke-width="2.4" marker-end="url(#arrowA)"/>
  <path d="M 1459.0,217.0 L 1479.4,217.0 L 1510.6,211.0 L 1531.0,211.0" fill="none" stroke="#7c3aed" stroke-width="2.4" marker-end="url(#arrowA)"/>
  <rect x="96.0" y="182.0" width="215.0" height="70.0" rx="10.0" fill="#eff6ff" stroke="#bfdbfe" stroke-width="1.8"/>
  <text x="203.5" y="217.0" text-anchor="middle" class="node-title">capacity_activation_prr</text>
  <text x="203.5" y="239.0" text-anchor="middle" class="node-sub">drill</text>
  <rect x="383.0" y="182.0" width="173.0" height="70.0" rx="10.0" fill="#f0fdf4" stroke="#bbf7d0" stroke-width="1.8"/>
  <text x="469.5" y="217.0" text-anchor="middle" class="node-title">physical_capacity</text>
  <text x="469.5" y="239.0" text-anchor="middle" class="node-sub">activation_matrix</text>
  <rect x="628.0" y="126.0" width="236.0" height="58.0" rx="10.0" fill="#fff7ed" stroke="#fed7aa" stroke-width="1.8"/>
  <text x="746.0" y="155.0" text-anchor="middle" class="node-title">workload_fit_capacity_gate</text>
  <rect x="628.0" y="238.0" width="236.0" height="70.0" rx="10.0" fill="#f0fdfa" stroke="#99f6e4" stroke-width="1.8"/>
  <text x="746.0" y="273.0" text-anchor="middle" class="node-title">facility_capacity_evidence</text>
  <text x="746.0" y="295.0" text-anchor="middle" class="node-sub">bundle</text>
  <rect x="936.0" y="126.0" width="229.0" height="58.0" rx="10.0" fill="#faf5ff" stroke="#e9d5ff" stroke-width="1.8"/>
  <text x="1050.5" y="155.0" text-anchor="middle" class="node-title">capacity_commitment_guard</text>
  <rect x="968.5" y="238.0" width="164.0" height="58.0" rx="10.0" fill="#f8fafc" stroke="#cbd5e1" stroke-width="1.8"/>
  <text x="1050.5" y="267.0" text-anchor="middle" class="node-title">energy_ledger</text>
  <rect x="1237.0" y="182.0" width="222.0" height="70.0" rx="10.0" fill="#eff6ff" stroke="#bfdbfe" stroke-width="1.8"/>
  <text x="1348.0" y="217.0" text-anchor="middle" class="node-title">capacity_activation_cost</text>
  <text x="1348.0" y="239.0" text-anchor="middle" class="node-sub">record</text>
  <rect x="1531.0" y="182.0" width="173.0" height="58.0" rx="10.0" fill="#f0fdf4" stroke="#bbf7d0" stroke-width="1.8"/>
  <text x="1617.5" y="211.0" text-anchor="middle" class="node-title">PRR capacity gate</text>
  <text x="1520.0" y="388.0" class="footnote">Rendered with fireworks-tech-graph</text>
</svg>