<svg xmlns="http://www.w3.org/2000/svg" viewBox="0 0 1040 600" width="1040" height="600">
  <defs>
    <marker id="arrowA" markerWidth="10" markerHeight="7" refX="9" refY="3.5" orient="auto">
      <polygon points="0 0, 10 3.5, 0 7" fill="#7c3aed"/>
    </marker>
    <marker id="arrowB" markerWidth="10" markerHeight="7" refX="9" refY="3.5" orient="auto">
      <polygon points="0 0, 10 3.5, 0 7" fill="#10b981"/>
    </marker>
    <marker id="arrowC" markerWidth="10" markerHeight="7" refX="9" refY="3.5" orient="auto">
      <polygon points="0 0, 10 3.5, 0 7" fill="#2563eb"/>
    </marker>
    <marker id="arrowE" markerWidth="10" markerHeight="7" refX="9" refY="3.5" orient="auto">
      <polygon points="0 0, 10 3.5, 0 7" fill="#f97316"/>
    </marker>
    <marker id="arrowF" markerWidth="10" markerHeight="7" refX="9" refY="3.5" orient="auto">
      <polygon points="0 0, 10 3.5, 0 7" fill="#7c3aed"/>
    </marker>
    <marker id="arrowG" markerWidth="10" markerHeight="7" refX="9" refY="3.5" orient="auto">
      <polygon points="0 0, 10 3.5, 0 7" fill="#ef4444"/>
    </marker>
    <marker id="arrowH" markerWidth="10" markerHeight="7" refX="9" refY="3.5" orient="auto">
      <polygon points="0 0, 10 3.5, 0 7" fill="#6b7280"/>
    </marker>
    <filter id="shadowSoft" x="-20%" y="-20%" width="140%" height="160%">
      <feDropShadow dx="0" dy="3" stdDeviation="6" flood-color="#0f172a" flood-opacity="0.12"/>
    </filter>
    <filter id="shadowGlass" x="-20%" y="-20%" width="140%" height="160%">
      <feDropShadow dx="0" dy="10" stdDeviation="16" flood-color="#020617" flood-opacity="0.28"/>
    </filter>
    <style>
    text { font-family: 'Helvetica Neue', Helvetica, Arial, 'PingFang SC', 'Microsoft YaHei', 'Microsoft JhengHei', 'SimHei', sans-serif; }
    .title { font-size: 30px; font-weight: 700; fill: #111827; }
    .subtitle { font-size: 14px; font-weight: 500; fill: #6b7280; }
    .section { font-size: 13px; font-weight: 700; fill: #2563eb; letter-spacing: 1.4px; }
    .section-sub { font-size: 12px; font-weight: 500; fill: #94a3b8; }
    .node-title { font-size: 18px; font-weight: 700; fill: #111827; }
    .node-sub { font-size: 12px; font-weight: 500; fill: #6b7280; }
    .node-type { font-size: 12px; font-weight: 700; fill: #9ca3af; letter-spacing: 0.08em; }
    .arrow-label { font-size: 12px; font-weight: 600; fill: #6b7280; }
    .legend { font-size: 12px; font-weight: 500; fill: #6b7280; }
    .footnote { font-size: 12px; font-weight: 500; fill: #94a3b8; }
    </style>
  </defs>
  <rect width="1040.0" height="600.0" fill="#ffffff"/>
  <text x="520.0" y="56" text-anchor="middle" class="title">12.3.7 微调模型管理</text>
  <text x="520.0" y="82" text-anchor="middle" class="subtitle">part-03-models/chapter-12-fine-tuning.md:181</text>
  <rect x="102.5" y="118.0" width="255.0" height="274.0" rx="16.0" fill="#f8fafc" stroke="#dbe5f1" stroke-width="1.4" stroke-dasharray="7 5"/>
  <text x="120.5" y="142.0" class="section">阶段 1</text>
  <text x="120.5" y="162.0" class="section-sub">customization request -&gt; approval</text>
  <rect x="395.5" y="118.0" width="276.0" height="274.0" rx="16.0" fill="#ffffff" stroke="#dbe5f1" stroke-width="1.4" stroke-dasharray="7 5"/>
  <text x="413.5" y="142.0" class="section">阶段 2</text>
  <text x="413.5" y="162.0" class="section-sub">training job -&gt; artifact lineage</text>
  <rect x="709.5" y="118.0" width="228.0" height="274.0" rx="16.0" fill="#f8fafc" stroke="#dbe5f1" stroke-width="1.4" stroke-dasharray="7 5"/>
  <text x="727.5" y="142.0" class="section">阶段 3</text>
  <text x="727.5" y="162.0" class="section-sub">release decision -&gt; online feedback</text>
  <path d="M 230.0,242.0 L 230.0,270.0" fill="none" stroke="#7c3aed" stroke-width="2.4" marker-end="url(#arrowA)"/>
  <path d="M 312.0,305.0 L 332.4,305.0 L 431.1,207.0 L 451.5,207.0" fill="none" stroke="#7c3aed" stroke-width="2.4" marker-end="url(#arrowA)"/>
  <path d="M 533.5,242.0 L 533.5,270.0" fill="none" stroke="#7c3aed" stroke-width="2.4" marker-end="url(#arrowA)"/>
  <path d="M 644.5,305.0 L 664.9,305.0 L 720.1,207.0 L 740.5,207.0" fill="none" stroke="#7c3aed" stroke-width="2.4" marker-end="url(#arrowA)"/>
  <path d="M 823.5,242.0 L 823.5,270.0" fill="none" stroke="#7c3aed" stroke-width="2.4" marker-end="url(#arrowA)"/>
  <path d="M 823.5,340.0 L 823.5,359.0 L 230.0,359.0 L 230.0,242.0" fill="none" stroke="#ef4444" stroke-width="2.4" marker-end="url(#arrowG)"/>
  <rect x="129.5" y="172.0" width="201.0" height="70.0" rx="10.0" fill="#eff6ff" stroke="#bfdbfe" stroke-width="1.8"/>
  <text x="230.0" y="207.0" text-anchor="middle" class="node-title">customization request</text>
  <text x="230.0" y="229.0" text-anchor="middle" class="node-sub">租户 / 场景 / 数据</text>
  <rect x="148.0" y="270.0" width="164.0" height="70.0" rx="10.0" fill="#f0fdf4" stroke="#bbf7d0" stroke-width="1.8"/>
  <text x="230.0" y="305.0" text-anchor="middle" class="node-title">approval</text>
  <text x="230.0" y="327.0" text-anchor="middle" class="node-sub">权限 / 合规 / 成本</text>
  <rect x="451.5" y="172.0" width="164.0" height="70.0" rx="10.0" fill="#fff7ed" stroke="#fed7aa" stroke-width="1.8"/>
  <text x="533.5" y="207.0" text-anchor="middle" class="node-title">training job</text>
  <text x="533.5" y="229.0" text-anchor="middle" class="node-sub">配置 / 资源 / 版本</text>
  <rect x="422.5" y="270.0" width="222.0" height="70.0" rx="10.0" fill="#faf5ff" stroke="#e9d5ff" stroke-width="1.8"/>
  <text x="533.5" y="305.0" text-anchor="middle" class="node-title">artifact lineage</text>
  <text x="533.5" y="327.0" text-anchor="middle" class="node-sub">base / adapter / dataset</text>
  <rect x="740.5" y="172.0" width="166.0" height="70.0" rx="10.0" fill="#f0fdfa" stroke="#99f6e4" stroke-width="1.8"/>
  <text x="823.5" y="207.0" text-anchor="middle" class="node-title">release decision</text>
  <text x="823.5" y="229.0" text-anchor="middle" class="node-sub">灰度 / 回滚 / 下线</text>
  <rect x="741.5" y="270.0" width="164.0" height="70.0" rx="10.0" fill="#f8fafc" stroke="#cbd5e1" stroke-width="1.8"/>
  <text x="823.5" y="305.0" text-anchor="middle" class="node-title">online feedback</text>
  <text x="823.5" y="327.0" text-anchor="middle" class="node-sub">质量 / 成本 / 安全</text>
  <line x1="42.0" y1="562.0" x2="72.0" y2="562.0" stroke="#7c3aed" stroke-width="2.4" marker-end="url(#arrowA)"/>
  <text x="82.0" y="566.0" class="legend">主路径 / 阶段推进</text>
  <line x1="42.0" y1="584.0" x2="72.0" y2="584.0" stroke="#ef4444" stroke-width="2.4" marker-end="url(#arrowG)"/>
  <text x="82.0" y="588.0" class="legend">反馈 / 回退</text>
  <text x="760.0" y="584.0" class="footnote">Rendered with fireworks-tech-graph</text>
</svg>