<svg xmlns="http://www.w3.org/2000/svg" width="1988" height="632" viewBox="0 0 1988 632"><defs><marker id="arrowA" markerHeight="7" markerWidth="10" orient="auto" refX="9" refY="3.5"><polygon fill="#7c3aed" points="0 0 10 3.5 0 7"/></marker><marker id="arrowB" markerHeight="7" markerWidth="10" orient="auto" refX="9" refY="3.5"><polygon fill="#10b981" points="0 0 10 3.5 0 7"/></marker><marker id="arrowC" markerHeight="7" markerWidth="10" orient="auto" refX="9" refY="3.5"><polygon fill="#2563eb" points="0 0 10 3.5 0 7"/></marker><marker id="arrowE" markerHeight="7" markerWidth="10" orient="auto" refX="9" refY="3.5"><polygon fill="#f97316" points="0 0 10 3.5 0 7"/></marker><marker id="arrowF" markerHeight="7" markerWidth="10" orient="auto" refX="9" refY="3.5"><polygon fill="#7c3aed" points="0 0 10 3.5 0 7"/></marker><marker id="arrowG" markerHeight="7" markerWidth="10" orient="auto" refX="9" refY="3.5"><polygon fill="#ef4444" points="0 0 10 3.5 0 7"/></marker><marker id="arrowH" markerHeight="7" markerWidth="10" orient="auto" refX="9" refY="3.5"><polygon fill="#6b7280" points="0 0 10 3.5 0 7"/></marker><filter id="shadowSoft" width="140%" height="160%" x="-20%" y="-20%"><feDropShadow dx="0" dy="3" flood-color="#0f172a" flood-opacity=".12" stdDeviation="6"/></filter><filter id="shadowGlass" width="140%" height="160%" x="-20%" y="-20%"><feDropShadow dx="0" dy="10" flood-color="#020617" flood-opacity=".28" stdDeviation="16"/></filter><style>text{font-family:&apos;Helvetica Neue&apos;,Helvetica,Arial,&apos;PingFang SC&apos;,&apos;Microsoft YaHei&apos;,&apos;Microsoft JhengHei&apos;,&apos;SimHei&apos;,sans-serif}.title{font-size:30px;font-weight:700;fill:#111827}.subtitle{font-size:14px;font-weight:500;fill:#6b7280}.node-title{font-size:18px;font-weight:700;fill:#111827}.footnote,.node-sub{font-size:12px;font-weight:500}.node-sub{fill:#6b7280}.footnote{fill:#94a3b8}</style></defs><rect width="1988" height="632" fill="#fff"/><text x="994" y="56" class="title" text-anchor="middle">14.4.1 工程实现</text><text x="994" y="82" class="subtitle" text-anchor="middle">part-03-models/chapter-14-model-serving.md:325</text><path fill="none" stroke="#7c3aed" stroke-width="2.4" marker-end="url(#arrowA)" d="M 994.0,212.0 L 994.0,232.4 L 142.0,269.6 L 142.0,290.0"/><path fill="none" stroke="#7c3aed" stroke-width="2.4" marker-end="url(#arrowA)" d="M 994.0,212.0 L 994.0,232.4 L 384.5,269.6 L 384.5,290.0"/><path fill="none" stroke="#7c3aed" stroke-width="2.4" marker-end="url(#arrowA)" d="M 994.0,212.0 L 994.0,232.4 L 627.0,263.6 L 627.0,284.0"/><path fill="none" stroke="#7c3aed" stroke-width="2.4" marker-end="url(#arrowA)" d="M 994.0,212.0 L 994.0,232.4 L 866.0,269.6 L 866.0,290.0"/><path fill="none" stroke="#7c3aed" stroke-width="2.4" marker-end="url(#arrowA)" d="M 994.0,212.0 L 994.0,232.4 L 1123.5,263.6 L 1123.5,284.0"/><path fill="none" stroke="#7c3aed" stroke-width="2.4" marker-end="url(#arrowA)" d="M 994.0,212.0 L 994.0,232.4 L 1367.0,263.6 L 1367.0,284.0"/><path fill="none" stroke="#7c3aed" stroke-width="2.4" marker-end="url(#arrowA)" d="M 994.0,212.0 L 994.0,232.4 L 1592.0,263.6 L 1592.0,284.0"/><path fill="none" stroke="#7c3aed" stroke-width="2.4" marker-end="url(#arrowA)" d="M 994.0,212.0 L 994.0,232.4 L 1824.0,263.6 L 1824.0,284.0"/><path fill="none" stroke="#7c3aed" stroke-width="2.4" marker-end="url(#arrowA)" d="M 1123.5,354.0 L 1123.5,374.4 L 664.0,411.6 L 664.0,432.0"/><path fill="none" stroke="#7c3aed" stroke-width="2.4" marker-end="url(#arrowA)" d="M 1367.0,354.0 L 1367.0,374.4 L 874.0,411.6 L 874.0,432.0"/><path fill="none" stroke="#7c3aed" stroke-width="2.4" marker-end="url(#arrowA)" d="M 1592.0,354.0 L 1592.0,374.4 L 1084.0,411.6 L 1084.0,432.0"/><path fill="none" stroke="#7c3aed" stroke-width="2.4" marker-end="url(#arrowA)" d="M 1824.0,354.0 L 1824.0,374.4 L 1309.0,405.6 L 1309.0,426.0"/><rect width="208" height="58" x="890" y="154" fill="#eff6ff" stroke="#bfdbfe" stroke-width="1.8" rx="10"/><text x="994" y="183" class="node-title" text-anchor="middle">serving_release_bundle</text><rect width="164" height="58" x="60" y="290" fill="#f0fdf4" stroke="#bbf7d0" stroke-width="1.8" rx="10"/><text x="142" y="319" class="node-title" text-anchor="middle">serving_release</text><rect width="229" height="58" x="270" y="290" fill="#fff7ed" stroke="#fed7aa" stroke-width="1.8" rx="10"/><text x="384.5" y="319" class="node-title" text-anchor="middle">model_artifact_provenance</text><rect width="164" height="70" x="545" y="284" fill="#faf5ff" stroke="#e9d5ff" stroke-width="1.8" rx="10"/><text x="627" y="319" class="node-title" text-anchor="middle">model_artifact</text><text x="627" y="341" class="node-sub" text-anchor="middle">distribution</text><rect width="222" height="58" x="755" y="290" fill="#f0fdfa" stroke="#99f6e4" stroke-width="1.8" rx="10"/><text x="866" y="319" class="node-title" text-anchor="middle">serving_quality_contract</text><rect width="201" height="70" x="1023" y="284" fill="#f8fafc" stroke="#cbd5e1" stroke-width="1.8" rx="10"/><text x="1123.5" y="319" class="node-title" text-anchor="middle">serving_route_release</text><text x="1123.5" y="341" class="node-sub" text-anchor="middle">contract</text><rect width="194" height="70" x="1270" y="284" fill="#eff6ff" stroke="#bfdbfe" stroke-width="1.8" rx="10"/><text x="1367" y="319" class="node-title" text-anchor="middle">runtime_quality_gate</text><text x="1367" y="341" class="node-sub" text-anchor="middle">engine_canary_record</text><rect width="164" height="70" x="1510" y="284" fill="#f0fdf4" stroke="#bbf7d0" stroke-width="1.8" rx="10"/><text x="1592" y="319" class="node-title" text-anchor="middle">usage schema</text><text x="1592" y="341" class="node-sub" text-anchor="middle">metering</text><rect width="208" height="70" x="1720" y="284" fill="#fff7ed" stroke="#fed7aa" stroke-width="1.8" rx="10"/><text x="1824" y="319" class="node-title" text-anchor="middle">serving_rollback_drill</text><text x="1824" y="341" class="node-sub" text-anchor="middle">rollback bundle</text><rect width="164" height="58" x="582" y="432" fill="#faf5ff" stroke="#e9d5ff" stroke-width="1.8" rx="10"/><text x="664" y="461" class="node-title" text-anchor="middle">AI Gateway</text><rect width="164" height="58" x="792" y="432" fill="#f0fdfa" stroke="#99f6e4" stroke-width="1.8" rx="10"/><text x="874" y="461" class="node-title" text-anchor="middle">Model Serving</text><rect width="164" height="58" x="1002" y="432" fill="#f8fafc" stroke="#cbd5e1" stroke-width="1.8" rx="10"/><text x="1084" y="461" class="node-title" text-anchor="middle">Billing</text><rect width="194" height="70" x="1212" y="426" fill="#eff6ff" stroke="#bfdbfe" stroke-width="1.8" rx="10"/><text x="1309" y="461" class="node-title" text-anchor="middle">production readiness</text><text x="1309" y="483" class="node-sub" text-anchor="middle">review</text><text x="1708" y="616" class="footnote">Rendered with fireworks-tech-graph</text></svg>