<svg xmlns="http://www.w3.org/2000/svg" viewBox="0 0 1659 644" width="1659" height="644">
  <defs>
    <marker id="arrowA" markerWidth="10" markerHeight="7" refX="9" refY="3.5" orient="auto">
      <polygon points="0 0, 10 3.5, 0 7" fill="#7c3aed"/>
    </marker>
    <marker id="arrowB" markerWidth="10" markerHeight="7" refX="9" refY="3.5" orient="auto">
      <polygon points="0 0, 10 3.5, 0 7" fill="#10b981"/>
    </marker>
    <marker id="arrowC" markerWidth="10" markerHeight="7" refX="9" refY="3.5" orient="auto">
      <polygon points="0 0, 10 3.5, 0 7" fill="#2563eb"/>
    </marker>
    <marker id="arrowE" markerWidth="10" markerHeight="7" refX="9" refY="3.5" orient="auto">
      <polygon points="0 0, 10 3.5, 0 7" fill="#f97316"/>
    </marker>
    <marker id="arrowF" markerWidth="10" markerHeight="7" refX="9" refY="3.5" orient="auto">
      <polygon points="0 0, 10 3.5, 0 7" fill="#7c3aed"/>
    </marker>
    <marker id="arrowG" markerWidth="10" markerHeight="7" refX="9" refY="3.5" orient="auto">
      <polygon points="0 0, 10 3.5, 0 7" fill="#ef4444"/>
    </marker>
    <marker id="arrowH" markerWidth="10" markerHeight="7" refX="9" refY="3.5" orient="auto">
      <polygon points="0 0, 10 3.5, 0 7" fill="#6b7280"/>
    </marker>
    <filter id="shadowSoft" x="-20%" y="-20%" width="140%" height="160%">
      <feDropShadow dx="0" dy="3" stdDeviation="6" flood-color="#0f172a" flood-opacity="0.12"/>
    </filter>
    <filter id="shadowGlass" x="-20%" y="-20%" width="140%" height="160%">
      <feDropShadow dx="0" dy="10" stdDeviation="16" flood-color="#020617" flood-opacity="0.28"/>
    </filter>
    <style>
    text { font-family: 'Helvetica Neue', Helvetica, Arial, 'PingFang SC', 'Microsoft YaHei', 'Microsoft JhengHei', 'SimHei', sans-serif; }
    .title { font-size: 30px; font-weight: 700; fill: #111827; }
    .subtitle { font-size: 14px; font-weight: 500; fill: #6b7280; }
    .section { font-size: 13px; font-weight: 700; fill: #2563eb; letter-spacing: 1.4px; }
    .section-sub { font-size: 12px; font-weight: 500; fill: #94a3b8; }
    .node-title { font-size: 18px; font-weight: 700; fill: #111827; }
    .node-sub { font-size: 12px; font-weight: 500; fill: #6b7280; }
    .node-type { font-size: 12px; font-weight: 700; fill: #9ca3af; letter-spacing: 0.08em; }
    .arrow-label { font-size: 12px; font-weight: 600; fill: #6b7280; }
    .legend { font-size: 12px; font-weight: 500; fill: #6b7280; }
    .footnote { font-size: 12px; font-weight: 500; fill: #94a3b8; }
    </style>
  </defs>
  <rect width="1659.0" height="644.0" fill="#ffffff"/>
  <text x="829.5" y="56" text-anchor="middle" class="title">23.4.1 工程实现</text>
  <text x="829.5" y="82" text-anchor="middle" class="subtitle">part-05-orchestration/chapter-23-ai-job-scheduling.md:341</text>
  <path d="M 150.0,224.0 L 150.0,244.4 L 829.5,275.6 L 829.5,296.0" fill="none" stroke="#7c3aed" stroke-width="2.4" marker-end="url(#arrowA)"/>
  <path d="M 368.0,218.0 L 368.0,238.4 L 829.5,275.6 L 829.5,296.0" fill="none" stroke="#7c3aed" stroke-width="2.4" marker-end="url(#arrowA)"/>
  <path d="M 586.0,218.0 L 586.0,238.4 L 829.5,275.6 L 829.5,296.0" fill="none" stroke="#7c3aed" stroke-width="2.4" marker-end="url(#arrowA)"/>
  <path d="M 910.0,224.0 L 910.0,244.4 L 829.5,275.6 L 829.5,296.0" fill="none" stroke="#7c3aed" stroke-width="2.4" marker-end="url(#arrowA)"/>
  <path d="M 1251.5,224.0 L 1251.5,244.4 L 829.5,275.6 L 829.5,296.0" fill="none" stroke="#7c3aed" stroke-width="2.4" marker-end="url(#arrowA)"/>
  <path d="M 1502.0,224.0 L 1502.0,244.4 L 829.5,275.6 L 829.5,296.0" fill="none" stroke="#7c3aed" stroke-width="2.4" marker-end="url(#arrowA)"/>
  <path d="M 829.5,366.0 L 829.5,386.4 L 561.5,423.6 L 561.5,444.0" fill="none" stroke="#7c3aed" stroke-width="2.4" marker-end="url(#arrowA)"/>
  <path d="M 829.5,366.0 L 829.5,386.4 L 854.0,417.6 L 854.0,438.0" fill="none" stroke="#7c3aed" stroke-width="2.4" marker-end="url(#arrowA)"/>
  <path d="M 829.5,366.0 L 829.5,386.4 L 1122.0,423.6 L 1122.0,444.0" fill="none" stroke="#7c3aed" stroke-width="2.4" marker-end="url(#arrowA)"/>
  <rect x="60.0" y="154.0" width="180.0" height="70.0" rx="10.0" fill="#eff6ff" stroke="#bfdbfe" stroke-width="1.8"/>
  <text x="150.0" y="189.0" text-anchor="middle" class="node-title">gpu_resource_claim</text>
  <text x="150.0" y="211.0" text-anchor="middle" class="node-sub">contract</text>
  <rect x="286.0" y="160.0" width="164.0" height="58.0" rx="10.0" fill="#fff7ed" stroke="#fed7aa" stroke-width="1.8"/>
  <text x="368.0" y="189.0" text-anchor="middle" class="node-title">entitlement</text>
  <rect x="496.0" y="160.0" width="180.0" height="58.0" rx="10.0" fill="#faf5ff" stroke="#e9d5ff" stroke-width="1.8"/>
  <text x="586.0" y="189.0" text-anchor="middle" class="node-title">queue quota / gang</text>
  <rect x="722.0" y="154.0" width="376.0" height="70.0" rx="10.0" fill="#f0fdfa" stroke="#99f6e4" stroke-width="1.8"/>
  <text x="910.0" y="189.0" text-anchor="middle" class="node-title">DeviceClass</text>
  <text x="910.0" y="211.0" text-anchor="middle" class="node-sub">ResourceSlice / or extended resource inventory</text>
  <rect x="1144.0" y="154.0" width="215.0" height="70.0" rx="10.0" fill="#f8fafc" stroke="#cbd5e1" stroke-width="1.8"/>
  <text x="1251.5" y="189.0" text-anchor="middle" class="node-title">rank topology / GPU-NIC</text>
  <text x="1251.5" y="211.0" text-anchor="middle" class="node-sub">fabric</text>
  <rect x="1405.0" y="154.0" width="194.0" height="70.0" rx="10.0" fill="#eff6ff" stroke="#bfdbfe" stroke-width="1.8"/>
  <text x="1502.0" y="189.0" text-anchor="middle" class="node-title">runtime + acceptance</text>
  <text x="1502.0" y="211.0" text-anchor="middle" class="node-sub">baseline</text>
  <rect x="718.5" y="296.0" width="222.0" height="70.0" rx="10.0" fill="#f0fdf4" stroke="#bbf7d0" stroke-width="1.8"/>
  <text x="829.5" y="331.0" text-anchor="middle" class="node-title">resource_claim_admission</text>
  <text x="829.5" y="353.0" text-anchor="middle" class="node-sub">record</text>
  <rect x="454.0" y="444.0" width="215.0" height="58.0" rx="10.0" fill="#f0fdf4" stroke="#bbf7d0" stroke-width="1.8"/>
  <text x="561.5" y="473.0" text-anchor="middle" class="node-title">placement_commit_record</text>
  <rect x="715.0" y="438.0" width="278.0" height="70.0" rx="10.0" fill="#fff7ed" stroke="#fed7aa" stroke-width="1.8"/>
  <text x="854.0" y="473.0" text-anchor="middle" class="node-title">pending reason</text>
  <text x="854.0" y="495.0" text-anchor="middle" class="node-sub">quota / gang / topology / flavor</text>
  <rect x="1039.0" y="444.0" width="166.0" height="58.0" rx="10.0" fill="#faf5ff" stroke="#e9d5ff" stroke-width="1.8"/>
  <text x="1122.0" y="473.0" text-anchor="middle" class="node-title">actionable error</text>
  <rect x="667.5" y="375.0" width="56" height="20" rx="6" fill="#ffffff" opacity="0.94"/>
  <text x="695.5" y="389.0" text-anchor="middle" class="arrow-label">accept</text>
  <rect x="820.75" y="372.0" width="42" height="20" rx="6" fill="#ffffff" opacity="0.94"/>
  <text x="841.75" y="386.0" text-anchor="middle" class="arrow-label">wait</text>
  <rect x="947.75" y="375.0" width="56" height="20" rx="6" fill="#ffffff" opacity="0.94"/>
  <text x="975.75" y="389.0" text-anchor="middle" class="arrow-label">reject</text>
  <text x="1379.0" y="628.0" class="footnote">Rendered with fireworks-tech-graph</text>
</svg>