<svg xmlns="http://www.w3.org/2000/svg" width="1151" height="670" viewBox="0 0 1151 670"><defs><marker id="arrowA" markerHeight="7" markerWidth="10" orient="auto" refX="9" refY="3.5"><polygon fill="#7c3aed" points="0 0 10 3.5 0 7"/></marker><marker id="arrowB" markerHeight="7" markerWidth="10" orient="auto" refX="9" refY="3.5"><polygon fill="#10b981" points="0 0 10 3.5 0 7"/></marker><marker id="arrowC" markerHeight="7" markerWidth="10" orient="auto" refX="9" refY="3.5"><polygon fill="#2563eb" points="0 0 10 3.5 0 7"/></marker><marker id="arrowE" markerHeight="7" markerWidth="10" orient="auto" refX="9" refY="3.5"><polygon fill="#f97316" points="0 0 10 3.5 0 7"/></marker><marker id="arrowF" markerHeight="7" markerWidth="10" orient="auto" refX="9" refY="3.5"><polygon fill="#7c3aed" points="0 0 10 3.5 0 7"/></marker><marker id="arrowG" markerHeight="7" markerWidth="10" orient="auto" refX="9" refY="3.5"><polygon fill="#ef4444" points="0 0 10 3.5 0 7"/></marker><marker id="arrowH" markerHeight="7" markerWidth="10" orient="auto" refX="9" refY="3.5"><polygon fill="#6b7280" points="0 0 10 3.5 0 7"/></marker><filter id="shadowSoft" width="140%" height="160%" x="-20%" y="-20%"><feDropShadow dx="0" dy="3" flood-color="#0f172a" flood-opacity=".12" stdDeviation="6"/></filter><filter id="shadowGlass" width="140%" height="160%" x="-20%" y="-20%"><feDropShadow dx="0" dy="10" flood-color="#020617" flood-opacity=".28" stdDeviation="16"/></filter><style>text{font-family:&apos;Helvetica Neue&apos;,Helvetica,Arial,&apos;PingFang SC&apos;,&apos;Microsoft YaHei&apos;,&apos;Microsoft JhengHei&apos;,&apos;SimHei&apos;,sans-serif}.title{font-size:30px;font-weight:700;fill:#111827}.subtitle{font-size:14px;font-weight:500;fill:#6b7280}.section{font-size:13px;font-weight:700;fill:#2563eb;letter-spacing:1.4px}.section-sub{font-size:12px;font-weight:500;fill:#94a3b8}.node-title{font-size:18px;font-weight:700;fill:#111827}.footnote,.legend{font-size:12px;font-weight:500}.legend{fill:#6b7280}.footnote{fill:#94a3b8}</style></defs><rect width="1151" height="670" fill="#fff"/><text x="575.5" y="56" class="title" text-anchor="middle">0.3.6 一次推理请求的完整路径</text><text x="575.5" y="82" class="subtitle" text-anchor="middle">part-00-introduction/chapter-00-from-datacenter-to-ai-factory.md:149</text><rect width="228" height="470" x="42" y="118" fill="#f8fafc" stroke="#dbe5f1" stroke-dasharray="7 5" stroke-width="1.4" rx="16"/><text x="60" y="142" class="section">阶段 1</text><text x="60" y="162" class="section-sub">用户请求 -&gt; 租户限流</text><rect width="228" height="470" x="308" y="118" fill="#fff" stroke="#dbe5f1" stroke-dasharray="7 5" stroke-width="1.4" rx="16"/><text x="326" y="142" class="section">阶段 2</text><text x="326" y="162" class="section-sub">模型路由 -&gt; prefill</text><rect width="228" height="470" x="574" y="118" fill="#f8fafc" stroke="#dbe5f1" stroke-dasharray="7 5" stroke-width="1.4" rx="16"/><text x="592" y="142" class="section">阶段 3</text><text x="592" y="162" class="section-sub">decode -&gt; GPU / HBM</text><rect width="269" height="470" x="840" y="118" fill="#fff" stroke="#dbe5f1" stroke-dasharray="7 5" stroke-width="1.4" rx="16"/><text x="858" y="142" class="section">阶段 4</text><text x="858" y="162" class="section-sub">token streaming -&gt; billing / observability</text><path fill="none" stroke="#7c3aed" stroke-width="2.4" marker-end="url(#arrowA)" d="M 156.0,230.0 L 156.0,270.0"/><path fill="none" stroke="#7c3aed" stroke-width="2.4" marker-end="url(#arrowA)" d="M 156.0,328.0 L 156.0,368.0"/><path fill="none" stroke="#7c3aed" stroke-width="2.4" marker-end="url(#arrowA)" d="M 156.0,426.0 L 156.0,466.0"/><path fill="none" stroke="#7c3aed" stroke-width="2.4" marker-end="url(#arrowA)" d="M 238.0,495.0 L 289.0,495.0 L 289.0,201.0 L 340.0,201.0"/><path fill="none" stroke="#7c3aed" stroke-width="2.4" marker-end="url(#arrowA)" d="M 422.0,230.0 L 422.0,270.0"/><path fill="none" stroke="#7c3aed" stroke-width="2.4" marker-end="url(#arrowA)" d="M 422.0,328.0 L 422.0,368.0"/><path fill="none" stroke="#7c3aed" stroke-width="2.4" marker-end="url(#arrowA)" d="M 422.0,426.0 L 422.0,466.0"/><path fill="none" stroke="#7c3aed" stroke-width="2.4" marker-end="url(#arrowA)" d="M 504.0,495.0 L 555.0,495.0 L 555.0,201.0 L 606.0,201.0"/><path fill="none" stroke="#7c3aed" stroke-width="2.4" marker-end="url(#arrowA)" d="M 688.0,230.0 L 688.0,270.0"/><path fill="none" stroke="#7c3aed" stroke-width="2.4" marker-end="url(#arrowA)" d="M 688.0,328.0 L 688.0,368.0"/><path fill="none" stroke="#7c3aed" stroke-width="2.4" marker-end="url(#arrowA)" d="M 688.0,426.0 L 688.0,466.0"/><path fill="none" stroke="#7c3aed" stroke-width="2.4" marker-end="url(#arrowA)" d="M 770.0,495.0 L 790.4,495.0 L 872.1,250.0 L 892.5,250.0"/><path fill="none" stroke="#7c3aed" stroke-width="2.4" marker-end="url(#arrowA)" d="M 974.5,279.0 L 974.5,319.0"/><path fill="none" stroke="#7c3aed" stroke-width="2.4" marker-end="url(#arrowA)" d="M 974.5,377.0 L 974.5,417.0"/><rect width="164" height="58" x="74" y="172" fill="#eff6ff" stroke="#bfdbfe" stroke-width="1.8" rx="10"/><text x="156" y="201" class="node-title" text-anchor="middle">用户请求</text><rect width="164" height="58" x="74" y="270" fill="#f0fdf4" stroke="#bbf7d0" stroke-width="1.8" rx="10"/><text x="156" y="299" class="node-title" text-anchor="middle">AI Gateway</text><rect width="164" height="58" x="74" y="368" fill="#fff7ed" stroke="#fed7aa" stroke-width="1.8" rx="10"/><text x="156" y="397" class="node-title" text-anchor="middle">认证鉴权</text><rect width="164" height="58" x="74" y="466" fill="#faf5ff" stroke="#e9d5ff" stroke-width="1.8" rx="10"/><text x="156" y="495" class="node-title" text-anchor="middle">租户限流</text><rect width="164" height="58" x="340" y="172" fill="#f0fdfa" stroke="#99f6e4" stroke-width="1.8" rx="10"/><text x="422" y="201" class="node-title" text-anchor="middle">模型路由</text><rect width="164" height="58" x="340" y="270" fill="#f8fafc" stroke="#cbd5e1" stroke-width="1.8" rx="10"/><text x="422" y="299" class="node-title" text-anchor="middle">推理服务</text><rect width="164" height="58" x="340" y="368" fill="#eff6ff" stroke="#bfdbfe" stroke-width="1.8" rx="10"/><text x="422" y="397" class="node-title" text-anchor="middle">请求队列 / batching</text><rect width="164" height="58" x="340" y="466" fill="#f0fdf4" stroke="#bbf7d0" stroke-width="1.8" rx="10"/><text x="422" y="495" class="node-title" text-anchor="middle">prefill</text><rect width="164" height="58" x="606" y="172" fill="#fff7ed" stroke="#fed7aa" stroke-width="1.8" rx="10"/><text x="688" y="201" class="node-title" text-anchor="middle">decode</text><rect width="164" height="58" x="606" y="270" fill="#faf5ff" stroke="#e9d5ff" stroke-width="1.8" rx="10"/><text x="688" y="299" class="node-title" text-anchor="middle">KV Cache</text><rect width="164" height="58" x="606" y="368" fill="#f0fdfa" stroke="#99f6e4" stroke-width="1.8" rx="10"/><text x="688" y="397" class="node-title" text-anchor="middle">CUDA kernel</text><rect width="164" height="58" x="606" y="466" fill="#f8fafc" stroke="#cbd5e1" stroke-width="1.8" rx="10"/><text x="688" y="495" class="node-title" text-anchor="middle">GPU / HBM</text><rect width="164" height="58" x="892.5" y="221" fill="#eff6ff" stroke="#bfdbfe" stroke-width="1.8" rx="10"/><text x="974.5" y="250" class="node-title" text-anchor="middle">token streaming</text><rect width="164" height="58" x="892.5" y="319" fill="#f0fdf4" stroke="#bbf7d0" stroke-width="1.8" rx="10"/><text x="974.5" y="348" class="node-title" text-anchor="middle">token 计量</text><rect width="215" height="58" x="867" y="417" fill="#fff7ed" stroke="#fed7aa" stroke-width="1.8" rx="10"/><text x="974.5" y="446" class="node-title" text-anchor="middle">billing / observability</text><line x1="42" x2="72" y1="632" y2="632" stroke="#7c3aed" stroke-width="2.4" marker-end="url(#arrowA)"/><text x="82" y="636" class="legend">主路径 / 阶段推进</text><text x="871" y="654" class="footnote">Rendered with fireworks-tech-graph</text></svg>