<svg xmlns="http://www.w3.org/2000/svg" width="1591" height="1046" viewBox="0 0 1591 1046"><defs><marker id="arrowA" markerHeight="7" markerWidth="10" orient="auto" refX="9" refY="3.5"><polygon fill="#7c3aed" points="0 0 10 3.5 0 7"/></marker><marker id="arrowB" markerHeight="7" markerWidth="10" orient="auto" refX="9" refY="3.5"><polygon fill="#10b981" points="0 0 10 3.5 0 7"/></marker><marker id="arrowC" markerHeight="7" markerWidth="10" orient="auto" refX="9" refY="3.5"><polygon fill="#2563eb" points="0 0 10 3.5 0 7"/></marker><marker id="arrowE" markerHeight="7" markerWidth="10" orient="auto" refX="9" refY="3.5"><polygon fill="#f97316" points="0 0 10 3.5 0 7"/></marker><marker id="arrowF" markerHeight="7" markerWidth="10" orient="auto" refX="9" refY="3.5"><polygon fill="#7c3aed" points="0 0 10 3.5 0 7"/></marker><marker id="arrowG" markerHeight="7" markerWidth="10" orient="auto" refX="9" refY="3.5"><polygon fill="#ef4444" points="0 0 10 3.5 0 7"/></marker><marker id="arrowH" markerHeight="7" markerWidth="10" orient="auto" refX="9" refY="3.5"><polygon fill="#6b7280" points="0 0 10 3.5 0 7"/></marker><filter id="shadowSoft" width="140%" height="160%" x="-20%" y="-20%"><feDropShadow dx="0" dy="3" flood-color="#0f172a" flood-opacity=".12" stdDeviation="6"/></filter><filter id="shadowGlass" width="140%" height="160%" x="-20%" y="-20%"><feDropShadow dx="0" dy="10" flood-color="#020617" flood-opacity=".28" stdDeviation="16"/></filter><style>text{font-family:&apos;Helvetica Neue&apos;,Helvetica,Arial,&apos;PingFang SC&apos;,&apos;Microsoft YaHei&apos;,&apos;Microsoft JhengHei&apos;,&apos;SimHei&apos;,sans-serif}.title{font-size:30px;font-weight:700;fill:#111827}.subtitle{font-size:14px;font-weight:500;fill:#6b7280}.node-title{font-size:18px;font-weight:700;fill:#111827}.footnote,.node-sub{font-size:12px;font-weight:500}.node-sub{fill:#6b7280}.footnote{fill:#94a3b8}</style></defs><rect width="1591" height="1046" fill="#fff"/><text x="795.5" y="56" class="title" text-anchor="middle">39.4.1 工程实现</text><text x="795.5" y="82" class="subtitle" text-anchor="middle">part-09-reliability-observability/chapter-39-troubleshooting.md:1482</text><path fill="none" stroke="#7c3aed" stroke-width="2.4" marker-end="url(#arrowA)" d="M 795.5,212.0 L 795.5,284.0"/><path fill="none" stroke="#7c3aed" stroke-width="2.4" marker-end="url(#arrowA)" d="M 795.5,354.0 L 795.5,374.4 L 164.0,411.6 L 164.0,432.0"/><path fill="none" stroke="#7c3aed" stroke-width="2.4" marker-end="url(#arrowA)" d="M 795.5,354.0 L 795.5,374.4 L 428.5,411.6 L 428.5,432.0"/><path fill="none" stroke="#7c3aed" stroke-width="2.4" marker-end="url(#arrowA)" d="M 795.5,354.0 L 795.5,374.4 L 707.0,411.6 L 707.0,432.0"/><path fill="none" stroke="#7c3aed" stroke-width="2.4" marker-end="url(#arrowA)" d="M 795.5,354.0 L 795.5,374.4 L 964.5,405.6 L 964.5,426.0"/><path fill="none" stroke="#7c3aed" stroke-width="2.4" marker-end="url(#arrowA)" d="M 795.5,354.0 L 795.5,374.4 L 1208.0,411.6 L 1208.0,432.0"/><path fill="none" stroke="#7c3aed" stroke-width="2.4" marker-end="url(#arrowA)" d="M 795.5,354.0 L 795.5,374.4 L 1444.5,411.6 L 1444.5,432.0"/><path fill="none" stroke="#7c3aed" stroke-width="2.4" marker-end="url(#arrowA)" d="M 964.5,496.0 L 964.5,516.4 L 672.0,547.6 L 672.0,568.0"/><path fill="none" stroke="#7c3aed" stroke-width="2.4" marker-end="url(#arrowA)" d="M 707.0,490.0 L 707.0,510.4 L 672.0,547.6 L 672.0,568.0"/><path fill="none" stroke="#7c3aed" stroke-width="2.4" marker-end="url(#arrowA)" d="M 1208.0,490.0 L 1208.0,510.4 L 672.0,547.6 L 672.0,568.0"/><path fill="none" stroke="#7c3aed" stroke-width="2.4" marker-end="url(#arrowA)" d="M 1444.5,490.0 L 1444.5,510.4 L 922.5,547.6 L 922.5,568.0"/><path fill="none" stroke="#7c3aed" stroke-width="2.4" marker-end="url(#arrowA)" d="M 672.0,626.0 L 672.0,646.4 L 795.5,677.6 L 795.5,698.0"/><path fill="none" stroke="#7c3aed" stroke-width="2.4" marker-end="url(#arrowA)" d="M 922.5,626.0 L 922.5,646.4 L 795.5,677.6 L 795.5,698.0"/><path fill="none" stroke="#7c3aed" stroke-width="2.4" marker-end="url(#arrowA)" d="M 795.5,768.0 L 795.5,840.0"/><rect width="194" height="58" x="698.5" y="154" fill="#eff6ff" stroke="#bfdbfe" stroke-width="1.8" rx="10"/><text x="795.5" y="183" class="node-title" text-anchor="middle">supply chain symptom</text><rect width="215" height="70" x="688" y="284" fill="#f0fdf4" stroke="#bbf7d0" stroke-width="1.8" rx="10"/><text x="795.5" y="319" class="node-title" text-anchor="middle">supply_chain_fault_tree</text><text x="795.5" y="341" class="node-sub" text-anchor="middle">execution</text><rect width="208" height="58" x="60" y="432" fill="#fff7ed" stroke="#fed7aa" stroke-width="1.8" rx="10"/><text x="164" y="461" class="node-title" text-anchor="middle">dataset lineage branch</text><rect width="229" height="58" x="314" y="432" fill="#faf5ff" stroke="#e9d5ff" stroke-width="1.8" rx="10"/><text x="428.5" y="461" class="node-title" text-anchor="middle">checkpoint restore branch</text><rect width="236" height="58" x="589" y="432" fill="#f0fdfa" stroke="#99f6e4" stroke-width="1.8" rx="10"/><text x="707" y="461" class="node-title" text-anchor="middle">artifact provenance branch</text><rect width="187" height="70" x="871" y="426" fill="#f8fafc" stroke="#cbd5e1" stroke-width="1.8" rx="10"/><text x="964.5" y="461" class="node-title" text-anchor="middle">cache</text><text x="964.5" y="483" class="node-sub" text-anchor="middle">distribution branch</text><rect width="208" height="58" x="1104" y="432" fill="#eff6ff" stroke="#bfdbfe" stroke-width="1.8" rx="10"/><text x="1208" y="461" class="node-title" text-anchor="middle">RAG index / ACL branch</text><rect width="173" height="58" x="1358" y="432" fill="#f0fdf4" stroke="#bbf7d0" stroke-width="1.8" rx="10"/><text x="1444.5" y="461" class="node-title" text-anchor="middle">accounting branch</text><rect width="208" height="58" x="568" y="568" fill="#fff7ed" stroke="#fed7aa" stroke-width="1.8" rx="10"/><text x="672" y="597" class="node-title" text-anchor="middle">block / drain / rewarm</text><rect width="201" height="58" x="822" y="568" fill="#faf5ff" stroke="#e9d5ff" stroke-width="1.8" rx="10"/><text x="922.5" y="597" class="node-title" text-anchor="middle">billing hold / replay</text><rect width="236" height="70" x="677.5" y="698" fill="#f0fdfa" stroke="#99f6e4" stroke-width="1.8" rx="10"/><text x="795.5" y="733" class="node-title" text-anchor="middle">supply_chain_incident_cost</text><text x="795.5" y="755" class="node-sub" text-anchor="middle">record</text><rect width="201" height="70" x="695" y="840" fill="#f8fafc" stroke="#cbd5e1" stroke-width="1.8" rx="10"/><text x="795.5" y="875" class="node-title" text-anchor="middle">supply chain PRR gate</text><text x="795.5" y="897" class="node-sub" text-anchor="middle">update</text><text x="1311" y="1030" class="footnote">Rendered with fireworks-tech-graph</text></svg>