<svg xmlns="http://www.w3.org/2000/svg" viewBox="0 0 960 1200" width="960" height="1200">
  <defs>
    <marker id="arrowA" markerWidth="10" markerHeight="7" refX="9" refY="3.5" orient="auto">
      <polygon points="0 0, 10 3.5, 0 7" fill="#7c3aed"/>
    </marker>
    <marker id="arrowB" markerWidth="10" markerHeight="7" refX="9" refY="3.5" orient="auto">
      <polygon points="0 0, 10 3.5, 0 7" fill="#10b981"/>
    </marker>
    <marker id="arrowC" markerWidth="10" markerHeight="7" refX="9" refY="3.5" orient="auto">
      <polygon points="0 0, 10 3.5, 0 7" fill="#2563eb"/>
    </marker>
    <marker id="arrowE" markerWidth="10" markerHeight="7" refX="9" refY="3.5" orient="auto">
      <polygon points="0 0, 10 3.5, 0 7" fill="#f97316"/>
    </marker>
    <marker id="arrowF" markerWidth="10" markerHeight="7" refX="9" refY="3.5" orient="auto">
      <polygon points="0 0, 10 3.5, 0 7" fill="#7c3aed"/>
    </marker>
    <marker id="arrowG" markerWidth="10" markerHeight="7" refX="9" refY="3.5" orient="auto">
      <polygon points="0 0, 10 3.5, 0 7" fill="#ef4444"/>
    </marker>
    <marker id="arrowH" markerWidth="10" markerHeight="7" refX="9" refY="3.5" orient="auto">
      <polygon points="0 0, 10 3.5, 0 7" fill="#6b7280"/>
    </marker>
    <filter id="shadowSoft" x="-20%" y="-20%" width="140%" height="160%">
      <feDropShadow dx="0" dy="3" stdDeviation="6" flood-color="#0f172a" flood-opacity="0.12"/>
    </filter>
    <filter id="shadowGlass" x="-20%" y="-20%" width="140%" height="160%">
      <feDropShadow dx="0" dy="10" stdDeviation="16" flood-color="#020617" flood-opacity="0.28"/>
    </filter>
    <style>
    text { font-family: 'Helvetica Neue', Helvetica, Arial, 'PingFang SC', 'Microsoft YaHei', 'Microsoft JhengHei', 'SimHei', sans-serif; }
    .title { font-size: 30px; font-weight: 700; fill: #111827; }
    .subtitle { font-size: 14px; font-weight: 500; fill: #6b7280; }
    .section { font-size: 13px; font-weight: 700; fill: #2563eb; letter-spacing: 1.4px; }
    .section-sub { font-size: 12px; font-weight: 500; fill: #94a3b8; }
    .node-title { font-size: 18px; font-weight: 700; fill: #111827; }
    .node-sub { font-size: 12px; font-weight: 500; fill: #6b7280; }
    .node-type { font-size: 12px; font-weight: 700; fill: #9ca3af; letter-spacing: 0.08em; }
    .arrow-label { font-size: 12px; font-weight: 600; fill: #6b7280; }
    .legend { font-size: 12px; font-weight: 500; fill: #6b7280; }
    .footnote { font-size: 12px; font-weight: 500; fill: #94a3b8; }
    </style>
  </defs>
  <rect width="960.0" height="1200.0" fill="#ffffff"/>
  <text x="480.0" y="56" text-anchor="middle" class="title">44.4.1 工程实现</text>
  <text x="480.0" y="82" text-anchor="middle" class="subtitle">part-10-economics-cases/chapter-44-building-ai-factory.md:1154</text>
  <path d="M 480.0,212.0 L 480.0,284.0" fill="none" stroke="#7c3aed" stroke-width="2.4" marker-end="url(#arrowA)"/>
  <path d="M 480.0,354.0 L 480.0,426.0" fill="none" stroke="#7c3aed" stroke-width="2.4" marker-end="url(#arrowA)"/>
  <path d="M 480.0,496.0 L 480.0,568.0" fill="none" stroke="#7c3aed" stroke-width="2.4" marker-end="url(#arrowA)"/>
  <path d="M 480.0,638.0 L 480.0,658.4 L 370.5,689.6 L 370.5,710.0" fill="none" stroke="#7c3aed" stroke-width="2.4" marker-end="url(#arrowA)"/>
  <path d="M 480.0,638.0 L 480.0,658.4 L 621.0,689.6 L 621.0,710.0" fill="none" stroke="#7c3aed" stroke-width="2.4" marker-end="url(#arrowA)"/>
  <path d="M 480.0,638.0 L 480.0,658.4 L 349.5,831.6 L 349.5,852.0" fill="none" stroke="#7c3aed" stroke-width="2.4" marker-end="url(#arrowA)"/>
  <path d="M 370.5,780.0 L 370.5,800.4 L 349.5,831.6 L 349.5,852.0" fill="none" stroke="#7c3aed" stroke-width="2.4" marker-end="url(#arrowA)"/>
  <path d="M 621.0,780.0 L 621.0,800.4 L 617.5,831.6 L 617.5,852.0" fill="none" stroke="#7c3aed" stroke-width="2.4" marker-end="url(#arrowA)"/>
  <path d="M 349.5,922.0 L 349.5,942.4 L 328.5,979.6 L 328.5,1000.0" fill="none" stroke="#7c3aed" stroke-width="2.4" marker-end="url(#arrowA)"/>
  <path d="M 349.5,922.0 L 349.5,942.4 L 603.5,973.6 L 603.5,994.0" fill="none" stroke="#7c3aed" stroke-width="2.4" marker-end="url(#arrowA)"/>
  <rect x="383.0" y="154.0" width="194.0" height="58.0" rx="10.0" fill="#eff6ff" stroke="#bfdbfe" stroke-width="1.8"/>
  <text x="480.0" y="183.0" text-anchor="middle" class="node-title">private delivery PRR</text>
  <rect x="376.0" y="284.0" width="208.0" height="70.0" rx="10.0" fill="#f0fdf4" stroke="#bbf7d0" stroke-width="1.8"/>
  <text x="480.0" y="319.0" text-anchor="middle" class="node-title">offline_release_bundle</text>
  <text x="480.0" y="341.0" text-anchor="middle" class="node-sub">manifest</text>
  <rect x="327.0" y="426.0" width="306.0" height="70.0" rx="10.0" fill="#fff7ed" stroke="#fed7aa" stroke-width="1.8"/>
  <text x="480.0" y="461.0" text-anchor="middle" class="node-title">offline_import_record</text>
  <text x="480.0" y="483.0" text-anchor="middle" class="node-sub">registry / artifact / chart / config</text>
  <rect x="355.0" y="568.0" width="250.0" height="70.0" rx="10.0" fill="#faf5ff" stroke="#e9d5ff" stroke-width="1.8"/>
  <text x="480.0" y="603.0" text-anchor="middle" class="node-title">offline_upgrade_rehearsal</text>
  <text x="480.0" y="625.0" text-anchor="middle" class="node-sub">smoke / migration / rollback</text>
  <rect x="252.5" y="710.0" width="236.0" height="70.0" rx="10.0" fill="#f0fdfa" stroke="#99f6e4" stroke-width="1.8"/>
  <text x="370.5" y="745.0" text-anchor="middle" class="node-title">field_patch_execution</text>
  <text x="370.5" y="767.0" text-anchor="middle" class="node-sub">record / if emergency path</text>
  <rect x="534.5" y="710.0" width="173.0" height="70.0" rx="10.0" fill="#f8fafc" stroke="#cbd5e1" stroke-width="1.8"/>
  <text x="621.0" y="745.0" text-anchor="middle" class="node-title">private_delivery</text>
  <text x="621.0" y="767.0" text-anchor="middle" class="node-sub">diagnostic_export</text>
  <rect x="235.0" y="852.0" width="229.0" height="70.0" rx="10.0" fill="#eff6ff" stroke="#bfdbfe" stroke-width="1.8"/>
  <text x="349.5" y="887.0" text-anchor="middle" class="node-title">private_delivery_incident</text>
  <text x="349.5" y="909.0" text-anchor="middle" class="node-sub">cost_record</text>
  <rect x="510.0" y="852.0" width="215.0" height="70.0" rx="10.0" fill="#f0fdf4" stroke="#bbf7d0" stroke-width="1.8"/>
  <text x="617.5" y="887.0" text-anchor="middle" class="node-title">support_ticket_taxonomy</text>
  <text x="617.5" y="909.0" text-anchor="middle" class="node-sub">customer communication</text>
  <rect x="228.0" y="1000.0" width="201.0" height="58.0" rx="10.0" fill="#fff7ed" stroke="#fed7aa" stroke-width="1.8"/>
  <text x="328.5" y="1029.0" text-anchor="middle" class="node-title">commercial_pnl_ledger</text>
  <rect x="475.0" y="994.0" width="257.0" height="70.0" rx="10.0" fill="#faf5ff" stroke="#e9d5ff" stroke-width="1.8"/>
  <text x="603.5" y="1029.0" text-anchor="middle" class="node-title">PRR gate update</text>
  <text x="603.5" y="1051.0" text-anchor="middle" class="node-sub">block / conditional / approve</text>
  <text x="680.0" y="1184.0" class="footnote">Rendered with fireworks-tech-graph</text>
</svg>