<svg xmlns="http://www.w3.org/2000/svg" width="960" height="1388" viewBox="0 0 960 1388"><defs><marker id="arrowA" markerHeight="7" markerWidth="10" orient="auto" refX="9" refY="3.5"><polygon fill="#7c3aed" points="0 0 10 3.5 0 7"/></marker><marker id="arrowB" markerHeight="7" markerWidth="10" orient="auto" refX="9" refY="3.5"><polygon fill="#10b981" points="0 0 10 3.5 0 7"/></marker><marker id="arrowC" markerHeight="7" markerWidth="10" orient="auto" refX="9" refY="3.5"><polygon fill="#2563eb" points="0 0 10 3.5 0 7"/></marker><marker id="arrowE" markerHeight="7" markerWidth="10" orient="auto" refX="9" refY="3.5"><polygon fill="#f97316" points="0 0 10 3.5 0 7"/></marker><marker id="arrowF" markerHeight="7" markerWidth="10" orient="auto" refX="9" refY="3.5"><polygon fill="#7c3aed" points="0 0 10 3.5 0 7"/></marker><marker id="arrowG" markerHeight="7" markerWidth="10" orient="auto" refX="9" refY="3.5"><polygon fill="#ef4444" points="0 0 10 3.5 0 7"/></marker><marker id="arrowH" markerHeight="7" markerWidth="10" orient="auto" refX="9" refY="3.5"><polygon fill="#6b7280" points="0 0 10 3.5 0 7"/></marker><filter id="shadowSoft" width="140%" height="160%" x="-20%" y="-20%"><feDropShadow dx="0" dy="3" flood-color="#0f172a" flood-opacity=".12" stdDeviation="6"/></filter><filter id="shadowGlass" width="140%" height="160%" x="-20%" y="-20%"><feDropShadow dx="0" dy="10" flood-color="#020617" flood-opacity=".28" stdDeviation="16"/></filter><style>text{font-family:&apos;Helvetica Neue&apos;,Helvetica,Arial,&apos;PingFang SC&apos;,&apos;Microsoft YaHei&apos;,&apos;Microsoft JhengHei&apos;,&apos;SimHei&apos;,sans-serif}.title{font-size:30px;font-weight:700;fill:#111827}.subtitle{font-size:14px;font-weight:500;fill:#6b7280}.node-title{font-size:18px;font-weight:700;fill:#111827}.arrow-label,.footnote{font-size:12px;font-weight:600;fill:#6b7280}.footnote{font-weight:500;fill:#94a3b8}</style></defs><rect width="960" height="1388" fill="#fff"/><text x="480" y="56" class="title" text-anchor="middle">10.4.1 工程实现</text><text x="480" y="82" class="subtitle" text-anchor="middle">part-03-models/chapter-10-pretraining.md:265</text><path fill="none" stroke="#7c3aed" stroke-width="2.4" marker-end="url(#arrowA)" d="M 480.0,212.0 L 480.0,284.0"/><path fill="none" stroke="#7c3aed" stroke-width="2.4" marker-end="url(#arrowA)" d="M 480.0,342.0 L 480.0,414.0"/><path fill="none" stroke="#7c3aed" stroke-width="2.4" marker-end="url(#arrowA)" d="M 480.0,472.0 L 480.0,544.0"/><path fill="none" stroke="#7c3aed" stroke-width="2.4" marker-end="url(#arrowA)" d="M 480.0,602.0 L 480.0,674.0"/><path fill="none" stroke="#7c3aed" stroke-width="2.4" marker-end="url(#arrowA)" d="M 480.0,732.0 L 480.0,804.0"/><path fill="none" stroke="#7c3aed" stroke-width="2.4" marker-end="url(#arrowA)" d="M 480.0,862.0 L 480.0,934.0"/><path fill="none" stroke="#7c3aed" stroke-width="2.4" marker-end="url(#arrowA)" d="M 480.0,992.0 L 480.0,1012.4 L 165.0,1043.6 L 165.0,1064.0"/><path fill="none" stroke="#7c3aed" stroke-width="2.4" marker-end="url(#arrowA)" d="M 247.0,1093.0 L 267.4,1093.0 L 267.4,963.0 L 562.0,963.0"/><path fill="none" stroke="#7c3aed" stroke-width="2.4" marker-end="url(#arrowA)" d="M 480.0,992.0 L 480.0,1012.4 L 375.0,1043.6 L 375.0,1064.0"/><path fill="none" stroke="#7c3aed" stroke-width="2.4" marker-end="url(#arrowA)" d="M 375.0,1122.0 L 375.0,1194.0"/><path fill="none" stroke="#7c3aed" stroke-width="2.4" marker-end="url(#arrowA)" d="M 457.0,1223.0 L 477.4,1223.0 L 582.4,833.0 L 562.0,833.0"/><path fill="none" stroke="#7c3aed" stroke-width="2.4" marker-end="url(#arrowA)" d="M 480.0,992.0 L 480.0,1012.4 L 585.0,1043.6 L 585.0,1064.0"/><path fill="none" stroke="#7c3aed" stroke-width="2.4" marker-end="url(#arrowA)" d="M 480.0,992.0 L 480.0,1012.4 L 795.0,1043.6 L 795.0,1064.0"/><path fill="none" stroke="#7c3aed" stroke-width="2.4" marker-end="url(#arrowA)" d="M 795.0,1122.0 L 795.0,1142.4 L 585.0,1173.6 L 585.0,1194.0"/><path fill="none" stroke="#7c3aed" stroke-width="2.4" marker-end="url(#arrowA)" d="M 585.0,1122.0 L 585.0,1194.0"/><rect width="164" height="58" x="398" y="154" fill="#f8fafc" stroke="#94a3b8" stroke-width="1.8" rx="10"/><text x="480" y="183" class="node-title" text-anchor="middle">Start</text><rect width="164" height="58" x="398" y="284" fill="#f0fdf4" stroke="#bbf7d0" stroke-width="1.8" rx="10"/><text x="480" y="313" class="node-title" text-anchor="middle">Submitted</text><rect width="164" height="58" x="398" y="414" fill="#fff7ed" stroke="#fed7aa" stroke-width="1.8" rx="10"/><text x="480" y="443" class="node-title" text-anchor="middle">Admitted</text><rect width="164" height="58" x="398" y="544" fill="#faf5ff" stroke="#e9d5ff" stroke-width="1.8" rx="10"/><text x="480" y="573" class="node-title" text-anchor="middle">Starting</text><rect width="164" height="58" x="398" y="674" fill="#f0fdfa" stroke="#99f6e4" stroke-width="1.8" rx="10"/><text x="480" y="703" class="node-title" text-anchor="middle">Preflight</text><rect width="164" height="58" x="398" y="804" fill="#f8fafc" stroke="#cbd5e1" stroke-width="1.8" rx="10"/><text x="480" y="833" class="node-title" text-anchor="middle">Rendezvous</text><rect width="164" height="58" x="398" y="934" fill="#eff6ff" stroke="#bfdbfe" stroke-width="1.8" rx="10"/><text x="480" y="963" class="node-title" text-anchor="middle">Running</text><rect width="164" height="58" x="83" y="1064" fill="#f0fdf4" stroke="#bbf7d0" stroke-width="1.8" rx="10"/><text x="165" y="1093" class="node-title" text-anchor="middle">Checkpointing</text><rect width="164" height="58" x="293" y="1064" fill="#fff7ed" stroke="#fed7aa" stroke-width="1.8" rx="10"/><text x="375" y="1093" class="node-title" text-anchor="middle">Paused</text><rect width="164" height="58" x="503" y="1064" fill="#f0fdfa" stroke="#99f6e4" stroke-width="1.8" rx="10"/><text x="585" y="1093" class="node-title" text-anchor="middle">Completed</text><rect width="164" height="58" x="713" y="1064" fill="#f8fafc" stroke="#cbd5e1" stroke-width="1.8" rx="10"/><text x="795" y="1093" class="node-title" text-anchor="middle">Failed</text><rect width="164" height="58" x="293" y="1194" fill="#faf5ff" stroke="#e9d5ff" stroke-width="1.8" rx="10"/><text x="375" y="1223" class="node-title" text-anchor="middle">Recovering</text><rect width="164" height="58" x="503" y="1194" fill="#f8fafc" stroke="#94a3b8" stroke-width="1.8" rx="10"/><text x="585" y="1223" class="node-title" text-anchor="middle">End</text><rect width="196" height="20" x="364" y="364" fill="#fff" opacity=".94" rx="6"/><text x="462" y="378" class="arrow-label" text-anchor="middle">quota / gang / topology ok</text><rect width="119" height="20" x="402.5" y="494" fill="#fff" opacity=".94" rx="6"/><text x="462" y="508" class="arrow-label" text-anchor="middle">nodes allocated</text><rect width="189" height="20" x="367.5" y="624" fill="#fff" opacity=".94" rx="6"/><text x="462" y="638" class="arrow-label" text-anchor="middle">image / data / env checks</text><rect width="175" height="20" x="374.5" y="754" fill="#fff" opacity=".94" rx="6"/><text x="462" y="768" class="arrow-label" text-anchor="middle">ranks start + NCCL init</text><rect width="154" height="20" x="385" y="884" fill="#fff" opacity=".94" rx="6"/><text x="462" y="898" class="arrow-label" text-anchor="middle">first effective step</text><rect width="147" height="20" x="249" y="998" fill="#fff" opacity=".94" rx="6"/><text x="322.5" y="1012" class="arrow-label" text-anchor="middle">checkpoint interval</text><rect width="133" height="20" x="348.2" y="949" fill="#fff" opacity=".94" rx="6"/><text x="414.7" y="963" class="arrow-label" text-anchor="middle">manifest verified</text><rect width="189" height="20" x="333" y="1030" fill="#fff" opacity=".94" rx="6"/><text x="427.5" y="1044" class="arrow-label" text-anchor="middle">anomaly or operator pause</text><rect width="133" height="20" x="290.5" y="1144" fill="#fff" opacity=".94" rx="6"/><text x="357" y="1158" class="arrow-label" text-anchor="middle">choose checkpoint</text><rect width="224" height="20" x="420.5" y="998" fill="#fff" opacity=".94" rx="6"/><text x="532.5" y="1012" class="arrow-label" text-anchor="middle">target tokens / stop condition</text><rect width="147" height="20" x="564" y="1030" fill="#fff" opacity=".94" rx="6"/><text x="637.5" y="1044" class="arrow-label" text-anchor="middle">unrecoverable error</text><text x="680" y="1372" class="footnote">Rendered with fireworks-tech-graph</text></svg>