<svg xmlns="http://www.w3.org/2000/svg" viewBox="0 0 960 1424" width="960" height="1424">
  <defs>
    <marker id="arrowA" markerWidth="10" markerHeight="7" refX="9" refY="3.5" orient="auto">
      <polygon points="0 0, 10 3.5, 0 7" fill="#7c3aed"/>
    </marker>
    <marker id="arrowB" markerWidth="10" markerHeight="7" refX="9" refY="3.5" orient="auto">
      <polygon points="0 0, 10 3.5, 0 7" fill="#10b981"/>
    </marker>
    <marker id="arrowC" markerWidth="10" markerHeight="7" refX="9" refY="3.5" orient="auto">
      <polygon points="0 0, 10 3.5, 0 7" fill="#2563eb"/>
    </marker>
    <marker id="arrowE" markerWidth="10" markerHeight="7" refX="9" refY="3.5" orient="auto">
      <polygon points="0 0, 10 3.5, 0 7" fill="#f97316"/>
    </marker>
    <marker id="arrowF" markerWidth="10" markerHeight="7" refX="9" refY="3.5" orient="auto">
      <polygon points="0 0, 10 3.5, 0 7" fill="#7c3aed"/>
    </marker>
    <marker id="arrowG" markerWidth="10" markerHeight="7" refX="9" refY="3.5" orient="auto">
      <polygon points="0 0, 10 3.5, 0 7" fill="#ef4444"/>
    </marker>
    <marker id="arrowH" markerWidth="10" markerHeight="7" refX="9" refY="3.5" orient="auto">
      <polygon points="0 0, 10 3.5, 0 7" fill="#6b7280"/>
    </marker>
    <filter id="shadowSoft" x="-20%" y="-20%" width="140%" height="160%">
      <feDropShadow dx="0" dy="3" stdDeviation="6" flood-color="#0f172a" flood-opacity="0.12"/>
    </filter>
    <filter id="shadowGlass" x="-20%" y="-20%" width="140%" height="160%">
      <feDropShadow dx="0" dy="10" stdDeviation="16" flood-color="#020617" flood-opacity="0.28"/>
    </filter>
    <style>
    text { font-family: 'Helvetica Neue', Helvetica, Arial, 'PingFang SC', 'Microsoft YaHei', 'Microsoft JhengHei', 'SimHei', sans-serif; }
    .title { font-size: 30px; font-weight: 700; fill: #111827; }
    .subtitle { font-size: 14px; font-weight: 500; fill: #6b7280; }
    .section { font-size: 13px; font-weight: 700; fill: #2563eb; letter-spacing: 1.4px; }
    .section-sub { font-size: 12px; font-weight: 500; fill: #94a3b8; }
    .node-title { font-size: 18px; font-weight: 700; fill: #111827; }
    .node-sub { font-size: 12px; font-weight: 500; fill: #6b7280; }
    .node-type { font-size: 12px; font-weight: 700; fill: #9ca3af; letter-spacing: 0.08em; }
    .arrow-label { font-size: 12px; font-weight: 600; fill: #6b7280; }
    .legend { font-size: 12px; font-weight: 500; fill: #6b7280; }
    .footnote { font-size: 12px; font-weight: 500; fill: #94a3b8; }
    </style>
  </defs>
  <rect width="960.0" height="1424.0" fill="#ffffff"/>
  <text x="480.0" y="56" text-anchor="middle" class="title">21.2.2 系统架构</text>
  <text x="480.0" y="82" text-anchor="middle" class="subtitle">part-05-orchestration/chapter-21-containers-kubernetes.md:61</text>
  <path d="M 480.0,212.0 L 480.0,284.0" fill="none" stroke="#7c3aed" stroke-width="2.4" marker-end="url(#arrowA)"/>
  <path d="M 480.0,342.0 L 480.0,362.4 L 360.0,393.6 L 360.0,414.0" fill="none" stroke="#7c3aed" stroke-width="2.4" marker-end="url(#arrowA)"/>
  <path d="M 480.0,342.0 L 480.0,362.4 L 621.0,393.6 L 621.0,414.0" fill="none" stroke="#7c3aed" stroke-width="2.4" marker-end="url(#arrowA)"/>
  <path d="M 621.0,484.0 L 621.0,504.4 L 480.0,535.6 L 480.0,556.0" fill="none" stroke="#7c3aed" stroke-width="2.4" marker-end="url(#arrowA)"/>
  <path d="M 478.0,449.0 L 498.4,449.0 L 498.4,313.0 L 580.5,313.0" fill="none" stroke="#7c3aed" stroke-width="2.4" marker-end="url(#arrowA)"/>
  <path d="M 480.0,614.0 L 480.0,686.0" fill="none" stroke="#7c3aed" stroke-width="2.4" marker-end="url(#arrowA)"/>
  <path d="M 480.0,744.0 L 480.0,764.4 L 265.5,795.6 L 265.5,816.0" fill="none" stroke="#7c3aed" stroke-width="2.4" marker-end="url(#arrowA)"/>
  <path d="M 480.0,744.0 L 480.0,764.4 L 511.5,795.6 L 511.5,816.0" fill="none" stroke="#7c3aed" stroke-width="2.4" marker-end="url(#arrowA)"/>
  <path d="M 480.0,744.0 L 480.0,764.4 L 726.0,795.6 L 726.0,816.0" fill="none" stroke="#7c3aed" stroke-width="2.4" marker-end="url(#arrowA)"/>
  <path d="M 265.5,874.0 L 265.5,894.4 L 480.0,925.6 L 480.0,946.0" fill="none" stroke="#7c3aed" stroke-width="2.4" marker-end="url(#arrowA)"/>
  <path d="M 480.0,1016.0 L 480.0,1088.0" fill="none" stroke="#7c3aed" stroke-width="2.4" marker-end="url(#arrowA)"/>
  <path d="M 511.5,874.0 L 511.5,894.4 L 480.0,1067.6 L 480.0,1088.0" fill="none" stroke="#7c3aed" stroke-width="2.4" marker-end="url(#arrowA)"/>
  <path d="M 726.0,874.0 L 726.0,894.4 L 480.0,1067.6 L 480.0,1088.0" fill="none" stroke="#7c3aed" stroke-width="2.4" marker-end="url(#arrowA)"/>
  <path d="M 480.0,1146.0 L 480.0,1218.0" fill="none" stroke="#7c3aed" stroke-width="2.4" marker-end="url(#arrowA)"/>
  <rect x="398.0" y="154.0" width="164.0" height="58.0" rx="10.0" fill="#eff6ff" stroke="#bfdbfe" stroke-width="1.8"/>
  <text x="480.0" y="183.0" text-anchor="middle" class="node-title">用户 / AI 平台 API</text>
  <rect x="379.5" y="284.0" width="201.0" height="58.0" rx="10.0" fill="#f0fdf4" stroke="#bbf7d0" stroke-width="1.8"/>
  <text x="480.0" y="313.0" text-anchor="middle" class="node-title">Kubernetes API Server</text>
  <rect x="242.0" y="414.0" width="236.0" height="70.0" rx="10.0" fill="#fff7ed" stroke="#fed7aa" stroke-width="1.8"/>
  <text x="360.0" y="449.0" text-anchor="middle" class="node-title">Controllers&lt;br/&gt;Deployment</text>
  <text x="360.0" y="471.0" text-anchor="middle" class="node-sub">Job / StatefulSet</text>
  <rect x="524.0" y="414.0" width="194.0" height="70.0" rx="10.0" fill="#faf5ff" stroke="#e9d5ff" stroke-width="1.8"/>
  <text x="621.0" y="449.0" text-anchor="middle" class="node-title">Scheduler&lt;br/&gt;filter</text>
  <text x="621.0" y="471.0" text-anchor="middle" class="node-sub">score / bind</text>
  <rect x="398.0" y="556.0" width="164.0" height="58.0" rx="10.0" fill="#f0fdfa" stroke="#99f6e4" stroke-width="1.8"/>
  <text x="480.0" y="585.0" text-anchor="middle" class="node-title">目标 Node</text>
  <rect x="398.0" y="686.0" width="164.0" height="58.0" rx="10.0" fill="#f8fafc" stroke="#cbd5e1" stroke-width="1.8"/>
  <text x="480.0" y="715.0" text-anchor="middle" class="node-title">kubelet</text>
  <rect x="147.5" y="816.0" width="236.0" height="58.0" rx="10.0" fill="#eff6ff" stroke="#bfdbfe" stroke-width="1.8"/>
  <text x="265.5" y="845.0" text-anchor="middle" class="node-title">CRI&lt;br/&gt;containerd / CRI-O</text>
  <rect x="429.5" y="816.0" width="164.0" height="58.0" rx="10.0" fill="#f0fdf4" stroke="#bbf7d0" stroke-width="1.8"/>
  <text x="511.5" y="845.0" text-anchor="middle" class="node-title">CNI&lt;br/&gt;Pod 网络</text>
  <rect x="639.5" y="816.0" width="173.0" height="58.0" rx="10.0" fill="#fff7ed" stroke="#fed7aa" stroke-width="1.8"/>
  <text x="726.0" y="845.0" text-anchor="middle" class="node-title">CSI&lt;br/&gt;Volume 挂载</text>
  <rect x="383.0" y="946.0" width="194.0" height="70.0" rx="10.0" fill="#faf5ff" stroke="#e9d5ff" stroke-width="1.8"/>
  <text x="480.0" y="981.0" text-anchor="middle" class="node-title">OCI Runtime&lt;br/&gt;runc</text>
  <text x="480.0" y="1003.0" text-anchor="middle" class="node-sub">NVIDIA runtime</text>
  <rect x="398.0" y="1088.0" width="164.0" height="58.0" rx="10.0" fill="#f0fdfa" stroke="#99f6e4" stroke-width="1.8"/>
  <text x="480.0" y="1117.0" text-anchor="middle" class="node-title">Pod containers</text>
  <rect x="365.5" y="1218.0" width="229.0" height="70.0" rx="10.0" fill="#f8fafc" stroke="#cbd5e1" stroke-width="1.8"/>
  <text x="480.0" y="1253.0" text-anchor="middle" class="node-title">AI workload&lt;br/&gt;inference</text>
  <text x="480.0" y="1275.0" text-anchor="middle" class="node-sub">training / eval</text>
  <text x="680.0" y="1408.0" class="footnote">Rendered with fireworks-tech-graph</text>
</svg>