<svg xmlns="http://www.w3.org/2000/svg" viewBox="0 0 1281 600" width="1281" height="600">
  <defs>
    <marker id="arrowA" markerWidth="10" markerHeight="7" refX="9" refY="3.5" orient="auto">
      <polygon points="0 0, 10 3.5, 0 7" fill="#7c3aed"/>
    </marker>
    <marker id="arrowB" markerWidth="10" markerHeight="7" refX="9" refY="3.5" orient="auto">
      <polygon points="0 0, 10 3.5, 0 7" fill="#10b981"/>
    </marker>
    <marker id="arrowC" markerWidth="10" markerHeight="7" refX="9" refY="3.5" orient="auto">
      <polygon points="0 0, 10 3.5, 0 7" fill="#2563eb"/>
    </marker>
    <marker id="arrowE" markerWidth="10" markerHeight="7" refX="9" refY="3.5" orient="auto">
      <polygon points="0 0, 10 3.5, 0 7" fill="#f97316"/>
    </marker>
    <marker id="arrowF" markerWidth="10" markerHeight="7" refX="9" refY="3.5" orient="auto">
      <polygon points="0 0, 10 3.5, 0 7" fill="#7c3aed"/>
    </marker>
    <marker id="arrowG" markerWidth="10" markerHeight="7" refX="9" refY="3.5" orient="auto">
      <polygon points="0 0, 10 3.5, 0 7" fill="#ef4444"/>
    </marker>
    <marker id="arrowH" markerWidth="10" markerHeight="7" refX="9" refY="3.5" orient="auto">
      <polygon points="0 0, 10 3.5, 0 7" fill="#6b7280"/>
    </marker>
    <filter id="shadowSoft" x="-20%" y="-20%" width="140%" height="160%">
      <feDropShadow dx="0" dy="3" stdDeviation="6" flood-color="#0f172a" flood-opacity="0.12"/>
    </filter>
    <filter id="shadowGlass" x="-20%" y="-20%" width="140%" height="160%">
      <feDropShadow dx="0" dy="10" stdDeviation="16" flood-color="#020617" flood-opacity="0.28"/>
    </filter>
    <style>
    text { font-family: 'Helvetica Neue', Helvetica, Arial, 'PingFang SC', 'Microsoft YaHei', 'Microsoft JhengHei', 'SimHei', sans-serif; }
    .title { font-size: 30px; font-weight: 700; fill: #111827; }
    .subtitle { font-size: 14px; font-weight: 500; fill: #6b7280; }
    .section { font-size: 13px; font-weight: 700; fill: #2563eb; letter-spacing: 1.4px; }
    .section-sub { font-size: 12px; font-weight: 500; fill: #94a3b8; }
    .node-title { font-size: 18px; font-weight: 700; fill: #111827; }
    .node-sub { font-size: 12px; font-weight: 500; fill: #6b7280; }
    .node-type { font-size: 12px; font-weight: 700; fill: #9ca3af; letter-spacing: 0.08em; }
    .arrow-label { font-size: 12px; font-weight: 600; fill: #6b7280; }
    .legend { font-size: 12px; font-weight: 500; fill: #6b7280; }
    .footnote { font-size: 12px; font-weight: 500; fill: #94a3b8; }
    </style>
  </defs>
  <rect width="1281.0" height="600.0" fill="#ffffff"/>
  <text x="640.5" y="56" text-anchor="middle" class="title">33.2.2 系统架构</text>
  <text x="640.5" y="82" text-anchor="middle" class="subtitle">part-07-network-storage/chapter-33-ai-storage.md:87</text>
  <rect x="42.0" y="118.0" width="248.0" height="372.0" rx="16.0" fill="#f8fafc" stroke="#dbe5f1" stroke-width="1.4" stroke-dasharray="7 5"/>
  <text x="60.0" y="142.0" class="section">阶段 1</text>
  <text x="60.0" y="162.0" class="section-sub">job / endpoint -&gt; manifest / digest</text>
  <rect x="328.0" y="118.0" width="276.0" height="372.0" rx="16.0" fill="#ffffff" stroke="#dbe5f1" stroke-width="1.4" stroke-dasharray="7 5"/>
  <text x="346.0" y="142.0" class="section">阶段 2</text>
  <text x="346.0" y="162.0" class="section-sub">client node / pod / rank -&gt; local NVMe / rack cache</text>
  <rect x="642.0" y="118.0" width="262.0" height="372.0" rx="16.0" fill="#f8fafc" stroke="#dbe5f1" stroke-width="1.4" stroke-dasharray="7 5"/>
  <text x="660.0" y="142.0" class="section">阶段 3</text>
  <text x="660.0" y="162.0" class="section-sub">PFS / Object Storage -&gt; latency / metadata ops</text>
  <rect x="942.0" y="118.0" width="297.0" height="372.0" rx="16.0" fill="#ffffff" stroke="#dbe5f1" stroke-width="1.4" stroke-dasharray="7 5"/>
  <text x="960.0" y="142.0" class="section">阶段 4</text>
  <text x="960.0" y="162.0" class="section-sub">GPU idle / TTFT -&gt; prewarm / reshard</text>
  <path d="M 166.0,242.0 L 166.0,270.0" fill="none" stroke="#7c3aed" stroke-width="2.4" marker-end="url(#arrowA)"/>
  <path d="M 166.0,340.0 L 166.0,368.0" fill="none" stroke="#7c3aed" stroke-width="2.4" marker-end="url(#arrowA)"/>
  <path d="M 252.5,403.0 L 272.9,403.0 L 334.6,256.0 L 355.0,256.0" fill="none" stroke="#7c3aed" stroke-width="2.4" marker-end="url(#arrowA)"/>
  <path d="M 466.0,291.0 L 466.0,319.0" fill="none" stroke="#7c3aed" stroke-width="2.4" marker-end="url(#arrowA)"/>
  <path d="M 573.5,354.0 L 593.9,354.0 L 655.6,256.0 L 676.0,256.0" fill="none" stroke="#7c3aed" stroke-width="2.4" marker-end="url(#arrowA)"/>
  <path d="M 773.0,291.0 L 773.0,319.0" fill="none" stroke="#7c3aed" stroke-width="2.4" marker-end="url(#arrowA)"/>
  <path d="M 877.0,354.0 L 897.4,354.0 L 973.1,256.0 L 993.5,256.0" fill="none" stroke="#7c3aed" stroke-width="2.4" marker-end="url(#arrowA)"/>
  <path d="M 1090.5,291.0 L 1090.5,319.0" fill="none" stroke="#7c3aed" stroke-width="2.4" marker-end="url(#arrowA)"/>
  <rect x="84.0" y="172.0" width="164.0" height="70.0" rx="10.0" fill="#eff6ff" stroke="#bfdbfe" stroke-width="1.8"/>
  <text x="166.0" y="207.0" text-anchor="middle" class="node-title">job / endpoint</text>
  <text x="166.0" y="229.0" text-anchor="middle" class="node-sub">evaluation</text>
  <rect x="69.0" y="270.0" width="194.0" height="70.0" rx="10.0" fill="#f0fdf4" stroke="#bbf7d0" stroke-width="1.8"/>
  <text x="166.0" y="305.0" text-anchor="middle" class="node-title">dataset / checkpoint</text>
  <text x="166.0" y="327.0" text-anchor="middle" class="node-sub">artifact path</text>
  <rect x="79.5" y="368.0" width="173.0" height="70.0" rx="10.0" fill="#fff7ed" stroke="#fed7aa" stroke-width="1.8"/>
  <text x="166.0" y="403.0" text-anchor="middle" class="node-title">manifest / digest</text>
  <text x="166.0" y="425.0" text-anchor="middle" class="node-sub">version</text>
  <rect x="355.0" y="221.0" width="222.0" height="70.0" rx="10.0" fill="#faf5ff" stroke="#e9d5ff" stroke-width="1.8"/>
  <text x="466.0" y="256.0" text-anchor="middle" class="node-title">client node / pod / rank</text>
  <text x="466.0" y="278.0" text-anchor="middle" class="node-sub">replica</text>
  <rect x="358.5" y="319.0" width="215.0" height="70.0" rx="10.0" fill="#f0fdfa" stroke="#99f6e4" stroke-width="1.8"/>
  <text x="466.0" y="354.0" text-anchor="middle" class="node-title">local NVMe / rack cache</text>
  <text x="466.0" y="376.0" text-anchor="middle" class="node-sub">remote cache</text>
  <rect x="676.0" y="221.0" width="194.0" height="70.0" rx="10.0" fill="#f8fafc" stroke="#cbd5e1" stroke-width="1.8"/>
  <text x="773.0" y="256.0" text-anchor="middle" class="node-title">PFS / Object Storage</text>
  <text x="773.0" y="278.0" text-anchor="middle" class="node-sub">Registry</text>
  <rect x="669.0" y="319.0" width="208.0" height="70.0" rx="10.0" fill="#eff6ff" stroke="#bfdbfe" stroke-width="1.8"/>
  <text x="773.0" y="354.0" text-anchor="middle" class="node-title">latency / metadata ops</text>
  <text x="773.0" y="376.0" text-anchor="middle" class="node-sub">throttle / errors</text>
  <rect x="993.5" y="221.0" width="194.0" height="70.0" rx="10.0" fill="#f0fdf4" stroke="#bbf7d0" stroke-width="1.8"/>
  <text x="1090.5" y="256.0" text-anchor="middle" class="node-title">GPU idle / TTFT</text>
  <text x="1090.5" y="278.0" text-anchor="middle" class="node-sub">recovery time / cost</text>
  <rect x="969.0" y="319.0" width="243.0" height="70.0" rx="10.0" fill="#fff7ed" stroke="#fed7aa" stroke-width="1.8"/>
  <text x="1090.5" y="354.0" text-anchor="middle" class="node-title">prewarm / reshard</text>
  <text x="1090.5" y="376.0" text-anchor="middle" class="node-sub">isolate / throttle / repair</text>
  <line x1="42.0" y1="562.0" x2="72.0" y2="562.0" stroke="#7c3aed" stroke-width="2.4" marker-end="url(#arrowA)"/>
  <text x="82.0" y="566.0" class="legend">主路径 / 阶段推进</text>
  <text x="1001.0" y="584.0" class="footnote">Rendered with fireworks-tech-graph</text>
</svg>