<svg xmlns="http://www.w3.org/2000/svg" viewBox="0 0 960 1306" width="960" height="1306">
  <defs>
    <marker id="arrowA" markerWidth="10" markerHeight="7" refX="9" refY="3.5" orient="auto">
      <polygon points="0 0, 10 3.5, 0 7" fill="#7c3aed"/>
    </marker>
    <marker id="arrowB" markerWidth="10" markerHeight="7" refX="9" refY="3.5" orient="auto">
      <polygon points="0 0, 10 3.5, 0 7" fill="#10b981"/>
    </marker>
    <marker id="arrowC" markerWidth="10" markerHeight="7" refX="9" refY="3.5" orient="auto">
      <polygon points="0 0, 10 3.5, 0 7" fill="#2563eb"/>
    </marker>
    <marker id="arrowE" markerWidth="10" markerHeight="7" refX="9" refY="3.5" orient="auto">
      <polygon points="0 0, 10 3.5, 0 7" fill="#f97316"/>
    </marker>
    <marker id="arrowF" markerWidth="10" markerHeight="7" refX="9" refY="3.5" orient="auto">
      <polygon points="0 0, 10 3.5, 0 7" fill="#7c3aed"/>
    </marker>
    <marker id="arrowG" markerWidth="10" markerHeight="7" refX="9" refY="3.5" orient="auto">
      <polygon points="0 0, 10 3.5, 0 7" fill="#ef4444"/>
    </marker>
    <marker id="arrowH" markerWidth="10" markerHeight="7" refX="9" refY="3.5" orient="auto">
      <polygon points="0 0, 10 3.5, 0 7" fill="#6b7280"/>
    </marker>
    <filter id="shadowSoft" x="-20%" y="-20%" width="140%" height="160%">
      <feDropShadow dx="0" dy="3" stdDeviation="6" flood-color="#0f172a" flood-opacity="0.12"/>
    </filter>
    <filter id="shadowGlass" x="-20%" y="-20%" width="140%" height="160%">
      <feDropShadow dx="0" dy="10" stdDeviation="16" flood-color="#020617" flood-opacity="0.28"/>
    </filter>
    <style>
    text { font-family: 'Helvetica Neue', Helvetica, Arial, 'PingFang SC', 'Microsoft YaHei', 'Microsoft JhengHei', 'SimHei', sans-serif; }
    .title { font-size: 30px; font-weight: 700; fill: #111827; }
    .subtitle { font-size: 14px; font-weight: 500; fill: #6b7280; }
    .section { font-size: 13px; font-weight: 700; fill: #2563eb; letter-spacing: 1.4px; }
    .section-sub { font-size: 12px; font-weight: 500; fill: #94a3b8; }
    .node-title { font-size: 18px; font-weight: 700; fill: #111827; }
    .node-sub { font-size: 12px; font-weight: 500; fill: #6b7280; }
    .node-type { font-size: 12px; font-weight: 700; fill: #9ca3af; letter-spacing: 0.08em; }
    .arrow-label { font-size: 12px; font-weight: 600; fill: #6b7280; }
    .legend { font-size: 12px; font-weight: 500; fill: #6b7280; }
    .footnote { font-size: 12px; font-weight: 500; fill: #94a3b8; }
    </style>
  </defs>
  <rect width="960.0" height="1306.0" fill="#ffffff"/>
  <text x="480.0" y="56" text-anchor="middle" class="title">44.4.1 工程实现</text>
  <text x="480.0" y="82" text-anchor="middle" class="subtitle">part-10-economics-cases/chapter-44-building-ai-factory.md:1609</text>
  <path d="M 480.0,212.0 L 480.0,284.0" fill="none" stroke="#7c3aed" stroke-width="2.4" marker-end="url(#arrowA)"/>
  <path d="M 480.0,354.0 L 480.0,426.0" fill="none" stroke="#7c3aed" stroke-width="2.4" marker-end="url(#arrowA)"/>
  <path d="M 480.0,484.0 L 480.0,556.0" fill="none" stroke="#7c3aed" stroke-width="2.4" marker-end="url(#arrowA)"/>
  <path d="M 480.0,626.0 L 480.0,698.0" fill="none" stroke="#7c3aed" stroke-width="2.4" marker-end="url(#arrowA)"/>
  <path d="M 480.0,768.0 L 480.0,788.4 L 342.5,819.6 L 342.5,840.0" fill="none" stroke="#7c3aed" stroke-width="2.4" marker-end="url(#arrowA)"/>
  <path d="M 342.5,910.0 L 342.5,930.4 L 353.0,961.6 L 353.0,982.0" fill="none" stroke="#7c3aed" stroke-width="2.4" marker-end="url(#arrowA)"/>
  <path d="M 480.0,768.0 L 480.0,788.4 L 610.5,825.6 L 610.5,846.0" fill="none" stroke="#7c3aed" stroke-width="2.4" marker-end="url(#arrowA)"/>
  <path d="M 610.5,904.0 L 610.5,924.4 L 621.0,961.6 L 621.0,982.0" fill="none" stroke="#7c3aed" stroke-width="2.4" marker-end="url(#arrowA)"/>
  <path d="M 353.0,1040.0 L 353.0,1060.4 L 480.0,1091.6 L 480.0,1112.0" fill="none" stroke="#7c3aed" stroke-width="2.4" marker-end="url(#arrowA)"/>
  <path d="M 621.0,1040.0 L 621.0,1060.4 L 480.0,1091.6 L 480.0,1112.0" fill="none" stroke="#7c3aed" stroke-width="2.4" marker-end="url(#arrowA)"/>
  <rect x="383.0" y="154.0" width="194.0" height="58.0" rx="10.0" fill="#eff6ff" stroke="#bfdbfe" stroke-width="1.8"/>
  <text x="480.0" y="183.0" text-anchor="middle" class="node-title">multimodal_prr_drill</text>
  <rect x="386.5" y="284.0" width="187.0" height="70.0" rx="10.0" fill="#f0fdf4" stroke="#bbf7d0" stroke-width="1.8"/>
  <text x="480.0" y="319.0" text-anchor="middle" class="node-title">multimodal_workload</text>
  <text x="480.0" y="341.0" text-anchor="middle" class="node-sub">profile</text>
  <rect x="372.5" y="426.0" width="215.0" height="58.0" rx="10.0" fill="#fff7ed" stroke="#fed7aa" stroke-width="1.8"/>
  <text x="480.0" y="455.0" text-anchor="middle" class="node-title">media_artifact_manifest</text>
  <rect x="365.5" y="556.0" width="229.0" height="70.0" rx="10.0" fill="#faf5ff" stroke="#e9d5ff" stroke-width="1.8"/>
  <text x="480.0" y="591.0" text-anchor="middle" class="node-title">media_processing_pipeline</text>
  <text x="480.0" y="613.0" text-anchor="middle" class="node-sub">record</text>
  <rect x="390.0" y="698.0" width="180.0" height="70.0" rx="10.0" fill="#f0fdfa" stroke="#99f6e4" stroke-width="1.8"/>
  <text x="480.0" y="733.0" text-anchor="middle" class="node-title">multimodal_serving</text>
  <text x="480.0" y="755.0" text-anchor="middle" class="node-sub">contract</text>
  <rect x="235.0" y="840.0" width="215.0" height="70.0" rx="10.0" fill="#f8fafc" stroke="#cbd5e1" stroke-width="1.8"/>
  <text x="342.5" y="875.0" text-anchor="middle" class="node-title">multimodal_quality_gate</text>
  <text x="342.5" y="897.0" text-anchor="middle" class="node-sub">execution</text>
  <rect x="496.0" y="846.0" width="229.0" height="58.0" rx="10.0" fill="#f0fdf4" stroke="#bbf7d0" stroke-width="1.8"/>
  <text x="610.5" y="875.0" text-anchor="middle" class="node-title">multimodal_metering_event</text>
  <rect x="235.0" y="982.0" width="236.0" height="58.0" rx="10.0" fill="#eff6ff" stroke="#bfdbfe" stroke-width="1.8"/>
  <text x="353.0" y="1011.0" text-anchor="middle" class="node-title">multimodal_evidence_bundle</text>
  <rect x="517.0" y="982.0" width="208.0" height="58.0" rx="10.0" fill="#fff7ed" stroke="#fed7aa" stroke-width="1.8"/>
  <text x="621.0" y="1011.0" text-anchor="middle" class="node-title">multimodal_cost_ledger</text>
  <rect x="398.0" y="1112.0" width="164.0" height="58.0" rx="10.0" fill="#faf5ff" stroke="#e9d5ff" stroke-width="1.8"/>
  <text x="480.0" y="1141.0" text-anchor="middle" class="node-title">PRR gate update</text>
  <text x="680.0" y="1290.0" class="footnote">Rendered with fireworks-tech-graph</text>
</svg>