<svg xmlns="http://www.w3.org/2000/svg" viewBox="0 0 2178 600" width="2178" height="600">
  <defs>
    <marker id="arrowA" markerWidth="10" markerHeight="7" refX="9" refY="3.5" orient="auto">
      <polygon points="0 0, 10 3.5, 0 7" fill="#7c3aed"/>
    </marker>
    <marker id="arrowB" markerWidth="10" markerHeight="7" refX="9" refY="3.5" orient="auto">
      <polygon points="0 0, 10 3.5, 0 7" fill="#10b981"/>
    </marker>
    <marker id="arrowC" markerWidth="10" markerHeight="7" refX="9" refY="3.5" orient="auto">
      <polygon points="0 0, 10 3.5, 0 7" fill="#2563eb"/>
    </marker>
    <marker id="arrowE" markerWidth="10" markerHeight="7" refX="9" refY="3.5" orient="auto">
      <polygon points="0 0, 10 3.5, 0 7" fill="#f97316"/>
    </marker>
    <marker id="arrowF" markerWidth="10" markerHeight="7" refX="9" refY="3.5" orient="auto">
      <polygon points="0 0, 10 3.5, 0 7" fill="#7c3aed"/>
    </marker>
    <marker id="arrowG" markerWidth="10" markerHeight="7" refX="9" refY="3.5" orient="auto">
      <polygon points="0 0, 10 3.5, 0 7" fill="#ef4444"/>
    </marker>
    <marker id="arrowH" markerWidth="10" markerHeight="7" refX="9" refY="3.5" orient="auto">
      <polygon points="0 0, 10 3.5, 0 7" fill="#6b7280"/>
    </marker>
    <filter id="shadowSoft" x="-20%" y="-20%" width="140%" height="160%">
      <feDropShadow dx="0" dy="3" stdDeviation="6" flood-color="#0f172a" flood-opacity="0.12"/>
    </filter>
    <filter id="shadowGlass" x="-20%" y="-20%" width="140%" height="160%">
      <feDropShadow dx="0" dy="10" stdDeviation="16" flood-color="#020617" flood-opacity="0.28"/>
    </filter>
    <style>
    text { font-family: 'Helvetica Neue', Helvetica, Arial, 'PingFang SC', 'Microsoft YaHei', 'Microsoft JhengHei', 'SimHei', sans-serif; }
    .title { font-size: 30px; font-weight: 700; fill: #111827; }
    .subtitle { font-size: 14px; font-weight: 500; fill: #6b7280; }
    .section { font-size: 13px; font-weight: 700; fill: #2563eb; letter-spacing: 1.4px; }
    .section-sub { font-size: 12px; font-weight: 500; fill: #94a3b8; }
    .node-title { font-size: 18px; font-weight: 700; fill: #111827; }
    .node-sub { font-size: 12px; font-weight: 500; fill: #6b7280; }
    .node-type { font-size: 12px; font-weight: 700; fill: #9ca3af; letter-spacing: 0.08em; }
    .arrow-label { font-size: 12px; font-weight: 600; fill: #6b7280; }
    .legend { font-size: 12px; font-weight: 500; fill: #6b7280; }
    .footnote { font-size: 12px; font-weight: 500; fill: #94a3b8; }
    </style>
  </defs>
  <rect width="2178.0" height="600.0" fill="#ffffff"/>
  <text x="1089.0" y="56" text-anchor="middle" class="title">44.4.1 工程实现</text>
  <text x="1089.0" y="82" text-anchor="middle" class="subtitle">part-10-economics-cases/chapter-44-building-ai-factory.md:1315</text>
  <path d="M 297.0,273.0 L 369.0,273.0" fill="none" stroke="#7c3aed" stroke-width="2.4" marker-end="url(#arrowA)"/>
  <path d="M 591.0,273.0 L 663.0,273.0" fill="none" stroke="#7c3aed" stroke-width="2.4" marker-end="url(#arrowA)"/>
  <path d="M 885.0,273.0 L 905.4,273.0 L 936.6,155.0 L 957.0,155.0" fill="none" stroke="#7c3aed" stroke-width="2.4" marker-end="url(#arrowA)"/>
  <path d="M 885.0,273.0 L 974.5,273.0" fill="none" stroke="#7c3aed" stroke-width="2.4" marker-end="url(#arrowA)"/>
  <path d="M 885.0,273.0 L 905.4,273.0 L 954.1,385.0 L 974.5,385.0" fill="none" stroke="#7c3aed" stroke-width="2.4" marker-end="url(#arrowA)"/>
  <path d="M 1175.5,385.0 L 1195.9,385.0 L 1244.6,273.0 L 1265.0,273.0" fill="none" stroke="#7c3aed" stroke-width="2.4" marker-end="url(#arrowA)"/>
  <path d="M 1193.0,155.0 L 1213.4,155.0 L 1552.6,267.0 L 1573.0,267.0" fill="none" stroke="#7c3aed" stroke-width="2.4" marker-end="url(#arrowA)"/>
  <path d="M 1175.5,273.0 L 1195.9,273.0 L 1552.6,267.0 L 1573.0,267.0" fill="none" stroke="#7c3aed" stroke-width="2.4" marker-end="url(#arrowA)"/>
  <path d="M 1501.0,273.0 L 1521.4,273.0 L 1552.6,267.0 L 1573.0,267.0" fill="none" stroke="#7c3aed" stroke-width="2.4" marker-end="url(#arrowA)"/>
  <path d="M 1809.0,267.0 L 1829.4,267.0 L 1860.6,211.0 L 1881.0,211.0" fill="none" stroke="#7c3aed" stroke-width="2.4" marker-end="url(#arrowA)"/>
  <path d="M 1809.0,267.0 L 1829.4,267.0 L 1860.6,329.0 L 1881.0,329.0" fill="none" stroke="#7c3aed" stroke-width="2.4" marker-end="url(#arrowA)"/>
  <rect x="96.0" y="238.0" width="201.0" height="70.0" rx="10.0" fill="#eff6ff" stroke="#bfdbfe" stroke-width="1.8"/>
  <text x="196.5" y="273.0" text-anchor="middle" class="node-title">container_runtime_prr</text>
  <text x="196.5" y="295.0" text-anchor="middle" class="node-sub">change_drill</text>
  <rect x="369.0" y="238.0" width="222.0" height="70.0" rx="10.0" fill="#f0fdf4" stroke="#bbf7d0" stroke-width="1.8"/>
  <text x="480.0" y="273.0" text-anchor="middle" class="node-title">container_runtime_change</text>
  <text x="480.0" y="295.0" text-anchor="middle" class="node-sub">record</text>
  <rect x="663.0" y="238.0" width="222.0" height="70.0" rx="10.0" fill="#fff7ed" stroke="#fed7aa" stroke-width="1.8"/>
  <text x="774.0" y="273.0" text-anchor="middle" class="node-title">container_runtime_change</text>
  <text x="774.0" y="295.0" text-anchor="middle" class="node-sub">acceptance</text>
  <rect x="957.0" y="126.0" width="236.0" height="58.0" rx="10.0" fill="#faf5ff" stroke="#e9d5ff" stroke-width="1.8"/>
  <text x="1075.0" y="155.0" text-anchor="middle" class="node-title">oci_runtime_injection_diff</text>
  <rect x="974.5" y="238.0" width="201.0" height="70.0" rx="10.0" fill="#f0fdfa" stroke="#99f6e4" stroke-width="1.8"/>
  <text x="1075.0" y="273.0" text-anchor="middle" class="node-title">gpu_device_visibility</text>
  <text x="1075.0" y="295.0" text-anchor="middle" class="node-sub">reconciliation</text>
  <rect x="974.5" y="350.0" width="201.0" height="70.0" rx="10.0" fill="#f8fafc" stroke="#cbd5e1" stroke-width="1.8"/>
  <text x="1075.0" y="385.0" text-anchor="middle" class="node-title">container_gpu_runtime</text>
  <text x="1075.0" y="407.0" text-anchor="middle" class="node-sub">fault_tree_execution</text>
  <rect x="1265.0" y="238.0" width="236.0" height="70.0" rx="10.0" fill="#eff6ff" stroke="#bfdbfe" stroke-width="1.8"/>
  <text x="1383.0" y="273.0" text-anchor="middle" class="node-title">container_runtime_incident</text>
  <text x="1383.0" y="295.0" text-anchor="middle" class="node-sub">cost_record</text>
  <rect x="1573.0" y="238.0" width="236.0" height="58.0" rx="10.0" fill="#f0fdf4" stroke="#bbf7d0" stroke-width="1.8"/>
  <text x="1691.0" y="267.0" text-anchor="middle" class="node-title">PRR container runtime gate</text>
  <rect x="1881.0" y="182.0" width="201.0" height="58.0" rx="10.0" fill="#fff7ed" stroke="#fed7aa" stroke-width="1.8"/>
  <text x="1981.5" y="211.0" text-anchor="middle" class="node-title">rollout beyond canary</text>
  <rect x="1881.0" y="294.0" width="201.0" height="70.0" rx="10.0" fill="#faf5ff" stroke="#e9d5ff" stroke-width="1.8"/>
  <text x="1981.5" y="329.0" text-anchor="middle" class="node-title">rollback / quarantine</text>
  <text x="1981.5" y="351.0" text-anchor="middle" class="node-sub">retest</text>
  <rect x="1824.0" y="209.0" width="42" height="20" rx="6" fill="#ffffff" opacity="0.94"/>
  <text x="1845.0" y="223.0" text-anchor="middle" class="arrow-label">pass</text>
  <rect x="1824.0" y="268.0" width="42" height="20" rx="6" fill="#ffffff" opacity="0.94"/>
  <text x="1845.0" y="282.0" text-anchor="middle" class="arrow-label">fail</text>
  <text x="1898.0" y="584.0" class="footnote">Rendered with fireworks-tech-graph</text>
</svg>