<svg xmlns="http://www.w3.org/2000/svg" viewBox="0 0 1065 922" width="1065" height="922">
  <defs>
    <marker id="arrowA" markerWidth="10" markerHeight="7" refX="9" refY="3.5" orient="auto">
      <polygon points="0 0, 10 3.5, 0 7" fill="#7c3aed"/>
    </marker>
    <marker id="arrowB" markerWidth="10" markerHeight="7" refX="9" refY="3.5" orient="auto">
      <polygon points="0 0, 10 3.5, 0 7" fill="#10b981"/>
    </marker>
    <marker id="arrowC" markerWidth="10" markerHeight="7" refX="9" refY="3.5" orient="auto">
      <polygon points="0 0, 10 3.5, 0 7" fill="#2563eb"/>
    </marker>
    <marker id="arrowE" markerWidth="10" markerHeight="7" refX="9" refY="3.5" orient="auto">
      <polygon points="0 0, 10 3.5, 0 7" fill="#f97316"/>
    </marker>
    <marker id="arrowF" markerWidth="10" markerHeight="7" refX="9" refY="3.5" orient="auto">
      <polygon points="0 0, 10 3.5, 0 7" fill="#7c3aed"/>
    </marker>
    <marker id="arrowG" markerWidth="10" markerHeight="7" refX="9" refY="3.5" orient="auto">
      <polygon points="0 0, 10 3.5, 0 7" fill="#ef4444"/>
    </marker>
    <marker id="arrowH" markerWidth="10" markerHeight="7" refX="9" refY="3.5" orient="auto">
      <polygon points="0 0, 10 3.5, 0 7" fill="#6b7280"/>
    </marker>
    <filter id="shadowSoft" x="-20%" y="-20%" width="140%" height="160%">
      <feDropShadow dx="0" dy="3" stdDeviation="6" flood-color="#0f172a" flood-opacity="0.12"/>
    </filter>
    <filter id="shadowGlass" x="-20%" y="-20%" width="140%" height="160%">
      <feDropShadow dx="0" dy="10" stdDeviation="16" flood-color="#020617" flood-opacity="0.28"/>
    </filter>
    <style>
    text { font-family: 'Helvetica Neue', Helvetica, Arial, 'PingFang SC', 'Microsoft YaHei', 'Microsoft JhengHei', 'SimHei', sans-serif; }
    .title { font-size: 30px; font-weight: 700; fill: #111827; }
    .subtitle { font-size: 14px; font-weight: 500; fill: #6b7280; }
    .section { font-size: 13px; font-weight: 700; fill: #2563eb; letter-spacing: 1.4px; }
    .section-sub { font-size: 12px; font-weight: 500; fill: #94a3b8; }
    .node-title { font-size: 18px; font-weight: 700; fill: #111827; }
    .node-sub { font-size: 12px; font-weight: 500; fill: #6b7280; }
    .node-type { font-size: 12px; font-weight: 700; fill: #9ca3af; letter-spacing: 0.08em; }
    .arrow-label { font-size: 12px; font-weight: 600; fill: #6b7280; }
    .legend { font-size: 12px; font-weight: 500; fill: #6b7280; }
    .footnote { font-size: 12px; font-weight: 500; fill: #94a3b8; }
    </style>
  </defs>
  <rect width="1065.0" height="922.0" fill="#ffffff"/>
  <text x="532.5" y="56" text-anchor="middle" class="title">41.3.4 cost/token</text>
  <text x="532.5" y="82" text-anchor="middle" class="subtitle">part-10-economics-cases/chapter-41-token-factory.md:639</text>
  <path d="M 325.0,161.0 L 345.4,161.0 L 404.6,441.0 L 425.0,441.0" fill="none" stroke="#7c3aed" stroke-width="2.4" marker-end="url(#arrowA)"/>
  <path d="M 335.5,273.0 L 355.9,273.0 L 404.6,441.0 L 425.0,441.0" fill="none" stroke="#7c3aed" stroke-width="2.4" marker-end="url(#arrowA)"/>
  <path d="M 311.0,385.0 L 331.4,385.0 L 404.6,441.0 L 425.0,441.0" fill="none" stroke="#7c3aed" stroke-width="2.4" marker-end="url(#arrowA)"/>
  <path d="M 335.5,491.0 L 355.9,491.0 L 404.6,441.0 L 425.0,441.0" fill="none" stroke="#7c3aed" stroke-width="2.4" marker-end="url(#arrowA)"/>
  <path d="M 306.5,609.0 L 326.9,609.0 L 404.6,441.0 L 425.0,441.0" fill="none" stroke="#7c3aed" stroke-width="2.4" marker-end="url(#arrowA)"/>
  <path d="M 353.0,721.0 L 373.4,721.0 L 404.6,441.0 L 425.0,441.0" fill="none" stroke="#7c3aed" stroke-width="2.4" marker-end="url(#arrowA)"/>
  <path d="M 661.0,441.0 L 681.4,441.0 L 723.1,211.0 L 743.5,211.0" fill="none" stroke="#7c3aed" stroke-width="2.4" marker-end="url(#arrowA)"/>
  <path d="M 661.0,441.0 L 681.4,441.0 L 712.6,329.0 L 733.0,329.0" fill="none" stroke="#7c3aed" stroke-width="2.4" marker-end="url(#arrowA)"/>
  <path d="M 661.0,441.0 L 740.0,441.0" fill="none" stroke="#7c3aed" stroke-width="2.4" marker-end="url(#arrowA)"/>
  <path d="M 661.0,441.0 L 681.4,441.0 L 723.1,553.0 L 743.5,553.0" fill="none" stroke="#7c3aed" stroke-width="2.4" marker-end="url(#arrowA)"/>
  <path d="M 661.0,441.0 L 681.4,441.0 L 712.6,665.0 L 733.0,665.0" fill="none" stroke="#7c3aed" stroke-width="2.4" marker-end="url(#arrowA)"/>
  <rect x="124.0" y="126.0" width="201.0" height="70.0" rx="10.0" fill="#eff6ff" stroke="#bfdbfe" stroke-width="1.8"/>
  <text x="224.5" y="161.0" text-anchor="middle" class="node-title">container_gpu_runtime</text>
  <text x="224.5" y="183.0" text-anchor="middle" class="node-sub">fault_tree_execution</text>
  <rect x="113.5" y="238.0" width="222.0" height="70.0" rx="10.0" fill="#fff7ed" stroke="#fed7aa" stroke-width="1.8"/>
  <text x="224.5" y="273.0" text-anchor="middle" class="node-title">container_runtime_change</text>
  <text x="224.5" y="295.0" text-anchor="middle" class="node-sub">record</text>
  <rect x="138.0" y="350.0" width="173.0" height="70.0" rx="10.0" fill="#faf5ff" stroke="#e9d5ff" stroke-width="1.8"/>
  <text x="224.5" y="385.0" text-anchor="middle" class="node-title">container runtime</text>
  <text x="224.5" y="407.0" text-anchor="middle" class="node-sub">acceptance matrix</text>
  <rect x="113.5" y="462.0" width="222.0" height="58.0" rx="10.0" fill="#f0fdfa" stroke="#99f6e4" stroke-width="1.8"/>
  <text x="224.5" y="491.0" text-anchor="middle" class="node-title">OCI / CDI injection diff</text>
  <rect x="142.5" y="574.0" width="164.0" height="70.0" rx="10.0" fill="#f8fafc" stroke="#cbd5e1" stroke-width="1.8"/>
  <text x="224.5" y="609.0" text-anchor="middle" class="node-title">GPU visibility</text>
  <text x="224.5" y="631.0" text-anchor="middle" class="node-sub">reconciliation</text>
  <rect x="96.0" y="686.0" width="257.0" height="70.0" rx="10.0" fill="#eff6ff" stroke="#bfdbfe" stroke-width="1.8"/>
  <text x="224.5" y="721.0" text-anchor="middle" class="node-title">DCGM</text>
  <text x="224.5" y="743.0" text-anchor="middle" class="node-sub">metering label reconciliation</text>
  <rect x="425.0" y="406.0" width="236.0" height="70.0" rx="10.0" fill="#f0fdf4" stroke="#bbf7d0" stroke-width="1.8"/>
  <text x="543.0" y="441.0" text-anchor="middle" class="node-title">container_runtime_incident</text>
  <text x="543.0" y="463.0" text-anchor="middle" class="node-sub">cost_record</text>
  <rect x="743.5" y="182.0" width="215.0" height="58.0" rx="10.0" fill="#f0fdf4" stroke="#bbf7d0" stroke-width="1.8"/>
  <text x="851.0" y="211.0" text-anchor="middle" class="node-title">reliability_cost_ledger</text>
  <rect x="733.0" y="294.0" width="236.0" height="70.0" rx="10.0" fill="#fff7ed" stroke="#fed7aa" stroke-width="1.8"/>
  <text x="851.0" y="329.0" text-anchor="middle" class="node-title">inference_runtime_cost</text>
  <text x="851.0" y="351.0" text-anchor="middle" class="node-sub">ledger if serving affected</text>
  <rect x="740.0" y="406.0" width="222.0" height="70.0" rx="10.0" fill="#faf5ff" stroke="#e9d5ff" stroke-width="1.8"/>
  <text x="851.0" y="441.0" text-anchor="middle" class="node-title">security_cost</text>
  <text x="851.0" y="463.0" text-anchor="middle" class="node-sub">ledger if isolation risk</text>
  <rect x="743.5" y="518.0" width="215.0" height="70.0" rx="10.0" fill="#f0fdfa" stroke="#99f6e4" stroke-width="1.8"/>
  <text x="851.0" y="553.0" text-anchor="middle" class="node-title">token ledger correction</text>
  <text x="851.0" y="575.0" text-anchor="middle" class="node-sub">billing hold</text>
  <rect x="733.0" y="630.0" width="236.0" height="70.0" rx="10.0" fill="#f8fafc" stroke="#cbd5e1" stroke-width="1.8"/>
  <text x="851.0" y="665.0" text-anchor="middle" class="node-title">container runtime PRR gate</text>
  <text x="851.0" y="687.0" text-anchor="middle" class="node-sub">update</text>
  <text x="785.0" y="906.0" class="footnote">Rendered with fireworks-tech-graph</text>
</svg>