<svg xmlns="http://www.w3.org/2000/svg" width="960" height="1258" viewBox="0 0 960 1258"><defs><marker id="arrowA" markerHeight="7" markerWidth="10" orient="auto" refX="9" refY="3.5"><polygon fill="#7c3aed" points="0 0 10 3.5 0 7"/></marker><marker id="arrowB" markerHeight="7" markerWidth="10" orient="auto" refX="9" refY="3.5"><polygon fill="#10b981" points="0 0 10 3.5 0 7"/></marker><marker id="arrowC" markerHeight="7" markerWidth="10" orient="auto" refX="9" refY="3.5"><polygon fill="#2563eb" points="0 0 10 3.5 0 7"/></marker><marker id="arrowE" markerHeight="7" markerWidth="10" orient="auto" refX="9" refY="3.5"><polygon fill="#f97316" points="0 0 10 3.5 0 7"/></marker><marker id="arrowF" markerHeight="7" markerWidth="10" orient="auto" refX="9" refY="3.5"><polygon fill="#7c3aed" points="0 0 10 3.5 0 7"/></marker><marker id="arrowG" markerHeight="7" markerWidth="10" orient="auto" refX="9" refY="3.5"><polygon fill="#ef4444" points="0 0 10 3.5 0 7"/></marker><marker id="arrowH" markerHeight="7" markerWidth="10" orient="auto" refX="9" refY="3.5"><polygon fill="#6b7280" points="0 0 10 3.5 0 7"/></marker><filter id="shadowSoft" width="140%" height="160%" x="-20%" y="-20%"><feDropShadow dx="0" dy="3" flood-color="#0f172a" flood-opacity=".12" stdDeviation="6"/></filter><filter id="shadowGlass" width="140%" height="160%" x="-20%" y="-20%"><feDropShadow dx="0" dy="10" flood-color="#020617" flood-opacity=".28" stdDeviation="16"/></filter><style>text{font-family:&apos;Helvetica Neue&apos;,Helvetica,Arial,&apos;PingFang SC&apos;,&apos;Microsoft YaHei&apos;,&apos;Microsoft JhengHei&apos;,&apos;SimHei&apos;,sans-serif}.title{font-size:30px;font-weight:700;fill:#111827}.subtitle{font-size:14px;font-weight:500;fill:#6b7280}.node-title{font-size:18px;font-weight:700;fill:#111827}.arrow-label,.footnote{font-size:12px;font-weight:600;fill:#6b7280}.footnote{font-weight:500;fill:#94a3b8}</style></defs><rect width="960" height="1258" fill="#fff"/><text x="480" y="56" class="title" text-anchor="middle">14.4.1 工程实现</text><text x="480" y="82" class="subtitle" text-anchor="middle">part-03-models/chapter-14-model-serving.md:414</text><path fill="none" stroke="#7c3aed" stroke-width="2.4" marker-end="url(#arrowA)" d="M 480.0,212.0 L 480.0,284.0"/><path fill="none" stroke="#7c3aed" stroke-width="2.4" marker-end="url(#arrowA)" d="M 480.0,342.0 L 480.0,414.0"/><path fill="none" stroke="#7c3aed" stroke-width="2.4" marker-end="url(#arrowA)" d="M 480.0,472.0 L 480.0,544.0"/><path fill="none" stroke="#7c3aed" stroke-width="2.4" marker-end="url(#arrowA)" d="M 480.0,602.0 L 480.0,674.0"/><path fill="none" stroke="#7c3aed" stroke-width="2.4" marker-end="url(#arrowA)" d="M 480.0,732.0 L 480.0,752.4 L 375.0,783.6 L 375.0,804.0"/><path fill="none" stroke="#7c3aed" stroke-width="2.4" marker-end="url(#arrowA)" d="M 375.0,862.0 L 375.0,882.4 L 480.0,913.6 L 480.0,934.0"/><path fill="none" stroke="#7c3aed" stroke-width="2.4" marker-end="url(#arrowA)" d="M 480.0,732.0 L 480.0,752.4 L 585.0,783.6 L 585.0,804.0"/><path fill="none" stroke="#7c3aed" stroke-width="2.4" marker-end="url(#arrowA)" d="M 480.0,992.0 L 480.0,1064.0"/><path fill="none" stroke="#7c3aed" stroke-width="2.4" marker-end="url(#arrowA)" d="M 562.0,1093.0 L 691.0,1093.0 L 691.0,703.0 L 562.0,703.0"/><rect width="164" height="58" x="398" y="154" fill="#f8fafc" stroke="#94a3b8" stroke-width="1.8" rx="10"/><text x="480" y="183" class="node-title" text-anchor="middle">Start</text><rect width="164" height="58" x="398" y="284" fill="#f0fdf4" stroke="#bbf7d0" stroke-width="1.8" rx="10"/><text x="480" y="313" class="node-title" text-anchor="middle">Missing</text><rect width="164" height="58" x="398" y="414" fill="#fff7ed" stroke="#fed7aa" stroke-width="1.8" rx="10"/><text x="480" y="443" class="node-title" text-anchor="middle">Pulling</text><rect width="164" height="58" x="398" y="544" fill="#faf5ff" stroke="#e9d5ff" stroke-width="1.8" rx="10"/><text x="480" y="573" class="node-title" text-anchor="middle">Verifying</text><rect width="164" height="58" x="398" y="674" fill="#f0fdfa" stroke="#99f6e4" stroke-width="1.8" rx="10"/><text x="480" y="703" class="node-title" text-anchor="middle">Cached</text><rect width="164" height="58" x="293" y="804" fill="#f8fafc" stroke="#cbd5e1" stroke-width="1.8" rx="10"/><text x="375" y="833" class="node-title" text-anchor="middle">Warming</text><rect width="164" height="58" x="503" y="804" fill="#f0fdf4" stroke="#bbf7d0" stroke-width="1.8" rx="10"/><text x="585" y="833" class="node-title" text-anchor="middle">Invalid</text><rect width="164" height="58" x="398" y="934" fill="#eff6ff" stroke="#bfdbfe" stroke-width="1.8" rx="10"/><text x="480" y="963" class="node-title" text-anchor="middle">Ready</text><rect width="164" height="58" x="398" y="1064" fill="#fff7ed" stroke="#fed7aa" stroke-width="1.8" rx="10"/><text x="480" y="1093" class="node-title" text-anchor="middle">Draining</text><rect width="245" height="20" x="339.5" y="364" fill="#fff" opacity=".94" rx="6"/><text x="462" y="378" class="arrow-label" text-anchor="middle">schedule prewarm or replica start</text><rect width="147" height="20" x="388.5" y="494" fill="#fff" opacity=".94" rx="6"/><text x="462" y="508" class="arrow-label" text-anchor="middle">artifact downloaded</text><rect width="168" height="20" x="378" y="624" fill="#fff" opacity=".94" rx="6"/><text x="462" y="638" class="arrow-label" text-anchor="middle">digest and manifest ok</text><rect width="245" height="20" x="305" y="738" fill="#fff" opacity=".94" rx="6"/><text x="427.5" y="752" class="arrow-label" text-anchor="middle">load weights / tokenizer / engine</text><rect width="147" height="20" x="354" y="868" fill="#fff" opacity=".94" rx="6"/><text x="427.5" y="882" class="arrow-label" text-anchor="middle">warmup probe passed</text><rect width="259" height="20" x="403" y="770" fill="#fff" opacity=".94" rx="6"/><text x="532.5" y="784" class="arrow-label" text-anchor="middle">manifest revoked or digest mismatch</text><rect width="266" height="20" x="329" y="1014" fill="#fff" opacity=".94" rx="6"/><text x="462" y="1028" class="arrow-label" text-anchor="middle">release rollback or node maintenance</text><text x="680" y="1242" class="footnote">Rendered with fireworks-tech-graph</text></svg>