<svg xmlns="http://www.w3.org/2000/svg" viewBox="0 0 1132 1034" width="1132" height="1034">
  <defs>
    <marker id="arrowA" markerWidth="10" markerHeight="7" refX="9" refY="3.5" orient="auto">
      <polygon points="0 0, 10 3.5, 0 7" fill="#7c3aed"/>
    </marker>
    <marker id="arrowB" markerWidth="10" markerHeight="7" refX="9" refY="3.5" orient="auto">
      <polygon points="0 0, 10 3.5, 0 7" fill="#10b981"/>
    </marker>
    <marker id="arrowC" markerWidth="10" markerHeight="7" refX="9" refY="3.5" orient="auto">
      <polygon points="0 0, 10 3.5, 0 7" fill="#2563eb"/>
    </marker>
    <marker id="arrowE" markerWidth="10" markerHeight="7" refX="9" refY="3.5" orient="auto">
      <polygon points="0 0, 10 3.5, 0 7" fill="#f97316"/>
    </marker>
    <marker id="arrowF" markerWidth="10" markerHeight="7" refX="9" refY="3.5" orient="auto">
      <polygon points="0 0, 10 3.5, 0 7" fill="#7c3aed"/>
    </marker>
    <marker id="arrowG" markerWidth="10" markerHeight="7" refX="9" refY="3.5" orient="auto">
      <polygon points="0 0, 10 3.5, 0 7" fill="#ef4444"/>
    </marker>
    <marker id="arrowH" markerWidth="10" markerHeight="7" refX="9" refY="3.5" orient="auto">
      <polygon points="0 0, 10 3.5, 0 7" fill="#6b7280"/>
    </marker>
    <filter id="shadowSoft" x="-20%" y="-20%" width="140%" height="160%">
      <feDropShadow dx="0" dy="3" stdDeviation="6" flood-color="#0f172a" flood-opacity="0.12"/>
    </filter>
    <filter id="shadowGlass" x="-20%" y="-20%" width="140%" height="160%">
      <feDropShadow dx="0" dy="10" stdDeviation="16" flood-color="#020617" flood-opacity="0.28"/>
    </filter>
    <style>
    text { font-family: 'Helvetica Neue', Helvetica, Arial, 'PingFang SC', 'Microsoft YaHei', 'Microsoft JhengHei', 'SimHei', sans-serif; }
    .title { font-size: 30px; font-weight: 700; fill: #111827; }
    .subtitle { font-size: 14px; font-weight: 500; fill: #6b7280; }
    .section { font-size: 13px; font-weight: 700; fill: #2563eb; letter-spacing: 1.4px; }
    .section-sub { font-size: 12px; font-weight: 500; fill: #94a3b8; }
    .node-title { font-size: 18px; font-weight: 700; fill: #111827; }
    .node-sub { font-size: 12px; font-weight: 500; fill: #6b7280; }
    .node-type { font-size: 12px; font-weight: 700; fill: #9ca3af; letter-spacing: 0.08em; }
    .arrow-label { font-size: 12px; font-weight: 600; fill: #6b7280; }
    .legend { font-size: 12px; font-weight: 500; fill: #6b7280; }
    .footnote { font-size: 12px; font-weight: 500; fill: #94a3b8; }
    </style>
  </defs>
  <rect width="1132.0" height="1034.0" fill="#ffffff"/>
  <text x="566.0" y="56" text-anchor="middle" class="title">33.4.1 工程实现</text>
  <text x="566.0" y="82" text-anchor="middle" class="subtitle">part-07-network-storage/chapter-33-ai-storage.md:762</text>
  <path d="M 566.0,224.0 L 566.0,296.0" fill="none" stroke="#7c3aed" stroke-width="2.4" marker-end="url(#arrowA)"/>
  <path d="M 566.0,354.0 L 566.0,374.4 L 143.0,405.6 L 143.0,426.0" fill="none" stroke="#7c3aed" stroke-width="2.4" marker-end="url(#arrowA)"/>
  <path d="M 566.0,354.0 L 566.0,374.4 L 404.0,405.6 L 404.0,426.0" fill="none" stroke="#7c3aed" stroke-width="2.4" marker-end="url(#arrowA)"/>
  <path d="M 566.0,354.0 L 566.0,374.4 L 693.0,411.6 L 693.0,432.0" fill="none" stroke="#7c3aed" stroke-width="2.4" marker-end="url(#arrowA)"/>
  <path d="M 566.0,354.0 L 566.0,374.4 L 961.0,411.6 L 961.0,432.0" fill="none" stroke="#7c3aed" stroke-width="2.4" marker-end="url(#arrowA)"/>
  <path d="M 143.0,496.0 L 143.0,516.4 L 566.0,547.6 L 566.0,568.0" fill="none" stroke="#7c3aed" stroke-width="2.4" marker-end="url(#arrowA)"/>
  <path d="M 404.0,496.0 L 404.0,516.4 L 566.0,547.6 L 566.0,568.0" fill="none" stroke="#7c3aed" stroke-width="2.4" marker-end="url(#arrowA)"/>
  <path d="M 693.0,490.0 L 693.0,510.4 L 566.0,547.6 L 566.0,568.0" fill="none" stroke="#7c3aed" stroke-width="2.4" marker-end="url(#arrowA)"/>
  <path d="M 961.0,490.0 L 961.0,510.4 L 566.0,547.6 L 566.0,568.0" fill="none" stroke="#7c3aed" stroke-width="2.4" marker-end="url(#arrowA)"/>
  <path d="M 566.0,626.0 L 566.0,698.0" fill="none" stroke="#7c3aed" stroke-width="2.4" marker-end="url(#arrowA)"/>
  <path d="M 566.0,756.0 L 566.0,776.4 L 320.0,807.6 L 320.0,828.0" fill="none" stroke="#7c3aed" stroke-width="2.4" marker-end="url(#arrowA)"/>
  <path d="M 566.0,756.0 L 566.0,776.4 L 559.0,813.6 L 559.0,834.0" fill="none" stroke="#7c3aed" stroke-width="2.4" marker-end="url(#arrowA)"/>
  <path d="M 566.0,756.0 L 566.0,776.4 L 805.0,813.6 L 805.0,834.0" fill="none" stroke="#7c3aed" stroke-width="2.4" marker-end="url(#arrowA)"/>
  <rect x="462.0" y="154.0" width="208.0" height="70.0" rx="10.0" fill="#eff6ff" stroke="#bfdbfe" stroke-width="1.8"/>
  <text x="566.0" y="189.0" text-anchor="middle" class="node-title">offline_release_bundle</text>
  <text x="566.0" y="211.0" text-anchor="middle" class="node-sub">manifest</text>
  <rect x="465.5" y="296.0" width="201.0" height="58.0" rx="10.0" fill="#f0fdf4" stroke="#bbf7d0" stroke-width="1.8"/>
  <text x="566.0" y="325.0" text-anchor="middle" class="node-title">offline_import_record</text>
  <rect x="60.0" y="426.0" width="166.0" height="70.0" rx="10.0" fill="#fff7ed" stroke="#fed7aa" stroke-width="1.8"/>
  <text x="143.0" y="461.0" text-anchor="middle" class="node-title">offline registry</text>
  <text x="143.0" y="483.0" text-anchor="middle" class="node-sub">image digests</text>
  <rect x="272.0" y="426.0" width="264.0" height="70.0" rx="10.0" fill="#faf5ff" stroke="#e9d5ff" stroke-width="1.8"/>
  <text x="404.0" y="461.0" text-anchor="middle" class="node-title">model artifact store</text>
  <text x="404.0" y="483.0" text-anchor="middle" class="node-sub">weights / tokenizer / template</text>
  <rect x="582.0" y="432.0" width="222.0" height="58.0" rx="10.0" fill="#f0fdfa" stroke="#99f6e4" stroke-width="1.8"/>
  <text x="693.0" y="461.0" text-anchor="middle" class="node-title">RAG index + ACL snapshot</text>
  <rect x="850.0" y="432.0" width="222.0" height="58.0" rx="10.0" fill="#f8fafc" stroke="#cbd5e1" stroke-width="1.8"/>
  <text x="961.0" y="461.0" text-anchor="middle" class="node-title">database migration state</text>
  <rect x="484.0" y="568.0" width="164.0" height="58.0" rx="10.0" fill="#eff6ff" stroke="#bfdbfe" stroke-width="1.8"/>
  <text x="566.0" y="597.0" text-anchor="middle" class="node-title">runtime smoke</text>
  <rect x="451.5" y="698.0" width="229.0" height="58.0" rx="10.0" fill="#f0fdf4" stroke="#bbf7d0" stroke-width="1.8"/>
  <text x="566.0" y="727.0" text-anchor="middle" class="node-title">offline_upgrade_rehearsal</text>
  <rect x="209.0" y="828.0" width="222.0" height="70.0" rx="10.0" fill="#fff7ed" stroke="#fed7aa" stroke-width="1.8"/>
  <text x="320.0" y="863.0" text-anchor="middle" class="node-title">cache</text>
  <text x="320.0" y="885.0" text-anchor="middle" class="node-sub">residency / invalidation</text>
  <rect x="477.0" y="834.0" width="164.0" height="58.0" rx="10.0" fill="#faf5ff" stroke="#e9d5ff" stroke-width="1.8"/>
  <text x="559.0" y="863.0" text-anchor="middle" class="node-title">rollback drill</text>
  <rect x="687.0" y="834.0" width="236.0" height="58.0" rx="10.0" fill="#f0fdfa" stroke="#99f6e4" stroke-width="1.8"/>
  <text x="805.0" y="863.0" text-anchor="middle" class="node-title">redacted diagnostic export</text>
  <text x="852.0" y="1018.0" class="footnote">Rendered with fireworks-tech-graph</text>
</svg>