<svg xmlns="http://www.w3.org/2000/svg" viewBox="0 0 2031 810" width="2031" height="810">
  <defs>
    <marker id="arrowA" markerWidth="10" markerHeight="7" refX="9" refY="3.5" orient="auto">
      <polygon points="0 0, 10 3.5, 0 7" fill="#7c3aed"/>
    </marker>
    <marker id="arrowB" markerWidth="10" markerHeight="7" refX="9" refY="3.5" orient="auto">
      <polygon points="0 0, 10 3.5, 0 7" fill="#10b981"/>
    </marker>
    <marker id="arrowC" markerWidth="10" markerHeight="7" refX="9" refY="3.5" orient="auto">
      <polygon points="0 0, 10 3.5, 0 7" fill="#2563eb"/>
    </marker>
    <marker id="arrowE" markerWidth="10" markerHeight="7" refX="9" refY="3.5" orient="auto">
      <polygon points="0 0, 10 3.5, 0 7" fill="#f97316"/>
    </marker>
    <marker id="arrowF" markerWidth="10" markerHeight="7" refX="9" refY="3.5" orient="auto">
      <polygon points="0 0, 10 3.5, 0 7" fill="#7c3aed"/>
    </marker>
    <marker id="arrowG" markerWidth="10" markerHeight="7" refX="9" refY="3.5" orient="auto">
      <polygon points="0 0, 10 3.5, 0 7" fill="#ef4444"/>
    </marker>
    <marker id="arrowH" markerWidth="10" markerHeight="7" refX="9" refY="3.5" orient="auto">
      <polygon points="0 0, 10 3.5, 0 7" fill="#6b7280"/>
    </marker>
    <filter id="shadowSoft" x="-20%" y="-20%" width="140%" height="160%">
      <feDropShadow dx="0" dy="3" stdDeviation="6" flood-color="#0f172a" flood-opacity="0.12"/>
    </filter>
    <filter id="shadowGlass" x="-20%" y="-20%" width="140%" height="160%">
      <feDropShadow dx="0" dy="10" stdDeviation="16" flood-color="#020617" flood-opacity="0.28"/>
    </filter>
    <style>
    text { font-family: 'Helvetica Neue', Helvetica, Arial, 'PingFang SC', 'Microsoft YaHei', 'Microsoft JhengHei', 'SimHei', sans-serif; }
    .title { font-size: 30px; font-weight: 700; fill: #111827; }
    .subtitle { font-size: 14px; font-weight: 500; fill: #6b7280; }
    .section { font-size: 13px; font-weight: 700; fill: #2563eb; letter-spacing: 1.4px; }
    .section-sub { font-size: 12px; font-weight: 500; fill: #94a3b8; }
    .node-title { font-size: 18px; font-weight: 700; fill: #111827; }
    .node-sub { font-size: 12px; font-weight: 500; fill: #6b7280; }
    .node-type { font-size: 12px; font-weight: 700; fill: #9ca3af; letter-spacing: 0.08em; }
    .arrow-label { font-size: 12px; font-weight: 600; fill: #6b7280; }
    .legend { font-size: 12px; font-weight: 500; fill: #6b7280; }
    .footnote { font-size: 12px; font-weight: 500; fill: #94a3b8; }
    </style>
  </defs>
  <rect width="2031.0" height="810.0" fill="#ffffff"/>
  <text x="1015.5" y="56" text-anchor="middle" class="title">40.2.2 系统架构</text>
  <text x="1015.5" y="82" text-anchor="middle" class="subtitle">part-09-reliability-observability/chapter-40-sre-operations.md:90</text>
  <path d="M 304.0,385.0 L 324.4,385.0 L 355.6,379.0 L 376.0,379.0" fill="none" stroke="#7c3aed" stroke-width="2.4" marker-end="url(#arrowA)"/>
  <path d="M 570.0,379.0 L 590.4,379.0 L 643.6,155.0 L 664.0,155.0" fill="none" stroke="#7c3aed" stroke-width="2.4" marker-end="url(#arrowA)"/>
  <path d="M 570.0,379.0 L 590.4,379.0 L 621.6,267.0 L 642.0,267.0" fill="none" stroke="#7c3aed" stroke-width="2.4" marker-end="url(#arrowA)"/>
  <path d="M 570.0,379.0 L 656.0,379.0" fill="none" stroke="#7c3aed" stroke-width="2.4" marker-end="url(#arrowA)"/>
  <path d="M 570.0,379.0 L 590.4,379.0 L 632.1,491.0 L 652.5,491.0" fill="none" stroke="#7c3aed" stroke-width="2.4" marker-end="url(#arrowA)"/>
  <path d="M 570.0,379.0 L 590.4,379.0 L 642.6,603.0 L 663.0,603.0" fill="none" stroke="#7c3aed" stroke-width="2.4" marker-end="url(#arrowA)"/>
  <path d="M 828.0,155.0 L 848.4,155.0 L 901.6,379.0 L 922.0,379.0" fill="none" stroke="#7c3aed" stroke-width="2.4" marker-end="url(#arrowA)"/>
  <path d="M 1095.0,379.0 L 1115.4,379.0 L 1146.6,385.0 L 1167.0,385.0" fill="none" stroke="#7c3aed" stroke-width="2.4" marker-end="url(#arrowA)"/>
  <path d="M 1396.0,385.0 L 1468.0,385.0" fill="none" stroke="#7c3aed" stroke-width="2.4" marker-end="url(#arrowA)"/>
  <path d="M 1655.0,385.0 L 1727.0,385.0" fill="none" stroke="#7c3aed" stroke-width="2.4" marker-end="url(#arrowA)"/>
  <path d="M 1831.0,420.0 L 1831.0,442.0 L 200.0,442.0 L 200.0,420.0" fill="none" stroke="#7c3aed" stroke-width="2.4" marker-end="url(#arrowA)"/>
  <rect x="96.0" y="350.0" width="208.0" height="70.0" rx="10.0" fill="#eff6ff" stroke="#bfdbfe" stroke-width="1.8"/>
  <text x="200.0" y="385.0" text-anchor="middle" class="node-title">SLO / training failure</text>
  <text x="200.0" y="407.0" text-anchor="middle" class="node-sub">cost anomaly</text>
  <rect x="376.0" y="350.0" width="194.0" height="58.0" rx="10.0" fill="#f0fdf4" stroke="#bbf7d0" stroke-width="1.8"/>
  <text x="473.0" y="379.0" text-anchor="middle" class="node-title">reliability_evidence</text>
  <rect x="664.0" y="126.0" width="164.0" height="58.0" rx="10.0" fill="#fff7ed" stroke="#fed7aa" stroke-width="1.8"/>
  <text x="746.0" y="155.0" text-anchor="middle" class="node-title">incident_record</text>
  <rect x="642.0" y="238.0" width="208.0" height="58.0" rx="10.0" fill="#faf5ff" stroke="#e9d5ff" stroke-width="1.8"/>
  <text x="746.0" y="267.0" text-anchor="middle" class="node-title">resource_health_record</text>
  <rect x="656.0" y="350.0" width="180.0" height="58.0" rx="10.0" fill="#f0fdfa" stroke="#99f6e4" stroke-width="1.8"/>
  <text x="746.0" y="379.0" text-anchor="middle" class="node-title">change_safety_case</text>
  <rect x="652.5" y="462.0" width="187.0" height="58.0" rx="10.0" fill="#f8fafc" stroke="#cbd5e1" stroke-width="1.8"/>
  <text x="746.0" y="491.0" text-anchor="middle" class="node-title">acceptance baseline</text>
  <rect x="663.0" y="574.0" width="166.0" height="58.0" rx="10.0" fill="#eff6ff" stroke="#bfdbfe" stroke-width="1.8"/>
  <text x="746.0" y="603.0" text-anchor="middle" class="node-title">fault_domain_map</text>
  <rect x="922.0" y="350.0" width="173.0" height="58.0" rx="10.0" fill="#f0fdf4" stroke="#bbf7d0" stroke-width="1.8"/>
  <text x="1008.5" y="379.0" text-anchor="middle" class="node-title">slo_budget_ledger</text>
  <rect x="1167.0" y="350.0" width="229.0" height="70.0" rx="10.0" fill="#fff7ed" stroke="#fed7aa" stroke-width="1.8"/>
  <text x="1281.5" y="385.0" text-anchor="middle" class="node-title">freeze / canary / isolate</text>
  <text x="1281.5" y="407.0" text-anchor="middle" class="node-sub">reroute / add capacity</text>
  <rect x="1468.0" y="350.0" width="187.0" height="70.0" rx="10.0" fill="#faf5ff" stroke="#e9d5ff" stroke-width="1.8"/>
  <text x="1561.5" y="385.0" text-anchor="middle" class="node-title">scheduler / gateway</text>
  <text x="1561.5" y="407.0" text-anchor="middle" class="node-sub">resource pool</text>
  <rect x="1727.0" y="350.0" width="208.0" height="70.0" rx="10.0" fill="#f0fdfa" stroke="#99f6e4" stroke-width="1.8"/>
  <text x="1831.0" y="385.0" text-anchor="middle" class="node-title">observability and cost</text>
  <text x="1831.0" y="407.0" text-anchor="middle" class="node-sub">feedback</text>
  <text x="1751.0" y="794.0" class="footnote">Rendered with fireworks-tech-graph</text>
</svg>