<svg xmlns="http://www.w3.org/2000/svg" viewBox="0 0 1505 904" width="1505" height="904">
  <defs>
    <marker id="arrowA" markerWidth="10" markerHeight="7" refX="9" refY="3.5" orient="auto">
      <polygon points="0 0, 10 3.5, 0 7" fill="#7c3aed"/>
    </marker>
    <marker id="arrowB" markerWidth="10" markerHeight="7" refX="9" refY="3.5" orient="auto">
      <polygon points="0 0, 10 3.5, 0 7" fill="#10b981"/>
    </marker>
    <marker id="arrowC" markerWidth="10" markerHeight="7" refX="9" refY="3.5" orient="auto">
      <polygon points="0 0, 10 3.5, 0 7" fill="#2563eb"/>
    </marker>
    <marker id="arrowE" markerWidth="10" markerHeight="7" refX="9" refY="3.5" orient="auto">
      <polygon points="0 0, 10 3.5, 0 7" fill="#f97316"/>
    </marker>
    <marker id="arrowF" markerWidth="10" markerHeight="7" refX="9" refY="3.5" orient="auto">
      <polygon points="0 0, 10 3.5, 0 7" fill="#7c3aed"/>
    </marker>
    <marker id="arrowG" markerWidth="10" markerHeight="7" refX="9" refY="3.5" orient="auto">
      <polygon points="0 0, 10 3.5, 0 7" fill="#ef4444"/>
    </marker>
    <marker id="arrowH" markerWidth="10" markerHeight="7" refX="9" refY="3.5" orient="auto">
      <polygon points="0 0, 10 3.5, 0 7" fill="#6b7280"/>
    </marker>
    <filter id="shadowSoft" x="-20%" y="-20%" width="140%" height="160%">
      <feDropShadow dx="0" dy="3" stdDeviation="6" flood-color="#0f172a" flood-opacity="0.12"/>
    </filter>
    <filter id="shadowGlass" x="-20%" y="-20%" width="140%" height="160%">
      <feDropShadow dx="0" dy="10" stdDeviation="16" flood-color="#020617" flood-opacity="0.28"/>
    </filter>
    <style>
    text { font-family: 'Helvetica Neue', Helvetica, Arial, 'PingFang SC', 'Microsoft YaHei', 'Microsoft JhengHei', 'SimHei', sans-serif; }
    .title { font-size: 30px; font-weight: 700; fill: #111827; }
    .subtitle { font-size: 14px; font-weight: 500; fill: #6b7280; }
    .section { font-size: 13px; font-weight: 700; fill: #2563eb; letter-spacing: 1.4px; }
    .section-sub { font-size: 12px; font-weight: 500; fill: #94a3b8; }
    .node-title { font-size: 18px; font-weight: 700; fill: #111827; }
    .node-sub { font-size: 12px; font-weight: 500; fill: #6b7280; }
    .node-type { font-size: 12px; font-weight: 700; fill: #9ca3af; letter-spacing: 0.08em; }
    .arrow-label { font-size: 12px; font-weight: 600; fill: #6b7280; }
    .legend { font-size: 12px; font-weight: 500; fill: #6b7280; }
    .footnote { font-size: 12px; font-weight: 500; fill: #94a3b8; }
    </style>
  </defs>
  <rect width="1505.0" height="904.0" fill="#ffffff"/>
  <text x="752.5" y="56" text-anchor="middle" class="title">39.3.8 inference latency spike</text>
  <text x="752.5" y="82" text-anchor="middle" class="subtitle">part-09-reliability-observability/chapter-39-troubleshooting.md:885</text>
  <path d="M 752.5,212.0 L 752.5,284.0" fill="none" stroke="#7c3aed" stroke-width="2.4" marker-end="url(#arrowA)"/>
  <path d="M 752.5,354.0 L 752.5,374.4 L 166.5,411.6 L 166.5,432.0" fill="none" stroke="#7c3aed" stroke-width="2.4" marker-end="url(#arrowA)"/>
  <path d="M 752.5,354.0 L 752.5,374.4 L 392.5,411.6 L 392.5,432.0" fill="none" stroke="#7c3aed" stroke-width="2.4" marker-end="url(#arrowA)"/>
  <path d="M 752.5,354.0 L 752.5,374.4 L 622.0,405.6 L 622.0,426.0" fill="none" stroke="#7c3aed" stroke-width="2.4" marker-end="url(#arrowA)"/>
  <path d="M 752.5,354.0 L 752.5,374.4 L 851.5,411.6 L 851.5,432.0" fill="none" stroke="#7c3aed" stroke-width="2.4" marker-end="url(#arrowA)"/>
  <path d="M 752.5,354.0 L 752.5,374.4 L 1098.5,411.6 L 1098.5,432.0" fill="none" stroke="#7c3aed" stroke-width="2.4" marker-end="url(#arrowA)"/>
  <path d="M 752.5,354.0 L 752.5,374.4 L 1338.5,411.6 L 1338.5,432.0" fill="none" stroke="#7c3aed" stroke-width="2.4" marker-end="url(#arrowA)"/>
  <path d="M 166.5,490.0 L 166.5,510.4 L 142.0,547.6 L 142.0,568.0" fill="none" stroke="#7c3aed" stroke-width="2.4" marker-end="url(#arrowA)"/>
  <path d="M 392.5,490.0 L 392.5,510.4 L 367.0,553.6 L 367.0,574.0" fill="none" stroke="#7c3aed" stroke-width="2.4" marker-end="url(#arrowA)"/>
  <path d="M 622.0,496.0 L 622.0,516.4 L 596.5,547.6 L 596.5,568.0" fill="none" stroke="#7c3aed" stroke-width="2.4" marker-end="url(#arrowA)"/>
  <path d="M 851.5,490.0 L 851.5,510.4 L 826.0,547.6 L 826.0,568.0" fill="none" stroke="#7c3aed" stroke-width="2.4" marker-end="url(#arrowA)"/>
  <path d="M 1098.5,490.0 L 1098.5,510.4 L 1083.5,553.6 L 1083.5,574.0" fill="none" stroke="#7c3aed" stroke-width="2.4" marker-end="url(#arrowA)"/>
  <path d="M 1338.5,490.0 L 1338.5,510.4 L 1344.5,547.6 L 1344.5,568.0" fill="none" stroke="#7c3aed" stroke-width="2.4" marker-end="url(#arrowA)"/>
  <path d="M 142.0,638.0 L 142.0,658.4 L 752.5,689.6 L 752.5,710.0" fill="none" stroke="#7c3aed" stroke-width="2.4" marker-end="url(#arrowA)"/>
  <path d="M 1344.5,638.0 L 1344.5,658.4 L 752.5,689.6 L 752.5,710.0" fill="none" stroke="#7c3aed" stroke-width="2.4" marker-end="url(#arrowA)"/>
  <rect x="670.5" y="154.0" width="164.0" height="58.0" rx="10.0" fill="#eff6ff" stroke="#bfdbfe" stroke-width="1.8"/>
  <text x="752.5" y="183.0" text-anchor="middle" class="node-title">quality symptom</text>
  <rect x="662.5" y="284.0" width="180.0" height="70.0" rx="10.0" fill="#f0fdf4" stroke="#bbf7d0" stroke-width="1.8"/>
  <text x="752.5" y="319.0" text-anchor="middle" class="node-title">quality_fault_tree</text>
  <text x="752.5" y="341.0" text-anchor="middle" class="node-sub">execution</text>
  <rect x="80.0" y="432.0" width="173.0" height="58.0" rx="10.0" fill="#fff7ed" stroke="#fed7aa" stroke-width="1.8"/>
  <text x="166.5" y="461.0" text-anchor="middle" class="node-title">evidence validity</text>
  <rect x="299.0" y="432.0" width="187.0" height="58.0" rx="10.0" fill="#faf5ff" stroke="#e9d5ff" stroke-width="1.8"/>
  <text x="392.5" y="461.0" text-anchor="middle" class="node-title">serving combination</text>
  <rect x="532.0" y="426.0" width="180.0" height="70.0" rx="10.0" fill="#f0fdfa" stroke="#99f6e4" stroke-width="1.8"/>
  <text x="622.0" y="461.0" text-anchor="middle" class="node-title">route / experiment</text>
  <text x="622.0" y="483.0" text-anchor="middle" class="node-sub">fallback</text>
  <rect x="758.0" y="432.0" width="187.0" height="58.0" rx="10.0" fill="#f8fafc" stroke="#cbd5e1" stroke-width="1.8"/>
  <text x="851.5" y="461.0" text-anchor="middle" class="node-title">RAG / Agent context</text>
  <rect x="991.0" y="432.0" width="215.0" height="58.0" rx="10.0" fill="#eff6ff" stroke="#bfdbfe" stroke-width="1.8"/>
  <text x="1098.5" y="461.0" text-anchor="middle" class="node-title">model / prompt behavior</text>
  <rect x="1252.0" y="432.0" width="173.0" height="58.0" rx="10.0" fill="#f0fdf4" stroke="#bbf7d0" stroke-width="1.8"/>
  <text x="1338.5" y="461.0" text-anchor="middle" class="node-title">quality economics</text>
  <rect x="60.0" y="568.0" width="164.0" height="70.0" rx="10.0" fill="#fff7ed" stroke="#fed7aa" stroke-width="1.8"/>
  <text x="142.0" y="603.0" text-anchor="middle" class="node-title">block / rerun</text>
  <text x="142.0" y="625.0" text-anchor="middle" class="node-sub">recalibrate</text>
  <rect x="270.0" y="574.0" width="194.0" height="58.0" rx="10.0" fill="#faf5ff" stroke="#e9d5ff" stroke-width="1.8"/>
  <text x="367.0" y="603.0" text-anchor="middle" class="node-title">full bundle rollback</text>
  <rect x="510.0" y="568.0" width="173.0" height="70.0" rx="10.0" fill="#f0fdfa" stroke="#99f6e4" stroke-width="1.8"/>
  <text x="596.5" y="603.0" text-anchor="middle" class="node-title">freeze experiment</text>
  <text x="596.5" y="625.0" text-anchor="middle" class="node-sub">route patch</text>
  <rect x="729.0" y="568.0" width="194.0" height="70.0" rx="10.0" fill="#f8fafc" stroke="#cbd5e1" stroke-width="1.8"/>
  <text x="826.0" y="603.0" text-anchor="middle" class="node-title">fix retrieval / tool</text>
  <text x="826.0" y="625.0" text-anchor="middle" class="node-sub">budget</text>
  <rect x="969.0" y="574.0" width="229.0" height="58.0" rx="10.0" fill="#eff6ff" stroke="#bfdbfe" stroke-width="1.8"/>
  <text x="1083.5" y="603.0" text-anchor="middle" class="node-title">quality_regression_record</text>
  <rect x="1244.0" y="568.0" width="201.0" height="70.0" rx="10.0" fill="#f0fdf4" stroke="#bbf7d0" stroke-width="1.8"/>
  <text x="1344.5" y="603.0" text-anchor="middle" class="node-title">quality_incident_cost</text>
  <text x="1344.5" y="625.0" text-anchor="middle" class="node-sub">record</text>
  <rect x="670.5" y="710.0" width="164.0" height="58.0" rx="10.0" fill="#fff7ed" stroke="#fed7aa" stroke-width="1.8"/>
  <text x="752.5" y="739.0" text-anchor="middle" class="node-title">PRR gate update</text>
  <text x="1225.0" y="888.0" class="footnote">Rendered with fireworks-tech-graph</text>
</svg>