<svg xmlns="http://www.w3.org/2000/svg" viewBox="0 0 2106 404" width="2106" height="404">
  <defs>
    <marker id="arrowA" markerWidth="10" markerHeight="7" refX="9" refY="3.5" orient="auto">
      <polygon points="0 0, 10 3.5, 0 7" fill="#7c3aed"/>
    </marker>
    <marker id="arrowB" markerWidth="10" markerHeight="7" refX="9" refY="3.5" orient="auto">
      <polygon points="0 0, 10 3.5, 0 7" fill="#10b981"/>
    </marker>
    <marker id="arrowC" markerWidth="10" markerHeight="7" refX="9" refY="3.5" orient="auto">
      <polygon points="0 0, 10 3.5, 0 7" fill="#2563eb"/>
    </marker>
    <marker id="arrowE" markerWidth="10" markerHeight="7" refX="9" refY="3.5" orient="auto">
      <polygon points="0 0, 10 3.5, 0 7" fill="#f97316"/>
    </marker>
    <marker id="arrowF" markerWidth="10" markerHeight="7" refX="9" refY="3.5" orient="auto">
      <polygon points="0 0, 10 3.5, 0 7" fill="#7c3aed"/>
    </marker>
    <marker id="arrowG" markerWidth="10" markerHeight="7" refX="9" refY="3.5" orient="auto">
      <polygon points="0 0, 10 3.5, 0 7" fill="#ef4444"/>
    </marker>
    <marker id="arrowH" markerWidth="10" markerHeight="7" refX="9" refY="3.5" orient="auto">
      <polygon points="0 0, 10 3.5, 0 7" fill="#6b7280"/>
    </marker>
    <filter id="shadowSoft" x="-20%" y="-20%" width="140%" height="160%">
      <feDropShadow dx="0" dy="3" stdDeviation="6" flood-color="#0f172a" flood-opacity="0.12"/>
    </filter>
    <filter id="shadowGlass" x="-20%" y="-20%" width="140%" height="160%">
      <feDropShadow dx="0" dy="10" stdDeviation="16" flood-color="#020617" flood-opacity="0.28"/>
    </filter>
    <style>
    text { font-family: 'Helvetica Neue', Helvetica, Arial, 'PingFang SC', 'Microsoft YaHei', 'Microsoft JhengHei', 'SimHei', sans-serif; }
    .title { font-size: 30px; font-weight: 700; fill: #111827; }
    .subtitle { font-size: 14px; font-weight: 500; fill: #6b7280; }
    .section { font-size: 13px; font-weight: 700; fill: #2563eb; letter-spacing: 1.4px; }
    .section-sub { font-size: 12px; font-weight: 500; fill: #94a3b8; }
    .node-title { font-size: 18px; font-weight: 700; fill: #111827; }
    .node-sub { font-size: 12px; font-weight: 500; fill: #6b7280; }
    .node-type { font-size: 12px; font-weight: 700; fill: #9ca3af; letter-spacing: 0.08em; }
    .arrow-label { font-size: 12px; font-weight: 600; fill: #6b7280; }
    .legend { font-size: 12px; font-weight: 500; fill: #6b7280; }
    .footnote { font-size: 12px; font-weight: 500; fill: #94a3b8; }
    </style>
  </defs>
  <rect width="2106.0" height="404.0" fill="#ffffff"/>
  <text x="1053.0" y="56" text-anchor="middle" class="title">38.3.7 network benchmark</text>
  <text x="1053.0" y="82" text-anchor="middle" class="subtitle">part-09-reliability-observability/chapter-38-acceptance-testing.md:670</text>
  <path d="M 260.0,211.0 L 280.4,211.0 L 346.6,161.0 L 367.0,161.0" fill="none" stroke="#7c3aed" stroke-width="2.4" marker-end="url(#arrowA)"/>
  <path d="M 260.0,211.0 L 280.4,211.0 L 311.6,273.0 L 332.0,273.0" fill="none" stroke="#7c3aed" stroke-width="2.4" marker-end="url(#arrowA)"/>
  <path d="M 540.0,161.0 L 560.4,161.0 L 637.1,155.0 L 657.5,155.0" fill="none" stroke="#7c3aed" stroke-width="2.4" marker-end="url(#arrowA)"/>
  <path d="M 575.0,273.0 L 647.0,273.0" fill="none" stroke="#7c3aed" stroke-width="2.4" marker-end="url(#arrowA)"/>
  <path d="M 869.0,273.0 L 763.25,273.0 L 763.25,155.0 L 657.5,155.0" fill="none" stroke="#7c3aed" stroke-width="2.4" marker-end="url(#arrowA)"/>
  <path d="M 858.5,155.0 L 878.9,155.0 L 920.6,211.0 L 941.0,211.0" fill="none" stroke="#7c3aed" stroke-width="2.4" marker-end="url(#arrowA)"/>
  <path d="M 1177.0,211.0 L 1197.4,211.0 L 1228.6,217.0 L 1249.0,217.0" fill="none" stroke="#7c3aed" stroke-width="2.4" marker-end="url(#arrowA)"/>
  <path d="M 1450.0,217.0 L 1470.4,217.0 L 1501.6,211.0 L 1522.0,211.0" fill="none" stroke="#7c3aed" stroke-width="2.4" marker-end="url(#arrowA)"/>
  <path d="M 1751.0,211.0 L 1823.0,211.0" fill="none" stroke="#7c3aed" stroke-width="2.4" marker-end="url(#arrowA)"/>
  <rect x="96.0" y="182.0" width="164.0" height="58.0" rx="10.0" fill="#fff7ed" stroke="#fdba74" stroke-width="2.0"/>
  <rect x="102.0" y="188.0" width="152.0" height="46.0" rx="7.0" fill="none" stroke="#fdba74" stroke-width="1.2" opacity="0.65"/>
  <text x="178.0" y="200.0" text-anchor="middle" class="node-type">DECISION</text>
  <text x="178.0" y="217.0" text-anchor="middle" class="node-title">claim mode</text>
  <rect x="367.0" y="126.0" width="173.0" height="70.0" rx="10.0" fill="#f0fdf4" stroke="#bbf7d0" stroke-width="1.8"/>
  <text x="453.5" y="161.0" text-anchor="middle" class="node-title">extended resource</text>
  <text x="453.5" y="183.0" text-anchor="middle" class="node-sub">nvidia.com/gpu</text>
  <rect x="332.0" y="238.0" width="243.0" height="70.0" rx="10.0" fill="#fff7ed" stroke="#fed7aa" stroke-width="1.8"/>
  <text x="453.5" y="273.0" text-anchor="middle" class="node-title">DRA</text>
  <text x="453.5" y="295.0" text-anchor="middle" class="node-sub">DeviceClass / ResourceClaim</text>
  <rect x="657.5" y="126.0" width="201.0" height="58.0" rx="10.0" fill="#faf5ff" stroke="#e9d5ff" stroke-width="1.8"/>
  <text x="758.0" y="155.0" text-anchor="middle" class="node-title">gpu_assignment_record</text>
  <rect x="647.0" y="238.0" width="222.0" height="70.0" rx="10.0" fill="#f0fdfa" stroke="#99f6e4" stroke-width="1.8"/>
  <text x="758.0" y="273.0" text-anchor="middle" class="node-title">resource_claim_admission</text>
  <text x="758.0" y="295.0" text-anchor="middle" class="node-sub">record</text>
  <rect x="941.0" y="182.0" width="236.0" height="58.0" rx="10.0" fill="#f8fafc" stroke="#cbd5e1" stroke-width="1.8"/>
  <text x="1059.0" y="211.0" text-anchor="middle" class="node-title">oci_runtime_injection_diff</text>
  <rect x="1249.0" y="182.0" width="201.0" height="70.0" rx="10.0" fill="#eff6ff" stroke="#bfdbfe" stroke-width="1.8"/>
  <text x="1349.5" y="217.0" text-anchor="middle" class="node-title">gpu_device_visibility</text>
  <text x="1349.5" y="239.0" text-anchor="middle" class="node-sub">reconciliation</text>
  <rect x="1522.0" y="182.0" width="229.0" height="58.0" rx="10.0" fill="#f0fdf4" stroke="#bbf7d0" stroke-width="1.8"/>
  <text x="1636.5" y="211.0" text-anchor="middle" class="node-title">metering label continuity</text>
  <rect x="1823.0" y="182.0" width="187.0" height="58.0" rx="10.0" fill="#fff7ed" stroke="#fed7aa" stroke-width="1.8"/>
  <text x="1916.5" y="211.0" text-anchor="middle" class="node-title">acceptance_baseline</text>
  <text x="1826.0" y="388.0" class="footnote">Rendered with fireworks-tech-graph</text>
</svg>