<svg xmlns="http://www.w3.org/2000/svg" width="1088" height="880" viewBox="0 0 1088 880"><defs><marker id="arrowA" markerHeight="7" markerWidth="10" orient="auto" refX="9" refY="3.5"><polygon fill="#7c3aed" points="0 0 10 3.5 0 7"/></marker><marker id="arrowB" markerHeight="7" markerWidth="10" orient="auto" refX="9" refY="3.5"><polygon fill="#10b981" points="0 0 10 3.5 0 7"/></marker><marker id="arrowC" markerHeight="7" markerWidth="10" orient="auto" refX="9" refY="3.5"><polygon fill="#2563eb" points="0 0 10 3.5 0 7"/></marker><marker id="arrowE" markerHeight="7" markerWidth="10" orient="auto" refX="9" refY="3.5"><polygon fill="#f97316" points="0 0 10 3.5 0 7"/></marker><marker id="arrowF" markerHeight="7" markerWidth="10" orient="auto" refX="9" refY="3.5"><polygon fill="#7c3aed" points="0 0 10 3.5 0 7"/></marker><marker id="arrowG" markerHeight="7" markerWidth="10" orient="auto" refX="9" refY="3.5"><polygon fill="#ef4444" points="0 0 10 3.5 0 7"/></marker><marker id="arrowH" markerHeight="7" markerWidth="10" orient="auto" refX="9" refY="3.5"><polygon fill="#6b7280" points="0 0 10 3.5 0 7"/></marker><filter id="shadowSoft" width="140%" height="160%" x="-20%" y="-20%"><feDropShadow dx="0" dy="3" flood-color="#0f172a" flood-opacity=".12" stdDeviation="6"/></filter><filter id="shadowGlass" width="140%" height="160%" x="-20%" y="-20%"><feDropShadow dx="0" dy="10" flood-color="#020617" flood-opacity=".28" stdDeviation="16"/></filter><style>text{font-family:&apos;Helvetica Neue&apos;,Helvetica,Arial,&apos;PingFang SC&apos;,&apos;Microsoft YaHei&apos;,&apos;Microsoft JhengHei&apos;,&apos;SimHei&apos;,sans-serif}.title{font-size:30px;font-weight:700;fill:#111827}.subtitle{font-size:14px;font-weight:500;fill:#6b7280}.node-title{font-size:18px;font-weight:700;fill:#111827}.footnote,.node-sub{font-size:12px;font-weight:500}.node-sub{fill:#6b7280}.footnote{fill:#94a3b8}</style></defs><rect width="1088" height="880" fill="#fff"/><text x="544" y="56" class="title" text-anchor="middle">8.4.1 工程实现</text><text x="544" y="82" class="subtitle" text-anchor="middle">part-02-platform/chapter-08-platform-observability.md:278</text><path fill="none" stroke="#7c3aed" stroke-width="2.4" marker-end="url(#arrowA)" d="M 544.0,212.0 L 544.0,284.0"/><path fill="none" stroke="#7c3aed" stroke-width="2.4" marker-end="url(#arrowA)" d="M 544.0,342.0 L 544.0,414.0"/><path fill="none" stroke="#7c3aed" stroke-width="2.4" marker-end="url(#arrowA)" d="M 544.0,472.0 L 544.0,492.4 L 167.5,523.6 L 167.5,544.0"/><path fill="none" stroke="#7c3aed" stroke-width="2.4" marker-end="url(#arrowA)" d="M 544.0,472.0 L 544.0,492.4 L 432.0,523.6 L 432.0,544.0"/><path fill="none" stroke="#7c3aed" stroke-width="2.4" marker-end="url(#arrowA)" d="M 544.0,472.0 L 544.0,492.4 L 703.5,529.6 L 703.5,550.0"/><path fill="none" stroke="#7c3aed" stroke-width="2.4" marker-end="url(#arrowA)" d="M 544.0,472.0 L 544.0,492.4 L 946.0,523.6 L 946.0,544.0"/><path fill="none" stroke="#7c3aed" stroke-width="2.4" marker-end="url(#arrowA)" d="M 167.5,614.0 L 167.5,634.4 L 229.0,665.6 L 229.0,686.0"/><path fill="none" stroke="#7c3aed" stroke-width="2.4" marker-end="url(#arrowA)" d="M 432.0,614.0 L 432.0,634.4 L 439.0,665.6 L 439.0,686.0"/><path fill="none" stroke="#7c3aed" stroke-width="2.4" marker-end="url(#arrowA)" d="M 703.5,608.0 L 703.5,628.4 L 649.0,665.6 L 649.0,686.0"/><path fill="none" stroke="#7c3aed" stroke-width="2.4" marker-end="url(#arrowA)" d="M 946.0,614.0 L 946.0,634.4 L 859.0,665.6 L 859.0,686.0"/><rect width="164" height="58" x="462" y="154" fill="#eff6ff" stroke="#bfdbfe" stroke-width="1.8" rx="10"/><text x="544" y="183" class="node-title" text-anchor="middle">用户反馈 / 告警</text><rect width="166" height="58" x="461" y="284" fill="#f0fdf4" stroke="#bbf7d0" stroke-width="1.8" rx="10"/><text x="544" y="313" class="node-title" text-anchor="middle">按 trace_id 查请求路径</text><rect width="164" height="58" x="462" y="414" fill="#fff7ed" stroke="#fed7aa" stroke-width="1.8" rx="10"/><text x="544" y="443" class="node-title" text-anchor="middle">定位异常阶段</text><rect width="215" height="70" x="60" y="544" fill="#faf5ff" stroke="#e9d5ff" stroke-width="1.8" rx="10"/><text x="167.5" y="579" class="node-title" text-anchor="middle">Gateway: policy / quota</text><text x="167.5" y="601" class="node-sub" text-anchor="middle">route</text><rect width="222" height="70" x="321" y="544" fill="#f0fdfa" stroke="#99f6e4" stroke-width="1.8" rx="10"/><text x="432" y="579" class="node-title" text-anchor="middle">Serving: queue / prefill</text><text x="432" y="601" class="node-sub" text-anchor="middle">decode</text><rect width="229" height="58" x="589" y="550" fill="#f8fafc" stroke="#cbd5e1" stroke-width="1.8" rx="10"/><text x="703.5" y="579" class="node-title" text-anchor="middle">Runtime: KV / batch / GPU</text><rect width="164" height="70" x="864" y="544" fill="#eff6ff" stroke="#bfdbfe" stroke-width="1.8" rx="10"/><text x="946" y="579" class="node-title" text-anchor="middle">Metering: usage</text><text x="946" y="601" class="node-sub" text-anchor="middle">close reason</text><rect width="164" height="58" x="147" y="686" fill="#f0fdf4" stroke="#bbf7d0" stroke-width="1.8" rx="10"/><text x="229" y="715" class="node-title" text-anchor="middle">策略或配额修复</text><rect width="164" height="58" x="357" y="686" fill="#fff7ed" stroke="#fed7aa" stroke-width="1.8" rx="10"/><text x="439" y="715" class="node-title" text-anchor="middle">扩容 / 隔离 / 发布回滚</text><rect width="164" height="58" x="567" y="686" fill="#faf5ff" stroke="#e9d5ff" stroke-width="1.8" rx="10"/><text x="649" y="715" class="node-title" text-anchor="middle">引擎参数 / 节点隔离</text><rect width="164" height="58" x="777" y="686" fill="#f0fdfa" stroke="#99f6e4" stroke-width="1.8" rx="10"/><text x="859" y="715" class="node-title" text-anchor="middle">账单修正 / 事件补偿</text><text x="808" y="864" class="footnote">Rendered with fireworks-tech-graph</text></svg>