<svg xmlns="http://www.w3.org/2000/svg" viewBox="0 0 2274 360" width="2274" height="360">
  <defs>
    <marker id="arrowA" markerWidth="10" markerHeight="7" refX="9" refY="3.5" orient="auto">
      <polygon points="0 0, 10 3.5, 0 7" fill="#7c3aed"/>
    </marker>
    <marker id="arrowB" markerWidth="10" markerHeight="7" refX="9" refY="3.5" orient="auto">
      <polygon points="0 0, 10 3.5, 0 7" fill="#10b981"/>
    </marker>
    <marker id="arrowC" markerWidth="10" markerHeight="7" refX="9" refY="3.5" orient="auto">
      <polygon points="0 0, 10 3.5, 0 7" fill="#2563eb"/>
    </marker>
    <marker id="arrowE" markerWidth="10" markerHeight="7" refX="9" refY="3.5" orient="auto">
      <polygon points="0 0, 10 3.5, 0 7" fill="#f97316"/>
    </marker>
    <marker id="arrowF" markerWidth="10" markerHeight="7" refX="9" refY="3.5" orient="auto">
      <polygon points="0 0, 10 3.5, 0 7" fill="#7c3aed"/>
    </marker>
    <marker id="arrowG" markerWidth="10" markerHeight="7" refX="9" refY="3.5" orient="auto">
      <polygon points="0 0, 10 3.5, 0 7" fill="#ef4444"/>
    </marker>
    <marker id="arrowH" markerWidth="10" markerHeight="7" refX="9" refY="3.5" orient="auto">
      <polygon points="0 0, 10 3.5, 0 7" fill="#6b7280"/>
    </marker>
    <filter id="shadowSoft" x="-20%" y="-20%" width="140%" height="160%">
      <feDropShadow dx="0" dy="3" stdDeviation="6" flood-color="#0f172a" flood-opacity="0.12"/>
    </filter>
    <filter id="shadowGlass" x="-20%" y="-20%" width="140%" height="160%">
      <feDropShadow dx="0" dy="10" stdDeviation="16" flood-color="#020617" flood-opacity="0.28"/>
    </filter>
    <style>
    text { font-family: 'Helvetica Neue', Helvetica, Arial, 'PingFang SC', 'Microsoft YaHei', 'Microsoft JhengHei', 'SimHei', sans-serif; }
    .title { font-size: 30px; font-weight: 700; fill: #111827; }
    .subtitle { font-size: 14px; font-weight: 500; fill: #6b7280; }
    .section { font-size: 13px; font-weight: 700; fill: #2563eb; letter-spacing: 1.4px; }
    .section-sub { font-size: 12px; font-weight: 500; fill: #94a3b8; }
    .node-title { font-size: 18px; font-weight: 700; fill: #111827; }
    .node-sub { font-size: 12px; font-weight: 500; fill: #6b7280; }
    .node-type { font-size: 12px; font-weight: 700; fill: #9ca3af; letter-spacing: 0.08em; }
    .arrow-label { font-size: 12px; font-weight: 600; fill: #6b7280; }
    .legend { font-size: 12px; font-weight: 500; fill: #6b7280; }
    .footnote { font-size: 12px; font-weight: 500; fill: #94a3b8; }
    </style>
  </defs>
  <rect width="2274.0" height="360.0" fill="#ffffff"/>
  <text x="1137.0" y="56" text-anchor="middle" class="title">29.2.2 系统架构</text>
  <text x="1137.0" y="82" text-anchor="middle" class="subtitle">part-06-gpu-iaas/chapter-29-image-driver-bootstrap.md:88</text>
  <path d="M 290.0,155.0 L 362.0,155.0" fill="none" stroke="#7c3aed" stroke-width="2.4" marker-end="url(#arrowA)"/>
  <path d="M 526.0,155.0 L 598.0,155.0" fill="none" stroke="#7c3aed" stroke-width="2.4" marker-end="url(#arrowA)"/>
  <path d="M 820.0,155.0 L 840.4,155.0 L 871.6,161.0 L 892.0,161.0" fill="none" stroke="#7c3aed" stroke-width="2.4" marker-end="url(#arrowA)"/>
  <path d="M 1093.0,161.0 L 1113.4,161.0 L 1144.6,155.0 L 1165.0,155.0" fill="none" stroke="#7c3aed" stroke-width="2.4" marker-end="url(#arrowA)"/>
  <path d="M 1387.0,155.0 L 1407.4,155.0 L 1438.6,161.0 L 1459.0,161.0" fill="none" stroke="#7c3aed" stroke-width="2.4" marker-end="url(#arrowA)"/>
  <path d="M 1681.0,161.0 L 1753.0,161.0" fill="none" stroke="#7c3aed" stroke-width="2.4" marker-end="url(#arrowA)"/>
  <path d="M 1933.0,161.0 L 1953.4,161.0 L 1984.6,155.0 L 2005.0,155.0" fill="none" stroke="#7c3aed" stroke-width="2.4" marker-end="url(#arrowA)"/>
  <rect x="96.0" y="126.0" width="194.0" height="58.0" rx="10.0" fill="#eff6ff" stroke="#bfdbfe" stroke-width="1.8"/>
  <text x="193.0" y="155.0" text-anchor="middle" class="node-title">OS / kernel baseline</text>
  <rect x="362.0" y="126.0" width="164.0" height="58.0" rx="10.0" fill="#f0fdf4" stroke="#bbf7d0" stroke-width="1.8"/>
  <text x="444.0" y="155.0" text-anchor="middle" class="node-title">NVIDIA Driver</text>
  <rect x="598.0" y="126.0" width="222.0" height="58.0" rx="10.0" fill="#fff7ed" stroke="#fed7aa" stroke-width="1.8"/>
  <text x="709.0" y="155.0" text-anchor="middle" class="node-title">NVIDIA Container Toolkit</text>
  <rect x="892.0" y="126.0" width="201.0" height="70.0" rx="10.0" fill="#faf5ff" stroke="#e9d5ff" stroke-width="1.8"/>
  <text x="992.5" y="161.0" text-anchor="middle" class="node-title">containerd</text>
  <text x="992.5" y="183.0" text-anchor="middle" class="node-sub">Docker runtime config</text>
  <rect x="1165.0" y="126.0" width="222.0" height="58.0" rx="10.0" fill="#f0fdfa" stroke="#99f6e4" stroke-width="1.8"/>
  <text x="1276.0" y="155.0" text-anchor="middle" class="node-title">GPU container smoke test</text>
  <rect x="1459.0" y="126.0" width="222.0" height="70.0" rx="10.0" fill="#f8fafc" stroke="#cbd5e1" stroke-width="1.8"/>
  <text x="1570.0" y="161.0" text-anchor="middle" class="node-title">Kubernetes device plugin</text>
  <text x="1570.0" y="183.0" text-anchor="middle" class="node-sub">test</text>
  <rect x="1753.0" y="126.0" width="180.0" height="70.0" rx="10.0" fill="#eff6ff" stroke="#bfdbfe" stroke-width="1.8"/>
  <text x="1843.0" y="161.0" text-anchor="middle" class="node-title">containerized NCCL</text>
  <text x="1843.0" y="183.0" text-anchor="middle" class="node-sub">RDMA test</text>
  <rect x="2005.0" y="126.0" width="173.0" height="58.0" rx="10.0" fill="#f0fdf4" stroke="#bbf7d0" stroke-width="1.8"/>
  <text x="2091.5" y="155.0" text-anchor="middle" class="node-title">GPU resource pool</text>
  <text x="1994.0" y="344.0" class="footnote">Rendered with fireworks-tech-graph</text>
</svg>