<svg xmlns="http://www.w3.org/2000/svg" width="1210" height="698" viewBox="0 0 1210 698"><defs><marker id="arrowA" markerHeight="7" markerWidth="10" orient="auto" refX="9" refY="3.5"><polygon fill="#7c3aed" points="0 0 10 3.5 0 7"/></marker><marker id="arrowB" markerHeight="7" markerWidth="10" orient="auto" refX="9" refY="3.5"><polygon fill="#10b981" points="0 0 10 3.5 0 7"/></marker><marker id="arrowC" markerHeight="7" markerWidth="10" orient="auto" refX="9" refY="3.5"><polygon fill="#2563eb" points="0 0 10 3.5 0 7"/></marker><marker id="arrowE" markerHeight="7" markerWidth="10" orient="auto" refX="9" refY="3.5"><polygon fill="#f97316" points="0 0 10 3.5 0 7"/></marker><marker id="arrowF" markerHeight="7" markerWidth="10" orient="auto" refX="9" refY="3.5"><polygon fill="#7c3aed" points="0 0 10 3.5 0 7"/></marker><marker id="arrowG" markerHeight="7" markerWidth="10" orient="auto" refX="9" refY="3.5"><polygon fill="#ef4444" points="0 0 10 3.5 0 7"/></marker><marker id="arrowH" markerHeight="7" markerWidth="10" orient="auto" refX="9" refY="3.5"><polygon fill="#6b7280" points="0 0 10 3.5 0 7"/></marker><filter id="shadowSoft" width="140%" height="160%" x="-20%" y="-20%"><feDropShadow dx="0" dy="3" flood-color="#0f172a" flood-opacity=".12" stdDeviation="6"/></filter><filter id="shadowGlass" width="140%" height="160%" x="-20%" y="-20%"><feDropShadow dx="0" dy="10" flood-color="#020617" flood-opacity=".28" stdDeviation="16"/></filter><style>text{font-family:&apos;Helvetica Neue&apos;,Helvetica,Arial,&apos;PingFang SC&apos;,&apos;Microsoft YaHei&apos;,&apos;Microsoft JhengHei&apos;,&apos;SimHei&apos;,sans-serif}.title{font-size:30px;font-weight:700;fill:#111827}.subtitle{font-size:14px;font-weight:500;fill:#6b7280}.node-title{font-size:18px;font-weight:700;fill:#111827}.footnote{font-size:12px;font-weight:500;fill:#94a3b8}</style></defs><rect width="1210" height="698" fill="#fff"/><text x="605" y="56" class="title" text-anchor="middle">14.4.1 工程实现</text><text x="605" y="82" class="subtitle" text-anchor="middle">part-03-models/chapter-14-model-serving.md:587</text><path fill="none" stroke="#7c3aed" stroke-width="2.4" marker-end="url(#arrowA)" d="M 271.5,267.0 L 291.9,267.0 L 334.6,323.0 L 355.0,323.0"/><path fill="none" stroke="#7c3aed" stroke-width="2.4" marker-end="url(#arrowA)" d="M 283.0,379.0 L 303.4,379.0 L 334.6,323.0 L 355.0,323.0"/><path fill="none" stroke="#7c3aed" stroke-width="2.4" marker-end="url(#arrowA)" d="M 577.0,323.0 L 597.4,323.0 L 642.6,155.0 L 663.0,155.0"/><path fill="none" stroke="#7c3aed" stroke-width="2.4" marker-end="url(#arrowA)" d="M 577.0,323.0 L 597.4,323.0 L 639.1,267.0 L 659.5,267.0"/><path fill="none" stroke="#7c3aed" stroke-width="2.4" marker-end="url(#arrowA)" d="M 577.0,323.0 L 597.4,323.0 L 628.6,379.0 L 649.0,379.0"/><path fill="none" stroke="#7c3aed" stroke-width="2.4" marker-end="url(#arrowA)" d="M 577.0,323.0 L 597.4,323.0 L 632.1,491.0 L 652.5,491.0"/><path fill="none" stroke="#7c3aed" stroke-width="2.4" marker-end="url(#arrowA)" d="M 864.0,155.0 L 884.4,155.0 L 929.6,323.0 L 950.0,323.0"/><path fill="none" stroke="#7c3aed" stroke-width="2.4" marker-end="url(#arrowA)" d="M 867.5,267.0 L 887.9,267.0 L 929.6,323.0 L 950.0,323.0"/><path fill="none" stroke="#7c3aed" stroke-width="2.4" marker-end="url(#arrowA)" d="M 878.0,379.0 L 898.4,379.0 L 929.6,323.0 L 950.0,323.0"/><path fill="none" stroke="#7c3aed" stroke-width="2.4" marker-end="url(#arrowA)" d="M 874.5,491.0 L 894.9,491.0 L 929.6,323.0 L 950.0,323.0"/><rect width="164" height="58" x="107.5" y="238" fill="#eff6ff" stroke="#bfdbfe" stroke-width="1.8" rx="10"/><text x="189.5" y="267" class="node-title" text-anchor="middle">serving_release</text><rect width="187" height="58" x="96" y="350" fill="#fff7ed" stroke="#fed7aa" stroke-width="1.8" rx="10"/><text x="189.5" y="379" class="node-title" text-anchor="middle">quality_gate_record</text><rect width="222" height="58" x="355" y="294" fill="#f0fdf4" stroke="#bbf7d0" stroke-width="1.8" rx="10"/><text x="466" y="323" class="node-title" text-anchor="middle">serving_quality_contract</text><rect width="201" height="58" x="663" y="126" fill="#faf5ff" stroke="#e9d5ff" stroke-width="1.8" rx="10"/><text x="763.5" y="155" class="node-title" text-anchor="middle">artifact digest check</text><rect width="208" height="58" x="659.5" y="238" fill="#f0fdfa" stroke="#99f6e4" stroke-width="1.8" rx="10"/><text x="763.5" y="267" class="node-title" text-anchor="middle">protocol contract test</text><rect width="229" height="58" x="649" y="350" fill="#f8fafc" stroke="#cbd5e1" stroke-width="1.8" rx="10"/><text x="763.5" y="379" class="node-title" text-anchor="middle">token / output drift test</text><rect width="222" height="58" x="652.5" y="462" fill="#eff6ff" stroke="#bfdbfe" stroke-width="1.8" rx="10"/><text x="763.5" y="491" class="node-title" text-anchor="middle">quality regression suite</text><rect width="164" height="58" x="950" y="294" fill="#f0fdf4" stroke="#bbf7d0" stroke-width="1.8" rx="10"/><text x="1032" y="323" class="node-title" text-anchor="middle">canary decision</text><text x="930" y="682" class="footnote">Rendered with fireworks-tech-graph</text></svg>