<svg xmlns="http://www.w3.org/2000/svg" width="1635" height="600" viewBox="0 0 1635 600"><defs><marker id="arrowA" markerHeight="7" markerWidth="10" orient="auto" refX="9" refY="3.5"><polygon fill="#7c3aed" points="0 0 10 3.5 0 7"/></marker><marker id="arrowB" markerHeight="7" markerWidth="10" orient="auto" refX="9" refY="3.5"><polygon fill="#10b981" points="0 0 10 3.5 0 7"/></marker><marker id="arrowC" markerHeight="7" markerWidth="10" orient="auto" refX="9" refY="3.5"><polygon fill="#2563eb" points="0 0 10 3.5 0 7"/></marker><marker id="arrowE" markerHeight="7" markerWidth="10" orient="auto" refX="9" refY="3.5"><polygon fill="#f97316" points="0 0 10 3.5 0 7"/></marker><marker id="arrowF" markerHeight="7" markerWidth="10" orient="auto" refX="9" refY="3.5"><polygon fill="#7c3aed" points="0 0 10 3.5 0 7"/></marker><marker id="arrowG" markerHeight="7" markerWidth="10" orient="auto" refX="9" refY="3.5"><polygon fill="#ef4444" points="0 0 10 3.5 0 7"/></marker><marker id="arrowH" markerHeight="7" markerWidth="10" orient="auto" refX="9" refY="3.5"><polygon fill="#6b7280" points="0 0 10 3.5 0 7"/></marker><filter id="shadowSoft" width="140%" height="160%" x="-20%" y="-20%"><feDropShadow dx="0" dy="3" flood-color="#0f172a" flood-opacity=".12" stdDeviation="6"/></filter><filter id="shadowGlass" width="140%" height="160%" x="-20%" y="-20%"><feDropShadow dx="0" dy="10" flood-color="#020617" flood-opacity=".28" stdDeviation="16"/></filter><style>text{font-family:&apos;Helvetica Neue&apos;,Helvetica,Arial,&apos;PingFang SC&apos;,&apos;Microsoft YaHei&apos;,&apos;Microsoft JhengHei&apos;,&apos;SimHei&apos;,sans-serif}.title{font-size:30px;font-weight:700;fill:#111827}.subtitle{font-size:14px;font-weight:500;fill:#6b7280}.node-title{font-size:18px;font-weight:700;fill:#111827}.footnote{font-size:12px;font-weight:500;fill:#94a3b8}</style></defs><rect width="1635" height="600" fill="#fff"/><text x="817.5" y="56" class="title" text-anchor="middle">14.2.2 系统架构</text><text x="817.5" y="82" class="subtitle" text-anchor="middle">part-03-models/chapter-14-model-serving.md:72</text><path fill="none" stroke="#7c3aed" stroke-width="2.4" marker-end="url(#arrowA)" d="M 260.0,267.0 L 332.0,267.0"/><path fill="none" stroke="#7c3aed" stroke-width="2.4" marker-end="url(#arrowA)" d="M 496.0,267.0 L 516.4,267.0 L 573.1,155.0 L 593.5,155.0"/><path fill="none" stroke="#7c3aed" stroke-width="2.4" marker-end="url(#arrowA)" d="M 496.0,267.0 L 593.5,267.0"/><path fill="none" stroke="#7c3aed" stroke-width="2.4" marker-end="url(#arrowA)" d="M 757.5,155.0 L 855.0,155.0"/><path fill="none" stroke="#7c3aed" stroke-width="2.4" marker-end="url(#arrowA)" d="M 757.5,267.0 L 855.0,267.0"/><path fill="none" stroke="#7c3aed" stroke-width="2.4" marker-end="url(#arrowA)" d="M 1021.0,155.0 L 1111.5,155.0"/><path fill="none" stroke="#7c3aed" stroke-width="2.4" marker-end="url(#arrowA)" d="M 1021.0,267.0 L 1111.5,267.0"/><path fill="none" stroke="#7c3aed" stroke-width="2.4" marker-end="url(#arrowA)" d="M 496.0,267.0 L 516.4,267.0 L 547.6,379.0 L 568.0,379.0"/><path fill="none" stroke="#7c3aed" stroke-width="2.4" marker-end="url(#arrowA)" d="M 783.0,379.0 L 856.0,379.0"/><path fill="none" stroke="#7c3aed" stroke-width="2.4" marker-end="url(#arrowA)" d="M 1020.0,379.0 L 1093.0,379.0"/><path fill="none" stroke="#7c3aed" stroke-width="2.4" marker-end="url(#arrowA)" d="M 1193.5,408.0 L 1193.5,442.0 L 414.0,442.0 L 414.0,296.0"/><path fill="none" stroke="#7c3aed" stroke-width="2.4" marker-end="url(#arrowA)" d="M 1294.0,379.0 L 1314.4,379.0 L 1345.6,267.0 L 1366.0,267.0"/><rect width="164" height="58" x="96" y="238" fill="#eff6ff" stroke="#bfdbfe" stroke-width="1.8" rx="10"/><text x="178" y="267" class="node-title" text-anchor="middle">AI Gateway</text><rect width="164" height="58" x="332" y="238" fill="#f0fdf4" stroke="#bbf7d0" stroke-width="1.8" rx="10"/><text x="414" y="267" class="node-title" text-anchor="middle">Model Endpoint</text><rect width="164" height="58" x="593.5" y="126" fill="#fff7ed" stroke="#fed7aa" stroke-width="1.8" rx="10"/><text x="675.5" y="155" class="node-title" text-anchor="middle">Replica 1</text><rect width="164" height="58" x="593.5" y="238" fill="#faf5ff" stroke="#e9d5ff" stroke-width="1.8" rx="10"/><text x="675.5" y="267" class="node-title" text-anchor="middle">Replica 2</text><rect width="215" height="58" x="568" y="350" fill="#fff7ed" stroke="#fed7aa" stroke-width="1.8" rx="10"/><text x="675.5" y="379" class="node-title" text-anchor="middle">metrics / logs / traces</text><rect width="166" height="58" x="855" y="126" fill="#f0fdfa" stroke="#99f6e4" stroke-width="1.8" rx="10"/><text x="938" y="155" class="node-title" text-anchor="middle">Inference Engine</text><rect width="166" height="58" x="855" y="238" fill="#f8fafc" stroke="#cbd5e1" stroke-width="1.8" rx="10"/><text x="938" y="267" class="node-title" text-anchor="middle">Inference Engine</text><rect width="164" height="58" x="856" y="350" fill="#faf5ff" stroke="#e9d5ff" stroke-width="1.8" rx="10"/><text x="938" y="379" class="node-title" text-anchor="middle">autoscaler</text><rect width="164" height="58" x="1111.5" y="126" fill="#eff6ff" stroke="#bfdbfe" stroke-width="1.8" rx="10"/><text x="1193.5" y="155" class="node-title" text-anchor="middle">GPU / HBM</text><rect width="164" height="58" x="1111.5" y="238" fill="#f0fdf4" stroke="#bbf7d0" stroke-width="1.8" rx="10"/><text x="1193.5" y="267" class="node-title" text-anchor="middle">GPU / HBM</text><rect width="201" height="58" x="1093" y="350" fill="#f0fdfa" stroke="#99f6e4" stroke-width="1.8" rx="10"/><text x="1193.5" y="379" class="node-title" text-anchor="middle">serving control plane</text><rect width="173" height="58" x="1366" y="238" fill="#f8fafc" stroke="#cbd5e1" stroke-width="1.8" rx="10"/><text x="1452.5" y="267" class="node-title" text-anchor="middle">canary / rollback</text><text x="1355" y="584" class="footnote">Rendered with fireworks-tech-graph</text></svg>