<svg xmlns="http://www.w3.org/2000/svg" viewBox="0 0 960 1212" width="960" height="1212">
  <defs>
    <marker id="arrowA" markerWidth="10" markerHeight="7" refX="9" refY="3.5" orient="auto">
      <polygon points="0 0, 10 3.5, 0 7" fill="#7c3aed"/>
    </marker>
    <marker id="arrowB" markerWidth="10" markerHeight="7" refX="9" refY="3.5" orient="auto">
      <polygon points="0 0, 10 3.5, 0 7" fill="#10b981"/>
    </marker>
    <marker id="arrowC" markerWidth="10" markerHeight="7" refX="9" refY="3.5" orient="auto">
      <polygon points="0 0, 10 3.5, 0 7" fill="#2563eb"/>
    </marker>
    <marker id="arrowE" markerWidth="10" markerHeight="7" refX="9" refY="3.5" orient="auto">
      <polygon points="0 0, 10 3.5, 0 7" fill="#f97316"/>
    </marker>
    <marker id="arrowF" markerWidth="10" markerHeight="7" refX="9" refY="3.5" orient="auto">
      <polygon points="0 0, 10 3.5, 0 7" fill="#7c3aed"/>
    </marker>
    <marker id="arrowG" markerWidth="10" markerHeight="7" refX="9" refY="3.5" orient="auto">
      <polygon points="0 0, 10 3.5, 0 7" fill="#ef4444"/>
    </marker>
    <marker id="arrowH" markerWidth="10" markerHeight="7" refX="9" refY="3.5" orient="auto">
      <polygon points="0 0, 10 3.5, 0 7" fill="#6b7280"/>
    </marker>
    <filter id="shadowSoft" x="-20%" y="-20%" width="140%" height="160%">
      <feDropShadow dx="0" dy="3" stdDeviation="6" flood-color="#0f172a" flood-opacity="0.12"/>
    </filter>
    <filter id="shadowGlass" x="-20%" y="-20%" width="140%" height="160%">
      <feDropShadow dx="0" dy="10" stdDeviation="16" flood-color="#020617" flood-opacity="0.28"/>
    </filter>
    <style>
    text { font-family: 'Helvetica Neue', Helvetica, Arial, 'PingFang SC', 'Microsoft YaHei', 'Microsoft JhengHei', 'SimHei', sans-serif; }
    .title { font-size: 30px; font-weight: 700; fill: #111827; }
    .subtitle { font-size: 14px; font-weight: 500; fill: #6b7280; }
    .section { font-size: 13px; font-weight: 700; fill: #2563eb; letter-spacing: 1.4px; }
    .section-sub { font-size: 12px; font-weight: 500; fill: #94a3b8; }
    .node-title { font-size: 18px; font-weight: 700; fill: #111827; }
    .node-sub { font-size: 12px; font-weight: 500; fill: #6b7280; }
    .node-type { font-size: 12px; font-weight: 700; fill: #9ca3af; letter-spacing: 0.08em; }
    .arrow-label { font-size: 12px; font-weight: 600; fill: #6b7280; }
    .legend { font-size: 12px; font-weight: 500; fill: #6b7280; }
    .footnote { font-size: 12px; font-weight: 500; fill: #94a3b8; }
    </style>
  </defs>
  <rect width="960.0" height="1212.0" fill="#ffffff"/>
  <text x="480.0" y="56" text-anchor="middle" class="title">42.4.1 工程实现</text>
  <text x="480.0" y="82" text-anchor="middle" class="subtitle">part-10-economics-cases/chapter-42-business-models.md:410</text>
  <path d="M 480.0,224.0 L 480.0,296.0" fill="none" stroke="#7c3aed" stroke-width="2.4" marker-end="url(#arrowA)"/>
  <path d="M 480.0,366.0 L 480.0,438.0" fill="none" stroke="#7c3aed" stroke-width="2.4" marker-end="url(#arrowA)"/>
  <path d="M 480.0,508.0 L 480.0,580.0" fill="none" stroke="#7c3aed" stroke-width="2.4" marker-end="url(#arrowA)"/>
  <path d="M 480.0,650.0 L 480.0,722.0" fill="none" stroke="#7c3aed" stroke-width="2.4" marker-end="url(#arrowA)"/>
  <path d="M 480.0,792.0 L 480.0,812.4 L 349.5,843.6 L 349.5,864.0" fill="none" stroke="#7c3aed" stroke-width="2.4" marker-end="url(#arrowA)"/>
  <path d="M 349.5,934.0 L 349.5,954.4 L 480.0,985.6 L 480.0,1006.0" fill="none" stroke="#7c3aed" stroke-width="2.4" marker-end="url(#arrowA)"/>
  <path d="M 480.0,792.0 L 480.0,812.4 L 607.0,843.6 L 607.0,864.0" fill="none" stroke="#7c3aed" stroke-width="2.4" marker-end="url(#arrowA)"/>
  <path d="M 594.5,1041.0 L 614.9,1041.0 L 618.4,189.0 L 598.0,189.0" fill="none" stroke="#7c3aed" stroke-width="2.4" marker-end="url(#arrowA)"/>
  <rect x="362.0" y="154.0" width="236.0" height="70.0" rx="10.0" fill="#eff6ff" stroke="#bfdbfe" stroke-width="1.8"/>
  <text x="480.0" y="189.0" text-anchor="middle" class="node-title">private_delivery_lifecycle</text>
  <text x="480.0" y="211.0" text-anchor="middle" class="node-sub">contract</text>
  <rect x="337.5" y="296.0" width="285.0" height="70.0" rx="10.0" fill="#f0fdf4" stroke="#bbf7d0" stroke-width="1.8"/>
  <text x="480.0" y="331.0" text-anchor="middle" class="node-title">offline_release_bundle</text>
  <text x="480.0" y="353.0" text-anchor="middle" class="node-sub">manifest / what supplier supports</text>
  <rect x="376.0" y="438.0" width="208.0" height="70.0" rx="10.0" fill="#fff7ed" stroke="#fed7aa" stroke-width="1.8"/>
  <text x="480.0" y="473.0" text-anchor="middle" class="node-title">offline_import_record</text>
  <text x="480.0" y="495.0" text-anchor="middle" class="node-sub">what customer imported</text>
  <rect x="344.5" y="580.0" width="271.0" height="70.0" rx="10.0" fill="#faf5ff" stroke="#e9d5ff" stroke-width="1.8"/>
  <text x="480.0" y="615.0" text-anchor="middle" class="node-title">private_deployment</text>
  <text x="480.0" y="637.0" text-anchor="middle" class="node-sub">acceptance_record / what passed</text>
  <rect x="341.0" y="722.0" width="278.0" height="70.0" rx="10.0" fill="#f0fdfa" stroke="#99f6e4" stroke-width="1.8"/>
  <text x="480.0" y="757.0" text-anchor="middle" class="node-title">support_ticket</text>
  <text x="480.0" y="779.0" text-anchor="middle" class="node-sub">taxonomy + diagnostic_bundle_sla</text>
  <rect x="245.5" y="864.0" width="208.0" height="70.0" rx="10.0" fill="#f8fafc" stroke="#cbd5e1" stroke-width="1.8"/>
  <text x="349.5" y="899.0" text-anchor="middle" class="node-title">field_patch</text>
  <text x="349.5" y="921.0" text-anchor="middle" class="node-sub">governance / execution</text>
  <rect x="499.5" y="864.0" width="215.0" height="70.0" rx="10.0" fill="#f0fdf4" stroke="#bbf7d0" stroke-width="1.8"/>
  <text x="607.0" y="899.0" text-anchor="middle" class="node-title">commercial_pnl_ledger</text>
  <text x="607.0" y="921.0" text-anchor="middle" class="node-sub">support + delivery cost</text>
  <rect x="365.5" y="1006.0" width="229.0" height="70.0" rx="10.0" fill="#eff6ff" stroke="#bfdbfe" stroke-width="1.8"/>
  <text x="480.0" y="1041.0" text-anchor="middle" class="node-title">merge back / LTS backport</text>
  <text x="480.0" y="1063.0" text-anchor="middle" class="node-sub">EOL</text>
  <text x="680.0" y="1196.0" class="footnote">Rendered with fireworks-tech-graph</text>
</svg>