<svg xmlns="http://www.w3.org/2000/svg" viewBox="0 0 1433 880" width="1433" height="880">
  <defs>
    <marker id="arrowA" markerWidth="10" markerHeight="7" refX="9" refY="3.5" orient="auto">
      <polygon points="0 0, 10 3.5, 0 7" fill="#7c3aed"/>
    </marker>
    <marker id="arrowB" markerWidth="10" markerHeight="7" refX="9" refY="3.5" orient="auto">
      <polygon points="0 0, 10 3.5, 0 7" fill="#10b981"/>
    </marker>
    <marker id="arrowC" markerWidth="10" markerHeight="7" refX="9" refY="3.5" orient="auto">
      <polygon points="0 0, 10 3.5, 0 7" fill="#2563eb"/>
    </marker>
    <marker id="arrowE" markerWidth="10" markerHeight="7" refX="9" refY="3.5" orient="auto">
      <polygon points="0 0, 10 3.5, 0 7" fill="#f97316"/>
    </marker>
    <marker id="arrowF" markerWidth="10" markerHeight="7" refX="9" refY="3.5" orient="auto">
      <polygon points="0 0, 10 3.5, 0 7" fill="#7c3aed"/>
    </marker>
    <marker id="arrowG" markerWidth="10" markerHeight="7" refX="9" refY="3.5" orient="auto">
      <polygon points="0 0, 10 3.5, 0 7" fill="#ef4444"/>
    </marker>
    <marker id="arrowH" markerWidth="10" markerHeight="7" refX="9" refY="3.5" orient="auto">
      <polygon points="0 0, 10 3.5, 0 7" fill="#6b7280"/>
    </marker>
    <filter id="shadowSoft" x="-20%" y="-20%" width="140%" height="160%">
      <feDropShadow dx="0" dy="3" stdDeviation="6" flood-color="#0f172a" flood-opacity="0.12"/>
    </filter>
    <filter id="shadowGlass" x="-20%" y="-20%" width="140%" height="160%">
      <feDropShadow dx="0" dy="10" stdDeviation="16" flood-color="#020617" flood-opacity="0.28"/>
    </filter>
    <style>
    text { font-family: 'Helvetica Neue', Helvetica, Arial, 'PingFang SC', 'Microsoft YaHei', 'Microsoft JhengHei', 'SimHei', sans-serif; }
    .title { font-size: 30px; font-weight: 700; fill: #111827; }
    .subtitle { font-size: 14px; font-weight: 500; fill: #6b7280; }
    .section { font-size: 13px; font-weight: 700; fill: #2563eb; letter-spacing: 1.4px; }
    .section-sub { font-size: 12px; font-weight: 500; fill: #94a3b8; }
    .node-title { font-size: 18px; font-weight: 700; fill: #111827; }
    .node-sub { font-size: 12px; font-weight: 500; fill: #6b7280; }
    .node-type { font-size: 12px; font-weight: 700; fill: #9ca3af; letter-spacing: 0.08em; }
    .arrow-label { font-size: 12px; font-weight: 600; fill: #6b7280; }
    .legend { font-size: 12px; font-weight: 500; fill: #6b7280; }
    .footnote { font-size: 12px; font-weight: 500; fill: #94a3b8; }
    </style>
  </defs>
  <rect width="1433.0" height="880.0" fill="#ffffff"/>
  <text x="716.5" y="56" text-anchor="middle" class="title">27.2.2 系统架构</text>
  <text x="716.5" y="82" text-anchor="middle" class="subtitle">part-06-gpu-iaas/chapter-27-gpu-virtualization-isolation.md:76</text>
  <path d="M 716.5,212.0 L 716.5,284.0" fill="none" stroke="#7c3aed" stroke-width="2.4" marker-end="url(#arrowA)"/>
  <path d="M 716.5,342.0 L 716.5,362.4 L 157.0,399.6 L 157.0,420.0" fill="none" stroke="#7c3aed" stroke-width="2.4" marker-end="url(#arrowA)"/>
  <path d="M 716.5,342.0 L 716.5,362.4 L 400.5,399.6 L 400.5,420.0" fill="none" stroke="#7c3aed" stroke-width="2.4" marker-end="url(#arrowA)"/>
  <path d="M 716.5,342.0 L 716.5,362.4 L 629.0,399.6 L 629.0,420.0" fill="none" stroke="#7c3aed" stroke-width="2.4" marker-end="url(#arrowA)"/>
  <path d="M 716.5,342.0 L 716.5,362.4 L 839.0,399.6 L 839.0,420.0" fill="none" stroke="#7c3aed" stroke-width="2.4" marker-end="url(#arrowA)"/>
  <path d="M 716.5,342.0 L 716.5,362.4 L 1060.5,393.6 L 1060.5,414.0" fill="none" stroke="#7c3aed" stroke-width="2.4" marker-end="url(#arrowA)"/>
  <path d="M 716.5,342.0 L 716.5,362.4 L 1286.5,399.6 L 1286.5,420.0" fill="none" stroke="#7c3aed" stroke-width="2.4" marker-end="url(#arrowA)"/>
  <path d="M 157.0,478.0 L 157.0,498.4 L 716.5,535.6 L 716.5,556.0" fill="none" stroke="#7c3aed" stroke-width="2.4" marker-end="url(#arrowA)"/>
  <path d="M 400.5,478.0 L 400.5,498.4 L 716.5,535.6 L 716.5,556.0" fill="none" stroke="#7c3aed" stroke-width="2.4" marker-end="url(#arrowA)"/>
  <path d="M 629.0,478.0 L 629.0,498.4 L 716.5,535.6 L 716.5,556.0" fill="none" stroke="#7c3aed" stroke-width="2.4" marker-end="url(#arrowA)"/>
  <path d="M 839.0,478.0 L 839.0,498.4 L 716.5,535.6 L 716.5,556.0" fill="none" stroke="#7c3aed" stroke-width="2.4" marker-end="url(#arrowA)"/>
  <path d="M 1060.5,484.0 L 1060.5,504.4 L 716.5,535.6 L 716.5,556.0" fill="none" stroke="#7c3aed" stroke-width="2.4" marker-end="url(#arrowA)"/>
  <path d="M 1286.5,478.0 L 1286.5,498.4 L 716.5,535.6 L 716.5,556.0" fill="none" stroke="#7c3aed" stroke-width="2.4" marker-end="url(#arrowA)"/>
  <path d="M 716.5,614.0 L 716.5,686.0" fill="none" stroke="#7c3aed" stroke-width="2.4" marker-end="url(#arrowA)"/>
  <rect x="634.5" y="154.0" width="164.0" height="58.0" rx="10.0" fill="#eff6ff" stroke="#bfdbfe" stroke-width="1.8"/>
  <text x="716.5" y="183.0" text-anchor="middle" class="node-title">租户 / workload</text>
  <rect x="626.5" y="284.0" width="180.0" height="58.0" rx="10.0" fill="#f0fdf4" stroke="#bbf7d0" stroke-width="1.8"/>
  <text x="716.5" y="313.0" text-anchor="middle" class="node-title">GPU resource class</text>
  <rect x="60.0" y="420.0" width="194.0" height="58.0" rx="10.0" fill="#fff7ed" stroke="#fed7aa" stroke-width="1.8"/>
  <text x="157.0" y="449.0" text-anchor="middle" class="node-title">bare metal dedicated</text>
  <rect x="300.0" y="420.0" width="201.0" height="58.0" rx="10.0" fill="#faf5ff" stroke="#e9d5ff" stroke-width="1.8"/>
  <text x="400.5" y="449.0" text-anchor="middle" class="node-title">VM + PCIe passthrough</text>
  <rect x="547.0" y="420.0" width="164.0" height="58.0" rx="10.0" fill="#f0fdfa" stroke="#99f6e4" stroke-width="1.8"/>
  <text x="629.0" y="449.0" text-anchor="middle" class="node-title">MIG instance</text>
  <rect x="757.0" y="420.0" width="164.0" height="58.0" rx="10.0" fill="#f8fafc" stroke="#cbd5e1" stroke-width="1.8"/>
  <text x="839.0" y="449.0" text-anchor="middle" class="node-title">vGPU profile</text>
  <rect x="967.0" y="414.0" width="187.0" height="70.0" rx="10.0" fill="#eff6ff" stroke="#bfdbfe" stroke-width="1.8"/>
  <text x="1060.5" y="449.0" text-anchor="middle" class="node-title">container full-card</text>
  <text x="1060.5" y="471.0" text-anchor="middle" class="node-sub">shared</text>
  <rect x="1200.0" y="420.0" width="173.0" height="58.0" rx="10.0" fill="#f0fdf4" stroke="#bbf7d0" stroke-width="1.8"/>
  <text x="1286.5" y="449.0" text-anchor="middle" class="node-title">remote GPU access</text>
  <rect x="634.5" y="556.0" width="164.0" height="58.0" rx="10.0" fill="#fff7ed" stroke="#fed7aa" stroke-width="1.8"/>
  <text x="716.5" y="585.0" text-anchor="middle" class="node-title">SLA / 安全 / 计费</text>
  <rect x="634.5" y="686.0" width="164.0" height="58.0" rx="10.0" fill="#faf5ff" stroke="#e9d5ff" stroke-width="1.8"/>
  <text x="716.5" y="715.0" text-anchor="middle" class="node-title">监控 / 审计 / 成本</text>
  <text x="1153.0" y="864.0" class="footnote">Rendered with fireworks-tech-graph</text>
</svg>