<svg xmlns="http://www.w3.org/2000/svg" viewBox="0 0 1696 916" width="1696" height="916">
  <defs>
    <marker id="arrowA" markerWidth="10" markerHeight="7" refX="9" refY="3.5" orient="auto">
      <polygon points="0 0, 10 3.5, 0 7" fill="#7c3aed"/>
    </marker>
    <marker id="arrowB" markerWidth="10" markerHeight="7" refX="9" refY="3.5" orient="auto">
      <polygon points="0 0, 10 3.5, 0 7" fill="#10b981"/>
    </marker>
    <marker id="arrowC" markerWidth="10" markerHeight="7" refX="9" refY="3.5" orient="auto">
      <polygon points="0 0, 10 3.5, 0 7" fill="#2563eb"/>
    </marker>
    <marker id="arrowE" markerWidth="10" markerHeight="7" refX="9" refY="3.5" orient="auto">
      <polygon points="0 0, 10 3.5, 0 7" fill="#f97316"/>
    </marker>
    <marker id="arrowF" markerWidth="10" markerHeight="7" refX="9" refY="3.5" orient="auto">
      <polygon points="0 0, 10 3.5, 0 7" fill="#7c3aed"/>
    </marker>
    <marker id="arrowG" markerWidth="10" markerHeight="7" refX="9" refY="3.5" orient="auto">
      <polygon points="0 0, 10 3.5, 0 7" fill="#ef4444"/>
    </marker>
    <marker id="arrowH" markerWidth="10" markerHeight="7" refX="9" refY="3.5" orient="auto">
      <polygon points="0 0, 10 3.5, 0 7" fill="#6b7280"/>
    </marker>
    <filter id="shadowSoft" x="-20%" y="-20%" width="140%" height="160%">
      <feDropShadow dx="0" dy="3" stdDeviation="6" flood-color="#0f172a" flood-opacity="0.12"/>
    </filter>
    <filter id="shadowGlass" x="-20%" y="-20%" width="140%" height="160%">
      <feDropShadow dx="0" dy="10" stdDeviation="16" flood-color="#020617" flood-opacity="0.28"/>
    </filter>
    <style>
    text { font-family: 'Helvetica Neue', Helvetica, Arial, 'PingFang SC', 'Microsoft YaHei', 'Microsoft JhengHei', 'SimHei', sans-serif; }
    .title { font-size: 30px; font-weight: 700; fill: #111827; }
    .subtitle { font-size: 14px; font-weight: 500; fill: #6b7280; }
    .section { font-size: 13px; font-weight: 700; fill: #2563eb; letter-spacing: 1.4px; }
    .section-sub { font-size: 12px; font-weight: 500; fill: #94a3b8; }
    .node-title { font-size: 18px; font-weight: 700; fill: #111827; }
    .node-sub { font-size: 12px; font-weight: 500; fill: #6b7280; }
    .node-type { font-size: 12px; font-weight: 700; fill: #9ca3af; letter-spacing: 0.08em; }
    .arrow-label { font-size: 12px; font-weight: 600; fill: #6b7280; }
    .legend { font-size: 12px; font-weight: 500; fill: #6b7280; }
    .footnote { font-size: 12px; font-weight: 500; fill: #94a3b8; }
    </style>
  </defs>
  <rect width="1696.0" height="916.0" fill="#ffffff"/>
  <text x="848.0" y="56" text-anchor="middle" class="title">35.4.1 工程实现</text>
  <text x="848.0" y="82" text-anchor="middle" class="subtitle">part-08-physical-infrastructure/chapter-35-gpu-architecture.md:445</text>
  <path d="M 185.0,224.0 L 185.0,244.4 L 848.0,275.6 L 848.0,296.0" fill="none" stroke="#7c3aed" stroke-width="2.4" marker-end="url(#arrowA)"/>
  <path d="M 467.0,218.0 L 467.0,238.4 L 848.0,275.6 L 848.0,296.0" fill="none" stroke="#7c3aed" stroke-width="2.4" marker-end="url(#arrowA)"/>
  <path d="M 735.0,224.0 L 735.0,244.4 L 848.0,275.6 L 848.0,296.0" fill="none" stroke="#7c3aed" stroke-width="2.4" marker-end="url(#arrowA)"/>
  <path d="M 848.0,354.0 L 848.0,426.0" fill="none" stroke="#7c3aed" stroke-width="2.4" marker-end="url(#arrowA)"/>
  <path d="M 1006.5,218.0 L 1006.5,238.4 L 848.0,405.6 L 848.0,426.0" fill="none" stroke="#7c3aed" stroke-width="2.4" marker-end="url(#arrowA)"/>
  <path d="M 1274.5,218.0 L 1274.5,238.4 L 848.0,405.6 L 848.0,426.0" fill="none" stroke="#7c3aed" stroke-width="2.4" marker-end="url(#arrowA)"/>
  <path d="M 1532.0,224.0 L 1532.0,244.4 L 848.0,405.6 L 848.0,426.0" fill="none" stroke="#7c3aed" stroke-width="2.4" marker-end="url(#arrowA)"/>
  <path d="M 848.0,496.0 L 848.0,568.0" fill="none" stroke="#7c3aed" stroke-width="2.4" marker-end="url(#arrowA)"/>
  <path d="M 848.0,638.0 L 848.0,710.0" fill="none" stroke="#7c3aed" stroke-width="2.4" marker-end="url(#arrowA)"/>
  <path d="M 747.5,745.0 L 531.35,745.0 L 531.35,189.0 L 356.0,189.0" fill="none" stroke="#7c3aed" stroke-width="2.4" marker-end="url(#arrowA)"/>
  <rect x="60.0" y="154.0" width="250.0" height="70.0" rx="10.0" fill="#eff6ff" stroke="#bfdbfe" stroke-width="1.8"/>
  <text x="185.0" y="189.0" text-anchor="middle" class="node-title">model artifact</text>
  <text x="185.0" y="211.0" text-anchor="middle" class="node-sub">precision / context / engine</text>
  <rect x="356.0" y="160.0" width="222.0" height="58.0" rx="10.0" fill="#fff7ed" stroke="#fed7aa" stroke-width="1.8"/>
  <text x="467.0" y="189.0" text-anchor="middle" class="node-title">gpu_capability_scorecard</text>
  <rect x="624.0" y="154.0" width="222.0" height="70.0" rx="10.0" fill="#faf5ff" stroke="#e9d5ff" stroke-width="1.8"/>
  <text x="735.0" y="189.0" text-anchor="middle" class="node-title">gpu_generation_readiness</text>
  <text x="735.0" y="211.0" text-anchor="middle" class="node-sub">gate</text>
  <rect x="892.0" y="160.0" width="229.0" height="58.0" rx="10.0" fill="#f8fafc" stroke="#cbd5e1" stroke-width="1.8"/>
  <text x="1006.5" y="189.0" text-anchor="middle" class="node-title">resource_pool_entitlement</text>
  <rect x="1167.0" y="160.0" width="215.0" height="58.0" rx="10.0" fill="#eff6ff" stroke="#bfdbfe" stroke-width="1.8"/>
  <text x="1274.5" y="189.0" text-anchor="middle" class="node-title">engine_admission_health</text>
  <rect x="1428.0" y="154.0" width="208.0" height="70.0" rx="10.0" fill="#f0fdf4" stroke="#bbf7d0" stroke-width="1.8"/>
  <text x="1532.0" y="189.0" text-anchor="middle" class="node-title">heterogeneous_gpu_cost</text>
  <text x="1532.0" y="211.0" text-anchor="middle" class="node-sub">scorecard</text>
  <rect x="733.5" y="296.0" width="229.0" height="58.0" rx="10.0" fill="#f0fdf4" stroke="#bbf7d0" stroke-width="1.8"/>
  <text x="848.0" y="325.0" text-anchor="middle" class="node-title">model_hardware_fit_record</text>
  <rect x="751.0" y="426.0" width="194.0" height="70.0" rx="10.0" fill="#f0fdfa" stroke="#99f6e4" stroke-width="1.8"/>
  <text x="848.0" y="461.0" text-anchor="middle" class="node-title">gpu_generation_route</text>
  <text x="848.0" y="483.0" text-anchor="middle" class="node-sub">decision</text>
  <rect x="758.0" y="568.0" width="180.0" height="70.0" rx="10.0" fill="#fff7ed" stroke="#fed7aa" stroke-width="1.8"/>
  <text x="848.0" y="603.0" text-anchor="middle" class="node-title">endpoint placement</text>
  <text x="848.0" y="625.0" text-anchor="middle" class="node-sub">request route</text>
  <rect x="747.5" y="710.0" width="201.0" height="70.0" rx="10.0" fill="#faf5ff" stroke="#e9d5ff" stroke-width="1.8"/>
  <text x="848.0" y="745.0" text-anchor="middle" class="node-title">TTFT / TPOT / quality</text>
  <text x="848.0" y="767.0" text-anchor="middle" class="node-sub">tokens/W / cost</text>
  <text x="1416.0" y="900.0" class="footnote">Rendered with fireworks-tech-graph</text>
</svg>