<svg xmlns="http://www.w3.org/2000/svg" viewBox="0 0 1425 698" width="1425" height="698">
  <defs>
    <marker id="arrowA" markerWidth="10" markerHeight="7" refX="9" refY="3.5" orient="auto">
      <polygon points="0 0, 10 3.5, 0 7" fill="#7c3aed"/>
    </marker>
    <marker id="arrowB" markerWidth="10" markerHeight="7" refX="9" refY="3.5" orient="auto">
      <polygon points="0 0, 10 3.5, 0 7" fill="#10b981"/>
    </marker>
    <marker id="arrowC" markerWidth="10" markerHeight="7" refX="9" refY="3.5" orient="auto">
      <polygon points="0 0, 10 3.5, 0 7" fill="#2563eb"/>
    </marker>
    <marker id="arrowE" markerWidth="10" markerHeight="7" refX="9" refY="3.5" orient="auto">
      <polygon points="0 0, 10 3.5, 0 7" fill="#f97316"/>
    </marker>
    <marker id="arrowF" markerWidth="10" markerHeight="7" refX="9" refY="3.5" orient="auto">
      <polygon points="0 0, 10 3.5, 0 7" fill="#7c3aed"/>
    </marker>
    <marker id="arrowG" markerWidth="10" markerHeight="7" refX="9" refY="3.5" orient="auto">
      <polygon points="0 0, 10 3.5, 0 7" fill="#ef4444"/>
    </marker>
    <marker id="arrowH" markerWidth="10" markerHeight="7" refX="9" refY="3.5" orient="auto">
      <polygon points="0 0, 10 3.5, 0 7" fill="#6b7280"/>
    </marker>
    <filter id="shadowSoft" x="-20%" y="-20%" width="140%" height="160%">
      <feDropShadow dx="0" dy="3" stdDeviation="6" flood-color="#0f172a" flood-opacity="0.12"/>
    </filter>
    <filter id="shadowGlass" x="-20%" y="-20%" width="140%" height="160%">
      <feDropShadow dx="0" dy="10" stdDeviation="16" flood-color="#020617" flood-opacity="0.28"/>
    </filter>
    <style>
    text { font-family: 'Helvetica Neue', Helvetica, Arial, 'PingFang SC', 'Microsoft YaHei', 'Microsoft JhengHei', 'SimHei', sans-serif; }
    .title { font-size: 30px; font-weight: 700; fill: #111827; }
    .subtitle { font-size: 14px; font-weight: 500; fill: #6b7280; }
    .section { font-size: 13px; font-weight: 700; fill: #2563eb; letter-spacing: 1.4px; }
    .section-sub { font-size: 12px; font-weight: 500; fill: #94a3b8; }
    .node-title { font-size: 18px; font-weight: 700; fill: #111827; }
    .node-sub { font-size: 12px; font-weight: 500; fill: #6b7280; }
    .node-type { font-size: 12px; font-weight: 700; fill: #9ca3af; letter-spacing: 0.08em; }
    .arrow-label { font-size: 12px; font-weight: 600; fill: #6b7280; }
    .legend { font-size: 12px; font-weight: 500; fill: #6b7280; }
    .footnote { font-size: 12px; font-weight: 500; fill: #94a3b8; }
    </style>
  </defs>
  <rect width="1425.0" height="698.0" fill="#ffffff"/>
  <text x="712.5" y="56" text-anchor="middle" class="title">15.4.1 工程实现</text>
  <text x="712.5" y="82" text-anchor="middle" class="subtitle">part-04-runtime/chapter-15-inference-engines.md:512</text>
  <path d="M 290.0,323.0 L 310.4,323.0 L 366.1,155.0 L 386.5,155.0" fill="none" stroke="#7c3aed" stroke-width="2.4" marker-end="url(#arrowA)"/>
  <path d="M 290.0,323.0 L 310.4,323.0 L 341.6,267.0 L 362.0,267.0" fill="none" stroke="#7c3aed" stroke-width="2.4" marker-end="url(#arrowA)"/>
  <path d="M 290.0,323.0 L 310.4,323.0 L 355.6,379.0 L 376.0,379.0" fill="none" stroke="#7c3aed" stroke-width="2.4" marker-end="url(#arrowA)"/>
  <path d="M 290.0,323.0 L 310.4,323.0 L 345.1,491.0 L 365.5,491.0" fill="none" stroke="#7c3aed" stroke-width="2.4" marker-end="url(#arrowA)"/>
  <path d="M 566.5,155.0 L 586.9,155.0 L 642.6,323.0 L 663.0,323.0" fill="none" stroke="#7c3aed" stroke-width="2.4" marker-end="url(#arrowA)"/>
  <path d="M 591.0,267.0 L 611.4,267.0 L 642.6,323.0 L 663.0,323.0" fill="none" stroke="#7c3aed" stroke-width="2.4" marker-end="url(#arrowA)"/>
  <path d="M 577.0,379.0 L 597.4,379.0 L 642.6,323.0 L 663.0,323.0" fill="none" stroke="#7c3aed" stroke-width="2.4" marker-end="url(#arrowA)"/>
  <path d="M 587.5,491.0 L 607.9,491.0 L 642.6,323.0 L 663.0,323.0" fill="none" stroke="#7c3aed" stroke-width="2.4" marker-end="url(#arrowA)"/>
  <path d="M 857.0,323.0 L 929.0,323.0" fill="none" stroke="#7c3aed" stroke-width="2.4" marker-end="url(#arrowA)"/>
  <path d="M 1093.0,323.0 L 1113.4,323.0 L 1144.6,329.0 L 1165.0,329.0" fill="none" stroke="#7c3aed" stroke-width="2.4" marker-end="url(#arrowA)"/>
  <rect x="96.0" y="294.0" width="194.0" height="58.0" rx="10.0" fill="#eff6ff" stroke="#bfdbfe" stroke-width="1.8"/>
  <text x="193.0" y="323.0" text-anchor="middle" class="node-title">engine/config change</text>
  <rect x="386.5" y="126.0" width="180.0" height="58.0" rx="10.0" fill="#f0fdf4" stroke="#bbf7d0" stroke-width="1.8"/>
  <text x="476.5" y="155.0" text-anchor="middle" class="node-title">quality regression</text>
  <rect x="362.0" y="238.0" width="229.0" height="58.0" rx="10.0" fill="#fff7ed" stroke="#fed7aa" stroke-width="1.8"/>
  <text x="476.5" y="267.0" text-anchor="middle" class="node-title">serving protocol contract</text>
  <rect x="376.0" y="350.0" width="201.0" height="58.0" rx="10.0" fill="#faf5ff" stroke="#e9d5ff" stroke-width="1.8"/>
  <text x="476.5" y="379.0" text-anchor="middle" class="node-title">performance benchmark</text>
  <rect x="365.5" y="462.0" width="222.0" height="58.0" rx="10.0" fill="#f0fdfa" stroke="#99f6e4" stroke-width="1.8"/>
  <text x="476.5" y="491.0" text-anchor="middle" class="node-title">cost per successful task</text>
  <rect x="663.0" y="294.0" width="194.0" height="58.0" rx="10.0" fill="#f8fafc" stroke="#cbd5e1" stroke-width="1.8"/>
  <text x="760.0" y="323.0" text-anchor="middle" class="node-title">runtime_quality_gate</text>
  <rect x="929.0" y="294.0" width="164.0" height="58.0" rx="10.0" fill="#eff6ff" stroke="#bfdbfe" stroke-width="1.8"/>
  <text x="1011.0" y="323.0" text-anchor="middle" class="node-title">engine canary</text>
  <rect x="1165.0" y="294.0" width="164.0" height="70.0" rx="10.0" fill="#f0fdf4" stroke="#bbf7d0" stroke-width="1.8"/>
  <text x="1247.0" y="329.0" text-anchor="middle" class="node-title">serving_quality</text>
  <text x="1247.0" y="351.0" text-anchor="middle" class="node-sub">contract update</text>
  <text x="1145.0" y="682.0" class="footnote">Rendered with fireworks-tech-graph</text>
</svg>