<svg xmlns="http://www.w3.org/2000/svg" viewBox="0 0 960 1530" width="960" height="1530">
  <defs>
    <marker id="arrowA" markerWidth="10" markerHeight="7" refX="9" refY="3.5" orient="auto">
      <polygon points="0 0, 10 3.5, 0 7" fill="#7c3aed"/>
    </marker>
    <marker id="arrowB" markerWidth="10" markerHeight="7" refX="9" refY="3.5" orient="auto">
      <polygon points="0 0, 10 3.5, 0 7" fill="#10b981"/>
    </marker>
    <marker id="arrowC" markerWidth="10" markerHeight="7" refX="9" refY="3.5" orient="auto">
      <polygon points="0 0, 10 3.5, 0 7" fill="#2563eb"/>
    </marker>
    <marker id="arrowE" markerWidth="10" markerHeight="7" refX="9" refY="3.5" orient="auto">
      <polygon points="0 0, 10 3.5, 0 7" fill="#f97316"/>
    </marker>
    <marker id="arrowF" markerWidth="10" markerHeight="7" refX="9" refY="3.5" orient="auto">
      <polygon points="0 0, 10 3.5, 0 7" fill="#7c3aed"/>
    </marker>
    <marker id="arrowG" markerWidth="10" markerHeight="7" refX="9" refY="3.5" orient="auto">
      <polygon points="0 0, 10 3.5, 0 7" fill="#ef4444"/>
    </marker>
    <marker id="arrowH" markerWidth="10" markerHeight="7" refX="9" refY="3.5" orient="auto">
      <polygon points="0 0, 10 3.5, 0 7" fill="#6b7280"/>
    </marker>
    <filter id="shadowSoft" x="-20%" y="-20%" width="140%" height="160%">
      <feDropShadow dx="0" dy="3" stdDeviation="6" flood-color="#0f172a" flood-opacity="0.12"/>
    </filter>
    <filter id="shadowGlass" x="-20%" y="-20%" width="140%" height="160%">
      <feDropShadow dx="0" dy="10" stdDeviation="16" flood-color="#020617" flood-opacity="0.28"/>
    </filter>
    <style>
    text { font-family: 'Helvetica Neue', Helvetica, Arial, 'PingFang SC', 'Microsoft YaHei', 'Microsoft JhengHei', 'SimHei', sans-serif; }
    .title { font-size: 30px; font-weight: 700; fill: #111827; }
    .subtitle { font-size: 14px; font-weight: 500; fill: #6b7280; }
    .section { font-size: 13px; font-weight: 700; fill: #2563eb; letter-spacing: 1.4px; }
    .section-sub { font-size: 12px; font-weight: 500; fill: #94a3b8; }
    .node-title { font-size: 18px; font-weight: 700; fill: #111827; }
    .node-sub { font-size: 12px; font-weight: 500; fill: #6b7280; }
    .node-type { font-size: 12px; font-weight: 700; fill: #9ca3af; letter-spacing: 0.08em; }
    .arrow-label { font-size: 12px; font-weight: 600; fill: #6b7280; }
    .legend { font-size: 12px; font-weight: 500; fill: #6b7280; }
    .footnote { font-size: 12px; font-weight: 500; fill: #94a3b8; }
    </style>
  </defs>
  <rect width="960.0" height="1530.0" fill="#ffffff"/>
  <text x="480.0" y="56" text-anchor="middle" class="title">44.2.2 系统架构</text>
  <text x="480.0" y="82" text-anchor="middle" class="subtitle">part-10-economics-cases/chapter-44-building-ai-factory.md:70</text>
  <path d="M 480.0,212.0 L 480.0,232.4 L 375.0,263.6 L 375.0,284.0" fill="none" stroke="#7c3aed" stroke-width="2.4" marker-end="url(#arrowA)"/>
  <path d="M 480.0,212.0 L 480.0,232.4 L 585.0,263.6 L 585.0,284.0" fill="none" stroke="#7c3aed" stroke-width="2.4" marker-end="url(#arrowA)"/>
  <path d="M 375.0,342.0 L 375.0,362.4 L 346.0,393.6 L 346.0,414.0" fill="none" stroke="#7c3aed" stroke-width="2.4" marker-end="url(#arrowA)"/>
  <path d="M 585.0,342.0 L 585.0,414.0" fill="none" stroke="#7c3aed" stroke-width="2.4" marker-end="url(#arrowA)"/>
  <path d="M 346.0,472.0 L 346.0,492.4 L 265.5,523.6 L 265.5,544.0" fill="none" stroke="#7c3aed" stroke-width="2.4" marker-end="url(#arrowA)"/>
  <path d="M 346.0,472.0 L 346.0,492.4 L 475.5,523.6 L 475.5,544.0" fill="none" stroke="#7c3aed" stroke-width="2.4" marker-end="url(#arrowA)"/>
  <path d="M 346.0,472.0 L 346.0,492.4 L 690.0,523.6 L 690.0,544.0" fill="none" stroke="#7c3aed" stroke-width="2.4" marker-end="url(#arrowA)"/>
  <path d="M 265.5,602.0 L 265.5,622.4 L 480.0,653.6 L 480.0,674.0" fill="none" stroke="#7c3aed" stroke-width="2.4" marker-end="url(#arrowA)"/>
  <path d="M 475.5,602.0 L 475.5,622.4 L 480.0,653.6 L 480.0,674.0" fill="none" stroke="#7c3aed" stroke-width="2.4" marker-end="url(#arrowA)"/>
  <path d="M 690.0,602.0 L 690.0,622.4 L 480.0,653.6 L 480.0,674.0" fill="none" stroke="#7c3aed" stroke-width="2.4" marker-end="url(#arrowA)"/>
  <path d="M 480.0,744.0 L 480.0,816.0" fill="none" stroke="#7c3aed" stroke-width="2.4" marker-end="url(#arrowA)"/>
  <path d="M 480.0,874.0 L 480.0,946.0" fill="none" stroke="#7c3aed" stroke-width="2.4" marker-end="url(#arrowA)"/>
  <path d="M 480.0,1004.0 L 480.0,1076.0" fill="none" stroke="#7c3aed" stroke-width="2.4" marker-end="url(#arrowA)"/>
  <path d="M 480.0,1134.0 L 480.0,1206.0" fill="none" stroke="#7c3aed" stroke-width="2.4" marker-end="url(#arrowA)"/>
  <path d="M 480.0,1264.0 L 480.0,1336.0" fill="none" stroke="#7c3aed" stroke-width="2.4" marker-end="url(#arrowA)"/>
  <rect x="398.0" y="154.0" width="164.0" height="58.0" rx="10.0" fill="#eff6ff" stroke="#bfdbfe" stroke-width="1.8"/>
  <text x="480.0" y="183.0" text-anchor="middle" class="node-title">业务需求 / 应用清单</text>
  <rect x="293.0" y="284.0" width="164.0" height="58.0" rx="10.0" fill="#f0fdf4" stroke="#bbf7d0" stroke-width="1.8"/>
  <text x="375.0" y="313.0" text-anchor="middle" class="node-title">模型路径 / 评测目标</text>
  <rect x="503.0" y="284.0" width="164.0" height="58.0" rx="10.0" fill="#fff7ed" stroke="#fed7aa" stroke-width="1.8"/>
  <text x="585.0" y="313.0" text-anchor="middle" class="node-title">SLO / 安全 / 合规</text>
  <rect x="264.0" y="414.0" width="164.0" height="58.0" rx="10.0" fill="#faf5ff" stroke="#e9d5ff" stroke-width="1.8"/>
  <text x="346.0" y="443.0" text-anchor="middle" class="node-title">容量规划 / 成本模型</text>
  <rect x="474.0" y="414.0" width="222.0" height="58.0" rx="10.0" fill="#f0fdfa" stroke="#99f6e4" stroke-width="1.8"/>
  <text x="585.0" y="443.0" text-anchor="middle" class="node-title">MaaS / Gateway / 租户 / 计量</text>
  <rect x="183.5" y="544.0" width="164.0" height="58.0" rx="10.0" fill="#f8fafc" stroke="#cbd5e1" stroke-width="1.8"/>
  <text x="265.5" y="573.0" text-anchor="middle" class="node-title">GPU / 服务器 / 资源池</text>
  <rect x="393.5" y="544.0" width="164.0" height="58.0" rx="10.0" fill="#eff6ff" stroke="#bfdbfe" stroke-width="1.8"/>
  <text x="475.5" y="573.0" text-anchor="middle" class="node-title">网络 / RDMA / 拓扑</text>
  <rect x="603.5" y="544.0" width="173.0" height="58.0" rx="10.0" fill="#f0fdf4" stroke="#bbf7d0" stroke-width="1.8"/>
  <text x="690.0" y="573.0" text-anchor="middle" class="node-title">对象存储 / PFS / NVMe</text>
  <rect x="362.0" y="674.0" width="236.0" height="70.0" rx="10.0" fill="#fff7ed" stroke="#fed7aa" stroke-width="1.8"/>
  <text x="480.0" y="709.0" text-anchor="middle" class="node-title">Kubernetes / Slurm / Queue</text>
  <text x="480.0" y="731.0" text-anchor="middle" class="node-sub">Quota</text>
  <rect x="398.0" y="816.0" width="164.0" height="58.0" rx="10.0" fill="#faf5ff" stroke="#e9d5ff" stroke-width="1.8"/>
  <text x="480.0" y="845.0" text-anchor="middle" class="node-title">推理引擎 / 训练框架</text>
  <rect x="398.0" y="946.0" width="164.0" height="58.0" rx="10.0" fill="#f0fdfa" stroke="#99f6e4" stroke-width="1.8"/>
  <text x="480.0" y="975.0" text-anchor="middle" class="node-title">模型服务 / 训练任务</text>
  <rect x="398.0" y="1076.0" width="164.0" height="58.0" rx="10.0" fill="#f8fafc" stroke="#cbd5e1" stroke-width="1.8"/>
  <text x="480.0" y="1105.0" text-anchor="middle" class="node-title">观测 / SRE / 成本</text>
  <rect x="398.0" y="1206.0" width="164.0" height="58.0" rx="10.0" fill="#eff6ff" stroke="#bfdbfe" stroke-width="1.8"/>
  <text x="480.0" y="1235.0" text-anchor="middle" class="node-title">准入 / 验收 / 基线</text>
  <rect x="398.0" y="1336.0" width="164.0" height="58.0" rx="10.0" fill="#f0fdf4" stroke="#bbf7d0" stroke-width="1.8"/>
  <text x="480.0" y="1365.0" text-anchor="middle" class="node-title">分阶段上线</text>
  <text x="680.0" y="1514.0" class="footnote">Rendered with fireworks-tech-graph</text>
</svg>