<svg xmlns="http://www.w3.org/2000/svg" viewBox="0 0 2449 600" width="2449" height="600">
  <defs>
    <marker id="arrowA" markerWidth="10" markerHeight="7" refX="9" refY="3.5" orient="auto">
      <polygon points="0 0, 10 3.5, 0 7" fill="#7c3aed"/>
    </marker>
    <marker id="arrowB" markerWidth="10" markerHeight="7" refX="9" refY="3.5" orient="auto">
      <polygon points="0 0, 10 3.5, 0 7" fill="#10b981"/>
    </marker>
    <marker id="arrowC" markerWidth="10" markerHeight="7" refX="9" refY="3.5" orient="auto">
      <polygon points="0 0, 10 3.5, 0 7" fill="#2563eb"/>
    </marker>
    <marker id="arrowE" markerWidth="10" markerHeight="7" refX="9" refY="3.5" orient="auto">
      <polygon points="0 0, 10 3.5, 0 7" fill="#f97316"/>
    </marker>
    <marker id="arrowF" markerWidth="10" markerHeight="7" refX="9" refY="3.5" orient="auto">
      <polygon points="0 0, 10 3.5, 0 7" fill="#7c3aed"/>
    </marker>
    <marker id="arrowG" markerWidth="10" markerHeight="7" refX="9" refY="3.5" orient="auto">
      <polygon points="0 0, 10 3.5, 0 7" fill="#ef4444"/>
    </marker>
    <marker id="arrowH" markerWidth="10" markerHeight="7" refX="9" refY="3.5" orient="auto">
      <polygon points="0 0, 10 3.5, 0 7" fill="#6b7280"/>
    </marker>
    <filter id="shadowSoft" x="-20%" y="-20%" width="140%" height="160%">
      <feDropShadow dx="0" dy="3" stdDeviation="6" flood-color="#0f172a" flood-opacity="0.12"/>
    </filter>
    <filter id="shadowGlass" x="-20%" y="-20%" width="140%" height="160%">
      <feDropShadow dx="0" dy="10" stdDeviation="16" flood-color="#020617" flood-opacity="0.28"/>
    </filter>
    <style>
    text { font-family: 'Helvetica Neue', Helvetica, Arial, 'PingFang SC', 'Microsoft YaHei', 'Microsoft JhengHei', 'SimHei', sans-serif; }
    .title { font-size: 30px; font-weight: 700; fill: #111827; }
    .subtitle { font-size: 14px; font-weight: 500; fill: #6b7280; }
    .section { font-size: 13px; font-weight: 700; fill: #2563eb; letter-spacing: 1.4px; }
    .section-sub { font-size: 12px; font-weight: 500; fill: #94a3b8; }
    .node-title { font-size: 18px; font-weight: 700; fill: #111827; }
    .node-sub { font-size: 12px; font-weight: 500; fill: #6b7280; }
    .node-type { font-size: 12px; font-weight: 700; fill: #9ca3af; letter-spacing: 0.08em; }
    .arrow-label { font-size: 12px; font-weight: 600; fill: #6b7280; }
    .legend { font-size: 12px; font-weight: 500; fill: #6b7280; }
    .footnote { font-size: 12px; font-weight: 500; fill: #94a3b8; }
    </style>
  </defs>
  <rect width="2449.0" height="600.0" fill="#ffffff"/>
  <text x="1224.5" y="56" text-anchor="middle" class="title">44.4.1 工程实现</text>
  <text x="1224.5" y="82" text-anchor="middle" class="subtitle">part-10-economics-cases/chapter-44-building-ai-factory.md:1208</text>
  <path d="M 318.0,267.0 L 338.4,267.0 L 369.6,273.0 L 390.0,273.0" fill="none" stroke="#7c3aed" stroke-width="2.4" marker-end="url(#arrowA)"/>
  <path d="M 626.0,273.0 L 646.4,273.0 L 691.6,155.0 L 712.0,155.0" fill="none" stroke="#7c3aed" stroke-width="2.4" marker-end="url(#arrowA)"/>
  <path d="M 626.0,273.0 L 646.4,273.0 L 684.6,267.0 L 705.0,267.0" fill="none" stroke="#7c3aed" stroke-width="2.4" marker-end="url(#arrowA)"/>
  <path d="M 626.0,273.0 L 646.4,273.0 L 677.6,385.0 L 698.0,385.0" fill="none" stroke="#7c3aed" stroke-width="2.4" marker-end="url(#arrowA)"/>
  <path d="M 920.0,155.0 L 940.4,155.0 L 985.6,267.0 L 1006.0,267.0" fill="none" stroke="#7c3aed" stroke-width="2.4" marker-end="url(#arrowA)"/>
  <path d="M 927.0,267.0 L 1006.0,267.0" fill="none" stroke="#7c3aed" stroke-width="2.4" marker-end="url(#arrowA)"/>
  <path d="M 934.0,385.0 L 954.4,385.0 L 985.6,267.0 L 1006.0,267.0" fill="none" stroke="#7c3aed" stroke-width="2.4" marker-end="url(#arrowA)"/>
  <path d="M 1228.0,267.0 L 1248.4,267.0 L 1279.6,273.0 L 1300.0,273.0" fill="none" stroke="#7c3aed" stroke-width="2.4" marker-end="url(#arrowA)"/>
  <path d="M 1536.0,273.0 L 1608.0,273.0" fill="none" stroke="#7c3aed" stroke-width="2.4" marker-end="url(#arrowA)"/>
  <path d="M 1837.0,273.0 L 1857.4,273.0 L 1906.1,211.0 L 1926.5,211.0" fill="none" stroke="#7c3aed" stroke-width="2.4" marker-end="url(#arrowA)"/>
  <path d="M 1837.0,273.0 L 1857.4,273.0 L 1888.6,323.0 L 1909.0,323.0" fill="none" stroke="#7c3aed" stroke-width="2.4" marker-end="url(#arrowA)"/>
  <path d="M 2099.5,211.0 L 2119.9,211.0 L 2168.6,267.0 L 2189.0,267.0" fill="none" stroke="#7c3aed" stroke-width="2.4" marker-end="url(#arrowA)"/>
  <path d="M 2117.0,323.0 L 2137.4,323.0 L 2168.6,267.0 L 2189.0,267.0" fill="none" stroke="#7c3aed" stroke-width="2.4" marker-end="url(#arrowA)"/>
  <rect x="96.0" y="238.0" width="222.0" height="58.0" rx="10.0" fill="#eff6ff" stroke="#bfdbfe" stroke-width="1.8"/>
  <text x="207.0" y="267.0" text-anchor="middle" class="node-title">security_prr_abuse_drill</text>
  <rect x="390.0" y="238.0" width="236.0" height="70.0" rx="10.0" fill="#f0fdf4" stroke="#bbf7d0" stroke-width="1.8"/>
  <text x="508.0" y="273.0" text-anchor="middle" class="node-title">Gateway guard</text>
  <text x="508.0" y="295.0" text-anchor="middle" class="node-sub">identity / policy / budget</text>
  <rect x="712.0" y="126.0" width="208.0" height="58.0" rx="10.0" fill="#fff7ed" stroke="#fed7aa" stroke-width="1.8"/>
  <text x="816.0" y="155.0" text-anchor="middle" class="node-title">policy_decision_record</text>
  <rect x="705.0" y="238.0" width="222.0" height="58.0" rx="10.0" fill="#faf5ff" stroke="#e9d5ff" stroke-width="1.8"/>
  <text x="816.0" y="267.0" text-anchor="middle" class="node-title">egress_provider_decision</text>
  <rect x="698.0" y="350.0" width="236.0" height="70.0" rx="10.0" fill="#f0fdfa" stroke="#99f6e4" stroke-width="1.8"/>
  <text x="816.0" y="385.0" text-anchor="middle" class="node-title">denial_of_wallet_admission</text>
  <text x="816.0" y="407.0" text-anchor="middle" class="node-sub">guard</text>
  <rect x="1006.0" y="238.0" width="222.0" height="58.0" rx="10.0" fill="#f8fafc" stroke="#cbd5e1" stroke-width="1.8"/>
  <text x="1117.0" y="267.0" text-anchor="middle" class="node-title">security_evidence_bundle</text>
  <rect x="1300.0" y="238.0" width="236.0" height="70.0" rx="10.0" fill="#eff6ff" stroke="#bfdbfe" stroke-width="1.8"/>
  <text x="1418.0" y="273.0" text-anchor="middle" class="node-title">security_policy_fault_tree</text>
  <text x="1418.0" y="295.0" text-anchor="middle" class="node-sub">execution</text>
  <rect x="1608.0" y="238.0" width="229.0" height="70.0" rx="10.0" fill="#f0fdf4" stroke="#bbf7d0" stroke-width="1.8"/>
  <text x="1722.5" y="273.0" text-anchor="middle" class="node-title">denial_of_wallet_incident</text>
  <text x="1722.5" y="295.0" text-anchor="middle" class="node-sub">record</text>
  <rect x="1926.5" y="182.0" width="173.0" height="58.0" rx="10.0" fill="#fff7ed" stroke="#fed7aa" stroke-width="1.8"/>
  <text x="2013.0" y="211.0" text-anchor="middle" class="node-title">abuse_cost_ledger</text>
  <rect x="1909.0" y="294.0" width="208.0" height="58.0" rx="10.0" fill="#faf5ff" stroke="#e9d5ff" stroke-width="1.8"/>
  <text x="2013.0" y="323.0" text-anchor="middle" class="node-title">billing_dispute_replay</text>
  <rect x="2189.0" y="238.0" width="164.0" height="58.0" rx="10.0" fill="#f0fdfa" stroke="#99f6e4" stroke-width="1.8"/>
  <text x="2271.0" y="267.0" text-anchor="middle" class="node-title">PRR gate update</text>
  <text x="2169.0" y="584.0" class="footnote">Rendered with fireworks-tech-graph</text>
</svg>