<svg xmlns="http://www.w3.org/2000/svg" viewBox="0 0 1040 600" width="1040" height="600">
  <defs>
    <marker id="arrowA" markerWidth="10" markerHeight="7" refX="9" refY="3.5" orient="auto">
      <polygon points="0 0, 10 3.5, 0 7" fill="#7c3aed"/>
    </marker>
    <marker id="arrowB" markerWidth="10" markerHeight="7" refX="9" refY="3.5" orient="auto">
      <polygon points="0 0, 10 3.5, 0 7" fill="#10b981"/>
    </marker>
    <marker id="arrowC" markerWidth="10" markerHeight="7" refX="9" refY="3.5" orient="auto">
      <polygon points="0 0, 10 3.5, 0 7" fill="#2563eb"/>
    </marker>
    <marker id="arrowE" markerWidth="10" markerHeight="7" refX="9" refY="3.5" orient="auto">
      <polygon points="0 0, 10 3.5, 0 7" fill="#f97316"/>
    </marker>
    <marker id="arrowF" markerWidth="10" markerHeight="7" refX="9" refY="3.5" orient="auto">
      <polygon points="0 0, 10 3.5, 0 7" fill="#7c3aed"/>
    </marker>
    <marker id="arrowG" markerWidth="10" markerHeight="7" refX="9" refY="3.5" orient="auto">
      <polygon points="0 0, 10 3.5, 0 7" fill="#ef4444"/>
    </marker>
    <marker id="arrowH" markerWidth="10" markerHeight="7" refX="9" refY="3.5" orient="auto">
      <polygon points="0 0, 10 3.5, 0 7" fill="#6b7280"/>
    </marker>
    <filter id="shadowSoft" x="-20%" y="-20%" width="140%" height="160%">
      <feDropShadow dx="0" dy="3" stdDeviation="6" flood-color="#0f172a" flood-opacity="0.12"/>
    </filter>
    <filter id="shadowGlass" x="-20%" y="-20%" width="140%" height="160%">
      <feDropShadow dx="0" dy="10" stdDeviation="16" flood-color="#020617" flood-opacity="0.28"/>
    </filter>
    <style>
    text { font-family: 'Helvetica Neue', Helvetica, Arial, 'PingFang SC', 'Microsoft YaHei', 'Microsoft JhengHei', 'SimHei', sans-serif; }
    .title { font-size: 30px; font-weight: 700; fill: #111827; }
    .subtitle { font-size: 14px; font-weight: 500; fill: #6b7280; }
    .section { font-size: 13px; font-weight: 700; fill: #2563eb; letter-spacing: 1.4px; }
    .section-sub { font-size: 12px; font-weight: 500; fill: #94a3b8; }
    .node-title { font-size: 18px; font-weight: 700; fill: #111827; }
    .node-sub { font-size: 12px; font-weight: 500; fill: #6b7280; }
    .node-type { font-size: 12px; font-weight: 700; fill: #9ca3af; letter-spacing: 0.08em; }
    .arrow-label { font-size: 12px; font-weight: 600; fill: #6b7280; }
    .legend { font-size: 12px; font-weight: 500; fill: #6b7280; }
    .footnote { font-size: 12px; font-weight: 500; fill: #94a3b8; }
    </style>
  </defs>
  <rect width="1040.0" height="600.0" fill="#ffffff"/>
  <text x="520.0" y="56" text-anchor="middle" class="title">29.2.2 系统架构</text>
  <text x="520.0" y="82" text-anchor="middle" class="subtitle">part-06-gpu-iaas/chapter-29-image-driver-bootstrap.md:88</text>
  <rect x="89.0" y="118.0" width="276.0" height="372.0" rx="16.0" fill="#f8fafc" stroke="#dbe5f1" stroke-width="1.4" stroke-dasharray="7 5"/>
  <text x="107.0" y="142.0" class="section">阶段 1</text>
  <text x="107.0" y="162.0" class="section-sub">OS / kernel baseline -&gt; NVIDIA Container Toolkit</text>
  <rect x="403.0" y="118.0" width="276.0" height="372.0" rx="16.0" fill="#ffffff" stroke="#dbe5f1" stroke-width="1.4" stroke-dasharray="7 5"/>
  <text x="421.0" y="142.0" class="section">阶段 2</text>
  <text x="421.0" y="162.0" class="section-sub">containerd -&gt; Kubernetes device plugin</text>
  <rect x="717.0" y="118.0" width="234.0" height="372.0" rx="16.0" fill="#f8fafc" stroke="#dbe5f1" stroke-width="1.4" stroke-dasharray="7 5"/>
  <text x="735.0" y="142.0" class="section">阶段 3</text>
  <text x="735.0" y="162.0" class="section-sub">containerized NCCL -&gt; GPU resource pool</text>
  <path d="M 227.0,230.0 L 227.0,270.0" fill="none" stroke="#7c3aed" stroke-width="2.4" marker-end="url(#arrowA)"/>
  <path d="M 227.0,328.0 L 227.0,368.0" fill="none" stroke="#7c3aed" stroke-width="2.4" marker-end="url(#arrowA)"/>
  <path d="M 338.0,397.0 L 358.4,397.0 L 420.1,207.0 L 440.5,207.0" fill="none" stroke="#7c3aed" stroke-width="2.4" marker-end="url(#arrowA)"/>
  <path d="M 541.0,242.0 L 541.0,270.0" fill="none" stroke="#7c3aed" stroke-width="2.4" marker-end="url(#arrowA)"/>
  <path d="M 541.0,328.0 L 541.0,368.0" fill="none" stroke="#7c3aed" stroke-width="2.4" marker-end="url(#arrowA)"/>
  <path d="M 652.0,403.0 L 672.4,403.0 L 723.6,256.0 L 744.0,256.0" fill="none" stroke="#7c3aed" stroke-width="2.4" marker-end="url(#arrowA)"/>
  <path d="M 834.0,291.0 L 834.0,319.0" fill="none" stroke="#7c3aed" stroke-width="2.4" marker-end="url(#arrowA)"/>
  <rect x="130.0" y="172.0" width="194.0" height="58.0" rx="10.0" fill="#eff6ff" stroke="#bfdbfe" stroke-width="1.8"/>
  <text x="227.0" y="201.0" text-anchor="middle" class="node-title">OS / kernel baseline</text>
  <rect x="145.0" y="270.0" width="164.0" height="58.0" rx="10.0" fill="#f0fdf4" stroke="#bbf7d0" stroke-width="1.8"/>
  <text x="227.0" y="299.0" text-anchor="middle" class="node-title">NVIDIA Driver</text>
  <rect x="116.0" y="368.0" width="222.0" height="58.0" rx="10.0" fill="#fff7ed" stroke="#fed7aa" stroke-width="1.8"/>
  <text x="227.0" y="397.0" text-anchor="middle" class="node-title">NVIDIA Container Toolkit</text>
  <rect x="440.5" y="172.0" width="201.0" height="70.0" rx="10.0" fill="#faf5ff" stroke="#e9d5ff" stroke-width="1.8"/>
  <text x="541.0" y="207.0" text-anchor="middle" class="node-title">containerd</text>
  <text x="541.0" y="229.0" text-anchor="middle" class="node-sub">Docker runtime config</text>
  <rect x="430.0" y="270.0" width="222.0" height="58.0" rx="10.0" fill="#f0fdfa" stroke="#99f6e4" stroke-width="1.8"/>
  <text x="541.0" y="299.0" text-anchor="middle" class="node-title">GPU container smoke test</text>
  <rect x="430.0" y="368.0" width="222.0" height="70.0" rx="10.0" fill="#f8fafc" stroke="#cbd5e1" stroke-width="1.8"/>
  <text x="541.0" y="403.0" text-anchor="middle" class="node-title">Kubernetes device plugin</text>
  <text x="541.0" y="425.0" text-anchor="middle" class="node-sub">test</text>
  <rect x="744.0" y="221.0" width="180.0" height="70.0" rx="10.0" fill="#eff6ff" stroke="#bfdbfe" stroke-width="1.8"/>
  <text x="834.0" y="256.0" text-anchor="middle" class="node-title">containerized NCCL</text>
  <text x="834.0" y="278.0" text-anchor="middle" class="node-sub">RDMA test</text>
  <rect x="747.5" y="319.0" width="173.0" height="58.0" rx="10.0" fill="#f0fdf4" stroke="#bbf7d0" stroke-width="1.8"/>
  <text x="834.0" y="348.0" text-anchor="middle" class="node-title">GPU resource pool</text>
  <line x1="42.0" y1="562.0" x2="72.0" y2="562.0" stroke="#7c3aed" stroke-width="2.4" marker-end="url(#arrowA)"/>
  <text x="82.0" y="566.0" class="legend">主路径 / 阶段推进</text>
  <text x="760.0" y="584.0" class="footnote">Rendered with fireworks-tech-graph</text>
</svg>