<svg xmlns="http://www.w3.org/2000/svg" width="960" height="1306" viewBox="0 0 960 1306"><defs><marker id="arrowA" markerHeight="7" markerWidth="10" orient="auto" refX="9" refY="3.5"><polygon fill="#7c3aed" points="0 0 10 3.5 0 7"/></marker><marker id="arrowB" markerHeight="7" markerWidth="10" orient="auto" refX="9" refY="3.5"><polygon fill="#10b981" points="0 0 10 3.5 0 7"/></marker><marker id="arrowC" markerHeight="7" markerWidth="10" orient="auto" refX="9" refY="3.5"><polygon fill="#2563eb" points="0 0 10 3.5 0 7"/></marker><marker id="arrowE" markerHeight="7" markerWidth="10" orient="auto" refX="9" refY="3.5"><polygon fill="#f97316" points="0 0 10 3.5 0 7"/></marker><marker id="arrowF" markerHeight="7" markerWidth="10" orient="auto" refX="9" refY="3.5"><polygon fill="#7c3aed" points="0 0 10 3.5 0 7"/></marker><marker id="arrowG" markerHeight="7" markerWidth="10" orient="auto" refX="9" refY="3.5"><polygon fill="#ef4444" points="0 0 10 3.5 0 7"/></marker><marker id="arrowH" markerHeight="7" markerWidth="10" orient="auto" refX="9" refY="3.5"><polygon fill="#6b7280" points="0 0 10 3.5 0 7"/></marker><filter id="shadowSoft" width="140%" height="160%" x="-20%" y="-20%"><feDropShadow dx="0" dy="3" flood-color="#0f172a" flood-opacity=".12" stdDeviation="6"/></filter><filter id="shadowGlass" width="140%" height="160%" x="-20%" y="-20%"><feDropShadow dx="0" dy="10" flood-color="#020617" flood-opacity=".28" stdDeviation="16"/></filter><style>text{font-family:&apos;Helvetica Neue&apos;,Helvetica,Arial,&apos;PingFang SC&apos;,&apos;Microsoft YaHei&apos;,&apos;Microsoft JhengHei&apos;,&apos;SimHei&apos;,sans-serif}.title{font-size:30px;font-weight:700;fill:#111827}.subtitle{font-size:14px;font-weight:500;fill:#6b7280}.node-title{font-size:18px;font-weight:700;fill:#111827}.footnote,.node-sub{font-size:12px;font-weight:500}.node-sub{fill:#6b7280}.footnote{fill:#94a3b8}</style></defs><rect width="960" height="1306" fill="#fff"/><text x="480" y="56" class="title" text-anchor="middle">44.4.1 工程实现</text><text x="480" y="82" class="subtitle" text-anchor="middle">part-10-economics-cases/chapter-44-building-ai-factory.md:1609</text><path fill="none" stroke="#7c3aed" stroke-width="2.4" marker-end="url(#arrowA)" d="M 480.0,212.0 L 480.0,284.0"/><path fill="none" stroke="#7c3aed" stroke-width="2.4" marker-end="url(#arrowA)" d="M 480.0,354.0 L 480.0,426.0"/><path fill="none" stroke="#7c3aed" stroke-width="2.4" marker-end="url(#arrowA)" d="M 480.0,484.0 L 480.0,556.0"/><path fill="none" stroke="#7c3aed" stroke-width="2.4" marker-end="url(#arrowA)" d="M 480.0,626.0 L 480.0,698.0"/><path fill="none" stroke="#7c3aed" stroke-width="2.4" marker-end="url(#arrowA)" d="M 480.0,768.0 L 480.0,788.4 L 342.5,819.6 L 342.5,840.0"/><path fill="none" stroke="#7c3aed" stroke-width="2.4" marker-end="url(#arrowA)" d="M 342.5,910.0 L 342.5,930.4 L 353.0,961.6 L 353.0,982.0"/><path fill="none" stroke="#7c3aed" stroke-width="2.4" marker-end="url(#arrowA)" d="M 480.0,768.0 L 480.0,788.4 L 610.5,825.6 L 610.5,846.0"/><path fill="none" stroke="#7c3aed" stroke-width="2.4" marker-end="url(#arrowA)" d="M 610.5,904.0 L 610.5,924.4 L 621.0,961.6 L 621.0,982.0"/><path fill="none" stroke="#7c3aed" stroke-width="2.4" marker-end="url(#arrowA)" d="M 353.0,1040.0 L 353.0,1060.4 L 480.0,1091.6 L 480.0,1112.0"/><path fill="none" stroke="#7c3aed" stroke-width="2.4" marker-end="url(#arrowA)" d="M 621.0,1040.0 L 621.0,1060.4 L 480.0,1091.6 L 480.0,1112.0"/><rect width="194" height="58" x="383" y="154" fill="#eff6ff" stroke="#bfdbfe" stroke-width="1.8" rx="10"/><text x="480" y="183" class="node-title" text-anchor="middle">multimodal_prr_drill</text><rect width="187" height="70" x="386.5" y="284" fill="#f0fdf4" stroke="#bbf7d0" stroke-width="1.8" rx="10"/><text x="480" y="319" class="node-title" text-anchor="middle">multimodal_workload</text><text x="480" y="341" class="node-sub" text-anchor="middle">profile</text><rect width="215" height="58" x="372.5" y="426" fill="#fff7ed" stroke="#fed7aa" stroke-width="1.8" rx="10"/><text x="480" y="455" class="node-title" text-anchor="middle">media_artifact_manifest</text><rect width="229" height="70" x="365.5" y="556" fill="#faf5ff" stroke="#e9d5ff" stroke-width="1.8" rx="10"/><text x="480" y="591" class="node-title" text-anchor="middle">media_processing_pipeline</text><text x="480" y="613" class="node-sub" text-anchor="middle">record</text><rect width="180" height="70" x="390" y="698" fill="#f0fdfa" stroke="#99f6e4" stroke-width="1.8" rx="10"/><text x="480" y="733" class="node-title" text-anchor="middle">multimodal_serving</text><text x="480" y="755" class="node-sub" text-anchor="middle">contract</text><rect width="215" height="70" x="235" y="840" fill="#f8fafc" stroke="#cbd5e1" stroke-width="1.8" rx="10"/><text x="342.5" y="875" class="node-title" text-anchor="middle">multimodal_quality_gate</text><text x="342.5" y="897" class="node-sub" text-anchor="middle">execution</text><rect width="229" height="58" x="496" y="846" fill="#f0fdf4" stroke="#bbf7d0" stroke-width="1.8" rx="10"/><text x="610.5" y="875" class="node-title" text-anchor="middle">multimodal_metering_event</text><rect width="236" height="58" x="235" y="982" fill="#eff6ff" stroke="#bfdbfe" stroke-width="1.8" rx="10"/><text x="353" y="1011" class="node-title" text-anchor="middle">multimodal_evidence_bundle</text><rect width="208" height="58" x="517" y="982" fill="#fff7ed" stroke="#fed7aa" stroke-width="1.8" rx="10"/><text x="621" y="1011" class="node-title" text-anchor="middle">multimodal_cost_ledger</text><rect width="164" height="58" x="398" y="1112" fill="#faf5ff" stroke="#e9d5ff" stroke-width="1.8" rx="10"/><text x="480" y="1141" class="node-title" text-anchor="middle">PRR gate update</text><text x="680" y="1290" class="footnote">Rendered with fireworks-tech-graph</text></svg>