<svg xmlns="http://www.w3.org/2000/svg" width="1037" height="922" viewBox="0 0 1037 922"><defs><marker id="arrowA" markerHeight="7" markerWidth="10" orient="auto" refX="9" refY="3.5"><polygon fill="#7c3aed" points="0 0 10 3.5 0 7"/></marker><marker id="arrowB" markerHeight="7" markerWidth="10" orient="auto" refX="9" refY="3.5"><polygon fill="#10b981" points="0 0 10 3.5 0 7"/></marker><marker id="arrowC" markerHeight="7" markerWidth="10" orient="auto" refX="9" refY="3.5"><polygon fill="#2563eb" points="0 0 10 3.5 0 7"/></marker><marker id="arrowE" markerHeight="7" markerWidth="10" orient="auto" refX="9" refY="3.5"><polygon fill="#f97316" points="0 0 10 3.5 0 7"/></marker><marker id="arrowF" markerHeight="7" markerWidth="10" orient="auto" refX="9" refY="3.5"><polygon fill="#7c3aed" points="0 0 10 3.5 0 7"/></marker><marker id="arrowG" markerHeight="7" markerWidth="10" orient="auto" refX="9" refY="3.5"><polygon fill="#ef4444" points="0 0 10 3.5 0 7"/></marker><marker id="arrowH" markerHeight="7" markerWidth="10" orient="auto" refX="9" refY="3.5"><polygon fill="#6b7280" points="0 0 10 3.5 0 7"/></marker><filter id="shadowSoft" width="140%" height="160%" x="-20%" y="-20%"><feDropShadow dx="0" dy="3" flood-color="#0f172a" flood-opacity=".12" stdDeviation="6"/></filter><filter id="shadowGlass" width="140%" height="160%" x="-20%" y="-20%"><feDropShadow dx="0" dy="10" flood-color="#020617" flood-opacity=".28" stdDeviation="16"/></filter><style>text{font-family:&apos;Helvetica Neue&apos;,Helvetica,Arial,&apos;PingFang SC&apos;,&apos;Microsoft YaHei&apos;,&apos;Microsoft JhengHei&apos;,&apos;SimHei&apos;,sans-serif}.title{font-size:30px;font-weight:700;fill:#111827}.subtitle{font-size:14px;font-weight:500;fill:#6b7280}.node-title{font-size:18px;font-weight:700;fill:#111827}.footnote,.node-sub{font-size:12px;font-weight:500}.node-sub{fill:#6b7280}.footnote{fill:#94a3b8}</style></defs><rect width="1037" height="922" fill="#fff"/><text x="518.5" y="56" class="title" text-anchor="middle">41.4.1 工程实现</text><text x="518.5" y="82" class="subtitle" text-anchor="middle">part-10-economics-cases/chapter-41-token-factory.md:1892</text><path fill="none" stroke="#7c3aed" stroke-width="2.4" marker-end="url(#arrowA)" d="M 275.0,155.0 L 295.4,155.0 L 341.6,435.0 L 362.0,435.0"/><path fill="none" stroke="#7c3aed" stroke-width="2.4" marker-end="url(#arrowA)" d="M 283.0,273.0 L 303.4,273.0 L 341.6,435.0 L 362.0,435.0"/><path fill="none" stroke="#7c3aed" stroke-width="2.4" marker-end="url(#arrowA)" d="M 290.0,385.0 L 310.4,385.0 L 341.6,435.0 L 362.0,435.0"/><path fill="none" stroke="#7c3aed" stroke-width="2.4" marker-end="url(#arrowA)" d="M 275.0,497.0 L 295.4,497.0 L 341.6,435.0 L 362.0,435.0"/><path fill="none" stroke="#7c3aed" stroke-width="2.4" marker-end="url(#arrowA)" d="M 283.0,609.0 L 303.4,609.0 L 341.6,435.0 L 362.0,435.0"/><path fill="none" stroke="#7c3aed" stroke-width="2.4" marker-end="url(#arrowA)" d="M 275.0,721.0 L 295.4,721.0 L 341.6,435.0 L 362.0,435.0"/><path fill="none" stroke="#7c3aed" stroke-width="2.4" marker-end="url(#arrowA)" d="M 570.0,435.0 L 590.4,435.0 L 621.6,329.0 L 642.0,329.0"/><path fill="none" stroke="#7c3aed" stroke-width="2.4" marker-end="url(#arrowA)" d="M 570.0,435.0 L 590.4,435.0 L 689.1,441.0 L 709.5,441.0"/><path fill="none" stroke="#7c3aed" stroke-width="2.4" marker-end="url(#arrowA)" d="M 570.0,435.0 L 590.4,435.0 L 677.6,547.0 L 698.0,547.0"/><rect width="164" height="58" x="111" y="126" fill="#eff6ff" stroke="#bfdbfe" stroke-width="1.8" rx="10"/><text x="193" y="155" class="node-title" text-anchor="middle">upload / scan</text><rect width="180" height="70" x="103" y="238" fill="#fff7ed" stroke="#fed7aa" stroke-width="1.8" rx="10"/><text x="193" y="273" class="node-title" text-anchor="middle">OCR / ASR / layout</text><text x="193" y="295" class="node-sub" text-anchor="middle">frames</text><rect width="194" height="70" x="96" y="350" fill="#faf5ff" stroke="#e9d5ff" stroke-width="1.8" rx="10"/><text x="193" y="385" class="node-title" text-anchor="middle">vision/audio encoder</text><text x="193" y="407" class="node-sub" text-anchor="middle">embedding</text><rect width="164" height="70" x="111" y="462" fill="#f0fdfa" stroke="#99f6e4" stroke-width="1.8" rx="10"/><text x="193" y="497" class="node-title" text-anchor="middle">LLM inference</text><text x="193" y="519" class="node-sub" text-anchor="middle">text tokens</text><rect width="180" height="70" x="103" y="574" fill="#f8fafc" stroke="#cbd5e1" stroke-width="1.8" rx="10"/><text x="193" y="609" class="node-title" text-anchor="middle">artifact retention</text><text x="193" y="631" class="node-sub" text-anchor="middle">derived objects</text><rect width="164" height="70" x="111" y="686" fill="#eff6ff" stroke="#bfdbfe" stroke-width="1.8" rx="10"/><text x="193" y="721" class="node-title" text-anchor="middle">human review</text><text x="193" y="743" class="node-sub" text-anchor="middle">if required</text><rect width="208" height="58" x="362" y="406" fill="#f0fdf4" stroke="#bbf7d0" stroke-width="1.8" rx="10"/><text x="466" y="435" class="node-title" text-anchor="middle">multimodal_cost_ledger</text><rect width="299" height="70" x="642" y="294" fill="#f0fdf4" stroke="#bbf7d0" stroke-width="1.8" rx="10"/><text x="791.5" y="329" class="node-title" text-anchor="middle">unit economics</text><text x="791.5" y="351" class="node-sub" text-anchor="middle">per page / minute / successful task</text><rect width="164" height="70" x="709.5" y="406" fill="#fff7ed" stroke="#fed7aa" stroke-width="1.8" rx="10"/><text x="791.5" y="441" class="node-title" text-anchor="middle">pricing / quota</text><text x="791.5" y="463" class="node-sub" text-anchor="middle">product limits</text><rect width="187" height="58" x="698" y="518" fill="#faf5ff" stroke="#e9d5ff" stroke-width="1.8" rx="10"/><text x="791.5" y="547" class="node-title" text-anchor="middle">multimodal PRR gate</text><text x="757" y="906" class="footnote">Rendered with fireworks-tech-graph</text></svg>