<svg xmlns="http://www.w3.org/2000/svg" width="1876" height="1058" viewBox="0 0 1876 1058"><defs><marker id="arrowA" markerHeight="7" markerWidth="10" orient="auto" refX="9" refY="3.5"><polygon fill="#7c3aed" points="0 0 10 3.5 0 7"/></marker><marker id="arrowB" markerHeight="7" markerWidth="10" orient="auto" refX="9" refY="3.5"><polygon fill="#10b981" points="0 0 10 3.5 0 7"/></marker><marker id="arrowC" markerHeight="7" markerWidth="10" orient="auto" refX="9" refY="3.5"><polygon fill="#2563eb" points="0 0 10 3.5 0 7"/></marker><marker id="arrowE" markerHeight="7" markerWidth="10" orient="auto" refX="9" refY="3.5"><polygon fill="#f97316" points="0 0 10 3.5 0 7"/></marker><marker id="arrowF" markerHeight="7" markerWidth="10" orient="auto" refX="9" refY="3.5"><polygon fill="#7c3aed" points="0 0 10 3.5 0 7"/></marker><marker id="arrowG" markerHeight="7" markerWidth="10" orient="auto" refX="9" refY="3.5"><polygon fill="#ef4444" points="0 0 10 3.5 0 7"/></marker><marker id="arrowH" markerHeight="7" markerWidth="10" orient="auto" refX="9" refY="3.5"><polygon fill="#6b7280" points="0 0 10 3.5 0 7"/></marker><filter id="shadowSoft" width="140%" height="160%" x="-20%" y="-20%"><feDropShadow dx="0" dy="3" flood-color="#0f172a" flood-opacity=".12" stdDeviation="6"/></filter><filter id="shadowGlass" width="140%" height="160%" x="-20%" y="-20%"><feDropShadow dx="0" dy="10" flood-color="#020617" flood-opacity=".28" stdDeviation="16"/></filter><style>text{font-family:&apos;Helvetica Neue&apos;,Helvetica,Arial,&apos;PingFang SC&apos;,&apos;Microsoft YaHei&apos;,&apos;Microsoft JhengHei&apos;,&apos;SimHei&apos;,sans-serif}.title{font-size:30px;font-weight:700;fill:#111827}.subtitle{font-size:14px;font-weight:500;fill:#6b7280}.node-title{font-size:18px;font-weight:700;fill:#111827}.footnote,.node-sub{font-size:12px;font-weight:500}.node-sub{fill:#6b7280}.footnote{fill:#94a3b8}</style></defs><rect width="1876" height="1058" fill="#fff"/><text x="938" y="56" class="title" text-anchor="middle">39.2.2 系统架构</text><text x="938" y="82" class="subtitle" text-anchor="middle">part-09-reliability-observability/chapter-39-troubleshooting.md:416</text><path fill="none" stroke="#7c3aed" stroke-width="2.4" marker-end="url(#arrowA)" d="M 938.0,224.0 L 938.0,296.0"/><path fill="none" stroke="#7c3aed" stroke-width="2.4" marker-end="url(#arrowA)" d="M 938.0,354.0 L 938.0,426.0"/><path fill="none" stroke="#7c3aed" stroke-width="2.4" marker-end="url(#arrowA)" d="M 938.0,496.0 L 938.0,516.4 L 174.5,553.6 L 174.5,574.0"/><path fill="none" stroke="#7c3aed" stroke-width="2.4" marker-end="url(#arrowA)" d="M 938.0,496.0 L 938.0,516.4 L 425.0,553.6 L 425.0,574.0"/><path fill="none" stroke="#7c3aed" stroke-width="2.4" marker-end="url(#arrowA)" d="M 938.0,496.0 L 938.0,516.4 L 643.0,553.6 L 643.0,574.0"/><path fill="none" stroke="#7c3aed" stroke-width="2.4" marker-end="url(#arrowA)" d="M 938.0,496.0 L 938.0,516.4 L 854.0,553.6 L 854.0,574.0"/><path fill="none" stroke="#7c3aed" stroke-width="2.4" marker-end="url(#arrowA)" d="M 938.0,496.0 L 938.0,516.4 L 1073.0,553.6 L 1073.0,574.0"/><path fill="none" stroke="#7c3aed" stroke-width="2.4" marker-end="url(#arrowA)" d="M 938.0,496.0 L 938.0,516.4 L 1291.0,547.6 L 1291.0,568.0"/><path fill="none" stroke="#7c3aed" stroke-width="2.4" marker-end="url(#arrowA)" d="M 938.0,496.0 L 938.0,516.4 L 1512.5,553.6 L 1512.5,574.0"/><path fill="none" stroke="#7c3aed" stroke-width="2.4" marker-end="url(#arrowA)" d="M 938.0,496.0 L 938.0,516.4 L 1734.0,553.6 L 1734.0,574.0"/><path fill="none" stroke="#7c3aed" stroke-width="2.4" marker-end="url(#arrowA)" d="M 174.5,632.0 L 174.5,652.4 L 938.0,689.6 L 938.0,710.0"/><path fill="none" stroke="#7c3aed" stroke-width="2.4" marker-end="url(#arrowA)" d="M 425.0,632.0 L 425.0,652.4 L 938.0,689.6 L 938.0,710.0"/><path fill="none" stroke="#7c3aed" stroke-width="2.4" marker-end="url(#arrowA)" d="M 643.0,632.0 L 643.0,652.4 L 938.0,689.6 L 938.0,710.0"/><path fill="none" stroke="#7c3aed" stroke-width="2.4" marker-end="url(#arrowA)" d="M 854.0,632.0 L 854.0,652.4 L 938.0,689.6 L 938.0,710.0"/><path fill="none" stroke="#7c3aed" stroke-width="2.4" marker-end="url(#arrowA)" d="M 1073.0,632.0 L 1073.0,652.4 L 938.0,689.6 L 938.0,710.0"/><path fill="none" stroke="#7c3aed" stroke-width="2.4" marker-end="url(#arrowA)" d="M 1291.0,638.0 L 1291.0,658.4 L 938.0,689.6 L 938.0,710.0"/><path fill="none" stroke="#7c3aed" stroke-width="2.4" marker-end="url(#arrowA)" d="M 1512.5,632.0 L 1512.5,652.4 L 938.0,689.6 L 938.0,710.0"/><path fill="none" stroke="#7c3aed" stroke-width="2.4" marker-end="url(#arrowA)" d="M 1734.0,632.0 L 1734.0,652.4 L 938.0,689.6 L 938.0,710.0"/><path fill="none" stroke="#7c3aed" stroke-width="2.4" marker-end="url(#arrowA)" d="M 938.0,780.0 L 938.0,800.4 L 694.5,831.6 L 694.5,852.0"/><path fill="none" stroke="#7c3aed" stroke-width="2.4" marker-end="url(#arrowA)" d="M 938.0,780.0 L 938.0,800.4 L 952.0,831.6 L 952.0,852.0"/><path fill="none" stroke="#7c3aed" stroke-width="2.4" marker-end="url(#arrowA)" d="M 938.0,780.0 L 938.0,800.4 L 1195.5,831.6 L 1195.5,852.0"/><rect width="222" height="70" x="827" y="154" fill="#eff6ff" stroke="#bfdbfe" stroke-width="1.8" rx="10"/><text x="938" y="189" class="node-title" text-anchor="middle">communication regression</text><text x="938" y="211" class="node-sub" text-anchor="middle">congestion signal</text><rect width="229" height="58" x="823.5" y="296" fill="#f0fdf4" stroke="#bbf7d0" stroke-width="1.8" rx="10"/><text x="938" y="325" class="node-title" text-anchor="middle">network_diagnostic_bundle</text><rect width="201" height="70" x="837.5" y="426" fill="#fff7ed" stroke="#fed7aa" stroke-width="1.8" rx="10"/><text x="938" y="461" class="node-title" text-anchor="middle">congestion_fault_tree</text><text x="938" y="483" class="node-sub" text-anchor="middle">execution</text><rect width="229" height="58" x="60" y="574" fill="#faf5ff" stroke="#e9d5ff" stroke-width="1.8" rx="10"/><text x="174.5" y="603" class="node-title" text-anchor="middle">workload / rank placement</text><rect width="180" height="58" x="335" y="574" fill="#f0fdfa" stroke="#99f6e4" stroke-width="1.8" rx="10"/><text x="425" y="603" class="node-title" text-anchor="middle">fabric path / rail</text><rect width="164" height="58" x="561" y="574" fill="#f8fafc" stroke="#cbd5e1" stroke-width="1.8" rx="10"/><text x="643" y="603" class="node-title" text-anchor="middle">PFC / ECN / QoS</text><rect width="166" height="58" x="771" y="574" fill="#eff6ff" stroke="#bfdbfe" stroke-width="1.8" rx="10"/><text x="854" y="603" class="node-title" text-anchor="middle">RDMA / NIC stack</text><rect width="180" height="58" x="983" y="574" fill="#f0fdf4" stroke="#bbf7d0" stroke-width="1.8" rx="10"/><text x="1073" y="603" class="node-title" text-anchor="middle">NCCL / runtime env</text><rect width="164" height="70" x="1209" y="568" fill="#fff7ed" stroke="#fed7aa" stroke-width="1.8" rx="10"/><text x="1291" y="603" class="node-title" text-anchor="middle">checkpoint</text><text x="1291" y="625" class="node-sub" text-anchor="middle">storage overlap</text><rect width="187" height="58" x="1419" y="574" fill="#faf5ff" stroke="#e9d5ff" stroke-width="1.8" rx="10"/><text x="1512.5" y="603" class="node-title" text-anchor="middle">concurrent workload</text><rect width="164" height="58" x="1652" y="574" fill="#f0fdfa" stroke="#99f6e4" stroke-width="1.8" rx="10"/><text x="1734" y="603" class="node-title" text-anchor="middle">telemetry gap</text><rect width="166" height="70" x="855" y="710" fill="#f8fafc" stroke="#cbd5e1" stroke-width="1.8" rx="10"/><text x="938" y="745" class="node-title" text-anchor="middle">action + owner +</text><text x="938" y="767" class="node-sub" text-anchor="middle">confidence</text><rect width="201" height="70" x="594" y="852" fill="#eff6ff" stroke="#bfdbfe" stroke-width="1.8" rx="10"/><text x="694.5" y="887" class="node-title" text-anchor="middle">network_incident_cost</text><text x="694.5" y="909" class="node-sub" text-anchor="middle">record</text><rect width="222" height="70" x="841" y="852" fill="#f0fdf4" stroke="#bbf7d0" stroke-width="1.8" rx="10"/><text x="952" y="887" class="node-title" text-anchor="middle">fabric_change_acceptance</text><text x="952" y="909" class="node-sub" text-anchor="middle">matrix update</text><rect width="173" height="70" x="1109" y="852" fill="#fff7ed" stroke="#fed7aa" stroke-width="1.8" rx="10"/><text x="1195.5" y="887" class="node-title" text-anchor="middle">fabric_change_prr</text><text x="1195.5" y="909" class="node-sub" text-anchor="middle">drill update</text><text x="1596" y="1042" class="footnote">Rendered with fireworks-tech-graph</text></svg>