<svg xmlns="http://www.w3.org/2000/svg" viewBox="0 0 1470 600" width="1470" height="600">
  <defs>
    <marker id="arrowA" markerWidth="10" markerHeight="7" refX="9" refY="3.5" orient="auto">
      <polygon points="0 0, 10 3.5, 0 7" fill="#7c3aed"/>
    </marker>
    <marker id="arrowB" markerWidth="10" markerHeight="7" refX="9" refY="3.5" orient="auto">
      <polygon points="0 0, 10 3.5, 0 7" fill="#10b981"/>
    </marker>
    <marker id="arrowC" markerWidth="10" markerHeight="7" refX="9" refY="3.5" orient="auto">
      <polygon points="0 0, 10 3.5, 0 7" fill="#2563eb"/>
    </marker>
    <marker id="arrowE" markerWidth="10" markerHeight="7" refX="9" refY="3.5" orient="auto">
      <polygon points="0 0, 10 3.5, 0 7" fill="#f97316"/>
    </marker>
    <marker id="arrowF" markerWidth="10" markerHeight="7" refX="9" refY="3.5" orient="auto">
      <polygon points="0 0, 10 3.5, 0 7" fill="#7c3aed"/>
    </marker>
    <marker id="arrowG" markerWidth="10" markerHeight="7" refX="9" refY="3.5" orient="auto">
      <polygon points="0 0, 10 3.5, 0 7" fill="#ef4444"/>
    </marker>
    <marker id="arrowH" markerWidth="10" markerHeight="7" refX="9" refY="3.5" orient="auto">
      <polygon points="0 0, 10 3.5, 0 7" fill="#6b7280"/>
    </marker>
    <filter id="shadowSoft" x="-20%" y="-20%" width="140%" height="160%">
      <feDropShadow dx="0" dy="3" stdDeviation="6" flood-color="#0f172a" flood-opacity="0.12"/>
    </filter>
    <filter id="shadowGlass" x="-20%" y="-20%" width="140%" height="160%">
      <feDropShadow dx="0" dy="10" stdDeviation="16" flood-color="#020617" flood-opacity="0.28"/>
    </filter>
    <style>
    text { font-family: 'Helvetica Neue', Helvetica, Arial, 'PingFang SC', 'Microsoft YaHei', 'Microsoft JhengHei', 'SimHei', sans-serif; }
    .title { font-size: 30px; font-weight: 700; fill: #111827; }
    .subtitle { font-size: 14px; font-weight: 500; fill: #6b7280; }
    .section { font-size: 13px; font-weight: 700; fill: #2563eb; letter-spacing: 1.4px; }
    .section-sub { font-size: 12px; font-weight: 500; fill: #94a3b8; }
    .node-title { font-size: 18px; font-weight: 700; fill: #111827; }
    .node-sub { font-size: 12px; font-weight: 500; fill: #6b7280; }
    .node-type { font-size: 12px; font-weight: 700; fill: #9ca3af; letter-spacing: 0.08em; }
    .arrow-label { font-size: 12px; font-weight: 600; fill: #6b7280; }
    .legend { font-size: 12px; font-weight: 500; fill: #6b7280; }
    .footnote { font-size: 12px; font-weight: 500; fill: #94a3b8; }
    </style>
  </defs>
  <rect width="1470.0" height="600.0" fill="#ffffff"/>
  <text x="735.0" y="56" text-anchor="middle" class="title">21.2.2 系统架构</text>
  <text x="735.0" y="82" text-anchor="middle" class="subtitle">part-05-orchestration/chapter-21-containers-kubernetes.md:83</text>
  <rect x="42.0" y="118.0" width="276.0" height="372.0" rx="16.0" fill="#f8fafc" stroke="#dbe5f1" stroke-width="1.4" stroke-dasharray="7 5"/>
  <text x="60.0" y="142.0" class="section">阶段 1</text>
  <text x="60.0" y="162.0" class="section-sub">docker / containerd -&gt; nvidia-container-runtime</text>
  <rect x="356.0" y="118.0" width="290.0" height="372.0" rx="16.0" fill="#ffffff" stroke="#dbe5f1" stroke-width="1.4" stroke-dasharray="7 5"/>
  <text x="374.0" y="142.0" class="section">阶段 2</text>
  <text x="374.0" y="162.0" class="section-sub">修改 spec&lt;br/&gt;加入 NVIDIA hook -&gt; 创建 namespace</text>
  <rect x="684.0" y="118.0" width="332.0" height="372.0" rx="16.0" fill="#f8fafc" stroke="#dbe5f1" stroke-width="1.4" stroke-dasharray="7 5"/>
  <text x="702.0" y="142.0" class="section">阶段 3</text>
  <text x="702.0" y="162.0" class="section-sub">nvidia-container-runtime-hook&lt;br -&gt; libnvidia-con...</text>
  <rect x="1054.0" y="118.0" width="374.0" height="372.0" rx="16.0" fill="#ffffff" stroke="#dbe5f1" stroke-width="1.4" stroke-dasharray="7 5"/>
  <text x="1072.0" y="142.0" class="section">阶段 4</text>
  <text x="1072.0" y="162.0" class="section-sub">bind mount GPU devices&lt;br/&gt;driver libs -&gt; CUDA /...</text>
  <path d="M 180.0,242.0 L 180.0,270.0" fill="none" stroke="#7c3aed" stroke-width="2.4" marker-end="url(#arrowA)"/>
  <path d="M 180.0,340.0 L 180.0,368.0" fill="none" stroke="#7c3aed" stroke-width="2.4" marker-end="url(#arrowA)"/>
  <path d="M 291.0,397.0 L 337.0,397.0 L 337.0,201.0 L 383.0,201.0" fill="none" stroke="#7c3aed" stroke-width="2.4" marker-end="url(#arrowA)"/>
  <path d="M 501.0,230.0 L 501.0,270.0" fill="none" stroke="#7c3aed" stroke-width="2.4" marker-end="url(#arrowA)"/>
  <path d="M 501.0,328.0 L 501.0,368.0" fill="none" stroke="#7c3aed" stroke-width="2.4" marker-end="url(#arrowA)"/>
  <path d="M 594.5,403.0 L 614.9,403.0 L 690.6,207.0 L 711.0,207.0" fill="none" stroke="#7c3aed" stroke-width="2.4" marker-end="url(#arrowA)"/>
  <path d="M 850.0,242.0 L 850.0,270.0" fill="none" stroke="#7c3aed" stroke-width="2.4" marker-end="url(#arrowA)"/>
  <path d="M 850.0,328.0 L 850.0,368.0" fill="none" stroke="#7c3aed" stroke-width="2.4" marker-end="url(#arrowA)"/>
  <path d="M 943.5,397.0 L 963.9,397.0 L 1060.6,207.0 L 1081.0,207.0" fill="none" stroke="#7c3aed" stroke-width="2.4" marker-end="url(#arrowA)"/>
  <path d="M 1241.0,242.0 L 1241.0,270.0" fill="none" stroke="#7c3aed" stroke-width="2.4" marker-end="url(#arrowA)"/>
  <path d="M 1241.0,328.0 L 1241.0,368.0" fill="none" stroke="#7c3aed" stroke-width="2.4" marker-end="url(#arrowA)"/>
  <rect x="86.5" y="172.0" width="187.0" height="70.0" rx="10.0" fill="#eff6ff" stroke="#bfdbfe" stroke-width="1.8"/>
  <text x="180.0" y="207.0" text-anchor="middle" class="node-title">docker / containerd</text>
  <text x="180.0" y="229.0" text-anchor="middle" class="node-sub">CRI-O</text>
  <rect x="86.5" y="270.0" width="187.0" height="70.0" rx="10.0" fill="#f0fdf4" stroke="#bbf7d0" stroke-width="1.8"/>
  <text x="180.0" y="305.0" text-anchor="middle" class="node-title">OCI runtime spec&lt;br</text>
  <text x="180.0" y="327.0" text-anchor="middle" class="node-sub">&gt;config.json</text>
  <rect x="69.0" y="368.0" width="222.0" height="58.0" rx="10.0" fill="#fff7ed" stroke="#fed7aa" stroke-width="1.8"/>
  <text x="180.0" y="397.0" text-anchor="middle" class="node-title">nvidia-container-runtime</text>
  <rect x="383.0" y="172.0" width="236.0" height="58.0" rx="10.0" fill="#faf5ff" stroke="#e9d5ff" stroke-width="1.8"/>
  <text x="501.0" y="201.0" text-anchor="middle" class="node-title">修改 spec&lt;br/&gt;加入 NVIDIA hook</text>
  <rect x="419.0" y="270.0" width="164.0" height="58.0" rx="10.0" fill="#f0fdfa" stroke="#99f6e4" stroke-width="1.8"/>
  <text x="501.0" y="299.0" text-anchor="middle" class="node-title">runc</text>
  <rect x="407.5" y="368.0" width="187.0" height="70.0" rx="10.0" fill="#f8fafc" stroke="#cbd5e1" stroke-width="1.8"/>
  <text x="501.0" y="403.0" text-anchor="middle" class="node-title">创建 namespace</text>
  <text x="501.0" y="425.0" text-anchor="middle" class="node-sub">cgroup&lt;br/&gt;尚未启动用户进程</text>
  <rect x="711.0" y="172.0" width="278.0" height="70.0" rx="10.0" fill="#eff6ff" stroke="#bfdbfe" stroke-width="1.8"/>
  <text x="850.0" y="207.0" text-anchor="middle" class="node-title">nvidia-container-runtime-hook&lt;br</text>
  <text x="850.0" y="229.0" text-anchor="middle" class="node-sub">&gt;prestart hook</text>
  <rect x="753.0" y="270.0" width="194.0" height="58.0" rx="10.0" fill="#f0fdf4" stroke="#bbf7d0" stroke-width="1.8"/>
  <text x="850.0" y="299.0" text-anchor="middle" class="node-title">nvidia-container-cli</text>
  <rect x="756.5" y="368.0" width="187.0" height="58.0" rx="10.0" fill="#fff7ed" stroke="#fed7aa" stroke-width="1.8"/>
  <text x="850.0" y="397.0" text-anchor="middle" class="node-title">libnvidia-container</text>
  <rect x="1081.0" y="172.0" width="320.0" height="70.0" rx="10.0" fill="#faf5ff" stroke="#e9d5ff" stroke-width="1.8"/>
  <text x="1241.0" y="207.0" text-anchor="middle" class="node-title">bind mount GPU devices&lt;br/&gt;driver libs</text>
  <text x="1241.0" y="229.0" text-anchor="middle" class="node-sub">binaries</text>
  <rect x="1159.0" y="270.0" width="164.0" height="58.0" rx="10.0" fill="#f0fdfa" stroke="#99f6e4" stroke-width="1.8"/>
  <text x="1241.0" y="299.0" text-anchor="middle" class="node-title">runc 启动容器进程</text>
  <rect x="1144.0" y="368.0" width="194.0" height="58.0" rx="10.0" fill="#f8fafc" stroke="#cbd5e1" stroke-width="1.8"/>
  <text x="1241.0" y="397.0" text-anchor="middle" class="node-title">CUDA / NCCL / AI app</text>
  <line x1="42.0" y1="562.0" x2="72.0" y2="562.0" stroke="#7c3aed" stroke-width="2.4" marker-end="url(#arrowA)"/>
  <text x="82.0" y="566.0" class="legend">主路径 / 阶段推进</text>
  <text x="1190.0" y="584.0" class="footnote">Rendered with fireworks-tech-graph</text>
</svg>