<svg xmlns="http://www.w3.org/2000/svg" viewBox="0 0 960 1152" width="960" height="1152">
  <defs>
    <marker id="arrowA" markerWidth="10" markerHeight="7" refX="9" refY="3.5" orient="auto">
      <polygon points="0 0, 10 3.5, 0 7" fill="#7c3aed"/>
    </marker>
    <marker id="arrowB" markerWidth="10" markerHeight="7" refX="9" refY="3.5" orient="auto">
      <polygon points="0 0, 10 3.5, 0 7" fill="#10b981"/>
    </marker>
    <marker id="arrowC" markerWidth="10" markerHeight="7" refX="9" refY="3.5" orient="auto">
      <polygon points="0 0, 10 3.5, 0 7" fill="#2563eb"/>
    </marker>
    <marker id="arrowE" markerWidth="10" markerHeight="7" refX="9" refY="3.5" orient="auto">
      <polygon points="0 0, 10 3.5, 0 7" fill="#f97316"/>
    </marker>
    <marker id="arrowF" markerWidth="10" markerHeight="7" refX="9" refY="3.5" orient="auto">
      <polygon points="0 0, 10 3.5, 0 7" fill="#7c3aed"/>
    </marker>
    <marker id="arrowG" markerWidth="10" markerHeight="7" refX="9" refY="3.5" orient="auto">
      <polygon points="0 0, 10 3.5, 0 7" fill="#ef4444"/>
    </marker>
    <marker id="arrowH" markerWidth="10" markerHeight="7" refX="9" refY="3.5" orient="auto">
      <polygon points="0 0, 10 3.5, 0 7" fill="#6b7280"/>
    </marker>
    <filter id="shadowSoft" x="-20%" y="-20%" width="140%" height="160%">
      <feDropShadow dx="0" dy="3" stdDeviation="6" flood-color="#0f172a" flood-opacity="0.12"/>
    </filter>
    <filter id="shadowGlass" x="-20%" y="-20%" width="140%" height="160%">
      <feDropShadow dx="0" dy="10" stdDeviation="16" flood-color="#020617" flood-opacity="0.28"/>
    </filter>
    <style>
    text { font-family: 'Helvetica Neue', Helvetica, Arial, 'PingFang SC', 'Microsoft YaHei', 'Microsoft JhengHei', 'SimHei', sans-serif; }
    .title { font-size: 30px; font-weight: 700; fill: #111827; }
    .subtitle { font-size: 14px; font-weight: 500; fill: #6b7280; }
    .section { font-size: 13px; font-weight: 700; fill: #2563eb; letter-spacing: 1.4px; }
    .section-sub { font-size: 12px; font-weight: 500; fill: #94a3b8; }
    .node-title { font-size: 18px; font-weight: 700; fill: #111827; }
    .node-sub { font-size: 12px; font-weight: 500; fill: #6b7280; }
    .node-type { font-size: 12px; font-weight: 700; fill: #9ca3af; letter-spacing: 0.08em; }
    .arrow-label { font-size: 12px; font-weight: 600; fill: #6b7280; }
    .legend { font-size: 12px; font-weight: 500; fill: #6b7280; }
    .footnote { font-size: 12px; font-weight: 500; fill: #94a3b8; }
    </style>
  </defs>
  <rect width="960.0" height="1152.0" fill="#ffffff"/>
  <text x="480.0" y="56" text-anchor="middle" class="title">36.2.2 系统架构</text>
  <text x="480.0" y="82" text-anchor="middle" class="subtitle">part-08-physical-infrastructure/chapter-36-ai-datacenter-engineering.md:70</text>
  <path d="M 346.0,224.0 L 346.0,244.4 L 480.0,275.6 L 480.0,296.0" fill="none" stroke="#7c3aed" stroke-width="2.4" marker-end="url(#arrowA)"/>
  <path d="M 480.0,354.0 L 480.0,374.4 L 349.5,405.6 L 349.5,426.0" fill="none" stroke="#7c3aed" stroke-width="2.4" marker-end="url(#arrowA)"/>
  <path d="M 480.0,354.0 L 480.0,374.4 L 617.5,405.6 L 617.5,426.0" fill="none" stroke="#7c3aed" stroke-width="2.4" marker-end="url(#arrowA)"/>
  <path d="M 349.5,484.0 L 349.5,504.4 L 480.0,535.6 L 480.0,556.0" fill="none" stroke="#7c3aed" stroke-width="2.4" marker-end="url(#arrowA)"/>
  <path d="M 617.5,484.0 L 617.5,504.4 L 480.0,535.6 L 480.0,556.0" fill="none" stroke="#7c3aed" stroke-width="2.4" marker-end="url(#arrowA)"/>
  <path d="M 480.0,614.0 L 480.0,686.0" fill="none" stroke="#7c3aed" stroke-width="2.4" marker-end="url(#arrowA)"/>
  <path d="M 480.0,756.0 L 480.0,828.0" fill="none" stroke="#7c3aed" stroke-width="2.4" marker-end="url(#arrowA)"/>
  <path d="M 480.0,886.0 L 480.0,958.0" fill="none" stroke="#7c3aed" stroke-width="2.4" marker-end="url(#arrowA)"/>
  <path d="M 499.5,189.0 L 453.5,189.0" fill="none" stroke="#7c3aed" stroke-width="2.4" marker-end="url(#arrowA)"/>
  <path d="M 610.5,224.0 L 610.5,244.4 L 480.0,275.6 L 480.0,296.0" fill="none" stroke="#7c3aed" stroke-width="2.4" marker-end="url(#arrowA)"/>
  <path d="M 610.5,224.0 L 610.5,244.4 L 480.0,807.6 L 480.0,828.0" fill="none" stroke="#7c3aed" stroke-width="2.4" marker-end="url(#arrowA)"/>
  <rect x="238.5" y="154.0" width="215.0" height="70.0" rx="10.0" fill="#eff6ff" stroke="#bfdbfe" stroke-width="1.8"/>
  <text x="346.0" y="189.0" text-anchor="middle" class="node-title">Facility: Space / Power</text>
  <text x="346.0" y="211.0" text-anchor="middle" class="node-sub">Cooling</text>
  <rect x="499.5" y="154.0" width="222.0" height="70.0" rx="10.0" fill="#fff7ed" stroke="#fed7aa" stroke-width="1.8"/>
  <text x="610.5" y="189.0" text-anchor="middle" class="node-title">Power / Thermal / Liquid</text>
  <text x="610.5" y="211.0" text-anchor="middle" class="node-sub">Link Telemetry</text>
  <rect x="397.0" y="296.0" width="166.0" height="58.0" rx="10.0" fill="#f0fdf4" stroke="#bbf7d0" stroke-width="1.8"/>
  <text x="480.0" y="325.0" text-anchor="middle" class="node-title">Rack / PDU / CDU</text>
  <rect x="235.0" y="426.0" width="229.0" height="58.0" rx="10.0" fill="#fff7ed" stroke="#fed7aa" stroke-width="1.8"/>
  <text x="349.5" y="455.0" text-anchor="middle" class="node-title">GPU Server / Compute Tray</text>
  <rect x="510.0" y="426.0" width="215.0" height="58.0" rx="10.0" fill="#faf5ff" stroke="#e9d5ff" stroke-width="1.8"/>
  <text x="617.5" y="455.0" text-anchor="middle" class="node-title">Switch / Cabling / Rail</text>
  <rect x="372.5" y="556.0" width="215.0" height="58.0" rx="10.0" fill="#f0fdfa" stroke="#99f6e4" stroke-width="1.8"/>
  <text x="480.0" y="585.0" text-anchor="middle" class="node-title">Bare Metal Provisioning</text>
  <rect x="379.5" y="686.0" width="201.0" height="70.0" rx="10.0" fill="#f8fafc" stroke="#cbd5e1" stroke-width="1.8"/>
  <text x="480.0" y="721.0" text-anchor="middle" class="node-title">Burn-in / NCCL / RDMA</text>
  <text x="480.0" y="743.0" text-anchor="middle" class="node-sub">Storage</text>
  <rect x="393.5" y="828.0" width="173.0" height="58.0" rx="10.0" fill="#eff6ff" stroke="#bfdbfe" stroke-width="1.8"/>
  <text x="480.0" y="857.0" text-anchor="middle" class="node-title">GPU Resource Pool</text>
  <rect x="390.0" y="958.0" width="180.0" height="58.0" rx="10.0" fill="#f0fdf4" stroke="#bbf7d0" stroke-width="1.8"/>
  <text x="480.0" y="987.0" text-anchor="middle" class="node-title">Kubernetes / Slurm</text>
  <text x="680.0" y="1136.0" class="footnote">Rendered with fireworks-tech-graph</text>
</svg>