<svg xmlns="http://www.w3.org/2000/svg" viewBox="0 0 1040 600" width="1040" height="600">
  <defs>
    <marker id="arrowA" markerWidth="10" markerHeight="7" refX="9" refY="3.5" orient="auto">
      <polygon points="0 0, 10 3.5, 0 7" fill="#7c3aed"/>
    </marker>
    <marker id="arrowB" markerWidth="10" markerHeight="7" refX="9" refY="3.5" orient="auto">
      <polygon points="0 0, 10 3.5, 0 7" fill="#10b981"/>
    </marker>
    <marker id="arrowC" markerWidth="10" markerHeight="7" refX="9" refY="3.5" orient="auto">
      <polygon points="0 0, 10 3.5, 0 7" fill="#2563eb"/>
    </marker>
    <marker id="arrowE" markerWidth="10" markerHeight="7" refX="9" refY="3.5" orient="auto">
      <polygon points="0 0, 10 3.5, 0 7" fill="#f97316"/>
    </marker>
    <marker id="arrowF" markerWidth="10" markerHeight="7" refX="9" refY="3.5" orient="auto">
      <polygon points="0 0, 10 3.5, 0 7" fill="#7c3aed"/>
    </marker>
    <marker id="arrowG" markerWidth="10" markerHeight="7" refX="9" refY="3.5" orient="auto">
      <polygon points="0 0, 10 3.5, 0 7" fill="#ef4444"/>
    </marker>
    <marker id="arrowH" markerWidth="10" markerHeight="7" refX="9" refY="3.5" orient="auto">
      <polygon points="0 0, 10 3.5, 0 7" fill="#6b7280"/>
    </marker>
    <filter id="shadowSoft" x="-20%" y="-20%" width="140%" height="160%">
      <feDropShadow dx="0" dy="3" stdDeviation="6" flood-color="#0f172a" flood-opacity="0.12"/>
    </filter>
    <filter id="shadowGlass" x="-20%" y="-20%" width="140%" height="160%">
      <feDropShadow dx="0" dy="10" stdDeviation="16" flood-color="#020617" flood-opacity="0.28"/>
    </filter>
    <style>
    text { font-family: 'Helvetica Neue', Helvetica, Arial, 'PingFang SC', 'Microsoft YaHei', 'Microsoft JhengHei', 'SimHei', sans-serif; }
    .title { font-size: 30px; font-weight: 700; fill: #111827; }
    .subtitle { font-size: 14px; font-weight: 500; fill: #6b7280; }
    .section { font-size: 13px; font-weight: 700; fill: #2563eb; letter-spacing: 1.4px; }
    .section-sub { font-size: 12px; font-weight: 500; fill: #94a3b8; }
    .node-title { font-size: 18px; font-weight: 700; fill: #111827; }
    .node-sub { font-size: 12px; font-weight: 500; fill: #6b7280; }
    .node-type { font-size: 12px; font-weight: 700; fill: #9ca3af; letter-spacing: 0.08em; }
    .arrow-label { font-size: 12px; font-weight: 600; fill: #6b7280; }
    .legend { font-size: 12px; font-weight: 500; fill: #6b7280; }
    .footnote { font-size: 12px; font-weight: 500; fill: #94a3b8; }
    </style>
  </defs>
  <rect width="1040.0" height="600.0" fill="#ffffff"/>
  <text x="520.0" y="56" text-anchor="middle" class="title">18.3.8 通信瓶颈分析</text>
  <text x="520.0" y="82" text-anchor="middle" class="subtitle">part-04-runtime/chapter-18-collective-communication.md:311</text>
  <rect x="50.5" y="118.0" width="241.0" height="372.0" rx="16.0" fill="#f8fafc" stroke="#dbe5f1" stroke-width="1.4" stroke-dasharray="7 5"/>
  <text x="68.5" y="142.0" class="section">阶段 1</text>
  <text x="68.5" y="162.0" class="section-sub">collective trace -&gt; network path</text>
  <rect x="329.5" y="118.0" width="332.0" height="372.0" rx="16.0" fill="#ffffff" stroke="#dbe5f1" stroke-width="1.4" stroke-dasharray="7 5"/>
  <text x="347.5" y="142.0" class="section">阶段 2</text>
  <text x="347.5" y="162.0" class="section-sub">skew analysis -&gt; root cause candidates</text>
  <rect x="699.5" y="118.0" width="290.0" height="372.0" rx="16.0" fill="#f8fafc" stroke="#dbe5f1" stroke-width="1.4" stroke-dasharray="7 5"/>
  <text x="717.5" y="142.0" class="section">阶段 3</text>
  <text x="717.5" y="162.0" class="section-sub">action -&gt; baseline update</text>
  <path d="M 171.0,242.0 L 171.0,270.0" fill="none" stroke="#7c3aed" stroke-width="2.4" marker-end="url(#arrowA)"/>
  <path d="M 171.0,340.0 L 171.0,368.0" fill="none" stroke="#7c3aed" stroke-width="2.4" marker-end="url(#arrowA)"/>
  <path d="M 261.0,403.0 L 281.4,403.0 L 374.6,256.0 L 395.0,256.0" fill="none" stroke="#7c3aed" stroke-width="2.4" marker-end="url(#arrowA)"/>
  <path d="M 495.5,291.0 L 495.5,319.0" fill="none" stroke="#7c3aed" stroke-width="2.4" marker-end="url(#arrowA)"/>
  <path d="M 634.5,354.0 L 654.9,354.0 L 706.1,256.0 L 726.5,256.0" fill="none" stroke="#7c3aed" stroke-width="2.4" marker-end="url(#arrowA)"/>
  <path d="M 844.5,291.0 L 844.5,319.0" fill="none" stroke="#7c3aed" stroke-width="2.4" marker-end="url(#arrowA)"/>
  <rect x="77.5" y="172.0" width="187.0" height="70.0" rx="10.0" fill="#eff6ff" stroke="#bfdbfe" stroke-width="1.8"/>
  <text x="171.0" y="207.0" text-anchor="middle" class="node-title">collective trace</text>
  <text x="171.0" y="229.0" text-anchor="middle" class="node-sub">name / size / ranks</text>
  <rect x="88.0" y="270.0" width="166.0" height="70.0" rx="10.0" fill="#f0fdf4" stroke="#bbf7d0" stroke-width="1.8"/>
  <text x="171.0" y="305.0" text-anchor="middle" class="node-title">rank mapping</text>
  <text x="171.0" y="327.0" text-anchor="middle" class="node-sub">GPU / NIC / rail</text>
  <rect x="81.0" y="368.0" width="180.0" height="70.0" rx="10.0" fill="#fff7ed" stroke="#fed7aa" stroke-width="1.8"/>
  <text x="171.0" y="403.0" text-anchor="middle" class="node-title">network path</text>
  <text x="171.0" y="425.0" text-anchor="middle" class="node-sub">NVLink / IB / RoCE</text>
  <rect x="395.0" y="221.0" width="201.0" height="70.0" rx="10.0" fill="#faf5ff" stroke="#e9d5ff" stroke-width="1.8"/>
  <text x="495.5" y="256.0" text-anchor="middle" class="node-title">skew analysis</text>
  <text x="495.5" y="278.0" text-anchor="middle" class="node-sub">slow rank / imbalance</text>
  <rect x="356.5" y="319.0" width="278.0" height="70.0" rx="10.0" fill="#f0fdfa" stroke="#99f6e4" stroke-width="1.8"/>
  <text x="495.5" y="354.0" text-anchor="middle" class="node-title">root cause candidates</text>
  <text x="495.5" y="376.0" text-anchor="middle" class="node-sub">placement / fabric / compute lag</text>
  <rect x="726.5" y="221.0" width="236.0" height="70.0" rx="10.0" fill="#f8fafc" stroke="#cbd5e1" stroke-width="1.8"/>
  <text x="844.5" y="256.0" text-anchor="middle" class="node-title">action</text>
  <text x="844.5" y="278.0" text-anchor="middle" class="node-sub">reroute / isolate / retune</text>
  <rect x="761.5" y="319.0" width="166.0" height="70.0" rx="10.0" fill="#eff6ff" stroke="#bfdbfe" stroke-width="1.8"/>
  <text x="844.5" y="354.0" text-anchor="middle" class="node-title">baseline update</text>
  <text x="844.5" y="376.0" text-anchor="middle" class="node-sub">regression guard</text>
  <line x1="42.0" y1="562.0" x2="72.0" y2="562.0" stroke="#7c3aed" stroke-width="2.4" marker-end="url(#arrowA)"/>
  <text x="82.0" y="566.0" class="legend">主路径 / 阶段推进</text>
  <text x="760.0" y="584.0" class="footnote">Rendered with fireworks-tech-graph</text>
</svg>