<svg xmlns="http://www.w3.org/2000/svg" viewBox="0 0 1699 928" width="1699" height="928">
  <defs>
    <marker id="arrowA" markerWidth="10" markerHeight="7" refX="9" refY="3.5" orient="auto">
      <polygon points="0 0, 10 3.5, 0 7" fill="#7c3aed"/>
    </marker>
    <marker id="arrowB" markerWidth="10" markerHeight="7" refX="9" refY="3.5" orient="auto">
      <polygon points="0 0, 10 3.5, 0 7" fill="#10b981"/>
    </marker>
    <marker id="arrowC" markerWidth="10" markerHeight="7" refX="9" refY="3.5" orient="auto">
      <polygon points="0 0, 10 3.5, 0 7" fill="#2563eb"/>
    </marker>
    <marker id="arrowE" markerWidth="10" markerHeight="7" refX="9" refY="3.5" orient="auto">
      <polygon points="0 0, 10 3.5, 0 7" fill="#f97316"/>
    </marker>
    <marker id="arrowF" markerWidth="10" markerHeight="7" refX="9" refY="3.5" orient="auto">
      <polygon points="0 0, 10 3.5, 0 7" fill="#7c3aed"/>
    </marker>
    <marker id="arrowG" markerWidth="10" markerHeight="7" refX="9" refY="3.5" orient="auto">
      <polygon points="0 0, 10 3.5, 0 7" fill="#ef4444"/>
    </marker>
    <marker id="arrowH" markerWidth="10" markerHeight="7" refX="9" refY="3.5" orient="auto">
      <polygon points="0 0, 10 3.5, 0 7" fill="#6b7280"/>
    </marker>
    <filter id="shadowSoft" x="-20%" y="-20%" width="140%" height="160%">
      <feDropShadow dx="0" dy="3" stdDeviation="6" flood-color="#0f172a" flood-opacity="0.12"/>
    </filter>
    <filter id="shadowGlass" x="-20%" y="-20%" width="140%" height="160%">
      <feDropShadow dx="0" dy="10" stdDeviation="16" flood-color="#020617" flood-opacity="0.28"/>
    </filter>
    <style>
    text { font-family: 'Helvetica Neue', Helvetica, Arial, 'PingFang SC', 'Microsoft YaHei', 'Microsoft JhengHei', 'SimHei', sans-serif; }
    .title { font-size: 30px; font-weight: 700; fill: #111827; }
    .subtitle { font-size: 14px; font-weight: 500; fill: #6b7280; }
    .section { font-size: 13px; font-weight: 700; fill: #2563eb; letter-spacing: 1.4px; }
    .section-sub { font-size: 12px; font-weight: 500; fill: #94a3b8; }
    .node-title { font-size: 18px; font-weight: 700; fill: #111827; }
    .node-sub { font-size: 12px; font-weight: 500; fill: #6b7280; }
    .node-type { font-size: 12px; font-weight: 700; fill: #9ca3af; letter-spacing: 0.08em; }
    .arrow-label { font-size: 12px; font-weight: 600; fill: #6b7280; }
    .legend { font-size: 12px; font-weight: 500; fill: #6b7280; }
    .footnote { font-size: 12px; font-weight: 500; fill: #94a3b8; }
    </style>
  </defs>
  <rect width="1699.0" height="928.0" fill="#ffffff"/>
  <text x="849.5" y="56" text-anchor="middle" class="title">39.3.8 inference latency spike</text>
  <text x="849.5" y="82" text-anchor="middle" class="subtitle">part-09-reliability-observability/chapter-39-troubleshooting.md:1192</text>
  <path d="M 849.5,224.0 L 849.5,296.0" fill="none" stroke="#7c3aed" stroke-width="2.4" marker-end="url(#arrowA)"/>
  <path d="M 849.5,366.0 L 849.5,438.0" fill="none" stroke="#7c3aed" stroke-width="2.4" marker-end="url(#arrowA)"/>
  <path d="M 849.5,508.0 L 849.5,528.4 L 237.5,559.6 L 237.5,580.0" fill="none" stroke="#7c3aed" stroke-width="2.4" marker-end="url(#arrowA)"/>
  <path d="M 849.5,508.0 L 849.5,528.4 L 579.0,565.6 L 579.0,586.0" fill="none" stroke="#7c3aed" stroke-width="2.4" marker-end="url(#arrowA)"/>
  <path d="M 849.5,508.0 L 849.5,528.4 L 857.5,559.6 L 857.5,580.0" fill="none" stroke="#7c3aed" stroke-width="2.4" marker-end="url(#arrowA)"/>
  <path d="M 849.5,508.0 L 849.5,528.4 L 1100.0,559.6 L 1100.0,580.0" fill="none" stroke="#7c3aed" stroke-width="2.4" marker-end="url(#arrowA)"/>
  <path d="M 849.5,508.0 L 849.5,528.4 L 1328.5,565.6 L 1328.5,586.0" fill="none" stroke="#7c3aed" stroke-width="2.4" marker-end="url(#arrowA)"/>
  <path d="M 1328.5,644.0 L 1328.5,664.4 L 726.0,701.6 L 726.0,722.0" fill="none" stroke="#7c3aed" stroke-width="2.4" marker-end="url(#arrowA)"/>
  <path d="M 849.5,508.0 L 849.5,528.4 L 1557.0,565.6 L 1557.0,586.0" fill="none" stroke="#7c3aed" stroke-width="2.4" marker-end="url(#arrowA)"/>
  <path d="M 237.5,650.0 L 237.5,670.4 L 973.0,707.6 L 973.0,728.0" fill="none" stroke="#7c3aed" stroke-width="2.4" marker-end="url(#arrowA)"/>
  <path d="M 579.0,644.0 L 579.0,664.4 L 973.0,707.6 L 973.0,728.0" fill="none" stroke="#7c3aed" stroke-width="2.4" marker-end="url(#arrowA)"/>
  <path d="M 857.5,650.0 L 857.5,670.4 L 973.0,707.6 L 973.0,728.0" fill="none" stroke="#7c3aed" stroke-width="2.4" marker-end="url(#arrowA)"/>
  <path d="M 1100.0,650.0 L 1100.0,670.4 L 973.0,707.6 L 973.0,728.0" fill="none" stroke="#7c3aed" stroke-width="2.4" marker-end="url(#arrowA)"/>
  <path d="M 1557.0,644.0 L 1557.0,664.4 L 973.0,707.6 L 973.0,728.0" fill="none" stroke="#7c3aed" stroke-width="2.4" marker-end="url(#arrowA)"/>
  <rect x="756.0" y="154.0" width="187.0" height="70.0" rx="10.0" fill="#eff6ff" stroke="#bfdbfe" stroke-width="1.8"/>
  <text x="849.5" y="189.0" text-anchor="middle" class="node-title">ResourceClaim</text>
  <text x="849.5" y="211.0" text-anchor="middle" class="node-sub">GPU request symptom</text>
  <rect x="759.5" y="296.0" width="180.0" height="70.0" rx="10.0" fill="#f0fdf4" stroke="#bbf7d0" stroke-width="1.8"/>
  <text x="849.5" y="331.0" text-anchor="middle" class="node-title">gpu_resource_claim</text>
  <text x="849.5" y="353.0" text-anchor="middle" class="node-sub">contract</text>
  <rect x="738.5" y="438.0" width="222.0" height="70.0" rx="10.0" fill="#fff7ed" stroke="#fed7aa" stroke-width="1.8"/>
  <text x="849.5" y="473.0" text-anchor="middle" class="node-title">resource_claim_admission</text>
  <text x="849.5" y="495.0" text-anchor="middle" class="node-sub">record</text>
  <rect x="60.0" y="580.0" width="355.0" height="70.0" rx="10.0" fill="#faf5ff" stroke="#e9d5ff" stroke-width="1.8"/>
  <text x="237.5" y="615.0" text-anchor="middle" class="node-title">claim spec</text>
  <text x="237.5" y="637.0" text-anchor="middle" class="node-sub">DeviceClass / ResourceClaim / resource name</text>
  <rect x="461.0" y="586.0" width="236.0" height="58.0" rx="10.0" fill="#f0fdfa" stroke="#99f6e4" stroke-width="1.8"/>
  <text x="579.0" y="615.0" text-anchor="middle" class="node-title">entitlement / quota / cost</text>
  <rect x="743.0" y="580.0" width="229.0" height="70.0" rx="10.0" fill="#f8fafc" stroke="#cbd5e1" stroke-width="1.8"/>
  <text x="857.5" y="615.0" text-anchor="middle" class="node-title">ResourceSlice / inventory</text>
  <text x="857.5" y="637.0" text-anchor="middle" class="node-sub">acceptance</text>
  <rect x="1018.0" y="580.0" width="164.0" height="70.0" rx="10.0" fill="#eff6ff" stroke="#bfdbfe" stroke-width="1.8"/>
  <text x="1100.0" y="615.0" text-anchor="middle" class="node-title">topology / RDMA</text>
  <text x="1100.0" y="637.0" text-anchor="middle" class="node-sub">rank contract</text>
  <rect x="1228.0" y="586.0" width="201.0" height="58.0" rx="10.0" fill="#f0fdf4" stroke="#bbf7d0" stroke-width="1.8"/>
  <text x="1328.5" y="615.0" text-anchor="middle" class="node-title">assignment -&gt; OCI/CDI</text>
  <rect x="1475.0" y="586.0" width="164.0" height="58.0" rx="10.0" fill="#faf5ff" stroke="#e9d5ff" stroke-width="1.8"/>
  <text x="1557.0" y="615.0" text-anchor="middle" class="node-title">metering labels</text>
  <rect x="625.5" y="722.0" width="201.0" height="70.0" rx="10.0" fill="#fff7ed" stroke="#fed7aa" stroke-width="1.8"/>
  <text x="726.0" y="757.0" text-anchor="middle" class="node-title">container_gpu_runtime</text>
  <text x="726.0" y="779.0" text-anchor="middle" class="node-sub">fault_tree</text>
  <rect x="872.5" y="728.0" width="201.0" height="58.0" rx="10.0" fill="#f0fdfa" stroke="#99f6e4" stroke-width="1.8"/>
  <text x="973.0" y="757.0" text-anchor="middle" class="node-title">fault domain + action</text>
  <text x="1419.0" y="912.0" class="footnote">Rendered with fireworks-tech-graph</text>
</svg>