<svg xmlns="http://www.w3.org/2000/svg" viewBox="0 0 2575 360" width="2575" height="360">
  <defs>
    <marker id="arrowA" markerWidth="10" markerHeight="7" refX="9" refY="3.5" orient="auto">
      <polygon points="0 0, 10 3.5, 0 7" fill="#7c3aed"/>
    </marker>
    <marker id="arrowB" markerWidth="10" markerHeight="7" refX="9" refY="3.5" orient="auto">
      <polygon points="0 0, 10 3.5, 0 7" fill="#10b981"/>
    </marker>
    <marker id="arrowC" markerWidth="10" markerHeight="7" refX="9" refY="3.5" orient="auto">
      <polygon points="0 0, 10 3.5, 0 7" fill="#2563eb"/>
    </marker>
    <marker id="arrowE" markerWidth="10" markerHeight="7" refX="9" refY="3.5" orient="auto">
      <polygon points="0 0, 10 3.5, 0 7" fill="#f97316"/>
    </marker>
    <marker id="arrowF" markerWidth="10" markerHeight="7" refX="9" refY="3.5" orient="auto">
      <polygon points="0 0, 10 3.5, 0 7" fill="#7c3aed"/>
    </marker>
    <marker id="arrowG" markerWidth="10" markerHeight="7" refX="9" refY="3.5" orient="auto">
      <polygon points="0 0, 10 3.5, 0 7" fill="#ef4444"/>
    </marker>
    <marker id="arrowH" markerWidth="10" markerHeight="7" refX="9" refY="3.5" orient="auto">
      <polygon points="0 0, 10 3.5, 0 7" fill="#6b7280"/>
    </marker>
    <filter id="shadowSoft" x="-20%" y="-20%" width="140%" height="160%">
      <feDropShadow dx="0" dy="3" stdDeviation="6" flood-color="#0f172a" flood-opacity="0.12"/>
    </filter>
    <filter id="shadowGlass" x="-20%" y="-20%" width="140%" height="160%">
      <feDropShadow dx="0" dy="10" stdDeviation="16" flood-color="#020617" flood-opacity="0.28"/>
    </filter>
    <style>
    text { font-family: 'Helvetica Neue', Helvetica, Arial, 'PingFang SC', 'Microsoft YaHei', 'Microsoft JhengHei', 'SimHei', sans-serif; }
    .title { font-size: 30px; font-weight: 700; fill: #111827; }
    .subtitle { font-size: 14px; font-weight: 500; fill: #6b7280; }
    .section { font-size: 13px; font-weight: 700; fill: #2563eb; letter-spacing: 1.4px; }
    .section-sub { font-size: 12px; font-weight: 500; fill: #94a3b8; }
    .node-title { font-size: 18px; font-weight: 700; fill: #111827; }
    .node-sub { font-size: 12px; font-weight: 500; fill: #6b7280; }
    .node-type { font-size: 12px; font-weight: 700; fill: #9ca3af; letter-spacing: 0.08em; }
    .arrow-label { font-size: 12px; font-weight: 600; fill: #6b7280; }
    .legend { font-size: 12px; font-weight: 500; fill: #6b7280; }
    .footnote { font-size: 12px; font-weight: 500; fill: #94a3b8; }
    </style>
  </defs>
  <rect width="2575.0" height="360.0" fill="#ffffff"/>
  <text x="1287.5" y="56" text-anchor="middle" class="title">33.2.2 系统架构</text>
  <text x="1287.5" y="82" text-anchor="middle" class="subtitle">part-07-network-storage/chapter-33-ai-storage.md:87</text>
  <path d="M 260.0,161.0 L 332.0,161.0" fill="none" stroke="#7c3aed" stroke-width="2.4" marker-end="url(#arrowA)"/>
  <path d="M 526.0,161.0 L 598.0,161.0" fill="none" stroke="#7c3aed" stroke-width="2.4" marker-end="url(#arrowA)"/>
  <path d="M 771.0,161.0 L 843.0,161.0" fill="none" stroke="#7c3aed" stroke-width="2.4" marker-end="url(#arrowA)"/>
  <path d="M 1065.0,161.0 L 1137.0,161.0" fill="none" stroke="#7c3aed" stroke-width="2.4" marker-end="url(#arrowA)"/>
  <path d="M 1352.0,161.0 L 1424.0,161.0" fill="none" stroke="#7c3aed" stroke-width="2.4" marker-end="url(#arrowA)"/>
  <path d="M 1618.0,161.0 L 1690.0,161.0" fill="none" stroke="#7c3aed" stroke-width="2.4" marker-end="url(#arrowA)"/>
  <path d="M 1898.0,161.0 L 1970.0,161.0" fill="none" stroke="#7c3aed" stroke-width="2.4" marker-end="url(#arrowA)"/>
  <path d="M 2164.0,161.0 L 2236.0,161.0" fill="none" stroke="#7c3aed" stroke-width="2.4" marker-end="url(#arrowA)"/>
  <rect x="96.0" y="126.0" width="164.0" height="70.0" rx="10.0" fill="#eff6ff" stroke="#bfdbfe" stroke-width="1.8"/>
  <text x="178.0" y="161.0" text-anchor="middle" class="node-title">job / endpoint</text>
  <text x="178.0" y="183.0" text-anchor="middle" class="node-sub">evaluation</text>
  <rect x="332.0" y="126.0" width="194.0" height="70.0" rx="10.0" fill="#f0fdf4" stroke="#bbf7d0" stroke-width="1.8"/>
  <text x="429.0" y="161.0" text-anchor="middle" class="node-title">dataset / checkpoint</text>
  <text x="429.0" y="183.0" text-anchor="middle" class="node-sub">artifact path</text>
  <rect x="598.0" y="126.0" width="173.0" height="70.0" rx="10.0" fill="#fff7ed" stroke="#fed7aa" stroke-width="1.8"/>
  <text x="684.5" y="161.0" text-anchor="middle" class="node-title">manifest / digest</text>
  <text x="684.5" y="183.0" text-anchor="middle" class="node-sub">version</text>
  <rect x="843.0" y="126.0" width="222.0" height="70.0" rx="10.0" fill="#faf5ff" stroke="#e9d5ff" stroke-width="1.8"/>
  <text x="954.0" y="161.0" text-anchor="middle" class="node-title">client node / pod / rank</text>
  <text x="954.0" y="183.0" text-anchor="middle" class="node-sub">replica</text>
  <rect x="1137.0" y="126.0" width="215.0" height="70.0" rx="10.0" fill="#f0fdfa" stroke="#99f6e4" stroke-width="1.8"/>
  <text x="1244.5" y="161.0" text-anchor="middle" class="node-title">local NVMe / rack cache</text>
  <text x="1244.5" y="183.0" text-anchor="middle" class="node-sub">remote cache</text>
  <rect x="1424.0" y="126.0" width="194.0" height="70.0" rx="10.0" fill="#f8fafc" stroke="#cbd5e1" stroke-width="1.8"/>
  <text x="1521.0" y="161.0" text-anchor="middle" class="node-title">PFS / Object Storage</text>
  <text x="1521.0" y="183.0" text-anchor="middle" class="node-sub">Registry</text>
  <rect x="1690.0" y="126.0" width="208.0" height="70.0" rx="10.0" fill="#eff6ff" stroke="#bfdbfe" stroke-width="1.8"/>
  <text x="1794.0" y="161.0" text-anchor="middle" class="node-title">latency / metadata ops</text>
  <text x="1794.0" y="183.0" text-anchor="middle" class="node-sub">throttle / errors</text>
  <rect x="1970.0" y="126.0" width="194.0" height="70.0" rx="10.0" fill="#f0fdf4" stroke="#bbf7d0" stroke-width="1.8"/>
  <text x="2067.0" y="161.0" text-anchor="middle" class="node-title">GPU idle / TTFT</text>
  <text x="2067.0" y="183.0" text-anchor="middle" class="node-sub">recovery time / cost</text>
  <rect x="2236.0" y="126.0" width="243.0" height="70.0" rx="10.0" fill="#fff7ed" stroke="#fed7aa" stroke-width="1.8"/>
  <text x="2357.5" y="161.0" text-anchor="middle" class="node-title">prewarm / reshard</text>
  <text x="2357.5" y="183.0" text-anchor="middle" class="node-sub">isolate / throttle / repair</text>
  <text x="2295.0" y="344.0" class="footnote">Rendered with fireworks-tech-graph</text>
</svg>