<svg xmlns="http://www.w3.org/2000/svg" viewBox="0 0 1142 1010" width="1142" height="1010">
  <defs>
    <marker id="arrowA" markerWidth="10" markerHeight="7" refX="9" refY="3.5" orient="auto">
      <polygon points="0 0, 10 3.5, 0 7" fill="#7c3aed"/>
    </marker>
    <marker id="arrowB" markerWidth="10" markerHeight="7" refX="9" refY="3.5" orient="auto">
      <polygon points="0 0, 10 3.5, 0 7" fill="#10b981"/>
    </marker>
    <marker id="arrowC" markerWidth="10" markerHeight="7" refX="9" refY="3.5" orient="auto">
      <polygon points="0 0, 10 3.5, 0 7" fill="#2563eb"/>
    </marker>
    <marker id="arrowE" markerWidth="10" markerHeight="7" refX="9" refY="3.5" orient="auto">
      <polygon points="0 0, 10 3.5, 0 7" fill="#f97316"/>
    </marker>
    <marker id="arrowF" markerWidth="10" markerHeight="7" refX="9" refY="3.5" orient="auto">
      <polygon points="0 0, 10 3.5, 0 7" fill="#7c3aed"/>
    </marker>
    <marker id="arrowG" markerWidth="10" markerHeight="7" refX="9" refY="3.5" orient="auto">
      <polygon points="0 0, 10 3.5, 0 7" fill="#ef4444"/>
    </marker>
    <marker id="arrowH" markerWidth="10" markerHeight="7" refX="9" refY="3.5" orient="auto">
      <polygon points="0 0, 10 3.5, 0 7" fill="#6b7280"/>
    </marker>
    <filter id="shadowSoft" x="-20%" y="-20%" width="140%" height="160%">
      <feDropShadow dx="0" dy="3" stdDeviation="6" flood-color="#0f172a" flood-opacity="0.12"/>
    </filter>
    <filter id="shadowGlass" x="-20%" y="-20%" width="140%" height="160%">
      <feDropShadow dx="0" dy="10" stdDeviation="16" flood-color="#020617" flood-opacity="0.28"/>
    </filter>
    <style>
    text { font-family: 'Helvetica Neue', Helvetica, Arial, 'PingFang SC', 'Microsoft YaHei', 'Microsoft JhengHei', 'SimHei', sans-serif; }
    .title { font-size: 30px; font-weight: 700; fill: #111827; }
    .subtitle { font-size: 14px; font-weight: 500; fill: #6b7280; }
    .section { font-size: 13px; font-weight: 700; fill: #2563eb; letter-spacing: 1.4px; }
    .section-sub { font-size: 12px; font-weight: 500; fill: #94a3b8; }
    .node-title { font-size: 18px; font-weight: 700; fill: #111827; }
    .node-sub { font-size: 12px; font-weight: 500; fill: #6b7280; }
    .node-type { font-size: 12px; font-weight: 700; fill: #9ca3af; letter-spacing: 0.08em; }
    .arrow-label { font-size: 12px; font-weight: 600; fill: #6b7280; }
    .legend { font-size: 12px; font-weight: 500; fill: #6b7280; }
    .footnote { font-size: 12px; font-weight: 500; fill: #94a3b8; }
    </style>
  </defs>
  <rect width="1142.0" height="1010.0" fill="#ffffff"/>
  <text x="571.0" y="56" text-anchor="middle" class="title">17.2.2 系统架构</text>
  <text x="571.0" y="82" text-anchor="middle" class="subtitle">part-04-runtime/chapter-17-distributed-parallelism.md:68</text>
  <path d="M 571.0,212.0 L 571.0,284.0" fill="none" stroke="#7c3aed" stroke-width="2.4" marker-end="url(#arrowA)"/>
  <path d="M 571.0,342.0 L 571.0,362.4 L 142.0,393.6 L 142.0,414.0" fill="none" stroke="#7c3aed" stroke-width="2.4" marker-end="url(#arrowA)"/>
  <path d="M 571.0,342.0 L 571.0,362.4 L 352.0,393.6 L 352.0,414.0" fill="none" stroke="#7c3aed" stroke-width="2.4" marker-end="url(#arrowA)"/>
  <path d="M 571.0,342.0 L 571.0,362.4 L 566.5,393.6 L 566.5,414.0" fill="none" stroke="#7c3aed" stroke-width="2.4" marker-end="url(#arrowA)"/>
  <path d="M 571.0,342.0 L 571.0,362.4 L 781.0,393.6 L 781.0,414.0" fill="none" stroke="#7c3aed" stroke-width="2.4" marker-end="url(#arrowA)"/>
  <path d="M 571.0,342.0 L 571.0,362.4 L 995.5,393.6 L 995.5,414.0" fill="none" stroke="#7c3aed" stroke-width="2.4" marker-end="url(#arrowA)"/>
  <path d="M 142.0,472.0 L 142.0,492.4 L 571.0,523.6 L 571.0,544.0" fill="none" stroke="#7c3aed" stroke-width="2.4" marker-end="url(#arrowA)"/>
  <path d="M 352.0,472.0 L 352.0,492.4 L 571.0,523.6 L 571.0,544.0" fill="none" stroke="#7c3aed" stroke-width="2.4" marker-end="url(#arrowA)"/>
  <path d="M 566.5,472.0 L 566.5,492.4 L 571.0,523.6 L 571.0,544.0" fill="none" stroke="#7c3aed" stroke-width="2.4" marker-end="url(#arrowA)"/>
  <path d="M 781.0,472.0 L 781.0,492.4 L 571.0,523.6 L 571.0,544.0" fill="none" stroke="#7c3aed" stroke-width="2.4" marker-end="url(#arrowA)"/>
  <path d="M 995.5,472.0 L 995.5,492.4 L 571.0,523.6 L 571.0,544.0" fill="none" stroke="#7c3aed" stroke-width="2.4" marker-end="url(#arrowA)"/>
  <path d="M 571.0,602.0 L 571.0,674.0" fill="none" stroke="#7c3aed" stroke-width="2.4" marker-end="url(#arrowA)"/>
  <path d="M 571.0,732.0 L 571.0,752.4 L 345.0,789.6 L 345.0,810.0" fill="none" stroke="#7c3aed" stroke-width="2.4" marker-end="url(#arrowA)"/>
  <path d="M 571.0,732.0 L 571.0,752.4 L 588.5,789.6 L 588.5,810.0" fill="none" stroke="#7c3aed" stroke-width="2.4" marker-end="url(#arrowA)"/>
  <path d="M 571.0,732.0 L 571.0,752.4 L 814.5,783.6 L 814.5,804.0" fill="none" stroke="#7c3aed" stroke-width="2.4" marker-end="url(#arrowA)"/>
  <rect x="489.0" y="154.0" width="164.0" height="58.0" rx="10.0" fill="#eff6ff" stroke="#bfdbfe" stroke-width="1.8"/>
  <text x="571.0" y="183.0" text-anchor="middle" class="node-title">模型结构</text>
  <rect x="489.0" y="284.0" width="164.0" height="58.0" rx="10.0" fill="#f0fdf4" stroke="#bbf7d0" stroke-width="1.8"/>
  <text x="571.0" y="313.0" text-anchor="middle" class="node-title">并行切分策略</text>
  <rect x="60.0" y="414.0" width="164.0" height="58.0" rx="10.0" fill="#fff7ed" stroke="#fed7aa" stroke-width="1.8"/>
  <text x="142.0" y="443.0" text-anchor="middle" class="node-title">Data Parallel</text>
  <rect x="270.0" y="414.0" width="164.0" height="58.0" rx="10.0" fill="#faf5ff" stroke="#e9d5ff" stroke-width="1.8"/>
  <text x="352.0" y="443.0" text-anchor="middle" class="node-title">Tensor Parallel</text>
  <rect x="480.0" y="414.0" width="173.0" height="58.0" rx="10.0" fill="#f0fdfa" stroke="#99f6e4" stroke-width="1.8"/>
  <text x="566.5" y="443.0" text-anchor="middle" class="node-title">Pipeline Parallel</text>
  <rect x="699.0" y="414.0" width="164.0" height="58.0" rx="10.0" fill="#f8fafc" stroke="#cbd5e1" stroke-width="1.8"/>
  <text x="781.0" y="443.0" text-anchor="middle" class="node-title">Expert Parallel</text>
  <rect x="909.0" y="414.0" width="173.0" height="58.0" rx="10.0" fill="#eff6ff" stroke="#bfdbfe" stroke-width="1.8"/>
  <text x="995.5" y="443.0" text-anchor="middle" class="node-title">Sequence Parallel</text>
  <rect x="477.5" y="544.0" width="187.0" height="58.0" rx="10.0" fill="#f0fdf4" stroke="#bbf7d0" stroke-width="1.8"/>
  <text x="571.0" y="573.0" text-anchor="middle" class="node-title">collective / P2P 通信</text>
  <rect x="489.0" y="674.0" width="164.0" height="58.0" rx="10.0" fill="#fff7ed" stroke="#fed7aa" stroke-width="1.8"/>
  <text x="571.0" y="703.0" text-anchor="middle" class="node-title">拓扑感知放置</text>
  <rect x="244.5" y="810.0" width="201.0" height="58.0" rx="10.0" fill="#faf5ff" stroke="#e9d5ff" stroke-width="1.8"/>
  <text x="345.0" y="839.0" text-anchor="middle" class="node-title">节点内 NVLink / NVSwitch</text>
  <rect x="491.5" y="810.0" width="194.0" height="58.0" rx="10.0" fill="#f0fdfa" stroke="#99f6e4" stroke-width="1.8"/>
  <text x="588.5" y="839.0" text-anchor="middle" class="node-title">跨节点 IB / RoCE / RDMA</text>
  <rect x="731.5" y="804.0" width="166.0" height="70.0" rx="10.0" fill="#f8fafc" stroke="#cbd5e1" stroke-width="1.8"/>
  <text x="814.5" y="839.0" text-anchor="middle" class="node-title">rank / group</text>
  <text x="814.5" y="861.0" text-anchor="middle" class="node-sub">topology metrics</text>
  <text x="862.0" y="994.0" class="footnote">Rendered with fireworks-tech-graph</text>
</svg>