<svg xmlns="http://www.w3.org/2000/svg" viewBox="0 0 2248 620" width="2248" height="620">
  <defs>
    <marker id="arrowA" markerWidth="10" markerHeight="7" refX="9" refY="3.5" orient="auto">
      <polygon points="0 0, 10 3.5, 0 7" fill="#7c3aed"/>
    </marker>
    <marker id="arrowB" markerWidth="10" markerHeight="7" refX="9" refY="3.5" orient="auto">
      <polygon points="0 0, 10 3.5, 0 7" fill="#10b981"/>
    </marker>
    <marker id="arrowC" markerWidth="10" markerHeight="7" refX="9" refY="3.5" orient="auto">
      <polygon points="0 0, 10 3.5, 0 7" fill="#2563eb"/>
    </marker>
    <marker id="arrowE" markerWidth="10" markerHeight="7" refX="9" refY="3.5" orient="auto">
      <polygon points="0 0, 10 3.5, 0 7" fill="#f97316"/>
    </marker>
    <marker id="arrowF" markerWidth="10" markerHeight="7" refX="9" refY="3.5" orient="auto">
      <polygon points="0 0, 10 3.5, 0 7" fill="#7c3aed"/>
    </marker>
    <marker id="arrowG" markerWidth="10" markerHeight="7" refX="9" refY="3.5" orient="auto">
      <polygon points="0 0, 10 3.5, 0 7" fill="#ef4444"/>
    </marker>
    <marker id="arrowH" markerWidth="10" markerHeight="7" refX="9" refY="3.5" orient="auto">
      <polygon points="0 0, 10 3.5, 0 7" fill="#6b7280"/>
    </marker>
    <filter id="shadowSoft" x="-20%" y="-20%" width="140%" height="160%">
      <feDropShadow dx="0" dy="3" stdDeviation="6" flood-color="#0f172a" flood-opacity="0.12"/>
    </filter>
    <filter id="shadowGlass" x="-20%" y="-20%" width="140%" height="160%">
      <feDropShadow dx="0" dy="10" stdDeviation="16" flood-color="#020617" flood-opacity="0.28"/>
    </filter>
    <style>
    text { font-family: 'Helvetica Neue', Helvetica, Arial, 'PingFang SC', 'Microsoft YaHei', 'Microsoft JhengHei', 'SimHei', sans-serif; }
    .title { font-size: 30px; font-weight: 700; fill: #111827; }
    .subtitle { font-size: 14px; font-weight: 500; fill: #6b7280; }
    .section { font-size: 13px; font-weight: 700; fill: #2563eb; letter-spacing: 1.4px; }
    .section-sub { font-size: 12px; font-weight: 500; fill: #94a3b8; }
    .node-title { font-size: 18px; font-weight: 700; fill: #111827; }
    .node-sub { font-size: 12px; font-weight: 500; fill: #6b7280; }
    .node-type { font-size: 12px; font-weight: 700; fill: #9ca3af; letter-spacing: 0.08em; }
    .arrow-label { font-size: 12px; font-weight: 600; fill: #6b7280; }
    .legend { font-size: 12px; font-weight: 500; fill: #6b7280; }
    .footnote { font-size: 12px; font-weight: 500; fill: #94a3b8; }
    </style>
  </defs>
  <rect width="2248.0" height="620.0" fill="#ffffff"/>
  <text x="1124.0" y="56" text-anchor="middle" class="title">31.2.2 系统架构</text>
  <text x="1124.0" y="82" text-anchor="middle" class="subtitle">part-07-network-storage/chapter-31-scale-up-networking.md:72</text>
  <path d="M 1056.0,212.0 L 1056.0,232.4 L 1018.0,263.6 L 1018.0,284.0" fill="none" stroke="#7c3aed" stroke-width="2.4" marker-end="url(#arrowA)"/>
  <path d="M 1266.0,212.0 L 1266.0,232.4 L 1018.0,263.6 L 1018.0,284.0" fill="none" stroke="#7c3aed" stroke-width="2.4" marker-end="url(#arrowA)"/>
  <path d="M 1476.0,212.0 L 1476.0,232.4 L 1018.0,263.6 L 1018.0,284.0" fill="none" stroke="#7c3aed" stroke-width="2.4" marker-end="url(#arrowA)"/>
  <path d="M 1686.0,212.0 L 1686.0,232.4 L 1018.0,263.6 L 1018.0,284.0" fill="none" stroke="#7c3aed" stroke-width="2.4" marker-end="url(#arrowA)"/>
  <path d="M 1018.0,342.0 L 1018.0,362.4 L 1124.0,393.6 L 1124.0,414.0" fill="none" stroke="#7c3aed" stroke-width="2.4" marker-end="url(#arrowA)"/>
  <path d="M 1896.0,212.0 L 1896.0,232.4 L 1258.0,263.6 L 1258.0,284.0" fill="none" stroke="#7c3aed" stroke-width="2.4" marker-end="url(#arrowA)"/>
  <path d="M 2106.0,212.0 L 2106.0,232.4 L 1258.0,263.6 L 1258.0,284.0" fill="none" stroke="#7c3aed" stroke-width="2.4" marker-end="url(#arrowA)"/>
  <rect x="60.0" y="154.0" width="201.0" height="58.0" rx="10.0" fill="#eff6ff" stroke="#bfdbfe" stroke-width="1.8"/>
  <text x="160.5" y="183.0" text-anchor="middle" class="node-title">CPU Socket 0 / NUMA 0</text>
  <rect x="307.0" y="154.0" width="201.0" height="58.0" rx="10.0" fill="#f0fdf4" stroke="#bbf7d0" stroke-width="1.8"/>
  <text x="407.5" y="183.0" text-anchor="middle" class="node-title">CPU Socket 1 / NUMA 1</text>
  <rect x="554.0" y="154.0" width="164.0" height="58.0" rx="10.0" fill="#fff7ed" stroke="#fed7aa" stroke-width="1.8"/>
  <text x="636.0" y="183.0" text-anchor="middle" class="node-title">PCIe0</text>
  <rect x="764.0" y="154.0" width="164.0" height="58.0" rx="10.0" fill="#faf5ff" stroke="#e9d5ff" stroke-width="1.8"/>
  <text x="846.0" y="183.0" text-anchor="middle" class="node-title">PCIe1</text>
  <rect x="974.0" y="154.0" width="164.0" height="58.0" rx="10.0" fill="#f0fdfa" stroke="#99f6e4" stroke-width="1.8"/>
  <text x="1056.0" y="183.0" text-anchor="middle" class="node-title">GPU0</text>
  <rect x="1184.0" y="154.0" width="164.0" height="58.0" rx="10.0" fill="#eff6ff" stroke="#bfdbfe" stroke-width="1.8"/>
  <text x="1266.0" y="183.0" text-anchor="middle" class="node-title">GPU1</text>
  <rect x="1394.0" y="154.0" width="164.0" height="58.0" rx="10.0" fill="#f0fdf4" stroke="#bbf7d0" stroke-width="1.8"/>
  <text x="1476.0" y="183.0" text-anchor="middle" class="node-title">GPU2</text>
  <rect x="1604.0" y="154.0" width="164.0" height="58.0" rx="10.0" fill="#fff7ed" stroke="#fed7aa" stroke-width="1.8"/>
  <text x="1686.0" y="183.0" text-anchor="middle" class="node-title">GPU3</text>
  <rect x="1814.0" y="154.0" width="164.0" height="58.0" rx="10.0" fill="#f0fdfa" stroke="#99f6e4" stroke-width="1.8"/>
  <text x="1896.0" y="183.0" text-anchor="middle" class="node-title">NIC0</text>
  <rect x="2024.0" y="154.0" width="164.0" height="58.0" rx="10.0" fill="#eff6ff" stroke="#bfdbfe" stroke-width="1.8"/>
  <text x="2106.0" y="183.0" text-anchor="middle" class="node-title">NIC1</text>
  <rect x="907.0" y="284.0" width="222.0" height="58.0" rx="10.0" fill="#f8fafc" stroke="#cbd5e1" stroke-width="1.8"/>
  <text x="1018.0" y="313.0" text-anchor="middle" class="node-title">NVSwitch / NVLink Domain</text>
  <rect x="1175.0" y="284.0" width="166.0" height="58.0" rx="10.0" fill="#f8fafc" stroke="#cbd5e1" stroke-width="1.8"/>
  <text x="1258.0" y="313.0" text-anchor="middle" class="node-title">Scale-out Fabric</text>
  <rect x="1037.5" y="414.0" width="173.0" height="70.0" rx="10.0" fill="#faf5ff" stroke="#e9d5ff" stroke-width="1.8"/>
  <text x="1124.0" y="449.0" text-anchor="middle" class="node-title">Tensor / Pipeline</text>
  <text x="1124.0" y="471.0" text-anchor="middle" class="node-sub">Expert Parallel</text>
  <text x="1968.0" y="604.0" class="footnote">Rendered with fireworks-tech-graph</text>
</svg>