<svg xmlns="http://www.w3.org/2000/svg" viewBox="0 0 1265 1164" width="1265" height="1164">
  <defs>
    <marker id="arrowA" markerWidth="10" markerHeight="7" refX="9" refY="3.5" orient="auto">
      <polygon points="0 0, 10 3.5, 0 7" fill="#7c3aed"/>
    </marker>
    <marker id="arrowB" markerWidth="10" markerHeight="7" refX="9" refY="3.5" orient="auto">
      <polygon points="0 0, 10 3.5, 0 7" fill="#10b981"/>
    </marker>
    <marker id="arrowC" markerWidth="10" markerHeight="7" refX="9" refY="3.5" orient="auto">
      <polygon points="0 0, 10 3.5, 0 7" fill="#2563eb"/>
    </marker>
    <marker id="arrowE" markerWidth="10" markerHeight="7" refX="9" refY="3.5" orient="auto">
      <polygon points="0 0, 10 3.5, 0 7" fill="#f97316"/>
    </marker>
    <marker id="arrowF" markerWidth="10" markerHeight="7" refX="9" refY="3.5" orient="auto">
      <polygon points="0 0, 10 3.5, 0 7" fill="#7c3aed"/>
    </marker>
    <marker id="arrowG" markerWidth="10" markerHeight="7" refX="9" refY="3.5" orient="auto">
      <polygon points="0 0, 10 3.5, 0 7" fill="#ef4444"/>
    </marker>
    <marker id="arrowH" markerWidth="10" markerHeight="7" refX="9" refY="3.5" orient="auto">
      <polygon points="0 0, 10 3.5, 0 7" fill="#6b7280"/>
    </marker>
    <filter id="shadowSoft" x="-20%" y="-20%" width="140%" height="160%">
      <feDropShadow dx="0" dy="3" stdDeviation="6" flood-color="#0f172a" flood-opacity="0.12"/>
    </filter>
    <filter id="shadowGlass" x="-20%" y="-20%" width="140%" height="160%">
      <feDropShadow dx="0" dy="10" stdDeviation="16" flood-color="#020617" flood-opacity="0.28"/>
    </filter>
    <style>
    text { font-family: 'Helvetica Neue', Helvetica, Arial, 'PingFang SC', 'Microsoft YaHei', 'Microsoft JhengHei', 'SimHei', sans-serif; }
    .title { font-size: 30px; font-weight: 700; fill: #111827; }
    .subtitle { font-size: 14px; font-weight: 500; fill: #6b7280; }
    .section { font-size: 13px; font-weight: 700; fill: #2563eb; letter-spacing: 1.4px; }
    .section-sub { font-size: 12px; font-weight: 500; fill: #94a3b8; }
    .node-title { font-size: 18px; font-weight: 700; fill: #111827; }
    .node-sub { font-size: 12px; font-weight: 500; fill: #6b7280; }
    .node-type { font-size: 12px; font-weight: 700; fill: #9ca3af; letter-spacing: 0.08em; }
    .arrow-label { font-size: 12px; font-weight: 600; fill: #6b7280; }
    .legend { font-size: 12px; font-weight: 500; fill: #6b7280; }
    .footnote { font-size: 12px; font-weight: 500; fill: #94a3b8; }
    </style>
  </defs>
  <rect width="1265.0" height="1164.0" fill="#ffffff"/>
  <text x="632.5" y="56" text-anchor="middle" class="title">39.2.2 系统架构</text>
  <text x="632.5" y="82" text-anchor="middle" class="subtitle">part-09-reliability-observability/chapter-39-troubleshooting.md:267</text>
  <path d="M 632.5,212.0 L 632.5,284.0" fill="none" stroke="#7c3aed" stroke-width="2.4" marker-end="url(#arrowA)"/>
  <path d="M 632.5,342.0 L 632.5,362.4 L 491.5,393.6 L 491.5,414.0" fill="none" stroke="#7c3aed" stroke-width="2.4" marker-end="url(#arrowA)"/>
  <path d="M 632.5,342.0 L 632.5,362.4 L 773.5,399.6 L 773.5,420.0" fill="none" stroke="#7c3aed" stroke-width="2.4" marker-end="url(#arrowA)"/>
  <path d="M 773.5,478.0 L 773.5,498.4 L 523.0,535.6 L 523.0,556.0" fill="none" stroke="#7c3aed" stroke-width="2.4" marker-end="url(#arrowA)"/>
  <path d="M 773.5,478.0 L 773.5,498.4 L 763.0,535.6 L 763.0,556.0" fill="none" stroke="#7c3aed" stroke-width="2.4" marker-end="url(#arrowA)"/>
  <path d="M 763.0,626.0 L 763.0,646.4 L 527.5,677.6 L 527.5,698.0" fill="none" stroke="#7c3aed" stroke-width="2.4" marker-end="url(#arrowA)"/>
  <path d="M 527.5,756.0 L 527.5,776.4 L 230.5,807.6 L 230.5,828.0" fill="none" stroke="#7c3aed" stroke-width="2.4" marker-end="url(#arrowA)"/>
  <path d="M 527.5,756.0 L 527.5,776.4 L 572.0,807.6 L 572.0,828.0" fill="none" stroke="#7c3aed" stroke-width="2.4" marker-end="url(#arrowA)"/>
  <path d="M 763.0,626.0 L 763.0,646.4 L 737.5,677.6 L 737.5,698.0" fill="none" stroke="#7c3aed" stroke-width="2.4" marker-end="url(#arrowA)"/>
  <path d="M 737.5,756.0 L 737.5,776.4 L 861.0,807.6 L 861.0,828.0" fill="none" stroke="#7c3aed" stroke-width="2.4" marker-end="url(#arrowA)"/>
  <path d="M 737.5,756.0 L 737.5,776.4 L 1115.0,813.6 L 1115.0,834.0" fill="none" stroke="#7c3aed" stroke-width="2.4" marker-end="url(#arrowA)"/>
  <path d="M 1115.0,892.0 L 1115.0,912.4 L 516.0,949.6 L 516.0,970.0" fill="none" stroke="#7c3aed" stroke-width="2.4" marker-end="url(#arrowA)"/>
  <path d="M 1115.0,892.0 L 1115.0,912.4 L 756.0,949.6 L 756.0,970.0" fill="none" stroke="#7c3aed" stroke-width="2.4" marker-end="url(#arrowA)"/>
  <rect x="535.5" y="154.0" width="194.0" height="58.0" rx="10.0" fill="#eff6ff" stroke="#bfdbfe" stroke-width="1.8"/>
  <text x="632.5" y="183.0" text-anchor="middle" class="node-title">NCCL hang / step 无前进</text>
  <rect x="550.5" y="284.0" width="164.0" height="58.0" rx="10.0" fill="#fff7ed" stroke="#fdba74" stroke-width="2.0"/>
  <rect x="556.5" y="290.0" width="152.0" height="46.0" rx="7.0" fill="none" stroke="#fdba74" stroke-width="1.2" opacity="0.65"/>
  <text x="632.5" y="302.0" text-anchor="middle" class="node-type">DECISION</text>
  <text x="632.5" y="319.0" text-anchor="middle" class="node-title">是否有 rank 退出?</text>
  <rect x="373.5" y="414.0" width="236.0" height="70.0" rx="10.0" fill="#fff7ed" stroke="#fed7aa" stroke-width="1.8"/>
  <text x="491.5" y="449.0" text-anchor="middle" class="node-title">检查 Pod exit / OOM</text>
  <text x="491.5" y="471.0" text-anchor="middle" class="node-sub">container log / node event</text>
  <rect x="655.5" y="420.0" width="236.0" height="58.0" rx="10.0" fill="#fff7ed" stroke="#fdba74" stroke-width="2.0"/>
  <rect x="661.5" y="426.0" width="224.0" height="46.0" rx="7.0" fill="none" stroke="#fdba74" stroke-width="1.2" opacity="0.65"/>
  <text x="773.5" y="438.0" text-anchor="middle" class="node-type">DECISION</text>
  <text x="773.5" y="455.0" text-anchor="middle" class="node-title">GPU 是否有 Xid/ECC/NVLink 异常?</text>
  <rect x="415.5" y="556.0" width="215.0" height="70.0" rx="10.0" fill="#f0fdfa" stroke="#99f6e4" stroke-width="1.8"/>
  <text x="523.0" y="591.0" text-anchor="middle" class="node-title">隔离 GPU 或节点，跑 GPU/NVLink</text>
  <text x="523.0" y="613.0" text-anchor="middle" class="node-sub">NCCL 回归</text>
  <rect x="676.5" y="556.0" width="173.0" height="70.0" rx="10.0" fill="#fff7ed" stroke="#fdba74" stroke-width="2.0"/>
  <rect x="682.5" y="562.0" width="161.0" height="58.0" rx="7.0" fill="none" stroke="#fdba74" stroke-width="1.2" opacity="0.65"/>
  <text x="763.0" y="574.0" text-anchor="middle" class="node-type">DECISION</text>
  <text x="763.0" y="597.0" text-anchor="middle" class="node-title">RDMA / NIC</text>
  <text x="763.0" y="619.0" text-anchor="middle" class="node-sub">switch port 是否异常?</text>
  <rect x="445.5" y="698.0" width="164.0" height="58.0" rx="10.0" fill="#fff7ed" stroke="#fdba74" stroke-width="2.0"/>
  <rect x="451.5" y="704.0" width="152.0" height="46.0" rx="7.0" fill="none" stroke="#fdba74" stroke-width="1.2" opacity="0.65"/>
  <text x="527.5" y="716.0" text-anchor="middle" class="node-type">DECISION</text>
  <text x="527.5" y="733.0" text-anchor="middle" class="node-title">rail 是否失衡或拥塞?</text>
  <rect x="655.5" y="698.0" width="164.0" height="58.0" rx="10.0" fill="#fff7ed" stroke="#fdba74" stroke-width="2.0"/>
  <rect x="661.5" y="704.0" width="152.0" height="46.0" rx="7.0" fill="none" stroke="#fdba74" stroke-width="1.2" opacity="0.65"/>
  <text x="737.5" y="716.0" text-anchor="middle" class="node-type">DECISION</text>
  <text x="737.5" y="733.0" text-anchor="middle" class="node-title">容器与运行时配置是否一致?</text>
  <rect x="60.0" y="828.0" width="341.0" height="70.0" rx="10.0" fill="#f0fdf4" stroke="#bbf7d0" stroke-width="1.8"/>
  <text x="230.5" y="863.0" text-anchor="middle" class="node-title">采集 rail_balance</text>
  <text x="230.5" y="885.0" text-anchor="middle" class="node-sub">report / congestion_event，降级 fabric 或避让拓扑</text>
  <rect x="447.0" y="828.0" width="250.0" height="70.0" rx="10.0" fill="#fff7ed" stroke="#fed7aa" stroke-width="1.8"/>
  <text x="572.0" y="863.0" text-anchor="middle" class="node-title">运行同拓扑 NCCL</text>
  <text x="572.0" y="885.0" text-anchor="middle" class="node-sub">RDMA baseline，确认是否 fabric 退化</text>
  <rect x="743.0" y="828.0" width="236.0" height="70.0" rx="10.0" fill="#f0fdfa" stroke="#99f6e4" stroke-width="1.8"/>
  <text x="861.0" y="863.0" text-anchor="middle" class="node-title">检查 NCCL env / interface</text>
  <text x="861.0" y="885.0" text-anchor="middle" class="node-sub">RDMA device / image / OFED</text>
  <rect x="1025.0" y="834.0" width="180.0" height="58.0" rx="10.0" fill="#fff7ed" stroke="#fdba74" stroke-width="2.0"/>
  <rect x="1031.0" y="840.0" width="168.0" height="46.0" rx="7.0" fill="none" stroke="#fdba74" stroke-width="1.2" opacity="0.65"/>
  <text x="1115.0" y="852.0" text-anchor="middle" class="node-type">DECISION</text>
  <text x="1115.0" y="869.0" text-anchor="middle" class="node-title">collective 调用是否一致?</text>
  <rect x="415.5" y="970.0" width="201.0" height="58.0" rx="10.0" fill="#eff6ff" stroke="#bfdbfe" stroke-width="1.8"/>
  <text x="516.0" y="999.0" text-anchor="middle" class="node-title">检查训练代码分支、rank 条件和框架版本</text>
  <rect x="662.5" y="970.0" width="187.0" height="58.0" rx="10.0" fill="#f0fdf4" stroke="#bbf7d0" stroke-width="1.8"/>
  <text x="756.0" y="999.0" text-anchor="middle" class="node-title">保留现场，扩大采样，运行同拓扑基线复测</text>
  <rect x="544.0" y="348.0" width="36" height="20" rx="6" fill="#ffffff" opacity="0.94"/>
  <text x="562.0" y="362.0" text-anchor="middle" class="arrow-label">是</text>
  <rect x="685.0" y="351.0" width="36" height="20" rx="6" fill="#ffffff" opacity="0.94"/>
  <text x="703.0" y="365.0" text-anchor="middle" class="arrow-label">否</text>
  <rect x="630.25" y="487.0" width="36" height="20" rx="6" fill="#ffffff" opacity="0.94"/>
  <text x="648.25" y="501.0" text-anchor="middle" class="arrow-label">是</text>
  <rect x="750.25" y="487.0" width="36" height="20" rx="6" fill="#ffffff" opacity="0.94"/>
  <text x="768.25" y="501.0" text-anchor="middle" class="arrow-label">否</text>
  <rect x="627.25" y="632.0" width="36" height="20" rx="6" fill="#ffffff" opacity="0.94"/>
  <text x="645.25" y="646.0" text-anchor="middle" class="arrow-label">是</text>
  <rect x="361.0" y="762.0" width="36" height="20" rx="6" fill="#ffffff" opacity="0.94"/>
  <text x="379.0" y="776.0" text-anchor="middle" class="arrow-label">是</text>
  <rect x="531.75" y="762.0" width="36" height="20" rx="6" fill="#ffffff" opacity="0.94"/>
  <text x="549.75" y="776.0" text-anchor="middle" class="arrow-label">否</text>
  <rect x="732.25" y="632.0" width="36" height="20" rx="6" fill="#ffffff" opacity="0.94"/>
  <text x="750.25" y="646.0" text-anchor="middle" class="arrow-label">否</text>
  <rect x="781.25" y="762.0" width="36" height="20" rx="6" fill="#ffffff" opacity="0.94"/>
  <text x="799.25" y="776.0" text-anchor="middle" class="arrow-label">否</text>
  <rect x="908.25" y="765.0" width="36" height="20" rx="6" fill="#ffffff" opacity="0.94"/>
  <text x="926.25" y="779.0" text-anchor="middle" class="arrow-label">是</text>
  <rect x="797.5" y="901.0" width="36" height="20" rx="6" fill="#ffffff" opacity="0.94"/>
  <text x="815.5" y="915.0" text-anchor="middle" class="arrow-label">否</text>
  <rect x="917.5" y="901.0" width="36" height="20" rx="6" fill="#ffffff" opacity="0.94"/>
  <text x="935.5" y="915.0" text-anchor="middle" class="arrow-label">是</text>
  <text x="985.0" y="1148.0" class="footnote">Rendered with fireworks-tech-graph</text>
</svg>