<svg xmlns="http://www.w3.org/2000/svg" viewBox="0 0 2661 404" width="2661" height="404">
  <defs>
    <marker id="arrowA" markerWidth="10" markerHeight="7" refX="9" refY="3.5" orient="auto">
      <polygon points="0 0, 10 3.5, 0 7" fill="#7c3aed"/>
    </marker>
    <marker id="arrowB" markerWidth="10" markerHeight="7" refX="9" refY="3.5" orient="auto">
      <polygon points="0 0, 10 3.5, 0 7" fill="#10b981"/>
    </marker>
    <marker id="arrowC" markerWidth="10" markerHeight="7" refX="9" refY="3.5" orient="auto">
      <polygon points="0 0, 10 3.5, 0 7" fill="#2563eb"/>
    </marker>
    <marker id="arrowE" markerWidth="10" markerHeight="7" refX="9" refY="3.5" orient="auto">
      <polygon points="0 0, 10 3.5, 0 7" fill="#f97316"/>
    </marker>
    <marker id="arrowF" markerWidth="10" markerHeight="7" refX="9" refY="3.5" orient="auto">
      <polygon points="0 0, 10 3.5, 0 7" fill="#7c3aed"/>
    </marker>
    <marker id="arrowG" markerWidth="10" markerHeight="7" refX="9" refY="3.5" orient="auto">
      <polygon points="0 0, 10 3.5, 0 7" fill="#ef4444"/>
    </marker>
    <marker id="arrowH" markerWidth="10" markerHeight="7" refX="9" refY="3.5" orient="auto">
      <polygon points="0 0, 10 3.5, 0 7" fill="#6b7280"/>
    </marker>
    <filter id="shadowSoft" x="-20%" y="-20%" width="140%" height="160%">
      <feDropShadow dx="0" dy="3" stdDeviation="6" flood-color="#0f172a" flood-opacity="0.12"/>
    </filter>
    <filter id="shadowGlass" x="-20%" y="-20%" width="140%" height="160%">
      <feDropShadow dx="0" dy="10" stdDeviation="16" flood-color="#020617" flood-opacity="0.28"/>
    </filter>
    <style>
    text { font-family: 'Helvetica Neue', Helvetica, Arial, 'PingFang SC', 'Microsoft YaHei', 'Microsoft JhengHei', 'SimHei', sans-serif; }
    .title { font-size: 30px; font-weight: 700; fill: #111827; }
    .subtitle { font-size: 14px; font-weight: 500; fill: #6b7280; }
    .section { font-size: 13px; font-weight: 700; fill: #2563eb; letter-spacing: 1.4px; }
    .section-sub { font-size: 12px; font-weight: 500; fill: #94a3b8; }
    .node-title { font-size: 18px; font-weight: 700; fill: #111827; }
    .node-sub { font-size: 12px; font-weight: 500; fill: #6b7280; }
    .node-type { font-size: 12px; font-weight: 700; fill: #9ca3af; letter-spacing: 0.08em; }
    .arrow-label { font-size: 12px; font-weight: 600; fill: #6b7280; }
    .legend { font-size: 12px; font-weight: 500; fill: #6b7280; }
    .footnote { font-size: 12px; font-weight: 500; fill: #94a3b8; }
    </style>
  </defs>
  <rect width="2661.0" height="404.0" fill="#ffffff"/>
  <text x="1330.5" y="56" text-anchor="middle" class="title">44.4.1 工程实现</text>
  <text x="1330.5" y="82" text-anchor="middle" class="subtitle">part-10-economics-cases/chapter-44-building-ai-factory.md:1372</text>
  <path d="M 311.0,211.0 L 383.0,211.0" fill="none" stroke="#7c3aed" stroke-width="2.4" marker-end="url(#arrowA)"/>
  <path d="M 577.0,211.0 L 597.4,211.0 L 628.6,217.0 L 649.0,217.0" fill="none" stroke="#7c3aed" stroke-width="2.4" marker-end="url(#arrowA)"/>
  <path d="M 850.0,217.0 L 922.0,217.0" fill="none" stroke="#7c3aed" stroke-width="2.4" marker-end="url(#arrowA)"/>
  <path d="M 1144.0,217.0 L 1164.4,217.0 L 1195.6,161.0 L 1216.0,161.0" fill="none" stroke="#7c3aed" stroke-width="2.4" marker-end="url(#arrowA)"/>
  <path d="M 1438.0,161.0 L 1458.4,161.0 L 1489.6,211.0 L 1510.0,211.0" fill="none" stroke="#7c3aed" stroke-width="2.4" marker-end="url(#arrowA)"/>
  <path d="M 1739.0,211.0 L 1759.4,211.0 L 1790.6,217.0 L 1811.0,217.0" fill="none" stroke="#7c3aed" stroke-width="2.4" marker-end="url(#arrowA)"/>
  <path d="M 2012.0,217.0 L 2084.0,217.0" fill="none" stroke="#7c3aed" stroke-width="2.4" marker-end="url(#arrowA)"/>
  <path d="M 1144.0,217.0 L 1164.4,217.0 L 1220.1,273.0 L 1240.5,273.0" fill="none" stroke="#7c3aed" stroke-width="2.4" marker-end="url(#arrowA)"/>
  <path d="M 2285.0,217.0 L 2305.4,217.0 L 2336.6,211.0 L 2357.0,211.0" fill="none" stroke="#7c3aed" stroke-width="2.4" marker-end="url(#arrowA)"/>
  <path d="M 1413.5,273.0 L 1433.9,273.0 L 2336.6,211.0 L 2357.0,211.0" fill="none" stroke="#7c3aed" stroke-width="2.4" marker-end="url(#arrowA)"/>
  <rect x="96.0" y="182.0" width="215.0" height="58.0" rx="10.0" fill="#eff6ff" stroke="#bfdbfe" stroke-width="1.8"/>
  <text x="203.5" y="211.0" text-anchor="middle" class="node-title">fabric_change_prr_drill</text>
  <rect x="383.0" y="182.0" width="194.0" height="58.0" rx="10.0" fill="#f0fdf4" stroke="#bbf7d0" stroke-width="1.8"/>
  <text x="480.0" y="211.0" text-anchor="middle" class="node-title">fabric_change_record</text>
  <rect x="649.0" y="182.0" width="201.0" height="70.0" rx="10.0" fill="#fff7ed" stroke="#fed7aa" stroke-width="1.8"/>
  <text x="749.5" y="217.0" text-anchor="middle" class="node-title">baseline_invalidation</text>
  <text x="749.5" y="239.0" text-anchor="middle" class="node-sub">record</text>
  <rect x="922.0" y="182.0" width="222.0" height="70.0" rx="10.0" fill="#faf5ff" stroke="#e9d5ff" stroke-width="1.8"/>
  <text x="1033.0" y="217.0" text-anchor="middle" class="node-title">fabric_change_regression</text>
  <text x="1033.0" y="239.0" text-anchor="middle" class="node-sub">gate</text>
  <rect x="1216.0" y="126.0" width="222.0" height="70.0" rx="10.0" fill="#f0fdfa" stroke="#99f6e4" stroke-width="1.8"/>
  <text x="1327.0" y="161.0" text-anchor="middle" class="node-title">fabric_change_acceptance</text>
  <text x="1327.0" y="183.0" text-anchor="middle" class="node-sub">matrix</text>
  <rect x="1240.5" y="238.0" width="173.0" height="70.0" rx="10.0" fill="#fff7ed" stroke="#fed7aa" stroke-width="1.8"/>
  <text x="1327.0" y="273.0" text-anchor="middle" class="node-title">scheduler limited</text>
  <text x="1327.0" y="295.0" text-anchor="middle" class="node-sub">restored</text>
  <rect x="1510.0" y="182.0" width="229.0" height="58.0" rx="10.0" fill="#f8fafc" stroke="#cbd5e1" stroke-width="1.8"/>
  <text x="1624.5" y="211.0" text-anchor="middle" class="node-title">network_diagnostic_bundle</text>
  <rect x="1811.0" y="182.0" width="201.0" height="70.0" rx="10.0" fill="#eff6ff" stroke="#bfdbfe" stroke-width="1.8"/>
  <text x="1911.5" y="217.0" text-anchor="middle" class="node-title">congestion_fault_tree</text>
  <text x="1911.5" y="239.0" text-anchor="middle" class="node-sub">execution</text>
  <rect x="2084.0" y="182.0" width="201.0" height="70.0" rx="10.0" fill="#f0fdf4" stroke="#bbf7d0" stroke-width="1.8"/>
  <text x="2184.5" y="217.0" text-anchor="middle" class="node-title">network_incident_cost</text>
  <text x="2184.5" y="239.0" text-anchor="middle" class="node-sub">record</text>
  <rect x="2357.0" y="182.0" width="208.0" height="58.0" rx="10.0" fill="#faf5ff" stroke="#e9d5ff" stroke-width="1.8"/>
  <text x="2461.0" y="211.0" text-anchor="middle" class="node-title">PRR fabric gate update</text>
  <text x="2381.0" y="388.0" class="footnote">Rendered with fireworks-tech-graph</text>
</svg>