<svg xmlns="http://www.w3.org/2000/svg" viewBox="0 0 2659 404" width="2659" height="404">
  <defs>
    <marker id="arrowA" markerWidth="10" markerHeight="7" refX="9" refY="3.5" orient="auto">
      <polygon points="0 0, 10 3.5, 0 7" fill="#7c3aed"/>
    </marker>
    <marker id="arrowB" markerWidth="10" markerHeight="7" refX="9" refY="3.5" orient="auto">
      <polygon points="0 0, 10 3.5, 0 7" fill="#10b981"/>
    </marker>
    <marker id="arrowC" markerWidth="10" markerHeight="7" refX="9" refY="3.5" orient="auto">
      <polygon points="0 0, 10 3.5, 0 7" fill="#2563eb"/>
    </marker>
    <marker id="arrowE" markerWidth="10" markerHeight="7" refX="9" refY="3.5" orient="auto">
      <polygon points="0 0, 10 3.5, 0 7" fill="#f97316"/>
    </marker>
    <marker id="arrowF" markerWidth="10" markerHeight="7" refX="9" refY="3.5" orient="auto">
      <polygon points="0 0, 10 3.5, 0 7" fill="#7c3aed"/>
    </marker>
    <marker id="arrowG" markerWidth="10" markerHeight="7" refX="9" refY="3.5" orient="auto">
      <polygon points="0 0, 10 3.5, 0 7" fill="#ef4444"/>
    </marker>
    <marker id="arrowH" markerWidth="10" markerHeight="7" refX="9" refY="3.5" orient="auto">
      <polygon points="0 0, 10 3.5, 0 7" fill="#6b7280"/>
    </marker>
    <filter id="shadowSoft" x="-20%" y="-20%" width="140%" height="160%">
      <feDropShadow dx="0" dy="3" stdDeviation="6" flood-color="#0f172a" flood-opacity="0.12"/>
    </filter>
    <filter id="shadowGlass" x="-20%" y="-20%" width="140%" height="160%">
      <feDropShadow dx="0" dy="10" stdDeviation="16" flood-color="#020617" flood-opacity="0.28"/>
    </filter>
    <style>
    text { font-family: 'Helvetica Neue', Helvetica, Arial, 'PingFang SC', 'Microsoft YaHei', 'Microsoft JhengHei', 'SimHei', sans-serif; }
    .title { font-size: 30px; font-weight: 700; fill: #111827; }
    .subtitle { font-size: 14px; font-weight: 500; fill: #6b7280; }
    .section { font-size: 13px; font-weight: 700; fill: #2563eb; letter-spacing: 1.4px; }
    .section-sub { font-size: 12px; font-weight: 500; fill: #94a3b8; }
    .node-title { font-size: 18px; font-weight: 700; fill: #111827; }
    .node-sub { font-size: 12px; font-weight: 500; fill: #6b7280; }
    .node-type { font-size: 12px; font-weight: 700; fill: #9ca3af; letter-spacing: 0.08em; }
    .arrow-label { font-size: 12px; font-weight: 600; fill: #6b7280; }
    .legend { font-size: 12px; font-weight: 500; fill: #6b7280; }
    .footnote { font-size: 12px; font-weight: 500; fill: #94a3b8; }
    </style>
  </defs>
  <rect width="2659.0" height="404.0" fill="#ffffff"/>
  <text x="1329.5" y="56" text-anchor="middle" class="title">29.3.8 golden image</text>
  <text x="1329.5" y="82" text-anchor="middle" class="subtitle">part-06-gpu-iaas/chapter-29-image-driver-bootstrap.md:272</text>
  <path d="M 339.0,161.0 L 359.4,161.0 L 409.1,155.0 L 429.5,155.0" fill="none" stroke="#7c3aed" stroke-width="2.4" marker-end="url(#arrowA)"/>
  <path d="M 593.5,155.0 L 613.9,155.0 L 663.6,217.0 L 684.0,217.0" fill="none" stroke="#7c3aed" stroke-width="2.4" marker-end="url(#arrowA)"/>
  <path d="M 913.0,217.0 L 933.4,217.0 L 964.6,211.0 L 985.0,211.0" fill="none" stroke="#7c3aed" stroke-width="2.4" marker-end="url(#arrowA)"/>
  <path d="M 1149.0,211.0 L 1169.4,211.0 L 1200.6,217.0 L 1221.0,217.0" fill="none" stroke="#7c3aed" stroke-width="2.4" marker-end="url(#arrowA)"/>
  <path d="M 1415.0,217.0 L 1435.4,217.0 L 1466.6,211.0 L 1487.0,211.0" fill="none" stroke="#7c3aed" stroke-width="2.4" marker-end="url(#arrowA)"/>
  <path d="M 1674.0,211.0 L 1694.4,211.0 L 1725.6,217.0 L 1746.0,217.0" fill="none" stroke="#7c3aed" stroke-width="2.4" marker-end="url(#arrowA)"/>
  <path d="M 1926.0,217.0 L 1946.4,217.0 L 1977.6,211.0 L 1998.0,211.0" fill="none" stroke="#7c3aed" stroke-width="2.4" marker-end="url(#arrowA)"/>
  <path d="M 299.5,267.0 L 319.9,267.0 L 390.6,273.0 L 411.0,273.0" fill="none" stroke="#7c3aed" stroke-width="2.4" marker-end="url(#arrowA)"/>
  <path d="M 2234.0,211.0 L 2254.4,211.0 L 2285.6,217.0 L 2306.0,217.0" fill="none" stroke="#7c3aed" stroke-width="2.4" marker-end="url(#arrowA)"/>
  <rect x="96.0" y="126.0" width="243.0" height="70.0" rx="10.0" fill="#eff6ff" stroke="#bfdbfe" stroke-width="1.8"/>
  <text x="217.5" y="161.0" text-anchor="middle" class="node-title">Release train</text>
  <text x="217.5" y="183.0" text-anchor="middle" class="node-sub">baseline + runtime + images</text>
  <rect x="135.5" y="238.0" width="164.0" height="58.0" rx="10.0" fill="#fff7ed" stroke="#fed7aa" stroke-width="1.8"/>
  <text x="217.5" y="267.0" text-anchor="middle" class="node-title">Rollback</text>
  <rect x="429.5" y="126.0" width="164.0" height="58.0" rx="10.0" fill="#f0fdf4" stroke="#bbf7d0" stroke-width="1.8"/>
  <text x="511.5" y="155.0" text-anchor="middle" class="node-title">lab</text>
  <rect x="411.0" y="238.0" width="201.0" height="70.0" rx="10.0" fill="#faf5ff" stroke="#e9d5ff" stroke-width="1.8"/>
  <text x="511.5" y="273.0" text-anchor="middle" class="node-title">baseline_invalidation</text>
  <text x="511.5" y="295.0" text-anchor="middle" class="node-sub">record</text>
  <rect x="684.0" y="182.0" width="229.0" height="70.0" rx="10.0" fill="#fff7ed" stroke="#fed7aa" stroke-width="1.8"/>
  <text x="798.5" y="217.0" text-anchor="middle" class="node-title">compatibility</text>
  <text x="798.5" y="239.0" text-anchor="middle" class="node-sub">bootstrap / container GPU</text>
  <rect x="985.0" y="182.0" width="164.0" height="58.0" rx="10.0" fill="#faf5ff" stroke="#e9d5ff" stroke-width="1.8"/>
  <text x="1067.0" y="211.0" text-anchor="middle" class="node-title">canary pool</text>
  <rect x="1221.0" y="182.0" width="194.0" height="70.0" rx="10.0" fill="#f0fdfa" stroke="#99f6e4" stroke-width="1.8"/>
  <text x="1318.0" y="217.0" text-anchor="middle" class="node-title">NCCL / RDMA</text>
  <text x="1318.0" y="239.0" text-anchor="middle" class="node-sub">training / inference</text>
  <rect x="1487.0" y="182.0" width="187.0" height="58.0" rx="10.0" fill="#f8fafc" stroke="#cbd5e1" stroke-width="1.8"/>
  <text x="1580.5" y="211.0" text-anchor="middle" class="node-title">production standard</text>
  <rect x="1746.0" y="182.0" width="180.0" height="70.0" rx="10.0" fill="#eff6ff" stroke="#bfdbfe" stroke-width="1.8"/>
  <text x="1836.0" y="217.0" text-anchor="middle" class="node-title">SLO / cost</text>
  <text x="1836.0" y="239.0" text-anchor="middle" class="node-sub">incident readiness</text>
  <rect x="1998.0" y="182.0" width="236.0" height="58.0" rx="10.0" fill="#f0fdf4" stroke="#bbf7d0" stroke-width="1.8"/>
  <text x="2116.0" y="211.0" text-anchor="middle" class="node-title">premium / private delivery</text>
  <rect x="2306.0" y="182.0" width="257.0" height="70.0" rx="10.0" fill="#f0fdfa" stroke="#99f6e4" stroke-width="1.8"/>
  <text x="2434.5" y="217.0" text-anchor="middle" class="node-title">lts_support_policy</text>
  <text x="2434.5" y="239.0" text-anchor="middle" class="node-sub">EOL + backport + upgrade path</text>
  <text x="2379.0" y="388.0" class="footnote">Rendered with fireworks-tech-graph</text>
</svg>