<svg xmlns="http://www.w3.org/2000/svg" viewBox="0 0 1054 856" width="1054" height="856">
  <defs>
    <marker id="arrowA" markerWidth="10" markerHeight="7" refX="9" refY="3.5" orient="auto">
      <polygon points="0 0, 10 3.5, 0 7" fill="#7c3aed"/>
    </marker>
    <style>
      text { font-family: 'Helvetica Neue', Helvetica, Arial, 'PingFang SC', 'Microsoft YaHei', sans-serif; }
      .title { font-size: 30px; font-weight: 700; fill: #111827; }
      .subtitle { font-size: 14px; font-weight: 500; fill: #6b7280; }
      .participant { font-size: 16px; font-weight: 700; fill: #111827; }
      .message { font-size: 12px; font-weight: 600; fill: #4b5563; }
      .footnote { font-size: 12px; font-weight: 500; fill: #94a3b8; }
    </style>
  </defs>
  <rect width="1054" height="856" fill="#ffffff"/>
  <text x="527.0" y="56" text-anchor="middle" class="title">1.3.6 prefill 与 decode</text>
  <text x="527.0" y="82" text-anchor="middle" class="subtitle">part-01-applications/chapter-01-chat-request.md:145</text>
  <rect x="72.0" y="126" width="150" height="52" rx="8" fill="#eff6ff" stroke="#bfdbfe" stroke-width="1.5"/>
  <text x="147.0" y="158" text-anchor="middle" class="participant">应用</text>
  <line x1="147.0" y1="178" x2="147.0" y2="798" stroke="#cbd5e1" stroke-width="1.5" stroke-dasharray="6 5"/>
  <rect x="262.0" y="126" width="150" height="52" rx="8" fill="#f0fdf4" stroke="#bbf7d0" stroke-width="1.5"/>
  <text x="337.0" y="158" text-anchor="middle" class="participant">AI Gateway</text>
  <line x1="337.0" y1="178" x2="337.0" y2="798" stroke="#cbd5e1" stroke-width="1.5" stroke-dasharray="6 5"/>
  <rect x="452.0" y="126" width="150" height="52" rx="8" fill="#fff7ed" stroke="#fed7aa" stroke-width="1.5"/>
  <text x="527.0" y="158" text-anchor="middle" class="participant">推理服务</text>
  <line x1="527.0" y1="178" x2="527.0" y2="798" stroke="#cbd5e1" stroke-width="1.5" stroke-dasharray="6 5"/>
  <rect x="642.0" y="126" width="150" height="52" rx="8" fill="#faf5ff" stroke="#e9d5ff" stroke-width="1.5"/>
  <text x="717.0" y="158" text-anchor="middle" class="participant">推理引擎</text>
  <line x1="717.0" y1="178" x2="717.0" y2="798" stroke="#cbd5e1" stroke-width="1.5" stroke-dasharray="6 5"/>
  <rect x="832.0" y="126" width="150" height="52" rx="8" fill="#f0fdfa" stroke="#99f6e4" stroke-width="1.5"/>
  <text x="907.0" y="158" text-anchor="middle" class="participant">GPU</text>
  <line x1="907.0" y1="178" x2="907.0" y2="798" stroke="#cbd5e1" stroke-width="1.5" stroke-dasharray="6 5"/>
  <line x1="163.0" y1="220" x2="321.0" y2="220" stroke="#7c3aed" stroke-width="2.2" marker-end="url(#arrowA)"/>
  <rect x="126.0" y="190" width="232.0" height="22" rx="6" fill="#ffffff" opacity="0.96"/>
  <text x="242.0" y="205" text-anchor="middle" class="message">Chat 请求(messages, stream=true)</text>
  <line x1="353.0" y1="276" x2="511.0" y2="276" stroke="#7c3aed" stroke-width="2.2" marker-end="url(#arrowA)"/>
  <rect x="382.5" y="246" width="99.0" height="22" rx="6" fill="#ffffff" opacity="0.96"/>
  <text x="432.0" y="261" text-anchor="middle" class="message">鉴权、限流、路由后转发</text>
  <line x1="543.0" y1="332" x2="701.0" y2="332" stroke="#7c3aed" stroke-width="2.2" marker-end="url(#arrowA)"/>
  <rect x="562.0" y="302" width="120.0" height="22" rx="6" fill="#ffffff" opacity="0.96"/>
  <text x="622.0" y="317" text-anchor="middle" class="message">tokenizer + 入队</text>
  <line x1="733.0" y1="388" x2="891.0" y2="388" stroke="#7c3aed" stroke-width="2.2" marker-end="url(#arrowA)"/>
  <rect x="755.5" y="358" width="113.0" height="22" rx="6" fill="#ffffff" opacity="0.96"/>
  <text x="812.0" y="373" text-anchor="middle" class="message">prefill 输入上下文</text>
  <line x1="891.0" y1="444" x2="733.0" y2="444" stroke="#7c3aed" stroke-width="2.2" marker-end="url(#arrowA)" stroke-dasharray="7 5"/>
  <rect x="752.0" y="414" width="120.0" height="22" rx="6" fill="#ffffff" opacity="0.96"/>
  <text x="812.0" y="429" text-anchor="middle" class="message">KV Cache 初始化完成</text>
  <line x1="733.0" y1="500" x2="891.0" y2="500" stroke="#7c3aed" stroke-width="2.2" marker-end="url(#arrowA)"/>
  <rect x="720.5" y="470" width="183.0" height="22" rx="6" fill="#ffffff" opacity="0.96"/>
  <text x="812.0" y="485" text-anchor="middle" class="message">每个输出 token: decode step</text>
  <line x1="891.0" y1="556" x2="733.0" y2="556" stroke="#7c3aed" stroke-width="2.2" marker-end="url(#arrowA)" stroke-dasharray="7 5"/>
  <rect x="724.0" y="526" width="176.0" height="22" rx="6" fill="#ffffff" opacity="0.96"/>
  <text x="812.0" y="541" text-anchor="middle" class="message">每个输出 token: next token</text>
  <line x1="701.0" y1="612" x2="543.0" y2="612" stroke="#7c3aed" stroke-width="2.2" marker-end="url(#arrowA)" stroke-dasharray="7 5"/>
  <rect x="551.5" y="582" width="141.0" height="22" rx="6" fill="#ffffff" opacity="0.96"/>
  <text x="622.0" y="597" text-anchor="middle" class="message">每个输出 token: token</text>
  <line x1="511.0" y1="668" x2="163.0" y2="668" stroke="#7c3aed" stroke-width="2.2" marker-end="url(#arrowA)" stroke-dasharray="7 5"/>
  <rect x="231.5" y="638" width="211.0" height="22" rx="6" fill="#ffffff" opacity="0.96"/>
  <text x="337.0" y="653" text-anchor="middle" class="message">每个输出 token: streaming chunk</text>
  <line x1="511.0" y1="724" x2="353.0" y2="724" stroke="#7c3aed" stroke-width="2.2" marker-end="url(#arrowA)"/>
  <rect x="368.5" y="694" width="127.0" height="22" rx="6" fill="#ffffff" opacity="0.96"/>
  <text x="432.0" y="709" text-anchor="middle" class="message">token 计量与 trace</text>
  <text x="1026" y="830" text-anchor="end" class="footnote">Rendered with fireworks-tech-graph</text>
</svg>
