<svg xmlns="http://www.w3.org/2000/svg" width="2561" height="404" viewBox="0 0 2561 404"><defs><marker id="arrowA" markerHeight="7" markerWidth="10" orient="auto" refX="9" refY="3.5"><polygon fill="#7c3aed" points="0 0 10 3.5 0 7"/></marker><marker id="arrowB" markerHeight="7" markerWidth="10" orient="auto" refX="9" refY="3.5"><polygon fill="#10b981" points="0 0 10 3.5 0 7"/></marker><marker id="arrowC" markerHeight="7" markerWidth="10" orient="auto" refX="9" refY="3.5"><polygon fill="#2563eb" points="0 0 10 3.5 0 7"/></marker><marker id="arrowE" markerHeight="7" markerWidth="10" orient="auto" refX="9" refY="3.5"><polygon fill="#f97316" points="0 0 10 3.5 0 7"/></marker><marker id="arrowF" markerHeight="7" markerWidth="10" orient="auto" refX="9" refY="3.5"><polygon fill="#7c3aed" points="0 0 10 3.5 0 7"/></marker><marker id="arrowG" markerHeight="7" markerWidth="10" orient="auto" refX="9" refY="3.5"><polygon fill="#ef4444" points="0 0 10 3.5 0 7"/></marker><marker id="arrowH" markerHeight="7" markerWidth="10" orient="auto" refX="9" refY="3.5"><polygon fill="#6b7280" points="0 0 10 3.5 0 7"/></marker><filter id="shadowSoft" width="140%" height="160%" x="-20%" y="-20%"><feDropShadow dx="0" dy="3" flood-color="#0f172a" flood-opacity=".12" stdDeviation="6"/></filter><filter id="shadowGlass" width="140%" height="160%" x="-20%" y="-20%"><feDropShadow dx="0" dy="10" flood-color="#020617" flood-opacity=".28" stdDeviation="16"/></filter><style>text{font-family:&apos;Helvetica Neue&apos;,Helvetica,Arial,&apos;PingFang SC&apos;,&apos;Microsoft YaHei&apos;,&apos;Microsoft JhengHei&apos;,&apos;SimHei&apos;,sans-serif}.title{font-size:30px;font-weight:700;fill:#111827}.subtitle{font-size:14px;font-weight:500;fill:#6b7280}.node-title{font-size:18px;font-weight:700;fill:#111827}.footnote{font-size:12px;font-weight:500;fill:#94a3b8}</style></defs><rect width="2561" height="404" fill="#fff"/><text x="1280.5" y="56" class="title" text-anchor="middle">10.2.2 系统架构</text><text x="1280.5" y="82" class="subtitle" text-anchor="middle">part-03-models/chapter-10-pretraining.md:66</text><path fill="none" stroke="#7c3aed" stroke-width="2.4" marker-end="url(#arrowA)" d="M 260.0,211.0 L 332.0,211.0"/><path fill="none" stroke="#7c3aed" stroke-width="2.4" marker-end="url(#arrowA)" d="M 496.0,211.0 L 568.0,211.0"/><path fill="none" stroke="#7c3aed" stroke-width="2.4" marker-end="url(#arrowA)" d="M 732.0,211.0 L 804.0,211.0"/><path fill="none" stroke="#7c3aed" stroke-width="2.4" marker-end="url(#arrowA)" d="M 968.0,211.0 L 1040.0,211.0"/><path fill="none" stroke="#7c3aed" stroke-width="2.4" marker-end="url(#arrowA)" d="M 1204.0,211.0 L 1276.0,211.0"/><path fill="none" stroke="#7c3aed" stroke-width="2.4" marker-end="url(#arrowA)" d="M 1440.0,211.0 L 1512.0,211.0"/><path fill="none" stroke="#7c3aed" stroke-width="2.4" marker-end="url(#arrowA)" d="M 1676.0,211.0 L 1696.4,211.0 L 1727.6,155.0 L 1748.0,155.0"/><path fill="none" stroke="#7c3aed" stroke-width="2.4" marker-end="url(#arrowA)" d="M 1676.0,211.0 L 1696.4,211.0 L 1763.6,267.0 L 1784.0,267.0"/><path fill="none" stroke="#7c3aed" stroke-width="2.4" marker-end="url(#arrowA)" d="M 1948.0,267.0 L 1968.4,267.0 L 2040.1,155.0 L 2060.5,155.0"/><path fill="none" stroke="#7c3aed" stroke-width="2.4" marker-end="url(#arrowA)" d="M 2224.5,155.0 L 2244.9,155.0 L 2280.6,211.0 L 2301.0,211.0"/><path fill="none" stroke="#7c3aed" stroke-width="2.4" marker-end="url(#arrowA)" d="M 1984.0,155.0 L 2004.4,155.0 L 2035.6,267.0 L 2056.0,267.0"/><path fill="none" stroke="#7c3aed" stroke-width="2.4" marker-end="url(#arrowA)" d="M 2142.5,296.0 L 2142.5,330.0 L 1358.0,330.0 L 1358.0,240.0"/><rect width="164" height="58" x="96" y="182" fill="#eff6ff" stroke="#bfdbfe" stroke-width="1.8" rx="10"/><text x="178" y="211" class="node-title" text-anchor="middle">原始数据</text><rect width="164" height="58" x="332" y="182" fill="#f0fdf4" stroke="#bbf7d0" stroke-width="1.8" rx="10"/><text x="414" y="211" class="node-title" text-anchor="middle">清洗 / 去重 / 过滤</text><rect width="164" height="58" x="568" y="182" fill="#fff7ed" stroke="#fed7aa" stroke-width="1.8" rx="10"/><text x="650" y="211" class="node-title" text-anchor="middle">tokenization</text><rect width="164" height="58" x="804" y="182" fill="#faf5ff" stroke="#e9d5ff" stroke-width="1.8" rx="10"/><text x="886" y="211" class="node-title" text-anchor="middle">训练数据 shard</text><rect width="164" height="58" x="1040" y="182" fill="#f0fdfa" stroke="#99f6e4" stroke-width="1.8" rx="10"/><text x="1122" y="211" class="node-title" text-anchor="middle">训练队列 / 配额</text><rect width="164" height="58" x="1276" y="182" fill="#f8fafc" stroke="#cbd5e1" stroke-width="1.8" rx="10"/><text x="1358" y="211" class="node-title" text-anchor="middle">分布式训练任务</text><rect width="164" height="58" x="1512" y="182" fill="#eff6ff" stroke="#bfdbfe" stroke-width="1.8" rx="10"/><text x="1594" y="211" class="node-title" text-anchor="middle">GPU 集群</text><rect width="236" height="58" x="1748" y="126" fill="#f0fdf4" stroke="#bbf7d0" stroke-width="1.8" rx="10"/><text x="1866" y="155" class="node-title" text-anchor="middle">loss / throughput / health</text><rect width="164" height="58" x="1784" y="238" fill="#fff7ed" stroke="#fed7aa" stroke-width="1.8" rx="10"/><text x="1866" y="267" class="node-title" text-anchor="middle">checkpoint</text><rect width="164" height="58" x="2060.5" y="126" fill="#faf5ff" stroke="#e9d5ff" stroke-width="1.8" rx="10"/><text x="2142.5" y="155" class="node-title" text-anchor="middle">阶段评测</text><rect width="173" height="58" x="2056" y="238" fill="#f8fafc" stroke="#cbd5e1" stroke-width="1.8" rx="10"/><text x="2142.5" y="267" class="node-title" text-anchor="middle">继续 / 暂停 / 恢复 / 回滚</text><rect width="164" height="58" x="2301" y="182" fill="#f0fdfa" stroke="#99f6e4" stroke-width="1.8" rx="10"/><text x="2383" y="211" class="node-title" text-anchor="middle">model registry</text><text x="2281" y="388" class="footnote">Rendered with fireworks-tech-graph</text></svg>