<svg xmlns="http://www.w3.org/2000/svg" viewBox="0 0 960 1482" width="960" height="1482">
  <defs>
    <marker id="arrowA" markerWidth="10" markerHeight="7" refX="9" refY="3.5" orient="auto">
      <polygon points="0 0, 10 3.5, 0 7" fill="#7c3aed"/>
    </marker>
    <marker id="arrowB" markerWidth="10" markerHeight="7" refX="9" refY="3.5" orient="auto">
      <polygon points="0 0, 10 3.5, 0 7" fill="#10b981"/>
    </marker>
    <marker id="arrowC" markerWidth="10" markerHeight="7" refX="9" refY="3.5" orient="auto">
      <polygon points="0 0, 10 3.5, 0 7" fill="#2563eb"/>
    </marker>
    <marker id="arrowE" markerWidth="10" markerHeight="7" refX="9" refY="3.5" orient="auto">
      <polygon points="0 0, 10 3.5, 0 7" fill="#f97316"/>
    </marker>
    <marker id="arrowF" markerWidth="10" markerHeight="7" refX="9" refY="3.5" orient="auto">
      <polygon points="0 0, 10 3.5, 0 7" fill="#7c3aed"/>
    </marker>
    <marker id="arrowG" markerWidth="10" markerHeight="7" refX="9" refY="3.5" orient="auto">
      <polygon points="0 0, 10 3.5, 0 7" fill="#ef4444"/>
    </marker>
    <marker id="arrowH" markerWidth="10" markerHeight="7" refX="9" refY="3.5" orient="auto">
      <polygon points="0 0, 10 3.5, 0 7" fill="#6b7280"/>
    </marker>
    <filter id="shadowSoft" x="-20%" y="-20%" width="140%" height="160%">
      <feDropShadow dx="0" dy="3" stdDeviation="6" flood-color="#0f172a" flood-opacity="0.12"/>
    </filter>
    <filter id="shadowGlass" x="-20%" y="-20%" width="140%" height="160%">
      <feDropShadow dx="0" dy="10" stdDeviation="16" flood-color="#020617" flood-opacity="0.28"/>
    </filter>
    <style>
    text { font-family: 'Helvetica Neue', Helvetica, Arial, 'PingFang SC', 'Microsoft YaHei', 'Microsoft JhengHei', 'SimHei', sans-serif; }
    .title { font-size: 30px; font-weight: 700; fill: #111827; }
    .subtitle { font-size: 14px; font-weight: 500; fill: #6b7280; }
    .section { font-size: 13px; font-weight: 700; fill: #2563eb; letter-spacing: 1.4px; }
    .section-sub { font-size: 12px; font-weight: 500; fill: #94a3b8; }
    .node-title { font-size: 18px; font-weight: 700; fill: #111827; }
    .node-sub { font-size: 12px; font-weight: 500; fill: #6b7280; }
    .node-type { font-size: 12px; font-weight: 700; fill: #9ca3af; letter-spacing: 0.08em; }
    .arrow-label { font-size: 12px; font-weight: 600; fill: #6b7280; }
    .legend { font-size: 12px; font-weight: 500; fill: #6b7280; }
    .footnote { font-size: 12px; font-weight: 500; fill: #94a3b8; }
    </style>
  </defs>
  <rect width="960.0" height="1482.0" fill="#ffffff"/>
  <text x="480.0" y="56" text-anchor="middle" class="title">31.3.3 NVSwitch</text>
  <text x="480.0" y="82" text-anchor="middle" class="subtitle">part-07-network-storage/chapter-31-scale-up-networking.md:156</text>
  <rect x="72.0" y="92.0" width="516.5" height="564.0" rx="16.0" fill="none" stroke="#dbe5f1" stroke-width="1.4" stroke-dasharray="6 5"/>
  <text x="90.0" y="116.0" class="section">完整 NVSWITCH 域</text>
  <rect x="72.0" y="582.0" width="520.0" height="634.0" rx="16.0" fill="none" stroke="#dbe5f1" stroke-width="1.4" stroke-dasharray="6 5"/>
  <text x="90.0" y="606.0" class="section">拓扑碎片</text>
  <path d="M 260.0,603.0 L 315.1,603.0 L 315.1,547.0 L 335.5,547.0" fill="none" stroke="#7c3aed" stroke-width="2.4" marker-end="url(#arrowA)"/>
  <path d="M 260.0,1163.0 L 280.4,1163.0 L 311.6,659.0 L 332.0,659.0" fill="none" stroke="#7c3aed" stroke-width="2.4" marker-end="url(#arrowA)"/>
  <path d="M 260.0,1275.0 L 280.4,1275.0 L 347.6,771.0 L 368.0,771.0" fill="none" stroke="#7c3aed" stroke-width="2.4" marker-end="url(#arrowA)"/>
  <path d="M 260.0,1275.0 L 280.4,1275.0 L 347.6,883.0 L 368.0,883.0" fill="none" stroke="#7c3aed" stroke-width="2.4" marker-end="url(#arrowA)"/>
  <rect x="96.0" y="126.0" width="164.0" height="58.0" rx="10.0" fill="#eff6ff" stroke="#bfdbfe" stroke-width="1.8"/>
  <text x="178.0" y="155.0" text-anchor="middle" class="node-title">GPU0</text>
  <rect x="96.0" y="238.0" width="164.0" height="58.0" rx="10.0" fill="#f0fdf4" stroke="#bbf7d0" stroke-width="1.8"/>
  <text x="178.0" y="267.0" text-anchor="middle" class="node-title">GPU1</text>
  <rect x="96.0" y="350.0" width="164.0" height="58.0" rx="10.0" fill="#fff7ed" stroke="#fed7aa" stroke-width="1.8"/>
  <text x="178.0" y="379.0" text-anchor="middle" class="node-title">GPU2</text>
  <rect x="96.0" y="462.0" width="164.0" height="58.0" rx="10.0" fill="#faf5ff" stroke="#e9d5ff" stroke-width="1.8"/>
  <text x="178.0" y="491.0" text-anchor="middle" class="node-title">GPU3</text>
  <rect x="96.0" y="574.0" width="164.0" height="58.0" rx="10.0" fill="#f0fdfa" stroke="#99f6e4" stroke-width="1.8"/>
  <text x="178.0" y="603.0" text-anchor="middle" class="node-title">HSW</text>
  <rect x="96.0" y="686.0" width="164.0" height="58.0" rx="10.0" fill="#eff6ff" stroke="#bfdbfe" stroke-width="1.8"/>
  <text x="178.0" y="715.0" text-anchor="middle" class="node-title">GPU0 busy</text>
  <rect x="96.0" y="798.0" width="164.0" height="58.0" rx="10.0" fill="#f0fdf4" stroke="#bbf7d0" stroke-width="1.8"/>
  <text x="178.0" y="827.0" text-anchor="middle" class="node-title">GPU1 free</text>
  <rect x="96.0" y="910.0" width="164.0" height="58.0" rx="10.0" fill="#fff7ed" stroke="#fed7aa" stroke-width="1.8"/>
  <text x="178.0" y="939.0" text-anchor="middle" class="node-title">GPU2 busy</text>
  <rect x="96.0" y="1022.0" width="164.0" height="58.0" rx="10.0" fill="#faf5ff" stroke="#e9d5ff" stroke-width="1.8"/>
  <text x="178.0" y="1051.0" text-anchor="middle" class="node-title">GPU3 free</text>
  <rect x="96.0" y="1134.0" width="164.0" height="58.0" rx="10.0" fill="#f0fdfa" stroke="#99f6e4" stroke-width="1.8"/>
  <text x="178.0" y="1163.0" text-anchor="middle" class="node-title">FSW</text>
  <rect x="96.0" y="1246.0" width="164.0" height="58.0" rx="10.0" fill="#eff6ff" stroke="#bfdbfe" stroke-width="1.8"/>
  <text x="178.0" y="1275.0" text-anchor="middle" class="node-title">资源池 / 调度器</text>
  <rect x="335.5" y="518.0" width="229.0" height="58.0" rx="10.0" fill="#f8fafc" stroke="#cbd5e1" stroke-width="1.8"/>
  <text x="450.0" y="547.0" text-anchor="middle" class="node-title">4-GPU tensor parallel 可调度</text>
  <rect x="332.0" y="630.0" width="236.0" height="58.0" rx="10.0" fill="#f8fafc" stroke="#cbd5e1" stroke-width="1.8"/>
  <text x="450.0" y="659.0" text-anchor="middle" class="node-title">剩余 2 张 GPU 不能满足 4-GPU 同域请求</text>
  <rect x="368.0" y="742.0" width="164.0" height="58.0" rx="10.0" fill="#f0fdf4" stroke="#bbf7d0" stroke-width="1.8"/>
  <text x="450.0" y="771.0" text-anchor="middle" class="node-title">Healthy</text>
  <rect x="368.0" y="854.0" width="164.0" height="58.0" rx="10.0" fill="#fff7ed" stroke="#fed7aa" stroke-width="1.8"/>
  <text x="450.0" y="883.0" text-anchor="middle" class="node-title">Fragmented</text>
  <text x="680.0" y="1466.0" class="footnote">Rendered with fireworks-tech-graph</text>
</svg>