<svg xmlns="http://www.w3.org/2000/svg" viewBox="0 0 3148 632" width="3148" height="632">
  <defs>
    <marker id="arrowA" markerWidth="10" markerHeight="7" refX="9" refY="3.5" orient="auto">
      <polygon points="0 0, 10 3.5, 0 7" fill="#7c3aed"/>
    </marker>
    <marker id="arrowB" markerWidth="10" markerHeight="7" refX="9" refY="3.5" orient="auto">
      <polygon points="0 0, 10 3.5, 0 7" fill="#10b981"/>
    </marker>
    <marker id="arrowC" markerWidth="10" markerHeight="7" refX="9" refY="3.5" orient="auto">
      <polygon points="0 0, 10 3.5, 0 7" fill="#2563eb"/>
    </marker>
    <marker id="arrowE" markerWidth="10" markerHeight="7" refX="9" refY="3.5" orient="auto">
      <polygon points="0 0, 10 3.5, 0 7" fill="#f97316"/>
    </marker>
    <marker id="arrowF" markerWidth="10" markerHeight="7" refX="9" refY="3.5" orient="auto">
      <polygon points="0 0, 10 3.5, 0 7" fill="#7c3aed"/>
    </marker>
    <marker id="arrowG" markerWidth="10" markerHeight="7" refX="9" refY="3.5" orient="auto">
      <polygon points="0 0, 10 3.5, 0 7" fill="#ef4444"/>
    </marker>
    <marker id="arrowH" markerWidth="10" markerHeight="7" refX="9" refY="3.5" orient="auto">
      <polygon points="0 0, 10 3.5, 0 7" fill="#6b7280"/>
    </marker>
    <filter id="shadowSoft" x="-20%" y="-20%" width="140%" height="160%">
      <feDropShadow dx="0" dy="3" stdDeviation="6" flood-color="#0f172a" flood-opacity="0.12"/>
    </filter>
    <filter id="shadowGlass" x="-20%" y="-20%" width="140%" height="160%">
      <feDropShadow dx="0" dy="10" stdDeviation="16" flood-color="#020617" flood-opacity="0.28"/>
    </filter>
    <style>
    text { font-family: 'Helvetica Neue', Helvetica, Arial, 'PingFang SC', 'Microsoft YaHei', 'Microsoft JhengHei', 'SimHei', sans-serif; }
    .title { font-size: 30px; font-weight: 700; fill: #111827; }
    .subtitle { font-size: 14px; font-weight: 500; fill: #6b7280; }
    .section { font-size: 13px; font-weight: 700; fill: #2563eb; letter-spacing: 1.4px; }
    .section-sub { font-size: 12px; font-weight: 500; fill: #94a3b8; }
    .node-title { font-size: 18px; font-weight: 700; fill: #111827; }
    .node-sub { font-size: 12px; font-weight: 500; fill: #6b7280; }
    .node-type { font-size: 12px; font-weight: 700; fill: #9ca3af; letter-spacing: 0.08em; }
    .arrow-label { font-size: 12px; font-weight: 600; fill: #6b7280; }
    .legend { font-size: 12px; font-weight: 500; fill: #6b7280; }
    .footnote { font-size: 12px; font-weight: 500; fill: #94a3b8; }
    </style>
  </defs>
  <rect width="3148.0" height="632.0" fill="#ffffff"/>
  <text x="1574.0" y="56" text-anchor="middle" class="title">41.2.2 系统架构</text>
  <text x="1574.0" y="82" text-anchor="middle" class="subtitle">part-10-economics-cases/chapter-41-token-factory.md:92</text>
  <path d="M 209.5,224.0 L 209.5,244.4 L 1450.5,275.6 L 1450.5,296.0" fill="none" stroke="#7c3aed" stroke-width="2.4" marker-end="url(#arrowA)"/>
  <path d="M 568.5,224.0 L 568.5,244.4 L 1450.5,275.6 L 1450.5,296.0" fill="none" stroke="#7c3aed" stroke-width="2.4" marker-end="url(#arrowA)"/>
  <path d="M 931.0,224.0 L 931.0,244.4 L 1450.5,275.6 L 1450.5,296.0" fill="none" stroke="#7c3aed" stroke-width="2.4" marker-end="url(#arrowA)"/>
  <path d="M 1272.5,224.0 L 1272.5,244.4 L 1450.5,275.6 L 1450.5,296.0" fill="none" stroke="#7c3aed" stroke-width="2.4" marker-end="url(#arrowA)"/>
  <path d="M 1651.0,224.0 L 1651.0,244.4 L 1450.5,275.6 L 1450.5,296.0" fill="none" stroke="#7c3aed" stroke-width="2.4" marker-end="url(#arrowA)"/>
  <path d="M 2033.0,224.0 L 2033.0,244.4 L 1450.5,275.6 L 1450.5,296.0" fill="none" stroke="#7c3aed" stroke-width="2.4" marker-end="url(#arrowA)"/>
  <path d="M 2374.5,224.0 L 2374.5,244.4 L 1450.5,275.6 L 1450.5,296.0" fill="none" stroke="#7c3aed" stroke-width="2.4" marker-end="url(#arrowA)"/>
  <path d="M 2691.5,224.0 L 2691.5,244.4 L 1450.5,275.6 L 1450.5,296.0" fill="none" stroke="#7c3aed" stroke-width="2.4" marker-end="url(#arrowA)"/>
  <path d="M 2973.5,224.0 L 2973.5,244.4 L 1694.0,275.6 L 1694.0,296.0" fill="none" stroke="#7c3aed" stroke-width="2.4" marker-end="url(#arrowA)"/>
  <path d="M 1450.5,354.0 L 1450.5,426.0" fill="none" stroke="#7c3aed" stroke-width="2.4" marker-end="url(#arrowA)"/>
  <path d="M 1621.0,461.0 L 1641.4,461.0 L 1641.4,325.0 L 1794.5,325.0" fill="none" stroke="#7c3aed" stroke-width="2.4" marker-end="url(#arrowA)"/>
  <path d="M 1694.0,354.0 L 1694.0,374.4 L 1767.5,405.6 L 1767.5,426.0" fill="none" stroke="#7c3aed" stroke-width="2.4" marker-end="url(#arrowA)"/>
  <rect x="60.0" y="154.0" width="299.0" height="70.0" rx="10.0" fill="#eff6ff" stroke="#bfdbfe" stroke-width="1.8"/>
  <text x="209.5" y="189.0" text-anchor="middle" class="node-title">metering events</text>
  <text x="209.5" y="211.0" text-anchor="middle" class="node-sub">input / output / reasoning / cached</text>
  <rect x="405.0" y="154.0" width="327.0" height="70.0" rx="10.0" fill="#fff7ed" stroke="#fed7aa" stroke-width="1.8"/>
  <text x="568.5" y="189.0" text-anchor="middle" class="node-title">inference_runtime_cost</text>
  <text x="568.5" y="211.0" text-anchor="middle" class="node-sub">ledger / KV / PD / speculative / cancel</text>
  <rect x="778.0" y="154.0" width="306.0" height="70.0" rx="10.0" fill="#faf5ff" stroke="#e9d5ff" stroke-width="1.8"/>
  <text x="931.0" y="189.0" text-anchor="middle" class="node-title">quality_cost_ledger</text>
  <text x="931.0" y="211.0" text-anchor="middle" class="node-sub">feedback / handoff / rollback / eval</text>
  <rect x="1130.0" y="154.0" width="285.0" height="70.0" rx="10.0" fill="#f0fdfa" stroke="#99f6e4" stroke-width="1.8"/>
  <text x="1272.5" y="189.0" text-anchor="middle" class="node-title">reliability_cost_ledger</text>
  <text x="1272.5" y="211.0" text-anchor="middle" class="node-sub">incident / SLA / wasted GPU hours</text>
  <rect x="1461.0" y="154.0" width="380.0" height="70.0" rx="10.0" fill="#f8fafc" stroke="#cbd5e1" stroke-width="1.8"/>
  <text x="1651.0" y="189.0" text-anchor="middle" class="node-title">security_cost</text>
  <text x="1651.0" y="211.0" text-anchor="middle" class="node-sub">ledger / abuse_cost_ledger / key leak / denial-of-walle...</text>
  <rect x="1887.0" y="154.0" width="292.0" height="70.0" rx="10.0" fill="#eff6ff" stroke="#bfdbfe" stroke-width="1.8"/>
  <text x="2033.0" y="189.0" text-anchor="middle" class="node-title">storage_cost_ledger</text>
  <text x="2033.0" y="211.0" text-anchor="middle" class="node-sub">checkpoint / artifact / cache miss</text>
  <rect x="2225.0" y="154.0" width="299.0" height="70.0" rx="10.0" fill="#f0fdf4" stroke="#bbf7d0" stroke-width="1.8"/>
  <text x="2374.5" y="189.0" text-anchor="middle" class="node-title">network_cost_ledger</text>
  <text x="2374.5" y="211.0" text-anchor="middle" class="node-sub">congestion / wrong placement / idle</text>
  <rect x="2570.0" y="154.0" width="243.0" height="70.0" rx="10.0" fill="#fff7ed" stroke="#fed7aa" stroke-width="1.8"/>
  <text x="2691.5" y="189.0" text-anchor="middle" class="node-title">energy_ledger</text>
  <text x="2691.5" y="211.0" text-anchor="middle" class="node-sub">tokens/W / rack power / PUE</text>
  <rect x="2859.0" y="154.0" width="229.0" height="70.0" rx="10.0" fill="#faf5ff" stroke="#e9d5ff" stroke-width="1.8"/>
  <text x="2973.5" y="189.0" text-anchor="middle" class="node-title">business_model_profile</text>
  <text x="2973.5" y="211.0" text-anchor="middle" class="node-sub">price / discount / credit</text>
  <rect x="1353.5" y="296.0" width="194.0" height="58.0" rx="10.0" fill="#f0fdf4" stroke="#bbf7d0" stroke-width="1.8"/>
  <text x="1450.5" y="325.0" text-anchor="middle" class="node-title">Token Factory ledger</text>
  <rect x="1593.5" y="296.0" width="201.0" height="58.0" rx="10.0" fill="#f0fdfa" stroke="#99f6e4" stroke-width="1.8"/>
  <text x="1694.0" y="325.0" text-anchor="middle" class="node-title">commercial_pnl_ledger</text>
  <rect x="1280.0" y="426.0" width="341.0" height="70.0" rx="10.0" fill="#f8fafc" stroke="#cbd5e1" stroke-width="1.8"/>
  <text x="1450.5" y="461.0" text-anchor="middle" class="node-title">unit economics</text>
  <text x="1450.5" y="483.0" text-anchor="middle" class="node-sub">cost per successful answer / task / token</text>
  <rect x="1667.0" y="426.0" width="201.0" height="70.0" rx="10.0" fill="#eff6ff" stroke="#bfdbfe" stroke-width="1.8"/>
  <text x="1767.5" y="461.0" text-anchor="middle" class="node-title">route / price / scale</text>
  <text x="1767.5" y="483.0" text-anchor="middle" class="node-sub">train / deprecate</text>
  <text x="2868.0" y="616.0" class="footnote">Rendered with fireworks-tech-graph</text>
</svg>