<svg xmlns="http://www.w3.org/2000/svg" viewBox="0 0 1261 698" width="1261" height="698">
  <defs>
    <marker id="arrowA" markerWidth="10" markerHeight="7" refX="9" refY="3.5" orient="auto">
      <polygon points="0 0, 10 3.5, 0 7" fill="#7c3aed"/>
    </marker>
    <marker id="arrowB" markerWidth="10" markerHeight="7" refX="9" refY="3.5" orient="auto">
      <polygon points="0 0, 10 3.5, 0 7" fill="#10b981"/>
    </marker>
    <marker id="arrowC" markerWidth="10" markerHeight="7" refX="9" refY="3.5" orient="auto">
      <polygon points="0 0, 10 3.5, 0 7" fill="#2563eb"/>
    </marker>
    <marker id="arrowE" markerWidth="10" markerHeight="7" refX="9" refY="3.5" orient="auto">
      <polygon points="0 0, 10 3.5, 0 7" fill="#f97316"/>
    </marker>
    <marker id="arrowF" markerWidth="10" markerHeight="7" refX="9" refY="3.5" orient="auto">
      <polygon points="0 0, 10 3.5, 0 7" fill="#7c3aed"/>
    </marker>
    <marker id="arrowG" markerWidth="10" markerHeight="7" refX="9" refY="3.5" orient="auto">
      <polygon points="0 0, 10 3.5, 0 7" fill="#ef4444"/>
    </marker>
    <marker id="arrowH" markerWidth="10" markerHeight="7" refX="9" refY="3.5" orient="auto">
      <polygon points="0 0, 10 3.5, 0 7" fill="#6b7280"/>
    </marker>
    <filter id="shadowSoft" x="-20%" y="-20%" width="140%" height="160%">
      <feDropShadow dx="0" dy="3" stdDeviation="6" flood-color="#0f172a" flood-opacity="0.12"/>
    </filter>
    <filter id="shadowGlass" x="-20%" y="-20%" width="140%" height="160%">
      <feDropShadow dx="0" dy="10" stdDeviation="16" flood-color="#020617" flood-opacity="0.28"/>
    </filter>
    <style>
    text { font-family: 'Helvetica Neue', Helvetica, Arial, 'PingFang SC', 'Microsoft YaHei', 'Microsoft JhengHei', 'SimHei', sans-serif; }
    .title { font-size: 30px; font-weight: 700; fill: #111827; }
    .subtitle { font-size: 14px; font-weight: 500; fill: #6b7280; }
    .section { font-size: 13px; font-weight: 700; fill: #2563eb; letter-spacing: 1.4px; }
    .section-sub { font-size: 12px; font-weight: 500; fill: #94a3b8; }
    .node-title { font-size: 18px; font-weight: 700; fill: #111827; }
    .node-sub { font-size: 12px; font-weight: 500; fill: #6b7280; }
    .node-type { font-size: 12px; font-weight: 700; fill: #9ca3af; letter-spacing: 0.08em; }
    .arrow-label { font-size: 12px; font-weight: 600; fill: #6b7280; }
    .legend { font-size: 12px; font-weight: 500; fill: #6b7280; }
    .footnote { font-size: 12px; font-weight: 500; fill: #94a3b8; }
    </style>
  </defs>
  <rect width="1261.0" height="698.0" fill="#ffffff"/>
  <text x="630.5" y="56" text-anchor="middle" class="title">41.3.8 训练 ROI</text>
  <text x="630.5" y="82" text-anchor="middle" class="subtitle">part-10-economics-cases/chapter-41-token-factory.md:1213</text>
  <path d="M 318.0,211.0 L 338.4,211.0 L 369.6,329.0 L 390.0,329.0" fill="none" stroke="#7c3aed" stroke-width="2.4" marker-end="url(#arrowA)"/>
  <path d="M 300.5,329.0 L 390.0,329.0" fill="none" stroke="#7c3aed" stroke-width="2.4" marker-end="url(#arrowA)"/>
  <path d="M 307.5,435.0 L 327.9,435.0 L 369.6,329.0 L 390.0,329.0" fill="none" stroke="#7c3aed" stroke-width="2.4" marker-end="url(#arrowA)"/>
  <path d="M 598.0,329.0 L 618.4,329.0 L 663.6,155.0 L 684.0,155.0" fill="none" stroke="#7c3aed" stroke-width="2.4" marker-end="url(#arrowA)"/>
  <path d="M 598.0,329.0 L 618.4,329.0 L 656.6,267.0 L 677.0,267.0" fill="none" stroke="#7c3aed" stroke-width="2.4" marker-end="url(#arrowA)"/>
  <path d="M 598.0,329.0 L 618.4,329.0 L 649.6,379.0 L 670.0,379.0" fill="none" stroke="#7c3aed" stroke-width="2.4" marker-end="url(#arrowA)"/>
  <path d="M 598.0,329.0 L 618.4,329.0 L 675.1,497.0 L 695.5,497.0" fill="none" stroke="#7c3aed" stroke-width="2.4" marker-end="url(#arrowA)"/>
  <path d="M 871.0,155.0 L 891.4,155.0 L 936.6,329.0 L 957.0,329.0" fill="none" stroke="#7c3aed" stroke-width="2.4" marker-end="url(#arrowA)"/>
  <path d="M 878.0,267.0 L 898.4,267.0 L 936.6,329.0 L 957.0,329.0" fill="none" stroke="#7c3aed" stroke-width="2.4" marker-end="url(#arrowA)"/>
  <path d="M 885.0,379.0 L 905.4,379.0 L 936.6,329.0 L 957.0,329.0" fill="none" stroke="#7c3aed" stroke-width="2.4" marker-end="url(#arrowA)"/>
  <path d="M 859.5,497.0 L 879.9,497.0 L 936.6,329.0 L 957.0,329.0" fill="none" stroke="#7c3aed" stroke-width="2.4" marker-end="url(#arrowA)"/>
  <rect x="96.0" y="182.0" width="222.0" height="58.0" rx="10.0" fill="#eff6ff" stroke="#bfdbfe" stroke-width="1.8"/>
  <text x="207.0" y="211.0" text-anchor="middle" class="node-title">training_incident_record</text>
  <rect x="113.5" y="294.0" width="187.0" height="70.0" rx="10.0" fill="#fff7ed" stroke="#fed7aa" stroke-width="1.8"/>
  <text x="207.0" y="329.0" text-anchor="middle" class="node-title">training_fault_tree</text>
  <text x="207.0" y="351.0" text-anchor="middle" class="node-sub">execution</text>
  <rect x="106.5" y="406.0" width="201.0" height="58.0" rx="10.0" fill="#faf5ff" stroke="#e9d5ff" stroke-width="1.8"/>
  <text x="207.0" y="435.0" text-anchor="middle" class="node-title">training_debug_bundle</text>
  <rect x="390.0" y="294.0" width="208.0" height="70.0" rx="10.0" fill="#f0fdf4" stroke="#bbf7d0" stroke-width="1.8"/>
  <text x="494.0" y="329.0" text-anchor="middle" class="node-title">training_incident_cost</text>
  <text x="494.0" y="351.0" text-anchor="middle" class="node-sub">record</text>
  <rect x="684.0" y="126.0" width="187.0" height="58.0" rx="10.0" fill="#f0fdfa" stroke="#99f6e4" stroke-width="1.8"/>
  <text x="777.5" y="155.0" text-anchor="middle" class="node-title">training_roi_ledger</text>
  <rect x="677.0" y="238.0" width="201.0" height="58.0" rx="10.0" fill="#f8fafc" stroke="#cbd5e1" stroke-width="1.8"/>
  <text x="777.5" y="267.0" text-anchor="middle" class="node-title">queue_fairness_ledger</text>
  <rect x="670.0" y="350.0" width="215.0" height="58.0" rx="10.0" fill="#eff6ff" stroke="#bfdbfe" stroke-width="1.8"/>
  <text x="777.5" y="379.0" text-anchor="middle" class="node-title">reliability_cost_ledger</text>
  <rect x="695.5" y="462.0" width="164.0" height="70.0" rx="10.0" fill="#f0fdf4" stroke="#bbf7d0" stroke-width="1.8"/>
  <text x="777.5" y="497.0" text-anchor="middle" class="node-title">acceptance</text>
  <text x="777.5" y="519.0" text-anchor="middle" class="node-sub">PRR gate update</text>
  <rect x="957.0" y="294.0" width="208.0" height="70.0" rx="10.0" fill="#fff7ed" stroke="#fed7aa" stroke-width="1.8"/>
  <text x="1061.0" y="329.0" text-anchor="middle" class="node-title">train / rerun / repair</text>
  <text x="1061.0" y="351.0" text-anchor="middle" class="node-sub">pause / invest</text>
  <text x="981.0" y="682.0" class="footnote">Rendered with fireworks-tech-graph</text>
</svg>