<svg xmlns="http://www.w3.org/2000/svg" viewBox="0 0 960 786" width="960" height="786">
  <defs>
    <marker id="arrowA" markerWidth="10" markerHeight="7" refX="9" refY="3.5" orient="auto">
      <polygon points="0 0, 10 3.5, 0 7" fill="#7c3aed"/>
    </marker>
    <marker id="arrowB" markerWidth="10" markerHeight="7" refX="9" refY="3.5" orient="auto">
      <polygon points="0 0, 10 3.5, 0 7" fill="#10b981"/>
    </marker>
    <marker id="arrowC" markerWidth="10" markerHeight="7" refX="9" refY="3.5" orient="auto">
      <polygon points="0 0, 10 3.5, 0 7" fill="#2563eb"/>
    </marker>
    <marker id="arrowE" markerWidth="10" markerHeight="7" refX="9" refY="3.5" orient="auto">
      <polygon points="0 0, 10 3.5, 0 7" fill="#f97316"/>
    </marker>
    <marker id="arrowF" markerWidth="10" markerHeight="7" refX="9" refY="3.5" orient="auto">
      <polygon points="0 0, 10 3.5, 0 7" fill="#7c3aed"/>
    </marker>
    <marker id="arrowG" markerWidth="10" markerHeight="7" refX="9" refY="3.5" orient="auto">
      <polygon points="0 0, 10 3.5, 0 7" fill="#ef4444"/>
    </marker>
    <marker id="arrowH" markerWidth="10" markerHeight="7" refX="9" refY="3.5" orient="auto">
      <polygon points="0 0, 10 3.5, 0 7" fill="#6b7280"/>
    </marker>
    <filter id="shadowSoft" x="-20%" y="-20%" width="140%" height="160%">
      <feDropShadow dx="0" dy="3" stdDeviation="6" flood-color="#0f172a" flood-opacity="0.12"/>
    </filter>
    <filter id="shadowGlass" x="-20%" y="-20%" width="140%" height="160%">
      <feDropShadow dx="0" dy="10" stdDeviation="16" flood-color="#020617" flood-opacity="0.28"/>
    </filter>
    <style>
    text { font-family: 'Helvetica Neue', Helvetica, Arial, 'PingFang SC', 'Microsoft YaHei', 'Microsoft JhengHei', 'SimHei', sans-serif; }
    .title { font-size: 30px; font-weight: 700; fill: #111827; }
    .subtitle { font-size: 14px; font-weight: 500; fill: #6b7280; }
    .section { font-size: 13px; font-weight: 700; fill: #2563eb; letter-spacing: 1.4px; }
    .section-sub { font-size: 12px; font-weight: 500; fill: #94a3b8; }
    .node-title { font-size: 18px; font-weight: 700; fill: #111827; }
    .node-sub { font-size: 12px; font-weight: 500; fill: #6b7280; }
    .node-type { font-size: 12px; font-weight: 700; fill: #9ca3af; letter-spacing: 0.08em; }
    .arrow-label { font-size: 12px; font-weight: 600; fill: #6b7280; }
    .legend { font-size: 12px; font-weight: 500; fill: #6b7280; }
    .footnote { font-size: 12px; font-weight: 500; fill: #94a3b8; }
    </style>
  </defs>
  <rect width="960.0" height="786.0" fill="#ffffff"/>
  <text x="480.0" y="56" text-anchor="middle" class="title">7.3.8 毛利模型</text>
  <text x="480.0" y="82" text-anchor="middle" class="subtitle">part-02-platform/chapter-07-metering-billing.md:215</text>
  <path d="M 248.0,224.0 L 248.0,244.4 L 480.0,275.6 L 480.0,296.0" fill="none" stroke="#7c3aed" stroke-width="2.4" marker-end="url(#arrowA)"/>
  <path d="M 484.5,224.0 L 484.5,244.4 L 480.0,275.6 L 480.0,296.0" fill="none" stroke="#7c3aed" stroke-width="2.4" marker-end="url(#arrowA)"/>
  <path d="M 716.5,224.0 L 716.5,244.4 L 480.0,275.6 L 480.0,296.0" fill="none" stroke="#7c3aed" stroke-width="2.4" marker-end="url(#arrowA)"/>
  <path d="M 480.0,366.0 L 480.0,438.0" fill="none" stroke="#7c3aed" stroke-width="2.4" marker-end="url(#arrowA)"/>
  <path d="M 480.0,508.0 L 480.0,580.0" fill="none" stroke="#7c3aed" stroke-width="2.4" marker-end="url(#arrowA)"/>
  <path d="M 386.5,615.0 L 253.6,615.0 L 253.6,189.0 L 161.5,189.0" fill="none" stroke="#7c3aed" stroke-width="2.4" marker-end="url(#arrowA)"/>
  <rect x="161.5" y="154.0" width="173.0" height="70.0" rx="10.0" fill="#eff6ff" stroke="#bfdbfe" stroke-width="1.8"/>
  <text x="248.0" y="189.0" text-anchor="middle" class="node-title">revenue per token</text>
  <text x="248.0" y="211.0" text-anchor="middle" class="node-sub">价格 / 合同 / 折扣</text>
  <rect x="380.5" y="154.0" width="208.0" height="70.0" rx="10.0" fill="#fff7ed" stroke="#fed7aa" stroke-width="1.8"/>
  <text x="484.5" y="189.0" text-anchor="middle" class="node-title">direct cost</text>
  <text x="484.5" y="211.0" text-anchor="middle" class="node-sub">GPU / provider / power</text>
  <rect x="634.5" y="154.0" width="164.0" height="70.0" rx="10.0" fill="#faf5ff" stroke="#e9d5ff" stroke-width="1.8"/>
  <text x="716.5" y="189.0" text-anchor="middle" class="node-title">shared overhead</text>
  <text x="716.5" y="211.0" text-anchor="middle" class="node-sub">平台 / 运维 / 空闲</text>
  <rect x="398.0" y="296.0" width="164.0" height="70.0" rx="10.0" fill="#f0fdf4" stroke="#bbf7d0" stroke-width="1.8"/>
  <text x="480.0" y="331.0" text-anchor="middle" class="node-title">gross margin</text>
  <text x="480.0" y="353.0" text-anchor="middle" class="node-sub">按模型与租户</text>
  <rect x="397.0" y="438.0" width="166.0" height="70.0" rx="10.0" fill="#f0fdfa" stroke="#99f6e4" stroke-width="1.8"/>
  <text x="480.0" y="473.0" text-anchor="middle" class="node-title">pricing decision</text>
  <text x="480.0" y="495.0" text-anchor="middle" class="node-sub">调价 / 降级 / 专属池</text>
  <rect x="386.5" y="580.0" width="187.0" height="70.0" rx="10.0" fill="#f8fafc" stroke="#cbd5e1" stroke-width="1.8"/>
  <text x="480.0" y="615.0" text-anchor="middle" class="node-title">quota and routing</text>
  <text x="480.0" y="637.0" text-anchor="middle" class="node-sub">预算 / SLA / fallback</text>
  <text x="680.0" y="770.0" class="footnote">Rendered with fireworks-tech-graph</text>
</svg>