<svg xmlns="http://www.w3.org/2000/svg" viewBox="0 0 960 1022" width="960" height="1022">
  <defs>
    <marker id="arrowA" markerWidth="10" markerHeight="7" refX="9" refY="3.5" orient="auto">
      <polygon points="0 0, 10 3.5, 0 7" fill="#7c3aed"/>
    </marker>
    <marker id="arrowB" markerWidth="10" markerHeight="7" refX="9" refY="3.5" orient="auto">
      <polygon points="0 0, 10 3.5, 0 7" fill="#10b981"/>
    </marker>
    <marker id="arrowC" markerWidth="10" markerHeight="7" refX="9" refY="3.5" orient="auto">
      <polygon points="0 0, 10 3.5, 0 7" fill="#2563eb"/>
    </marker>
    <marker id="arrowE" markerWidth="10" markerHeight="7" refX="9" refY="3.5" orient="auto">
      <polygon points="0 0, 10 3.5, 0 7" fill="#f97316"/>
    </marker>
    <marker id="arrowF" markerWidth="10" markerHeight="7" refX="9" refY="3.5" orient="auto">
      <polygon points="0 0, 10 3.5, 0 7" fill="#7c3aed"/>
    </marker>
    <marker id="arrowG" markerWidth="10" markerHeight="7" refX="9" refY="3.5" orient="auto">
      <polygon points="0 0, 10 3.5, 0 7" fill="#ef4444"/>
    </marker>
    <marker id="arrowH" markerWidth="10" markerHeight="7" refX="9" refY="3.5" orient="auto">
      <polygon points="0 0, 10 3.5, 0 7" fill="#6b7280"/>
    </marker>
    <filter id="shadowSoft" x="-20%" y="-20%" width="140%" height="160%">
      <feDropShadow dx="0" dy="3" stdDeviation="6" flood-color="#0f172a" flood-opacity="0.12"/>
    </filter>
    <filter id="shadowGlass" x="-20%" y="-20%" width="140%" height="160%">
      <feDropShadow dx="0" dy="10" stdDeviation="16" flood-color="#020617" flood-opacity="0.28"/>
    </filter>
    <style>
    text { font-family: 'Helvetica Neue', Helvetica, Arial, 'PingFang SC', 'Microsoft YaHei', 'Microsoft JhengHei', 'SimHei', sans-serif; }
    .title { font-size: 30px; font-weight: 700; fill: #111827; }
    .subtitle { font-size: 14px; font-weight: 500; fill: #6b7280; }
    .section { font-size: 13px; font-weight: 700; fill: #2563eb; letter-spacing: 1.4px; }
    .section-sub { font-size: 12px; font-weight: 500; fill: #94a3b8; }
    .node-title { font-size: 18px; font-weight: 700; fill: #111827; }
    .node-sub { font-size: 12px; font-weight: 500; fill: #6b7280; }
    .node-type { font-size: 12px; font-weight: 700; fill: #9ca3af; letter-spacing: 0.08em; }
    .arrow-label { font-size: 12px; font-weight: 600; fill: #6b7280; }
    .legend { font-size: 12px; font-weight: 500; fill: #6b7280; }
    .footnote { font-size: 12px; font-weight: 500; fill: #94a3b8; }
    </style>
  </defs>
  <rect width="960.0" height="1022.0" fill="#ffffff"/>
  <text x="480.0" y="56" text-anchor="middle" class="title">32.2.2 系统架构</text>
  <text x="480.0" y="82" text-anchor="middle" class="subtitle">part-07-network-storage/chapter-32-scale-out-networking.md:70</text>
  <rect x="269.0" y="366.0" width="212.0" height="272.0" rx="16.0" fill="none" stroke="#dbe5f1" stroke-width="1.4" stroke-dasharray="6 5"/>
  <text x="287.0" y="390.0" class="section">RACK 1 / RAIL-AWARE</text>
  <rect x="479.0" y="366.0" width="212.0" height="272.0" rx="16.0" fill="none" stroke="#dbe5f1" stroke-width="1.4" stroke-dasharray="6 5"/>
  <text x="497.0" y="390.0" class="section">RACK 2 / RAIL-AWARE</text>
  <path d="M 480.0,212.0 L 480.0,284.0" fill="none" stroke="#7c3aed" stroke-width="2.4" marker-end="url(#arrowA)"/>
  <path d="M 480.0,342.0 L 480.0,348.0 L 375.0,348.0 L 375.0,414.0" fill="none" stroke="#7c3aed" stroke-width="2.4" marker-end="url(#arrowA)"/>
  <path d="M 480.0,342.0 L 480.0,348.0 L 585.0,348.0 L 585.0,414.0" fill="none" stroke="#7c3aed" stroke-width="2.4" marker-end="url(#arrowA)"/>
  <path d="M 375.0,484.0 L 375.0,556.0" fill="none" stroke="#6b7280" stroke-width="2.0"/>
  <path d="M 585.0,484.0 L 585.0,556.0" fill="none" stroke="#6b7280" stroke-width="2.0"/>
  <path d="M 375.0,614.0 L 375.0,686.0" fill="none" stroke="#6b7280" stroke-width="2.0"/>
  <path d="M 375.0,614.0 L 375.0,634.4 L 585.0,665.6 L 585.0,686.0" fill="none" stroke="#6b7280" stroke-width="2.0"/>
  <path d="M 585.0,614.0 L 585.0,634.4 L 375.0,665.6 L 375.0,686.0" fill="none" stroke="#6b7280" stroke-width="2.0"/>
  <path d="M 585.0,614.0 L 585.0,686.0" fill="none" stroke="#6b7280" stroke-width="2.0"/>
  <path d="M 375.0,744.0 L 375.0,764.4 L 360.0,795.6 L 360.0,816.0" fill="none" stroke="#7c3aed" stroke-width="2.4" marker-end="url(#arrowA)"/>
  <path d="M 585.0,744.0 L 585.0,764.4 L 360.0,795.6 L 360.0,816.0" fill="none" stroke="#7c3aed" stroke-width="2.4" marker-end="url(#arrowA)"/>
  <path d="M 375.0,744.0 L 375.0,764.4 L 614.0,795.6 L 614.0,816.0" fill="none" stroke="#7c3aed" stroke-width="2.4" marker-end="url(#arrowA)"/>
  <path d="M 585.0,744.0 L 585.0,764.4 L 614.0,795.6 L 614.0,816.0" fill="none" stroke="#7c3aed" stroke-width="2.4" marker-end="url(#arrowA)"/>
  <rect x="369.0" y="154.0" width="222.0" height="58.0" rx="10.0" fill="#eff6ff" stroke="#bfdbfe" stroke-width="1.8"/>
  <text x="480.0" y="183.0" text-anchor="middle" class="node-title">Topology-aware Scheduler</text>
  <rect x="379.5" y="284.0" width="201.0" height="58.0" rx="10.0" fill="#f0fdf4" stroke="#bbf7d0" stroke-width="1.8"/>
  <text x="480.0" y="313.0" text-anchor="middle" class="node-title">rank / rail placement</text>
  <rect x="293.0" y="414.0" width="164.0" height="70.0" rx="10.0" fill="#fff7ed" stroke="#fed7aa" stroke-width="1.8"/>
  <text x="375.0" y="449.0" text-anchor="middle" class="node-title">Rack 1 ranks</text>
  <text x="375.0" y="471.0" text-anchor="middle" class="node-sub">GPU Node 1-2</text>
  <rect x="503.0" y="414.0" width="164.0" height="70.0" rx="10.0" fill="#faf5ff" stroke="#e9d5ff" stroke-width="1.8"/>
  <text x="585.0" y="449.0" text-anchor="middle" class="node-title">Rack 2 ranks</text>
  <text x="585.0" y="471.0" text-anchor="middle" class="node-sub">GPU Node 3-4</text>
  <rect x="293.0" y="556.0" width="164.0" height="58.0" rx="10.0" fill="#f0fdfa" stroke="#99f6e4" stroke-width="1.8"/>
  <text x="375.0" y="585.0" text-anchor="middle" class="node-title">Leaf A</text>
  <rect x="503.0" y="556.0" width="164.0" height="58.0" rx="10.0" fill="#f8fafc" stroke="#cbd5e1" stroke-width="1.8"/>
  <text x="585.0" y="585.0" text-anchor="middle" class="node-title">Leaf B</text>
  <rect x="293.0" y="686.0" width="164.0" height="58.0" rx="10.0" fill="#eff6ff" stroke="#bfdbfe" stroke-width="1.8"/>
  <text x="375.0" y="715.0" text-anchor="middle" class="node-title">Spine 1</text>
  <rect x="503.0" y="686.0" width="164.0" height="58.0" rx="10.0" fill="#f0fdf4" stroke="#bbf7d0" stroke-width="1.8"/>
  <text x="585.0" y="715.0" text-anchor="middle" class="node-title">Spine 2</text>
  <rect x="249.0" y="816.0" width="222.0" height="70.0" rx="10.0" fill="#fff7ed" stroke="#fed7aa" stroke-width="1.8"/>
  <text x="360.0" y="851.0" text-anchor="middle" class="node-title">NCCL</text>
  <text x="360.0" y="873.0" text-anchor="middle" class="node-sub">Collective Communication</text>
  <rect x="517.0" y="816.0" width="194.0" height="70.0" rx="10.0" fill="#faf5ff" stroke="#e9d5ff" stroke-width="1.8"/>
  <text x="614.0" y="851.0" text-anchor="middle" class="node-title">RDMA / Port counters</text>
  <text x="614.0" y="873.0" text-anchor="middle" class="node-sub">NCCL logs</text>
  <line x1="42.0" y1="984.0" x2="72.0" y2="984.0" stroke="#6b7280" stroke-width="2.4"/>
  <text x="82.0" y="988.0" class="legend">物理 / 拓扑连接</text>
  <text x="680.0" y="1006.0" class="footnote">Rendered with fireworks-tech-graph</text>
</svg>