<svg xmlns="http://www.w3.org/2000/svg" width="960" height="1258" viewBox="0 0 960 1258"><defs><marker id="arrowA" markerHeight="7" markerWidth="10" orient="auto" refX="9" refY="3.5"><polygon fill="#7c3aed" points="0 0 10 3.5 0 7"/></marker><marker id="arrowB" markerHeight="7" markerWidth="10" orient="auto" refX="9" refY="3.5"><polygon fill="#10b981" points="0 0 10 3.5 0 7"/></marker><marker id="arrowC" markerHeight="7" markerWidth="10" orient="auto" refX="9" refY="3.5"><polygon fill="#2563eb" points="0 0 10 3.5 0 7"/></marker><marker id="arrowE" markerHeight="7" markerWidth="10" orient="auto" refX="9" refY="3.5"><polygon fill="#f97316" points="0 0 10 3.5 0 7"/></marker><marker id="arrowF" markerHeight="7" markerWidth="10" orient="auto" refX="9" refY="3.5"><polygon fill="#7c3aed" points="0 0 10 3.5 0 7"/></marker><marker id="arrowG" markerHeight="7" markerWidth="10" orient="auto" refX="9" refY="3.5"><polygon fill="#ef4444" points="0 0 10 3.5 0 7"/></marker><marker id="arrowH" markerHeight="7" markerWidth="10" orient="auto" refX="9" refY="3.5"><polygon fill="#6b7280" points="0 0 10 3.5 0 7"/></marker><filter id="shadowSoft" width="140%" height="160%" x="-20%" y="-20%"><feDropShadow dx="0" dy="3" flood-color="#0f172a" flood-opacity=".12" stdDeviation="6"/></filter><filter id="shadowGlass" width="140%" height="160%" x="-20%" y="-20%"><feDropShadow dx="0" dy="10" flood-color="#020617" flood-opacity=".28" stdDeviation="16"/></filter><style>text{font-family:&apos;Helvetica Neue&apos;,Helvetica,Arial,&apos;PingFang SC&apos;,&apos;Microsoft YaHei&apos;,&apos;Microsoft JhengHei&apos;,&apos;SimHei&apos;,sans-serif}.title{font-size:30px;font-weight:700;fill:#111827}.subtitle{font-size:14px;font-weight:500;fill:#6b7280}.node-title{font-size:18px;font-weight:700;fill:#111827}.footnote{font-size:12px;font-weight:500;fill:#94a3b8}</style></defs><rect width="960" height="1258" fill="#fff"/><text x="480" y="56" class="title" text-anchor="middle">43.2.2 系统架构</text><text x="480" y="82" class="subtitle" text-anchor="middle">part-10-economics-cases/chapter-43-case-studies.md:72</text><path fill="none" stroke="#7c3aed" stroke-width="2.4" marker-end="url(#arrowA)" d="M 480.0,212.0 L 480.0,284.0"/><path fill="none" stroke="#7c3aed" stroke-width="2.4" marker-end="url(#arrowA)" d="M 480.0,342.0 L 480.0,414.0"/><path fill="none" stroke="#7c3aed" stroke-width="2.4" marker-end="url(#arrowA)" d="M 480.0,472.0 L 480.0,544.0"/><path fill="none" stroke="#7c3aed" stroke-width="2.4" marker-end="url(#arrowA)" d="M 480.0,602.0 L 480.0,622.4 L 375.0,653.6 L 375.0,674.0"/><path fill="none" stroke="#7c3aed" stroke-width="2.4" marker-end="url(#arrowA)" d="M 480.0,602.0 L 480.0,622.4 L 585.0,653.6 L 585.0,674.0"/><path fill="none" stroke="#7c3aed" stroke-width="2.4" marker-end="url(#arrowA)" d="M 375.0,732.0 L 375.0,752.4 L 480.0,783.6 L 480.0,804.0"/><path fill="none" stroke="#7c3aed" stroke-width="2.4" marker-end="url(#arrowA)" d="M 585.0,732.0 L 585.0,752.4 L 480.0,783.6 L 480.0,804.0"/><path fill="none" stroke="#7c3aed" stroke-width="2.4" marker-end="url(#arrowA)" d="M 480.0,862.0 L 480.0,934.0"/><path fill="none" stroke="#7c3aed" stroke-width="2.4" marker-end="url(#arrowA)" d="M 480.0,992.0 L 480.0,1064.0"/><rect width="164" height="58" x="398" y="154" fill="#eff6ff" stroke="#bfdbfe" stroke-width="1.8" rx="10"/><text x="480" y="183" class="node-title" text-anchor="middle">案例类型</text><rect width="164" height="58" x="398" y="284" fill="#f0fdf4" stroke="#bbf7d0" stroke-width="1.8" rx="10"/><text x="480" y="313" class="node-title" text-anchor="middle">目标 / 服务对象</text><rect width="164" height="58" x="398" y="414" fill="#fff7ed" stroke="#fed7aa" stroke-width="1.8" rx="10"/><text x="480" y="443" class="node-title" text-anchor="middle">价值单位</text><rect width="164" height="58" x="398" y="544" fill="#faf5ff" stroke="#e9d5ff" stroke-width="1.8" rx="10"/><text x="480" y="573" class="node-title" text-anchor="middle">核心 workload</text><rect width="164" height="58" x="293" y="674" fill="#f0fdfa" stroke="#99f6e4" stroke-width="1.8" rx="10"/><text x="375" y="703" class="node-title" text-anchor="middle">平台能力</text><rect width="164" height="58" x="503" y="674" fill="#f8fafc" stroke="#cbd5e1" stroke-width="1.8" rx="10"/><text x="585" y="703" class="node-title" text-anchor="middle">基础设施能力</text><rect width="164" height="58" x="398" y="804" fill="#eff6ff" stroke="#bfdbfe" stroke-width="1.8" rx="10"/><text x="480" y="833" class="node-title" text-anchor="middle">可靠性 / 安全 / 运维</text><rect width="164" height="58" x="398" y="934" fill="#f0fdf4" stroke="#bbf7d0" stroke-width="1.8" rx="10"/><text x="480" y="963" class="node-title" text-anchor="middle">成本 / 产能 / ROI</text><rect width="164" height="58" x="398" y="1064" fill="#fff7ed" stroke="#fed7aa" stroke-width="1.8" rx="10"/><text x="480" y="1093" class="node-title" text-anchor="middle">可复用经验 / 风险</text><text x="680" y="1242" class="footnote">Rendered with fireworks-tech-graph</text></svg>