<svg xmlns="http://www.w3.org/2000/svg" viewBox="0 0 1300 1200" width="1300" height="1200">
  <defs>
    <marker id="arrowA" markerWidth="10" markerHeight="7" refX="9" refY="3.5" orient="auto">
      <polygon points="0 0, 10 3.5, 0 7" fill="#7c3aed"/>
    </marker>
    <marker id="arrowB" markerWidth="10" markerHeight="7" refX="9" refY="3.5" orient="auto">
      <polygon points="0 0, 10 3.5, 0 7" fill="#10b981"/>
    </marker>
    <marker id="arrowC" markerWidth="10" markerHeight="7" refX="9" refY="3.5" orient="auto">
      <polygon points="0 0, 10 3.5, 0 7" fill="#2563eb"/>
    </marker>
    <marker id="arrowE" markerWidth="10" markerHeight="7" refX="9" refY="3.5" orient="auto">
      <polygon points="0 0, 10 3.5, 0 7" fill="#f97316"/>
    </marker>
    <marker id="arrowF" markerWidth="10" markerHeight="7" refX="9" refY="3.5" orient="auto">
      <polygon points="0 0, 10 3.5, 0 7" fill="#7c3aed"/>
    </marker>
    <marker id="arrowG" markerWidth="10" markerHeight="7" refX="9" refY="3.5" orient="auto">
      <polygon points="0 0, 10 3.5, 0 7" fill="#ef4444"/>
    </marker>
    <marker id="arrowH" markerWidth="10" markerHeight="7" refX="9" refY="3.5" orient="auto">
      <polygon points="0 0, 10 3.5, 0 7" fill="#6b7280"/>
    </marker>
    <filter id="shadowSoft" x="-20%" y="-20%" width="140%" height="160%">
      <feDropShadow dx="0" dy="3" stdDeviation="6" flood-color="#0f172a" flood-opacity="0.12"/>
    </filter>
    <filter id="shadowGlass" x="-20%" y="-20%" width="140%" height="160%">
      <feDropShadow dx="0" dy="10" stdDeviation="16" flood-color="#020617" flood-opacity="0.28"/>
    </filter>
    <style>
    text { font-family: 'Helvetica Neue', Helvetica, Arial, 'PingFang SC', 'Microsoft YaHei', 'Microsoft JhengHei', 'SimHei', sans-serif; }
    .title { font-size: 30px; font-weight: 700; fill: #111827; }
    .subtitle { font-size: 14px; font-weight: 500; fill: #6b7280; }
    .section { font-size: 13px; font-weight: 700; fill: #2563eb; letter-spacing: 1.4px; }
    .section-sub { font-size: 12px; font-weight: 500; fill: #94a3b8; }
    .node-title { font-size: 18px; font-weight: 700; fill: #111827; }
    .node-sub { font-size: 12px; font-weight: 500; fill: #6b7280; }
    .node-type { font-size: 12px; font-weight: 700; fill: #9ca3af; letter-spacing: 0.08em; }
    .arrow-label { font-size: 12px; font-weight: 600; fill: #6b7280; }
    .legend { font-size: 12px; font-weight: 500; fill: #6b7280; }
    .footnote { font-size: 12px; font-weight: 500; fill: #94a3b8; }
    </style>
  </defs>
  <rect width="1300.0" height="1200.0" fill="#ffffff"/>
  <text x="650.0" y="56" text-anchor="middle" class="title">40.3.5 change management</text>
  <text x="650.0" y="82" text-anchor="middle" class="subtitle">part-09-reliability-observability/chapter-40-sre-operations.md:419</text>
  <path d="M 650.0,212.0 L 650.0,284.0" fill="none" stroke="#7c3aed" stroke-width="2.4" marker-end="url(#arrowA)"/>
  <path d="M 650.0,354.0 L 650.0,426.0" fill="none" stroke="#7c3aed" stroke-width="2.4" marker-end="url(#arrowA)"/>
  <path d="M 650.0,496.0 L 650.0,516.4 L 202.5,547.6 L 202.5,568.0" fill="none" stroke="#7c3aed" stroke-width="2.4" marker-end="url(#arrowA)"/>
  <path d="M 650.0,496.0 L 650.0,516.4 L 533.5,547.6 L 533.5,568.0" fill="none" stroke="#7c3aed" stroke-width="2.4" marker-end="url(#arrowA)"/>
  <path d="M 650.0,496.0 L 650.0,516.4 L 847.0,547.6 L 847.0,568.0" fill="none" stroke="#7c3aed" stroke-width="2.4" marker-end="url(#arrowA)"/>
  <path d="M 650.0,496.0 L 650.0,516.4 L 1129.0,547.6 L 1129.0,568.0" fill="none" stroke="#7c3aed" stroke-width="2.4" marker-end="url(#arrowA)"/>
  <path d="M 202.5,638.0 L 202.5,658.4 L 650.0,689.6 L 650.0,710.0" fill="none" stroke="#7c3aed" stroke-width="2.4" marker-end="url(#arrowA)"/>
  <path d="M 533.5,638.0 L 533.5,658.4 L 650.0,689.6 L 650.0,710.0" fill="none" stroke="#7c3aed" stroke-width="2.4" marker-end="url(#arrowA)"/>
  <path d="M 847.0,638.0 L 847.0,658.4 L 650.0,689.6 L 650.0,710.0" fill="none" stroke="#7c3aed" stroke-width="2.4" marker-end="url(#arrowA)"/>
  <path d="M 1129.0,638.0 L 1129.0,658.4 L 650.0,689.6 L 650.0,710.0" fill="none" stroke="#7c3aed" stroke-width="2.4" marker-end="url(#arrowA)"/>
  <path d="M 650.0,780.0 L 650.0,852.0" fill="none" stroke="#7c3aed" stroke-width="2.4" marker-end="url(#arrowA)"/>
  <path d="M 650.0,922.0 L 650.0,994.0" fill="none" stroke="#7c3aed" stroke-width="2.4" marker-end="url(#arrowA)"/>
  <rect x="568.0" y="154.0" width="164.0" height="58.0" rx="10.0" fill="#eff6ff" stroke="#bfdbfe" stroke-width="1.8"/>
  <text x="650.0" y="183.0" text-anchor="middle" class="node-title">customer ticket</text>
  <rect x="542.5" y="284.0" width="215.0" height="70.0" rx="10.0" fill="#f0fdf4" stroke="#bbf7d0" stroke-width="1.8"/>
  <text x="650.0" y="319.0" text-anchor="middle" class="node-title">support_ticket_taxonomy</text>
  <text x="650.0" y="341.0" text-anchor="middle" class="node-sub">category + severity</text>
  <rect x="532.0" y="426.0" width="236.0" height="70.0" rx="10.0" fill="#fff7ed" stroke="#fed7aa" stroke-width="1.8"/>
  <text x="650.0" y="461.0" text-anchor="middle" class="node-title">diagnostic_bundle_sla</text>
  <text x="650.0" y="483.0" text-anchor="middle" class="node-sub">freeze and redact evidence</text>
  <rect x="60.0" y="568.0" width="285.0" height="70.0" rx="10.0" fill="#faf5ff" stroke="#e9d5ff" stroke-width="1.8"/>
  <text x="202.5" y="603.0" text-anchor="middle" class="node-title">incident</text>
  <text x="202.5" y="625.0" text-anchor="middle" class="node-sub">reliability evidence + mitigation</text>
  <rect x="391.0" y="568.0" width="285.0" height="70.0" rx="10.0" fill="#f0fdfa" stroke="#99f6e4" stroke-width="1.8"/>
  <text x="533.5" y="603.0" text-anchor="middle" class="node-title">change</text>
  <text x="533.5" y="625.0" text-anchor="middle" class="node-sub">release train + upgrade rehearsal</text>
  <rect x="722.0" y="568.0" width="250.0" height="70.0" rx="10.0" fill="#f8fafc" stroke="#cbd5e1" stroke-width="1.8"/>
  <text x="847.0" y="603.0" text-anchor="middle" class="node-title">billing dispute</text>
  <text x="847.0" y="625.0" text-anchor="middle" class="node-sub">metering replay + SLA credit</text>
  <rect x="1018.0" y="568.0" width="222.0" height="70.0" rx="10.0" fill="#eff6ff" stroke="#bfdbfe" stroke-width="1.8"/>
  <text x="1129.0" y="603.0" text-anchor="middle" class="node-title">security case</text>
  <text x="1129.0" y="625.0" text-anchor="middle" class="node-sub">security evidence bundle</text>
  <rect x="546.0" y="710.0" width="208.0" height="70.0" rx="10.0" fill="#f0fdf4" stroke="#bbf7d0" stroke-width="1.8"/>
  <text x="650.0" y="745.0" text-anchor="middle" class="node-title">customer communication</text>
  <text x="650.0" y="767.0" text-anchor="middle" class="node-sub">timeline</text>
  <rect x="511.0" y="852.0" width="278.0" height="70.0" rx="10.0" fill="#fff7ed" stroke="#fed7aa" stroke-width="1.8"/>
  <text x="650.0" y="887.0" text-anchor="middle" class="node-title">postmortem</text>
  <text x="650.0" y="909.0" text-anchor="middle" class="node-sub">problem record / product backlog</text>
  <rect x="549.5" y="994.0" width="201.0" height="70.0" rx="10.0" fill="#faf5ff" stroke="#e9d5ff" stroke-width="1.8"/>
  <text x="650.0" y="1029.0" text-anchor="middle" class="node-title">release / LTS</text>
  <text x="650.0" y="1051.0" text-anchor="middle" class="node-sub">support policy update</text>
  <text x="1020.0" y="1184.0" class="footnote">Rendered with fireworks-tech-graph</text>
</svg>