<svg xmlns="http://www.w3.org/2000/svg" width="1185" height="670" viewBox="0 0 1185 670"><defs><marker id="arrowA" markerHeight="7" markerWidth="10" orient="auto" refX="9" refY="3.5"><polygon fill="#7c3aed" points="0 0 10 3.5 0 7"/></marker><marker id="arrowB" markerHeight="7" markerWidth="10" orient="auto" refX="9" refY="3.5"><polygon fill="#10b981" points="0 0 10 3.5 0 7"/></marker><marker id="arrowC" markerHeight="7" markerWidth="10" orient="auto" refX="9" refY="3.5"><polygon fill="#2563eb" points="0 0 10 3.5 0 7"/></marker><marker id="arrowE" markerHeight="7" markerWidth="10" orient="auto" refX="9" refY="3.5"><polygon fill="#f97316" points="0 0 10 3.5 0 7"/></marker><marker id="arrowF" markerHeight="7" markerWidth="10" orient="auto" refX="9" refY="3.5"><polygon fill="#7c3aed" points="0 0 10 3.5 0 7"/></marker><marker id="arrowG" markerHeight="7" markerWidth="10" orient="auto" refX="9" refY="3.5"><polygon fill="#ef4444" points="0 0 10 3.5 0 7"/></marker><marker id="arrowH" markerHeight="7" markerWidth="10" orient="auto" refX="9" refY="3.5"><polygon fill="#6b7280" points="0 0 10 3.5 0 7"/></marker><filter id="shadowSoft" width="140%" height="160%" x="-20%" y="-20%"><feDropShadow dx="0" dy="3" flood-color="#0f172a" flood-opacity=".12" stdDeviation="6"/></filter><filter id="shadowGlass" width="140%" height="160%" x="-20%" y="-20%"><feDropShadow dx="0" dy="10" flood-color="#020617" flood-opacity=".28" stdDeviation="16"/></filter><style>text{font-family:&apos;Helvetica Neue&apos;,Helvetica,Arial,&apos;PingFang SC&apos;,&apos;Microsoft YaHei&apos;,&apos;Microsoft JhengHei&apos;,&apos;SimHei&apos;,sans-serif}.title{font-size:30px;font-weight:700;fill:#111827}.subtitle{font-size:14px;font-weight:500;fill:#6b7280}.section{font-size:13px;font-weight:700;fill:#2563eb;letter-spacing:1.4px}.section-sub{font-size:12px;font-weight:500;fill:#94a3b8}.node-title{font-size:18px;font-weight:700;fill:#111827}.footnote,.legend,.node-sub{font-size:12px;font-weight:500}.legend,.node-sub{fill:#6b7280}.footnote{fill:#94a3b8}</style></defs><rect width="1185" height="670" fill="#fff"/><text x="592.5" y="56" class="title" text-anchor="middle">38.2.2 系统架构</text><text x="592.5" y="82" class="subtitle" text-anchor="middle">part-09-reliability-observability/chapter-38-acceptance-testing.md:74</text><rect width="228" height="470" x="42" y="118" fill="#f8fafc" stroke="#dbe5f1" stroke-dasharray="7 5" stroke-width="1.4" rx="16"/><text x="60" y="142" class="section">阶段 1</text><text x="60" y="162" class="section-sub">交付 / 维修 / 升级 / 变更 -&gt; HPL / 计算基准</text><rect width="290" height="470" x="308" y="118" fill="#fff" stroke="#dbe5f1" stroke-dasharray="7 5" stroke-width="1.4" rx="16"/><text x="326" y="142" class="section">阶段 2</text><text x="326" y="162" class="section-sub">nvbandwidth -&gt; NCCL test</text><rect width="241" height="470" x="636" y="118" fill="#f8fafc" stroke="#dbe5f1" stroke-dasharray="7 5" stroke-width="1.4" rx="16"/><text x="654" y="142" class="section">阶段 3</text><text x="654" y="162" class="section-sub">storage benchmark -&gt; acceptance baseline</text><rect width="228" height="470" x="915" y="118" fill="#fff" stroke="#dbe5f1" stroke-dasharray="7 5" stroke-width="1.4" rx="16"/><text x="933" y="142" class="section">阶段 4</text><text x="933" y="162" class="section-sub">pass / limited -&gt; 维修 / 复测工单</text><path fill="none" stroke="#7c3aed" stroke-width="2.4" marker-end="url(#arrowA)" d="M 156.0,230.0 L 156.0,270.0"/><path fill="none" stroke="#7c3aed" stroke-width="2.4" marker-end="url(#arrowA)" d="M 156.0,328.0 L 156.0,368.0"/><path fill="none" stroke="#7c3aed" stroke-width="2.4" marker-end="url(#arrowA)" d="M 156.0,426.0 L 156.0,466.0"/><path fill="none" stroke="#7c3aed" stroke-width="2.4" marker-end="url(#arrowA)" d="M 238.0,495.0 L 258.4,495.0 L 350.6,250.0 L 371.0,250.0"/><path fill="none" stroke="#7c3aed" stroke-width="2.4" marker-end="url(#arrowA)" d="M 453.0,279.0 L 453.0,319.0"/><path fill="none" stroke="#7c3aed" stroke-width="2.4" marker-end="url(#arrowA)" d="M 453.0,377.0 L 453.0,417.0"/><path fill="none" stroke="#7c3aed" stroke-width="2.4" marker-end="url(#arrowA)" d="M 535.0,446.0 L 555.4,446.0 L 649.6,250.0 L 670.0,250.0"/><path fill="none" stroke="#7c3aed" stroke-width="2.4" marker-end="url(#arrowA)" d="M 756.5,279.0 L 756.5,319.0"/><path fill="none" stroke="#7c3aed" stroke-width="2.4" marker-end="url(#arrowA)" d="M 756.5,377.0 L 756.5,417.0"/><path fill="none" stroke="#7c3aed" stroke-width="2.4" marker-end="url(#arrowA)" d="M 850.0,446.0 L 870.4,446.0 L 926.6,256.0 L 947.0,256.0"/><path fill="none" stroke="#7c3aed" stroke-width="2.4" marker-end="url(#arrowA)" d="M 1029.0,291.0 L 1029.0,319.0"/><path fill="none" stroke="#7c3aed" stroke-width="2.4" marker-end="url(#arrowA)" d="M 1029.0,291.0 L 1029.0,417.0"/><rect width="173" height="58" x="69.5" y="172" fill="#eff6ff" stroke="#bfdbfe" stroke-width="1.8" rx="10"/><text x="156" y="201" class="node-title" text-anchor="middle">交付 / 维修 / 升级 / 变更</text><rect width="164" height="58" x="74" y="270" fill="#f0fdf4" stroke="#bbf7d0" stroke-width="1.8" rx="10"/><text x="156" y="299" class="node-title" text-anchor="middle">资产与拓扑采集</text><rect width="164" height="58" x="74" y="368" fill="#fff7ed" stroke="#fed7aa" stroke-width="1.8" rx="10"/><text x="156" y="397" class="node-title" text-anchor="middle">GPU burn-in</text><rect width="164" height="58" x="74" y="466" fill="#faf5ff" stroke="#e9d5ff" stroke-width="1.8" rx="10"/><text x="156" y="495" class="node-title" text-anchor="middle">HPL / 计算基准</text><rect width="164" height="58" x="371" y="221" fill="#f0fdfa" stroke="#99f6e4" stroke-width="1.8" rx="10"/><text x="453" y="250" class="node-title" text-anchor="middle">nvbandwidth</text><rect width="236" height="58" x="335" y="319" fill="#f8fafc" stroke="#cbd5e1" stroke-width="1.8" rx="10"/><text x="453" y="348" class="node-title" text-anchor="middle">container GPU runtime test</text><rect width="164" height="58" x="371" y="417" fill="#eff6ff" stroke="#bfdbfe" stroke-width="1.8" rx="10"/><text x="453" y="446" class="node-title" text-anchor="middle">NCCL test</text><rect width="173" height="58" x="670" y="221" fill="#f0fdf4" stroke="#bbf7d0" stroke-width="1.8" rx="10"/><text x="756.5" y="250" class="node-title" text-anchor="middle">storage benchmark</text><rect width="173" height="58" x="670" y="319" fill="#fff7ed" stroke="#fed7aa" stroke-width="1.8" rx="10"/><text x="756.5" y="348" class="node-title" text-anchor="middle">network benchmark</text><rect width="187" height="58" x="663" y="417" fill="#faf5ff" stroke="#e9d5ff" stroke-width="1.8" rx="10"/><text x="756.5" y="446" class="node-title" text-anchor="middle">acceptance baseline</text><rect width="164" height="70" x="947" y="221" fill="#f0fdfa" stroke="#99f6e4" stroke-width="1.8" rx="10"/><text x="1029" y="256" class="node-title" text-anchor="middle">pass / limited</text><text x="1029" y="278" class="node-sub" text-anchor="middle">quarantine</text><rect width="164" height="58" x="947" y="319" fill="#f8fafc" stroke="#cbd5e1" stroke-width="1.8" rx="10"/><text x="1029" y="348" class="node-title" text-anchor="middle">资源池状态更新</text><rect width="164" height="58" x="947" y="417" fill="#eff6ff" stroke="#bfdbfe" stroke-width="1.8" rx="10"/><text x="1029" y="446" class="node-title" text-anchor="middle">维修 / 复测工单</text><line x1="42" x2="72" y1="632" y2="632" stroke="#7c3aed" stroke-width="2.4" marker-end="url(#arrowA)"/><text x="82" y="636" class="legend">主路径 / 阶段推进</text><text x="905" y="654" class="footnote">Rendered with fireworks-tech-graph</text></svg>