<svg xmlns="http://www.w3.org/2000/svg" width="2262" height="404" viewBox="0 0 2262 404"><defs><marker id="arrowA" markerHeight="7" markerWidth="10" orient="auto" refX="9" refY="3.5"><polygon fill="#7c3aed" points="0 0 10 3.5 0 7"/></marker><marker id="arrowB" markerHeight="7" markerWidth="10" orient="auto" refX="9" refY="3.5"><polygon fill="#10b981" points="0 0 10 3.5 0 7"/></marker><marker id="arrowC" markerHeight="7" markerWidth="10" orient="auto" refX="9" refY="3.5"><polygon fill="#2563eb" points="0 0 10 3.5 0 7"/></marker><marker id="arrowE" markerHeight="7" markerWidth="10" orient="auto" refX="9" refY="3.5"><polygon fill="#f97316" points="0 0 10 3.5 0 7"/></marker><marker id="arrowF" markerHeight="7" markerWidth="10" orient="auto" refX="9" refY="3.5"><polygon fill="#7c3aed" points="0 0 10 3.5 0 7"/></marker><marker id="arrowG" markerHeight="7" markerWidth="10" orient="auto" refX="9" refY="3.5"><polygon fill="#ef4444" points="0 0 10 3.5 0 7"/></marker><marker id="arrowH" markerHeight="7" markerWidth="10" orient="auto" refX="9" refY="3.5"><polygon fill="#6b7280" points="0 0 10 3.5 0 7"/></marker><filter id="shadowSoft" width="140%" height="160%" x="-20%" y="-20%"><feDropShadow dx="0" dy="3" flood-color="#0f172a" flood-opacity=".12" stdDeviation="6"/></filter><filter id="shadowGlass" width="140%" height="160%" x="-20%" y="-20%"><feDropShadow dx="0" dy="10" flood-color="#020617" flood-opacity=".28" stdDeviation="16"/></filter><style>text{font-family:&apos;Helvetica Neue&apos;,Helvetica,Arial,&apos;PingFang SC&apos;,&apos;Microsoft YaHei&apos;,&apos;Microsoft JhengHei&apos;,&apos;SimHei&apos;,sans-serif}.title{font-size:30px;font-weight:700;fill:#111827}.subtitle{font-size:14px;font-weight:500;fill:#6b7280}.node-title{font-size:18px;font-weight:700;fill:#111827}.footnote,.node-sub{font-size:12px;font-weight:500}.node-sub{fill:#6b7280}.footnote{fill:#94a3b8}</style></defs><rect width="2262" height="404" fill="#fff"/><text x="1131" y="56" class="title" text-anchor="middle">22.3.3 GPU resource request</text><text x="1131" y="82" class="subtitle" text-anchor="middle">part-05-orchestration/chapter-22-gpu-on-kubernetes.md:321</text><path fill="none" stroke="#7c3aed" stroke-width="2.4" marker-end="url(#arrowA)" d="M 381.0,217.0 L 453.0,217.0"/><path fill="none" stroke="#7c3aed" stroke-width="2.4" marker-end="url(#arrowA)" d="M 633.0,217.0 L 653.4,217.0 L 684.6,161.0 L 705.0,161.0"/><path fill="none" stroke="#7c3aed" stroke-width="2.4" marker-end="url(#arrowA)" d="M 633.0,217.0 L 653.4,217.0 L 744.1,273.0 L 764.5,273.0"/><path fill="none" stroke="#7c3aed" stroke-width="2.4" marker-end="url(#arrowA)" d="M 1011.0,161.0 L 1031.4,161.0 L 1073.1,155.0 L 1093.5,155.0"/><path fill="none" stroke="#7c3aed" stroke-width="2.4" marker-end="url(#arrowA)" d="M 951.5,273.0 L 1083.0,273.0"/><path fill="none" stroke="#7c3aed" stroke-width="2.4" marker-end="url(#arrowA)" d="M 1305.0,273.0 L 1199.25,273.0 L 1199.25,155.0 L 1093.5,155.0"/><path fill="none" stroke="#7c3aed" stroke-width="2.4" marker-end="url(#arrowA)" d="M 1294.5,155.0 L 1314.9,155.0 L 1356.6,211.0 L 1377.0,211.0"/><path fill="none" stroke="#7c3aed" stroke-width="2.4" marker-end="url(#arrowA)" d="M 1613.0,211.0 L 1633.4,211.0 L 1664.6,217.0 L 1685.0,217.0"/><path fill="none" stroke="#7c3aed" stroke-width="2.4" marker-end="url(#arrowA)" d="M 1886.0,217.0 L 1906.4,217.0 L 1937.6,211.0 L 1958.0,211.0"/><rect width="285" height="70" x="96" y="182" fill="#eff6ff" stroke="#bfdbfe" stroke-width="1.8" rx="10"/><text x="238.5" y="217" class="node-title" text-anchor="middle">workload intent</text><text x="238.5" y="239" class="node-sub" text-anchor="middle">GPU class / HBM / isolation / SLO</text><rect width="180" height="70" x="453" y="182" fill="#f0fdf4" stroke="#bbf7d0" stroke-width="1.8" rx="10"/><text x="543" y="217" class="node-title" text-anchor="middle">gpu_resource_claim</text><text x="543" y="239" class="node-sub" text-anchor="middle">contract</text><rect width="306" height="70" x="705" y="126" fill="#fff7ed" stroke="#fed7aa" stroke-width="1.8" rx="10"/><text x="858" y="161" class="node-title" text-anchor="middle">DeviceClass</text><text x="858" y="183" class="node-sub" text-anchor="middle">ResourceClaim / or extended resource</text><rect width="187" height="70" x="764.5" y="238" fill="#faf5ff" stroke="#e9d5ff" stroke-width="1.8" rx="10"/><text x="858" y="273" class="node-title" text-anchor="middle">entitlement / quota</text><text x="858" y="295" class="node-sub" text-anchor="middle">model fit</text><rect width="201" height="58" x="1093.5" y="126" fill="#f0fdfa" stroke="#99f6e4" stroke-width="1.8" rx="10"/><text x="1194" y="155" class="node-title" text-anchor="middle">gpu_assignment_record</text><rect width="222" height="70" x="1083" y="238" fill="#f8fafc" stroke="#cbd5e1" stroke-width="1.8" rx="10"/><text x="1194" y="273" class="node-title" text-anchor="middle">resource_claim_admission</text><text x="1194" y="295" class="node-sub" text-anchor="middle">record</text><rect width="236" height="58" x="1377" y="182" fill="#eff6ff" stroke="#bfdbfe" stroke-width="1.8" rx="10"/><text x="1495" y="211" class="node-title" text-anchor="middle">OCI / CDI / NVIDIA runtime</text><rect width="201" height="70" x="1685" y="182" fill="#f0fdf4" stroke="#bbf7d0" stroke-width="1.8" rx="10"/><text x="1785.5" y="217" class="node-title" text-anchor="middle">gpu_device_visibility</text><text x="1785.5" y="239" class="node-sub" text-anchor="middle">reconciliation</text><rect width="208" height="58" x="1958" y="182" fill="#fff7ed" stroke="#fed7aa" stroke-width="1.8" rx="10"/><text x="2062" y="211" class="node-title" text-anchor="middle">metering + cost labels</text><text x="1982" y="388" class="footnote">Rendered with fireworks-tech-graph</text></svg>