<svg xmlns="http://www.w3.org/2000/svg" viewBox="0 0 1142 600" width="1142" height="600">
  <defs>
    <marker id="arrowA" markerWidth="10" markerHeight="7" refX="9" refY="3.5" orient="auto">
      <polygon points="0 0, 10 3.5, 0 7" fill="#7c3aed"/>
    </marker>
    <marker id="arrowB" markerWidth="10" markerHeight="7" refX="9" refY="3.5" orient="auto">
      <polygon points="0 0, 10 3.5, 0 7" fill="#10b981"/>
    </marker>
    <marker id="arrowC" markerWidth="10" markerHeight="7" refX="9" refY="3.5" orient="auto">
      <polygon points="0 0, 10 3.5, 0 7" fill="#2563eb"/>
    </marker>
    <marker id="arrowE" markerWidth="10" markerHeight="7" refX="9" refY="3.5" orient="auto">
      <polygon points="0 0, 10 3.5, 0 7" fill="#f97316"/>
    </marker>
    <marker id="arrowF" markerWidth="10" markerHeight="7" refX="9" refY="3.5" orient="auto">
      <polygon points="0 0, 10 3.5, 0 7" fill="#7c3aed"/>
    </marker>
    <marker id="arrowG" markerWidth="10" markerHeight="7" refX="9" refY="3.5" orient="auto">
      <polygon points="0 0, 10 3.5, 0 7" fill="#ef4444"/>
    </marker>
    <marker id="arrowH" markerWidth="10" markerHeight="7" refX="9" refY="3.5" orient="auto">
      <polygon points="0 0, 10 3.5, 0 7" fill="#6b7280"/>
    </marker>
    <filter id="shadowSoft" x="-20%" y="-20%" width="140%" height="160%">
      <feDropShadow dx="0" dy="3" stdDeviation="6" flood-color="#0f172a" flood-opacity="0.12"/>
    </filter>
    <filter id="shadowGlass" x="-20%" y="-20%" width="140%" height="160%">
      <feDropShadow dx="0" dy="10" stdDeviation="16" flood-color="#020617" flood-opacity="0.28"/>
    </filter>
    <style>
    text { font-family: 'Helvetica Neue', Helvetica, Arial, 'PingFang SC', 'Microsoft YaHei', 'Microsoft JhengHei', 'SimHei', sans-serif; }
    .title { font-size: 30px; font-weight: 700; fill: #111827; }
    .subtitle { font-size: 14px; font-weight: 500; fill: #6b7280; }
    .section { font-size: 13px; font-weight: 700; fill: #2563eb; letter-spacing: 1.4px; }
    .section-sub { font-size: 12px; font-weight: 500; fill: #94a3b8; }
    .node-title { font-size: 18px; font-weight: 700; fill: #111827; }
    .node-sub { font-size: 12px; font-weight: 500; fill: #6b7280; }
    .node-type { font-size: 12px; font-weight: 700; fill: #9ca3af; letter-spacing: 0.08em; }
    .arrow-label { font-size: 12px; font-weight: 600; fill: #6b7280; }
    .legend { font-size: 12px; font-weight: 500; fill: #6b7280; }
    .footnote { font-size: 12px; font-weight: 500; fill: #94a3b8; }
    </style>
  </defs>
  <rect width="1142.0" height="600.0" fill="#ffffff"/>
  <text x="571.0" y="56" text-anchor="middle" class="title">2.4.1 工程实现</text>
  <text x="571.0" y="82" text-anchor="middle" class="subtitle">part-01-applications/chapter-02-rag.md:326</text>
  <rect x="42.0" y="118.0" width="332.0" height="274.0" rx="16.0" fill="#f8fafc" stroke="#dbe5f1" stroke-width="1.4" stroke-dasharray="7 5"/>
  <text x="60.0" y="142.0" class="section">阶段 1</text>
  <text x="60.0" y="162.0" class="section-sub">eval case -&gt; retrieval gate</text>
  <rect x="412.0" y="118.0" width="388.0" height="274.0" rx="16.0" fill="#ffffff" stroke="#dbe5f1" stroke-width="1.4" stroke-dasharray="7 5"/>
  <text x="430.0" y="142.0" class="section">阶段 2</text>
  <text x="430.0" y="162.0" class="section-sub">context gate -&gt; generation gate</text>
  <rect x="838.0" y="118.0" width="262.0" height="274.0" rx="16.0" fill="#f8fafc" stroke="#dbe5f1" stroke-width="1.4" stroke-dasharray="7 5"/>
  <text x="856.0" y="142.0" class="section">阶段 3</text>
  <text x="856.0" y="162.0" class="section-sub">rag_regression_case -&gt; chunking / embedding</text>
  <path d="M 208.0,242.0 L 208.0,270.0" fill="none" stroke="#7c3aed" stroke-width="2.4" marker-end="url(#arrowA)"/>
  <path d="M 319.0,305.0 L 339.4,305.0 L 418.6,207.0 L 439.0,207.0" fill="none" stroke="#7c3aed" stroke-width="2.4" marker-end="url(#arrowA)"/>
  <path d="M 606.0,242.0 L 606.0,270.0" fill="none" stroke="#7c3aed" stroke-width="2.4" marker-end="url(#arrowA)"/>
  <path d="M 741.5,305.0 L 818.0,305.0 L 818.0,201.0 L 875.5,201.0" fill="none" stroke="#7c3aed" stroke-width="2.4" marker-end="url(#arrowA)"/>
  <path d="M 969.0,230.0 L 969.0,270.0" fill="none" stroke="#7c3aed" stroke-width="2.4" marker-end="url(#arrowA)"/>
  <rect x="69.0" y="172.0" width="278.0" height="70.0" rx="10.0" fill="#eff6ff" stroke="#bfdbfe" stroke-width="1.8"/>
  <text x="208.0" y="207.0" text-anchor="middle" class="node-title">eval case</text>
  <text x="208.0" y="229.0" text-anchor="middle" class="node-sub">question + acl + golden evidence</text>
  <rect x="97.0" y="270.0" width="222.0" height="70.0" rx="10.0" fill="#f0fdf4" stroke="#bbf7d0" stroke-width="1.8"/>
  <text x="208.0" y="305.0" text-anchor="middle" class="node-title">retrieval gate</text>
  <text x="208.0" y="327.0" text-anchor="middle" class="node-sub">recall / ACL / no-answer</text>
  <rect x="439.0" y="172.0" width="334.0" height="70.0" rx="10.0" fill="#fff7ed" stroke="#fed7aa" stroke-width="1.8"/>
  <text x="606.0" y="207.0" text-anchor="middle" class="node-title">context gate</text>
  <text x="606.0" y="229.0" text-anchor="middle" class="node-sub">selected chunks / truncation / citations</text>
  <rect x="470.5" y="270.0" width="271.0" height="70.0" rx="10.0" fill="#faf5ff" stroke="#e9d5ff" stroke-width="1.8"/>
  <text x="606.0" y="305.0" text-anchor="middle" class="node-title">generation gate</text>
  <text x="606.0" y="327.0" text-anchor="middle" class="node-sub">faithfulness / answer / refusal</text>
  <rect x="875.5" y="172.0" width="187.0" height="58.0" rx="10.0" fill="#f0fdfa" stroke="#99f6e4" stroke-width="1.8"/>
  <text x="969.0" y="201.0" text-anchor="middle" class="node-title">rag_regression_case</text>
  <rect x="865.0" y="270.0" width="208.0" height="70.0" rx="10.0" fill="#f8fafc" stroke="#cbd5e1" stroke-width="1.8"/>
  <text x="969.0" y="305.0" text-anchor="middle" class="node-title">chunking / embedding</text>
  <text x="969.0" y="327.0" text-anchor="middle" class="node-sub">rerank / prompt update</text>
  <line x1="42.0" y1="562.0" x2="72.0" y2="562.0" stroke="#7c3aed" stroke-width="2.4" marker-end="url(#arrowA)"/>
  <text x="82.0" y="566.0" class="legend">主路径 / 阶段推进</text>
  <text x="862.0" y="584.0" class="footnote">Rendered with fireworks-tech-graph</text>
</svg>