<svg xmlns="http://www.w3.org/2000/svg" width="2409" height="404" viewBox="0 0 2409 404"><defs><marker id="arrowA" markerHeight="7" markerWidth="10" orient="auto" refX="9" refY="3.5"><polygon fill="#7c3aed" points="0 0 10 3.5 0 7"/></marker><marker id="arrowB" markerHeight="7" markerWidth="10" orient="auto" refX="9" refY="3.5"><polygon fill="#10b981" points="0 0 10 3.5 0 7"/></marker><marker id="arrowC" markerHeight="7" markerWidth="10" orient="auto" refX="9" refY="3.5"><polygon fill="#2563eb" points="0 0 10 3.5 0 7"/></marker><marker id="arrowE" markerHeight="7" markerWidth="10" orient="auto" refX="9" refY="3.5"><polygon fill="#f97316" points="0 0 10 3.5 0 7"/></marker><marker id="arrowF" markerHeight="7" markerWidth="10" orient="auto" refX="9" refY="3.5"><polygon fill="#7c3aed" points="0 0 10 3.5 0 7"/></marker><marker id="arrowG" markerHeight="7" markerWidth="10" orient="auto" refX="9" refY="3.5"><polygon fill="#ef4444" points="0 0 10 3.5 0 7"/></marker><marker id="arrowH" markerHeight="7" markerWidth="10" orient="auto" refX="9" refY="3.5"><polygon fill="#6b7280" points="0 0 10 3.5 0 7"/></marker><filter id="shadowSoft" width="140%" height="160%" x="-20%" y="-20%"><feDropShadow dx="0" dy="3" flood-color="#0f172a" flood-opacity=".12" stdDeviation="6"/></filter><filter id="shadowGlass" width="140%" height="160%" x="-20%" y="-20%"><feDropShadow dx="0" dy="10" flood-color="#020617" flood-opacity=".28" stdDeviation="16"/></filter><style>text{font-family:&apos;Helvetica Neue&apos;,Helvetica,Arial,&apos;PingFang SC&apos;,&apos;Microsoft YaHei&apos;,&apos;Microsoft JhengHei&apos;,&apos;SimHei&apos;,sans-serif}.title{font-size:30px;font-weight:700;fill:#111827}.subtitle{font-size:14px;font-weight:500;fill:#6b7280}.node-title{font-size:18px;font-weight:700;fill:#111827}.footnote,.node-sub{font-size:12px;font-weight:500}.node-sub{fill:#6b7280}.footnote{fill:#94a3b8}</style></defs><rect width="2409" height="404" fill="#fff"/><text x="1204.5" y="56" class="title" text-anchor="middle">20.3.6 data processing</text><text x="1204.5" y="82" class="subtitle" text-anchor="middle">part-05-orchestration/chapter-20-ai-workloads.md:251</text><path fill="none" stroke="#7c3aed" stroke-width="2.4" marker-end="url(#arrowA)" d="M 297.0,211.0 L 317.4,211.0 L 348.6,217.0 L 369.0,217.0"/><path fill="none" stroke="#7c3aed" stroke-width="2.4" marker-end="url(#arrowA)" d="M 591.0,217.0 L 611.4,217.0 L 642.6,211.0 L 663.0,211.0"/><path fill="none" stroke="#7c3aed" stroke-width="2.4" marker-end="url(#arrowA)" d="M 850.0,211.0 L 870.4,211.0 L 901.6,217.0 L 922.0,217.0"/><path fill="none" stroke="#7c3aed" stroke-width="2.4" marker-end="url(#arrowA)" d="M 1179.0,217.0 L 1251.0,217.0"/><path fill="none" stroke="#7c3aed" stroke-width="2.4" marker-end="url(#arrowA)" d="M 1431.0,217.0 L 1451.4,217.0 L 1482.6,211.0 L 1503.0,211.0"/><path fill="none" stroke="#7c3aed" stroke-width="2.4" marker-end="url(#arrowA)" d="M 1718.0,211.0 L 1738.4,211.0 L 1769.6,155.0 L 1790.0,155.0"/><path fill="none" stroke="#7c3aed" stroke-width="2.4" marker-end="url(#arrowA)" d="M 1718.0,211.0 L 1738.4,211.0 L 1790.6,267.0 L 1811.0,267.0"/><path fill="none" stroke="#7c3aed" stroke-width="2.4" marker-end="url(#arrowA)" d="M 850.0,211.0 L 870.4,211.0 L 870.4,102.0 L 2063.6,102.0 L 2063.6,211.0 L 2084.0,211.0"/><path fill="none" stroke="#7c3aed" stroke-width="2.4" marker-end="url(#arrowA)" d="M 1179.0,217.0 L 1199.4,217.0 L 2063.6,211.0 L 2084.0,211.0"/><path fill="none" stroke="#7c3aed" stroke-width="2.4" marker-end="url(#arrowA)" d="M 1431.0,217.0 L 1451.4,217.0 L 2063.6,211.0 L 2084.0,211.0"/><path fill="none" stroke="#7c3aed" stroke-width="2.4" marker-end="url(#arrowA)" d="M 2012.0,155.0 L 2032.4,155.0 L 2063.6,211.0 L 2084.0,211.0"/><rect width="201" height="58" x="96" y="182" fill="#eff6ff" stroke="#bfdbfe" stroke-width="1.8" rx="10"/><text x="196.5" y="211" class="node-title" text-anchor="middle">uploaded media object</text><rect width="222" height="70" x="369" y="182" fill="#f0fdf4" stroke="#bbf7d0" stroke-width="1.8" rx="10"/><text x="480" y="217" class="node-title" text-anchor="middle">media workload admission</text><text x="480" y="239" class="node-sub" text-anchor="middle">quota / type / retention</text><rect width="187" height="58" x="663" y="182" fill="#fff7ed" stroke="#fed7aa" stroke-width="1.8" rx="10"/><text x="756.5" y="211" class="node-title" text-anchor="middle">virus / policy scan</text><rect width="257" height="70" x="922" y="182" fill="#faf5ff" stroke="#e9d5ff" stroke-width="1.8" rx="10"/><text x="1050.5" y="217" class="node-title" text-anchor="middle">decode / render</text><text x="1050.5" y="239" class="node-sub" text-anchor="middle">pages / frames / audio chunks</text><rect width="180" height="70" x="1251" y="182" fill="#f0fdfa" stroke="#99f6e4" stroke-width="1.8" rx="10"/><text x="1341" y="217" class="node-title" text-anchor="middle">OCR / ASR / layout</text><text x="1341" y="239" class="node-sub" text-anchor="middle">embedding</text><rect width="215" height="58" x="1503" y="182" fill="#f8fafc" stroke="#cbd5e1" stroke-width="1.8" rx="10"/><text x="1610.5" y="211" class="node-title" text-anchor="middle">media_artifact_manifest</text><rect width="222" height="58" x="1790" y="126" fill="#eff6ff" stroke="#bfdbfe" stroke-width="1.8" rx="10"/><text x="1901" y="155" class="node-title" text-anchor="middle">multimodal model serving</text><rect width="180" height="58" x="1811" y="238" fill="#f0fdf4" stroke="#bbf7d0" stroke-width="1.8" rx="10"/><text x="1901" y="267" class="node-title" text-anchor="middle">RAG / vector index</text><rect width="229" height="58" x="2084" y="182" fill="#fff7ed" stroke="#fed7aa" stroke-width="1.8" rx="10"/><text x="2198.5" y="211" class="node-title" text-anchor="middle">multimodal_metering_event</text><text x="2129" y="388" class="footnote">Rendered with fireworks-tech-graph</text></svg>