<svg xmlns="http://www.w3.org/2000/svg" width="960" height="1424" viewBox="0 0 960 1424"><defs><marker id="arrowA" markerHeight="7" markerWidth="10" orient="auto" refX="9" refY="3.5"><polygon fill="#7c3aed" points="0 0 10 3.5 0 7"/></marker><marker id="arrowB" markerHeight="7" markerWidth="10" orient="auto" refX="9" refY="3.5"><polygon fill="#10b981" points="0 0 10 3.5 0 7"/></marker><marker id="arrowC" markerHeight="7" markerWidth="10" orient="auto" refX="9" refY="3.5"><polygon fill="#2563eb" points="0 0 10 3.5 0 7"/></marker><marker id="arrowE" markerHeight="7" markerWidth="10" orient="auto" refX="9" refY="3.5"><polygon fill="#f97316" points="0 0 10 3.5 0 7"/></marker><marker id="arrowF" markerHeight="7" markerWidth="10" orient="auto" refX="9" refY="3.5"><polygon fill="#7c3aed" points="0 0 10 3.5 0 7"/></marker><marker id="arrowG" markerHeight="7" markerWidth="10" orient="auto" refX="9" refY="3.5"><polygon fill="#ef4444" points="0 0 10 3.5 0 7"/></marker><marker id="arrowH" markerHeight="7" markerWidth="10" orient="auto" refX="9" refY="3.5"><polygon fill="#6b7280" points="0 0 10 3.5 0 7"/></marker><filter id="shadowSoft" width="140%" height="160%" x="-20%" y="-20%"><feDropShadow dx="0" dy="3" flood-color="#0f172a" flood-opacity=".12" stdDeviation="6"/></filter><filter id="shadowGlass" width="140%" height="160%" x="-20%" y="-20%"><feDropShadow dx="0" dy="10" flood-color="#020617" flood-opacity=".28" stdDeviation="16"/></filter><style>text{font-family:&apos;Helvetica Neue&apos;,Helvetica,Arial,&apos;PingFang SC&apos;,&apos;Microsoft YaHei&apos;,&apos;Microsoft JhengHei&apos;,&apos;SimHei&apos;,sans-serif}.title{font-size:30px;font-weight:700;fill:#111827}.subtitle{font-size:14px;font-weight:500;fill:#6b7280}.node-title{font-size:18px;font-weight:700;fill:#111827}.footnote,.node-sub{font-size:12px;font-weight:500}.node-sub{fill:#6b7280}.footnote{fill:#94a3b8}</style></defs><rect width="960" height="1424" fill="#fff"/><text x="480" y="56" class="title" text-anchor="middle">21.2.2 系统架构</text><text x="480" y="82" class="subtitle" text-anchor="middle">part-05-orchestration/chapter-21-containers-kubernetes.md:61</text><path fill="none" stroke="#7c3aed" stroke-width="2.4" marker-end="url(#arrowA)" d="M 480.0,212.0 L 480.0,284.0"/><path fill="none" stroke="#7c3aed" stroke-width="2.4" marker-end="url(#arrowA)" d="M 480.0,342.0 L 480.0,362.4 L 360.0,393.6 L 360.0,414.0"/><path fill="none" stroke="#7c3aed" stroke-width="2.4" marker-end="url(#arrowA)" d="M 480.0,342.0 L 480.0,362.4 L 621.0,393.6 L 621.0,414.0"/><path fill="none" stroke="#7c3aed" stroke-width="2.4" marker-end="url(#arrowA)" d="M 621.0,484.0 L 621.0,504.4 L 480.0,535.6 L 480.0,556.0"/><path fill="none" stroke="#7c3aed" stroke-width="2.4" marker-end="url(#arrowA)" d="M 478.0,449.0 L 498.4,449.0 L 498.4,313.0 L 580.5,313.0"/><path fill="none" stroke="#7c3aed" stroke-width="2.4" marker-end="url(#arrowA)" d="M 480.0,614.0 L 480.0,686.0"/><path fill="none" stroke="#7c3aed" stroke-width="2.4" marker-end="url(#arrowA)" d="M 480.0,744.0 L 480.0,764.4 L 265.5,795.6 L 265.5,816.0"/><path fill="none" stroke="#7c3aed" stroke-width="2.4" marker-end="url(#arrowA)" d="M 480.0,744.0 L 480.0,764.4 L 511.5,795.6 L 511.5,816.0"/><path fill="none" stroke="#7c3aed" stroke-width="2.4" marker-end="url(#arrowA)" d="M 480.0,744.0 L 480.0,764.4 L 726.0,795.6 L 726.0,816.0"/><path fill="none" stroke="#7c3aed" stroke-width="2.4" marker-end="url(#arrowA)" d="M 265.5,874.0 L 265.5,894.4 L 480.0,925.6 L 480.0,946.0"/><path fill="none" stroke="#7c3aed" stroke-width="2.4" marker-end="url(#arrowA)" d="M 480.0,1016.0 L 480.0,1088.0"/><path fill="none" stroke="#7c3aed" stroke-width="2.4" marker-end="url(#arrowA)" d="M 511.5,874.0 L 511.5,894.4 L 480.0,1067.6 L 480.0,1088.0"/><path fill="none" stroke="#7c3aed" stroke-width="2.4" marker-end="url(#arrowA)" d="M 726.0,874.0 L 726.0,894.4 L 480.0,1067.6 L 480.0,1088.0"/><path fill="none" stroke="#7c3aed" stroke-width="2.4" marker-end="url(#arrowA)" d="M 480.0,1146.0 L 480.0,1218.0"/><rect width="164" height="58" x="398" y="154" fill="#eff6ff" stroke="#bfdbfe" stroke-width="1.8" rx="10"/><text x="480" y="183" class="node-title" text-anchor="middle">用户 / AI 平台 API</text><rect width="201" height="58" x="379.5" y="284" fill="#f0fdf4" stroke="#bbf7d0" stroke-width="1.8" rx="10"/><text x="480" y="313" class="node-title" text-anchor="middle">Kubernetes API Server</text><rect width="236" height="70" x="242" y="414" fill="#fff7ed" stroke="#fed7aa" stroke-width="1.8" rx="10"/><text x="360" y="449" class="node-title" text-anchor="middle">Controllers&lt;br/&gt;Deployment</text><text x="360" y="471" class="node-sub" text-anchor="middle">Job / StatefulSet</text><rect width="194" height="70" x="524" y="414" fill="#faf5ff" stroke="#e9d5ff" stroke-width="1.8" rx="10"/><text x="621" y="449" class="node-title" text-anchor="middle">Scheduler&lt;br/&gt;filter</text><text x="621" y="471" class="node-sub" text-anchor="middle">score / bind</text><rect width="164" height="58" x="398" y="556" fill="#f0fdfa" stroke="#99f6e4" stroke-width="1.8" rx="10"/><text x="480" y="585" class="node-title" text-anchor="middle">目标 Node</text><rect width="164" height="58" x="398" y="686" fill="#f8fafc" stroke="#cbd5e1" stroke-width="1.8" rx="10"/><text x="480" y="715" class="node-title" text-anchor="middle">kubelet</text><rect width="236" height="58" x="147.5" y="816" fill="#eff6ff" stroke="#bfdbfe" stroke-width="1.8" rx="10"/><text x="265.5" y="845" class="node-title" text-anchor="middle">CRI&lt;br/&gt;containerd / CRI-O</text><rect width="164" height="58" x="429.5" y="816" fill="#f0fdf4" stroke="#bbf7d0" stroke-width="1.8" rx="10"/><text x="511.5" y="845" class="node-title" text-anchor="middle">CNI&lt;br/&gt;Pod 网络</text><rect width="173" height="58" x="639.5" y="816" fill="#fff7ed" stroke="#fed7aa" stroke-width="1.8" rx="10"/><text x="726" y="845" class="node-title" text-anchor="middle">CSI&lt;br/&gt;Volume 挂载</text><rect width="194" height="70" x="383" y="946" fill="#faf5ff" stroke="#e9d5ff" stroke-width="1.8" rx="10"/><text x="480" y="981" class="node-title" text-anchor="middle">OCI Runtime&lt;br/&gt;runc</text><text x="480" y="1003" class="node-sub" text-anchor="middle">NVIDIA runtime</text><rect width="164" height="58" x="398" y="1088" fill="#f0fdfa" stroke="#99f6e4" stroke-width="1.8" rx="10"/><text x="480" y="1117" class="node-title" text-anchor="middle">Pod containers</text><rect width="229" height="70" x="365.5" y="1218" fill="#f8fafc" stroke="#cbd5e1" stroke-width="1.8" rx="10"/><text x="480" y="1253" class="node-title" text-anchor="middle">AI workload&lt;br/&gt;inference</text><text x="480" y="1275" class="node-sub" text-anchor="middle">training / eval</text><text x="680" y="1408" class="footnote">Rendered with fireworks-tech-graph</text></svg>