<svg xmlns="http://www.w3.org/2000/svg" viewBox="0 0 1054 632" width="1054" height="632">
  <defs>
    <marker id="arrowA" markerWidth="10" markerHeight="7" refX="9" refY="3.5" orient="auto">
      <polygon points="0 0, 10 3.5, 0 7" fill="#7c3aed"/>
    </marker>
    <style>
      text { font-family: 'Helvetica Neue', Helvetica, Arial, 'PingFang SC', 'Microsoft YaHei', sans-serif; }
      .title { font-size: 30px; font-weight: 700; fill: #111827; }
      .subtitle { font-size: 14px; font-weight: 500; fill: #6b7280; }
      .participant { font-size: 16px; font-weight: 700; fill: #111827; }
      .message { font-size: 12px; font-weight: 600; fill: #4b5563; }
      .footnote { font-size: 12px; font-weight: 500; fill: #94a3b8; }
    </style>
  </defs>
  <rect width="1054" height="632" fill="#ffffff"/>
  <text x="527.0" y="56" text-anchor="middle" class="title">33.3.2 checkpoint storage</text>
  <text x="527.0" y="82" text-anchor="middle" class="subtitle">part-07-network-storage/chapter-33-ai-storage.md:182</text>
  <rect x="72.0" y="126" width="150" height="52" rx="8" fill="#eff6ff" stroke="#bfdbfe" stroke-width="1.5"/>
  <text x="147.0" y="158" text-anchor="middle" class="participant">Training Ranks</text>
  <line x1="147.0" y1="178" x2="147.0" y2="574" stroke="#cbd5e1" stroke-width="1.5" stroke-dasharray="6 5"/>
  <rect x="262.0" y="126" width="150" height="52" rx="8" fill="#f0fdf4" stroke="#bbf7d0" stroke-width="1.5"/>
  <text x="337.0" y="158" text-anchor="middle" class="participant">Temporary Checkpoint Path</text>
  <line x1="337.0" y1="178" x2="337.0" y2="574" stroke="#cbd5e1" stroke-width="1.5" stroke-dasharray="6 5"/>
  <rect x="452.0" y="126" width="150" height="52" rx="8" fill="#fff7ed" stroke="#fed7aa" stroke-width="1.5"/>
  <text x="527.0" y="158" text-anchor="middle" class="participant">Checkpoint Validator</text>
  <line x1="527.0" y1="178" x2="527.0" y2="574" stroke="#cbd5e1" stroke-width="1.5" stroke-dasharray="6 5"/>
  <rect x="642.0" y="126" width="150" height="52" rx="8" fill="#faf5ff" stroke="#e9d5ff" stroke-width="1.5"/>
  <text x="717.0" y="158" text-anchor="middle" class="participant">Manifest Store</text>
  <line x1="717.0" y1="178" x2="717.0" y2="574" stroke="#cbd5e1" stroke-width="1.5" stroke-dasharray="6 5"/>
  <rect x="832.0" y="126" width="150" height="52" rx="8" fill="#f0fdfa" stroke="#99f6e4" stroke-width="1.5"/>
  <text x="907.0" y="158" text-anchor="middle" class="participant">Checkpoint Index</text>
  <line x1="907.0" y1="178" x2="907.0" y2="574" stroke="#cbd5e1" stroke-width="1.5" stroke-dasharray="6 5"/>
  <line x1="163.0" y1="220" x2="321.0" y2="220" stroke="#7c3aed" stroke-width="2.2" marker-end="url(#arrowA)"/>
  <rect x="161.0" y="190" width="162.0" height="22" rx="6" fill="#ffffff" opacity="0.96"/>
  <text x="242.0" y="205" text-anchor="middle" class="message">write sharded states</text>
  <line x1="163.0" y1="276" x2="321.0" y2="276" stroke="#7c3aed" stroke-width="2.2" marker-end="url(#arrowA)"/>
  <rect x="157.5" y="246" width="169.0" height="22" rx="6" fill="#ffffff" opacity="0.96"/>
  <text x="242.0" y="261" text-anchor="middle" class="message">write local checksums</text>
  <line x1="511.0" y1="332" x2="353.0" y2="332" stroke="#7c3aed" stroke-width="2.2" marker-end="url(#arrowA)"/>
  <rect x="316.0" y="302" width="232.0" height="22" rx="6" fill="#ffffff" opacity="0.96"/>
  <text x="432.0" y="317" text-anchor="middle" class="message">verify all shards and metadata</text>
  <line x1="543.0" y1="388" x2="701.0" y2="388" stroke="#7c3aed" stroke-width="2.2" marker-end="url(#arrowA)"/>
  <rect x="520.0" y="358" width="204.0" height="22" rx="6" fill="#ffffff" opacity="0.96"/>
  <text x="622.0" y="373" text-anchor="middle" class="message">commit checkpoint_manifest</text>
  <line x1="733.0" y1="444" x2="891.0" y2="444" stroke="#7c3aed" stroke-width="2.2" marker-end="url(#arrowA)"/>
  <rect x="741.5" y="414" width="141.0" height="22" rx="6" fill="#ffffff" opacity="0.96"/>
  <text x="812.0" y="429" text-anchor="middle" class="message">mark latest_valid</text>
  <line x1="891.0" y1="500" x2="163.0" y2="500" stroke="#7c3aed" stroke-width="2.2" marker-end="url(#arrowA)" stroke-dasharray="7 5"/>
  <rect x="421.5" y="470" width="211.0" height="22" rx="6" fill="#ffffff" opacity="0.96"/>
  <text x="527.0" y="485" text-anchor="middle" class="message">resume candidates available</text>
  <text x="1026" y="606" text-anchor="end" class="footnote">Rendered with fireworks-tech-graph</text>
</svg>
