<svg xmlns="http://www.w3.org/2000/svg" width="2253" height="404" viewBox="0 0 2253 404"><defs><marker id="arrowA" markerHeight="7" markerWidth="10" orient="auto" refX="9" refY="3.5"><polygon fill="#7c3aed" points="0 0 10 3.5 0 7"/></marker><marker id="arrowB" markerHeight="7" markerWidth="10" orient="auto" refX="9" refY="3.5"><polygon fill="#10b981" points="0 0 10 3.5 0 7"/></marker><marker id="arrowC" markerHeight="7" markerWidth="10" orient="auto" refX="9" refY="3.5"><polygon fill="#2563eb" points="0 0 10 3.5 0 7"/></marker><marker id="arrowE" markerHeight="7" markerWidth="10" orient="auto" refX="9" refY="3.5"><polygon fill="#f97316" points="0 0 10 3.5 0 7"/></marker><marker id="arrowF" markerHeight="7" markerWidth="10" orient="auto" refX="9" refY="3.5"><polygon fill="#7c3aed" points="0 0 10 3.5 0 7"/></marker><marker id="arrowG" markerHeight="7" markerWidth="10" orient="auto" refX="9" refY="3.5"><polygon fill="#ef4444" points="0 0 10 3.5 0 7"/></marker><marker id="arrowH" markerHeight="7" markerWidth="10" orient="auto" refX="9" refY="3.5"><polygon fill="#6b7280" points="0 0 10 3.5 0 7"/></marker><filter id="shadowSoft" width="140%" height="160%" x="-20%" y="-20%"><feDropShadow dx="0" dy="3" flood-color="#0f172a" flood-opacity=".12" stdDeviation="6"/></filter><filter id="shadowGlass" width="140%" height="160%" x="-20%" y="-20%"><feDropShadow dx="0" dy="10" flood-color="#020617" flood-opacity=".28" stdDeviation="16"/></filter><style>text{font-family:&apos;Helvetica Neue&apos;,Helvetica,Arial,&apos;PingFang SC&apos;,&apos;Microsoft YaHei&apos;,&apos;Microsoft JhengHei&apos;,&apos;SimHei&apos;,sans-serif}.title{font-size:30px;font-weight:700;fill:#111827}.subtitle{font-size:14px;font-weight:500;fill:#6b7280}.node-title{font-size:18px;font-weight:700;fill:#111827}.footnote,.node-sub{font-size:12px;font-weight:500}.node-sub{fill:#6b7280}.footnote{fill:#94a3b8}</style></defs><rect width="2253" height="404" fill="#fff"/><text x="1126.5" y="56" class="title" text-anchor="middle">12.2.2 系统架构</text><text x="1126.5" y="82" class="subtitle" text-anchor="middle">part-03-models/chapter-12-fine-tuning.md:66</text><path fill="none" stroke="#7c3aed" stroke-width="2.4" marker-end="url(#arrowA)" d="M 260.0,155.0 L 280.4,155.0 L 311.6,211.0 L 332.0,211.0"/><path fill="none" stroke="#7c3aed" stroke-width="2.4" marker-end="url(#arrowA)" d="M 496.0,211.0 L 568.0,211.0"/><path fill="none" stroke="#7c3aed" stroke-width="2.4" marker-end="url(#arrowA)" d="M 260.0,267.0 L 280.4,267.0 L 783.6,211.0 L 804.0,211.0"/><path fill="none" stroke="#7c3aed" stroke-width="2.4" marker-end="url(#arrowA)" d="M 732.0,211.0 L 804.0,211.0"/><path fill="none" stroke="#7c3aed" stroke-width="2.4" marker-end="url(#arrowA)" d="M 968.0,211.0 L 988.4,211.0 L 1019.6,217.0 L 1040.0,217.0"/><path fill="none" stroke="#7c3aed" stroke-width="2.4" marker-end="url(#arrowA)" d="M 1213.0,217.0 L 1233.4,217.0 L 1264.6,211.0 L 1285.0,211.0"/><path fill="none" stroke="#7c3aed" stroke-width="2.4" marker-end="url(#arrowA)" d="M 1449.0,211.0 L 1521.0,211.0"/><path fill="none" stroke="#7c3aed" stroke-width="2.4" marker-end="url(#arrowA)" d="M 1685.0,211.0 L 1757.0,211.0"/><path fill="none" stroke="#7c3aed" stroke-width="2.4" marker-end="url(#arrowA)" d="M 1921.0,211.0 L 1993.0,211.0"/><path fill="none" stroke="#7c3aed" stroke-width="2.4" marker-end="url(#arrowA)" d="M 2075.0,240.0 L 2075.0,274.0 L 414.0,274.0 L 414.0,240.0"/><rect width="164" height="58" x="96" y="126" fill="#eff6ff" stroke="#bfdbfe" stroke-width="1.8" rx="10"/><text x="178" y="155" class="node-title" text-anchor="middle">租户私有数据</text><rect width="164" height="58" x="96" y="238" fill="#faf5ff" stroke="#e9d5ff" stroke-width="1.8" rx="10"/><text x="178" y="267" class="node-title" text-anchor="middle">基础模型</text><rect width="164" height="58" x="332" y="182" fill="#f0fdf4" stroke="#bbf7d0" stroke-width="1.8" rx="10"/><text x="414" y="211" class="node-title" text-anchor="middle">校验 / 脱敏 / 权限</text><rect width="164" height="58" x="568" y="182" fill="#fff7ed" stroke="#fed7aa" stroke-width="1.8" rx="10"/><text x="650" y="211" class="node-title" text-anchor="middle">训练集 / 验证集</text><rect width="164" height="58" x="804" y="182" fill="#f0fdfa" stroke="#99f6e4" stroke-width="1.8" rx="10"/><text x="886" y="211" class="node-title" text-anchor="middle">微调任务</text><rect width="173" height="70" x="1040" y="182" fill="#f8fafc" stroke="#cbd5e1" stroke-width="1.8" rx="10"/><text x="1126.5" y="217" class="node-title" text-anchor="middle">checkpoint / LoRA</text><text x="1126.5" y="239" class="node-sub" text-anchor="middle">adapter</text><rect width="164" height="58" x="1285" y="182" fill="#eff6ff" stroke="#bfdbfe" stroke-width="1.8" rx="10"/><text x="1367" y="211" class="node-title" text-anchor="middle">质量 + 安全评测</text><rect width="164" height="58" x="1521" y="182" fill="#f0fdf4" stroke="#bbf7d0" stroke-width="1.8" rx="10"/><text x="1603" y="211" class="node-title" text-anchor="middle">模型注册</text><rect width="164" height="58" x="1757" y="182" fill="#fff7ed" stroke="#fed7aa" stroke-width="1.8" rx="10"/><text x="1839" y="211" class="node-title" text-anchor="middle">模型服务 / MaaS</text><rect width="164" height="58" x="1993" y="182" fill="#faf5ff" stroke="#e9d5ff" stroke-width="1.8" rx="10"/><text x="2075" y="211" class="node-title" text-anchor="middle">线上指标 / 反馈</text><text x="1973" y="388" class="footnote">Rendered with fireworks-tech-graph</text></svg>