<svg xmlns="http://www.w3.org/2000/svg" width="1040" height="600" viewBox="0 0 1040 600"><defs><marker id="arrowA" markerHeight="7" markerWidth="10" orient="auto" refX="9" refY="3.5"><polygon fill="#7c3aed" points="0 0 10 3.5 0 7"/></marker><marker id="arrowB" markerHeight="7" markerWidth="10" orient="auto" refX="9" refY="3.5"><polygon fill="#10b981" points="0 0 10 3.5 0 7"/></marker><marker id="arrowC" markerHeight="7" markerWidth="10" orient="auto" refX="9" refY="3.5"><polygon fill="#2563eb" points="0 0 10 3.5 0 7"/></marker><marker id="arrowE" markerHeight="7" markerWidth="10" orient="auto" refX="9" refY="3.5"><polygon fill="#f97316" points="0 0 10 3.5 0 7"/></marker><marker id="arrowF" markerHeight="7" markerWidth="10" orient="auto" refX="9" refY="3.5"><polygon fill="#7c3aed" points="0 0 10 3.5 0 7"/></marker><marker id="arrowG" markerHeight="7" markerWidth="10" orient="auto" refX="9" refY="3.5"><polygon fill="#ef4444" points="0 0 10 3.5 0 7"/></marker><marker id="arrowH" markerHeight="7" markerWidth="10" orient="auto" refX="9" refY="3.5"><polygon fill="#6b7280" points="0 0 10 3.5 0 7"/></marker><filter id="shadowSoft" width="140%" height="160%" x="-20%" y="-20%"><feDropShadow dx="0" dy="3" flood-color="#0f172a" flood-opacity=".12" stdDeviation="6"/></filter><filter id="shadowGlass" width="140%" height="160%" x="-20%" y="-20%"><feDropShadow dx="0" dy="10" flood-color="#020617" flood-opacity=".28" stdDeviation="16"/></filter><style>text{font-family:&apos;Helvetica Neue&apos;,Helvetica,Arial,&apos;PingFang SC&apos;,&apos;Microsoft YaHei&apos;,&apos;Microsoft JhengHei&apos;,&apos;SimHei&apos;,sans-serif}.title{font-size:30px;font-weight:700;fill:#111827}.subtitle{font-size:14px;font-weight:500;fill:#6b7280}.section{font-size:13px;font-weight:700;fill:#2563eb;letter-spacing:1.4px}.section-sub{font-size:12px;font-weight:500;fill:#94a3b8}.node-title{font-size:18px;font-weight:700;fill:#111827}.footnote,.legend,.node-sub{font-size:12px;font-weight:500}.legend,.node-sub{fill:#6b7280}.footnote{fill:#94a3b8}</style></defs><rect width="1040" height="600" fill="#fff"/><text x="520" y="56" class="title" text-anchor="middle">24.3.6 sbatch 与 srun</text><text x="520" y="82" class="subtitle" text-anchor="middle">part-05-orchestration/chapter-24-slurm.md:166</text><rect width="228" height="372" x="130" y="118" fill="#f8fafc" stroke="#dbe5f1" stroke-dasharray="7 5" stroke-width="1.4" rx="16"/><text x="148" y="142" class="section">阶段 1</text><text x="148" y="162" class="section-sub">user script -&gt; slurmctld</text><rect width="228" height="372" x="396" y="118" fill="#fff" stroke="#dbe5f1" stroke-dasharray="7 5" stroke-width="1.4" rx="16"/><text x="414" y="142" class="section">阶段 2</text><text x="414" y="162" class="section-sub">allocated nodes -&gt; srun</text><rect width="248" height="372" x="662" y="118" fill="#f8fafc" stroke="#dbe5f1" stroke-dasharray="7 5" stroke-width="1.4" rx="16"/><text x="680" y="142" class="section">阶段 3</text><text x="680" y="162" class="section-sub">tasks / ranks -&gt; sacct / slurmdbd</text><path fill="none" stroke="#7c3aed" stroke-width="2.4" marker-end="url(#arrowA)" d="M 244.0,230.0 L 244.0,270.0"/><path fill="none" stroke="#7c3aed" stroke-width="2.4" marker-end="url(#arrowA)" d="M 244.0,340.0 L 244.0,368.0"/><path fill="none" stroke="#7c3aed" stroke-width="2.4" marker-end="url(#arrowA)" d="M 327.0,403.0 L 347.4,403.0 L 407.6,256.0 L 428.0,256.0"/><path fill="none" stroke="#7c3aed" stroke-width="2.4" marker-end="url(#arrowA)" d="M 510.0,291.0 L 510.0,319.0"/><path fill="none" stroke="#7c3aed" stroke-width="2.4" marker-end="url(#arrowA)" d="M 592.0,354.0 L 612.4,354.0 L 668.6,256.0 L 689.0,256.0"/><path fill="none" stroke="#7c3aed" stroke-width="2.4" marker-end="url(#arrowA)" d="M 786.0,291.0 L 786.0,319.0"/><rect width="164" height="58" x="162" y="172" fill="#eff6ff" stroke="#bfdbfe" stroke-width="1.8" rx="10"/><text x="244" y="201" class="node-title" text-anchor="middle">user script</text><rect width="173" height="70" x="157.5" y="270" fill="#f0fdf4" stroke="#bbf7d0" stroke-width="1.8" rx="10"/><text x="244" y="305" class="node-title" text-anchor="middle">sbatch</text><text x="244" y="327" class="node-sub" text-anchor="middle">submit allocation</text><rect width="166" height="70" x="161" y="368" fill="#fff7ed" stroke="#fed7aa" stroke-width="1.8" rx="10"/><text x="244" y="403" class="node-title" text-anchor="middle">slurmctld</text><text x="244" y="425" class="node-sub" text-anchor="middle">queue / priority</text><rect width="164" height="70" x="428" y="221" fill="#faf5ff" stroke="#e9d5ff" stroke-width="1.8" rx="10"/><text x="510" y="256" class="node-title" text-anchor="middle">allocated nodes</text><text x="510" y="278" class="node-sub" text-anchor="middle">GPU resources</text><rect width="164" height="70" x="428" y="319" fill="#f0fdfa" stroke="#99f6e4" stroke-width="1.8" rx="10"/><text x="510" y="354" class="node-title" text-anchor="middle">srun</text><text x="510" y="376" class="node-sub" text-anchor="middle">launch steps</text><rect width="194" height="70" x="689" y="221" fill="#f8fafc" stroke="#cbd5e1" stroke-width="1.8" rx="10"/><text x="786" y="256" class="node-title" text-anchor="middle">tasks / ranks</text><text x="786" y="278" class="node-sub" text-anchor="middle">CUDA_VISIBLE_DEVICES</text><rect width="166" height="70" x="703" y="319" fill="#eff6ff" stroke="#bfdbfe" stroke-width="1.8" rx="10"/><text x="786" y="354" class="node-title" text-anchor="middle">sacct / slurmdbd</text><text x="786" y="376" class="node-sub" text-anchor="middle">usage and state</text><line x1="42" x2="72" y1="562" y2="562" stroke="#7c3aed" stroke-width="2.4" marker-end="url(#arrowA)"/><text x="82" y="566" class="legend">主路径 / 阶段推进</text><text x="760" y="584" class="footnote">Rendered with fireworks-tech-graph</text></svg>