<svg xmlns="http://www.w3.org/2000/svg" viewBox="0 0 2262 404" width="2262" height="404">
  <defs>
    <marker id="arrowA" markerWidth="10" markerHeight="7" refX="9" refY="3.5" orient="auto">
      <polygon points="0 0, 10 3.5, 0 7" fill="#7c3aed"/>
    </marker>
    <marker id="arrowB" markerWidth="10" markerHeight="7" refX="9" refY="3.5" orient="auto">
      <polygon points="0 0, 10 3.5, 0 7" fill="#10b981"/>
    </marker>
    <marker id="arrowC" markerWidth="10" markerHeight="7" refX="9" refY="3.5" orient="auto">
      <polygon points="0 0, 10 3.5, 0 7" fill="#2563eb"/>
    </marker>
    <marker id="arrowE" markerWidth="10" markerHeight="7" refX="9" refY="3.5" orient="auto">
      <polygon points="0 0, 10 3.5, 0 7" fill="#f97316"/>
    </marker>
    <marker id="arrowF" markerWidth="10" markerHeight="7" refX="9" refY="3.5" orient="auto">
      <polygon points="0 0, 10 3.5, 0 7" fill="#7c3aed"/>
    </marker>
    <marker id="arrowG" markerWidth="10" markerHeight="7" refX="9" refY="3.5" orient="auto">
      <polygon points="0 0, 10 3.5, 0 7" fill="#ef4444"/>
    </marker>
    <marker id="arrowH" markerWidth="10" markerHeight="7" refX="9" refY="3.5" orient="auto">
      <polygon points="0 0, 10 3.5, 0 7" fill="#6b7280"/>
    </marker>
    <filter id="shadowSoft" x="-20%" y="-20%" width="140%" height="160%">
      <feDropShadow dx="0" dy="3" stdDeviation="6" flood-color="#0f172a" flood-opacity="0.12"/>
    </filter>
    <filter id="shadowGlass" x="-20%" y="-20%" width="140%" height="160%">
      <feDropShadow dx="0" dy="10" stdDeviation="16" flood-color="#020617" flood-opacity="0.28"/>
    </filter>
    <style>
    text { font-family: 'Helvetica Neue', Helvetica, Arial, 'PingFang SC', 'Microsoft YaHei', 'Microsoft JhengHei', 'SimHei', sans-serif; }
    .title { font-size: 30px; font-weight: 700; fill: #111827; }
    .subtitle { font-size: 14px; font-weight: 500; fill: #6b7280; }
    .section { font-size: 13px; font-weight: 700; fill: #2563eb; letter-spacing: 1.4px; }
    .section-sub { font-size: 12px; font-weight: 500; fill: #94a3b8; }
    .node-title { font-size: 18px; font-weight: 700; fill: #111827; }
    .node-sub { font-size: 12px; font-weight: 500; fill: #6b7280; }
    .node-type { font-size: 12px; font-weight: 700; fill: #9ca3af; letter-spacing: 0.08em; }
    .arrow-label { font-size: 12px; font-weight: 600; fill: #6b7280; }
    .legend { font-size: 12px; font-weight: 500; fill: #6b7280; }
    .footnote { font-size: 12px; font-weight: 500; fill: #94a3b8; }
    </style>
  </defs>
  <rect width="2262.0" height="404.0" fill="#ffffff"/>
  <text x="1131.0" y="56" text-anchor="middle" class="title">22.3.3 GPU resource request</text>
  <text x="1131.0" y="82" text-anchor="middle" class="subtitle">part-05-orchestration/chapter-22-gpu-on-kubernetes.md:321</text>
  <path d="M 381.0,217.0 L 453.0,217.0" fill="none" stroke="#7c3aed" stroke-width="2.4" marker-end="url(#arrowA)"/>
  <path d="M 633.0,217.0 L 653.4,217.0 L 684.6,161.0 L 705.0,161.0" fill="none" stroke="#7c3aed" stroke-width="2.4" marker-end="url(#arrowA)"/>
  <path d="M 633.0,217.0 L 653.4,217.0 L 744.1,273.0 L 764.5,273.0" fill="none" stroke="#7c3aed" stroke-width="2.4" marker-end="url(#arrowA)"/>
  <path d="M 1011.0,161.0 L 1031.4,161.0 L 1073.1,155.0 L 1093.5,155.0" fill="none" stroke="#7c3aed" stroke-width="2.4" marker-end="url(#arrowA)"/>
  <path d="M 951.5,273.0 L 1083.0,273.0" fill="none" stroke="#7c3aed" stroke-width="2.4" marker-end="url(#arrowA)"/>
  <path d="M 1305.0,273.0 L 1199.25,273.0 L 1199.25,155.0 L 1093.5,155.0" fill="none" stroke="#7c3aed" stroke-width="2.4" marker-end="url(#arrowA)"/>
  <path d="M 1294.5,155.0 L 1314.9,155.0 L 1356.6,211.0 L 1377.0,211.0" fill="none" stroke="#7c3aed" stroke-width="2.4" marker-end="url(#arrowA)"/>
  <path d="M 1613.0,211.0 L 1633.4,211.0 L 1664.6,217.0 L 1685.0,217.0" fill="none" stroke="#7c3aed" stroke-width="2.4" marker-end="url(#arrowA)"/>
  <path d="M 1886.0,217.0 L 1906.4,217.0 L 1937.6,211.0 L 1958.0,211.0" fill="none" stroke="#7c3aed" stroke-width="2.4" marker-end="url(#arrowA)"/>
  <rect x="96.0" y="182.0" width="285.0" height="70.0" rx="10.0" fill="#eff6ff" stroke="#bfdbfe" stroke-width="1.8"/>
  <text x="238.5" y="217.0" text-anchor="middle" class="node-title">workload intent</text>
  <text x="238.5" y="239.0" text-anchor="middle" class="node-sub">GPU class / HBM / isolation / SLO</text>
  <rect x="453.0" y="182.0" width="180.0" height="70.0" rx="10.0" fill="#f0fdf4" stroke="#bbf7d0" stroke-width="1.8"/>
  <text x="543.0" y="217.0" text-anchor="middle" class="node-title">gpu_resource_claim</text>
  <text x="543.0" y="239.0" text-anchor="middle" class="node-sub">contract</text>
  <rect x="705.0" y="126.0" width="306.0" height="70.0" rx="10.0" fill="#fff7ed" stroke="#fed7aa" stroke-width="1.8"/>
  <text x="858.0" y="161.0" text-anchor="middle" class="node-title">DeviceClass</text>
  <text x="858.0" y="183.0" text-anchor="middle" class="node-sub">ResourceClaim / or extended resource</text>
  <rect x="764.5" y="238.0" width="187.0" height="70.0" rx="10.0" fill="#faf5ff" stroke="#e9d5ff" stroke-width="1.8"/>
  <text x="858.0" y="273.0" text-anchor="middle" class="node-title">entitlement / quota</text>
  <text x="858.0" y="295.0" text-anchor="middle" class="node-sub">model fit</text>
  <rect x="1093.5" y="126.0" width="201.0" height="58.0" rx="10.0" fill="#f0fdfa" stroke="#99f6e4" stroke-width="1.8"/>
  <text x="1194.0" y="155.0" text-anchor="middle" class="node-title">gpu_assignment_record</text>
  <rect x="1083.0" y="238.0" width="222.0" height="70.0" rx="10.0" fill="#f8fafc" stroke="#cbd5e1" stroke-width="1.8"/>
  <text x="1194.0" y="273.0" text-anchor="middle" class="node-title">resource_claim_admission</text>
  <text x="1194.0" y="295.0" text-anchor="middle" class="node-sub">record</text>
  <rect x="1377.0" y="182.0" width="236.0" height="58.0" rx="10.0" fill="#eff6ff" stroke="#bfdbfe" stroke-width="1.8"/>
  <text x="1495.0" y="211.0" text-anchor="middle" class="node-title">OCI / CDI / NVIDIA runtime</text>
  <rect x="1685.0" y="182.0" width="201.0" height="70.0" rx="10.0" fill="#f0fdf4" stroke="#bbf7d0" stroke-width="1.8"/>
  <text x="1785.5" y="217.0" text-anchor="middle" class="node-title">gpu_device_visibility</text>
  <text x="1785.5" y="239.0" text-anchor="middle" class="node-sub">reconciliation</text>
  <rect x="1958.0" y="182.0" width="208.0" height="58.0" rx="10.0" fill="#fff7ed" stroke="#fed7aa" stroke-width="1.8"/>
  <text x="2062.0" y="211.0" text-anchor="middle" class="node-title">metering + cost labels</text>
  <text x="1982.0" y="388.0" class="footnote">Rendered with fireworks-tech-graph</text>
</svg>