<svg xmlns="http://www.w3.org/2000/svg" viewBox="0 0 1040 600" width="1040" height="600">
  <defs>
    <marker id="arrowA" markerWidth="10" markerHeight="7" refX="9" refY="3.5" orient="auto">
      <polygon points="0 0, 10 3.5, 0 7" fill="#7c3aed"/>
    </marker>
    <marker id="arrowB" markerWidth="10" markerHeight="7" refX="9" refY="3.5" orient="auto">
      <polygon points="0 0, 10 3.5, 0 7" fill="#10b981"/>
    </marker>
    <marker id="arrowC" markerWidth="10" markerHeight="7" refX="9" refY="3.5" orient="auto">
      <polygon points="0 0, 10 3.5, 0 7" fill="#2563eb"/>
    </marker>
    <marker id="arrowE" markerWidth="10" markerHeight="7" refX="9" refY="3.5" orient="auto">
      <polygon points="0 0, 10 3.5, 0 7" fill="#f97316"/>
    </marker>
    <marker id="arrowF" markerWidth="10" markerHeight="7" refX="9" refY="3.5" orient="auto">
      <polygon points="0 0, 10 3.5, 0 7" fill="#7c3aed"/>
    </marker>
    <marker id="arrowG" markerWidth="10" markerHeight="7" refX="9" refY="3.5" orient="auto">
      <polygon points="0 0, 10 3.5, 0 7" fill="#ef4444"/>
    </marker>
    <marker id="arrowH" markerWidth="10" markerHeight="7" refX="9" refY="3.5" orient="auto">
      <polygon points="0 0, 10 3.5, 0 7" fill="#6b7280"/>
    </marker>
    <filter id="shadowSoft" x="-20%" y="-20%" width="140%" height="160%">
      <feDropShadow dx="0" dy="3" stdDeviation="6" flood-color="#0f172a" flood-opacity="0.12"/>
    </filter>
    <filter id="shadowGlass" x="-20%" y="-20%" width="140%" height="160%">
      <feDropShadow dx="0" dy="10" stdDeviation="16" flood-color="#020617" flood-opacity="0.28"/>
    </filter>
    <style>
    text { font-family: 'Helvetica Neue', Helvetica, Arial, 'PingFang SC', 'Microsoft YaHei', 'Microsoft JhengHei', 'SimHei', sans-serif; }
    .title { font-size: 30px; font-weight: 700; fill: #111827; }
    .subtitle { font-size: 14px; font-weight: 500; fill: #6b7280; }
    .section { font-size: 13px; font-weight: 700; fill: #2563eb; letter-spacing: 1.4px; }
    .section-sub { font-size: 12px; font-weight: 500; fill: #94a3b8; }
    .node-title { font-size: 18px; font-weight: 700; fill: #111827; }
    .node-sub { font-size: 12px; font-weight: 500; fill: #6b7280; }
    .node-type { font-size: 12px; font-weight: 700; fill: #9ca3af; letter-spacing: 0.08em; }
    .arrow-label { font-size: 12px; font-weight: 600; fill: #6b7280; }
    .legend { font-size: 12px; font-weight: 500; fill: #6b7280; }
    .footnote { font-size: 12px; font-weight: 500; fill: #94a3b8; }
    </style>
  </defs>
  <rect width="1040.0" height="600.0" fill="#ffffff"/>
  <text x="520.0" y="56" text-anchor="middle" class="title">24.3.8 topology-aware scheduling</text>
  <text x="520.0" y="82" text-anchor="middle" class="subtitle">part-05-orchestration/chapter-24-slurm.md:211</text>
  <rect x="82.0" y="118.0" width="248.0" height="274.0" rx="16.0" fill="#f8fafc" stroke="#dbe5f1" stroke-width="1.4" stroke-dasharray="7 5"/>
  <text x="100.0" y="142.0" class="section">阶段 1</text>
  <text x="100.0" y="162.0" class="section-sub">partition -&gt; topology plugin</text>
  <rect x="368.0" y="118.0" width="290.0" height="274.0" rx="16.0" fill="#ffffff" stroke="#dbe5f1" stroke-width="1.4" stroke-dasharray="7 5"/>
  <text x="386.0" y="142.0" class="section">阶段 2</text>
  <text x="386.0" y="162.0" class="section-sub">job request -&gt; allocation decision</text>
  <rect x="696.0" y="118.0" width="262.0" height="274.0" rx="16.0" fill="#f8fafc" stroke="#dbe5f1" stroke-width="1.4" stroke-dasharray="7 5"/>
  <text x="714.0" y="142.0" class="section">阶段 3</text>
  <text x="714.0" y="162.0" class="section-sub">rank launch -&gt; job metrics</text>
  <path d="M 206.0,242.0 L 206.0,270.0" fill="none" stroke="#7c3aed" stroke-width="2.4" marker-end="url(#arrowA)"/>
  <path d="M 513.0,242.0 L 513.0,359.0 L 206.0,359.0 L 206.0,340.0" fill="none" stroke="#ef4444" stroke-width="2.4" marker-end="url(#arrowG)"/>
  <path d="M 303.0,305.0 L 416.0,305.0" fill="none" stroke="#7c3aed" stroke-width="2.4" marker-end="url(#arrowA)"/>
  <path d="M 610.0,305.0 L 630.4,305.0 L 724.6,207.0 L 745.0,207.0" fill="none" stroke="#7c3aed" stroke-width="2.4" marker-end="url(#arrowA)"/>
  <path d="M 827.0,242.0 L 827.0,270.0" fill="none" stroke="#7c3aed" stroke-width="2.4" marker-end="url(#arrowA)"/>
  <path d="M 827.0,340.0 L 827.0,359.0 L 206.0,359.0 L 206.0,340.0" fill="none" stroke="#ef4444" stroke-width="2.4" marker-end="url(#arrowG)"/>
  <rect x="116.0" y="172.0" width="180.0" height="70.0" rx="10.0" fill="#eff6ff" stroke="#bfdbfe" stroke-width="1.8"/>
  <text x="206.0" y="207.0" text-anchor="middle" class="node-title">partition</text>
  <text x="206.0" y="229.0" text-anchor="middle" class="node-sub">GPU class / policy</text>
  <rect x="109.0" y="270.0" width="194.0" height="70.0" rx="10.0" fill="#f0fdf4" stroke="#bbf7d0" stroke-width="1.8"/>
  <text x="206.0" y="305.0" text-anchor="middle" class="node-title">topology plugin</text>
  <text x="206.0" y="327.0" text-anchor="middle" class="node-sub">node / switch / rail</text>
  <rect x="395.0" y="172.0" width="236.0" height="70.0" rx="10.0" fill="#fff7ed" stroke="#fed7aa" stroke-width="1.8"/>
  <text x="513.0" y="207.0" text-anchor="middle" class="node-title">job request</text>
  <text x="513.0" y="229.0" text-anchor="middle" class="node-sub">GPUs / nodes / constraints</text>
  <rect x="416.0" y="270.0" width="194.0" height="70.0" rx="10.0" fill="#faf5ff" stroke="#e9d5ff" stroke-width="1.8"/>
  <text x="513.0" y="305.0" text-anchor="middle" class="node-title">allocation decision</text>
  <text x="513.0" y="327.0" text-anchor="middle" class="node-sub">same switch / spread</text>
  <rect x="745.0" y="172.0" width="164.0" height="70.0" rx="10.0" fill="#f0fdfa" stroke="#99f6e4" stroke-width="1.8"/>
  <text x="827.0" y="207.0" text-anchor="middle" class="node-title">rank launch</text>
  <text x="827.0" y="229.0" text-anchor="middle" class="node-sub">NCCL topology</text>
  <rect x="723.0" y="270.0" width="208.0" height="70.0" rx="10.0" fill="#f8fafc" stroke="#cbd5e1" stroke-width="1.8"/>
  <text x="827.0" y="305.0" text-anchor="middle" class="node-title">job metrics</text>
  <text x="827.0" y="327.0" text-anchor="middle" class="node-sub">step time / collective</text>
  <line x1="42.0" y1="562.0" x2="72.0" y2="562.0" stroke="#7c3aed" stroke-width="2.4" marker-end="url(#arrowA)"/>
  <text x="82.0" y="566.0" class="legend">主路径 / 阶段推进</text>
  <line x1="42.0" y1="584.0" x2="72.0" y2="584.0" stroke="#ef4444" stroke-width="2.4" marker-end="url(#arrowG)"/>
  <text x="82.0" y="588.0" class="legend">反馈 / 回退</text>
  <text x="760.0" y="584.0" class="footnote">Rendered with fireworks-tech-graph</text>
</svg>