<svg xmlns="http://www.w3.org/2000/svg" width="960" height="1660" viewBox="0 0 960 1660"><defs><marker id="arrowA" markerHeight="7" markerWidth="10" orient="auto" refX="9" refY="3.5"><polygon fill="#7c3aed" points="0 0 10 3.5 0 7"/></marker><marker id="arrowB" markerHeight="7" markerWidth="10" orient="auto" refX="9" refY="3.5"><polygon fill="#10b981" points="0 0 10 3.5 0 7"/></marker><marker id="arrowC" markerHeight="7" markerWidth="10" orient="auto" refX="9" refY="3.5"><polygon fill="#2563eb" points="0 0 10 3.5 0 7"/></marker><marker id="arrowE" markerHeight="7" markerWidth="10" orient="auto" refX="9" refY="3.5"><polygon fill="#f97316" points="0 0 10 3.5 0 7"/></marker><marker id="arrowF" markerHeight="7" markerWidth="10" orient="auto" refX="9" refY="3.5"><polygon fill="#7c3aed" points="0 0 10 3.5 0 7"/></marker><marker id="arrowG" markerHeight="7" markerWidth="10" orient="auto" refX="9" refY="3.5"><polygon fill="#ef4444" points="0 0 10 3.5 0 7"/></marker><marker id="arrowH" markerHeight="7" markerWidth="10" orient="auto" refX="9" refY="3.5"><polygon fill="#6b7280" points="0 0 10 3.5 0 7"/></marker><filter id="shadowSoft" width="140%" height="160%" x="-20%" y="-20%"><feDropShadow dx="0" dy="3" flood-color="#0f172a" flood-opacity=".12" stdDeviation="6"/></filter><filter id="shadowGlass" width="140%" height="160%" x="-20%" y="-20%"><feDropShadow dx="0" dy="10" flood-color="#020617" flood-opacity=".28" stdDeviation="16"/></filter><style>text{font-family:&apos;Helvetica Neue&apos;,Helvetica,Arial,&apos;PingFang SC&apos;,&apos;Microsoft YaHei&apos;,&apos;Microsoft JhengHei&apos;,&apos;SimHei&apos;,sans-serif}.title{font-size:30px;font-weight:700;fill:#111827}.subtitle{font-size:14px;font-weight:500;fill:#6b7280}.node-title{font-size:18px;font-weight:700;fill:#111827}.footnote,.node-sub{font-size:12px;font-weight:500}.node-sub{fill:#6b7280}.footnote{fill:#94a3b8}</style></defs><rect width="960" height="1660" fill="#fff"/><text x="480" y="56" class="title" text-anchor="middle">33.2.2 系统架构</text><text x="480" y="82" class="subtitle" text-anchor="middle">part-07-network-storage/chapter-33-ai-storage.md:68</text><path fill="none" stroke="#7c3aed" stroke-width="2.4" marker-end="url(#arrowA)" d="M 346.0,212.0 L 346.0,232.4 L 480.0,263.6 L 480.0,284.0"/><path fill="none" stroke="#7c3aed" stroke-width="2.4" marker-end="url(#arrowA)" d="M 480.0,342.0 L 480.0,414.0"/><path fill="none" stroke="#7c3aed" stroke-width="2.4" marker-end="url(#arrowA)" d="M 480.0,484.0 L 480.0,556.0"/><path fill="none" stroke="#7c3aed" stroke-width="2.4" marker-end="url(#arrowA)" d="M 480.0,614.0 L 480.0,686.0"/><path fill="none" stroke="#7c3aed" stroke-width="2.4" marker-end="url(#arrowA)" d="M 480.0,744.0 L 480.0,816.0"/><path fill="none" stroke="#7c3aed" stroke-width="2.4" marker-end="url(#arrowA)" d="M 480.0,874.0 L 480.0,946.0"/><path fill="none" stroke="#7c3aed" stroke-width="2.4" marker-end="url(#arrowA)" d="M 480.0,1004.0 L 480.0,1076.0"/><path fill="none" stroke="#7c3aed" stroke-width="2.4" marker-end="url(#arrowA)" d="M 480.0,1134.0 L 480.0,1206.0"/><path fill="none" stroke="#7c3aed" stroke-width="2.4" marker-end="url(#arrowA)" d="M 480.0,1264.0 L 480.0,1336.0"/><path fill="none" stroke="#7c3aed" stroke-width="2.4" marker-end="url(#arrowA)" d="M 480.0,1394.0 L 480.0,1466.0"/><path fill="none" stroke="#7c3aed" stroke-width="2.4" marker-end="url(#arrowA)" d="M 585.0,212.0 L 585.0,232.4 L 480.0,263.6 L 480.0,284.0"/><path fill="none" stroke="#7c3aed" stroke-width="2.4" marker-end="url(#arrowA)" d="M 585.0,212.0 L 585.0,232.4 L 480.0,925.6 L 480.0,946.0"/><path fill="none" stroke="#7c3aed" stroke-width="2.4" marker-end="url(#arrowA)" d="M 585.0,212.0 L 585.0,232.4 L 480.0,1445.6 L 480.0,1466.0"/><rect width="164" height="58" x="264" y="154" fill="#eff6ff" stroke="#bfdbfe" stroke-width="1.8" rx="10"/><text x="346" y="183" class="node-title" text-anchor="middle">Raw Dataset</text><rect width="222" height="58" x="474" y="154" fill="#f8fafc" stroke="#cbd5e1" stroke-width="1.8" rx="10"/><text x="585" y="183" class="node-title" text-anchor="middle">Storage Metrics / Labels</text><rect width="164" height="58" x="398" y="284" fill="#f0fdf4" stroke="#bbf7d0" stroke-width="1.8" rx="10"/><text x="480" y="313" class="node-title" text-anchor="middle">Object Storage</text><rect width="164" height="70" x="398" y="414" fill="#fff7ed" stroke="#fed7aa" stroke-width="1.8" rx="10"/><text x="480" y="449" class="node-title" text-anchor="middle">Data Processing</text><text x="480" y="471" class="node-sub" text-anchor="middle">Tokenization</text><rect width="236" height="58" x="362" y="556" fill="#faf5ff" stroke="#e9d5ff" stroke-width="1.8" rx="10"/><text x="480" y="585" class="node-title" text-anchor="middle">Processed Dataset / Shards</text><rect width="236" height="58" x="362" y="686" fill="#f0fdfa" stroke="#99f6e4" stroke-width="1.8" rx="10"/><text x="480" y="715" class="node-title" text-anchor="middle">Dataset Cache / Local NVMe</text><rect width="166" height="58" x="397" y="816" fill="#f8fafc" stroke="#cbd5e1" stroke-width="1.8" rx="10"/><text x="480" y="845" class="node-title" text-anchor="middle">Training Workers</text><rect width="180" height="58" x="390" y="946" fill="#eff6ff" stroke="#bfdbfe" stroke-width="1.8" rx="10"/><text x="480" y="975" class="node-title" text-anchor="middle">Checkpoint Storage</text><rect width="164" height="58" x="398" y="1076" fill="#f0fdf4" stroke="#bbf7d0" stroke-width="1.8" rx="10"/><text x="480" y="1105" class="node-title" text-anchor="middle">Evaluation</text><rect width="164" height="58" x="398" y="1206" fill="#fff7ed" stroke="#fed7aa" stroke-width="1.8" rx="10"/><text x="480" y="1235" class="node-title" text-anchor="middle">Model Registry</text><rect width="164" height="58" x="398" y="1336" fill="#faf5ff" stroke="#e9d5ff" stroke-width="1.8" rx="10"/><text x="480" y="1365" class="node-title" text-anchor="middle">Model Serving</text><rect width="229" height="58" x="365.5" y="1466" fill="#f0fdfa" stroke="#99f6e4" stroke-width="1.8" rx="10"/><text x="480" y="1495" class="node-title" text-anchor="middle">Weight Cache / Local NVMe</text><text x="680" y="1644" class="footnote">Rendered with fireworks-tech-graph</text></svg>