<svg xmlns="http://www.w3.org/2000/svg" viewBox="0 0 1016 922" width="1016" height="922">
  <defs>
    <marker id="arrowA" markerWidth="10" markerHeight="7" refX="9" refY="3.5" orient="auto">
      <polygon points="0 0, 10 3.5, 0 7" fill="#7c3aed"/>
    </marker>
    <marker id="arrowB" markerWidth="10" markerHeight="7" refX="9" refY="3.5" orient="auto">
      <polygon points="0 0, 10 3.5, 0 7" fill="#10b981"/>
    </marker>
    <marker id="arrowC" markerWidth="10" markerHeight="7" refX="9" refY="3.5" orient="auto">
      <polygon points="0 0, 10 3.5, 0 7" fill="#2563eb"/>
    </marker>
    <marker id="arrowE" markerWidth="10" markerHeight="7" refX="9" refY="3.5" orient="auto">
      <polygon points="0 0, 10 3.5, 0 7" fill="#f97316"/>
    </marker>
    <marker id="arrowF" markerWidth="10" markerHeight="7" refX="9" refY="3.5" orient="auto">
      <polygon points="0 0, 10 3.5, 0 7" fill="#7c3aed"/>
    </marker>
    <marker id="arrowG" markerWidth="10" markerHeight="7" refX="9" refY="3.5" orient="auto">
      <polygon points="0 0, 10 3.5, 0 7" fill="#ef4444"/>
    </marker>
    <marker id="arrowH" markerWidth="10" markerHeight="7" refX="9" refY="3.5" orient="auto">
      <polygon points="0 0, 10 3.5, 0 7" fill="#6b7280"/>
    </marker>
    <filter id="shadowSoft" x="-20%" y="-20%" width="140%" height="160%">
      <feDropShadow dx="0" dy="3" stdDeviation="6" flood-color="#0f172a" flood-opacity="0.12"/>
    </filter>
    <filter id="shadowGlass" x="-20%" y="-20%" width="140%" height="160%">
      <feDropShadow dx="0" dy="10" stdDeviation="16" flood-color="#020617" flood-opacity="0.28"/>
    </filter>
    <style>
    text { font-family: 'Helvetica Neue', Helvetica, Arial, 'PingFang SC', 'Microsoft YaHei', 'Microsoft JhengHei', 'SimHei', sans-serif; }
    .title { font-size: 30px; font-weight: 700; fill: #111827; }
    .subtitle { font-size: 14px; font-weight: 500; fill: #6b7280; }
    .section { font-size: 13px; font-weight: 700; fill: #2563eb; letter-spacing: 1.4px; }
    .section-sub { font-size: 12px; font-weight: 500; fill: #94a3b8; }
    .node-title { font-size: 18px; font-weight: 700; fill: #111827; }
    .node-sub { font-size: 12px; font-weight: 500; fill: #6b7280; }
    .node-type { font-size: 12px; font-weight: 700; fill: #9ca3af; letter-spacing: 0.08em; }
    .arrow-label { font-size: 12px; font-weight: 600; fill: #6b7280; }
    .legend { font-size: 12px; font-weight: 500; fill: #6b7280; }
    .footnote { font-size: 12px; font-weight: 500; fill: #94a3b8; }
    </style>
  </defs>
  <rect width="1016.0" height="922.0" fill="#ffffff"/>
  <text x="508.0" y="56" text-anchor="middle" class="title">41.3.4 cost/token</text>
  <text x="508.0" y="82" text-anchor="middle" class="subtitle">part-10-economics-cases/chapter-41-token-factory.md:576</text>
  <path d="M 311.0,161.0 L 331.4,161.0 L 362.6,441.0 L 383.0,441.0" fill="none" stroke="#7c3aed" stroke-width="2.4" marker-end="url(#arrowA)"/>
  <path d="M 300.5,273.0 L 320.9,273.0 L 362.6,441.0 L 383.0,441.0" fill="none" stroke="#7c3aed" stroke-width="2.4" marker-end="url(#arrowA)"/>
  <path d="M 285.5,379.0 L 305.9,379.0 L 362.6,441.0 L 383.0,441.0" fill="none" stroke="#7c3aed" stroke-width="2.4" marker-end="url(#arrowA)"/>
  <path d="M 311.0,491.0 L 331.4,491.0 L 362.6,441.0 L 383.0,441.0" fill="none" stroke="#7c3aed" stroke-width="2.4" marker-end="url(#arrowA)"/>
  <path d="M 290.0,603.0 L 310.4,603.0 L 362.6,441.0 L 383.0,441.0" fill="none" stroke="#7c3aed" stroke-width="2.4" marker-end="url(#arrowA)"/>
  <path d="M 311.0,715.0 L 331.4,715.0 L 362.6,441.0 L 383.0,441.0" fill="none" stroke="#7c3aed" stroke-width="2.4" marker-end="url(#arrowA)"/>
  <path d="M 619.0,441.0 L 639.4,441.0 L 681.1,273.0 L 701.5,273.0" fill="none" stroke="#7c3aed" stroke-width="2.4" marker-end="url(#arrowA)"/>
  <path d="M 619.0,441.0 L 639.4,441.0 L 677.6,385.0 L 698.0,385.0" fill="none" stroke="#7c3aed" stroke-width="2.4" marker-end="url(#arrowA)"/>
  <path d="M 619.0,441.0 L 639.4,441.0 L 695.1,497.0 L 715.5,497.0" fill="none" stroke="#7c3aed" stroke-width="2.4" marker-end="url(#arrowA)"/>
  <path d="M 619.0,441.0 L 639.4,441.0 L 670.6,603.0 L 691.0,603.0" fill="none" stroke="#7c3aed" stroke-width="2.4" marker-end="url(#arrowA)"/>
  <rect x="96.0" y="126.0" width="215.0" height="70.0" rx="10.0" fill="#eff6ff" stroke="#bfdbfe" stroke-width="1.8"/>
  <text x="203.5" y="161.0" text-anchor="middle" class="node-title">inference_runtime_fault</text>
  <text x="203.5" y="183.0" text-anchor="middle" class="node-sub">tree_execution</text>
  <rect x="106.5" y="238.0" width="194.0" height="70.0" rx="10.0" fill="#fff7ed" stroke="#fed7aa" stroke-width="1.8"/>
  <text x="203.5" y="273.0" text-anchor="middle" class="node-title">engine_request_state</text>
  <text x="203.5" y="295.0" text-anchor="middle" class="node-sub">ledger</text>
  <rect x="121.5" y="350.0" width="164.0" height="58.0" rx="10.0" fill="#faf5ff" stroke="#e9d5ff" stroke-width="1.8"/>
  <text x="203.5" y="379.0" text-anchor="middle" class="node-title">metering replay</text>
  <rect x="96.0" y="462.0" width="215.0" height="58.0" rx="10.0" fill="#f0fdfa" stroke="#99f6e4" stroke-width="1.8"/>
  <text x="203.5" y="491.0" text-anchor="middle" class="node-title">kv leak / block seconds</text>
  <rect x="117.0" y="574.0" width="173.0" height="58.0" rx="10.0" fill="#f8fafc" stroke="#cbd5e1" stroke-width="1.8"/>
  <text x="203.5" y="603.0" text-anchor="middle" class="node-title">pd transfer retry</text>
  <rect x="96.0" y="686.0" width="215.0" height="58.0" rx="10.0" fill="#eff6ff" stroke="#bfdbfe" stroke-width="1.8"/>
  <text x="203.5" y="715.0" text-anchor="middle" class="node-title">canary guardrail action</text>
  <rect x="383.0" y="406.0" width="236.0" height="70.0" rx="10.0" fill="#f0fdf4" stroke="#bbf7d0" stroke-width="1.8"/>
  <text x="501.0" y="441.0" text-anchor="middle" class="node-title">inference_runtime_incident</text>
  <text x="501.0" y="463.0" text-anchor="middle" class="node-sub">cost_record</text>
  <rect x="701.5" y="238.0" width="208.0" height="70.0" rx="10.0" fill="#f0fdf4" stroke="#bbf7d0" stroke-width="1.8"/>
  <text x="805.5" y="273.0" text-anchor="middle" class="node-title">inference_runtime_cost</text>
  <text x="805.5" y="295.0" text-anchor="middle" class="node-sub">ledger</text>
  <rect x="698.0" y="350.0" width="215.0" height="70.0" rx="10.0" fill="#fff7ed" stroke="#fed7aa" stroke-width="1.8"/>
  <text x="805.5" y="385.0" text-anchor="middle" class="node-title">token ledger correction</text>
  <text x="805.5" y="407.0" text-anchor="middle" class="node-sub">hold</text>
  <rect x="715.5" y="462.0" width="180.0" height="70.0" rx="10.0" fill="#faf5ff" stroke="#e9d5ff" stroke-width="1.8"/>
  <text x="805.5" y="497.0" text-anchor="middle" class="node-title">quality_cost</text>
  <text x="805.5" y="519.0" text-anchor="middle" class="node-sub">ledger if affected</text>
  <rect x="691.0" y="574.0" width="229.0" height="58.0" rx="10.0" fill="#f0fdfa" stroke="#99f6e4" stroke-width="1.8"/>
  <text x="805.5" y="603.0" text-anchor="middle" class="node-title">runtime gate / PRR update</text>
  <text x="736.0" y="906.0" class="footnote">Rendered with fireworks-tech-graph</text>
</svg>