<svg xmlns="http://www.w3.org/2000/svg" viewBox="0 0 2622 404" width="2622" height="404">
  <defs>
    <marker id="arrowA" markerWidth="10" markerHeight="7" refX="9" refY="3.5" orient="auto">
      <polygon points="0 0, 10 3.5, 0 7" fill="#7c3aed"/>
    </marker>
    <marker id="arrowB" markerWidth="10" markerHeight="7" refX="9" refY="3.5" orient="auto">
      <polygon points="0 0, 10 3.5, 0 7" fill="#10b981"/>
    </marker>
    <marker id="arrowC" markerWidth="10" markerHeight="7" refX="9" refY="3.5" orient="auto">
      <polygon points="0 0, 10 3.5, 0 7" fill="#2563eb"/>
    </marker>
    <marker id="arrowE" markerWidth="10" markerHeight="7" refX="9" refY="3.5" orient="auto">
      <polygon points="0 0, 10 3.5, 0 7" fill="#f97316"/>
    </marker>
    <marker id="arrowF" markerWidth="10" markerHeight="7" refX="9" refY="3.5" orient="auto">
      <polygon points="0 0, 10 3.5, 0 7" fill="#7c3aed"/>
    </marker>
    <marker id="arrowG" markerWidth="10" markerHeight="7" refX="9" refY="3.5" orient="auto">
      <polygon points="0 0, 10 3.5, 0 7" fill="#ef4444"/>
    </marker>
    <marker id="arrowH" markerWidth="10" markerHeight="7" refX="9" refY="3.5" orient="auto">
      <polygon points="0 0, 10 3.5, 0 7" fill="#6b7280"/>
    </marker>
    <filter id="shadowSoft" x="-20%" y="-20%" width="140%" height="160%">
      <feDropShadow dx="0" dy="3" stdDeviation="6" flood-color="#0f172a" flood-opacity="0.12"/>
    </filter>
    <filter id="shadowGlass" x="-20%" y="-20%" width="140%" height="160%">
      <feDropShadow dx="0" dy="10" stdDeviation="16" flood-color="#020617" flood-opacity="0.28"/>
    </filter>
    <style>
    text { font-family: 'Helvetica Neue', Helvetica, Arial, 'PingFang SC', 'Microsoft YaHei', 'Microsoft JhengHei', 'SimHei', sans-serif; }
    .title { font-size: 30px; font-weight: 700; fill: #111827; }
    .subtitle { font-size: 14px; font-weight: 500; fill: #6b7280; }
    .section { font-size: 13px; font-weight: 700; fill: #2563eb; letter-spacing: 1.4px; }
    .section-sub { font-size: 12px; font-weight: 500; fill: #94a3b8; }
    .node-title { font-size: 18px; font-weight: 700; fill: #111827; }
    .node-sub { font-size: 12px; font-weight: 500; fill: #6b7280; }
    .node-type { font-size: 12px; font-weight: 700; fill: #9ca3af; letter-spacing: 0.08em; }
    .arrow-label { font-size: 12px; font-weight: 600; fill: #6b7280; }
    .legend { font-size: 12px; font-weight: 500; fill: #6b7280; }
    .footnote { font-size: 12px; font-weight: 500; fill: #94a3b8; }
    </style>
  </defs>
  <rect width="2622.0" height="404.0" fill="#ffffff"/>
  <text x="1311.0" y="56" text-anchor="middle" class="title">29.3.8 golden image</text>
  <text x="1311.0" y="82" text-anchor="middle" class="subtitle">part-06-gpu-iaas/chapter-29-image-driver-bootstrap.md:272</text>
  <path d="M 339.0,217.0 L 359.4,217.0 L 390.6,211.0 L 411.0,211.0" fill="none" stroke="#7c3aed" stroke-width="2.4" marker-end="url(#arrowA)"/>
  <path d="M 575.0,211.0 L 595.4,211.0 L 626.6,217.0 L 647.0,217.0" fill="none" stroke="#7c3aed" stroke-width="2.4" marker-end="url(#arrowA)"/>
  <path d="M 876.0,217.0 L 896.4,217.0 L 927.6,211.0 L 948.0,211.0" fill="none" stroke="#7c3aed" stroke-width="2.4" marker-end="url(#arrowA)"/>
  <path d="M 1112.0,211.0 L 1132.4,211.0 L 1163.6,217.0 L 1184.0,217.0" fill="none" stroke="#7c3aed" stroke-width="2.4" marker-end="url(#arrowA)"/>
  <path d="M 1378.0,217.0 L 1398.4,217.0 L 1429.6,211.0 L 1450.0,211.0" fill="none" stroke="#7c3aed" stroke-width="2.4" marker-end="url(#arrowA)"/>
  <path d="M 1637.0,211.0 L 1657.4,211.0 L 1688.6,217.0 L 1709.0,217.0" fill="none" stroke="#7c3aed" stroke-width="2.4" marker-end="url(#arrowA)"/>
  <path d="M 1889.0,217.0 L 1909.4,217.0 L 1940.6,155.0 L 1961.0,155.0" fill="none" stroke="#7c3aed" stroke-width="2.4" marker-end="url(#arrowA)"/>
  <path d="M 876.0,217.0 L 896.4,217.0 L 1972.1,273.0 L 1992.5,273.0" fill="none" stroke="#7c3aed" stroke-width="2.4" marker-end="url(#arrowA)" stroke-dasharray="6,4"/>
  <path d="M 1378.0,217.0 L 1398.4,217.0 L 1972.1,273.0 L 1992.5,273.0" fill="none" stroke="#7c3aed" stroke-width="2.4" marker-end="url(#arrowA)" stroke-dasharray="6,4"/>
  <path d="M 1889.0,217.0 L 1909.4,217.0 L 1972.1,273.0 L 1992.5,273.0" fill="none" stroke="#7c3aed" stroke-width="2.4" marker-end="url(#arrowA)" stroke-dasharray="6,4"/>
  <path d="M 2165.5,273.0 L 2185.9,273.0 L 2276.6,161.0 L 2297.0,161.0" fill="none" stroke="#7c3aed" stroke-width="2.4" marker-end="url(#arrowA)"/>
  <path d="M 2197.0,155.0 L 2217.4,155.0 L 2248.6,273.0 L 2269.0,273.0" fill="none" stroke="#7c3aed" stroke-width="2.4" marker-end="url(#arrowA)"/>
  <rect x="96.0" y="182.0" width="243.0" height="70.0" rx="10.0" fill="#eff6ff" stroke="#bfdbfe" stroke-width="1.8"/>
  <text x="217.5" y="217.0" text-anchor="middle" class="node-title">Release train</text>
  <text x="217.5" y="239.0" text-anchor="middle" class="node-sub">baseline + runtime + images</text>
  <rect x="411.0" y="182.0" width="164.0" height="58.0" rx="10.0" fill="#f0fdf4" stroke="#bbf7d0" stroke-width="1.8"/>
  <text x="493.0" y="211.0" text-anchor="middle" class="node-title">lab</text>
  <rect x="647.0" y="182.0" width="229.0" height="70.0" rx="10.0" fill="#fff7ed" stroke="#fed7aa" stroke-width="1.8"/>
  <text x="761.5" y="217.0" text-anchor="middle" class="node-title">compatibility</text>
  <text x="761.5" y="239.0" text-anchor="middle" class="node-sub">bootstrap / container GPU</text>
  <rect x="948.0" y="182.0" width="164.0" height="58.0" rx="10.0" fill="#faf5ff" stroke="#e9d5ff" stroke-width="1.8"/>
  <text x="1030.0" y="211.0" text-anchor="middle" class="node-title">canary pool</text>
  <rect x="1184.0" y="182.0" width="194.0" height="70.0" rx="10.0" fill="#f0fdfa" stroke="#99f6e4" stroke-width="1.8"/>
  <text x="1281.0" y="217.0" text-anchor="middle" class="node-title">NCCL / RDMA</text>
  <text x="1281.0" y="239.0" text-anchor="middle" class="node-sub">training / inference</text>
  <rect x="1450.0" y="182.0" width="187.0" height="58.0" rx="10.0" fill="#f8fafc" stroke="#cbd5e1" stroke-width="1.8"/>
  <text x="1543.5" y="211.0" text-anchor="middle" class="node-title">production standard</text>
  <rect x="1709.0" y="182.0" width="180.0" height="70.0" rx="10.0" fill="#eff6ff" stroke="#bfdbfe" stroke-width="1.8"/>
  <text x="1799.0" y="217.0" text-anchor="middle" class="node-title">SLO / cost</text>
  <text x="1799.0" y="239.0" text-anchor="middle" class="node-sub">incident readiness</text>
  <rect x="1961.0" y="126.0" width="236.0" height="58.0" rx="10.0" fill="#f0fdf4" stroke="#bbf7d0" stroke-width="1.8"/>
  <text x="2079.0" y="155.0" text-anchor="middle" class="node-title">premium / private delivery</text>
  <rect x="1992.5" y="238.0" width="173.0" height="70.0" rx="10.0" fill="#fff7ed" stroke="#fed7aa" stroke-width="1.8"/>
  <text x="2079.0" y="273.0" text-anchor="middle" class="node-title">rollback</text>
  <text x="2079.0" y="295.0" text-anchor="middle" class="node-sub">previous baseline</text>
  <rect x="2297.0" y="126.0" width="201.0" height="70.0" rx="10.0" fill="#faf5ff" stroke="#e9d5ff" stroke-width="1.8"/>
  <text x="2397.5" y="161.0" text-anchor="middle" class="node-title">baseline_invalidation</text>
  <text x="2397.5" y="183.0" text-anchor="middle" class="node-sub">record</text>
  <rect x="2269.0" y="238.0" width="257.0" height="70.0" rx="10.0" fill="#f0fdfa" stroke="#99f6e4" stroke-width="1.8"/>
  <text x="2397.5" y="273.0" text-anchor="middle" class="node-title">lts_support_policy</text>
  <text x="2397.5" y="295.0" text-anchor="middle" class="node-sub">EOL + backport + upgrade path</text>
  <rect x="1413.25" y="247.0" width="42" height="20" rx="6" fill="#ffffff" opacity="0.94"/>
  <text x="1434.25" y="261.0" text-anchor="middle" class="arrow-label">fail</text>
  <rect x="1664.25" y="231.0" width="42" height="20" rx="6" fill="#ffffff" opacity="0.94"/>
  <text x="1685.25" y="245.0" text-anchor="middle" class="arrow-label">fail</text>
  <rect x="1919.75" y="215.0" width="42" height="20" rx="6" fill="#ffffff" opacity="0.94"/>
  <text x="1940.75" y="229.0" text-anchor="middle" class="arrow-label">fail</text>
  <line x1="42.0" y1="366.0" x2="72.0" y2="366.0" stroke="#7c3aed" stroke-width="2.4" marker-end="url(#arrowA)"/>
  <text x="82.0" y="370.0" class="legend">异步或返回消息</text>
  <text x="2342.0" y="388.0" class="footnote">Rendered with fireworks-tech-graph</text>
</svg>