<svg xmlns="http://www.w3.org/2000/svg" viewBox="0 0 988 922" width="988" height="922">
  <defs>
    <marker id="arrowA" markerWidth="10" markerHeight="7" refX="9" refY="3.5" orient="auto">
      <polygon points="0 0, 10 3.5, 0 7" fill="#7c3aed"/>
    </marker>
    <marker id="arrowB" markerWidth="10" markerHeight="7" refX="9" refY="3.5" orient="auto">
      <polygon points="0 0, 10 3.5, 0 7" fill="#10b981"/>
    </marker>
    <marker id="arrowC" markerWidth="10" markerHeight="7" refX="9" refY="3.5" orient="auto">
      <polygon points="0 0, 10 3.5, 0 7" fill="#2563eb"/>
    </marker>
    <marker id="arrowE" markerWidth="10" markerHeight="7" refX="9" refY="3.5" orient="auto">
      <polygon points="0 0, 10 3.5, 0 7" fill="#f97316"/>
    </marker>
    <marker id="arrowF" markerWidth="10" markerHeight="7" refX="9" refY="3.5" orient="auto">
      <polygon points="0 0, 10 3.5, 0 7" fill="#7c3aed"/>
    </marker>
    <marker id="arrowG" markerWidth="10" markerHeight="7" refX="9" refY="3.5" orient="auto">
      <polygon points="0 0, 10 3.5, 0 7" fill="#ef4444"/>
    </marker>
    <marker id="arrowH" markerWidth="10" markerHeight="7" refX="9" refY="3.5" orient="auto">
      <polygon points="0 0, 10 3.5, 0 7" fill="#6b7280"/>
    </marker>
    <filter id="shadowSoft" x="-20%" y="-20%" width="140%" height="160%">
      <feDropShadow dx="0" dy="3" stdDeviation="6" flood-color="#0f172a" flood-opacity="0.12"/>
    </filter>
    <filter id="shadowGlass" x="-20%" y="-20%" width="140%" height="160%">
      <feDropShadow dx="0" dy="10" stdDeviation="16" flood-color="#020617" flood-opacity="0.28"/>
    </filter>
    <style>
    text { font-family: 'Helvetica Neue', Helvetica, Arial, 'PingFang SC', 'Microsoft YaHei', 'Microsoft JhengHei', 'SimHei', sans-serif; }
    .title { font-size: 30px; font-weight: 700; fill: #111827; }
    .subtitle { font-size: 14px; font-weight: 500; fill: #6b7280; }
    .section { font-size: 13px; font-weight: 700; fill: #2563eb; letter-spacing: 1.4px; }
    .section-sub { font-size: 12px; font-weight: 500; fill: #94a3b8; }
    .node-title { font-size: 18px; font-weight: 700; fill: #111827; }
    .node-sub { font-size: 12px; font-weight: 500; fill: #6b7280; }
    .node-type { font-size: 12px; font-weight: 700; fill: #9ca3af; letter-spacing: 0.08em; }
    .arrow-label { font-size: 12px; font-weight: 600; fill: #6b7280; }
    .legend { font-size: 12px; font-weight: 500; fill: #6b7280; }
    .footnote { font-size: 12px; font-weight: 500; fill: #94a3b8; }
    </style>
  </defs>
  <rect width="988.0" height="922.0" fill="#ffffff"/>
  <text x="494.0" y="56" text-anchor="middle" class="title">33.4.1 工程实现</text>
  <text x="494.0" y="82" text-anchor="middle" class="subtitle">part-07-network-storage/chapter-33-ai-storage.md:488</text>
  <path d="M 314.5,155.0 L 334.9,155.0 L 376.6,441.0 L 397.0,441.0" fill="none" stroke="#7c3aed" stroke-width="2.4" marker-end="url(#arrowA)"/>
  <path d="M 293.5,267.0 L 313.9,267.0 L 376.6,441.0 L 397.0,441.0" fill="none" stroke="#7c3aed" stroke-width="2.4" marker-end="url(#arrowA)"/>
  <path d="M 321.5,379.0 L 341.9,379.0 L 376.6,441.0 L 397.0,441.0" fill="none" stroke="#7c3aed" stroke-width="2.4" marker-end="url(#arrowA)"/>
  <path d="M 325.0,491.0 L 345.4,491.0 L 376.6,441.0 L 397.0,441.0" fill="none" stroke="#7c3aed" stroke-width="2.4" marker-end="url(#arrowA)"/>
  <path d="M 292.5,609.0 L 312.9,609.0 L 376.6,441.0 L 397.0,441.0" fill="none" stroke="#7c3aed" stroke-width="2.4" marker-end="url(#arrowA)"/>
  <path d="M 325.0,715.0 L 345.4,715.0 L 376.6,441.0 L 397.0,441.0" fill="none" stroke="#7c3aed" stroke-width="2.4" marker-end="url(#arrowA)"/>
  <path d="M 591.0,441.0 L 611.4,441.0 L 642.6,211.0 L 663.0,211.0" fill="none" stroke="#7c3aed" stroke-width="2.4" marker-end="url(#arrowA)"/>
  <path d="M 591.0,441.0 L 611.4,441.0 L 675.1,329.0 L 695.5,329.0" fill="none" stroke="#7c3aed" stroke-width="2.4" marker-end="url(#arrowA)"/>
  <path d="M 591.0,441.0 L 695.5,441.0" fill="none" stroke="#7c3aed" stroke-width="2.4" marker-end="url(#arrowA)"/>
  <path d="M 591.0,441.0 L 611.4,441.0 L 675.1,553.0 L 695.5,553.0" fill="none" stroke="#7c3aed" stroke-width="2.4" marker-end="url(#arrowA)"/>
  <path d="M 591.0,441.0 L 611.4,441.0 L 660.1,665.0 L 680.5,665.0" fill="none" stroke="#7c3aed" stroke-width="2.4" marker-end="url(#arrowA)"/>
  <rect x="106.5" y="126.0" width="208.0" height="58.0" rx="10.0" fill="#eff6ff" stroke="#bfdbfe" stroke-width="1.8"/>
  <text x="210.5" y="155.0" text-anchor="middle" class="node-title">dataset_lineage_record</text>
  <rect x="127.5" y="238.0" width="166.0" height="58.0" rx="10.0" fill="#fff7ed" stroke="#fed7aa" stroke-width="1.8"/>
  <text x="210.5" y="267.0" text-anchor="middle" class="node-title">dataset_manifest</text>
  <rect x="99.5" y="350.0" width="222.0" height="58.0" rx="10.0" fill="#faf5ff" stroke="#e9d5ff" stroke-width="1.8"/>
  <text x="210.5" y="379.0" text-anchor="middle" class="node-title">checkpoint_restore_drill</text>
  <rect x="96.0" y="462.0" width="229.0" height="58.0" rx="10.0" fill="#f0fdfa" stroke="#99f6e4" stroke-width="1.8"/>
  <text x="210.5" y="491.0" text-anchor="middle" class="node-title">model_artifact_provenance</text>
  <rect x="128.5" y="574.0" width="164.0" height="70.0" rx="10.0" fill="#f8fafc" stroke="#cbd5e1" stroke-width="1.8"/>
  <text x="210.5" y="609.0" text-anchor="middle" class="node-title">model_artifact</text>
  <text x="210.5" y="631.0" text-anchor="middle" class="node-sub">distribution</text>
  <rect x="96.0" y="686.0" width="229.0" height="58.0" rx="10.0" fill="#eff6ff" stroke="#bfdbfe" stroke-width="1.8"/>
  <text x="210.5" y="715.0" text-anchor="middle" class="node-title">storage_security_boundary</text>
  <rect x="397.0" y="406.0" width="194.0" height="70.0" rx="10.0" fill="#f0fdf4" stroke="#bbf7d0" stroke-width="1.8"/>
  <text x="494.0" y="441.0" text-anchor="middle" class="node-title">supply_chain_release</text>
  <text x="494.0" y="463.0" text-anchor="middle" class="node-sub">contract</text>
  <rect x="663.0" y="182.0" width="229.0" height="58.0" rx="10.0" fill="#f0fdf4" stroke="#bbf7d0" stroke-width="1.8"/>
  <text x="777.5" y="211.0" text-anchor="middle" class="node-title">Gateway route eligibility</text>
  <rect x="695.5" y="294.0" width="164.0" height="70.0" rx="10.0" fill="#fff7ed" stroke="#fed7aa" stroke-width="1.8"/>
  <text x="777.5" y="329.0" text-anchor="middle" class="node-title">scheduler cache</text>
  <text x="777.5" y="351.0" text-anchor="middle" class="node-sub">eligibility</text>
  <rect x="695.5" y="406.0" width="164.0" height="70.0" rx="10.0" fill="#faf5ff" stroke="#e9d5ff" stroke-width="1.8"/>
  <text x="777.5" y="441.0" text-anchor="middle" class="node-title">cache prewarm</text>
  <text x="777.5" y="463.0" text-anchor="middle" class="node-sub">invalidation</text>
  <rect x="695.5" y="518.0" width="164.0" height="70.0" rx="10.0" fill="#f0fdfa" stroke="#99f6e4" stroke-width="1.8"/>
  <text x="777.5" y="553.0" text-anchor="middle" class="node-title">usage schema</text>
  <text x="777.5" y="575.0" text-anchor="middle" class="node-sub">billing hold</text>
  <rect x="680.5" y="630.0" width="194.0" height="70.0" rx="10.0" fill="#f8fafc" stroke="#cbd5e1" stroke-width="1.8"/>
  <text x="777.5" y="665.0" text-anchor="middle" class="node-title">production readiness</text>
  <text x="777.5" y="687.0" text-anchor="middle" class="node-sub">review</text>
  <text x="708.0" y="906.0" class="footnote">Rendered with fireworks-tech-graph</text>
</svg>