<svg xmlns="http://www.w3.org/2000/svg" width="960" height="1070" viewBox="0 0 960 1070"><defs><marker id="arrowA" markerHeight="7" markerWidth="10" orient="auto" refX="9" refY="3.5"><polygon fill="#7c3aed" points="0 0 10 3.5 0 7"/></marker><marker id="arrowB" markerHeight="7" markerWidth="10" orient="auto" refX="9" refY="3.5"><polygon fill="#10b981" points="0 0 10 3.5 0 7"/></marker><marker id="arrowC" markerHeight="7" markerWidth="10" orient="auto" refX="9" refY="3.5"><polygon fill="#2563eb" points="0 0 10 3.5 0 7"/></marker><marker id="arrowE" markerHeight="7" markerWidth="10" orient="auto" refX="9" refY="3.5"><polygon fill="#f97316" points="0 0 10 3.5 0 7"/></marker><marker id="arrowF" markerHeight="7" markerWidth="10" orient="auto" refX="9" refY="3.5"><polygon fill="#7c3aed" points="0 0 10 3.5 0 7"/></marker><marker id="arrowG" markerHeight="7" markerWidth="10" orient="auto" refX="9" refY="3.5"><polygon fill="#ef4444" points="0 0 10 3.5 0 7"/></marker><marker id="arrowH" markerHeight="7" markerWidth="10" orient="auto" refX="9" refY="3.5"><polygon fill="#6b7280" points="0 0 10 3.5 0 7"/></marker><filter id="shadowSoft" width="140%" height="160%" x="-20%" y="-20%"><feDropShadow dx="0" dy="3" flood-color="#0f172a" flood-opacity=".12" stdDeviation="6"/></filter><filter id="shadowGlass" width="140%" height="160%" x="-20%" y="-20%"><feDropShadow dx="0" dy="10" flood-color="#020617" flood-opacity=".28" stdDeviation="16"/></filter><style>text{font-family:&apos;Helvetica Neue&apos;,Helvetica,Arial,&apos;PingFang SC&apos;,&apos;Microsoft YaHei&apos;,&apos;Microsoft JhengHei&apos;,&apos;SimHei&apos;,sans-serif}.title{font-size:30px;font-weight:700;fill:#111827}.subtitle{font-size:14px;font-weight:500;fill:#6b7280}.node-title{font-size:18px;font-weight:700;fill:#111827}.arrow-label{fill:#6b7280}.arrow-label,.footnote,.node-sub{font-size:12px}.node-sub{font-weight:500;fill:#6b7280}.arrow-label{font-weight:600}.footnote{font-weight:500;fill:#94a3b8}</style></defs><rect width="960" height="1070" fill="#fff"/><text x="480" y="56" class="title" text-anchor="middle">43.4.1 工程实现</text><text x="480" y="82" class="subtitle" text-anchor="middle">part-10-economics-cases/chapter-43-case-studies.md:349</text><path fill="none" stroke="#7c3aed" stroke-width="2.4" marker-end="url(#arrowA)" d="M 480.0,224.0 L 480.0,296.0"/><path fill="none" stroke="#7c3aed" stroke-width="2.4" marker-end="url(#arrowA)" d="M 480.0,366.0 L 480.0,386.4 L 339.0,417.6 L 339.0,438.0"/><path fill="none" stroke="#7c3aed" stroke-width="2.4" marker-end="url(#arrowA)" d="M 480.0,366.0 L 480.0,386.4 L 638.5,417.6 L 638.5,438.0"/><path fill="none" stroke="#7c3aed" stroke-width="2.4" marker-end="url(#arrowA)" d="M 638.5,508.0 L 638.5,528.4 L 276.0,559.6 L 276.0,580.0"/><path fill="none" stroke="#7c3aed" stroke-width="2.4" marker-end="url(#arrowA)" d="M 638.5,508.0 L 638.5,528.4 L 693.0,559.6 L 693.0,580.0"/><path fill="none" stroke="#7c3aed" stroke-width="2.4" marker-end="url(#arrowA)" d="M 693.0,650.0 L 693.0,670.4 L 335.5,701.6 L 335.5,722.0"/><path fill="none" stroke="#7c3aed" stroke-width="2.4" marker-end="url(#arrowA)" d="M 693.0,650.0 L 693.0,670.4 L 607.0,701.6 L 607.0,722.0"/><path fill="none" stroke="#7c3aed" stroke-width="2.4" marker-end="url(#arrowA)" d="M 607.0,792.0 L 607.0,812.4 L 375.0,849.6 L 375.0,870.0"/><path fill="none" stroke="#7c3aed" stroke-width="2.4" marker-end="url(#arrowA)" d="M 607.0,792.0 L 607.0,812.4 L 585.0,843.6 L 585.0,864.0"/><rect width="278" height="70" x="341" y="154" fill="#eff6ff" stroke="#bfdbfe" stroke-width="1.8" rx="10"/><text x="480" y="189" class="node-title" text-anchor="middle">症状</text><text x="480" y="211" class="node-sub" text-anchor="middle">任务 pending / 延迟长尾 / 成本失控 / 业务无价值</text><rect width="164" height="70" x="398" y="296" fill="#f0fdf4" stroke="#bbf7d0" stroke-width="1.8" rx="10"/><text x="480" y="331" class="node-title" text-anchor="middle">目标层检查</text><text x="480" y="353" class="node-sub" text-anchor="middle">服务对象和价值单位是否清楚</text><rect width="271" height="70" x="203.5" y="438" fill="#fff7ed" stroke="#fed7aa" stroke-width="1.8" rx="10"/><text x="339" y="473" class="node-title" text-anchor="middle">补 workload_profile</text><text x="339" y="495" class="node-sub" text-anchor="middle">补 business_model_profile / 收缩范围</text><rect width="236" height="70" x="520.5" y="438" fill="#faf5ff" stroke="#e9d5ff" stroke-width="1.8" rx="10"/><text x="638.5" y="473" class="node-title" text-anchor="middle">生产层检查</text><text x="638.5" y="495" class="node-sub" text-anchor="middle">应用-平台-模型-runtime-调度-资源是否闭环</text><rect width="380" height="70" x="86" y="580" fill="#f0fdfa" stroke="#99f6e4" stroke-width="1.8" rx="10"/><text x="276" y="615" class="node-title" text-anchor="middle">补缺口</text><text x="276" y="637" class="node-sub" text-anchor="middle">Gateway / serving / queue / resource pool / data path</text><rect width="362" height="70" x="512" y="580" fill="#f8fafc" stroke="#cbd5e1" stroke-width="1.8" rx="10"/><text x="693" y="615" class="node-title" text-anchor="middle">运营层检查</text><text x="693" y="637" class="node-sub" text-anchor="middle">准入 / baseline / telemetry / runbook / change</text><rect width="208" height="70" x="231.5" y="722" fill="#eff6ff" stroke="#bfdbfe" stroke-width="1.8" rx="10"/><text x="335.5" y="757" class="node-title" text-anchor="middle">建立 acceptance baseline</text><text x="335.5" y="779" class="node-sub" text-anchor="middle">补观测标签和诊断包</text><rect width="243" height="70" x="485.5" y="722" fill="#f0fdf4" stroke="#bbf7d0" stroke-width="1.8" rx="10"/><text x="607" y="757" class="node-title" text-anchor="middle">经济层检查</text><text x="607" y="779" class="node-sub" text-anchor="middle">cost / value / margin / ROI</text><rect width="164" height="58" x="293" y="870" fill="#fff7ed" stroke="#fed7aa" stroke-width="1.8" rx="10"/><text x="375" y="899" class="node-title" text-anchor="middle">调整路由、价格、容量或下线场景</text><rect width="164" height="70" x="503" y="864" fill="#faf5ff" stroke="#e9d5ff" stroke-width="1.8" rx="10"/><text x="585" y="899" class="node-title" text-anchor="middle">进入规模化</text><text x="585" y="921" class="node-sub" text-anchor="middle">扩大资源或商业覆盖</text><rect width="36" height="20" x="391.5" y="372" fill="#fff" opacity=".94" rx="6"/><text x="409.5" y="386" class="arrow-label" text-anchor="middle">不清楚</text><rect width="36" height="20" x="541.25" y="372" fill="#fff" opacity=".94" rx="6"/><text x="559.25" y="386" class="arrow-label" text-anchor="middle">清楚</text><rect width="36" height="20" x="439.25" y="514" fill="#fff" opacity=".94" rx="6"/><text x="457.25" y="528" class="arrow-label" text-anchor="middle">断裂</text><rect width="36" height="20" x="647.75" y="514" fill="#fff" opacity=".94" rx="6"/><text x="665.75" y="528" class="arrow-label" text-anchor="middle">闭环</text><rect width="36" height="20" x="496.25" y="656" fill="#fff" opacity=".94" rx="6"/><text x="514.25" y="670" class="arrow-label" text-anchor="middle">缺证据</text><rect width="42" height="20" x="629" y="656" fill="#fff" opacity=".94" rx="6"/><text x="650" y="670" class="arrow-label" text-anchor="middle">证据完整</text><rect width="36" height="20" x="473" y="801" fill="#fff" opacity=".94" rx="6"/><text x="491" y="815" class="arrow-label" text-anchor="middle">倒挂</text><rect width="36" height="20" x="578" y="798" fill="#fff" opacity=".94" rx="6"/><text x="596" y="812" class="arrow-label" text-anchor="middle">成立</text><text x="680" y="1054" class="footnote">Rendered with fireworks-tech-graph</text></svg>