<svg xmlns="http://www.w3.org/2000/svg" width="960" height="1566" viewBox="0 0 960 1566"><defs><marker id="arrowA" markerHeight="7" markerWidth="10" orient="auto" refX="9" refY="3.5"><polygon fill="#7c3aed" points="0 0 10 3.5 0 7"/></marker><marker id="arrowB" markerHeight="7" markerWidth="10" orient="auto" refX="9" refY="3.5"><polygon fill="#10b981" points="0 0 10 3.5 0 7"/></marker><marker id="arrowC" markerHeight="7" markerWidth="10" orient="auto" refX="9" refY="3.5"><polygon fill="#2563eb" points="0 0 10 3.5 0 7"/></marker><marker id="arrowE" markerHeight="7" markerWidth="10" orient="auto" refX="9" refY="3.5"><polygon fill="#f97316" points="0 0 10 3.5 0 7"/></marker><marker id="arrowF" markerHeight="7" markerWidth="10" orient="auto" refX="9" refY="3.5"><polygon fill="#7c3aed" points="0 0 10 3.5 0 7"/></marker><marker id="arrowG" markerHeight="7" markerWidth="10" orient="auto" refX="9" refY="3.5"><polygon fill="#ef4444" points="0 0 10 3.5 0 7"/></marker><marker id="arrowH" markerHeight="7" markerWidth="10" orient="auto" refX="9" refY="3.5"><polygon fill="#6b7280" points="0 0 10 3.5 0 7"/></marker><filter id="shadowSoft" width="140%" height="160%" x="-20%" y="-20%"><feDropShadow dx="0" dy="3" flood-color="#0f172a" flood-opacity=".12" stdDeviation="6"/></filter><filter id="shadowGlass" width="140%" height="160%" x="-20%" y="-20%"><feDropShadow dx="0" dy="10" flood-color="#020617" flood-opacity=".28" stdDeviation="16"/></filter><style>text{font-family:&apos;Helvetica Neue&apos;,Helvetica,Arial,&apos;PingFang SC&apos;,&apos;Microsoft YaHei&apos;,&apos;Microsoft JhengHei&apos;,&apos;SimHei&apos;,sans-serif}.title{font-size:30px;font-weight:700;fill:#111827}.subtitle{font-size:14px;font-weight:500;fill:#6b7280}.node-title{font-size:18px;font-weight:700;fill:#111827}.node-sub,.node-type{font-size:12px;font-weight:500;fill:#6b7280}.node-type{font-weight:700;fill:#9ca3af;letter-spacing:.08em}.arrow-label,.footnote{font-size:12px;font-weight:600;fill:#6b7280}.footnote{font-weight:500;fill:#94a3b8}</style></defs><rect width="960" height="1566" fill="#fff"/><text x="480" y="56" class="title" text-anchor="middle">6.4.1 工程实现</text><text x="480" y="82" class="subtitle" text-anchor="middle">part-02-platform/chapter-06-ai-gateway.md:612</text><path fill="none" stroke="#7c3aed" stroke-width="2.4" marker-end="url(#arrowA)" d="M 480.0,212.0 L 480.0,284.0"/><path fill="none" stroke="#7c3aed" stroke-width="2.4" marker-end="url(#arrowA)" d="M 480.0,342.0 L 480.0,414.0"/><path fill="none" stroke="#7c3aed" stroke-width="2.4" marker-end="url(#arrowA)" d="M 480.0,484.0 L 480.0,556.0"/><path fill="none" stroke="#7c3aed" stroke-width="2.4" marker-end="url(#arrowA)" d="M 480.0,626.0 L 480.0,698.0"/><path fill="none" stroke="#7c3aed" stroke-width="2.4" marker-end="url(#arrowA)" d="M 480.0,768.0 L 480.0,840.0"/><path fill="none" stroke="#7c3aed" stroke-width="2.4" marker-end="url(#arrowA)" d="M 480.0,898.0 L 480.0,918.4 L 375.0,949.6 L 375.0,970.0"/><path fill="none" stroke="#7c3aed" stroke-width="2.4" marker-end="url(#arrowA)" d="M 480.0,898.0 L 480.0,918.4 L 610.5,949.6 L 610.5,970.0"/><path fill="none" stroke="#7c3aed" stroke-width="2.4" marker-end="url(#arrowA)" d="M 610.5,1028.0 L 610.5,1048.4 L 353.0,1085.6 L 353.0,1106.0"/><path fill="none" stroke="#7c3aed" stroke-width="2.4" marker-end="url(#arrowA)" d="M 610.5,1028.0 L 610.5,1100.0"/><path fill="none" stroke="#7c3aed" stroke-width="2.4" marker-end="url(#arrowA)" d="M 375.0,1028.0 L 375.0,1048.4 L 480.0,1221.6 L 480.0,1242.0"/><path fill="none" stroke="#7c3aed" stroke-width="2.4" marker-end="url(#arrowA)" d="M 353.0,1164.0 L 353.0,1184.4 L 480.0,1221.6 L 480.0,1242.0"/><path fill="none" stroke="#7c3aed" stroke-width="2.4" marker-end="url(#arrowA)" d="M 610.5,1170.0 L 610.5,1190.4 L 480.0,1221.6 L 480.0,1242.0"/><path fill="none" stroke="#7c3aed" stroke-width="2.4" marker-end="url(#arrowA)" d="M 480.0,1300.0 L 480.0,1320.4 L 226.0,1351.6 L 226.0,1372.0"/><path fill="none" stroke="#7c3aed" stroke-width="2.4" marker-end="url(#arrowA)" d="M 480.0,1300.0 L 480.0,1320.4 L 487.0,1351.6 L 487.0,1372.0"/><path fill="none" stroke="#7c3aed" stroke-width="2.4" marker-end="url(#arrowA)" d="M 480.0,1300.0 L 480.0,1320.4 L 741.0,1351.6 L 741.0,1372.0"/><rect width="164" height="58" x="398" y="154" fill="#eff6ff" stroke="#bfdbfe" stroke-width="1.8" rx="10"/><text x="480" y="183" class="node-title" text-anchor="middle">request</text><rect width="173" height="58" x="393.5" y="284" fill="#f0fdf4" stroke="#bbf7d0" stroke-width="1.8" rx="10"/><text x="480" y="313" class="node-title" text-anchor="middle">identity / tenant</text><rect width="243" height="70" x="358.5" y="414" fill="#fff7ed" stroke="#fed7aa" stroke-width="1.8" rx="10"/><text x="480" y="449" class="node-title" text-anchor="middle">data classification</text><text x="480" y="471" class="node-sub" text-anchor="middle">prompt / file / RAG context</text><rect width="264" height="70" x="348" y="556" fill="#faf5ff" stroke="#e9d5ff" stroke-width="1.8" rx="10"/><text x="480" y="591" class="node-title" text-anchor="middle">provider contract</text><text x="480" y="613" class="node-sub" text-anchor="middle">region / no training / logging</text><rect width="208" height="70" x="376" y="698" fill="#f0fdfa" stroke="#99f6e4" stroke-width="1.8" rx="10"/><text x="480" y="733" class="node-title" text-anchor="middle">provider cost guard</text><text x="480" y="755" class="node-sub" text-anchor="middle">budget / price / quota</text><rect width="208" height="58" x="376" y="840" fill="#fff7ed" stroke="#fdba74" stroke-width="2" rx="10"/><rect width="196" height="46" x="382" y="846" fill="none" stroke="#fdba74" stroke-width="1.2" opacity=".65" rx="7"/><text x="480" y="858" class="node-type" text-anchor="middle">DECISION</text><text x="480" y="875" class="node-title" text-anchor="middle">internal model usable?</text><rect width="215" height="58" x="267.5" y="970" fill="#eff6ff" stroke="#bfdbfe" stroke-width="1.8" rx="10"/><text x="375" y="999" class="node-title" text-anchor="middle">route internal endpoint</text><rect width="164" height="58" x="528.5" y="970" fill="#fff7ed" stroke="#fdba74" stroke-width="2" rx="10"/><rect width="152" height="46" x="534.5" y="976" fill="none" stroke="#fdba74" stroke-width="1.2" opacity=".65" rx="7"/><text x="610.5" y="988" class="node-type" text-anchor="middle">DECISION</text><text x="610.5" y="1005" class="node-title" text-anchor="middle">egress allowed?</text><rect width="215" height="58" x="245.5" y="1106" fill="#fff7ed" stroke="#fed7aa" stroke-width="1.8" rx="10"/><text x="353" y="1135" class="node-title" text-anchor="middle">route provider endpoint</text><rect width="208" height="70" x="506.5" y="1100" fill="#faf5ff" stroke="#e9d5ff" stroke-width="1.8" rx="10"/><text x="610.5" y="1135" class="node-title" text-anchor="middle">deny / degrade / async</text><text x="610.5" y="1157" class="node-sub" text-anchor="middle">human approval</text><rect width="222" height="58" x="369" y="1242" fill="#f0fdfa" stroke="#99f6e4" stroke-width="1.8" rx="10"/><text x="480" y="1271" class="node-title" text-anchor="middle">egress_provider_decision</text><rect width="208" height="58" x="122" y="1372" fill="#f8fafc" stroke="#cbd5e1" stroke-width="1.8" rx="10"/><text x="226" y="1401" class="node-title" text-anchor="middle">policy_decision_record</text><rect width="222" height="58" x="376" y="1372" fill="#eff6ff" stroke="#bfdbfe" stroke-width="1.8" rx="10"/><text x="487" y="1401" class="node-title" text-anchor="middle">metering / provider cost</text><rect width="194" height="58" x="644" y="1372" fill="#f0fdf4" stroke="#bbf7d0" stroke-width="1.8" rx="10"/><text x="741" y="1401" class="node-title" text-anchor="middle">security_audit_event</text><rect width="36" height="20" x="409.5" y="904" fill="#fff" opacity=".94" rx="6"/><text x="427.5" y="918" class="arrow-label" text-anchor="middle">yes</text><rect width="36" height="20" x="527.25" y="904" fill="#fff" opacity=".94" rx="6"/><text x="545.25" y="918" class="arrow-label" text-anchor="middle">no</text><rect width="36" height="20" x="463.75" y="1037" fill="#fff" opacity=".94" rx="6"/><text x="481.75" y="1051" class="arrow-label" text-anchor="middle">yes</text><rect width="36" height="20" x="574.5" y="1050" fill="#fff" opacity=".94" rx="6"/><text x="592.5" y="1064" class="arrow-label" text-anchor="middle">no</text><text x="680" y="1550" class="footnote">Rendered with fireworks-tech-graph</text></svg>