<svg xmlns="http://www.w3.org/2000/svg" viewBox="0 0 1040 600" width="1040" height="600">
  <defs>
    <marker id="arrowA" markerWidth="10" markerHeight="7" refX="9" refY="3.5" orient="auto">
      <polygon points="0 0, 10 3.5, 0 7" fill="#7c3aed"/>
    </marker>
    <marker id="arrowB" markerWidth="10" markerHeight="7" refX="9" refY="3.5" orient="auto">
      <polygon points="0 0, 10 3.5, 0 7" fill="#10b981"/>
    </marker>
    <marker id="arrowC" markerWidth="10" markerHeight="7" refX="9" refY="3.5" orient="auto">
      <polygon points="0 0, 10 3.5, 0 7" fill="#2563eb"/>
    </marker>
    <marker id="arrowE" markerWidth="10" markerHeight="7" refX="9" refY="3.5" orient="auto">
      <polygon points="0 0, 10 3.5, 0 7" fill="#f97316"/>
    </marker>
    <marker id="arrowF" markerWidth="10" markerHeight="7" refX="9" refY="3.5" orient="auto">
      <polygon points="0 0, 10 3.5, 0 7" fill="#7c3aed"/>
    </marker>
    <marker id="arrowG" markerWidth="10" markerHeight="7" refX="9" refY="3.5" orient="auto">
      <polygon points="0 0, 10 3.5, 0 7" fill="#ef4444"/>
    </marker>
    <marker id="arrowH" markerWidth="10" markerHeight="7" refX="9" refY="3.5" orient="auto">
      <polygon points="0 0, 10 3.5, 0 7" fill="#6b7280"/>
    </marker>
    <filter id="shadowSoft" x="-20%" y="-20%" width="140%" height="160%">
      <feDropShadow dx="0" dy="3" stdDeviation="6" flood-color="#0f172a" flood-opacity="0.12"/>
    </filter>
    <filter id="shadowGlass" x="-20%" y="-20%" width="140%" height="160%">
      <feDropShadow dx="0" dy="10" stdDeviation="16" flood-color="#020617" flood-opacity="0.28"/>
    </filter>
    <style>
    text { font-family: 'Helvetica Neue', Helvetica, Arial, 'PingFang SC', 'Microsoft YaHei', 'Microsoft JhengHei', 'SimHei', sans-serif; }
    .title { font-size: 30px; font-weight: 700; fill: #111827; }
    .subtitle { font-size: 14px; font-weight: 500; fill: #6b7280; }
    .section { font-size: 13px; font-weight: 700; fill: #2563eb; letter-spacing: 1.4px; }
    .section-sub { font-size: 12px; font-weight: 500; fill: #94a3b8; }
    .node-title { font-size: 18px; font-weight: 700; fill: #111827; }
    .node-sub { font-size: 12px; font-weight: 500; fill: #6b7280; }
    .node-type { font-size: 12px; font-weight: 700; fill: #9ca3af; letter-spacing: 0.08em; }
    .arrow-label { font-size: 12px; font-weight: 600; fill: #6b7280; }
    .legend { font-size: 12px; font-weight: 500; fill: #6b7280; }
    .footnote { font-size: 12px; font-weight: 500; fill: #94a3b8; }
    </style>
  </defs>
  <rect width="1040.0" height="600.0" fill="#ffffff"/>
  <text x="520.0" y="56" text-anchor="middle" class="title">31.3.8 GB200 / NVL72 类架构</text>
  <text x="520.0" y="82" text-anchor="middle" class="subtitle">part-07-network-storage/chapter-31-scale-up-networking.md:257</text>
  <rect x="64.5" y="118.0" width="276.0" height="372.0" rx="16.0" fill="#f8fafc" stroke="#dbe5f1" stroke-width="1.4" stroke-dasharray="7 5"/>
  <text x="82.5" y="142.0" class="section">阶段 1</text>
  <text x="82.5" y="162.0" class="section-sub">72 GPU rack-scale domain -&gt; large model island</text>
  <rect x="378.5" y="118.0" width="241.0" height="372.0" rx="16.0" fill="#ffffff" stroke="#dbe5f1" stroke-width="1.4" stroke-dasharray="7 5"/>
  <text x="396.5" y="142.0" class="section">阶段 2</text>
  <text x="396.5" y="162.0" class="section-sub">Grace / host layer -&gt; scale-out fabric</text>
  <rect x="657.5" y="118.0" width="318.0" height="372.0" rx="16.0" fill="#f8fafc" stroke="#dbe5f1" stroke-width="1.4" stroke-dasharray="7 5"/>
  <text x="675.5" y="142.0" class="section">阶段 3</text>
  <text x="675.5" y="162.0" class="section-sub">operations boundary -&gt; scheduler resource unit</text>
  <path d="M 202.5,230.0 L 202.5,270.0" fill="none" stroke="#7c3aed" stroke-width="2.4" marker-end="url(#arrowA)"/>
  <path d="M 202.5,340.0 L 202.5,368.0" fill="none" stroke="#7c3aed" stroke-width="2.4" marker-end="url(#arrowA)"/>
  <path d="M 299.5,403.0 L 319.9,403.0 L 388.6,256.0 L 409.0,256.0" fill="none" stroke="#7c3aed" stroke-width="2.4" marker-end="url(#arrowA)"/>
  <path d="M 499.0,291.0 L 499.0,319.0" fill="none" stroke="#7c3aed" stroke-width="2.4" marker-end="url(#arrowA)"/>
  <path d="M 299.5,403.0 L 319.9,403.0 L 664.1,256.0 L 684.5,256.0" fill="none" stroke="#7c3aed" stroke-width="2.4" marker-end="url(#arrowA)"/>
  <path d="M 816.5,291.0 L 816.5,319.0" fill="none" stroke="#7c3aed" stroke-width="2.4" marker-end="url(#arrowA)"/>
  <rect x="91.5" y="172.0" width="222.0" height="58.0" rx="10.0" fill="#eff6ff" stroke="#bfdbfe" stroke-width="1.8"/>
  <text x="202.5" y="201.0" text-anchor="middle" class="node-title">72 GPU rack-scale domain</text>
  <rect x="102.0" y="270.0" width="201.0" height="70.0" rx="10.0" fill="#f0fdf4" stroke="#bbf7d0" stroke-width="1.8"/>
  <text x="202.5" y="305.0" text-anchor="middle" class="node-title">NVLink Switch layer</text>
  <text x="202.5" y="327.0" text-anchor="middle" class="node-sub">high-bandwidth fabric</text>
  <rect x="105.5" y="368.0" width="194.0" height="70.0" rx="10.0" fill="#fff7ed" stroke="#fed7aa" stroke-width="1.8"/>
  <text x="202.5" y="403.0" text-anchor="middle" class="node-title">large model island</text>
  <text x="202.5" y="425.0" text-anchor="middle" class="node-sub">TP / EP / KV sharing</text>
  <rect x="409.0" y="221.0" width="180.0" height="70.0" rx="10.0" fill="#faf5ff" stroke="#e9d5ff" stroke-width="1.8"/>
  <text x="499.0" y="256.0" text-anchor="middle" class="node-title">Grace / host layer</text>
  <text x="499.0" y="278.0" text-anchor="middle" class="node-sub">CPU / memory / IO</text>
  <rect x="405.5" y="319.0" width="187.0" height="70.0" rx="10.0" fill="#f0fdfa" stroke="#99f6e4" stroke-width="1.8"/>
  <text x="499.0" y="354.0" text-anchor="middle" class="node-title">scale-out fabric</text>
  <text x="499.0" y="376.0" text-anchor="middle" class="node-sub">RDMA to other racks</text>
  <rect x="684.5" y="221.0" width="264.0" height="70.0" rx="10.0" fill="#f8fafc" stroke="#cbd5e1" stroke-width="1.8"/>
  <text x="816.5" y="256.0" text-anchor="middle" class="node-title">operations boundary</text>
  <text x="816.5" y="278.0" text-anchor="middle" class="node-sub">thermal / power / fault domain</text>
  <rect x="709.0" y="319.0" width="215.0" height="70.0" rx="10.0" fill="#eff6ff" stroke="#bfdbfe" stroke-width="1.8"/>
  <text x="816.5" y="354.0" text-anchor="middle" class="node-title">scheduler resource unit</text>
  <text x="816.5" y="376.0" text-anchor="middle" class="node-sub">GPU island allocation</text>
  <line x1="42.0" y1="562.0" x2="72.0" y2="562.0" stroke="#7c3aed" stroke-width="2.4" marker-end="url(#arrowA)"/>
  <text x="82.0" y="566.0" class="legend">主路径 / 阶段推进</text>
  <text x="760.0" y="584.0" class="footnote">Rendered with fireworks-tech-graph</text>
</svg>