<svg xmlns="http://www.w3.org/2000/svg" viewBox="0 0 1027 1152" width="1027" height="1152">
  <defs>
    <marker id="arrowA" markerWidth="10" markerHeight="7" refX="9" refY="3.5" orient="auto">
      <polygon points="0 0, 10 3.5, 0 7" fill="#7c3aed"/>
    </marker>
    <marker id="arrowB" markerWidth="10" markerHeight="7" refX="9" refY="3.5" orient="auto">
      <polygon points="0 0, 10 3.5, 0 7" fill="#10b981"/>
    </marker>
    <marker id="arrowC" markerWidth="10" markerHeight="7" refX="9" refY="3.5" orient="auto">
      <polygon points="0 0, 10 3.5, 0 7" fill="#2563eb"/>
    </marker>
    <marker id="arrowE" markerWidth="10" markerHeight="7" refX="9" refY="3.5" orient="auto">
      <polygon points="0 0, 10 3.5, 0 7" fill="#f97316"/>
    </marker>
    <marker id="arrowF" markerWidth="10" markerHeight="7" refX="9" refY="3.5" orient="auto">
      <polygon points="0 0, 10 3.5, 0 7" fill="#7c3aed"/>
    </marker>
    <marker id="arrowG" markerWidth="10" markerHeight="7" refX="9" refY="3.5" orient="auto">
      <polygon points="0 0, 10 3.5, 0 7" fill="#ef4444"/>
    </marker>
    <marker id="arrowH" markerWidth="10" markerHeight="7" refX="9" refY="3.5" orient="auto">
      <polygon points="0 0, 10 3.5, 0 7" fill="#6b7280"/>
    </marker>
    <filter id="shadowSoft" x="-20%" y="-20%" width="140%" height="160%">
      <feDropShadow dx="0" dy="3" stdDeviation="6" flood-color="#0f172a" flood-opacity="0.12"/>
    </filter>
    <filter id="shadowGlass" x="-20%" y="-20%" width="140%" height="160%">
      <feDropShadow dx="0" dy="10" stdDeviation="16" flood-color="#020617" flood-opacity="0.28"/>
    </filter>
    <style>
    text { font-family: 'Helvetica Neue', Helvetica, Arial, 'PingFang SC', 'Microsoft YaHei', 'Microsoft JhengHei', 'SimHei', sans-serif; }
    .title { font-size: 30px; font-weight: 700; fill: #111827; }
    .subtitle { font-size: 14px; font-weight: 500; fill: #6b7280; }
    .section { font-size: 13px; font-weight: 700; fill: #2563eb; letter-spacing: 1.4px; }
    .section-sub { font-size: 12px; font-weight: 500; fill: #94a3b8; }
    .node-title { font-size: 18px; font-weight: 700; fill: #111827; }
    .node-sub { font-size: 12px; font-weight: 500; fill: #6b7280; }
    .node-type { font-size: 12px; font-weight: 700; fill: #9ca3af; letter-spacing: 0.08em; }
    .arrow-label { font-size: 12px; font-weight: 600; fill: #6b7280; }
    .legend { font-size: 12px; font-weight: 500; fill: #6b7280; }
    .footnote { font-size: 12px; font-weight: 500; fill: #94a3b8; }
    </style>
  </defs>
  <rect width="1027.0" height="1152.0" fill="#ffffff"/>
  <text x="513.5" y="56" text-anchor="middle" class="title">6.4.1 工程实现</text>
  <text x="513.5" y="82" text-anchor="middle" class="subtitle">part-02-platform/chapter-06-ai-gateway.md:501</text>
  <path d="M 513.5,212.0 L 513.5,284.0" fill="none" stroke="#7c3aed" stroke-width="2.4" marker-end="url(#arrowA)"/>
  <path d="M 513.5,342.0 L 513.5,414.0" fill="none" stroke="#7c3aed" stroke-width="2.4" marker-end="url(#arrowA)"/>
  <path d="M 513.5,484.0 L 513.5,504.4 L 372.5,535.6 L 372.5,556.0" fill="none" stroke="#7c3aed" stroke-width="2.4" marker-end="url(#arrowA)"/>
  <path d="M 513.5,484.0 L 513.5,504.4 L 654.5,535.6 L 654.5,556.0" fill="none" stroke="#7c3aed" stroke-width="2.4" marker-end="url(#arrowA)"/>
  <path d="M 372.5,614.0 L 372.5,634.4 L 400.5,665.6 L 400.5,686.0" fill="none" stroke="#7c3aed" stroke-width="2.4" marker-end="url(#arrowA)"/>
  <path d="M 654.5,614.0 L 654.5,634.4 L 637.0,665.6 L 637.0,686.0" fill="none" stroke="#7c3aed" stroke-width="2.4" marker-end="url(#arrowA)"/>
  <path d="M 400.5,744.0 L 400.5,764.4 L 157.0,795.6 L 157.0,816.0" fill="none" stroke="#7c3aed" stroke-width="2.4" marker-end="url(#arrowA)"/>
  <path d="M 400.5,744.0 L 400.5,764.4 L 397.0,801.6 L 397.0,822.0" fill="none" stroke="#7c3aed" stroke-width="2.4" marker-end="url(#arrowA)"/>
  <path d="M 637.0,744.0 L 637.0,816.0" fill="none" stroke="#7c3aed" stroke-width="2.4" marker-end="url(#arrowA)"/>
  <path d="M 637.0,744.0 L 637.0,764.4 L 873.5,801.6 L 873.5,822.0" fill="none" stroke="#7c3aed" stroke-width="2.4" marker-end="url(#arrowA)"/>
  <path d="M 157.0,886.0 L 157.0,906.4 L 513.5,937.6 L 513.5,958.0" fill="none" stroke="#7c3aed" stroke-width="2.4" marker-end="url(#arrowA)"/>
  <path d="M 637.0,886.0 L 637.0,906.4 L 513.5,937.6 L 513.5,958.0" fill="none" stroke="#7c3aed" stroke-width="2.4" marker-end="url(#arrowA)"/>
  <rect x="420.0" y="154.0" width="187.0" height="58.0" rx="10.0" fill="#eff6ff" stroke="#bfdbfe" stroke-width="1.8"/>
  <text x="513.5" y="183.0" text-anchor="middle" class="node-title">RAG / Agent request</text>
  <rect x="431.5" y="284.0" width="164.0" height="58.0" rx="10.0" fill="#f0fdf4" stroke="#bbf7d0" stroke-width="1.8"/>
  <text x="513.5" y="313.0" text-anchor="middle" class="node-title">AI Gateway</text>
  <rect x="420.0" y="414.0" width="187.0" height="70.0" rx="10.0" fill="#fff7ed" stroke="#fed7aa" stroke-width="1.8"/>
  <text x="513.5" y="449.0" text-anchor="middle" class="node-title">rag_agent_admission</text>
  <text x="513.5" y="471.0" text-anchor="middle" class="node-sub">context</text>
  <rect x="254.5" y="556.0" width="236.0" height="58.0" rx="10.0" fill="#faf5ff" stroke="#e9d5ff" stroke-width="1.8"/>
  <text x="372.5" y="585.0" text-anchor="middle" class="node-title">rag_index_release_contract</text>
  <rect x="536.5" y="556.0" width="236.0" height="58.0" rx="10.0" fill="#f0fdfa" stroke="#99f6e4" stroke-width="1.8"/>
  <text x="654.5" y="585.0" text-anchor="middle" class="node-title">agent_tool_policy_contract</text>
  <rect x="300.0" y="686.0" width="201.0" height="58.0" rx="10.0" fill="#f8fafc" stroke="#cbd5e1" stroke-width="1.8"/>
  <text x="400.5" y="715.0" text-anchor="middle" class="node-title">RAG retrieval service</text>
  <rect x="547.0" y="686.0" width="180.0" height="58.0" rx="10.0" fill="#eff6ff" stroke="#bfdbfe" stroke-width="1.8"/>
  <text x="637.0" y="715.0" text-anchor="middle" class="node-title">Agent Orchestrator</text>
  <rect x="60.0" y="816.0" width="194.0" height="70.0" rx="10.0" fill="#f0fdf4" stroke="#bbf7d0" stroke-width="1.8"/>
  <text x="157.0" y="851.0" text-anchor="middle" class="node-title">retrieval_permission</text>
  <text x="157.0" y="873.0" text-anchor="middle" class="node-sub">decision</text>
  <rect x="300.0" y="822.0" width="194.0" height="58.0" rx="10.0" fill="#fff7ed" stroke="#fed7aa" stroke-width="1.8"/>
  <text x="397.0" y="851.0" text-anchor="middle" class="node-title">rag_context_snapshot</text>
  <rect x="540.0" y="816.0" width="194.0" height="70.0" rx="10.0" fill="#faf5ff" stroke="#e9d5ff" stroke-width="1.8"/>
  <text x="637.0" y="851.0" text-anchor="middle" class="node-title">agent_tool_execution</text>
  <text x="637.0" y="873.0" text-anchor="middle" class="node-sub">record</text>
  <rect x="780.0" y="822.0" width="187.0" height="58.0" rx="10.0" fill="#f0fdfa" stroke="#99f6e4" stroke-width="1.8"/>
  <text x="873.5" y="851.0" text-anchor="middle" class="node-title">agent_budget_ledger</text>
  <rect x="406.0" y="958.0" width="215.0" height="58.0" rx="10.0" fill="#f8fafc" stroke="#cbd5e1" stroke-width="1.8"/>
  <text x="513.5" y="987.0" text-anchor="middle" class="node-title">trace / evidence bundle</text>
  <text x="747.0" y="1136.0" class="footnote">Rendered with fireworks-tech-graph</text>
</svg>