<svg xmlns="http://www.w3.org/2000/svg" width="1349" height="916" viewBox="0 0 1349 916"><defs><marker id="arrowA" markerHeight="7" markerWidth="10" orient="auto" refX="9" refY="3.5"><polygon fill="#7c3aed" points="0 0 10 3.5 0 7"/></marker><marker id="arrowB" markerHeight="7" markerWidth="10" orient="auto" refX="9" refY="3.5"><polygon fill="#10b981" points="0 0 10 3.5 0 7"/></marker><marker id="arrowC" markerHeight="7" markerWidth="10" orient="auto" refX="9" refY="3.5"><polygon fill="#2563eb" points="0 0 10 3.5 0 7"/></marker><marker id="arrowE" markerHeight="7" markerWidth="10" orient="auto" refX="9" refY="3.5"><polygon fill="#f97316" points="0 0 10 3.5 0 7"/></marker><marker id="arrowF" markerHeight="7" markerWidth="10" orient="auto" refX="9" refY="3.5"><polygon fill="#7c3aed" points="0 0 10 3.5 0 7"/></marker><marker id="arrowG" markerHeight="7" markerWidth="10" orient="auto" refX="9" refY="3.5"><polygon fill="#ef4444" points="0 0 10 3.5 0 7"/></marker><marker id="arrowH" markerHeight="7" markerWidth="10" orient="auto" refX="9" refY="3.5"><polygon fill="#6b7280" points="0 0 10 3.5 0 7"/></marker><filter id="shadowSoft" width="140%" height="160%" x="-20%" y="-20%"><feDropShadow dx="0" dy="3" flood-color="#0f172a" flood-opacity=".12" stdDeviation="6"/></filter><filter id="shadowGlass" width="140%" height="160%" x="-20%" y="-20%"><feDropShadow dx="0" dy="10" flood-color="#020617" flood-opacity=".28" stdDeviation="16"/></filter><style>text{font-family:&apos;Helvetica Neue&apos;,Helvetica,Arial,&apos;PingFang SC&apos;,&apos;Microsoft YaHei&apos;,&apos;Microsoft JhengHei&apos;,&apos;SimHei&apos;,sans-serif}.title{font-size:30px;font-weight:700;fill:#111827}.subtitle{font-size:14px;font-weight:500;fill:#6b7280}.node-title{font-size:18px;font-weight:700;fill:#111827}.footnote,.node-sub{font-size:12px;font-weight:500}.node-sub{fill:#6b7280}.footnote{fill:#94a3b8}</style></defs><rect width="1349" height="916" fill="#fff"/><text x="674.5" y="56" class="title" text-anchor="middle">37.4.1 工程实现</text><text x="674.5" y="82" class="subtitle" text-anchor="middle">part-09-reliability-observability/chapter-37-ai-factory-observability.md:1200</text><path fill="none" stroke="#7c3aed" stroke-width="2.4" marker-end="url(#arrowA)" d="M 674.5,224.0 L 674.5,296.0"/><path fill="none" stroke="#7c3aed" stroke-width="2.4" marker-end="url(#arrowA)" d="M 674.5,366.0 L 674.5,386.4 L 164.0,423.6 L 164.0,444.0"/><path fill="none" stroke="#7c3aed" stroke-width="2.4" marker-end="url(#arrowA)" d="M 674.5,366.0 L 674.5,386.4 L 414.5,417.6 L 414.5,438.0"/><path fill="none" stroke="#7c3aed" stroke-width="2.4" marker-end="url(#arrowA)" d="M 674.5,366.0 L 674.5,386.4 L 679.0,423.6 L 679.0,444.0"/><path fill="none" stroke="#7c3aed" stroke-width="2.4" marker-end="url(#arrowA)" d="M 674.5,366.0 L 674.5,386.4 L 961.0,423.6 L 961.0,444.0"/><path fill="none" stroke="#7c3aed" stroke-width="2.4" marker-end="url(#arrowA)" d="M 674.5,366.0 L 674.5,386.4 L 1207.0,423.6 L 1207.0,444.0"/><path fill="none" stroke="#7c3aed" stroke-width="2.4" marker-end="url(#arrowA)" d="M 164.0,502.0 L 164.0,522.4 L 540.5,559.6 L 540.5,580.0"/><path fill="none" stroke="#7c3aed" stroke-width="2.4" marker-end="url(#arrowA)" d="M 414.5,508.0 L 414.5,528.4 L 540.5,559.6 L 540.5,580.0"/><path fill="none" stroke="#7c3aed" stroke-width="2.4" marker-end="url(#arrowA)" d="M 961.0,502.0 L 961.0,522.4 L 540.5,559.6 L 540.5,580.0"/><path fill="none" stroke="#7c3aed" stroke-width="2.4" marker-end="url(#arrowA)" d="M 1207.0,502.0 L 1207.0,522.4 L 784.0,559.6 L 784.0,580.0"/><path fill="none" stroke="#7c3aed" stroke-width="2.4" marker-end="url(#arrowA)" d="M 540.5,650.0 L 540.5,670.4 L 674.5,701.6 L 674.5,722.0"/><rect width="215" height="70" x="567" y="154" fill="#eff6ff" stroke="#bfdbfe" stroke-width="1.8" rx="10"/><text x="674.5" y="189" class="node-title" text-anchor="middle">tokens</text><text x="674.5" y="211" class="node-sub" text-anchor="middle">W drop or capacity drop</text><rect width="236" height="70" x="556.5" y="296" fill="#f0fdf4" stroke="#bbf7d0" stroke-width="1.8" rx="10"/><text x="674.5" y="331" class="node-title" text-anchor="middle">facility_capacity_evidence</text><text x="674.5" y="353" class="node-sub" text-anchor="middle">bundle</text><rect width="208" height="58" x="60" y="444" fill="#fff7ed" stroke="#fed7aa" stroke-width="1.8" rx="10"/><text x="164" y="473" class="node-title" text-anchor="middle">rack power / PDU / PSU</text><rect width="201" height="70" x="314" y="438" fill="#faf5ff" stroke="#e9d5ff" stroke-width="1.8" rx="10"/><text x="414.5" y="473" class="node-title" text-anchor="middle">cooling / liquid loop</text><text x="414.5" y="495" class="node-sub" text-anchor="middle">thermal</text><rect width="236" height="58" x="561" y="444" fill="#f0fdfa" stroke="#99f6e4" stroke-width="1.8" rx="10"/><text x="679" y="473" class="node-title" text-anchor="middle">capacity_activation_record</text><rect width="236" height="58" x="843" y="444" fill="#f8fafc" stroke="#cbd5e1" stroke-width="1.8" rx="10"/><text x="961" y="473" class="node-title" text-anchor="middle">workload_fit_capacity_gate</text><rect width="164" height="58" x="1125" y="444" fill="#eff6ff" stroke="#bfdbfe" stroke-width="1.8" rx="10"/><text x="1207" y="473" class="node-title" text-anchor="middle">energy_ledger</text><rect width="173" height="70" x="454" y="580" fill="#f0fdf4" stroke="#bbf7d0" stroke-width="1.8" rx="10"/><text x="540.5" y="615" class="node-title" text-anchor="middle">degrade / reroute</text><text x="540.5" y="637" class="node-sub" text-anchor="middle">block reservation</text><rect width="222" height="70" x="673" y="580" fill="#fff7ed" stroke="#fed7aa" stroke-width="1.8" rx="10"/><text x="784" y="615" class="node-title" text-anchor="middle">capacity_activation_cost</text><text x="784" y="637" class="node-sub" text-anchor="middle">record</text><rect width="222" height="58" x="563.5" y="722" fill="#faf5ff" stroke="#e9d5ff" stroke-width="1.8" rx="10"/><text x="674.5" y="751" class="node-title" text-anchor="middle">PRR capacity gate update</text><text x="1069" y="900" class="footnote">Rendered with fireworks-tech-graph</text></svg>