<svg xmlns="http://www.w3.org/2000/svg" viewBox="0 0 960 1058" width="960" height="1058">
  <defs>
    <marker id="arrowA" markerWidth="10" markerHeight="7" refX="9" refY="3.5" orient="auto">
      <polygon points="0 0, 10 3.5, 0 7" fill="#7c3aed"/>
    </marker>
    <marker id="arrowB" markerWidth="10" markerHeight="7" refX="9" refY="3.5" orient="auto">
      <polygon points="0 0, 10 3.5, 0 7" fill="#10b981"/>
    </marker>
    <marker id="arrowC" markerWidth="10" markerHeight="7" refX="9" refY="3.5" orient="auto">
      <polygon points="0 0, 10 3.5, 0 7" fill="#2563eb"/>
    </marker>
    <marker id="arrowE" markerWidth="10" markerHeight="7" refX="9" refY="3.5" orient="auto">
      <polygon points="0 0, 10 3.5, 0 7" fill="#f97316"/>
    </marker>
    <marker id="arrowF" markerWidth="10" markerHeight="7" refX="9" refY="3.5" orient="auto">
      <polygon points="0 0, 10 3.5, 0 7" fill="#7c3aed"/>
    </marker>
    <marker id="arrowG" markerWidth="10" markerHeight="7" refX="9" refY="3.5" orient="auto">
      <polygon points="0 0, 10 3.5, 0 7" fill="#ef4444"/>
    </marker>
    <marker id="arrowH" markerWidth="10" markerHeight="7" refX="9" refY="3.5" orient="auto">
      <polygon points="0 0, 10 3.5, 0 7" fill="#6b7280"/>
    </marker>
    <filter id="shadowSoft" x="-20%" y="-20%" width="140%" height="160%">
      <feDropShadow dx="0" dy="3" stdDeviation="6" flood-color="#0f172a" flood-opacity="0.12"/>
    </filter>
    <filter id="shadowGlass" x="-20%" y="-20%" width="140%" height="160%">
      <feDropShadow dx="0" dy="10" stdDeviation="16" flood-color="#020617" flood-opacity="0.28"/>
    </filter>
    <style>
    text { font-family: 'Helvetica Neue', Helvetica, Arial, 'PingFang SC', 'Microsoft YaHei', 'Microsoft JhengHei', 'SimHei', sans-serif; }
    .title { font-size: 30px; font-weight: 700; fill: #111827; }
    .subtitle { font-size: 14px; font-weight: 500; fill: #6b7280; }
    .section { font-size: 13px; font-weight: 700; fill: #2563eb; letter-spacing: 1.4px; }
    .section-sub { font-size: 12px; font-weight: 500; fill: #94a3b8; }
    .node-title { font-size: 18px; font-weight: 700; fill: #111827; }
    .node-sub { font-size: 12px; font-weight: 500; fill: #6b7280; }
    .node-type { font-size: 12px; font-weight: 700; fill: #9ca3af; letter-spacing: 0.08em; }
    .arrow-label { font-size: 12px; font-weight: 600; fill: #6b7280; }
    .legend { font-size: 12px; font-weight: 500; fill: #6b7280; }
    .footnote { font-size: 12px; font-weight: 500; fill: #94a3b8; }
    </style>
  </defs>
  <rect width="960.0" height="1058.0" fill="#ffffff"/>
  <text x="480.0" y="56" text-anchor="middle" class="title">10.3.8 训练稳定性</text>
  <text x="480.0" y="82" text-anchor="middle" class="subtitle">part-03-models/chapter-10-pretraining.md:176</text>
  <path d="M 480.0,224.0 L 480.0,296.0" fill="none" stroke="#7c3aed" stroke-width="2.4" marker-end="url(#arrowA)"/>
  <path d="M 480.0,366.0 L 480.0,438.0" fill="none" stroke="#7c3aed" stroke-width="2.4" marker-end="url(#arrowA)"/>
  <path d="M 480.0,508.0 L 480.0,580.0" fill="none" stroke="#7c3aed" stroke-width="2.4" marker-end="url(#arrowA)"/>
  <path d="M 480.0,638.0 L 480.0,658.4 L 332.0,689.6 L 332.0,710.0" fill="none" stroke="#7c3aed" stroke-width="2.4" marker-end="url(#arrowA)"/>
  <path d="M 480.0,638.0 L 480.0,658.4 L 617.5,689.6 L 617.5,710.0" fill="none" stroke="#7c3aed" stroke-width="2.4" marker-end="url(#arrowA)"/>
  <path d="M 492.5,745.0 L 472.1,745.0 L 369.6,331.0 L 390.0,331.0" fill="none" stroke="#7c3aed" stroke-width="2.4" marker-end="url(#arrowA)"/>
  <path d="M 332.0,780.0 L 332.0,800.4 L 480.0,831.6 L 480.0,852.0" fill="none" stroke="#7c3aed" stroke-width="2.4" marker-end="url(#arrowA)"/>
  <rect x="398.0" y="154.0" width="164.0" height="70.0" rx="10.0" fill="#eff6ff" stroke="#bfdbfe" stroke-width="1.8"/>
  <text x="480.0" y="189.0" text-anchor="middle" class="node-title">clean dataset</text>
  <text x="480.0" y="211.0" text-anchor="middle" class="node-sub">shards / tokens</text>
  <rect x="390.0" y="296.0" width="180.0" height="70.0" rx="10.0" fill="#f0fdf4" stroke="#bbf7d0" stroke-width="1.8"/>
  <text x="480.0" y="331.0" text-anchor="middle" class="node-title">training step</text>
  <text x="480.0" y="353.0" text-anchor="middle" class="node-sub">forward / backward</text>
  <rect x="358.5" y="438.0" width="243.0" height="70.0" rx="10.0" fill="#fff7ed" stroke="#fed7aa" stroke-width="1.8"/>
  <text x="480.0" y="473.0" text-anchor="middle" class="node-title">stability signals</text>
  <text x="480.0" y="495.0" text-anchor="middle" class="node-sub">loss / grad norm / overflow</text>
  <rect x="398.0" y="580.0" width="164.0" height="58.0" rx="10.0" fill="#fff7ed" stroke="#fdba74" stroke-width="2.0"/>
  <rect x="404.0" y="586.0" width="152.0" height="46.0" rx="7.0" fill="none" stroke="#fdba74" stroke-width="1.2" opacity="0.65"/>
  <text x="480.0" y="598.0" text-anchor="middle" class="node-type">DECISION</text>
  <text x="480.0" y="615.0" text-anchor="middle" class="node-title">stable?</text>
  <rect x="217.5" y="710.0" width="229.0" height="70.0" rx="10.0" fill="#f0fdfa" stroke="#99f6e4" stroke-width="1.8"/>
  <text x="332.0" y="745.0" text-anchor="middle" class="node-title">checkpoint</text>
  <text x="332.0" y="767.0" text-anchor="middle" class="node-sub">weights / optimizer / rng</text>
  <rect x="492.5" y="710.0" width="250.0" height="70.0" rx="10.0" fill="#f8fafc" stroke="#cbd5e1" stroke-width="1.8"/>
  <text x="617.5" y="745.0" text-anchor="middle" class="node-title">mitigation</text>
  <text x="617.5" y="767.0" text-anchor="middle" class="node-sub">lr / batch / skip / rollback</text>
  <rect x="398.0" y="852.0" width="164.0" height="70.0" rx="10.0" fill="#eff6ff" stroke="#bfdbfe" stroke-width="1.8"/>
  <text x="480.0" y="887.0" text-anchor="middle" class="node-title">resume evidence</text>
  <text x="480.0" y="909.0" text-anchor="middle" class="node-sub">可恢复训练</text>
  <rect x="388.0" y="644.0" width="36" height="20" rx="6" fill="#ffffff" opacity="0.94"/>
  <text x="406.0" y="658.0" text-anchor="middle" class="arrow-label">yes</text>
  <rect x="530.75" y="644.0" width="36" height="20" rx="6" fill="#ffffff" opacity="0.94"/>
  <text x="548.75" y="658.0" text-anchor="middle" class="arrow-label">no</text>
  <text x="680.0" y="1042.0" class="footnote">Rendered with fireworks-tech-graph</text>
</svg>