<svg xmlns="http://www.w3.org/2000/svg" viewBox="0 0 1482 1058" width="1482" height="1058">
  <defs>
    <marker id="arrowA" markerWidth="10" markerHeight="7" refX="9" refY="3.5" orient="auto">
      <polygon points="0 0, 10 3.5, 0 7" fill="#7c3aed"/>
    </marker>
    <marker id="arrowB" markerWidth="10" markerHeight="7" refX="9" refY="3.5" orient="auto">
      <polygon points="0 0, 10 3.5, 0 7" fill="#10b981"/>
    </marker>
    <marker id="arrowC" markerWidth="10" markerHeight="7" refX="9" refY="3.5" orient="auto">
      <polygon points="0 0, 10 3.5, 0 7" fill="#2563eb"/>
    </marker>
    <marker id="arrowE" markerWidth="10" markerHeight="7" refX="9" refY="3.5" orient="auto">
      <polygon points="0 0, 10 3.5, 0 7" fill="#f97316"/>
    </marker>
    <marker id="arrowF" markerWidth="10" markerHeight="7" refX="9" refY="3.5" orient="auto">
      <polygon points="0 0, 10 3.5, 0 7" fill="#7c3aed"/>
    </marker>
    <marker id="arrowG" markerWidth="10" markerHeight="7" refX="9" refY="3.5" orient="auto">
      <polygon points="0 0, 10 3.5, 0 7" fill="#ef4444"/>
    </marker>
    <marker id="arrowH" markerWidth="10" markerHeight="7" refX="9" refY="3.5" orient="auto">
      <polygon points="0 0, 10 3.5, 0 7" fill="#6b7280"/>
    </marker>
    <filter id="shadowSoft" x="-20%" y="-20%" width="140%" height="160%">
      <feDropShadow dx="0" dy="3" stdDeviation="6" flood-color="#0f172a" flood-opacity="0.12"/>
    </filter>
    <filter id="shadowGlass" x="-20%" y="-20%" width="140%" height="160%">
      <feDropShadow dx="0" dy="10" stdDeviation="16" flood-color="#020617" flood-opacity="0.28"/>
    </filter>
    <style>
    text { font-family: 'Helvetica Neue', Helvetica, Arial, 'PingFang SC', 'Microsoft YaHei', 'Microsoft JhengHei', 'SimHei', sans-serif; }
    .title { font-size: 30px; font-weight: 700; fill: #111827; }
    .subtitle { font-size: 14px; font-weight: 500; fill: #6b7280; }
    .section { font-size: 13px; font-weight: 700; fill: #2563eb; letter-spacing: 1.4px; }
    .section-sub { font-size: 12px; font-weight: 500; fill: #94a3b8; }
    .node-title { font-size: 18px; font-weight: 700; fill: #111827; }
    .node-sub { font-size: 12px; font-weight: 500; fill: #6b7280; }
    .node-type { font-size: 12px; font-weight: 700; fill: #9ca3af; letter-spacing: 0.08em; }
    .arrow-label { font-size: 12px; font-weight: 600; fill: #6b7280; }
    .legend { font-size: 12px; font-weight: 500; fill: #6b7280; }
    .footnote { font-size: 12px; font-weight: 500; fill: #94a3b8; }
    </style>
  </defs>
  <rect width="1482.0" height="1058.0" fill="#ffffff"/>
  <text x="741.0" y="56" text-anchor="middle" class="title">38.3.8 acceptance baseline</text>
  <text x="741.0" y="82" text-anchor="middle" class="subtitle">part-09-reliability-observability/chapter-38-acceptance-testing.md:926</text>
  <path d="M 741.0,212.0 L 741.0,284.0" fill="none" stroke="#7c3aed" stroke-width="2.4" marker-end="url(#arrowA)"/>
  <path d="M 741.0,354.0 L 741.0,374.4 L 142.0,411.6 L 142.0,432.0" fill="none" stroke="#7c3aed" stroke-width="2.4" marker-end="url(#arrowA)"/>
  <path d="M 741.0,354.0 L 741.0,374.4 L 352.0,411.6 L 352.0,432.0" fill="none" stroke="#7c3aed" stroke-width="2.4" marker-end="url(#arrowA)"/>
  <path d="M 741.0,354.0 L 741.0,374.4 L 573.5,411.6 L 573.5,432.0" fill="none" stroke="#7c3aed" stroke-width="2.4" marker-end="url(#arrowA)"/>
  <path d="M 741.0,354.0 L 741.0,374.4 L 824.0,411.6 L 824.0,432.0" fill="none" stroke="#7c3aed" stroke-width="2.4" marker-end="url(#arrowA)"/>
  <path d="M 741.0,354.0 L 741.0,374.4 L 1095.5,405.6 L 1095.5,426.0" fill="none" stroke="#7c3aed" stroke-width="2.4" marker-end="url(#arrowA)"/>
  <path d="M 741.0,354.0 L 741.0,374.4 L 1339.0,405.6 L 1339.0,426.0" fill="none" stroke="#7c3aed" stroke-width="2.4" marker-end="url(#arrowA)"/>
  <path d="M 142.0,490.0 L 142.0,510.4 L 741.0,547.6 L 741.0,568.0" fill="none" stroke="#7c3aed" stroke-width="2.4" marker-end="url(#arrowA)"/>
  <path d="M 352.0,490.0 L 352.0,510.4 L 741.0,547.6 L 741.0,568.0" fill="none" stroke="#7c3aed" stroke-width="2.4" marker-end="url(#arrowA)"/>
  <path d="M 573.5,490.0 L 573.5,510.4 L 741.0,547.6 L 741.0,568.0" fill="none" stroke="#7c3aed" stroke-width="2.4" marker-end="url(#arrowA)"/>
  <path d="M 824.0,490.0 L 824.0,510.4 L 741.0,547.6 L 741.0,568.0" fill="none" stroke="#7c3aed" stroke-width="2.4" marker-end="url(#arrowA)"/>
  <path d="M 1095.5,496.0 L 1095.5,516.4 L 741.0,547.6 L 741.0,568.0" fill="none" stroke="#7c3aed" stroke-width="2.4" marker-end="url(#arrowA)"/>
  <path d="M 1339.0,496.0 L 1339.0,516.4 L 741.0,547.6 L 741.0,568.0" fill="none" stroke="#7c3aed" stroke-width="2.4" marker-end="url(#arrowA)"/>
  <path d="M 741.0,638.0 L 741.0,658.4 L 603.5,689.6 L 603.5,710.0" fill="none" stroke="#7c3aed" stroke-width="2.4" marker-end="url(#arrowA)"/>
  <path d="M 741.0,638.0 L 741.0,658.4 L 875.0,695.6 L 875.0,716.0" fill="none" stroke="#7c3aed" stroke-width="2.4" marker-end="url(#arrowA)"/>
  <path d="M 875.0,774.0 L 875.0,794.4 L 741.0,831.6 L 741.0,852.0" fill="none" stroke="#7c3aed" stroke-width="2.4" marker-end="url(#arrowA)"/>
  <rect x="659.0" y="154.0" width="164.0" height="58.0" rx="10.0" fill="#eff6ff" stroke="#bfdbfe" stroke-width="1.8"/>
  <text x="741.0" y="183.0" text-anchor="middle" class="node-title">fabric change</text>
  <rect x="630.0" y="284.0" width="222.0" height="70.0" rx="10.0" fill="#f0fdf4" stroke="#bbf7d0" stroke-width="1.8"/>
  <text x="741.0" y="319.0" text-anchor="middle" class="node-title">fabric_change_acceptance</text>
  <text x="741.0" y="341.0" text-anchor="middle" class="node-sub">matrix</text>
  <rect x="60.0" y="432.0" width="164.0" height="58.0" rx="10.0" fill="#fff7ed" stroke="#fed7aa" stroke-width="1.8"/>
  <text x="142.0" y="461.0" text-anchor="middle" class="node-title">host RDMA</text>
  <rect x="270.0" y="432.0" width="164.0" height="58.0" rx="10.0" fill="#faf5ff" stroke="#e9d5ff" stroke-width="1.8"/>
  <text x="352.0" y="461.0" text-anchor="middle" class="node-title">container RDMA</text>
  <rect x="480.0" y="432.0" width="187.0" height="58.0" rx="10.0" fill="#f0fdfa" stroke="#99f6e4" stroke-width="1.8"/>
  <text x="573.5" y="461.0" text-anchor="middle" class="node-title">Kubernetes NCCL job</text>
  <rect x="713.0" y="432.0" width="222.0" height="58.0" rx="10.0" fill="#f8fafc" stroke="#cbd5e1" stroke-width="1.8"/>
  <text x="824.0" y="461.0" text-anchor="middle" class="node-title">PFC / ECN / QoS counters</text>
  <rect x="981.0" y="426.0" width="229.0" height="70.0" rx="10.0" fill="#eff6ff" stroke="#bfdbfe" stroke-width="1.8"/>
  <text x="1095.5" y="461.0" text-anchor="middle" class="node-title">checkpoint + NCCL + mixed</text>
  <text x="1095.5" y="483.0" text-anchor="middle" class="node-sub">traffic</text>
  <rect x="1256.0" y="426.0" width="166.0" height="70.0" rx="10.0" fill="#f0fdf4" stroke="#bbf7d0" stroke-width="1.8"/>
  <text x="1339.0" y="461.0" text-anchor="middle" class="node-title">scheduler labels</text>
  <text x="1339.0" y="483.0" text-anchor="middle" class="node-sub">pool state</text>
  <rect x="640.5" y="568.0" width="201.0" height="70.0" rx="10.0" fill="#fff7ed" stroke="#fdba74" stroke-width="2.0"/>
  <rect x="646.5" y="574.0" width="189.0" height="58.0" rx="7.0" fill="none" stroke="#fdba74" stroke-width="1.2" opacity="0.65"/>
  <text x="741.0" y="586.0" text-anchor="middle" class="node-type">DECISION</text>
  <text x="741.0" y="609.0" text-anchor="middle" class="node-title">all required evidence</text>
  <text x="741.0" y="631.0" text-anchor="middle" class="node-sub">pass?</text>
  <rect x="492.5" y="710.0" width="222.0" height="70.0" rx="10.0" fill="#faf5ff" stroke="#e9d5ff" stroke-width="1.8"/>
  <text x="603.5" y="745.0" text-anchor="middle" class="node-title">publish refreshed fabric</text>
  <text x="603.5" y="767.0" text-anchor="middle" class="node-sub">baseline</text>
  <rect x="760.5" y="716.0" width="229.0" height="58.0" rx="10.0" fill="#f0fdfa" stroke="#99f6e4" stroke-width="1.8"/>
  <text x="875.0" y="745.0" text-anchor="middle" class="node-title">keep limited / quarantine</text>
  <rect x="640.5" y="852.0" width="201.0" height="70.0" rx="10.0" fill="#f8fafc" stroke="#cbd5e1" stroke-width="1.8"/>
  <text x="741.0" y="887.0" text-anchor="middle" class="node-title">congestion_fault_tree</text>
  <text x="741.0" y="909.0" text-anchor="middle" class="node-sub">execution</text>
  <rect x="654.25" y="644.0" width="36" height="20" rx="6" fill="#ffffff" opacity="0.94"/>
  <text x="672.25" y="658.0" text-anchor="middle" class="arrow-label">yes</text>
  <rect x="790.0" y="647.0" width="36" height="20" rx="6" fill="#ffffff" opacity="0.94"/>
  <text x="808.0" y="661.0" text-anchor="middle" class="arrow-label">no</text>
  <text x="1202.0" y="1042.0" class="footnote">Rendered with fireworks-tech-graph</text>
</svg>