<svg xmlns="http://www.w3.org/2000/svg" width="960" height="1518" viewBox="0 0 960 1518"><defs><marker id="arrowA" markerHeight="7" markerWidth="10" orient="auto" refX="9" refY="3.5"><polygon fill="#7c3aed" points="0 0 10 3.5 0 7"/></marker><marker id="arrowB" markerHeight="7" markerWidth="10" orient="auto" refX="9" refY="3.5"><polygon fill="#10b981" points="0 0 10 3.5 0 7"/></marker><marker id="arrowC" markerHeight="7" markerWidth="10" orient="auto" refX="9" refY="3.5"><polygon fill="#2563eb" points="0 0 10 3.5 0 7"/></marker><marker id="arrowE" markerHeight="7" markerWidth="10" orient="auto" refX="9" refY="3.5"><polygon fill="#f97316" points="0 0 10 3.5 0 7"/></marker><marker id="arrowF" markerHeight="7" markerWidth="10" orient="auto" refX="9" refY="3.5"><polygon fill="#7c3aed" points="0 0 10 3.5 0 7"/></marker><marker id="arrowG" markerHeight="7" markerWidth="10" orient="auto" refX="9" refY="3.5"><polygon fill="#ef4444" points="0 0 10 3.5 0 7"/></marker><marker id="arrowH" markerHeight="7" markerWidth="10" orient="auto" refX="9" refY="3.5"><polygon fill="#6b7280" points="0 0 10 3.5 0 7"/></marker><filter id="shadowSoft" width="140%" height="160%" x="-20%" y="-20%"><feDropShadow dx="0" dy="3" flood-color="#0f172a" flood-opacity=".12" stdDeviation="6"/></filter><filter id="shadowGlass" width="140%" height="160%" x="-20%" y="-20%"><feDropShadow dx="0" dy="10" flood-color="#020617" flood-opacity=".28" stdDeviation="16"/></filter><style>text{font-family:&apos;Helvetica Neue&apos;,Helvetica,Arial,&apos;PingFang SC&apos;,&apos;Microsoft YaHei&apos;,&apos;Microsoft JhengHei&apos;,&apos;SimHei&apos;,sans-serif}.title{font-size:30px;font-weight:700;fill:#111827}.subtitle{font-size:14px;font-weight:500;fill:#6b7280}.node-title{font-size:18px;font-weight:700;fill:#111827}.footnote{font-size:12px;font-weight:500;fill:#94a3b8}</style></defs><rect width="960" height="1518" fill="#fff"/><text x="480" y="56" class="title" text-anchor="middle">6.4.1 工程实现</text><text x="480" y="82" class="subtitle" text-anchor="middle">part-02-platform/chapter-06-ai-gateway.md:519</text><path fill="none" stroke="#7c3aed" stroke-width="2.4" marker-end="url(#arrowA)" d="M 480.0,212.0 L 480.0,284.0"/><path fill="none" stroke="#7c3aed" stroke-width="2.4" marker-end="url(#arrowA)" d="M 480.0,342.0 L 480.0,414.0"/><path fill="none" stroke="#7c3aed" stroke-width="2.4" marker-end="url(#arrowA)" d="M 480.0,472.0 L 480.0,544.0"/><path fill="none" stroke="#7c3aed" stroke-width="2.4" marker-end="url(#arrowA)" d="M 480.0,602.0 L 480.0,674.0"/><path fill="none" stroke="#7c3aed" stroke-width="2.4" marker-end="url(#arrowA)" d="M 480.0,732.0 L 480.0,804.0"/><path fill="none" stroke="#7c3aed" stroke-width="2.4" marker-end="url(#arrowA)" d="M 480.0,862.0 L 480.0,934.0"/><path fill="none" stroke="#7c3aed" stroke-width="2.4" marker-end="url(#arrowA)" d="M 480.0,992.0 L 480.0,1064.0"/><path fill="none" stroke="#7c3aed" stroke-width="2.4" marker-end="url(#arrowA)" d="M 480.0,1122.0 L 480.0,1194.0"/><path fill="none" stroke="#7c3aed" stroke-width="2.4" marker-end="url(#arrowA)" d="M 480.0,1252.0 L 480.0,1272.4 L 270.0,1303.6 L 270.0,1324.0"/><path fill="none" stroke="#7c3aed" stroke-width="2.4" marker-end="url(#arrowA)" d="M 480.0,1252.0 L 480.0,1272.4 L 495.0,1303.6 L 495.0,1324.0"/><path fill="none" stroke="#7c3aed" stroke-width="2.4" marker-end="url(#arrowA)" d="M 480.0,1252.0 L 480.0,1272.4 L 705.0,1303.6 L 705.0,1324.0"/><rect width="164" height="58" x="398" y="154" fill="#eff6ff" stroke="#bfdbfe" stroke-width="1.8" rx="10"/><text x="480" y="183" class="node-title" text-anchor="middle">request</text><rect width="164" height="58" x="398" y="284" fill="#f0fdf4" stroke="#bbf7d0" stroke-width="1.8" rx="10"/><text x="480" y="313" class="node-title" text-anchor="middle">identity check</text><rect width="164" height="58" x="398" y="414" fill="#fff7ed" stroke="#fed7aa" stroke-width="1.8" rx="10"/><text x="480" y="443" class="node-title" text-anchor="middle">tenant_boundary</text><rect width="194" height="58" x="383" y="544" fill="#faf5ff" stroke="#e9d5ff" stroke-width="1.8" rx="10"/><text x="480" y="573" class="node-title" text-anchor="middle">credential_lifecycle</text><rect width="194" height="58" x="383" y="674" fill="#f0fdfa" stroke="#99f6e4" stroke-width="1.8" rx="10"/><text x="480" y="703" class="node-title" text-anchor="middle">data_boundary_policy</text><rect width="164" height="58" x="398" y="804" fill="#f8fafc" stroke="#cbd5e1" stroke-width="1.8" rx="10"/><text x="480" y="833" class="node-title" text-anchor="middle">quota / budget</text><rect width="166" height="58" x="397" y="934" fill="#eff6ff" stroke="#bfdbfe" stroke-width="1.8" rx="10"/><text x="480" y="963" class="node-title" text-anchor="middle">model capability</text><rect width="166" height="58" x="397" y="1064" fill="#f0fdf4" stroke="#bbf7d0" stroke-width="1.8" rx="10"/><text x="480" y="1093" class="node-title" text-anchor="middle">route / fallback</text><rect width="208" height="58" x="376" y="1194" fill="#fff7ed" stroke="#fed7aa" stroke-width="1.8" rx="10"/><text x="480" y="1223" class="node-title" text-anchor="middle">policy_decision_record</text><rect width="194" height="58" x="173" y="1324" fill="#faf5ff" stroke="#e9d5ff" stroke-width="1.8" rx="10"/><text x="270" y="1353" class="node-title" text-anchor="middle">security_audit_event</text><rect width="164" height="58" x="413" y="1324" fill="#f0fdfa" stroke="#99f6e4" stroke-width="1.8" rx="10"/><text x="495" y="1353" class="node-title" text-anchor="middle">metering event</text><rect width="164" height="58" x="623" y="1324" fill="#f8fafc" stroke="#cbd5e1" stroke-width="1.8" rx="10"/><text x="705" y="1353" class="node-title" text-anchor="middle">trace context</text><text x="680" y="1502" class="footnote">Rendered with fireworks-tech-graph</text></svg>