<svg xmlns="http://www.w3.org/2000/svg" width="1677" height="600" viewBox="0 0 1677 600"><defs><marker id="arrowA" markerHeight="7" markerWidth="10" orient="auto" refX="9" refY="3.5"><polygon fill="#7c3aed" points="0 0 10 3.5 0 7"/></marker><marker id="arrowB" markerHeight="7" markerWidth="10" orient="auto" refX="9" refY="3.5"><polygon fill="#10b981" points="0 0 10 3.5 0 7"/></marker><marker id="arrowC" markerHeight="7" markerWidth="10" orient="auto" refX="9" refY="3.5"><polygon fill="#2563eb" points="0 0 10 3.5 0 7"/></marker><marker id="arrowE" markerHeight="7" markerWidth="10" orient="auto" refX="9" refY="3.5"><polygon fill="#f97316" points="0 0 10 3.5 0 7"/></marker><marker id="arrowF" markerHeight="7" markerWidth="10" orient="auto" refX="9" refY="3.5"><polygon fill="#7c3aed" points="0 0 10 3.5 0 7"/></marker><marker id="arrowG" markerHeight="7" markerWidth="10" orient="auto" refX="9" refY="3.5"><polygon fill="#ef4444" points="0 0 10 3.5 0 7"/></marker><marker id="arrowH" markerHeight="7" markerWidth="10" orient="auto" refX="9" refY="3.5"><polygon fill="#6b7280" points="0 0 10 3.5 0 7"/></marker><filter id="shadowSoft" width="140%" height="160%" x="-20%" y="-20%"><feDropShadow dx="0" dy="3" flood-color="#0f172a" flood-opacity=".12" stdDeviation="6"/></filter><filter id="shadowGlass" width="140%" height="160%" x="-20%" y="-20%"><feDropShadow dx="0" dy="10" flood-color="#020617" flood-opacity=".28" stdDeviation="16"/></filter><style>text{font-family:&apos;Helvetica Neue&apos;,Helvetica,Arial,&apos;PingFang SC&apos;,&apos;Microsoft YaHei&apos;,&apos;Microsoft JhengHei&apos;,&apos;SimHei&apos;,sans-serif}.title{font-size:30px;font-weight:700;fill:#111827}.subtitle{font-size:14px;font-weight:500;fill:#6b7280}.node-title{font-size:18px;font-weight:700;fill:#111827}.footnote,.node-sub{font-size:12px;font-weight:500}.node-sub{fill:#6b7280}.footnote{fill:#94a3b8}</style></defs><rect width="1677" height="600" fill="#fff"/><text x="838.5" y="56" class="title" text-anchor="middle">18.2.2 系统架构</text><text x="838.5" y="82" class="subtitle" text-anchor="middle">part-04-runtime/chapter-18-collective-communication.md:78</text><path fill="none" stroke="#7c3aed" stroke-width="2.4" marker-end="url(#arrowA)" d="M 260.0,267.0 L 280.4,267.0 L 311.6,217.0 L 332.0,217.0"/><path fill="none" stroke="#7c3aed" stroke-width="2.4" marker-end="url(#arrowA)" d="M 533.0,217.0 L 553.4,217.0 L 584.6,267.0 L 605.0,267.0"/><path fill="none" stroke="#7c3aed" stroke-width="2.4" marker-end="url(#arrowA)" d="M 769.0,267.0 L 789.4,267.0 L 820.6,155.0 L 841.0,155.0"/><path fill="none" stroke="#7c3aed" stroke-width="2.4" marker-end="url(#arrowA)" d="M 769.0,267.0 L 869.0,267.0"/><path fill="none" stroke="#7c3aed" stroke-width="2.4" marker-end="url(#arrowA)" d="M 1063.0,155.0 L 1083.4,155.0 L 1133.1,211.0 L 1153.5,211.0"/><path fill="none" stroke="#7c3aed" stroke-width="2.4" marker-end="url(#arrowA)" d="M 1035.0,267.0 L 1055.4,267.0 L 1114.6,323.0 L 1135.0,323.0"/><path fill="none" stroke="#7c3aed" stroke-width="2.4" marker-end="url(#arrowA)" d="M 769.0,267.0 L 789.4,267.0 L 849.6,379.0 L 870.0,379.0"/><path fill="none" stroke="#7c3aed" stroke-width="2.4" marker-end="url(#arrowA)" d="M 260.0,267.0 L 280.4,267.0 L 322.1,323.0 L 342.5,323.0"/><path fill="none" stroke="#7c3aed" stroke-width="2.4" marker-end="url(#arrowA)" d="M 1336.0,323.0 L 1356.4,323.0 L 1387.6,267.0 L 1408.0,267.0"/><rect width="164" height="58" x="96" y="238" fill="#eff6ff" stroke="#bfdbfe" stroke-width="1.8" rx="10"/><text x="178" y="267" class="node-title" text-anchor="middle">训练框架</text><rect width="201" height="70" x="332" y="182" fill="#f0fdf4" stroke="#bbf7d0" stroke-width="1.8" rx="10"/><text x="432.5" y="217" class="node-title" text-anchor="middle">AllReduce / AllGather</text><text x="432.5" y="239" class="node-sub" text-anchor="middle">AllToAll / P2P</text><rect width="180" height="58" x="342.5" y="294" fill="#fff7ed" stroke="#fed7aa" stroke-width="1.8" rx="10"/><text x="432.5" y="323" class="node-title" text-anchor="middle">framework profiler</text><rect width="164" height="58" x="605" y="238" fill="#fff7ed" stroke="#fed7aa" stroke-width="1.8" rx="10"/><text x="687" y="267" class="node-title" text-anchor="middle">NCCL runtime</text><rect width="222" height="58" x="841" y="126" fill="#faf5ff" stroke="#e9d5ff" stroke-width="1.8" rx="10"/><text x="952" y="155" class="node-title" text-anchor="middle">NVLink / NVSwitch / PCIe</text><rect width="166" height="58" x="869" y="238" fill="#f0fdfa" stroke="#99f6e4" stroke-width="1.8" rx="10"/><text x="952" y="267" class="node-title" text-anchor="middle">IB / RoCE / RDMA</text><rect width="164" height="58" x="870" y="350" fill="#f0fdf4" stroke="#bbf7d0" stroke-width="1.8" rx="10"/><text x="952" y="379" class="node-title" text-anchor="middle">NCCL logs</text><rect width="164" height="58" x="1153.5" y="182" fill="#f8fafc" stroke="#cbd5e1" stroke-width="1.8" rx="10"/><text x="1235.5" y="211" class="node-title" text-anchor="middle">GPU ranks</text><rect width="201" height="58" x="1135" y="294" fill="#eff6ff" stroke="#bfdbfe" stroke-width="1.8" rx="10"/><text x="1235.5" y="323" class="node-title" text-anchor="middle">NIC / Switch / Fabric</text><rect width="173" height="58" x="1408" y="238" fill="#faf5ff" stroke="#e9d5ff" stroke-width="1.8" rx="10"/><text x="1494.5" y="267" class="node-title" text-anchor="middle">network telemetry</text><text x="1397" y="584" class="footnote">Rendered with fireworks-tech-graph</text></svg>