<svg xmlns="http://www.w3.org/2000/svg" viewBox="0 0 1302 600" width="1302" height="600">
  <defs>
    <marker id="arrowA" markerWidth="10" markerHeight="7" refX="9" refY="3.5" orient="auto">
      <polygon points="0 0, 10 3.5, 0 7" fill="#7c3aed"/>
    </marker>
    <marker id="arrowB" markerWidth="10" markerHeight="7" refX="9" refY="3.5" orient="auto">
      <polygon points="0 0, 10 3.5, 0 7" fill="#10b981"/>
    </marker>
    <marker id="arrowC" markerWidth="10" markerHeight="7" refX="9" refY="3.5" orient="auto">
      <polygon points="0 0, 10 3.5, 0 7" fill="#2563eb"/>
    </marker>
    <marker id="arrowE" markerWidth="10" markerHeight="7" refX="9" refY="3.5" orient="auto">
      <polygon points="0 0, 10 3.5, 0 7" fill="#f97316"/>
    </marker>
    <marker id="arrowF" markerWidth="10" markerHeight="7" refX="9" refY="3.5" orient="auto">
      <polygon points="0 0, 10 3.5, 0 7" fill="#7c3aed"/>
    </marker>
    <marker id="arrowG" markerWidth="10" markerHeight="7" refX="9" refY="3.5" orient="auto">
      <polygon points="0 0, 10 3.5, 0 7" fill="#ef4444"/>
    </marker>
    <marker id="arrowH" markerWidth="10" markerHeight="7" refX="9" refY="3.5" orient="auto">
      <polygon points="0 0, 10 3.5, 0 7" fill="#6b7280"/>
    </marker>
    <filter id="shadowSoft" x="-20%" y="-20%" width="140%" height="160%">
      <feDropShadow dx="0" dy="3" stdDeviation="6" flood-color="#0f172a" flood-opacity="0.12"/>
    </filter>
    <filter id="shadowGlass" x="-20%" y="-20%" width="140%" height="160%">
      <feDropShadow dx="0" dy="10" stdDeviation="16" flood-color="#020617" flood-opacity="0.28"/>
    </filter>
    <style>
    text { font-family: 'Helvetica Neue', Helvetica, Arial, 'PingFang SC', 'Microsoft YaHei', 'Microsoft JhengHei', 'SimHei', sans-serif; }
    .title { font-size: 30px; font-weight: 700; fill: #111827; }
    .subtitle { font-size: 14px; font-weight: 500; fill: #6b7280; }
    .section { font-size: 13px; font-weight: 700; fill: #2563eb; letter-spacing: 1.4px; }
    .section-sub { font-size: 12px; font-weight: 500; fill: #94a3b8; }
    .node-title { font-size: 18px; font-weight: 700; fill: #111827; }
    .node-sub { font-size: 12px; font-weight: 500; fill: #6b7280; }
    .node-type { font-size: 12px; font-weight: 700; fill: #9ca3af; letter-spacing: 0.08em; }
    .arrow-label { font-size: 12px; font-weight: 600; fill: #6b7280; }
    .legend { font-size: 12px; font-weight: 500; fill: #6b7280; }
    .footnote { font-size: 12px; font-weight: 500; fill: #94a3b8; }
    </style>
  </defs>
  <rect width="1302.0" height="600.0" fill="#ffffff"/>
  <text x="651.0" y="56" text-anchor="middle" class="title">44.4.1 工程实现</text>
  <text x="651.0" y="82" text-anchor="middle" class="subtitle">part-10-economics-cases/chapter-44-building-ai-factory.md:1265</text>
  <rect x="42.0" y="118.0" width="283.0" height="372.0" rx="16.0" fill="#f8fafc" stroke="#dbe5f1" stroke-width="1.4" stroke-dasharray="7 5"/>
  <text x="60.0" y="142.0" class="section">阶段 1</text>
  <text x="60.0" y="162.0" class="section-sub">resource_claim_prr_drill -&gt; resource_claim_accept...</text>
  <rect x="363.0" y="118.0" width="283.0" height="372.0" rx="16.0" fill="#ffffff" stroke="#dbe5f1" stroke-width="1.4" stroke-dasharray="7 5"/>
  <text x="381.0" y="142.0" class="section">阶段 2</text>
  <text x="381.0" y="162.0" class="section-sub">resource_claim_admission -&gt; resource_claim_fault_...</text>
  <rect x="684.0" y="118.0" width="269.0" height="372.0" rx="16.0" fill="#f8fafc" stroke="#dbe5f1" stroke-width="1.4" stroke-dasharray="7 5"/>
  <text x="702.0" y="142.0" class="section">阶段 3</text>
  <text x="702.0" y="162.0" class="section-sub">resource_claim_incident -&gt; gpu_assignment_record</text>
  <rect x="991.0" y="118.0" width="269.0" height="372.0" rx="16.0" fill="#ffffff" stroke="#dbe5f1" stroke-width="1.4" stroke-dasharray="7 5"/>
  <text x="1009.0" y="142.0" class="section">阶段 4</text>
  <text x="1009.0" y="162.0" class="section-sub">container runtime PRR -&gt; PRR resource claim gate</text>
  <path d="M 183.5,230.0 L 183.5,270.0" fill="none" stroke="#7c3aed" stroke-width="2.4" marker-end="url(#arrowA)"/>
  <path d="M 183.5,340.0 L 183.5,368.0" fill="none" stroke="#7c3aed" stroke-width="2.4" marker-end="url(#arrowA)"/>
  <path d="M 298.0,403.0 L 318.4,403.0 L 373.1,256.0 L 393.5,256.0" fill="none" stroke="#7c3aed" stroke-width="2.4" marker-end="url(#arrowA)"/>
  <path d="M 504.5,291.0 L 504.5,319.0" fill="none" stroke="#7c3aed" stroke-width="2.4" marker-end="url(#arrowA)"/>
  <path d="M 619.0,354.0 L 639.4,354.0 L 690.6,256.0 L 711.0,256.0" fill="none" stroke="#7c3aed" stroke-width="2.4" marker-end="url(#arrowA)"/>
  <path d="M 615.5,256.0 L 635.9,256.0 L 697.6,348.0 L 718.0,348.0" fill="none" stroke="#7c3aed" stroke-width="2.4" marker-end="url(#arrowA)"/>
  <path d="M 919.0,348.0 L 939.4,348.0 L 1004.6,256.0 L 1025.0,256.0" fill="none" stroke="#7c3aed" stroke-width="2.4" marker-end="url(#arrowA)"/>
  <path d="M 926.0,256.0 L 946.4,256.0 L 997.6,348.0 L 1018.0,348.0" fill="none" stroke="#7c3aed" stroke-width="2.4" marker-end="url(#arrowA)"/>
  <rect x="72.5" y="172.0" width="222.0" height="58.0" rx="10.0" fill="#eff6ff" stroke="#bfdbfe" stroke-width="1.8"/>
  <text x="183.5" y="201.0" text-anchor="middle" class="node-title">resource_claim_prr_drill</text>
  <rect x="93.5" y="270.0" width="180.0" height="70.0" rx="10.0" fill="#f0fdf4" stroke="#bbf7d0" stroke-width="1.8"/>
  <text x="183.5" y="305.0" text-anchor="middle" class="node-title">gpu_resource_claim</text>
  <text x="183.5" y="327.0" text-anchor="middle" class="node-sub">contract</text>
  <rect x="69.0" y="368.0" width="229.0" height="70.0" rx="10.0" fill="#fff7ed" stroke="#fed7aa" stroke-width="1.8"/>
  <text x="183.5" y="403.0" text-anchor="middle" class="node-title">resource_claim_acceptance</text>
  <text x="183.5" y="425.0" text-anchor="middle" class="node-sub">matrix</text>
  <rect x="393.5" y="221.0" width="222.0" height="70.0" rx="10.0" fill="#faf5ff" stroke="#e9d5ff" stroke-width="1.8"/>
  <text x="504.5" y="256.0" text-anchor="middle" class="node-title">resource_claim_admission</text>
  <text x="504.5" y="278.0" text-anchor="middle" class="node-sub">record</text>
  <rect x="390.0" y="319.0" width="229.0" height="70.0" rx="10.0" fill="#f0fdfa" stroke="#99f6e4" stroke-width="1.8"/>
  <text x="504.5" y="354.0" text-anchor="middle" class="node-title">resource_claim_fault_tree</text>
  <text x="504.5" y="376.0" text-anchor="middle" class="node-sub">execution</text>
  <rect x="711.0" y="221.0" width="215.0" height="70.0" rx="10.0" fill="#f8fafc" stroke="#cbd5e1" stroke-width="1.8"/>
  <text x="818.5" y="256.0" text-anchor="middle" class="node-title">resource_claim_incident</text>
  <text x="818.5" y="278.0" text-anchor="middle" class="node-sub">cost_record</text>
  <rect x="718.0" y="319.0" width="201.0" height="58.0" rx="10.0" fill="#eff6ff" stroke="#bfdbfe" stroke-width="1.8"/>
  <text x="818.5" y="348.0" text-anchor="middle" class="node-title">gpu_assignment_record</text>
  <rect x="1025.0" y="221.0" width="201.0" height="70.0" rx="10.0" fill="#f0fdf4" stroke="#bbf7d0" stroke-width="1.8"/>
  <text x="1125.5" y="256.0" text-anchor="middle" class="node-title">container runtime PRR</text>
  <text x="1125.5" y="278.0" text-anchor="middle" class="node-sub">if claim bound</text>
  <rect x="1018.0" y="319.0" width="215.0" height="58.0" rx="10.0" fill="#fff7ed" stroke="#fed7aa" stroke-width="1.8"/>
  <text x="1125.5" y="348.0" text-anchor="middle" class="node-title">PRR resource claim gate</text>
  <line x1="42.0" y1="562.0" x2="72.0" y2="562.0" stroke="#7c3aed" stroke-width="2.4" marker-end="url(#arrowA)"/>
  <text x="82.0" y="566.0" class="legend">主路径 / 阶段推进</text>
  <text x="1022.0" y="584.0" class="footnote">Rendered with fireworks-tech-graph</text>
</svg>