<svg xmlns="http://www.w3.org/2000/svg" width="1576" height="750" viewBox="0 0 1576 750"><defs><marker id="arrowA" markerHeight="7" markerWidth="10" orient="auto" refX="9" refY="3.5"><polygon fill="#7c3aed" points="0 0 10 3.5 0 7"/></marker><marker id="arrowB" markerHeight="7" markerWidth="10" orient="auto" refX="9" refY="3.5"><polygon fill="#10b981" points="0 0 10 3.5 0 7"/></marker><marker id="arrowC" markerHeight="7" markerWidth="10" orient="auto" refX="9" refY="3.5"><polygon fill="#2563eb" points="0 0 10 3.5 0 7"/></marker><marker id="arrowE" markerHeight="7" markerWidth="10" orient="auto" refX="9" refY="3.5"><polygon fill="#f97316" points="0 0 10 3.5 0 7"/></marker><marker id="arrowF" markerHeight="7" markerWidth="10" orient="auto" refX="9" refY="3.5"><polygon fill="#7c3aed" points="0 0 10 3.5 0 7"/></marker><marker id="arrowG" markerHeight="7" markerWidth="10" orient="auto" refX="9" refY="3.5"><polygon fill="#ef4444" points="0 0 10 3.5 0 7"/></marker><marker id="arrowH" markerHeight="7" markerWidth="10" orient="auto" refX="9" refY="3.5"><polygon fill="#6b7280" points="0 0 10 3.5 0 7"/></marker><filter id="shadowSoft" width="140%" height="160%" x="-20%" y="-20%"><feDropShadow dx="0" dy="3" flood-color="#0f172a" flood-opacity=".12" stdDeviation="6"/></filter><filter id="shadowGlass" width="140%" height="160%" x="-20%" y="-20%"><feDropShadow dx="0" dy="10" flood-color="#020617" flood-opacity=".28" stdDeviation="16"/></filter><style>text{font-family:&apos;Helvetica Neue&apos;,Helvetica,Arial,&apos;PingFang SC&apos;,&apos;Microsoft YaHei&apos;,&apos;Microsoft JhengHei&apos;,&apos;SimHei&apos;,sans-serif}.title{font-size:30px;font-weight:700;fill:#111827}.subtitle{font-size:14px;font-weight:500;fill:#6b7280}.node-title{font-size:18px;font-weight:700;fill:#111827}.footnote,.node-sub{font-size:12px;font-weight:500}.node-sub{fill:#6b7280}.footnote{fill:#94a3b8}</style></defs><rect width="1576" height="750" fill="#fff"/><text x="788" y="56" class="title" text-anchor="middle">20.2.2 系统架构</text><text x="788" y="82" class="subtitle" text-anchor="middle">part-05-orchestration/chapter-20-ai-workloads.md:66</text><path fill="none" stroke="#7c3aed" stroke-width="2.4" marker-end="url(#arrowA)" d="M 788.0,212.0 L 788.0,284.0"/><path fill="none" stroke="#7c3aed" stroke-width="2.4" marker-end="url(#arrowA)" d="M 788.0,342.0 L 788.0,362.4 L 143.0,393.6 L 143.0,414.0"/><path fill="none" stroke="#7c3aed" stroke-width="2.4" marker-end="url(#arrowA)" d="M 788.0,342.0 L 788.0,362.4 L 354.0,393.6 L 354.0,414.0"/><path fill="none" stroke="#7c3aed" stroke-width="2.4" marker-end="url(#arrowA)" d="M 788.0,342.0 L 788.0,362.4 L 579.0,393.6 L 579.0,414.0"/><path fill="none" stroke="#7c3aed" stroke-width="2.4" marker-end="url(#arrowA)" d="M 788.0,342.0 L 788.0,362.4 L 804.0,393.6 L 804.0,414.0"/><path fill="none" stroke="#7c3aed" stroke-width="2.4" marker-end="url(#arrowA)" d="M 788.0,342.0 L 788.0,362.4 L 1014.0,393.6 L 1014.0,414.0"/><path fill="none" stroke="#7c3aed" stroke-width="2.4" marker-end="url(#arrowA)" d="M 788.0,342.0 L 788.0,362.4 L 1224.0,393.6 L 1224.0,414.0"/><path fill="none" stroke="#7c3aed" stroke-width="2.4" marker-end="url(#arrowA)" d="M 788.0,342.0 L 788.0,362.4 L 1434.0,393.6 L 1434.0,414.0"/><path fill="none" stroke="#7c3aed" stroke-width="2.4" marker-end="url(#arrowA)" d="M 143.0,472.0 L 143.0,492.4 L 164.5,523.6 L 164.5,544.0"/><path fill="none" stroke="#7c3aed" stroke-width="2.4" marker-end="url(#arrowA)" d="M 354.0,472.0 L 354.0,492.4 L 411.5,529.6 L 411.5,550.0"/><path fill="none" stroke="#7c3aed" stroke-width="2.4" marker-end="url(#arrowA)" d="M 579.0,472.0 L 579.0,492.4 L 654.0,523.6 L 654.0,544.0"/><path fill="none" stroke="#7c3aed" stroke-width="2.4" marker-end="url(#arrowA)" d="M 804.0,472.0 L 804.0,492.4 L 889.5,523.6 L 889.5,544.0"/><path fill="none" stroke="#7c3aed" stroke-width="2.4" marker-end="url(#arrowA)" d="M 1014.0,472.0 L 1014.0,492.4 L 1157.5,523.6 L 1157.5,544.0"/><path fill="none" stroke="#7c3aed" stroke-width="2.4" marker-end="url(#arrowA)" d="M 1224.0,472.0 L 1224.0,492.4 L 1408.0,523.6 L 1408.0,544.0"/><rect width="164" height="58" x="706" y="154" fill="#eff6ff" stroke="#bfdbfe" stroke-width="1.8" rx="10"/><text x="788" y="183" class="node-title" text-anchor="middle">任务提交</text><rect width="164" height="58" x="706" y="284" fill="#f0fdf4" stroke="#bbf7d0" stroke-width="1.8" rx="10"/><text x="788" y="313" class="node-title" text-anchor="middle">Workload 分类</text><rect width="166" height="58" x="60" y="414" fill="#fff7ed" stroke="#fed7aa" stroke-width="1.8" rx="10"/><text x="143" y="443" class="node-title" text-anchor="middle">Online Inference</text><rect width="164" height="58" x="272" y="414" fill="#faf5ff" stroke="#e9d5ff" stroke-width="1.8" rx="10"/><text x="354" y="443" class="node-title" text-anchor="middle">Batch Inference</text><rect width="194" height="58" x="482" y="414" fill="#f0fdfa" stroke="#99f6e4" stroke-width="1.8" rx="10"/><text x="579" y="443" class="node-title" text-anchor="middle">Distributed Training</text><rect width="164" height="58" x="722" y="414" fill="#f8fafc" stroke="#cbd5e1" stroke-width="1.8" rx="10"/><text x="804" y="443" class="node-title" text-anchor="middle">Fine-tuning</text><rect width="164" height="58" x="932" y="414" fill="#eff6ff" stroke="#bfdbfe" stroke-width="1.8" rx="10"/><text x="1014" y="443" class="node-title" text-anchor="middle">Evaluation</text><rect width="164" height="58" x="1142" y="414" fill="#f0fdf4" stroke="#bbf7d0" stroke-width="1.8" rx="10"/><text x="1224" y="443" class="node-title" text-anchor="middle">Data Processing</text><rect width="164" height="58" x="1352" y="414" fill="#fff7ed" stroke="#fed7aa" stroke-width="1.8" rx="10"/><text x="1434" y="443" class="node-title" text-anchor="middle">HPC-style Job</text><rect width="173" height="70" x="78" y="544" fill="#faf5ff" stroke="#e9d5ff" stroke-width="1.8" rx="10"/><text x="164.5" y="579" class="node-title" text-anchor="middle">SLO / autoscaling</text><text x="164.5" y="601" class="node-sub" text-anchor="middle">routing</text><rect width="229" height="58" x="297" y="550" fill="#f0fdfa" stroke="#99f6e4" stroke-width="1.8" rx="10"/><text x="411.5" y="579" class="node-title" text-anchor="middle">queue / throughput / cost</text><rect width="164" height="70" x="572" y="544" fill="#f8fafc" stroke="#cbd5e1" stroke-width="1.8" rx="10"/><text x="654" y="579" class="node-title" text-anchor="middle">gang / topology</text><text x="654" y="601" class="node-sub" text-anchor="middle">checkpoint</text><rect width="215" height="70" x="782" y="544" fill="#eff6ff" stroke="#bfdbfe" stroke-width="1.8" rx="10"/><text x="889.5" y="579" class="node-title" text-anchor="middle">tenant / data isolation</text><text x="889.5" y="601" class="node-sub" text-anchor="middle">registry</text><rect width="229" height="70" x="1043" y="544" fill="#f0fdf4" stroke="#bbf7d0" stroke-width="1.8" rx="10"/><text x="1157.5" y="579" class="node-title" text-anchor="middle">versioned model / dataset</text><text x="1157.5" y="601" class="node-sub" text-anchor="middle">report</text><rect width="180" height="70" x="1318" y="544" fill="#fff7ed" stroke="#fed7aa" stroke-width="1.8" rx="10"/><text x="1408" y="579" class="node-title" text-anchor="middle">storage / pipeline</text><text x="1408" y="601" class="node-sub" text-anchor="middle">freshness</text><text x="1296" y="734" class="footnote">Rendered with fireworks-tech-graph</text></svg>