<svg xmlns="http://www.w3.org/2000/svg" width="1433" height="880" viewBox="0 0 1433 880"><defs><marker id="arrowA" markerHeight="7" markerWidth="10" orient="auto" refX="9" refY="3.5"><polygon fill="#7c3aed" points="0 0 10 3.5 0 7"/></marker><marker id="arrowB" markerHeight="7" markerWidth="10" orient="auto" refX="9" refY="3.5"><polygon fill="#10b981" points="0 0 10 3.5 0 7"/></marker><marker id="arrowC" markerHeight="7" markerWidth="10" orient="auto" refX="9" refY="3.5"><polygon fill="#2563eb" points="0 0 10 3.5 0 7"/></marker><marker id="arrowE" markerHeight="7" markerWidth="10" orient="auto" refX="9" refY="3.5"><polygon fill="#f97316" points="0 0 10 3.5 0 7"/></marker><marker id="arrowF" markerHeight="7" markerWidth="10" orient="auto" refX="9" refY="3.5"><polygon fill="#7c3aed" points="0 0 10 3.5 0 7"/></marker><marker id="arrowG" markerHeight="7" markerWidth="10" orient="auto" refX="9" refY="3.5"><polygon fill="#ef4444" points="0 0 10 3.5 0 7"/></marker><marker id="arrowH" markerHeight="7" markerWidth="10" orient="auto" refX="9" refY="3.5"><polygon fill="#6b7280" points="0 0 10 3.5 0 7"/></marker><filter id="shadowSoft" width="140%" height="160%" x="-20%" y="-20%"><feDropShadow dx="0" dy="3" flood-color="#0f172a" flood-opacity=".12" stdDeviation="6"/></filter><filter id="shadowGlass" width="140%" height="160%" x="-20%" y="-20%"><feDropShadow dx="0" dy="10" flood-color="#020617" flood-opacity=".28" stdDeviation="16"/></filter><style>text{font-family:&apos;Helvetica Neue&apos;,Helvetica,Arial,&apos;PingFang SC&apos;,&apos;Microsoft YaHei&apos;,&apos;Microsoft JhengHei&apos;,&apos;SimHei&apos;,sans-serif}.title{font-size:30px;font-weight:700;fill:#111827}.subtitle{font-size:14px;font-weight:500;fill:#6b7280}.node-title{font-size:18px;font-weight:700;fill:#111827}.footnote,.node-sub{font-size:12px;font-weight:500}.node-sub{fill:#6b7280}.footnote{fill:#94a3b8}</style></defs><rect width="1433" height="880" fill="#fff"/><text x="716.5" y="56" class="title" text-anchor="middle">27.2.2 系统架构</text><text x="716.5" y="82" class="subtitle" text-anchor="middle">part-06-gpu-iaas/chapter-27-gpu-virtualization-isolation.md:76</text><path fill="none" stroke="#7c3aed" stroke-width="2.4" marker-end="url(#arrowA)" d="M 716.5,212.0 L 716.5,284.0"/><path fill="none" stroke="#7c3aed" stroke-width="2.4" marker-end="url(#arrowA)" d="M 716.5,342.0 L 716.5,362.4 L 157.0,399.6 L 157.0,420.0"/><path fill="none" stroke="#7c3aed" stroke-width="2.4" marker-end="url(#arrowA)" d="M 716.5,342.0 L 716.5,362.4 L 400.5,399.6 L 400.5,420.0"/><path fill="none" stroke="#7c3aed" stroke-width="2.4" marker-end="url(#arrowA)" d="M 716.5,342.0 L 716.5,362.4 L 629.0,399.6 L 629.0,420.0"/><path fill="none" stroke="#7c3aed" stroke-width="2.4" marker-end="url(#arrowA)" d="M 716.5,342.0 L 716.5,362.4 L 839.0,399.6 L 839.0,420.0"/><path fill="none" stroke="#7c3aed" stroke-width="2.4" marker-end="url(#arrowA)" d="M 716.5,342.0 L 716.5,362.4 L 1060.5,393.6 L 1060.5,414.0"/><path fill="none" stroke="#7c3aed" stroke-width="2.4" marker-end="url(#arrowA)" d="M 716.5,342.0 L 716.5,362.4 L 1286.5,399.6 L 1286.5,420.0"/><path fill="none" stroke="#7c3aed" stroke-width="2.4" marker-end="url(#arrowA)" d="M 157.0,478.0 L 157.0,498.4 L 716.5,535.6 L 716.5,556.0"/><path fill="none" stroke="#7c3aed" stroke-width="2.4" marker-end="url(#arrowA)" d="M 400.5,478.0 L 400.5,498.4 L 716.5,535.6 L 716.5,556.0"/><path fill="none" stroke="#7c3aed" stroke-width="2.4" marker-end="url(#arrowA)" d="M 629.0,478.0 L 629.0,498.4 L 716.5,535.6 L 716.5,556.0"/><path fill="none" stroke="#7c3aed" stroke-width="2.4" marker-end="url(#arrowA)" d="M 839.0,478.0 L 839.0,498.4 L 716.5,535.6 L 716.5,556.0"/><path fill="none" stroke="#7c3aed" stroke-width="2.4" marker-end="url(#arrowA)" d="M 1060.5,484.0 L 1060.5,504.4 L 716.5,535.6 L 716.5,556.0"/><path fill="none" stroke="#7c3aed" stroke-width="2.4" marker-end="url(#arrowA)" d="M 1286.5,478.0 L 1286.5,498.4 L 716.5,535.6 L 716.5,556.0"/><path fill="none" stroke="#7c3aed" stroke-width="2.4" marker-end="url(#arrowA)" d="M 716.5,614.0 L 716.5,686.0"/><rect width="164" height="58" x="634.5" y="154" fill="#eff6ff" stroke="#bfdbfe" stroke-width="1.8" rx="10"/><text x="716.5" y="183" class="node-title" text-anchor="middle">租户 / workload</text><rect width="180" height="58" x="626.5" y="284" fill="#f0fdf4" stroke="#bbf7d0" stroke-width="1.8" rx="10"/><text x="716.5" y="313" class="node-title" text-anchor="middle">GPU resource class</text><rect width="194" height="58" x="60" y="420" fill="#fff7ed" stroke="#fed7aa" stroke-width="1.8" rx="10"/><text x="157" y="449" class="node-title" text-anchor="middle">bare metal dedicated</text><rect width="201" height="58" x="300" y="420" fill="#faf5ff" stroke="#e9d5ff" stroke-width="1.8" rx="10"/><text x="400.5" y="449" class="node-title" text-anchor="middle">VM + PCIe passthrough</text><rect width="164" height="58" x="547" y="420" fill="#f0fdfa" stroke="#99f6e4" stroke-width="1.8" rx="10"/><text x="629" y="449" class="node-title" text-anchor="middle">MIG instance</text><rect width="164" height="58" x="757" y="420" fill="#f8fafc" stroke="#cbd5e1" stroke-width="1.8" rx="10"/><text x="839" y="449" class="node-title" text-anchor="middle">vGPU profile</text><rect width="187" height="70" x="967" y="414" fill="#eff6ff" stroke="#bfdbfe" stroke-width="1.8" rx="10"/><text x="1060.5" y="449" class="node-title" text-anchor="middle">container full-card</text><text x="1060.5" y="471" class="node-sub" text-anchor="middle">shared</text><rect width="173" height="58" x="1200" y="420" fill="#f0fdf4" stroke="#bbf7d0" stroke-width="1.8" rx="10"/><text x="1286.5" y="449" class="node-title" text-anchor="middle">remote GPU access</text><rect width="164" height="58" x="634.5" y="556" fill="#fff7ed" stroke="#fed7aa" stroke-width="1.8" rx="10"/><text x="716.5" y="585" class="node-title" text-anchor="middle">SLA / 安全 / 计费</text><rect width="164" height="58" x="634.5" y="686" fill="#faf5ff" stroke="#e9d5ff" stroke-width="1.8" rx="10"/><text x="716.5" y="715" class="node-title" text-anchor="middle">监控 / 审计 / 成本</text><text x="1153" y="864" class="footnote">Rendered with fireworks-tech-graph</text></svg>