<svg xmlns="http://www.w3.org/2000/svg" width="2064" height="404" viewBox="0 0 2064 404"><defs><marker id="arrowA" markerHeight="7" markerWidth="10" orient="auto" refX="9" refY="3.5"><polygon fill="#7c3aed" points="0 0 10 3.5 0 7"/></marker><marker id="arrowB" markerHeight="7" markerWidth="10" orient="auto" refX="9" refY="3.5"><polygon fill="#10b981" points="0 0 10 3.5 0 7"/></marker><marker id="arrowC" markerHeight="7" markerWidth="10" orient="auto" refX="9" refY="3.5"><polygon fill="#2563eb" points="0 0 10 3.5 0 7"/></marker><marker id="arrowE" markerHeight="7" markerWidth="10" orient="auto" refX="9" refY="3.5"><polygon fill="#f97316" points="0 0 10 3.5 0 7"/></marker><marker id="arrowF" markerHeight="7" markerWidth="10" orient="auto" refX="9" refY="3.5"><polygon fill="#7c3aed" points="0 0 10 3.5 0 7"/></marker><marker id="arrowG" markerHeight="7" markerWidth="10" orient="auto" refX="9" refY="3.5"><polygon fill="#ef4444" points="0 0 10 3.5 0 7"/></marker><marker id="arrowH" markerHeight="7" markerWidth="10" orient="auto" refX="9" refY="3.5"><polygon fill="#6b7280" points="0 0 10 3.5 0 7"/></marker><filter id="shadowSoft" width="140%" height="160%" x="-20%" y="-20%"><feDropShadow dx="0" dy="3" flood-color="#0f172a" flood-opacity=".12" stdDeviation="6"/></filter><filter id="shadowGlass" width="140%" height="160%" x="-20%" y="-20%"><feDropShadow dx="0" dy="10" flood-color="#020617" flood-opacity=".28" stdDeviation="16"/></filter><style>text{font-family:&apos;Helvetica Neue&apos;,Helvetica,Arial,&apos;PingFang SC&apos;,&apos;Microsoft YaHei&apos;,&apos;Microsoft JhengHei&apos;,&apos;SimHei&apos;,sans-serif}.title{font-size:30px;font-weight:700;fill:#111827}.subtitle{font-size:14px;font-weight:500;fill:#6b7280}.node-title{font-size:18px;font-weight:700;fill:#111827}.footnote,.node-sub{font-size:12px;font-weight:500}.node-sub{fill:#6b7280}.footnote{fill:#94a3b8}</style></defs><rect width="2064" height="404" fill="#fff"/><text x="1032" y="56" class="title" text-anchor="middle">37.3.9 distributed tracing</text><text x="1032" y="82" class="subtitle" text-anchor="middle">part-09-reliability-observability/chapter-37-ai-factory-observability.md:515</text><path fill="none" stroke="#7c3aed" stroke-width="2.4" marker-end="url(#arrowA)" d="M 260.0,211.0 L 280.4,211.0 L 311.6,217.0 L 332.0,217.0"/><path fill="none" stroke="#7c3aed" stroke-width="2.4" marker-end="url(#arrowA)" d="M 631.0,217.0 L 651.4,217.0 L 682.6,211.0 L 703.0,211.0"/><path fill="none" stroke="#7c3aed" stroke-width="2.4" marker-end="url(#arrowA)" d="M 925.0,211.0 L 945.4,211.0 L 976.6,217.0 L 997.0,217.0"/><path fill="none" stroke="#7c3aed" stroke-width="2.4" marker-end="url(#arrowA)" d="M 1198.0,217.0 L 1218.4,217.0 L 1249.6,161.0 L 1270.0,161.0"/><path fill="none" stroke="#7c3aed" stroke-width="2.4" marker-end="url(#arrowA)" d="M 1198.0,217.0 L 1218.4,217.0 L 1254.1,273.0 L 1274.5,273.0"/><path fill="none" stroke="#7c3aed" stroke-width="2.4" marker-end="url(#arrowA)" d="M 1443.0,161.0 L 1463.4,161.0 L 1494.6,211.0 L 1515.0,211.0"/><path fill="none" stroke="#7c3aed" stroke-width="2.4" marker-end="url(#arrowA)" d="M 1438.5,273.0 L 1458.9,273.0 L 1494.6,211.0 L 1515.0,211.0"/><path fill="none" stroke="#7c3aed" stroke-width="2.4" marker-end="url(#arrowA)" d="M 1688.0,211.0 L 1760.0,211.0"/><rect width="164" height="58" x="96" y="182" fill="#eff6ff" stroke="#bfdbfe" stroke-width="1.8" rx="10"/><text x="178" y="211" class="node-title" text-anchor="middle">raw telemetry</text><rect width="299" height="70" x="332" y="182" fill="#f0fdf4" stroke="#bbf7d0" stroke-width="1.8" rx="10"/><text x="481.5" y="217" class="node-title" text-anchor="middle">classify</text><text x="481.5" y="239" class="node-sub" text-anchor="middle">prompt / response / infra / billing</text><rect width="222" height="58" x="703" y="182" fill="#fff7ed" stroke="#fed7aa" stroke-width="1.8" rx="10"/><text x="814" y="211" class="node-title" text-anchor="middle">redact / tokenize / hash</text><rect width="201" height="70" x="997" y="182" fill="#faf5ff" stroke="#e9d5ff" stroke-width="1.8" rx="10"/><text x="1097.5" y="217" class="node-title" text-anchor="middle">tiered storage</text><text x="1097.5" y="239" class="node-sub" text-anchor="middle">hot / cold / evidence</text><rect width="173" height="70" x="1270" y="126" fill="#f0fdfa" stroke="#99f6e4" stroke-width="1.8" rx="10"/><text x="1356.5" y="161" class="node-title" text-anchor="middle">tenant view</text><text x="1356.5" y="183" class="node-sub" text-anchor="middle">own workload only</text><rect width="164" height="70" x="1274.5" y="238" fill="#f8fafc" stroke="#cbd5e1" stroke-width="1.8" rx="10"/><text x="1356.5" y="273" class="node-title" text-anchor="middle">admin view</text><text x="1356.5" y="295" class="node-sub" text-anchor="middle">need-to-know</text><rect width="173" height="58" x="1515" y="182" fill="#eff6ff" stroke="#bfdbfe" stroke-width="1.8" rx="10"/><text x="1601.5" y="211" class="node-title" text-anchor="middle">query_audit_event</text><rect width="208" height="58" x="1760" y="182" fill="#f0fdf4" stroke="#bbf7d0" stroke-width="1.8" rx="10"/><text x="1864" y="211" class="node-title" text-anchor="middle">periodic access review</text><text x="1784" y="388" class="footnote">Rendered with fireworks-tech-graph</text></svg>