<svg xmlns="http://www.w3.org/2000/svg" width="1272" height="1354" viewBox="0 0 1272 1354"><defs><marker id="arrowA" markerHeight="7" markerWidth="10" orient="auto" refX="9" refY="3.5"><polygon fill="#7c3aed" points="0 0 10 3.5 0 7"/></marker><marker id="arrowB" markerHeight="7" markerWidth="10" orient="auto" refX="9" refY="3.5"><polygon fill="#10b981" points="0 0 10 3.5 0 7"/></marker><marker id="arrowC" markerHeight="7" markerWidth="10" orient="auto" refX="9" refY="3.5"><polygon fill="#2563eb" points="0 0 10 3.5 0 7"/></marker><marker id="arrowE" markerHeight="7" markerWidth="10" orient="auto" refX="9" refY="3.5"><polygon fill="#f97316" points="0 0 10 3.5 0 7"/></marker><marker id="arrowF" markerHeight="7" markerWidth="10" orient="auto" refX="9" refY="3.5"><polygon fill="#7c3aed" points="0 0 10 3.5 0 7"/></marker><marker id="arrowG" markerHeight="7" markerWidth="10" orient="auto" refX="9" refY="3.5"><polygon fill="#ef4444" points="0 0 10 3.5 0 7"/></marker><marker id="arrowH" markerHeight="7" markerWidth="10" orient="auto" refX="9" refY="3.5"><polygon fill="#6b7280" points="0 0 10 3.5 0 7"/></marker><filter id="shadowSoft" width="140%" height="160%" x="-20%" y="-20%"><feDropShadow dx="0" dy="3" flood-color="#0f172a" flood-opacity=".12" stdDeviation="6"/></filter><filter id="shadowGlass" width="140%" height="160%" x="-20%" y="-20%"><feDropShadow dx="0" dy="10" flood-color="#020617" flood-opacity=".28" stdDeviation="16"/></filter><style>text{font-family:&apos;Helvetica Neue&apos;,Helvetica,Arial,&apos;PingFang SC&apos;,&apos;Microsoft YaHei&apos;,&apos;Microsoft JhengHei&apos;,&apos;SimHei&apos;,sans-serif}.title{font-size:30px;font-weight:700;fill:#111827}.subtitle{font-size:14px;font-weight:500;fill:#6b7280}.section{font-size:13px;font-weight:700;fill:#2563eb;letter-spacing:1.4px}.node-title{font-size:18px;font-weight:700;fill:#111827}.footnote,.node-sub{font-size:12px;font-weight:500}.node-sub{fill:#6b7280}.footnote{fill:#94a3b8}</style></defs><rect width="1272" height="1354" fill="#fff"/><text x="636" y="56" class="title" text-anchor="middle">1. 一张图串起全书</text><text x="636" y="82" class="subtitle" text-anchor="middle">system-map.md:9</text><rect width="781" height="284" x="92.5" y="106" fill="none" stroke="#dbe5f1" stroke-dasharray="6 5" stroke-width="1.4" rx="16"/><text x="110.5" y="130" class="section">目标与需求</text><rect width="1143.5" height="284" x="36" y="248" fill="none" stroke="#dbe5f1" stroke-dasharray="6 5" stroke-width="1.4" rx="16"/><text x="54" y="272" class="section">生产路径</text><rect width="403" height="710" x="332" y="390" fill="none" stroke="#dbe5f1" stroke-dasharray="6 5" stroke-width="1.4" rx="16"/><text x="350" y="414" class="section">资源与基础设施</text><rect width="717.5" height="1136" x="518.5" y="106" fill="none" stroke="#dbe5f1" stroke-dasharray="6 5" stroke-width="1.4" rx="16"/><text x="536.5" y="130" class="section">证据、SRE 与治理</text><path fill="none" stroke="#7c3aed" stroke-width="2.4" marker-end="url(#arrowA)" d="M 265.5,224.0 L 265.5,230.0 L 539.5,230.0 L 539.5,296.0"/><path fill="none" stroke="#7c3aed" stroke-width="2.4" marker-end="url(#arrowA)" d="M 265.5,224.0 L 265.5,248.0 L 965.5,248.0 L 965.5,296.0"/><path fill="none" stroke="#7c3aed" stroke-width="2.4" marker-end="url(#arrowA)" d="M 498.5,224.0 L 498.5,230.0 L 812.0,230.0 L 812.0,580.0"/><path fill="none" stroke="#7c3aed" stroke-width="2.4" marker-end="url(#arrowA)" d="M 498.5,224.0 L 498.5,230.0 L 210.0,230.0 L 210.0,296.0"/><path fill="none" stroke="#7c3aed" stroke-width="2.4" marker-end="url(#arrowA)" d="M 210.0,366.0 L 210.0,386.4 L 1115.0,417.6 L 1115.0,438.0"/><path fill="none" stroke="#7c3aed" stroke-width="2.4" marker-end="url(#arrowA)" d="M 749.0,224.0 L 749.0,230.0 L 1115.0,230.0 L 1115.0,438.0"/><path fill="none" stroke="#7c3aed" stroke-width="2.4" marker-end="url(#arrowA)" d="M 992.5,224.0 L 992.5,230.0 L 1115.0,230.0 L 1115.0,438.0"/><path fill="none" stroke="#7c3aed" stroke-width="2.4" marker-end="url(#arrowA)" d="M 539.5,366.0 L 539.5,372.0 L 572.0,372.0 L 572.0,438.0"/><path fill="none" stroke="#7c3aed" stroke-width="2.4" marker-end="url(#arrowA)" d="M 572.0,508.0 L 572.0,528.4 L 516.0,559.6 L 516.0,580.0"/><path fill="none" stroke="#7c3aed" stroke-width="2.4" marker-end="url(#arrowA)" d="M 516.0,650.0 L 516.0,670.4 L 512.5,701.6 L 512.5,722.0"/><path fill="none" stroke="#7c3aed" stroke-width="2.4" marker-end="url(#arrowA)" d="M 512.5,792.0 L 512.5,812.4 L 531.0,843.6 L 531.0,864.0"/><path fill="none" stroke="#7c3aed" stroke-width="2.4" marker-end="url(#arrowA)" d="M 531.0,934.0 L 531.0,1006.0"/><path fill="none" stroke="#7c3aed" stroke-width="2.4" marker-end="url(#arrowA)" d="M 965.5,366.0 L 965.5,390.0 L 572.0,390.0 L 572.0,438.0"/><path fill="none" stroke="#7c3aed" stroke-width="2.4" marker-end="url(#arrowA)" d="M 965.5,366.0 L 965.5,386.4 L 223.5,417.6 L 223.5,438.0"/><path fill="none" stroke="#7c3aed" stroke-width="2.4" marker-end="url(#arrowA)" d="M 223.5,508.0 L 223.5,528.4 L 531.0,843.6 L 531.0,864.0"/><path fill="none" stroke="#7c3aed" stroke-width="2.4" marker-end="url(#arrowA)" d="M 531.0,1076.0 L 531.0,1096.4 L 636.0,1127.6 L 636.0,1148.0"/><path fill="none" stroke="#7c3aed" stroke-width="2.4" marker-end="url(#arrowA)" d="M 542.5,1183.0 L 370.5,1183.0 L 370.5,757.0 L 356.0,757.0"/><path fill="none" stroke="#7c3aed" stroke-width="2.4" marker-end="url(#arrowA)" d="M 512.5,792.0 L 512.5,812.4 L 777.0,843.6 L 777.0,864.0"/><path fill="none" stroke="#7c3aed" stroke-width="2.4" marker-end="url(#arrowA)" d="M 572.0,508.0 L 572.0,528.4 L 777.0,843.6 L 777.0,864.0"/><path fill="none" stroke="#7c3aed" stroke-width="2.4" marker-end="url(#arrowA)" d="M 539.5,366.0 L 539.5,372.0 L 864.5,372.0 L 864.5,438.0"/><path fill="none" stroke="#7c3aed" stroke-width="2.4" marker-end="url(#arrowA)" d="M 864.5,508.0 L 864.5,528.4 L 794.5,985.6 L 794.5,1006.0"/><path fill="none" stroke="#7c3aed" stroke-width="2.4" marker-end="url(#arrowA)" d="M 864.5,508.0 L 864.5,528.4 L 812.0,559.6 L 812.0,580.0"/><path fill="none" stroke="#7c3aed" stroke-width="2.4" marker-end="url(#arrowA)" d="M 539.5,366.0 L 539.5,372.0 L 812.0,372.0 L 812.0,580.0"/><path fill="none" stroke="#7c3aed" stroke-width="2.4" marker-end="url(#arrowA)" d="M 965.5,366.0 L 965.5,386.4 L 812.0,559.6 L 812.0,580.0"/><path fill="none" stroke="#7c3aed" stroke-width="2.4" marker-end="url(#arrowA)" d="M 812.0,650.0 L 812.0,670.4 L 815.5,701.6 L 815.5,722.0"/><path fill="none" stroke="#7c3aed" stroke-width="2.4" marker-end="url(#arrowA)" d="M 715.0,757.0 L 694.6,757.0 L 374.1,189.0 L 394.5,189.0"/><path fill="none" stroke="#7c3aed" stroke-width="2.4" marker-end="url(#arrowA)" d="M 777.0,934.0 L 777.0,954.4 L 794.5,985.6 L 794.5,1006.0"/><path fill="none" stroke="#7c3aed" stroke-width="2.4" marker-end="url(#arrowA)" d="M 712.5,1041.0 L 692.1,1041.0 L 628.1,189.0 L 648.5,189.0"/><path fill="none" stroke="#7c3aed" stroke-width="2.4" marker-end="url(#arrowA)" d="M 715.0,615.0 L 694.6,615.0 L 374.1,189.0 L 394.5,189.0"/><path fill="none" stroke="#7c3aed" stroke-width="2.4" marker-end="url(#arrowA)" d="M 1018.0,473.0 L 997.6,473.0 L 329.1,331.0 L 349.5,331.0"/><rect width="166" height="70" x="182.5" y="154" fill="#eff6ff" stroke="#bfdbfe" stroke-width="1.8" rx="10"/><text x="265.5" y="189" class="node-title" text-anchor="middle">workload_profile</text><text x="265.5" y="211" class="node-sub" text-anchor="middle">应用如何消耗能力</text><rect width="208" height="70" x="394.5" y="154" fill="#f0fdf4" stroke="#bbf7d0" stroke-width="1.8" rx="10"/><text x="498.5" y="189" class="node-title" text-anchor="middle">business_model_profile</text><text x="498.5" y="211" class="node-sub" text-anchor="middle">商业模式与结算</text><rect width="201" height="70" x="648.5" y="154" fill="#faf5ff" stroke="#e9d5ff" stroke-width="1.8" rx="10"/><text x="749" y="189" class="node-title" text-anchor="middle">ai_factory_build_plan</text><text x="749" y="211" class="node-sub" text-anchor="middle">建设阶段与停止条件</text><rect width="194" height="70" x="895.5" y="154" fill="#eff6ff" stroke="#bfdbfe" stroke-width="1.8" rx="10"/><text x="992.5" y="189" class="node-title" text-anchor="middle">launch_risk_register</text><text x="992.5" y="211" class="node-sub" text-anchor="middle">上线风险登记</text><rect width="187" height="70" x="116.5" y="296" fill="#fff7ed" stroke="#fed7aa" stroke-width="1.8" rx="10"/><text x="210" y="331" class="node-title" text-anchor="middle">customer_onboarding</text><text x="210" y="353" class="node-sub" text-anchor="middle">evidence / 客户接入证据</text><rect width="380" height="70" x="349.5" y="296" fill="#f0fdfa" stroke="#99f6e4" stroke-width="1.8" rx="10"/><text x="539.5" y="331" class="node-title" text-anchor="middle">推理请求链路</text><text x="539.5" y="353" class="node-sub" text-anchor="middle">Gateway -&gt; Serving -&gt; Runtime -&gt; GPU -&gt; Billing</text><rect width="380" height="70" x="775.5" y="296" fill="#f8fafc" stroke="#cbd5e1" stroke-width="1.8" rx="10"/><text x="965.5" y="331" class="node-title" text-anchor="middle">训练任务链路</text><text x="965.5" y="353" class="node-sub" text-anchor="middle">Queue -&gt; Gang -&gt; NCCL -&gt; Checkpoint -&gt; Registry</text><rect width="327" height="70" x="60" y="438" fill="#eff6ff" stroke="#bfdbfe" stroke-width="1.8" rx="10"/><text x="223.5" y="473" class="node-title" text-anchor="middle">数据链路</text><text x="223.5" y="495" class="node-sub" text-anchor="middle">Dataset / Artifact / Cache / Checkpoint</text><rect width="278" height="70" x="433" y="438" fill="#f0fdf4" stroke="#bbf7d0" stroke-width="1.8" rx="10"/><text x="572" y="473" class="node-title" text-anchor="middle">AI Runtime</text><text x="572" y="495" class="node-sub" text-anchor="middle">CUDA / NCCL / Engine / Framework</text><rect width="215" height="70" x="757" y="438" fill="#f0fdf4" stroke="#bbf7d0" stroke-width="1.8" rx="10"/><text x="864.5" y="473" class="node-title" text-anchor="middle">quality_evidence_bundle</text><text x="864.5" y="495" class="node-sub" text-anchor="middle">质量证据包</text><rect width="194" height="70" x="1018" y="438" fill="#f0fdf4" stroke="#bbf7d0" stroke-width="1.8" rx="10"/><text x="1115" y="473" class="node-title" text-anchor="middle">production_readiness</text><text x="1115" y="495" class="node-sub" text-anchor="middle">review / 上线门禁</text><rect width="306" height="70" x="363" y="580" fill="#fff7ed" stroke="#fed7aa" stroke-width="1.8" rx="10"/><text x="516" y="615" class="node-title" text-anchor="middle">Orchestration</text><text x="516" y="637" class="node-sub" text-anchor="middle">Kubernetes / Slurm / Kueue / Volcano</text><rect width="194" height="70" x="715" y="580" fill="#f0fdfa" stroke="#99f6e4" stroke-width="1.8" rx="10"/><text x="812" y="615" class="node-title" text-anchor="middle">Token Factory ledger</text><text x="812" y="637" class="node-sub" text-anchor="middle">经济账本 / 成本与价值</text><rect width="313" height="70" x="356" y="722" fill="#faf5ff" stroke="#e9d5ff" stroke-width="1.8" rx="10"/><text x="512.5" y="757" class="node-title" text-anchor="middle">GPU Resource Pool</text><text x="512.5" y="779" class="node-sub" text-anchor="middle">health / quota / topology / isolation</text><rect width="201" height="70" x="715" y="722" fill="#f8fafc" stroke="#cbd5e1" stroke-width="1.8" rx="10"/><text x="815.5" y="757" class="node-title" text-anchor="middle">commercial_pnl_ledger</text><text x="815.5" y="779" class="node-sub" text-anchor="middle">商业 P&amp;L</text><rect width="236" height="70" x="413" y="864" fill="#f0fdfa" stroke="#99f6e4" stroke-width="1.8" rx="10"/><text x="531" y="899" class="node-title" text-anchor="middle">Network &amp; Storage</text><text x="531" y="921" class="node-sub" text-anchor="middle">NVLink / RDMA / PFS / NVMe</text><rect width="164" height="70" x="695" y="864" fill="#fff7ed" stroke="#fed7aa" stroke-width="1.8" rx="10"/><text x="777" y="899" class="node-title" text-anchor="middle">telemetry_event</text><text x="777" y="921" class="node-sub" text-anchor="middle">观测事实</text><rect width="271" height="70" x="395.5" y="1006" fill="#f8fafc" stroke="#cbd5e1" stroke-width="1.8" rx="10"/><text x="531" y="1041" class="node-title" text-anchor="middle">Physical</text><text x="531" y="1063" class="node-sub" text-anchor="middle">rack / power / cooling / server</text><rect width="164" height="70" x="712.5" y="1006" fill="#faf5ff" stroke="#e9d5ff" stroke-width="1.8" rx="10"/><text x="794.5" y="1041" class="node-title" text-anchor="middle">incident_record</text><text x="794.5" y="1063" class="node-sub" text-anchor="middle">故障复盘</text><rect width="187" height="70" x="542.5" y="1148" fill="#eff6ff" stroke="#bfdbfe" stroke-width="1.8" rx="10"/><text x="636" y="1183" class="node-title" text-anchor="middle">acceptance_baseline</text><text x="636" y="1205" class="node-sub" text-anchor="middle">准入与验收</text><text x="992" y="1338" class="footnote">Rendered with fireworks-tech-graph</text></svg>