<svg xmlns="http://www.w3.org/2000/svg" viewBox="0 0 1151 670" width="1151" height="670">
  <defs>
    <marker id="arrowA" markerWidth="10" markerHeight="7" refX="9" refY="3.5" orient="auto">
      <polygon points="0 0, 10 3.5, 0 7" fill="#7c3aed"/>
    </marker>
    <marker id="arrowB" markerWidth="10" markerHeight="7" refX="9" refY="3.5" orient="auto">
      <polygon points="0 0, 10 3.5, 0 7" fill="#10b981"/>
    </marker>
    <marker id="arrowC" markerWidth="10" markerHeight="7" refX="9" refY="3.5" orient="auto">
      <polygon points="0 0, 10 3.5, 0 7" fill="#2563eb"/>
    </marker>
    <marker id="arrowE" markerWidth="10" markerHeight="7" refX="9" refY="3.5" orient="auto">
      <polygon points="0 0, 10 3.5, 0 7" fill="#f97316"/>
    </marker>
    <marker id="arrowF" markerWidth="10" markerHeight="7" refX="9" refY="3.5" orient="auto">
      <polygon points="0 0, 10 3.5, 0 7" fill="#7c3aed"/>
    </marker>
    <marker id="arrowG" markerWidth="10" markerHeight="7" refX="9" refY="3.5" orient="auto">
      <polygon points="0 0, 10 3.5, 0 7" fill="#ef4444"/>
    </marker>
    <marker id="arrowH" markerWidth="10" markerHeight="7" refX="9" refY="3.5" orient="auto">
      <polygon points="0 0, 10 3.5, 0 7" fill="#6b7280"/>
    </marker>
    <filter id="shadowSoft" x="-20%" y="-20%" width="140%" height="160%">
      <feDropShadow dx="0" dy="3" stdDeviation="6" flood-color="#0f172a" flood-opacity="0.12"/>
    </filter>
    <filter id="shadowGlass" x="-20%" y="-20%" width="140%" height="160%">
      <feDropShadow dx="0" dy="10" stdDeviation="16" flood-color="#020617" flood-opacity="0.28"/>
    </filter>
    <style>
    text { font-family: 'Helvetica Neue', Helvetica, Arial, 'PingFang SC', 'Microsoft YaHei', 'Microsoft JhengHei', 'SimHei', sans-serif; }
    .title { font-size: 30px; font-weight: 700; fill: #111827; }
    .subtitle { font-size: 14px; font-weight: 500; fill: #6b7280; }
    .section { font-size: 13px; font-weight: 700; fill: #2563eb; letter-spacing: 1.4px; }
    .section-sub { font-size: 12px; font-weight: 500; fill: #94a3b8; }
    .node-title { font-size: 18px; font-weight: 700; fill: #111827; }
    .node-sub { font-size: 12px; font-weight: 500; fill: #6b7280; }
    .node-type { font-size: 12px; font-weight: 700; fill: #9ca3af; letter-spacing: 0.08em; }
    .arrow-label { font-size: 12px; font-weight: 600; fill: #6b7280; }
    .legend { font-size: 12px; font-weight: 500; fill: #6b7280; }
    .footnote { font-size: 12px; font-weight: 500; fill: #94a3b8; }
    </style>
  </defs>
  <rect width="1151.0" height="670.0" fill="#ffffff"/>
  <text x="575.5" y="56" text-anchor="middle" class="title">3. 两条主线</text>
  <text x="575.5" y="82" text-anchor="middle" class="subtitle">index.md:38</text>
  <rect x="42.0" y="118.0" width="228.0" height="470.0" rx="16.0" fill="#f8fafc" stroke="#dbe5f1" stroke-width="1.4" stroke-dasharray="7 5"/>
  <text x="60.0" y="142.0" class="section">阶段 1</text>
  <text x="60.0" y="162.0" class="section-sub">用户请求 -&gt; 租户限流</text>
  <rect x="308.0" y="118.0" width="228.0" height="470.0" rx="16.0" fill="#ffffff" stroke="#dbe5f1" stroke-width="1.4" stroke-dasharray="7 5"/>
  <text x="326.0" y="142.0" class="section">阶段 2</text>
  <text x="326.0" y="162.0" class="section-sub">模型路由 -&gt; decode</text>
  <rect x="574.0" y="118.0" width="228.0" height="470.0" rx="16.0" fill="#f8fafc" stroke="#dbe5f1" stroke-width="1.4" stroke-dasharray="7 5"/>
  <text x="592.0" y="142.0" class="section">阶段 3</text>
  <text x="592.0" y="162.0" class="section-sub">KV Cache -&gt; GPU / HBM</text>
  <rect x="840.0" y="118.0" width="269.0" height="470.0" rx="16.0" fill="#ffffff" stroke="#dbe5f1" stroke-width="1.4" stroke-dasharray="7 5"/>
  <text x="858.0" y="142.0" class="section">阶段 4</text>
  <text x="858.0" y="162.0" class="section-sub">token streaming -&gt; billing / observability</text>
  <path d="M 156.0,230.0 L 156.0,270.0" fill="none" stroke="#7c3aed" stroke-width="2.4" marker-end="url(#arrowA)"/>
  <path d="M 156.0,328.0 L 156.0,368.0" fill="none" stroke="#7c3aed" stroke-width="2.4" marker-end="url(#arrowA)"/>
  <path d="M 156.0,426.0 L 156.0,466.0" fill="none" stroke="#7c3aed" stroke-width="2.4" marker-end="url(#arrowA)"/>
  <path d="M 238.0,495.0 L 289.0,495.0 L 289.0,201.0 L 340.0,201.0" fill="none" stroke="#7c3aed" stroke-width="2.4" marker-end="url(#arrowA)"/>
  <path d="M 422.0,230.0 L 422.0,270.0" fill="none" stroke="#7c3aed" stroke-width="2.4" marker-end="url(#arrowA)"/>
  <path d="M 422.0,328.0 L 422.0,368.0" fill="none" stroke="#7c3aed" stroke-width="2.4" marker-end="url(#arrowA)"/>
  <path d="M 422.0,426.0 L 422.0,466.0" fill="none" stroke="#7c3aed" stroke-width="2.4" marker-end="url(#arrowA)"/>
  <path d="M 504.0,495.0 L 524.4,495.0 L 585.6,250.0 L 606.0,250.0" fill="none" stroke="#7c3aed" stroke-width="2.4" marker-end="url(#arrowA)"/>
  <path d="M 688.0,279.0 L 688.0,319.0" fill="none" stroke="#7c3aed" stroke-width="2.4" marker-end="url(#arrowA)"/>
  <path d="M 688.0,377.0 L 688.0,417.0" fill="none" stroke="#7c3aed" stroke-width="2.4" marker-end="url(#arrowA)"/>
  <path d="M 770.0,446.0 L 790.4,446.0 L 872.1,250.0 L 892.5,250.0" fill="none" stroke="#7c3aed" stroke-width="2.4" marker-end="url(#arrowA)"/>
  <path d="M 974.5,279.0 L 974.5,319.0" fill="none" stroke="#7c3aed" stroke-width="2.4" marker-end="url(#arrowA)"/>
  <path d="M 974.5,377.0 L 974.5,417.0" fill="none" stroke="#7c3aed" stroke-width="2.4" marker-end="url(#arrowA)"/>
  <rect x="74.0" y="172.0" width="164.0" height="58.0" rx="10.0" fill="#eff6ff" stroke="#bfdbfe" stroke-width="1.8"/>
  <text x="156.0" y="201.0" text-anchor="middle" class="node-title">用户请求</text>
  <rect x="74.0" y="270.0" width="164.0" height="58.0" rx="10.0" fill="#f0fdf4" stroke="#bbf7d0" stroke-width="1.8"/>
  <text x="156.0" y="299.0" text-anchor="middle" class="node-title">AI Gateway</text>
  <rect x="74.0" y="368.0" width="164.0" height="58.0" rx="10.0" fill="#fff7ed" stroke="#fed7aa" stroke-width="1.8"/>
  <text x="156.0" y="397.0" text-anchor="middle" class="node-title">认证鉴权</text>
  <rect x="74.0" y="466.0" width="164.0" height="58.0" rx="10.0" fill="#faf5ff" stroke="#e9d5ff" stroke-width="1.8"/>
  <text x="156.0" y="495.0" text-anchor="middle" class="node-title">租户限流</text>
  <rect x="340.0" y="172.0" width="164.0" height="58.0" rx="10.0" fill="#f0fdfa" stroke="#99f6e4" stroke-width="1.8"/>
  <text x="422.0" y="201.0" text-anchor="middle" class="node-title">模型路由</text>
  <rect x="340.0" y="270.0" width="164.0" height="58.0" rx="10.0" fill="#f8fafc" stroke="#cbd5e1" stroke-width="1.8"/>
  <text x="422.0" y="299.0" text-anchor="middle" class="node-title">推理服务</text>
  <rect x="340.0" y="368.0" width="164.0" height="58.0" rx="10.0" fill="#eff6ff" stroke="#bfdbfe" stroke-width="1.8"/>
  <text x="422.0" y="397.0" text-anchor="middle" class="node-title">prefill</text>
  <rect x="340.0" y="466.0" width="164.0" height="58.0" rx="10.0" fill="#f0fdf4" stroke="#bbf7d0" stroke-width="1.8"/>
  <text x="422.0" y="495.0" text-anchor="middle" class="node-title">decode</text>
  <rect x="606.0" y="221.0" width="164.0" height="58.0" rx="10.0" fill="#fff7ed" stroke="#fed7aa" stroke-width="1.8"/>
  <text x="688.0" y="250.0" text-anchor="middle" class="node-title">KV Cache</text>
  <rect x="606.0" y="319.0" width="164.0" height="58.0" rx="10.0" fill="#faf5ff" stroke="#e9d5ff" stroke-width="1.8"/>
  <text x="688.0" y="348.0" text-anchor="middle" class="node-title">CUDA kernel</text>
  <rect x="606.0" y="417.0" width="164.0" height="58.0" rx="10.0" fill="#f0fdfa" stroke="#99f6e4" stroke-width="1.8"/>
  <text x="688.0" y="446.0" text-anchor="middle" class="node-title">GPU / HBM</text>
  <rect x="892.5" y="221.0" width="164.0" height="58.0" rx="10.0" fill="#f8fafc" stroke="#cbd5e1" stroke-width="1.8"/>
  <text x="974.5" y="250.0" text-anchor="middle" class="node-title">token streaming</text>
  <rect x="892.5" y="319.0" width="164.0" height="58.0" rx="10.0" fill="#eff6ff" stroke="#bfdbfe" stroke-width="1.8"/>
  <text x="974.5" y="348.0" text-anchor="middle" class="node-title">token 计量</text>
  <rect x="867.0" y="417.0" width="215.0" height="58.0" rx="10.0" fill="#f0fdf4" stroke="#bbf7d0" stroke-width="1.8"/>
  <text x="974.5" y="446.0" text-anchor="middle" class="node-title">billing / observability</text>
  <line x1="42.0" y1="632.0" x2="72.0" y2="632.0" stroke="#7c3aed" stroke-width="2.4" marker-end="url(#arrowA)"/>
  <text x="82.0" y="636.0" class="legend">主路径 / 阶段推进</text>
  <text x="871.0" y="654.0" class="footnote">Rendered with fireworks-tech-graph</text>
</svg>