<svg xmlns="http://www.w3.org/2000/svg" viewBox="0 0 2687 892" width="2687" height="892">
  <defs>
    <marker id="arrowA" markerWidth="10" markerHeight="7" refX="9" refY="3.5" orient="auto">
      <polygon points="0 0, 10 3.5, 0 7" fill="#7c3aed"/>
    </marker>
    <marker id="arrowB" markerWidth="10" markerHeight="7" refX="9" refY="3.5" orient="auto">
      <polygon points="0 0, 10 3.5, 0 7" fill="#10b981"/>
    </marker>
    <marker id="arrowC" markerWidth="10" markerHeight="7" refX="9" refY="3.5" orient="auto">
      <polygon points="0 0, 10 3.5, 0 7" fill="#2563eb"/>
    </marker>
    <marker id="arrowE" markerWidth="10" markerHeight="7" refX="9" refY="3.5" orient="auto">
      <polygon points="0 0, 10 3.5, 0 7" fill="#f97316"/>
    </marker>
    <marker id="arrowF" markerWidth="10" markerHeight="7" refX="9" refY="3.5" orient="auto">
      <polygon points="0 0, 10 3.5, 0 7" fill="#7c3aed"/>
    </marker>
    <marker id="arrowG" markerWidth="10" markerHeight="7" refX="9" refY="3.5" orient="auto">
      <polygon points="0 0, 10 3.5, 0 7" fill="#ef4444"/>
    </marker>
    <marker id="arrowH" markerWidth="10" markerHeight="7" refX="9" refY="3.5" orient="auto">
      <polygon points="0 0, 10 3.5, 0 7" fill="#6b7280"/>
    </marker>
    <filter id="shadowSoft" x="-20%" y="-20%" width="140%" height="160%">
      <feDropShadow dx="0" dy="3" stdDeviation="6" flood-color="#0f172a" flood-opacity="0.12"/>
    </filter>
    <filter id="shadowGlass" x="-20%" y="-20%" width="140%" height="160%">
      <feDropShadow dx="0" dy="10" stdDeviation="16" flood-color="#020617" flood-opacity="0.28"/>
    </filter>
    <style>
    text { font-family: 'Helvetica Neue', Helvetica, Arial, 'PingFang SC', 'Microsoft YaHei', 'Microsoft JhengHei', 'SimHei', sans-serif; }
    .title { font-size: 30px; font-weight: 700; fill: #111827; }
    .subtitle { font-size: 14px; font-weight: 500; fill: #6b7280; }
    .section { font-size: 13px; font-weight: 700; fill: #2563eb; letter-spacing: 1.4px; }
    .section-sub { font-size: 12px; font-weight: 500; fill: #94a3b8; }
    .node-title { font-size: 18px; font-weight: 700; fill: #111827; }
    .node-sub { font-size: 12px; font-weight: 500; fill: #6b7280; }
    .node-type { font-size: 12px; font-weight: 700; fill: #9ca3af; letter-spacing: 0.08em; }
    .arrow-label { font-size: 12px; font-weight: 600; fill: #6b7280; }
    .legend { font-size: 12px; font-weight: 500; fill: #6b7280; }
    .footnote { font-size: 12px; font-weight: 500; fill: #94a3b8; }
    </style>
  </defs>
  <rect width="2687.0" height="892.0" fill="#ffffff"/>
  <text x="1343.5" y="56" text-anchor="middle" class="title">39.4.1 工程实现</text>
  <text x="1343.5" y="82" text-anchor="middle" class="subtitle">part-09-reliability-observability/chapter-39-troubleshooting.md:1392</text>
  <path d="M 1343.5,224.0 L 1343.5,296.0" fill="none" stroke="#7c3aed" stroke-width="2.4" marker-end="url(#arrowA)"/>
  <path d="M 1343.5,354.0 L 1343.5,374.4 L 1001.0,405.6 L 1001.0,426.0" fill="none" stroke="#7c3aed" stroke-width="2.4" marker-end="url(#arrowA)"/>
  <path d="M 1343.5,354.0 L 1343.5,374.4 L 1219.0,405.6 L 1219.0,426.0" fill="none" stroke="#7c3aed" stroke-width="2.4" marker-end="url(#arrowA)"/>
  <path d="M 1343.5,354.0 L 1343.5,374.4 L 1448.5,405.6 L 1448.5,426.0" fill="none" stroke="#7c3aed" stroke-width="2.4" marker-end="url(#arrowA)"/>
  <path d="M 1343.5,354.0 L 1343.5,374.4 L 1678.0,405.6 L 1678.0,426.0" fill="none" stroke="#7c3aed" stroke-width="2.4" marker-end="url(#arrowA)"/>
  <path d="M 1001.0,484.0 L 1001.0,504.4 L 188.5,535.6 L 188.5,556.0" fill="none" stroke="#7c3aed" stroke-width="2.4" marker-end="url(#arrowA)"/>
  <path d="M 1001.0,484.0 L 1001.0,504.4 L 481.0,535.6 L 481.0,556.0" fill="none" stroke="#7c3aed" stroke-width="2.4" marker-end="url(#arrowA)"/>
  <path d="M 1219.0,484.0 L 1219.0,504.4 L 763.0,535.6 L 763.0,556.0" fill="none" stroke="#7c3aed" stroke-width="2.4" marker-end="url(#arrowA)"/>
  <path d="M 1219.0,484.0 L 1219.0,504.4 L 1073.0,535.6 L 1073.0,556.0" fill="none" stroke="#7c3aed" stroke-width="2.4" marker-end="url(#arrowA)"/>
  <path d="M 1448.5,484.0 L 1448.5,504.4 L 1446.0,535.6 L 1446.0,556.0" fill="none" stroke="#7c3aed" stroke-width="2.4" marker-end="url(#arrowA)"/>
  <path d="M 1448.5,484.0 L 1448.5,504.4 L 1854.0,535.6 L 1854.0,556.0" fill="none" stroke="#7c3aed" stroke-width="2.4" marker-end="url(#arrowA)"/>
  <path d="M 1678.0,484.0 L 1678.0,504.4 L 2206.0,535.6 L 2206.0,556.0" fill="none" stroke="#7c3aed" stroke-width="2.4" marker-end="url(#arrowA)"/>
  <path d="M 1678.0,484.0 L 1678.0,504.4 L 2502.0,535.6 L 2502.0,556.0" fill="none" stroke="#7c3aed" stroke-width="2.4" marker-end="url(#arrowA)"/>
  <path d="M 188.5,626.0 L 188.5,646.4 L 1343.5,677.6 L 1343.5,698.0" fill="none" stroke="#7c3aed" stroke-width="2.4" marker-end="url(#arrowA)"/>
  <path d="M 1073.0,626.0 L 1073.0,646.4 L 1343.5,677.6 L 1343.5,698.0" fill="none" stroke="#7c3aed" stroke-width="2.4" marker-end="url(#arrowA)"/>
  <path d="M 1446.0,626.0 L 1446.0,646.4 L 1343.5,677.6 L 1343.5,698.0" fill="none" stroke="#7c3aed" stroke-width="2.4" marker-end="url(#arrowA)"/>
  <path d="M 2502.0,626.0 L 2502.0,646.4 L 1343.5,677.6 L 1343.5,698.0" fill="none" stroke="#7c3aed" stroke-width="2.4" marker-end="url(#arrowA)"/>
  <rect x="1169.5" y="154.0" width="348.0" height="70.0" rx="10.0" fill="#eff6ff" stroke="#bfdbfe" stroke-width="1.8"/>
  <text x="1343.5" y="189.0" text-anchor="middle" class="node-title">behavior drift</text>
  <text x="1343.5" y="211.0" text-anchor="middle" class="node-sub">rollback fail / old weights / restore fail</text>
  <rect x="1261.5" y="296.0" width="164.0" height="58.0" rx="10.0" fill="#fff7ed" stroke="#fdba74" stroke-width="2.0"/>
  <rect x="1267.5" y="302.0" width="152.0" height="46.0" rx="7.0" fill="none" stroke="#fdba74" stroke-width="1.2" opacity="0.65"/>
  <text x="1343.5" y="314.0" text-anchor="middle" class="node-type">DECISION</text>
  <text x="1343.5" y="331.0" text-anchor="middle" class="node-title">供应链路径?</text>
  <rect x="919.0" y="426.0" width="164.0" height="58.0" rx="10.0" fill="#fff7ed" stroke="#fed7aa" stroke-width="1.8"/>
  <text x="1001.0" y="455.0" text-anchor="middle" class="node-title">dataset lineage</text>
  <rect x="1129.0" y="426.0" width="180.0" height="58.0" rx="10.0" fill="#faf5ff" stroke="#e9d5ff" stroke-width="1.8"/>
  <text x="1219.0" y="455.0" text-anchor="middle" class="node-title">checkpoint restore</text>
  <rect x="1355.0" y="426.0" width="187.0" height="58.0" rx="10.0" fill="#f0fdfa" stroke="#99f6e4" stroke-width="1.8"/>
  <text x="1448.5" y="455.0" text-anchor="middle" class="node-title">artifact provenance</text>
  <rect x="1588.0" y="426.0" width="180.0" height="58.0" rx="10.0" fill="#f8fafc" stroke="#cbd5e1" stroke-width="1.8"/>
  <text x="1678.0" y="455.0" text-anchor="middle" class="node-title">cache invalidation</text>
  <rect x="60.0" y="556.0" width="257.0" height="70.0" rx="10.0" fill="#eff6ff" stroke="#bfdbfe" stroke-width="1.8"/>
  <text x="188.5" y="591.0" text-anchor="middle" class="node-title">dataset_lineage_record</text>
  <text x="188.5" y="613.0" text-anchor="middle" class="node-sub">source / transform / deletion</text>
  <rect x="363.0" y="556.0" width="236.0" height="70.0" rx="10.0" fill="#f0fdf4" stroke="#bbf7d0" stroke-width="1.8"/>
  <text x="481.0" y="591.0" text-anchor="middle" class="node-title">dataset_manifest</text>
  <text x="481.0" y="613.0" text-anchor="middle" class="node-sub">shard checksum / tokenizer</text>
  <rect x="645.0" y="556.0" width="236.0" height="70.0" rx="10.0" fill="#fff7ed" stroke="#fed7aa" stroke-width="1.8"/>
  <text x="763.0" y="591.0" text-anchor="middle" class="node-title">checkpoint_manifest</text>
  <text x="763.0" y="613.0" text-anchor="middle" class="node-sub">state / shard / dataloader</text>
  <rect x="927.0" y="556.0" width="292.0" height="70.0" rx="10.0" fill="#faf5ff" stroke="#e9d5ff" stroke-width="1.8"/>
  <text x="1073.0" y="591.0" text-anchor="middle" class="node-title">checkpoint_restore_drill</text>
  <text x="1073.0" y="613.0" text-anchor="middle" class="node-sub">first effective step after restore</text>
  <rect x="1265.0" y="556.0" width="362.0" height="70.0" rx="10.0" fill="#f0fdfa" stroke="#99f6e4" stroke-width="1.8"/>
  <text x="1446.0" y="591.0" text-anchor="middle" class="node-title">model_artifact_provenance</text>
  <text x="1446.0" y="613.0" text-anchor="middle" class="node-sub">source checkpoint / build / gate / signature</text>
  <rect x="1673.0" y="556.0" width="362.0" height="70.0" rx="10.0" fill="#f8fafc" stroke="#cbd5e1" stroke-width="1.8"/>
  <text x="1854.0" y="591.0" text-anchor="middle" class="node-title">model_artifact</text>
  <text x="1854.0" y="613.0" text-anchor="middle" class="node-sub">distribution / digest / registry / readiness</text>
  <rect x="2081.0" y="556.0" width="250.0" height="70.0" rx="10.0" fill="#eff6ff" stroke="#bfdbfe" stroke-width="1.8"/>
  <text x="2206.0" y="591.0" text-anchor="middle" class="node-title">cache_residency</text>
  <text x="2206.0" y="613.0" text-anchor="middle" class="node-sub">node / rack / warmup / state</text>
  <rect x="2377.0" y="556.0" width="250.0" height="70.0" rx="10.0" fill="#f0fdf4" stroke="#bbf7d0" stroke-width="1.8"/>
  <text x="2502.0" y="591.0" text-anchor="middle" class="node-title">cache_invalidation_record</text>
  <text x="2502.0" y="613.0" text-anchor="middle" class="node-sub">revoked / evicted / replaced</text>
  <rect x="1246.5" y="698.0" width="194.0" height="58.0" rx="10.0" fill="#fff7ed" stroke="#fed7aa" stroke-width="1.8"/>
  <text x="1343.5" y="727.0" text-anchor="middle" class="node-title">supply_chain_verdict</text>
  <text x="2407.0" y="876.0" class="footnote">Rendered with fireworks-tech-graph</text>
</svg>