<svg xmlns="http://www.w3.org/2000/svg" viewBox="0 0 1736 916" width="1736" height="916">
  <defs>
    <marker id="arrowA" markerWidth="10" markerHeight="7" refX="9" refY="3.5" orient="auto">
      <polygon points="0 0, 10 3.5, 0 7" fill="#7c3aed"/>
    </marker>
    <marker id="arrowB" markerWidth="10" markerHeight="7" refX="9" refY="3.5" orient="auto">
      <polygon points="0 0, 10 3.5, 0 7" fill="#10b981"/>
    </marker>
    <marker id="arrowC" markerWidth="10" markerHeight="7" refX="9" refY="3.5" orient="auto">
      <polygon points="0 0, 10 3.5, 0 7" fill="#2563eb"/>
    </marker>
    <marker id="arrowE" markerWidth="10" markerHeight="7" refX="9" refY="3.5" orient="auto">
      <polygon points="0 0, 10 3.5, 0 7" fill="#f97316"/>
    </marker>
    <marker id="arrowF" markerWidth="10" markerHeight="7" refX="9" refY="3.5" orient="auto">
      <polygon points="0 0, 10 3.5, 0 7" fill="#7c3aed"/>
    </marker>
    <marker id="arrowG" markerWidth="10" markerHeight="7" refX="9" refY="3.5" orient="auto">
      <polygon points="0 0, 10 3.5, 0 7" fill="#ef4444"/>
    </marker>
    <marker id="arrowH" markerWidth="10" markerHeight="7" refX="9" refY="3.5" orient="auto">
      <polygon points="0 0, 10 3.5, 0 7" fill="#6b7280"/>
    </marker>
    <filter id="shadowSoft" x="-20%" y="-20%" width="140%" height="160%">
      <feDropShadow dx="0" dy="3" stdDeviation="6" flood-color="#0f172a" flood-opacity="0.12"/>
    </filter>
    <filter id="shadowGlass" x="-20%" y="-20%" width="140%" height="160%">
      <feDropShadow dx="0" dy="10" stdDeviation="16" flood-color="#020617" flood-opacity="0.28"/>
    </filter>
    <style>
    text { font-family: 'Helvetica Neue', Helvetica, Arial, 'PingFang SC', 'Microsoft YaHei', 'Microsoft JhengHei', 'SimHei', sans-serif; }
    .title { font-size: 30px; font-weight: 700; fill: #111827; }
    .subtitle { font-size: 14px; font-weight: 500; fill: #6b7280; }
    .section { font-size: 13px; font-weight: 700; fill: #2563eb; letter-spacing: 1.4px; }
    .section-sub { font-size: 12px; font-weight: 500; fill: #94a3b8; }
    .node-title { font-size: 18px; font-weight: 700; fill: #111827; }
    .node-sub { font-size: 12px; font-weight: 500; fill: #6b7280; }
    .node-type { font-size: 12px; font-weight: 700; fill: #9ca3af; letter-spacing: 0.08em; }
    .arrow-label { font-size: 12px; font-weight: 600; fill: #6b7280; }
    .legend { font-size: 12px; font-weight: 500; fill: #6b7280; }
    .footnote { font-size: 12px; font-weight: 500; fill: #94a3b8; }
    </style>
  </defs>
  <rect width="1736.0" height="916.0" fill="#ffffff"/>
  <text x="868.0" y="56" text-anchor="middle" class="title">37.3.7 storage metrics</text>
  <text x="868.0" y="82" text-anchor="middle" class="subtitle">part-09-reliability-observability/chapter-37-ai-factory-observability.md:421</text>
  <path d="M 178.0,224.0 L 178.0,244.4 L 868.0,275.6 L 868.0,296.0" fill="none" stroke="#7c3aed" stroke-width="2.4" marker-end="url(#arrowA)"/>
  <path d="M 439.0,224.0 L 439.0,244.4 L 868.0,275.6 L 868.0,296.0" fill="none" stroke="#7c3aed" stroke-width="2.4" marker-end="url(#arrowA)"/>
  <path d="M 693.0,218.0 L 693.0,238.4 L 868.0,275.6 L 868.0,296.0" fill="none" stroke="#7c3aed" stroke-width="2.4" marker-end="url(#arrowA)"/>
  <path d="M 947.0,224.0 L 947.0,244.4 L 868.0,275.6 L 868.0,296.0" fill="none" stroke="#7c3aed" stroke-width="2.4" marker-end="url(#arrowA)"/>
  <path d="M 1173.0,224.0 L 1173.0,244.4 L 868.0,275.6 L 868.0,296.0" fill="none" stroke="#7c3aed" stroke-width="2.4" marker-end="url(#arrowA)"/>
  <path d="M 1384.0,224.0 L 1384.0,244.4 L 868.0,275.6 L 868.0,296.0" fill="none" stroke="#7c3aed" stroke-width="2.4" marker-end="url(#arrowA)"/>
  <path d="M 1594.0,224.0 L 1594.0,244.4 L 868.0,275.6 L 868.0,296.0" fill="none" stroke="#7c3aed" stroke-width="2.4" marker-end="url(#arrowA)"/>
  <path d="M 868.0,366.0 L 868.0,438.0" fill="none" stroke="#7c3aed" stroke-width="2.4" marker-end="url(#arrowA)"/>
  <path d="M 868.0,496.0 L 868.0,516.4 L 744.5,547.6 L 744.5,568.0" fill="none" stroke="#7c3aed" stroke-width="2.4" marker-end="url(#arrowA)"/>
  <path d="M 868.0,496.0 L 868.0,516.4 L 998.5,547.6 L 998.5,568.0" fill="none" stroke="#7c3aed" stroke-width="2.4" marker-end="url(#arrowA)"/>
  <path d="M 744.5,638.0 L 744.5,658.4 L 868.0,689.6 L 868.0,710.0" fill="none" stroke="#7c3aed" stroke-width="2.4" marker-end="url(#arrowA)"/>
  <rect x="60.0" y="154.0" width="236.0" height="70.0" rx="10.0" fill="#eff6ff" stroke="#bfdbfe" stroke-width="1.8"/>
  <text x="178.0" y="189.0" text-anchor="middle" class="node-title">artifact / tokenizer / RAG</text>
  <text x="178.0" y="211.0" text-anchor="middle" class="node-sub">data revoke</text>
  <rect x="342.0" y="154.0" width="194.0" height="70.0" rx="10.0" fill="#fff7ed" stroke="#fed7aa" stroke-width="1.8"/>
  <text x="439.0" y="189.0" text-anchor="middle" class="node-title">supply_chain_release</text>
  <text x="439.0" y="211.0" text-anchor="middle" class="node-sub">contract</text>
  <rect x="582.0" y="160.0" width="222.0" height="58.0" rx="10.0" fill="#faf5ff" stroke="#e9d5ff" stroke-width="1.8"/>
  <text x="693.0" y="189.0" text-anchor="middle" class="node-title">registry pointer history</text>
  <rect x="850.0" y="154.0" width="194.0" height="70.0" rx="10.0" fill="#f0fdfa" stroke="#99f6e4" stroke-width="1.8"/>
  <text x="947.0" y="189.0" text-anchor="middle" class="node-title">scheduler</text>
  <text x="947.0" y="211.0" text-anchor="middle" class="node-sub">autoscaler decisions</text>
  <rect x="1090.0" y="154.0" width="166.0" height="70.0" rx="10.0" fill="#f8fafc" stroke="#cbd5e1" stroke-width="1.8"/>
  <text x="1173.0" y="189.0" text-anchor="middle" class="node-title">local NVMe</text>
  <text x="1173.0" y="211.0" text-anchor="middle" class="node-sub">rack cache scans</text>
  <rect x="1302.0" y="154.0" width="164.0" height="70.0" rx="10.0" fill="#eff6ff" stroke="#bfdbfe" stroke-width="1.8"/>
  <text x="1384.0" y="189.0" text-anchor="middle" class="node-title">loaded digest</text>
  <text x="1384.0" y="211.0" text-anchor="middle" class="node-sub">trace replay</text>
  <rect x="1512.0" y="154.0" width="164.0" height="70.0" rx="10.0" fill="#f0fdf4" stroke="#bbf7d0" stroke-width="1.8"/>
  <text x="1594.0" y="189.0" text-anchor="middle" class="node-title">usage schema</text>
  <text x="1594.0" y="211.0" text-anchor="middle" class="node-sub">billing hold</text>
  <rect x="753.5" y="296.0" width="229.0" height="70.0" rx="10.0" fill="#f0fdf4" stroke="#bbf7d0" stroke-width="1.8"/>
  <text x="868.0" y="331.0" text-anchor="middle" class="node-title">supply_chain_invalidation</text>
  <text x="868.0" y="353.0" text-anchor="middle" class="node-sub">evidence_bundle</text>
  <rect x="767.5" y="438.0" width="201.0" height="58.0" rx="10.0" fill="#fff7ed" stroke="#fdba74" stroke-width="2.0"/>
  <rect x="773.5" y="444.0" width="189.0" height="46.0" rx="7.0" fill="none" stroke="#fdba74" stroke-width="1.2" opacity="0.65"/>
  <text x="868.0" y="456.0" text-anchor="middle" class="node-type">DECISION</text>
  <text x="868.0" y="473.0" text-anchor="middle" class="node-title">old object reachable?</text>
  <rect x="637.0" y="568.0" width="215.0" height="70.0" rx="10.0" fill="#faf5ff" stroke="#e9d5ff" stroke-width="1.8"/>
  <text x="744.5" y="603.0" text-anchor="middle" class="node-title">supply_chain_fault_tree</text>
  <text x="744.5" y="625.0" text-anchor="middle" class="node-sub">execution</text>
  <rect x="898.0" y="568.0" width="201.0" height="70.0" rx="10.0" fill="#f0fdfa" stroke="#99f6e4" stroke-width="1.8"/>
  <text x="998.5" y="603.0" text-anchor="middle" class="node-title">PRR</text>
  <text x="998.5" y="625.0" text-anchor="middle" class="node-sub">release gate evidence</text>
  <rect x="750.0" y="710.0" width="236.0" height="70.0" rx="10.0" fill="#f8fafc" stroke="#cbd5e1" stroke-width="1.8"/>
  <text x="868.0" y="745.0" text-anchor="middle" class="node-title">supply_chain_incident_cost</text>
  <text x="868.0" y="767.0" text-anchor="middle" class="node-sub">record</text>
  <rect x="788.25" y="502.0" width="36" height="20" rx="6" fill="#ffffff" opacity="0.94"/>
  <text x="806.25" y="516.0" text-anchor="middle" class="arrow-label">yes</text>
  <rect x="915.25" y="502.0" width="36" height="20" rx="6" fill="#ffffff" opacity="0.94"/>
  <text x="933.25" y="516.0" text-anchor="middle" class="arrow-label">no</text>
  <text x="1456.0" y="900.0" class="footnote">Rendered with fireworks-tech-graph</text>
</svg>