<svg xmlns="http://www.w3.org/2000/svg" viewBox="0 0 2477 404" width="2477" height="404">
  <defs>
    <marker id="arrowA" markerWidth="10" markerHeight="7" refX="9" refY="3.5" orient="auto">
      <polygon points="0 0, 10 3.5, 0 7" fill="#7c3aed"/>
    </marker>
    <marker id="arrowB" markerWidth="10" markerHeight="7" refX="9" refY="3.5" orient="auto">
      <polygon points="0 0, 10 3.5, 0 7" fill="#10b981"/>
    </marker>
    <marker id="arrowC" markerWidth="10" markerHeight="7" refX="9" refY="3.5" orient="auto">
      <polygon points="0 0, 10 3.5, 0 7" fill="#2563eb"/>
    </marker>
    <marker id="arrowE" markerWidth="10" markerHeight="7" refX="9" refY="3.5" orient="auto">
      <polygon points="0 0, 10 3.5, 0 7" fill="#f97316"/>
    </marker>
    <marker id="arrowF" markerWidth="10" markerHeight="7" refX="9" refY="3.5" orient="auto">
      <polygon points="0 0, 10 3.5, 0 7" fill="#7c3aed"/>
    </marker>
    <marker id="arrowG" markerWidth="10" markerHeight="7" refX="9" refY="3.5" orient="auto">
      <polygon points="0 0, 10 3.5, 0 7" fill="#ef4444"/>
    </marker>
    <marker id="arrowH" markerWidth="10" markerHeight="7" refX="9" refY="3.5" orient="auto">
      <polygon points="0 0, 10 3.5, 0 7" fill="#6b7280"/>
    </marker>
    <filter id="shadowSoft" x="-20%" y="-20%" width="140%" height="160%">
      <feDropShadow dx="0" dy="3" stdDeviation="6" flood-color="#0f172a" flood-opacity="0.12"/>
    </filter>
    <filter id="shadowGlass" x="-20%" y="-20%" width="140%" height="160%">
      <feDropShadow dx="0" dy="10" stdDeviation="16" flood-color="#020617" flood-opacity="0.28"/>
    </filter>
    <style>
    text { font-family: 'Helvetica Neue', Helvetica, Arial, 'PingFang SC', 'Microsoft YaHei', 'Microsoft JhengHei', 'SimHei', sans-serif; }
    .title { font-size: 30px; font-weight: 700; fill: #111827; }
    .subtitle { font-size: 14px; font-weight: 500; fill: #6b7280; }
    .section { font-size: 13px; font-weight: 700; fill: #2563eb; letter-spacing: 1.4px; }
    .section-sub { font-size: 12px; font-weight: 500; fill: #94a3b8; }
    .node-title { font-size: 18px; font-weight: 700; fill: #111827; }
    .node-sub { font-size: 12px; font-weight: 500; fill: #6b7280; }
    .node-type { font-size: 12px; font-weight: 700; fill: #9ca3af; letter-spacing: 0.08em; }
    .arrow-label { font-size: 12px; font-weight: 600; fill: #6b7280; }
    .legend { font-size: 12px; font-weight: 500; fill: #6b7280; }
    .footnote { font-size: 12px; font-weight: 500; fill: #94a3b8; }
    </style>
  </defs>
  <rect width="2477.0" height="404.0" fill="#ffffff"/>
  <text x="1238.5" y="56" text-anchor="middle" class="title">22.3.3 GPU resource request</text>
  <text x="1238.5" y="82" text-anchor="middle" class="subtitle">part-05-orchestration/chapter-22-gpu-on-kubernetes.md:416</text>
  <path d="M 339.0,217.0 L 411.0,217.0" fill="none" stroke="#7c3aed" stroke-width="2.4" marker-end="url(#arrowA)"/>
  <path d="M 640.0,217.0 L 660.4,217.0 L 695.1,161.0 L 715.5,161.0" fill="none" stroke="#7c3aed" stroke-width="2.4" marker-end="url(#arrowA)"/>
  <path d="M 916.5,161.0 L 936.9,161.0 L 971.6,217.0 L 992.0,217.0" fill="none" stroke="#7c3aed" stroke-width="2.4" marker-end="url(#arrowA)"/>
  <path d="M 640.0,217.0 L 660.4,217.0 L 691.6,273.0 L 712.0,273.0" fill="none" stroke="#7c3aed" stroke-width="2.4" marker-end="url(#arrowA)"/>
  <path d="M 920.0,273.0 L 940.4,273.0 L 1349.6,217.0 L 1370.0,217.0" fill="none" stroke="#7c3aed" stroke-width="2.4" marker-end="url(#arrowA)"/>
  <path d="M 1298.0,217.0 L 1370.0,217.0" fill="none" stroke="#7c3aed" stroke-width="2.4" marker-end="url(#arrowA)"/>
  <path d="M 1606.0,217.0 L 1678.0,217.0" fill="none" stroke="#7c3aed" stroke-width="2.4" marker-end="url(#arrowA)"/>
  <path d="M 1844.0,217.0 L 1864.4,217.0 L 1895.6,211.0 L 1916.0,211.0" fill="none" stroke="#7c3aed" stroke-width="2.4" marker-end="url(#arrowA)"/>
  <path d="M 2080.0,211.0 L 2100.4,211.0 L 2164.1,155.0 L 2184.5,155.0" fill="none" stroke="#7c3aed" stroke-width="2.4" marker-end="url(#arrowA)"/>
  <path d="M 2080.0,211.0 L 2100.4,211.0 L 2131.6,273.0 L 2152.0,273.0" fill="none" stroke="#7c3aed" stroke-width="2.4" marker-end="url(#arrowA)"/>
  <rect x="96.0" y="182.0" width="243.0" height="70.0" rx="10.0" fill="#eff6ff" stroke="#bfdbfe" stroke-width="1.8"/>
  <text x="217.5" y="217.0" text-anchor="middle" class="node-title">workload intent</text>
  <text x="217.5" y="239.0" text-anchor="middle" class="node-sub">GPU class + RDMA + topology</text>
  <rect x="411.0" y="182.0" width="229.0" height="70.0" rx="10.0" fill="#f0fdf4" stroke="#bbf7d0" stroke-width="1.8"/>
  <text x="525.5" y="217.0" text-anchor="middle" class="node-title">placement_commit_record</text>
  <text x="525.5" y="239.0" text-anchor="middle" class="node-sub">node / rank / constraints</text>
  <rect x="715.5" y="126.0" width="201.0" height="70.0" rx="10.0" fill="#fff7ed" stroke="#fed7aa" stroke-width="1.8"/>
  <text x="816.0" y="161.0" text-anchor="middle" class="node-title">gpu_assignment_record</text>
  <text x="816.0" y="183.0" text-anchor="middle" class="node-sub">GPU / MIG / runtime</text>
  <rect x="712.0" y="238.0" width="208.0" height="70.0" rx="10.0" fill="#f0fdfa" stroke="#99f6e4" stroke-width="1.8"/>
  <text x="816.0" y="273.0" text-anchor="middle" class="node-title">RDMA device allocation</text>
  <text x="816.0" y="295.0" text-anchor="middle" class="node-sub">NIC / rail / NUMA</text>
  <rect x="992.0" y="182.0" width="306.0" height="70.0" rx="10.0" fill="#faf5ff" stroke="#e9d5ff" stroke-width="1.8"/>
  <text x="1145.0" y="217.0" text-anchor="middle" class="node-title">gpu_device_visibility</text>
  <text x="1145.0" y="239.0" text-anchor="middle" class="node-sub">reconciliation / container GPU facts</text>
  <rect x="1370.0" y="182.0" width="236.0" height="70.0" rx="10.0" fill="#f8fafc" stroke="#cbd5e1" stroke-width="1.8"/>
  <text x="1488.0" y="217.0" text-anchor="middle" class="node-title">gpu_nic_topology_evidence</text>
  <text x="1488.0" y="239.0" text-anchor="middle" class="node-sub">GPU + NIC + NCCL interface</text>
  <rect x="1678.0" y="182.0" width="166.0" height="70.0" rx="10.0" fill="#eff6ff" stroke="#bfdbfe" stroke-width="1.8"/>
  <text x="1761.0" y="217.0" text-anchor="middle" class="node-title">NCCL / DCGM</text>
  <text x="1761.0" y="239.0" text-anchor="middle" class="node-sub">fabric telemetry</text>
  <rect x="1916.0" y="182.0" width="164.0" height="58.0" rx="10.0" fill="#fff7ed" stroke="#fdba74" stroke-width="2.0"/>
  <rect x="1922.0" y="188.0" width="152.0" height="46.0" rx="7.0" fill="none" stroke="#fdba74" stroke-width="1.2" opacity="0.65"/>
  <text x="1998.0" y="200.0" text-anchor="middle" class="node-type">DECISION</text>
  <text x="1998.0" y="217.0" text-anchor="middle" class="node-title">meets baseline?</text>
  <rect x="2184.5" y="126.0" width="164.0" height="58.0" rx="10.0" fill="#fff7ed" stroke="#fed7aa" stroke-width="1.8"/>
  <text x="2266.5" y="155.0" text-anchor="middle" class="node-title">run workload</text>
  <rect x="2152.0" y="238.0" width="229.0" height="70.0" rx="10.0" fill="#faf5ff" stroke="#e9d5ff" stroke-width="1.8"/>
  <text x="2266.5" y="273.0" text-anchor="middle" class="node-title">cordon / relabel / retest</text>
  <text x="2266.5" y="295.0" text-anchor="middle" class="node-sub">reroute</text>
  <rect x="2114.25" y="153.0" width="36" height="20" rx="6" fill="#ffffff" opacity="0.94"/>
  <text x="2132.25" y="167.0" text-anchor="middle" class="arrow-label">yes</text>
  <rect x="2098.0" y="212.0" width="36" height="20" rx="6" fill="#ffffff" opacity="0.94"/>
  <text x="2116.0" y="226.0" text-anchor="middle" class="arrow-label">no</text>
  <text x="2197.0" y="388.0" class="footnote">Rendered with fireworks-tech-graph</text>
</svg>