<svg xmlns="http://www.w3.org/2000/svg" viewBox="0 0 1561 600" width="1561" height="600">
  <defs>
    <marker id="arrowA" markerWidth="10" markerHeight="7" refX="9" refY="3.5" orient="auto">
      <polygon points="0 0, 10 3.5, 0 7" fill="#7c3aed"/>
    </marker>
    <marker id="arrowB" markerWidth="10" markerHeight="7" refX="9" refY="3.5" orient="auto">
      <polygon points="0 0, 10 3.5, 0 7" fill="#10b981"/>
    </marker>
    <marker id="arrowC" markerWidth="10" markerHeight="7" refX="9" refY="3.5" orient="auto">
      <polygon points="0 0, 10 3.5, 0 7" fill="#2563eb"/>
    </marker>
    <marker id="arrowE" markerWidth="10" markerHeight="7" refX="9" refY="3.5" orient="auto">
      <polygon points="0 0, 10 3.5, 0 7" fill="#f97316"/>
    </marker>
    <marker id="arrowF" markerWidth="10" markerHeight="7" refX="9" refY="3.5" orient="auto">
      <polygon points="0 0, 10 3.5, 0 7" fill="#7c3aed"/>
    </marker>
    <marker id="arrowG" markerWidth="10" markerHeight="7" refX="9" refY="3.5" orient="auto">
      <polygon points="0 0, 10 3.5, 0 7" fill="#ef4444"/>
    </marker>
    <marker id="arrowH" markerWidth="10" markerHeight="7" refX="9" refY="3.5" orient="auto">
      <polygon points="0 0, 10 3.5, 0 7" fill="#6b7280"/>
    </marker>
    <filter id="shadowSoft" x="-20%" y="-20%" width="140%" height="160%">
      <feDropShadow dx="0" dy="3" stdDeviation="6" flood-color="#0f172a" flood-opacity="0.12"/>
    </filter>
    <filter id="shadowGlass" x="-20%" y="-20%" width="140%" height="160%">
      <feDropShadow dx="0" dy="10" stdDeviation="16" flood-color="#020617" flood-opacity="0.28"/>
    </filter>
    <style>
    text { font-family: 'Helvetica Neue', Helvetica, Arial, 'PingFang SC', 'Microsoft YaHei', 'Microsoft JhengHei', 'SimHei', sans-serif; }
    .title { font-size: 30px; font-weight: 700; fill: #111827; }
    .subtitle { font-size: 14px; font-weight: 500; fill: #6b7280; }
    .section { font-size: 13px; font-weight: 700; fill: #2563eb; letter-spacing: 1.4px; }
    .section-sub { font-size: 12px; font-weight: 500; fill: #94a3b8; }
    .node-title { font-size: 18px; font-weight: 700; fill: #111827; }
    .node-sub { font-size: 12px; font-weight: 500; fill: #6b7280; }
    .node-type { font-size: 12px; font-weight: 700; fill: #9ca3af; letter-spacing: 0.08em; }
    .arrow-label { font-size: 12px; font-weight: 600; fill: #6b7280; }
    .legend { font-size: 12px; font-weight: 500; fill: #6b7280; }
    .footnote { font-size: 12px; font-weight: 500; fill: #94a3b8; }
    </style>
  </defs>
  <rect width="1561.0" height="600.0" fill="#ffffff"/>
  <text x="780.5" y="56" text-anchor="middle" class="title">21.3.10 GPU 容器运行时与 NVIDIA Container Toolkit</text>
  <text x="780.5" y="82" text-anchor="middle" class="subtitle">part-05-orchestration/chapter-21-containers-kubernetes.md:342</text>
  <rect x="42.0" y="118.0" width="297.0" height="372.0" rx="16.0" fill="#f8fafc" stroke="#dbe5f1" stroke-width="1.4" stroke-dasharray="7 5"/>
  <text x="60.0" y="142.0" class="section">阶段 1</text>
  <text x="60.0" y="162.0" class="section-sub">Pod Running -&gt; oci_runtime_injection_diff</text>
  <rect x="377.0" y="118.0" width="381.0" height="372.0" rx="16.0" fill="#ffffff" stroke="#dbe5f1" stroke-width="1.4" stroke-dasharray="7 5"/>
  <text x="395.0" y="142.0" class="section">阶段 2</text>
  <text x="395.0" y="162.0" class="section-sub">gpu_device_visibility -&gt; facts match?</text>
  <rect x="796.0" y="118.0" width="325.0" height="372.0" rx="16.0" fill="#f8fafc" stroke="#dbe5f1" stroke-width="1.4" stroke-dasharray="7 5"/>
  <text x="814.0" y="142.0" class="section">阶段 3</text>
  <text x="814.0" y="162.0" class="section-sub">move upward -&gt; runtime investigation</text>
  <rect x="1159.0" y="118.0" width="360.0" height="372.0" rx="16.0" fill="#ffffff" stroke="#dbe5f1" stroke-width="1.4" stroke-dasharray="7 5"/>
  <text x="1177.0" y="142.0" class="section">阶段 4</text>
  <text x="1177.0" y="162.0" class="section-sub">container_gpu_runtime -&gt; resource pool state</text>
  <path d="M 190.5,242.0 L 190.5,270.0" fill="none" stroke="#7c3aed" stroke-width="2.4" marker-end="url(#arrowA)"/>
  <path d="M 190.5,340.0 L 190.5,368.0" fill="none" stroke="#7c3aed" stroke-width="2.4" marker-end="url(#arrowA)"/>
  <path d="M 308.5,403.0 L 328.9,403.0 L 383.6,256.0 L 404.0,256.0" fill="none" stroke="#7c3aed" stroke-width="2.4" marker-end="url(#arrowA)"/>
  <path d="M 567.5,291.0 L 567.5,319.0" fill="none" stroke="#7c3aed" stroke-width="2.4" marker-end="url(#arrowA)"/>
  <path d="M 649.5,348.0 L 669.9,348.0 L 816.6,256.0 L 837.0,256.0" fill="none" stroke="#7c3aed" stroke-width="2.4" marker-end="url(#arrowA)"/>
  <path d="M 649.5,348.0 L 669.9,348.0 L 802.6,354.0 L 823.0,354.0" fill="none" stroke="#7c3aed" stroke-width="2.4" marker-end="url(#arrowA)"/>
  <path d="M 1094.0,354.0 L 1114.4,354.0 L 1165.6,256.0 L 1186.0,256.0" fill="none" stroke="#7c3aed" stroke-width="2.4" marker-end="url(#arrowA)"/>
  <path d="M 1339.0,291.0 L 1339.0,319.0" fill="none" stroke="#7c3aed" stroke-width="2.4" marker-end="url(#arrowA)"/>
  <rect x="69.0" y="172.0" width="243.0" height="70.0" rx="10.0" fill="#eff6ff" stroke="#bfdbfe" stroke-width="1.8"/>
  <text x="190.5" y="207.0" text-anchor="middle" class="node-title">Pod Running</text>
  <text x="190.5" y="229.0" text-anchor="middle" class="node-sub">but GPU wrong / unavailable</text>
  <rect x="83.0" y="270.0" width="215.0" height="70.0" rx="10.0" fill="#f0fdf4" stroke="#bbf7d0" stroke-width="1.8"/>
  <text x="190.5" y="305.0" text-anchor="middle" class="node-title">gpu_assignment_record</text>
  <text x="190.5" y="327.0" text-anchor="middle" class="node-sub">kubelet + device plugin</text>
  <rect x="72.5" y="368.0" width="236.0" height="70.0" rx="10.0" fill="#fff7ed" stroke="#fed7aa" stroke-width="1.8"/>
  <text x="190.5" y="403.0" text-anchor="middle" class="node-title">oci_runtime_injection_diff</text>
  <text x="190.5" y="425.0" text-anchor="middle" class="node-sub">OCI spec / CDI / hook</text>
  <rect x="404.0" y="221.0" width="327.0" height="70.0" rx="10.0" fill="#faf5ff" stroke="#e9d5ff" stroke-width="1.8"/>
  <text x="567.5" y="256.0" text-anchor="middle" class="node-title">gpu_device_visibility</text>
  <text x="567.5" y="278.0" text-anchor="middle" class="node-sub">reconciliation / inside container facts</text>
  <rect x="485.5" y="319.0" width="164.0" height="58.0" rx="10.0" fill="#fff7ed" stroke="#fdba74" stroke-width="2.0"/>
  <rect x="491.5" y="325.0" width="152.0" height="46.0" rx="7.0" fill="none" stroke="#fdba74" stroke-width="1.2" opacity="0.65"/>
  <text x="567.5" y="337.0" text-anchor="middle" class="node-type">DECISION</text>
  <text x="567.5" y="354.0" text-anchor="middle" class="node-title">facts match?</text>
  <rect x="837.0" y="221.0" width="243.0" height="70.0" rx="10.0" fill="#f8fafc" stroke="#cbd5e1" stroke-width="1.8"/>
  <text x="958.5" y="256.0" text-anchor="middle" class="node-title">move upward</text>
  <text x="958.5" y="278.0" text-anchor="middle" class="node-sub">CUDA / NCCL / app readiness</text>
  <rect x="823.0" y="319.0" width="271.0" height="70.0" rx="10.0" fill="#eff6ff" stroke="#bfdbfe" stroke-width="1.8"/>
  <text x="958.5" y="354.0" text-anchor="middle" class="node-title">runtime investigation</text>
  <text x="958.5" y="376.0" text-anchor="middle" class="node-sub">RuntimeClass / CDI / hook / env</text>
  <rect x="1186.0" y="221.0" width="306.0" height="70.0" rx="10.0" fill="#f0fdf4" stroke="#bbf7d0" stroke-width="1.8"/>
  <text x="1339.0" y="256.0" text-anchor="middle" class="node-title">container_gpu_runtime</text>
  <text x="1339.0" y="278.0" text-anchor="middle" class="node-sub">acceptance_matrix / retest node pool</text>
  <rect x="1193.0" y="319.0" width="292.0" height="70.0" rx="10.0" fill="#fff7ed" stroke="#fed7aa" stroke-width="1.8"/>
  <text x="1339.0" y="354.0" text-anchor="middle" class="node-title">resource pool state</text>
  <text x="1339.0" y="376.0" text-anchor="middle" class="node-sub">allocatable / limited / quarantine</text>
  <rect x="725.25" y="304.0" width="36" height="20" rx="6" fill="#ffffff" opacity="0.94"/>
  <text x="743.25" y="318.0" text-anchor="middle" class="arrow-label">yes</text>
  <rect x="718.25" y="353.0" width="36" height="20" rx="6" fill="#ffffff" opacity="0.94"/>
  <text x="736.25" y="367.0" text-anchor="middle" class="arrow-label">no</text>
  <line x1="42.0" y1="562.0" x2="72.0" y2="562.0" stroke="#7c3aed" stroke-width="2.4" marker-end="url(#arrowA)"/>
  <text x="82.0" y="566.0" class="legend">主路径 / 阶段推进</text>
  <text x="1281.0" y="584.0" class="footnote">Rendered with fireworks-tech-graph</text>
</svg>