<svg xmlns="http://www.w3.org/2000/svg" viewBox="0 0 1265 774" width="1265" height="774">
  <defs>
    <marker id="arrowA" markerWidth="10" markerHeight="7" refX="9" refY="3.5" orient="auto">
      <polygon points="0 0, 10 3.5, 0 7" fill="#7c3aed"/>
    </marker>
    <marker id="arrowB" markerWidth="10" markerHeight="7" refX="9" refY="3.5" orient="auto">
      <polygon points="0 0, 10 3.5, 0 7" fill="#10b981"/>
    </marker>
    <marker id="arrowC" markerWidth="10" markerHeight="7" refX="9" refY="3.5" orient="auto">
      <polygon points="0 0, 10 3.5, 0 7" fill="#2563eb"/>
    </marker>
    <marker id="arrowE" markerWidth="10" markerHeight="7" refX="9" refY="3.5" orient="auto">
      <polygon points="0 0, 10 3.5, 0 7" fill="#f97316"/>
    </marker>
    <marker id="arrowF" markerWidth="10" markerHeight="7" refX="9" refY="3.5" orient="auto">
      <polygon points="0 0, 10 3.5, 0 7" fill="#7c3aed"/>
    </marker>
    <marker id="arrowG" markerWidth="10" markerHeight="7" refX="9" refY="3.5" orient="auto">
      <polygon points="0 0, 10 3.5, 0 7" fill="#ef4444"/>
    </marker>
    <marker id="arrowH" markerWidth="10" markerHeight="7" refX="9" refY="3.5" orient="auto">
      <polygon points="0 0, 10 3.5, 0 7" fill="#6b7280"/>
    </marker>
    <filter id="shadowSoft" x="-20%" y="-20%" width="140%" height="160%">
      <feDropShadow dx="0" dy="3" stdDeviation="6" flood-color="#0f172a" flood-opacity="0.12"/>
    </filter>
    <filter id="shadowGlass" x="-20%" y="-20%" width="140%" height="160%">
      <feDropShadow dx="0" dy="10" stdDeviation="16" flood-color="#020617" flood-opacity="0.28"/>
    </filter>
    <style>
    text { font-family: 'Helvetica Neue', Helvetica, Arial, 'PingFang SC', 'Microsoft YaHei', 'Microsoft JhengHei', 'SimHei', sans-serif; }
    .title { font-size: 30px; font-weight: 700; fill: #111827; }
    .subtitle { font-size: 14px; font-weight: 500; fill: #6b7280; }
    .section { font-size: 13px; font-weight: 700; fill: #2563eb; letter-spacing: 1.4px; }
    .section-sub { font-size: 12px; font-weight: 500; fill: #94a3b8; }
    .node-title { font-size: 18px; font-weight: 700; fill: #111827; }
    .node-sub { font-size: 12px; font-weight: 500; fill: #6b7280; }
    .node-type { font-size: 12px; font-weight: 700; fill: #9ca3af; letter-spacing: 0.08em; }
    .arrow-label { font-size: 12px; font-weight: 600; fill: #6b7280; }
    .legend { font-size: 12px; font-weight: 500; fill: #6b7280; }
    .footnote { font-size: 12px; font-weight: 500; fill: #94a3b8; }
    </style>
  </defs>
  <rect width="1265.0" height="774.0" fill="#ffffff"/>
  <text x="632.5" y="56" text-anchor="middle" class="title">41.3.5 revenue/token</text>
  <text x="632.5" y="82" text-anchor="middle" class="subtitle">part-10-economics-cases/chapter-41-token-factory.md:919</text>
  <path d="M 252.5,224.0 L 252.5,244.4 L 632.5,275.6 L 632.5,296.0" fill="none" stroke="#7c3aed" stroke-width="2.4" marker-end="url(#arrowA)"/>
  <path d="M 503.0,218.0 L 503.0,238.4 L 632.5,275.6 L 632.5,296.0" fill="none" stroke="#7c3aed" stroke-width="2.4" marker-end="url(#arrowA)"/>
  <path d="M 778.0,224.0 L 778.0,244.4 L 632.5,275.6 L 632.5,296.0" fill="none" stroke="#7c3aed" stroke-width="2.4" marker-end="url(#arrowA)"/>
  <path d="M 1024.0,218.0 L 1024.0,238.4 L 632.5,275.6 L 632.5,296.0" fill="none" stroke="#7c3aed" stroke-width="2.4" marker-end="url(#arrowA)"/>
  <path d="M 632.5,366.0 L 632.5,386.4 L 142.0,417.6 L 142.0,438.0" fill="none" stroke="#7c3aed" stroke-width="2.4" marker-end="url(#arrowA)"/>
  <path d="M 632.5,366.0 L 632.5,386.4 L 374.0,417.6 L 374.0,438.0" fill="none" stroke="#7c3aed" stroke-width="2.4" marker-end="url(#arrowA)"/>
  <path d="M 632.5,366.0 L 632.5,386.4 L 610.5,417.6 L 610.5,438.0" fill="none" stroke="#7c3aed" stroke-width="2.4" marker-end="url(#arrowA)"/>
  <path d="M 632.5,366.0 L 632.5,386.4 L 840.0,417.6 L 840.0,438.0" fill="none" stroke="#7c3aed" stroke-width="2.4" marker-end="url(#arrowA)"/>
  <path d="M 610.5,496.0 L 610.5,516.4 L 410.0,553.6 L 410.0,574.0" fill="none" stroke="#7c3aed" stroke-width="2.4" marker-end="url(#arrowA)"/>
  <path d="M 374.0,496.0 L 374.0,516.4 L 646.5,547.6 L 646.5,568.0" fill="none" stroke="#7c3aed" stroke-width="2.4" marker-end="url(#arrowA)"/>
  <path d="M 632.5,366.0 L 632.5,386.4 L 1094.0,417.6 L 1094.0,438.0" fill="none" stroke="#7c3aed" stroke-width="2.4" marker-end="url(#arrowA)"/>
  <path d="M 1094.0,496.0 L 1094.0,516.4 L 869.0,553.6 L 869.0,574.0" fill="none" stroke="#7c3aed" stroke-width="2.4" marker-end="url(#arrowA)"/>
  <rect x="159.0" y="154.0" width="187.0" height="70.0" rx="10.0" fill="#eff6ff" stroke="#bfdbfe" stroke-width="1.8"/>
  <text x="252.5" y="189.0" text-anchor="middle" class="node-title">spend velocity</text>
  <text x="252.5" y="211.0" text-anchor="middle" class="node-sub">provider cost alert</text>
  <rect x="392.0" y="160.0" width="222.0" height="58.0" rx="10.0" fill="#fff7ed" stroke="#fed7aa" stroke-width="1.8"/>
  <text x="503.0" y="189.0" text-anchor="middle" class="node-title">security_evidence_bundle</text>
  <rect x="660.0" y="154.0" width="236.0" height="70.0" rx="10.0" fill="#faf5ff" stroke="#e9d5ff" stroke-width="1.8"/>
  <text x="778.0" y="189.0" text-anchor="middle" class="node-title">security_policy_fault_tree</text>
  <text x="778.0" y="211.0" text-anchor="middle" class="node-sub">execution</text>
  <rect x="942.0" y="160.0" width="164.0" height="58.0" rx="10.0" fill="#f0fdfa" stroke="#99f6e4" stroke-width="1.8"/>
  <text x="1024.0" y="189.0" text-anchor="middle" class="node-title">metering events</text>
  <rect x="518.0" y="296.0" width="229.0" height="70.0" rx="10.0" fill="#f0fdf4" stroke="#bbf7d0" stroke-width="1.8"/>
  <text x="632.5" y="331.0" text-anchor="middle" class="node-title">denial_of_wallet_incident</text>
  <text x="632.5" y="353.0" text-anchor="middle" class="node-sub">record</text>
  <rect x="60.0" y="438.0" width="164.0" height="58.0" rx="10.0" fill="#f8fafc" stroke="#cbd5e1" stroke-width="1.8"/>
  <text x="142.0" y="467.0" text-anchor="middle" class="node-title">billing hold</text>
  <rect x="270.0" y="438.0" width="208.0" height="58.0" rx="10.0" fill="#eff6ff" stroke="#bfdbfe" stroke-width="1.8"/>
  <text x="374.0" y="467.0" text-anchor="middle" class="node-title">billing_dispute_replay</text>
  <rect x="524.0" y="438.0" width="173.0" height="58.0" rx="10.0" fill="#f0fdf4" stroke="#bbf7d0" stroke-width="1.8"/>
  <text x="610.5" y="467.0" text-anchor="middle" class="node-title">abuse_cost_ledger</text>
  <rect x="743.0" y="438.0" width="194.0" height="58.0" rx="10.0" fill="#fff7ed" stroke="#fed7aa" stroke-width="1.8"/>
  <text x="840.0" y="467.0" text-anchor="middle" class="node-title">security_cost_ledger</text>
  <rect x="983.0" y="438.0" width="222.0" height="58.0" rx="10.0" fill="#f8fafc" stroke="#cbd5e1" stroke-width="1.8"/>
  <text x="1094.0" y="467.0" text-anchor="middle" class="node-title">gateway guardrail update</text>
  <rect x="309.5" y="574.0" width="201.0" height="58.0" rx="10.0" fill="#faf5ff" stroke="#e9d5ff" stroke-width="1.8"/>
  <text x="410.0" y="603.0" text-anchor="middle" class="node-title">commercial_pnl_ledger</text>
  <rect x="556.5" y="568.0" width="180.0" height="70.0" rx="10.0" fill="#f0fdfa" stroke="#99f6e4" stroke-width="1.8"/>
  <text x="646.5" y="603.0" text-anchor="middle" class="node-title">invoice correction</text>
  <text x="646.5" y="625.0" text-anchor="middle" class="node-sub">credit / charge</text>
  <rect x="782.5" y="574.0" width="173.0" height="58.0" rx="10.0" fill="#eff6ff" stroke="#bfdbfe" stroke-width="1.8"/>
  <text x="869.0" y="603.0" text-anchor="middle" class="node-title">PRR security gate</text>
  <text x="985.0" y="758.0" class="footnote">Rendered with fireworks-tech-graph</text>
</svg>