<svg xmlns="http://www.w3.org/2000/svg" viewBox="0 0 1359 600" width="1359" height="600">
  <defs>
    <marker id="arrowA" markerWidth="10" markerHeight="7" refX="9" refY="3.5" orient="auto">
      <polygon points="0 0, 10 3.5, 0 7" fill="#7c3aed"/>
    </marker>
    <marker id="arrowB" markerWidth="10" markerHeight="7" refX="9" refY="3.5" orient="auto">
      <polygon points="0 0, 10 3.5, 0 7" fill="#10b981"/>
    </marker>
    <marker id="arrowC" markerWidth="10" markerHeight="7" refX="9" refY="3.5" orient="auto">
      <polygon points="0 0, 10 3.5, 0 7" fill="#2563eb"/>
    </marker>
    <marker id="arrowE" markerWidth="10" markerHeight="7" refX="9" refY="3.5" orient="auto">
      <polygon points="0 0, 10 3.5, 0 7" fill="#f97316"/>
    </marker>
    <marker id="arrowF" markerWidth="10" markerHeight="7" refX="9" refY="3.5" orient="auto">
      <polygon points="0 0, 10 3.5, 0 7" fill="#7c3aed"/>
    </marker>
    <marker id="arrowG" markerWidth="10" markerHeight="7" refX="9" refY="3.5" orient="auto">
      <polygon points="0 0, 10 3.5, 0 7" fill="#ef4444"/>
    </marker>
    <marker id="arrowH" markerWidth="10" markerHeight="7" refX="9" refY="3.5" orient="auto">
      <polygon points="0 0, 10 3.5, 0 7" fill="#6b7280"/>
    </marker>
    <filter id="shadowSoft" x="-20%" y="-20%" width="140%" height="160%">
      <feDropShadow dx="0" dy="3" stdDeviation="6" flood-color="#0f172a" flood-opacity="0.12"/>
    </filter>
    <filter id="shadowGlass" x="-20%" y="-20%" width="140%" height="160%">
      <feDropShadow dx="0" dy="10" stdDeviation="16" flood-color="#020617" flood-opacity="0.28"/>
    </filter>
    <style>
    text { font-family: 'Helvetica Neue', Helvetica, Arial, 'PingFang SC', 'Microsoft YaHei', 'Microsoft JhengHei', 'SimHei', sans-serif; }
    .title { font-size: 30px; font-weight: 700; fill: #111827; }
    .subtitle { font-size: 14px; font-weight: 500; fill: #6b7280; }
    .section { font-size: 13px; font-weight: 700; fill: #2563eb; letter-spacing: 1.4px; }
    .section-sub { font-size: 12px; font-weight: 500; fill: #94a3b8; }
    .node-title { font-size: 18px; font-weight: 700; fill: #111827; }
    .node-sub { font-size: 12px; font-weight: 500; fill: #6b7280; }
    .node-type { font-size: 12px; font-weight: 700; fill: #9ca3af; letter-spacing: 0.08em; }
    .arrow-label { font-size: 12px; font-weight: 600; fill: #6b7280; }
    .legend { font-size: 12px; font-weight: 500; fill: #6b7280; }
    .footnote { font-size: 12px; font-weight: 500; fill: #94a3b8; }
    </style>
  </defs>
  <rect width="1359.0" height="600.0" fill="#ffffff"/>
  <text x="679.5" y="56" text-anchor="middle" class="title">41.4.1 工程实现</text>
  <text x="679.5" y="82" text-anchor="middle" class="subtitle">part-10-economics-cases/chapter-41-token-factory.md:1606</text>
  <path d="M 318.0,161.0 L 338.4,161.0 L 369.6,273.0 L 390.0,273.0" fill="none" stroke="#7c3aed" stroke-width="2.4" marker-end="url(#arrowA)"/>
  <path d="M 591.0,273.0 L 663.0,273.0" fill="none" stroke="#7c3aed" stroke-width="2.4" marker-end="url(#arrowA)"/>
  <path d="M 318.0,273.0 L 338.4,273.0 L 338.4,332.0 L 642.6,332.0 L 642.6,273.0 L 663.0,273.0" fill="none" stroke="#7c3aed" stroke-width="2.4" marker-end="url(#arrowA)"/>
  <path d="M 307.5,385.0 L 327.9,385.0 L 642.6,273.0 L 663.0,273.0" fill="none" stroke="#7c3aed" stroke-width="2.4" marker-end="url(#arrowA)"/>
  <path d="M 899.0,273.0 L 919.4,273.0 L 989.1,155.0 L 1009.5,155.0" fill="none" stroke="#7c3aed" stroke-width="2.4" marker-end="url(#arrowA)"/>
  <path d="M 899.0,273.0 L 971.0,273.0" fill="none" stroke="#7c3aed" stroke-width="2.4" marker-end="url(#arrowA)"/>
  <path d="M 899.0,273.0 L 919.4,273.0 L 978.6,385.0 L 999.0,385.0" fill="none" stroke="#7c3aed" stroke-width="2.4" marker-end="url(#arrowA)"/>
  <rect x="96.0" y="126.0" width="222.0" height="70.0" rx="10.0" fill="#eff6ff" stroke="#bfdbfe" stroke-width="1.8"/>
  <text x="207.0" y="161.0" text-anchor="middle" class="node-title">container_runtime_change</text>
  <text x="207.0" y="183.0" text-anchor="middle" class="node-sub">record</text>
  <rect x="96.0" y="238.0" width="222.0" height="70.0" rx="10.0" fill="#faf5ff" stroke="#e9d5ff" stroke-width="1.8"/>
  <text x="207.0" y="273.0" text-anchor="middle" class="node-title">container_runtime_change</text>
  <text x="207.0" y="295.0" text-anchor="middle" class="node-sub">acceptance</text>
  <rect x="106.5" y="350.0" width="201.0" height="70.0" rx="10.0" fill="#f0fdfa" stroke="#99f6e4" stroke-width="1.8"/>
  <text x="207.0" y="385.0" text-anchor="middle" class="node-title">gpu_device_visibility</text>
  <text x="207.0" y="407.0" text-anchor="middle" class="node-sub">reconciliation</text>
  <rect x="390.0" y="238.0" width="201.0" height="70.0" rx="10.0" fill="#f0fdf4" stroke="#bbf7d0" stroke-width="1.8"/>
  <text x="490.5" y="273.0" text-anchor="middle" class="node-title">container_gpu_runtime</text>
  <text x="490.5" y="295.0" text-anchor="middle" class="node-sub">fault_tree_execution</text>
  <rect x="663.0" y="238.0" width="236.0" height="70.0" rx="10.0" fill="#fff7ed" stroke="#fed7aa" stroke-width="1.8"/>
  <text x="781.0" y="273.0" text-anchor="middle" class="node-title">container_runtime_incident</text>
  <text x="781.0" y="295.0" text-anchor="middle" class="node-sub">cost_record</text>
  <rect x="1009.5" y="126.0" width="215.0" height="58.0" rx="10.0" fill="#f8fafc" stroke="#cbd5e1" stroke-width="1.8"/>
  <text x="1117.0" y="155.0" text-anchor="middle" class="node-title">reliability_cost_ledger</text>
  <rect x="971.0" y="238.0" width="292.0" height="70.0" rx="10.0" fill="#eff6ff" stroke="#bfdbfe" stroke-width="1.8"/>
  <text x="1117.0" y="273.0" text-anchor="middle" class="node-title">billing</text>
  <text x="1117.0" y="295.0" text-anchor="middle" class="node-sub">tenant dispute if visible mismatch</text>
  <rect x="999.0" y="350.0" width="236.0" height="70.0" rx="10.0" fill="#f0fdf4" stroke="#bbf7d0" stroke-width="1.8"/>
  <text x="1117.0" y="385.0" text-anchor="middle" class="node-title">container runtime PRR gate</text>
  <text x="1117.0" y="407.0" text-anchor="middle" class="node-sub">update</text>
  <text x="1079.0" y="584.0" class="footnote">Rendered with fireworks-tech-graph</text>
</svg>