<svg xmlns="http://www.w3.org/2000/svg" viewBox="0 0 1040 600" width="1040" height="600">
  <defs>
    <marker id="arrowA" markerWidth="10" markerHeight="7" refX="9" refY="3.5" orient="auto">
      <polygon points="0 0, 10 3.5, 0 7" fill="#7c3aed"/>
    </marker>
    <marker id="arrowB" markerWidth="10" markerHeight="7" refX="9" refY="3.5" orient="auto">
      <polygon points="0 0, 10 3.5, 0 7" fill="#10b981"/>
    </marker>
    <marker id="arrowC" markerWidth="10" markerHeight="7" refX="9" refY="3.5" orient="auto">
      <polygon points="0 0, 10 3.5, 0 7" fill="#2563eb"/>
    </marker>
    <marker id="arrowE" markerWidth="10" markerHeight="7" refX="9" refY="3.5" orient="auto">
      <polygon points="0 0, 10 3.5, 0 7" fill="#f97316"/>
    </marker>
    <marker id="arrowF" markerWidth="10" markerHeight="7" refX="9" refY="3.5" orient="auto">
      <polygon points="0 0, 10 3.5, 0 7" fill="#7c3aed"/>
    </marker>
    <marker id="arrowG" markerWidth="10" markerHeight="7" refX="9" refY="3.5" orient="auto">
      <polygon points="0 0, 10 3.5, 0 7" fill="#ef4444"/>
    </marker>
    <marker id="arrowH" markerWidth="10" markerHeight="7" refX="9" refY="3.5" orient="auto">
      <polygon points="0 0, 10 3.5, 0 7" fill="#6b7280"/>
    </marker>
    <filter id="shadowSoft" x="-20%" y="-20%" width="140%" height="160%">
      <feDropShadow dx="0" dy="3" stdDeviation="6" flood-color="#0f172a" flood-opacity="0.12"/>
    </filter>
    <filter id="shadowGlass" x="-20%" y="-20%" width="140%" height="160%">
      <feDropShadow dx="0" dy="10" stdDeviation="16" flood-color="#020617" flood-opacity="0.28"/>
    </filter>
    <style>
    text { font-family: 'Helvetica Neue', Helvetica, Arial, 'PingFang SC', 'Microsoft YaHei', 'Microsoft JhengHei', 'SimHei', sans-serif; }
    .title { font-size: 30px; font-weight: 700; fill: #111827; }
    .subtitle { font-size: 14px; font-weight: 500; fill: #6b7280; }
    .section { font-size: 13px; font-weight: 700; fill: #2563eb; letter-spacing: 1.4px; }
    .section-sub { font-size: 12px; font-weight: 500; fill: #94a3b8; }
    .node-title { font-size: 18px; font-weight: 700; fill: #111827; }
    .node-sub { font-size: 12px; font-weight: 500; fill: #6b7280; }
    .node-type { font-size: 12px; font-weight: 700; fill: #9ca3af; letter-spacing: 0.08em; }
    .arrow-label { font-size: 12px; font-weight: 600; fill: #6b7280; }
    .legend { font-size: 12px; font-weight: 500; fill: #6b7280; }
    .footnote { font-size: 12px; font-weight: 500; fill: #94a3b8; }
    </style>
  </defs>
  <rect width="1040.0" height="600.0" fill="#ffffff"/>
  <text x="520.0" y="56" text-anchor="middle" class="title">12.3.2 LoRA 与 QLoRA</text>
  <text x="520.0" y="82" text-anchor="middle" class="subtitle">part-03-models/chapter-12-fine-tuning.md:96</text>
  <rect x="92.0" y="118.0" width="228.0" height="372.0" rx="16.0" fill="#f8fafc" stroke="#dbe5f1" stroke-width="1.4" stroke-dasharray="7 5"/>
  <text x="110.0" y="142.0" class="section">阶段 1</text>
  <text x="110.0" y="162.0" class="section-sub">base model -&gt; domain dataset</text>
  <rect x="358.0" y="118.0" width="290.0" height="372.0" rx="16.0" fill="#ffffff" stroke="#dbe5f1" stroke-width="1.4" stroke-dasharray="7 5"/>
  <text x="376.0" y="142.0" class="section">阶段 2</text>
  <text x="376.0" y="162.0" class="section-sub">fine-tuning job -&gt; eval gate</text>
  <rect x="686.0" y="118.0" width="262.0" height="372.0" rx="16.0" fill="#f8fafc" stroke="#dbe5f1" stroke-width="1.4" stroke-dasharray="7 5"/>
  <text x="704.0" y="142.0" class="section">阶段 3</text>
  <text x="704.0" y="162.0" class="section-sub">model registry -&gt; serving route</text>
  <path d="M 206.0,242.0 L 206.0,270.0" fill="none" stroke="#7c3aed" stroke-width="2.4" marker-end="url(#arrowA)"/>
  <path d="M 288.0,403.0 L 308.4,403.0 L 364.6,256.0 L 385.0,256.0" fill="none" stroke="#7c3aed" stroke-width="2.4" marker-end="url(#arrowA)"/>
  <path d="M 288.0,305.0 L 308.4,305.0 L 364.6,256.0 L 385.0,256.0" fill="none" stroke="#7c3aed" stroke-width="2.4" marker-end="url(#arrowA)"/>
  <path d="M 503.0,291.0 L 503.0,319.0" fill="none" stroke="#7c3aed" stroke-width="2.4" marker-end="url(#arrowA)"/>
  <path d="M 585.0,354.0 L 605.4,354.0 L 692.6,256.0 L 713.0,256.0" fill="none" stroke="#7c3aed" stroke-width="2.4" marker-end="url(#arrowA)"/>
  <path d="M 817.0,291.0 L 817.0,319.0" fill="none" stroke="#7c3aed" stroke-width="2.4" marker-end="url(#arrowA)"/>
  <rect x="124.0" y="172.0" width="164.0" height="70.0" rx="10.0" fill="#eff6ff" stroke="#bfdbfe" stroke-width="1.8"/>
  <text x="206.0" y="207.0" text-anchor="middle" class="node-title">base model</text>
  <text x="206.0" y="229.0" text-anchor="middle" class="node-sub">frozen weights</text>
  <rect x="124.0" y="270.0" width="164.0" height="70.0" rx="10.0" fill="#f0fdf4" stroke="#bbf7d0" stroke-width="1.8"/>
  <text x="206.0" y="305.0" text-anchor="middle" class="node-title">LoRA / adapter</text>
  <text x="206.0" y="327.0" text-anchor="middle" class="node-sub">小参数增量</text>
  <rect x="124.0" y="368.0" width="164.0" height="70.0" rx="10.0" fill="#fff7ed" stroke="#fed7aa" stroke-width="1.8"/>
  <text x="206.0" y="403.0" text-anchor="middle" class="node-title">domain dataset</text>
  <text x="206.0" y="425.0" text-anchor="middle" class="node-sub">清洗 / 脱敏 / 切分</text>
  <rect x="385.0" y="221.0" width="236.0" height="70.0" rx="10.0" fill="#faf5ff" stroke="#e9d5ff" stroke-width="1.8"/>
  <text x="503.0" y="256.0" text-anchor="middle" class="node-title">fine-tuning job</text>
  <text x="503.0" y="278.0" text-anchor="middle" class="node-sub">trainer / GPU / checkpoint</text>
  <rect x="421.0" y="319.0" width="164.0" height="70.0" rx="10.0" fill="#f0fdfa" stroke="#99f6e4" stroke-width="1.8"/>
  <text x="503.0" y="354.0" text-anchor="middle" class="node-title">eval gate</text>
  <text x="503.0" y="376.0" text-anchor="middle" class="node-sub">质量 / 安全 / 回归</text>
  <rect x="713.0" y="221.0" width="208.0" height="70.0" rx="10.0" fill="#f8fafc" stroke="#cbd5e1" stroke-width="1.8"/>
  <text x="817.0" y="256.0" text-anchor="middle" class="node-title">model registry</text>
  <text x="817.0" y="278.0" text-anchor="middle" class="node-sub">adapter + base binding</text>
  <rect x="735.0" y="319.0" width="164.0" height="70.0" rx="10.0" fill="#eff6ff" stroke="#bfdbfe" stroke-width="1.8"/>
  <text x="817.0" y="354.0" text-anchor="middle" class="node-title">serving route</text>
  <text x="817.0" y="376.0" text-anchor="middle" class="node-sub">租户定制模型</text>
  <line x1="42.0" y1="562.0" x2="72.0" y2="562.0" stroke="#7c3aed" stroke-width="2.4" marker-end="url(#arrowA)"/>
  <text x="82.0" y="566.0" class="legend">主路径 / 阶段推进</text>
  <text x="760.0" y="584.0" class="footnote">Rendered with fireworks-tech-graph</text>
</svg>