<svg xmlns="http://www.w3.org/2000/svg" viewBox="0 0 1427 922" width="1427" height="922">
  <defs>
    <marker id="arrowA" markerWidth="10" markerHeight="7" refX="9" refY="3.5" orient="auto">
      <polygon points="0 0, 10 3.5, 0 7" fill="#7c3aed"/>
    </marker>
    <marker id="arrowB" markerWidth="10" markerHeight="7" refX="9" refY="3.5" orient="auto">
      <polygon points="0 0, 10 3.5, 0 7" fill="#10b981"/>
    </marker>
    <marker id="arrowC" markerWidth="10" markerHeight="7" refX="9" refY="3.5" orient="auto">
      <polygon points="0 0, 10 3.5, 0 7" fill="#2563eb"/>
    </marker>
    <marker id="arrowE" markerWidth="10" markerHeight="7" refX="9" refY="3.5" orient="auto">
      <polygon points="0 0, 10 3.5, 0 7" fill="#f97316"/>
    </marker>
    <marker id="arrowF" markerWidth="10" markerHeight="7" refX="9" refY="3.5" orient="auto">
      <polygon points="0 0, 10 3.5, 0 7" fill="#7c3aed"/>
    </marker>
    <marker id="arrowG" markerWidth="10" markerHeight="7" refX="9" refY="3.5" orient="auto">
      <polygon points="0 0, 10 3.5, 0 7" fill="#ef4444"/>
    </marker>
    <marker id="arrowH" markerWidth="10" markerHeight="7" refX="9" refY="3.5" orient="auto">
      <polygon points="0 0, 10 3.5, 0 7" fill="#6b7280"/>
    </marker>
    <filter id="shadowSoft" x="-20%" y="-20%" width="140%" height="160%">
      <feDropShadow dx="0" dy="3" stdDeviation="6" flood-color="#0f172a" flood-opacity="0.12"/>
    </filter>
    <filter id="shadowGlass" x="-20%" y="-20%" width="140%" height="160%">
      <feDropShadow dx="0" dy="10" stdDeviation="16" flood-color="#020617" flood-opacity="0.28"/>
    </filter>
    <style>
    text { font-family: 'Helvetica Neue', Helvetica, Arial, 'PingFang SC', 'Microsoft YaHei', 'Microsoft JhengHei', 'SimHei', sans-serif; }
    .title { font-size: 30px; font-weight: 700; fill: #111827; }
    .subtitle { font-size: 14px; font-weight: 500; fill: #6b7280; }
    .section { font-size: 13px; font-weight: 700; fill: #2563eb; letter-spacing: 1.4px; }
    .section-sub { font-size: 12px; font-weight: 500; fill: #94a3b8; }
    .node-title { font-size: 18px; font-weight: 700; fill: #111827; }
    .node-sub { font-size: 12px; font-weight: 500; fill: #6b7280; }
    .node-type { font-size: 12px; font-weight: 700; fill: #9ca3af; letter-spacing: 0.08em; }
    .arrow-label { font-size: 12px; font-weight: 600; fill: #6b7280; }
    .legend { font-size: 12px; font-weight: 500; fill: #6b7280; }
    .footnote { font-size: 12px; font-weight: 500; fill: #94a3b8; }
    </style>
  </defs>
  <rect width="1427.0" height="922.0" fill="#ffffff"/>
  <text x="713.5" y="56" text-anchor="middle" class="title">14.4.1 工程实现</text>
  <text x="713.5" y="82" text-anchor="middle" class="subtitle">part-03-models/chapter-14-model-serving.md:688</text>
  <path d="M 269.0,379.0 L 289.4,379.0 L 320.6,435.0 L 341.0,435.0" fill="none" stroke="#7c3aed" stroke-width="2.4" marker-end="url(#arrowA)"/>
  <path d="M 265.5,491.0 L 285.9,491.0 L 320.6,435.0 L 341.0,435.0" fill="none" stroke="#7c3aed" stroke-width="2.4" marker-end="url(#arrowA)"/>
  <path d="M 549.0,435.0 L 569.4,435.0 L 604.1,155.0 L 624.5,155.0" fill="none" stroke="#7c3aed" stroke-width="2.4" marker-end="url(#arrowA)"/>
  <path d="M 549.0,435.0 L 569.4,435.0 L 611.1,273.0 L 631.5,273.0" fill="none" stroke="#7c3aed" stroke-width="2.4" marker-end="url(#arrowA)"/>
  <path d="M 549.0,435.0 L 569.4,435.0 L 604.1,385.0 L 624.5,385.0" fill="none" stroke="#7c3aed" stroke-width="2.4" marker-end="url(#arrowA)"/>
  <path d="M 549.0,435.0 L 569.4,435.0 L 600.6,497.0 L 621.0,497.0" fill="none" stroke="#7c3aed" stroke-width="2.4" marker-end="url(#arrowA)"/>
  <path d="M 549.0,435.0 L 569.4,435.0 L 618.1,609.0 L 638.5,609.0" fill="none" stroke="#7c3aed" stroke-width="2.4" marker-end="url(#arrowA)"/>
  <path d="M 549.0,435.0 L 569.4,435.0 L 607.6,721.0 L 628.0,721.0" fill="none" stroke="#7c3aed" stroke-width="2.4" marker-end="url(#arrowA)"/>
  <path d="M 822.0,721.0 L 842.4,721.0 L 880.6,435.0 L 901.0,435.0" fill="none" stroke="#7c3aed" stroke-width="2.4" marker-end="url(#arrowA)"/>
  <path d="M 1065.0,435.0 L 1085.4,435.0 L 1116.6,385.0 L 1137.0,385.0" fill="none" stroke="#7c3aed" stroke-width="2.4" marker-end="url(#arrowA)"/>
  <path d="M 1065.0,435.0 L 1085.4,435.0 L 1127.1,497.0 L 1147.5,497.0" fill="none" stroke="#7c3aed" stroke-width="2.4" marker-end="url(#arrowA)"/>
  <rect x="96.0" y="350.0" width="173.0" height="58.0" rx="10.0" fill="#eff6ff" stroke="#bfdbfe" stroke-width="1.8"/>
  <text x="182.5" y="379.0" text-anchor="middle" class="node-title">candidate release</text>
  <rect x="99.5" y="462.0" width="166.0" height="58.0" rx="10.0" fill="#fff7ed" stroke="#fed7aa" stroke-width="1.8"/>
  <text x="182.5" y="491.0" text-anchor="middle" class="node-title">baseline release</text>
  <rect x="341.0" y="406.0" width="208.0" height="58.0" rx="10.0" fill="#f0fdf4" stroke="#bbf7d0" stroke-width="1.8"/>
  <text x="445.0" y="435.0" text-anchor="middle" class="node-title">serving_rollback_drill</text>
  <rect x="624.5" y="126.0" width="201.0" height="58.0" rx="10.0" fill="#faf5ff" stroke="#e9d5ff" stroke-width="1.8"/>
  <text x="725.0" y="155.0" text-anchor="middle" class="node-title">Gateway route restore</text>
  <rect x="631.5" y="238.0" width="187.0" height="70.0" rx="10.0" fill="#f0fdfa" stroke="#99f6e4" stroke-width="1.8"/>
  <text x="725.0" y="273.0" text-anchor="middle" class="node-title">weights / tokenizer</text>
  <text x="725.0" y="295.0" text-anchor="middle" class="node-sub">template restore</text>
  <rect x="624.5" y="350.0" width="201.0" height="70.0" rx="10.0" fill="#f8fafc" stroke="#cbd5e1" stroke-width="1.8"/>
  <text x="725.0" y="385.0" text-anchor="middle" class="node-title">runtime</text>
  <text x="725.0" y="407.0" text-anchor="middle" class="node-sub">engine config restore</text>
  <rect x="621.0" y="462.0" width="208.0" height="70.0" rx="10.0" fill="#eff6ff" stroke="#bfdbfe" stroke-width="1.8"/>
  <text x="725.0" y="497.0" text-anchor="middle" class="node-title">cache invalidation and</text>
  <text x="725.0" y="519.0" text-anchor="middle" class="node-sub">warmup</text>
  <rect x="638.5" y="574.0" width="173.0" height="70.0" rx="10.0" fill="#f0fdf4" stroke="#bbf7d0" stroke-width="1.8"/>
  <text x="725.0" y="609.0" text-anchor="middle" class="node-title">usage and billing</text>
  <text x="725.0" y="631.0" text-anchor="middle" class="node-sub">reconciliation</text>
  <rect x="628.0" y="686.0" width="194.0" height="70.0" rx="10.0" fill="#fff7ed" stroke="#fed7aa" stroke-width="1.8"/>
  <text x="725.0" y="721.0" text-anchor="middle" class="node-title">quality and protocol</text>
  <text x="725.0" y="743.0" text-anchor="middle" class="node-sub">recovery probes</text>
  <rect x="901.0" y="406.0" width="164.0" height="58.0" rx="10.0" fill="#fff7ed" stroke="#fdba74" stroke-width="2.0"/>
  <rect x="907.0" y="412.0" width="152.0" height="46.0" rx="7.0" fill="none" stroke="#fdba74" stroke-width="1.2" opacity="0.65"/>
  <text x="983.0" y="424.0" text-anchor="middle" class="node-type">DECISION</text>
  <text x="983.0" y="441.0" text-anchor="middle" class="node-title">drill pass?</text>
  <rect x="1137.0" y="350.0" width="194.0" height="70.0" rx="10.0" fill="#f0fdfa" stroke="#99f6e4" stroke-width="1.8"/>
  <text x="1234.0" y="385.0" text-anchor="middle" class="node-title">production readiness</text>
  <text x="1234.0" y="407.0" text-anchor="middle" class="node-sub">review</text>
  <rect x="1147.5" y="462.0" width="173.0" height="70.0" rx="10.0" fill="#f8fafc" stroke="#cbd5e1" stroke-width="1.8"/>
  <text x="1234.0" y="497.0" text-anchor="middle" class="node-title">block release</text>
  <text x="1234.0" y="519.0" text-anchor="middle" class="node-sub">fix rollback path</text>
  <rect x="1083.0" y="380.0" width="36" height="20" rx="6" fill="#ffffff" opacity="0.94"/>
  <text x="1101.0" y="394.0" text-anchor="middle" class="arrow-label">yes</text>
  <rect x="1088.25" y="436.0" width="36" height="20" rx="6" fill="#ffffff" opacity="0.94"/>
  <text x="1106.25" y="450.0" text-anchor="middle" class="arrow-label">no</text>
  <text x="1147.0" y="906.0" class="footnote">Rendered with fireworks-tech-graph</text>
</svg>