<svg xmlns="http://www.w3.org/2000/svg" viewBox="0 0 972 892" width="972" height="892">
  <defs>
    <marker id="arrowA" markerWidth="10" markerHeight="7" refX="9" refY="3.5" orient="auto">
      <polygon points="0 0, 10 3.5, 0 7" fill="#7c3aed"/>
    </marker>
    <marker id="arrowB" markerWidth="10" markerHeight="7" refX="9" refY="3.5" orient="auto">
      <polygon points="0 0, 10 3.5, 0 7" fill="#10b981"/>
    </marker>
    <marker id="arrowC" markerWidth="10" markerHeight="7" refX="9" refY="3.5" orient="auto">
      <polygon points="0 0, 10 3.5, 0 7" fill="#2563eb"/>
    </marker>
    <marker id="arrowE" markerWidth="10" markerHeight="7" refX="9" refY="3.5" orient="auto">
      <polygon points="0 0, 10 3.5, 0 7" fill="#f97316"/>
    </marker>
    <marker id="arrowF" markerWidth="10" markerHeight="7" refX="9" refY="3.5" orient="auto">
      <polygon points="0 0, 10 3.5, 0 7" fill="#7c3aed"/>
    </marker>
    <marker id="arrowG" markerWidth="10" markerHeight="7" refX="9" refY="3.5" orient="auto">
      <polygon points="0 0, 10 3.5, 0 7" fill="#ef4444"/>
    </marker>
    <marker id="arrowH" markerWidth="10" markerHeight="7" refX="9" refY="3.5" orient="auto">
      <polygon points="0 0, 10 3.5, 0 7" fill="#6b7280"/>
    </marker>
    <filter id="shadowSoft" x="-20%" y="-20%" width="140%" height="160%">
      <feDropShadow dx="0" dy="3" stdDeviation="6" flood-color="#0f172a" flood-opacity="0.12"/>
    </filter>
    <filter id="shadowGlass" x="-20%" y="-20%" width="140%" height="160%">
      <feDropShadow dx="0" dy="10" stdDeviation="16" flood-color="#020617" flood-opacity="0.28"/>
    </filter>
    <style>
    text { font-family: 'Helvetica Neue', Helvetica, Arial, 'PingFang SC', 'Microsoft YaHei', 'Microsoft JhengHei', 'SimHei', sans-serif; }
    .title { font-size: 30px; font-weight: 700; fill: #111827; }
    .subtitle { font-size: 14px; font-weight: 500; fill: #6b7280; }
    .section { font-size: 13px; font-weight: 700; fill: #2563eb; letter-spacing: 1.4px; }
    .section-sub { font-size: 12px; font-weight: 500; fill: #94a3b8; }
    .node-title { font-size: 18px; font-weight: 700; fill: #111827; }
    .node-sub { font-size: 12px; font-weight: 500; fill: #6b7280; }
    .node-type { font-size: 12px; font-weight: 700; fill: #9ca3af; letter-spacing: 0.08em; }
    .arrow-label { font-size: 12px; font-weight: 600; fill: #6b7280; }
    .legend { font-size: 12px; font-weight: 500; fill: #6b7280; }
    .footnote { font-size: 12px; font-weight: 500; fill: #94a3b8; }
    </style>
  </defs>
  <rect width="972.0" height="892.0" fill="#ffffff"/>
  <text x="486.0" y="56" text-anchor="middle" class="title">22.2.2 系统架构</text>
  <text x="486.0" y="82" text-anchor="middle" class="subtitle">part-05-orchestration/chapter-22-gpu-on-kubernetes.md:72</text>
  <rect x="274.0" y="106.0" width="424.0" height="272.0" rx="16.0" fill="none" stroke="#dbe5f1" stroke-width="1.4" stroke-dasharray="6 5"/>
  <text x="292.0" y="130.0" class="section">KUBERNETES 控制面</text>
  <rect x="36.0" y="378.0" width="900.0" height="402.0" rx="16.0" fill="none" stroke="#dbe5f1" stroke-width="1.4" stroke-dasharray="6 5"/>
  <text x="54.0" y="402.0" class="section">GPU 节点</text>
  <path d="M 486.0,212.0 L 486.0,232.4 L 381.0,263.6 L 381.0,284.0" fill="none" stroke="#7c3aed" stroke-width="2.4" marker-end="url(#arrowA)"/>
  <path d="M 486.0,212.0 L 486.0,232.4 L 592.0,269.6 L 592.0,290.0" fill="none" stroke="#7c3aed" stroke-width="2.4" marker-end="url(#arrowA)"/>
  <path d="M 142.0,484.0 L 142.0,504.4 L 256.5,541.6 L 256.5,562.0" fill="none" stroke="#7c3aed" stroke-width="2.4" marker-end="url(#arrowA)"/>
  <path d="M 142.0,484.0 L 142.0,504.4 L 486.0,535.6 L 486.0,556.0" fill="none" stroke="#7c3aed" stroke-width="2.4" marker-end="url(#arrowA)"/>
  <path d="M 142.0,484.0 L 142.0,504.4 L 715.5,541.6 L 715.5,562.0" fill="none" stroke="#7c3aed" stroke-width="2.4" marker-end="url(#arrowA)"/>
  <path d="M 592.0,348.0 L 592.0,360.0 L 352.0,360.0 L 352.0,426.0" fill="none" stroke="#7c3aed" stroke-width="2.4" marker-end="url(#arrowA)"/>
  <path d="M 592.0,348.0 L 592.0,360.0 L 591.0,360.0 L 591.0,426.0" fill="none" stroke="#7c3aed" stroke-width="2.4" marker-end="url(#arrowA)"/>
  <path d="M 592.0,348.0 L 592.0,360.0 L 830.0,360.0 L 830.0,426.0" fill="none" stroke="#7c3aed" stroke-width="2.4" marker-end="url(#arrowA)"/>
  <path d="M 256.5,620.0 L 256.5,640.4 L 276.0,677.6 L 276.0,698.0" fill="none" stroke="#7c3aed" stroke-width="2.4" marker-end="url(#arrowA)"/>
  <path d="M 486.0,626.0 L 486.0,698.0" fill="none" stroke="#7c3aed" stroke-width="2.4" marker-end="url(#arrowA)"/>
  <path d="M 715.5,620.0 L 715.5,640.4 L 696.0,677.6 L 696.0,698.0" fill="none" stroke="#7c3aed" stroke-width="2.4" marker-end="url(#arrowA)"/>
  <path d="M 614.0,727.0 L 593.6,727.0 L 593.6,674.0 L 378.4,674.0 L 378.4,727.0 L 358.0,727.0" fill="none" stroke="#7c3aed" stroke-width="2.4" marker-end="url(#arrowA)"/>
  <path d="M 614.0,727.0 L 568.0,727.0" fill="none" stroke="#7c3aed" stroke-width="2.4" marker-end="url(#arrowA)"/>
  <path d="M 381.0,354.0 L 381.0,360.0 L 142.0,360.0 L 142.0,426.0" fill="none" stroke="#7c3aed" stroke-width="2.4" marker-end="url(#arrowA)"/>
  <rect x="404.0" y="154.0" width="164.0" height="58.0" rx="10.0" fill="#eff6ff" stroke="#bfdbfe" stroke-width="1.8"/>
  <text x="486.0" y="183.0" text-anchor="middle" class="node-title">API Server</text>
  <rect x="298.0" y="284.0" width="166.0" height="70.0" rx="10.0" fill="#f0fdf4" stroke="#bbf7d0" stroke-width="1.8"/>
  <text x="381.0" y="319.0" text-anchor="middle" class="node-title">Scheduler</text>
  <text x="381.0" y="341.0" text-anchor="middle" class="node-sub">scheduler plugin</text>
  <rect x="510.0" y="290.0" width="164.0" height="58.0" rx="10.0" fill="#fff7ed" stroke="#fed7aa" stroke-width="1.8"/>
  <text x="592.0" y="319.0" text-anchor="middle" class="node-title">GPU Operator</text>
  <rect x="60.0" y="426.0" width="164.0" height="58.0" rx="10.0" fill="#faf5ff" stroke="#e9d5ff" stroke-width="1.8"/>
  <text x="142.0" y="455.0" text-anchor="middle" class="node-title">kubelet</text>
  <rect x="270.0" y="426.0" width="164.0" height="58.0" rx="10.0" fill="#f0fdf4" stroke="#bbf7d0" stroke-width="1.8"/>
  <text x="352.0" y="455.0" text-anchor="middle" class="node-title">NVIDIA Driver</text>
  <rect x="480.0" y="426.0" width="222.0" height="58.0" rx="10.0" fill="#fff7ed" stroke="#fed7aa" stroke-width="1.8"/>
  <text x="591.0" y="455.0" text-anchor="middle" class="node-title">NVIDIA Container Toolkit</text>
  <rect x="748.0" y="426.0" width="164.0" height="58.0" rx="10.0" fill="#faf5ff" stroke="#e9d5ff" stroke-width="1.8"/>
  <text x="830.0" y="455.0" text-anchor="middle" class="node-title">DCGM Exporter</text>
  <rect x="170.0" y="562.0" width="173.0" height="58.0" rx="10.0" fill="#f0fdfa" stroke="#99f6e4" stroke-width="1.8"/>
  <text x="256.5" y="591.0" text-anchor="middle" class="node-title">GPU Device Plugin</text>
  <rect x="389.0" y="556.0" width="194.0" height="70.0" rx="10.0" fill="#f8fafc" stroke="#cbd5e1" stroke-width="1.8"/>
  <text x="486.0" y="591.0" text-anchor="middle" class="node-title">RDMA</text>
  <text x="486.0" y="613.0" text-anchor="middle" class="node-sub">SR-IOV Device Plugin</text>
  <rect x="629.0" y="562.0" width="173.0" height="58.0" rx="10.0" fill="#eff6ff" stroke="#bfdbfe" stroke-width="1.8"/>
  <text x="715.5" y="591.0" text-anchor="middle" class="node-title">container runtime</text>
  <rect x="194.0" y="698.0" width="164.0" height="58.0" rx="10.0" fill="#f0fdfa" stroke="#99f6e4" stroke-width="1.8"/>
  <text x="276.0" y="727.0" text-anchor="middle" class="node-title">GPU / MIG</text>
  <rect x="404.0" y="698.0" width="164.0" height="58.0" rx="10.0" fill="#f8fafc" stroke="#cbd5e1" stroke-width="1.8"/>
  <text x="486.0" y="727.0" text-anchor="middle" class="node-title">RDMA NIC</text>
  <rect x="614.0" y="698.0" width="164.0" height="58.0" rx="10.0" fill="#eff6ff" stroke="#bfdbfe" stroke-width="1.8"/>
  <text x="696.0" y="727.0" text-anchor="middle" class="node-title">AI Pod</text>
  <text x="692.0" y="876.0" class="footnote">Rendered with fireworks-tech-graph</text>
</svg>