<svg xmlns="http://www.w3.org/2000/svg" viewBox="0 0 960 1342" width="960" height="1342">
  <defs>
    <marker id="arrowA" markerWidth="10" markerHeight="7" refX="9" refY="3.5" orient="auto">
      <polygon points="0 0, 10 3.5, 0 7" fill="#7c3aed"/>
    </marker>
    <marker id="arrowB" markerWidth="10" markerHeight="7" refX="9" refY="3.5" orient="auto">
      <polygon points="0 0, 10 3.5, 0 7" fill="#10b981"/>
    </marker>
    <marker id="arrowC" markerWidth="10" markerHeight="7" refX="9" refY="3.5" orient="auto">
      <polygon points="0 0, 10 3.5, 0 7" fill="#2563eb"/>
    </marker>
    <marker id="arrowE" markerWidth="10" markerHeight="7" refX="9" refY="3.5" orient="auto">
      <polygon points="0 0, 10 3.5, 0 7" fill="#f97316"/>
    </marker>
    <marker id="arrowF" markerWidth="10" markerHeight="7" refX="9" refY="3.5" orient="auto">
      <polygon points="0 0, 10 3.5, 0 7" fill="#7c3aed"/>
    </marker>
    <marker id="arrowG" markerWidth="10" markerHeight="7" refX="9" refY="3.5" orient="auto">
      <polygon points="0 0, 10 3.5, 0 7" fill="#ef4444"/>
    </marker>
    <marker id="arrowH" markerWidth="10" markerHeight="7" refX="9" refY="3.5" orient="auto">
      <polygon points="0 0, 10 3.5, 0 7" fill="#6b7280"/>
    </marker>
    <filter id="shadowSoft" x="-20%" y="-20%" width="140%" height="160%">
      <feDropShadow dx="0" dy="3" stdDeviation="6" flood-color="#0f172a" flood-opacity="0.12"/>
    </filter>
    <filter id="shadowGlass" x="-20%" y="-20%" width="140%" height="160%">
      <feDropShadow dx="0" dy="10" stdDeviation="16" flood-color="#020617" flood-opacity="0.28"/>
    </filter>
    <style>
    text { font-family: 'Helvetica Neue', Helvetica, Arial, 'PingFang SC', 'Microsoft YaHei', 'Microsoft JhengHei', 'SimHei', sans-serif; }
    .title { font-size: 30px; font-weight: 700; fill: #111827; }
    .subtitle { font-size: 14px; font-weight: 500; fill: #6b7280; }
    .section { font-size: 13px; font-weight: 700; fill: #2563eb; letter-spacing: 1.4px; }
    .section-sub { font-size: 12px; font-weight: 500; fill: #94a3b8; }
    .node-title { font-size: 18px; font-weight: 700; fill: #111827; }
    .node-sub { font-size: 12px; font-weight: 500; fill: #6b7280; }
    .node-type { font-size: 12px; font-weight: 700; fill: #9ca3af; letter-spacing: 0.08em; }
    .arrow-label { font-size: 12px; font-weight: 600; fill: #6b7280; }
    .legend { font-size: 12px; font-weight: 500; fill: #6b7280; }
    .footnote { font-size: 12px; font-weight: 500; fill: #94a3b8; }
    </style>
  </defs>
  <rect width="960.0" height="1342.0" fill="#ffffff"/>
  <text x="480.0" y="56" text-anchor="middle" class="title">21.3.10 GPU 容器运行时与 NVIDIA Container Toolkit</text>
  <text x="480.0" y="82" text-anchor="middle" class="subtitle">part-05-orchestration/chapter-21-containers-kubernetes.md:342</text>
  <path d="M 480.0,224.0 L 480.0,296.0" fill="none" stroke="#7c3aed" stroke-width="2.4" marker-end="url(#arrowA)"/>
  <path d="M 480.0,366.0 L 480.0,438.0" fill="none" stroke="#7c3aed" stroke-width="2.4" marker-end="url(#arrowA)"/>
  <path d="M 480.0,508.0 L 480.0,580.0" fill="none" stroke="#7c3aed" stroke-width="2.4" marker-end="url(#arrowA)"/>
  <path d="M 480.0,650.0 L 480.0,722.0" fill="none" stroke="#7c3aed" stroke-width="2.4" marker-end="url(#arrowA)"/>
  <path d="M 480.0,780.0 L 480.0,800.4 L 321.5,831.6 L 321.5,852.0" fill="none" stroke="#7c3aed" stroke-width="2.4" marker-end="url(#arrowA)"/>
  <path d="M 480.0,780.0 L 480.0,800.4 L 624.5,831.6 L 624.5,852.0" fill="none" stroke="#7c3aed" stroke-width="2.4" marker-end="url(#arrowA)"/>
  <path d="M 624.5,922.0 L 624.5,942.4 L 480.0,973.6 L 480.0,994.0" fill="none" stroke="#7c3aed" stroke-width="2.4" marker-end="url(#arrowA)"/>
  <path d="M 480.0,1064.0 L 480.0,1136.0" fill="none" stroke="#7c3aed" stroke-width="2.4" marker-end="url(#arrowA)"/>
  <rect x="358.5" y="154.0" width="243.0" height="70.0" rx="10.0" fill="#eff6ff" stroke="#bfdbfe" stroke-width="1.8"/>
  <text x="480.0" y="189.0" text-anchor="middle" class="node-title">Pod Running</text>
  <text x="480.0" y="211.0" text-anchor="middle" class="node-sub">but GPU wrong / unavailable</text>
  <rect x="372.5" y="296.0" width="215.0" height="70.0" rx="10.0" fill="#f0fdf4" stroke="#bbf7d0" stroke-width="1.8"/>
  <text x="480.0" y="331.0" text-anchor="middle" class="node-title">gpu_assignment_record</text>
  <text x="480.0" y="353.0" text-anchor="middle" class="node-sub">kubelet + device plugin</text>
  <rect x="362.0" y="438.0" width="236.0" height="70.0" rx="10.0" fill="#fff7ed" stroke="#fed7aa" stroke-width="1.8"/>
  <text x="480.0" y="473.0" text-anchor="middle" class="node-title">oci_runtime_injection_diff</text>
  <text x="480.0" y="495.0" text-anchor="middle" class="node-sub">OCI spec / CDI / hook</text>
  <rect x="316.5" y="580.0" width="327.0" height="70.0" rx="10.0" fill="#faf5ff" stroke="#e9d5ff" stroke-width="1.8"/>
  <text x="480.0" y="615.0" text-anchor="middle" class="node-title">gpu_device_visibility</text>
  <text x="480.0" y="637.0" text-anchor="middle" class="node-sub">reconciliation / inside container facts</text>
  <rect x="398.0" y="722.0" width="164.0" height="58.0" rx="10.0" fill="#fff7ed" stroke="#fdba74" stroke-width="2.0"/>
  <rect x="404.0" y="728.0" width="152.0" height="46.0" rx="7.0" fill="none" stroke="#fdba74" stroke-width="1.2" opacity="0.65"/>
  <text x="480.0" y="740.0" text-anchor="middle" class="node-type">DECISION</text>
  <text x="480.0" y="757.0" text-anchor="middle" class="node-title">facts match?</text>
  <rect x="200.0" y="852.0" width="243.0" height="70.0" rx="10.0" fill="#f8fafc" stroke="#cbd5e1" stroke-width="1.8"/>
  <text x="321.5" y="887.0" text-anchor="middle" class="node-title">move upward</text>
  <text x="321.5" y="909.0" text-anchor="middle" class="node-sub">CUDA / NCCL / app readiness</text>
  <rect x="489.0" y="852.0" width="271.0" height="70.0" rx="10.0" fill="#eff6ff" stroke="#bfdbfe" stroke-width="1.8"/>
  <text x="624.5" y="887.0" text-anchor="middle" class="node-title">runtime investigation</text>
  <text x="624.5" y="909.0" text-anchor="middle" class="node-sub">RuntimeClass / CDI / hook / env</text>
  <rect x="327.0" y="994.0" width="306.0" height="70.0" rx="10.0" fill="#f0fdf4" stroke="#bbf7d0" stroke-width="1.8"/>
  <text x="480.0" y="1029.0" text-anchor="middle" class="node-title">container_gpu_runtime</text>
  <text x="480.0" y="1051.0" text-anchor="middle" class="node-sub">acceptance_matrix / retest node pool</text>
  <rect x="334.0" y="1136.0" width="292.0" height="70.0" rx="10.0" fill="#fff7ed" stroke="#fed7aa" stroke-width="1.8"/>
  <text x="480.0" y="1171.0" text-anchor="middle" class="node-title">resource pool state</text>
  <text x="480.0" y="1193.0" text-anchor="middle" class="node-sub">allocatable / limited / quarantine</text>
  <rect x="382.75" y="786.0" width="36" height="20" rx="6" fill="#ffffff" opacity="0.94"/>
  <text x="400.75" y="800.0" text-anchor="middle" class="arrow-label">yes</text>
  <rect x="534.25" y="786.0" width="36" height="20" rx="6" fill="#ffffff" opacity="0.94"/>
  <text x="552.25" y="800.0" text-anchor="middle" class="arrow-label">no</text>
  <text x="680.0" y="1326.0" class="footnote">Rendered with fireworks-tech-graph</text>
</svg>