<svg xmlns="http://www.w3.org/2000/svg" viewBox="0 0 1582 632" width="1582" height="632">
  <defs>
    <marker id="arrowA" markerWidth="10" markerHeight="7" refX="9" refY="3.5" orient="auto">
      <polygon points="0 0, 10 3.5, 0 7" fill="#7c3aed"/>
    </marker>
    <marker id="arrowB" markerWidth="10" markerHeight="7" refX="9" refY="3.5" orient="auto">
      <polygon points="0 0, 10 3.5, 0 7" fill="#10b981"/>
    </marker>
    <marker id="arrowC" markerWidth="10" markerHeight="7" refX="9" refY="3.5" orient="auto">
      <polygon points="0 0, 10 3.5, 0 7" fill="#2563eb"/>
    </marker>
    <marker id="arrowE" markerWidth="10" markerHeight="7" refX="9" refY="3.5" orient="auto">
      <polygon points="0 0, 10 3.5, 0 7" fill="#f97316"/>
    </marker>
    <marker id="arrowF" markerWidth="10" markerHeight="7" refX="9" refY="3.5" orient="auto">
      <polygon points="0 0, 10 3.5, 0 7" fill="#7c3aed"/>
    </marker>
    <marker id="arrowG" markerWidth="10" markerHeight="7" refX="9" refY="3.5" orient="auto">
      <polygon points="0 0, 10 3.5, 0 7" fill="#ef4444"/>
    </marker>
    <marker id="arrowH" markerWidth="10" markerHeight="7" refX="9" refY="3.5" orient="auto">
      <polygon points="0 0, 10 3.5, 0 7" fill="#6b7280"/>
    </marker>
    <filter id="shadowSoft" x="-20%" y="-20%" width="140%" height="160%">
      <feDropShadow dx="0" dy="3" stdDeviation="6" flood-color="#0f172a" flood-opacity="0.12"/>
    </filter>
    <filter id="shadowGlass" x="-20%" y="-20%" width="140%" height="160%">
      <feDropShadow dx="0" dy="10" stdDeviation="16" flood-color="#020617" flood-opacity="0.28"/>
    </filter>
    <style>
    text { font-family: 'Helvetica Neue', Helvetica, Arial, 'PingFang SC', 'Microsoft YaHei', 'Microsoft JhengHei', 'SimHei', sans-serif; }
    .title { font-size: 30px; font-weight: 700; fill: #111827; }
    .subtitle { font-size: 14px; font-weight: 500; fill: #6b7280; }
    .section { font-size: 13px; font-weight: 700; fill: #2563eb; letter-spacing: 1.4px; }
    .section-sub { font-size: 12px; font-weight: 500; fill: #94a3b8; }
    .node-title { font-size: 18px; font-weight: 700; fill: #111827; }
    .node-sub { font-size: 12px; font-weight: 500; fill: #6b7280; }
    .node-type { font-size: 12px; font-weight: 700; fill: #9ca3af; letter-spacing: 0.08em; }
    .arrow-label { font-size: 12px; font-weight: 600; fill: #6b7280; }
    .legend { font-size: 12px; font-weight: 500; fill: #6b7280; }
    .footnote { font-size: 12px; font-weight: 500; fill: #94a3b8; }
    </style>
  </defs>
  <rect width="1582.0" height="632.0" fill="#ffffff"/>
  <text x="791.0" y="56" text-anchor="middle" class="title">37.3.9 distributed tracing</text>
  <text x="791.0" y="82" text-anchor="middle" class="subtitle">part-09-reliability-observability/chapter-37-ai-factory-observability.md:823</text>
  <path d="M 142.0,224.0 L 142.0,244.4 L 791.0,275.6 L 791.0,296.0" fill="none" stroke="#7c3aed" stroke-width="2.4" marker-end="url(#arrowA)"/>
  <path d="M 377.5,218.0 L 377.5,238.4 L 791.0,275.6 L 791.0,296.0" fill="none" stroke="#7c3aed" stroke-width="2.4" marker-end="url(#arrowA)"/>
  <path d="M 645.5,224.0 L 645.5,244.4 L 791.0,275.6 L 791.0,296.0" fill="none" stroke="#7c3aed" stroke-width="2.4" marker-end="url(#arrowA)"/>
  <path d="M 896.0,224.0 L 896.0,244.4 L 791.0,275.6 L 791.0,296.0" fill="none" stroke="#7c3aed" stroke-width="2.4" marker-end="url(#arrowA)"/>
  <path d="M 1139.5,224.0 L 1139.5,244.4 L 791.0,275.6 L 791.0,296.0" fill="none" stroke="#7c3aed" stroke-width="2.4" marker-end="url(#arrowA)"/>
  <path d="M 1407.5,218.0 L 1407.5,238.4 L 791.0,275.6 L 791.0,296.0" fill="none" stroke="#7c3aed" stroke-width="2.4" marker-end="url(#arrowA)"/>
  <path d="M 791.0,354.0 L 791.0,374.4 L 547.5,405.6 L 547.5,426.0" fill="none" stroke="#7c3aed" stroke-width="2.4" marker-end="url(#arrowA)"/>
  <path d="M 791.0,354.0 L 791.0,374.4 L 850.5,411.6 L 850.5,432.0" fill="none" stroke="#7c3aed" stroke-width="2.4" marker-end="url(#arrowA)"/>
  <path d="M 791.0,354.0 L 791.0,374.4 L 1094.0,405.6 L 1094.0,426.0" fill="none" stroke="#7c3aed" stroke-width="2.4" marker-end="url(#arrowA)"/>
  <rect x="60.0" y="154.0" width="164.0" height="70.0" rx="10.0" fill="#eff6ff" stroke="#bfdbfe" stroke-width="1.8"/>
  <text x="142.0" y="189.0" text-anchor="middle" class="node-title">quality / cost</text>
  <text x="142.0" y="211.0" text-anchor="middle" class="node-sub">privacy alert</text>
  <rect x="270.0" y="160.0" width="215.0" height="58.0" rx="10.0" fill="#fff7ed" stroke="#fed7aa" stroke-width="1.8"/>
  <text x="377.5" y="189.0" text-anchor="middle" class="node-title">media_artifact_manifest</text>
  <rect x="531.0" y="154.0" width="229.0" height="70.0" rx="10.0" fill="#faf5ff" stroke="#e9d5ff" stroke-width="1.8"/>
  <text x="645.5" y="189.0" text-anchor="middle" class="node-title">media_processing_pipeline</text>
  <text x="645.5" y="211.0" text-anchor="middle" class="node-sub">record</text>
  <rect x="806.0" y="154.0" width="180.0" height="70.0" rx="10.0" fill="#f0fdfa" stroke="#99f6e4" stroke-width="1.8"/>
  <text x="896.0" y="189.0" text-anchor="middle" class="node-title">multimodal_serving</text>
  <text x="896.0" y="211.0" text-anchor="middle" class="node-sub">contract</text>
  <rect x="1032.0" y="154.0" width="215.0" height="70.0" rx="10.0" fill="#f8fafc" stroke="#cbd5e1" stroke-width="1.8"/>
  <text x="1139.5" y="189.0" text-anchor="middle" class="node-title">multimodal_quality_gate</text>
  <text x="1139.5" y="211.0" text-anchor="middle" class="node-sub">execution</text>
  <rect x="1293.0" y="160.0" width="229.0" height="58.0" rx="10.0" fill="#eff6ff" stroke="#bfdbfe" stroke-width="1.8"/>
  <text x="1407.5" y="189.0" text-anchor="middle" class="node-title">multimodal_metering_event</text>
  <rect x="673.0" y="296.0" width="236.0" height="58.0" rx="10.0" fill="#f0fdf4" stroke="#bbf7d0" stroke-width="1.8"/>
  <text x="791.0" y="325.0" text-anchor="middle" class="node-title">multimodal_evidence_bundle</text>
  <rect x="394.5" y="426.0" width="306.0" height="70.0" rx="10.0" fill="#f0fdf4" stroke="#bbf7d0" stroke-width="1.8"/>
  <text x="547.5" y="461.0" text-anchor="middle" class="node-title">failure layer</text>
  <text x="547.5" y="483.0" text-anchor="middle" class="node-sub">preprocess / model / render / policy</text>
  <rect x="746.5" y="432.0" width="208.0" height="58.0" rx="10.0" fill="#fff7ed" stroke="#fed7aa" stroke-width="1.8"/>
  <text x="850.5" y="461.0" text-anchor="middle" class="node-title">multimodal_cost_ledger</text>
  <rect x="1000.5" y="426.0" width="187.0" height="70.0" rx="10.0" fill="#faf5ff" stroke="#e9d5ff" stroke-width="1.8"/>
  <text x="1094.0" y="461.0" text-anchor="middle" class="node-title">multimodal_prr</text>
  <text x="1094.0" y="483.0" text-anchor="middle" class="node-sub">drill / gate update</text>
  <text x="1302.0" y="616.0" class="footnote">Rendered with fireworks-tech-graph</text>
</svg>