<svg xmlns="http://www.w3.org/2000/svg" viewBox="0 0 1597 404" width="1597" height="404">
  <defs>
    <marker id="arrowA" markerWidth="10" markerHeight="7" refX="9" refY="3.5" orient="auto">
      <polygon points="0 0, 10 3.5, 0 7" fill="#7c3aed"/>
    </marker>
    <marker id="arrowB" markerWidth="10" markerHeight="7" refX="9" refY="3.5" orient="auto">
      <polygon points="0 0, 10 3.5, 0 7" fill="#10b981"/>
    </marker>
    <marker id="arrowC" markerWidth="10" markerHeight="7" refX="9" refY="3.5" orient="auto">
      <polygon points="0 0, 10 3.5, 0 7" fill="#2563eb"/>
    </marker>
    <marker id="arrowE" markerWidth="10" markerHeight="7" refX="9" refY="3.5" orient="auto">
      <polygon points="0 0, 10 3.5, 0 7" fill="#f97316"/>
    </marker>
    <marker id="arrowF" markerWidth="10" markerHeight="7" refX="9" refY="3.5" orient="auto">
      <polygon points="0 0, 10 3.5, 0 7" fill="#7c3aed"/>
    </marker>
    <marker id="arrowG" markerWidth="10" markerHeight="7" refX="9" refY="3.5" orient="auto">
      <polygon points="0 0, 10 3.5, 0 7" fill="#ef4444"/>
    </marker>
    <marker id="arrowH" markerWidth="10" markerHeight="7" refX="9" refY="3.5" orient="auto">
      <polygon points="0 0, 10 3.5, 0 7" fill="#6b7280"/>
    </marker>
    <filter id="shadowSoft" x="-20%" y="-20%" width="140%" height="160%">
      <feDropShadow dx="0" dy="3" stdDeviation="6" flood-color="#0f172a" flood-opacity="0.12"/>
    </filter>
    <filter id="shadowGlass" x="-20%" y="-20%" width="140%" height="160%">
      <feDropShadow dx="0" dy="10" stdDeviation="16" flood-color="#020617" flood-opacity="0.28"/>
    </filter>
    <style>
    text { font-family: 'Helvetica Neue', Helvetica, Arial, 'PingFang SC', 'Microsoft YaHei', 'Microsoft JhengHei', 'SimHei', sans-serif; }
    .title { font-size: 30px; font-weight: 700; fill: #111827; }
    .subtitle { font-size: 14px; font-weight: 500; fill: #6b7280; }
    .section { font-size: 13px; font-weight: 700; fill: #2563eb; letter-spacing: 1.4px; }
    .section-sub { font-size: 12px; font-weight: 500; fill: #94a3b8; }
    .node-title { font-size: 18px; font-weight: 700; fill: #111827; }
    .node-sub { font-size: 12px; font-weight: 500; fill: #6b7280; }
    .node-type { font-size: 12px; font-weight: 700; fill: #9ca3af; letter-spacing: 0.08em; }
    .arrow-label { font-size: 12px; font-weight: 600; fill: #6b7280; }
    .legend { font-size: 12px; font-weight: 500; fill: #6b7280; }
    .footnote { font-size: 12px; font-weight: 500; fill: #94a3b8; }
    </style>
  </defs>
  <rect width="1597.0" height="404.0" fill="#ffffff"/>
  <text x="798.5" y="56" text-anchor="middle" class="title">14.4.1 工程实现</text>
  <text x="798.5" y="82" text-anchor="middle" class="subtitle">part-03-models/chapter-14-model-serving.md:523</text>
  <path d="M 293.5,155.0 L 313.9,155.0 L 362.6,217.0 L 383.0,217.0" fill="none" stroke="#7c3aed" stroke-width="2.4" marker-end="url(#arrowA)"/>
  <path d="M 311.0,267.0 L 331.4,267.0 L 362.6,217.0 L 383.0,217.0" fill="none" stroke="#7c3aed" stroke-width="2.4" marker-end="url(#arrowA)"/>
  <path d="M 563.0,217.0 L 583.4,217.0 L 614.6,161.0 L 635.0,161.0" fill="none" stroke="#7c3aed" stroke-width="2.4" marker-end="url(#arrowA)"/>
  <path d="M 948.0,161.0 L 968.4,161.0 L 999.6,217.0 L 1020.0,217.0" fill="none" stroke="#7c3aed" stroke-width="2.4" marker-end="url(#arrowA)"/>
  <path d="M 1200.0,217.0 L 1220.4,217.0 L 1251.6,161.0 L 1272.0,161.0" fill="none" stroke="#7c3aed" stroke-width="2.4" marker-end="url(#arrowA)"/>
  <path d="M 1200.0,217.0 L 1220.4,217.0 L 1251.6,267.0 L 1272.0,267.0" fill="none" stroke="#7c3aed" stroke-width="2.4" marker-end="url(#arrowA)"/>
  <path d="M 563.0,217.0 L 583.4,217.0 L 663.6,273.0 L 684.0,273.0" fill="none" stroke="#7c3aed" stroke-width="2.4" marker-end="url(#arrowA)"/>
  <rect x="113.5" y="126.0" width="180.0" height="58.0" rx="10.0" fill="#eff6ff" stroke="#bfdbfe" stroke-width="1.8"/>
  <text x="203.5" y="155.0" text-anchor="middle" class="node-title">multimodal request</text>
  <rect x="96.0" y="238.0" width="215.0" height="58.0" rx="10.0" fill="#fff7ed" stroke="#fed7aa" stroke-width="1.8"/>
  <text x="203.5" y="267.0" text-anchor="middle" class="node-title">media_artifact_manifest</text>
  <rect x="383.0" y="182.0" width="180.0" height="70.0" rx="10.0" fill="#f0fdf4" stroke="#bbf7d0" stroke-width="1.8"/>
  <text x="473.0" y="217.0" text-anchor="middle" class="node-title">multimodal_serving</text>
  <text x="473.0" y="239.0" text-anchor="middle" class="node-sub">contract</text>
  <rect x="635.0" y="126.0" width="313.0" height="70.0" rx="10.0" fill="#faf5ff" stroke="#e9d5ff" stroke-width="1.8"/>
  <text x="791.5" y="161.0" text-anchor="middle" class="node-title">processor / encoder</text>
  <text x="791.5" y="183.0" text-anchor="middle" class="node-sub">OCR refs / image tiles / audio chunks</text>
  <rect x="684.0" y="238.0" width="215.0" height="70.0" rx="10.0" fill="#f0fdf4" stroke="#bbf7d0" stroke-width="1.8"/>
  <text x="791.5" y="273.0" text-anchor="middle" class="node-title">multimodal_quality_gate</text>
  <text x="791.5" y="295.0" text-anchor="middle" class="node-sub">execution</text>
  <rect x="1020.0" y="182.0" width="180.0" height="70.0" rx="10.0" fill="#f0fdfa" stroke="#99f6e4" stroke-width="1.8"/>
  <text x="1110.0" y="217.0" text-anchor="middle" class="node-title">multimodal runtime</text>
  <text x="1110.0" y="239.0" text-anchor="middle" class="node-sub">prefill / decode</text>
  <rect x="1272.0" y="126.0" width="229.0" height="70.0" rx="10.0" fill="#f8fafc" stroke="#cbd5e1" stroke-width="1.8"/>
  <text x="1386.5" y="161.0" text-anchor="middle" class="node-title">answer + citations</text>
  <text x="1386.5" y="183.0" text-anchor="middle" class="node-sub">page / region / timestamp</text>
  <rect x="1272.0" y="238.0" width="229.0" height="58.0" rx="10.0" fill="#eff6ff" stroke="#bfdbfe" stroke-width="1.8"/>
  <text x="1386.5" y="267.0" text-anchor="middle" class="node-title">multimodal_metering_event</text>
  <text x="1317.0" y="388.0" class="footnote">Rendered with fireworks-tech-graph</text>
</svg>