<svg xmlns="http://www.w3.org/2000/svg" viewBox="0 0 1590 600" width="1590" height="600">
  <defs>
    <marker id="arrowA" markerWidth="10" markerHeight="7" refX="9" refY="3.5" orient="auto">
      <polygon points="0 0, 10 3.5, 0 7" fill="#7c3aed"/>
    </marker>
    <marker id="arrowB" markerWidth="10" markerHeight="7" refX="9" refY="3.5" orient="auto">
      <polygon points="0 0, 10 3.5, 0 7" fill="#10b981"/>
    </marker>
    <marker id="arrowC" markerWidth="10" markerHeight="7" refX="9" refY="3.5" orient="auto">
      <polygon points="0 0, 10 3.5, 0 7" fill="#2563eb"/>
    </marker>
    <marker id="arrowE" markerWidth="10" markerHeight="7" refX="9" refY="3.5" orient="auto">
      <polygon points="0 0, 10 3.5, 0 7" fill="#f97316"/>
    </marker>
    <marker id="arrowF" markerWidth="10" markerHeight="7" refX="9" refY="3.5" orient="auto">
      <polygon points="0 0, 10 3.5, 0 7" fill="#7c3aed"/>
    </marker>
    <marker id="arrowG" markerWidth="10" markerHeight="7" refX="9" refY="3.5" orient="auto">
      <polygon points="0 0, 10 3.5, 0 7" fill="#ef4444"/>
    </marker>
    <marker id="arrowH" markerWidth="10" markerHeight="7" refX="9" refY="3.5" orient="auto">
      <polygon points="0 0, 10 3.5, 0 7" fill="#6b7280"/>
    </marker>
    <filter id="shadowSoft" x="-20%" y="-20%" width="140%" height="160%">
      <feDropShadow dx="0" dy="3" stdDeviation="6" flood-color="#0f172a" flood-opacity="0.12"/>
    </filter>
    <filter id="shadowGlass" x="-20%" y="-20%" width="140%" height="160%">
      <feDropShadow dx="0" dy="10" stdDeviation="16" flood-color="#020617" flood-opacity="0.28"/>
    </filter>
    <style>
    text { font-family: 'Helvetica Neue', Helvetica, Arial, 'PingFang SC', 'Microsoft YaHei', 'Microsoft JhengHei', 'SimHei', sans-serif; }
    .title { font-size: 30px; font-weight: 700; fill: #111827; }
    .subtitle { font-size: 14px; font-weight: 500; fill: #6b7280; }
    .section { font-size: 13px; font-weight: 700; fill: #2563eb; letter-spacing: 1.4px; }
    .section-sub { font-size: 12px; font-weight: 500; fill: #94a3b8; }
    .node-title { font-size: 18px; font-weight: 700; fill: #111827; }
    .node-sub { font-size: 12px; font-weight: 500; fill: #6b7280; }
    .node-type { font-size: 12px; font-weight: 700; fill: #9ca3af; letter-spacing: 0.08em; }
    .arrow-label { font-size: 12px; font-weight: 600; fill: #6b7280; }
    .legend { font-size: 12px; font-weight: 500; fill: #6b7280; }
    .footnote { font-size: 12px; font-weight: 500; fill: #94a3b8; }
    </style>
  </defs>
  <rect width="1590.0" height="600.0" fill="#ffffff"/>
  <text x="795.0" y="56" text-anchor="middle" class="title">41.4.1 工程实现</text>
  <text x="795.0" y="82" text-anchor="middle" class="subtitle">part-10-economics-cases/chapter-41-token-factory.md:1563</text>
  <path d="M 300.5,161.0 L 320.9,161.0 L 376.6,273.0 L 397.0,273.0" fill="none" stroke="#7c3aed" stroke-width="2.4" marker-end="url(#arrowA)"/>
  <path d="M 619.0,273.0 L 691.0,273.0" fill="none" stroke="#7c3aed" stroke-width="2.4" marker-end="url(#arrowA)"/>
  <path d="M 920.0,273.0 L 992.0,273.0" fill="none" stroke="#7c3aed" stroke-width="2.4" marker-end="url(#arrowA)"/>
  <path d="M 311.0,267.0 L 331.4,267.0 L 971.6,273.0 L 992.0,273.0" fill="none" stroke="#7c3aed" stroke-width="2.4" marker-end="url(#arrowA)"/>
  <path d="M 325.0,385.0 L 345.4,385.0 L 971.6,273.0 L 992.0,273.0" fill="none" stroke="#7c3aed" stroke-width="2.4" marker-end="url(#arrowA)"/>
  <path d="M 1207.0,273.0 L 1227.4,273.0 L 1258.6,155.0 L 1279.0,155.0" fill="none" stroke="#7c3aed" stroke-width="2.4" marker-end="url(#arrowA)"/>
  <path d="M 1207.0,273.0 L 1304.5,273.0" fill="none" stroke="#7c3aed" stroke-width="2.4" marker-end="url(#arrowA)"/>
  <path d="M 1207.0,273.0 L 1227.4,273.0 L 1258.6,385.0 L 1279.0,385.0" fill="none" stroke="#7c3aed" stroke-width="2.4" marker-end="url(#arrowA)"/>
  <rect x="120.5" y="126.0" width="180.0" height="70.0" rx="10.0" fill="#eff6ff" stroke="#bfdbfe" stroke-width="1.8"/>
  <text x="210.5" y="161.0" text-anchor="middle" class="node-title">gpu_resource_claim</text>
  <text x="210.5" y="183.0" text-anchor="middle" class="node-sub">contract</text>
  <rect x="110.0" y="238.0" width="201.0" height="58.0" rx="10.0" fill="#f0fdfa" stroke="#99f6e4" stroke-width="1.8"/>
  <text x="210.5" y="267.0" text-anchor="middle" class="node-title">queue_fairness_ledger</text>
  <rect x="96.0" y="350.0" width="229.0" height="70.0" rx="10.0" fill="#f8fafc" stroke="#cbd5e1" stroke-width="1.8"/>
  <text x="210.5" y="385.0" text-anchor="middle" class="node-title">resource_claim_acceptance</text>
  <text x="210.5" y="407.0" text-anchor="middle" class="node-sub">matrix</text>
  <rect x="397.0" y="238.0" width="222.0" height="70.0" rx="10.0" fill="#f0fdf4" stroke="#bbf7d0" stroke-width="1.8"/>
  <text x="508.0" y="273.0" text-anchor="middle" class="node-title">resource_claim_admission</text>
  <text x="508.0" y="295.0" text-anchor="middle" class="node-sub">record</text>
  <rect x="691.0" y="238.0" width="229.0" height="70.0" rx="10.0" fill="#fff7ed" stroke="#fed7aa" stroke-width="1.8"/>
  <text x="805.5" y="273.0" text-anchor="middle" class="node-title">resource_claim_fault_tree</text>
  <text x="805.5" y="295.0" text-anchor="middle" class="node-sub">execution</text>
  <rect x="992.0" y="238.0" width="215.0" height="70.0" rx="10.0" fill="#faf5ff" stroke="#e9d5ff" stroke-width="1.8"/>
  <text x="1099.5" y="273.0" text-anchor="middle" class="node-title">resource_claim_incident</text>
  <text x="1099.5" y="295.0" text-anchor="middle" class="node-sub">cost_record</text>
  <rect x="1279.0" y="126.0" width="215.0" height="58.0" rx="10.0" fill="#eff6ff" stroke="#bfdbfe" stroke-width="1.8"/>
  <text x="1386.5" y="155.0" text-anchor="middle" class="node-title">reliability_cost_ledger</text>
  <rect x="1304.5" y="238.0" width="164.0" height="70.0" rx="10.0" fill="#f0fdf4" stroke="#bbf7d0" stroke-width="1.8"/>
  <text x="1386.5" y="273.0" text-anchor="middle" class="node-title">billing hold</text>
  <text x="1386.5" y="295.0" text-anchor="middle" class="node-sub">dispute replay</text>
  <rect x="1279.0" y="350.0" width="215.0" height="70.0" rx="10.0" fill="#fff7ed" stroke="#fed7aa" stroke-width="1.8"/>
  <text x="1386.5" y="385.0" text-anchor="middle" class="node-title">resource claim PRR gate</text>
  <text x="1386.5" y="407.0" text-anchor="middle" class="node-sub">update</text>
  <text x="1310.0" y="584.0" class="footnote">Rendered with fireworks-tech-graph</text>
</svg>