<svg xmlns="http://www.w3.org/2000/svg" viewBox="0 0 1462 600" width="1462" height="600">
  <defs>
    <marker id="arrowA" markerWidth="10" markerHeight="7" refX="9" refY="3.5" orient="auto">
      <polygon points="0 0, 10 3.5, 0 7" fill="#7c3aed"/>
    </marker>
    <marker id="arrowB" markerWidth="10" markerHeight="7" refX="9" refY="3.5" orient="auto">
      <polygon points="0 0, 10 3.5, 0 7" fill="#10b981"/>
    </marker>
    <marker id="arrowC" markerWidth="10" markerHeight="7" refX="9" refY="3.5" orient="auto">
      <polygon points="0 0, 10 3.5, 0 7" fill="#2563eb"/>
    </marker>
    <marker id="arrowE" markerWidth="10" markerHeight="7" refX="9" refY="3.5" orient="auto">
      <polygon points="0 0, 10 3.5, 0 7" fill="#f97316"/>
    </marker>
    <marker id="arrowF" markerWidth="10" markerHeight="7" refX="9" refY="3.5" orient="auto">
      <polygon points="0 0, 10 3.5, 0 7" fill="#7c3aed"/>
    </marker>
    <marker id="arrowG" markerWidth="10" markerHeight="7" refX="9" refY="3.5" orient="auto">
      <polygon points="0 0, 10 3.5, 0 7" fill="#ef4444"/>
    </marker>
    <marker id="arrowH" markerWidth="10" markerHeight="7" refX="9" refY="3.5" orient="auto">
      <polygon points="0 0, 10 3.5, 0 7" fill="#6b7280"/>
    </marker>
    <filter id="shadowSoft" x="-20%" y="-20%" width="140%" height="160%">
      <feDropShadow dx="0" dy="3" stdDeviation="6" flood-color="#0f172a" flood-opacity="0.12"/>
    </filter>
    <filter id="shadowGlass" x="-20%" y="-20%" width="140%" height="160%">
      <feDropShadow dx="0" dy="10" stdDeviation="16" flood-color="#020617" flood-opacity="0.28"/>
    </filter>
    <style>
    text { font-family: 'Helvetica Neue', Helvetica, Arial, 'PingFang SC', 'Microsoft YaHei', 'Microsoft JhengHei', 'SimHei', sans-serif; }
    .title { font-size: 30px; font-weight: 700; fill: #111827; }
    .subtitle { font-size: 14px; font-weight: 500; fill: #6b7280; }
    .section { font-size: 13px; font-weight: 700; fill: #2563eb; letter-spacing: 1.4px; }
    .section-sub { font-size: 12px; font-weight: 500; fill: #94a3b8; }
    .node-title { font-size: 18px; font-weight: 700; fill: #111827; }
    .node-sub { font-size: 12px; font-weight: 500; fill: #6b7280; }
    .node-type { font-size: 12px; font-weight: 700; fill: #9ca3af; letter-spacing: 0.08em; }
    .arrow-label { font-size: 12px; font-weight: 600; fill: #6b7280; }
    .legend { font-size: 12px; font-weight: 500; fill: #6b7280; }
    .footnote { font-size: 12px; font-weight: 500; fill: #94a3b8; }
    </style>
  </defs>
  <rect width="1462.0" height="600.0" fill="#ffffff"/>
  <text x="731.0" y="56" text-anchor="middle" class="title">0.2.2 系统架构</text>
  <text x="731.0" y="82" text-anchor="middle" class="subtitle">part-00-introduction/chapter-00-from-datacenter-to-ai-factory.md:62</text>
  <rect x="42.0" y="118.0" width="434.0" height="372.0" rx="16.0" fill="#f8fafc" stroke="#dbe5f1" stroke-width="1.4" stroke-dasharray="7 5"/>
  <text x="60.0" y="142.0" class="section">阶段 1</text>
  <text x="60.0" y="162.0" class="section-sub">Application -&gt; Model</text>
  <rect x="514.0" y="118.0" width="434.0" height="372.0" rx="16.0" fill="#ffffff" stroke="#dbe5f1" stroke-width="1.4" stroke-dasharray="7 5"/>
  <text x="532.0" y="142.0" class="section">阶段 2</text>
  <text x="532.0" y="162.0" class="section-sub">Runtime -&gt; GPU IaaS</text>
  <rect x="986.0" y="118.0" width="434.0" height="372.0" rx="16.0" fill="#f8fafc" stroke="#dbe5f1" stroke-width="1.4" stroke-dasharray="7 5"/>
  <text x="1004.0" y="142.0" class="section">阶段 3</text>
  <text x="1004.0" y="162.0" class="section-sub">Network / Storage -&gt; Physical</text>
  <path d="M 259.0,242.0 L 259.0,270.0" fill="none" stroke="#7c3aed" stroke-width="2.4" marker-end="url(#arrowA)"/>
  <path d="M 259.0,340.0 L 259.0,368.0" fill="none" stroke="#7c3aed" stroke-width="2.4" marker-end="url(#arrowA)"/>
  <path d="M 377.0,403.0 L 397.4,403.0 L 571.6,207.0 L 592.0,207.0" fill="none" stroke="#7c3aed" stroke-width="2.4" marker-end="url(#arrowA)"/>
  <path d="M 731.0,242.0 L 731.0,270.0" fill="none" stroke="#7c3aed" stroke-width="2.4" marker-end="url(#arrowA)"/>
  <path d="M 731.0,340.0 L 731.0,368.0" fill="none" stroke="#7c3aed" stroke-width="2.4" marker-end="url(#arrowA)"/>
  <path d="M 880.5,403.0 L 900.9,403.0 L 992.6,256.0 L 1013.0,256.0" fill="none" stroke="#7c3aed" stroke-width="2.4" marker-end="url(#arrowA)"/>
  <path d="M 1203.0,291.0 L 1203.0,319.0" fill="none" stroke="#7c3aed" stroke-width="2.4" marker-end="url(#arrowA)"/>
  <rect x="109.5" y="172.0" width="299.0" height="70.0" rx="10.0" fill="#eff6ff" stroke="#bfdbfe" stroke-width="1.8"/>
  <text x="259.0" y="207.0" text-anchor="middle" class="node-title">Application</text>
  <text x="259.0" y="229.0" text-anchor="middle" class="node-sub">Chat / Agent / RAG / 办公 / 编程 / 行业应用</text>
  <rect x="69.0" y="270.0" width="380.0" height="70.0" rx="10.0" fill="#f0fdf4" stroke="#bbf7d0" stroke-width="1.8"/>
  <text x="259.0" y="305.0" text-anchor="middle" class="node-title">Platform</text>
  <text x="259.0" y="327.0" text-anchor="middle" class="node-sub">MaaS / API Gateway / Agent Platform / Observability / B...</text>
  <rect x="141.0" y="368.0" width="236.0" height="70.0" rx="10.0" fill="#fff7ed" stroke="#fed7aa" stroke-width="1.8"/>
  <text x="259.0" y="403.0" text-anchor="middle" class="node-title">Model</text>
  <text x="259.0" y="425.0" text-anchor="middle" class="node-sub">预训练 / 后训练 / 微调 / 评测 / 模型服务</text>
  <rect x="592.0" y="172.0" width="278.0" height="70.0" rx="10.0" fill="#faf5ff" stroke="#e9d5ff" stroke-width="1.8"/>
  <text x="731.0" y="207.0" text-anchor="middle" class="node-title">Runtime</text>
  <text x="731.0" y="229.0" text-anchor="middle" class="node-sub">CUDA / NCCL / RDMA / 推理引擎 / 训练框架</text>
  <rect x="541.0" y="270.0" width="380.0" height="70.0" rx="10.0" fill="#f0fdfa" stroke="#99f6e4" stroke-width="1.8"/>
  <text x="731.0" y="305.0" text-anchor="middle" class="node-title">Orchestration</text>
  <text x="731.0" y="327.0" text-anchor="middle" class="node-sub">Container Runtime / Kubernetes / Slurm / Volcano / Kueu...</text>
  <rect x="581.5" y="368.0" width="299.0" height="70.0" rx="10.0" fill="#f8fafc" stroke="#cbd5e1" stroke-width="1.8"/>
  <text x="731.0" y="403.0" text-anchor="middle" class="node-title">GPU IaaS</text>
  <text x="731.0" y="425.0" text-anchor="middle" class="node-sub">裸金属 / 虚拟化 / GPU 资源池 / 镜像 / 驱动 / 初始化</text>
  <rect x="1013.0" y="221.0" width="380.0" height="70.0" rx="10.0" fill="#eff6ff" stroke="#bfdbfe" stroke-width="1.8"/>
  <text x="1203.0" y="256.0" text-anchor="middle" class="node-title">Network / Storage</text>
  <text x="1203.0" y="278.0" text-anchor="middle" class="node-sub">NVLink / NVSwitch / InfiniBand / RoCE / Object Storage...</text>
  <rect x="1013.0" y="319.0" width="380.0" height="70.0" rx="10.0" fill="#f0fdf4" stroke="#bbf7d0" stroke-width="1.8"/>
  <text x="1203.0" y="354.0" text-anchor="middle" class="node-title">Physical</text>
  <text x="1203.0" y="376.0" text-anchor="middle" class="node-sub">机房 / 电力 / 制冷 / GPU / CPU / DPU / NIC / Switch / Storage</text>
  <line x1="42.0" y1="562.0" x2="72.0" y2="562.0" stroke="#7c3aed" stroke-width="2.4" marker-end="url(#arrowA)"/>
  <text x="82.0" y="566.0" class="legend">主路径 / 阶段推进</text>
  <text x="1182.0" y="584.0" class="footnote">Rendered with fireworks-tech-graph</text>
</svg>