<svg xmlns="http://www.w3.org/2000/svg" viewBox="0 0 2475 1034" width="2475" height="1034">
  <defs>
    <marker id="arrowA" markerWidth="10" markerHeight="7" refX="9" refY="3.5" orient="auto">
      <polygon points="0 0, 10 3.5, 0 7" fill="#7c3aed"/>
    </marker>
    <marker id="arrowB" markerWidth="10" markerHeight="7" refX="9" refY="3.5" orient="auto">
      <polygon points="0 0, 10 3.5, 0 7" fill="#10b981"/>
    </marker>
    <marker id="arrowC" markerWidth="10" markerHeight="7" refX="9" refY="3.5" orient="auto">
      <polygon points="0 0, 10 3.5, 0 7" fill="#2563eb"/>
    </marker>
    <marker id="arrowE" markerWidth="10" markerHeight="7" refX="9" refY="3.5" orient="auto">
      <polygon points="0 0, 10 3.5, 0 7" fill="#f97316"/>
    </marker>
    <marker id="arrowF" markerWidth="10" markerHeight="7" refX="9" refY="3.5" orient="auto">
      <polygon points="0 0, 10 3.5, 0 7" fill="#7c3aed"/>
    </marker>
    <marker id="arrowG" markerWidth="10" markerHeight="7" refX="9" refY="3.5" orient="auto">
      <polygon points="0 0, 10 3.5, 0 7" fill="#ef4444"/>
    </marker>
    <marker id="arrowH" markerWidth="10" markerHeight="7" refX="9" refY="3.5" orient="auto">
      <polygon points="0 0, 10 3.5, 0 7" fill="#6b7280"/>
    </marker>
    <filter id="shadowSoft" x="-20%" y="-20%" width="140%" height="160%">
      <feDropShadow dx="0" dy="3" stdDeviation="6" flood-color="#0f172a" flood-opacity="0.12"/>
    </filter>
    <filter id="shadowGlass" x="-20%" y="-20%" width="140%" height="160%">
      <feDropShadow dx="0" dy="10" stdDeviation="16" flood-color="#020617" flood-opacity="0.28"/>
    </filter>
    <style>
    text { font-family: 'Helvetica Neue', Helvetica, Arial, 'PingFang SC', 'Microsoft YaHei', 'Microsoft JhengHei', 'SimHei', sans-serif; }
    .title { font-size: 30px; font-weight: 700; fill: #111827; }
    .subtitle { font-size: 14px; font-weight: 500; fill: #6b7280; }
    .section { font-size: 13px; font-weight: 700; fill: #2563eb; letter-spacing: 1.4px; }
    .section-sub { font-size: 12px; font-weight: 500; fill: #94a3b8; }
    .node-title { font-size: 18px; font-weight: 700; fill: #111827; }
    .node-sub { font-size: 12px; font-weight: 500; fill: #6b7280; }
    .node-type { font-size: 12px; font-weight: 700; fill: #9ca3af; letter-spacing: 0.08em; }
    .arrow-label { font-size: 12px; font-weight: 600; fill: #6b7280; }
    .legend { font-size: 12px; font-weight: 500; fill: #6b7280; }
    .footnote { font-size: 12px; font-weight: 500; fill: #94a3b8; }
    </style>
  </defs>
  <rect width="2475.0" height="1034.0" fill="#ffffff"/>
  <text x="1237.5" y="56" text-anchor="middle" class="title">39.4.1 工程实现</text>
  <text x="1237.5" y="82" text-anchor="middle" class="subtitle">part-09-reliability-observability/chapter-39-troubleshooting.md:1339</text>
  <path d="M 1237.5,224.0 L 1237.5,296.0" fill="none" stroke="#7c3aed" stroke-width="2.4" marker-end="url(#arrowA)"/>
  <path d="M 1237.5,354.0 L 1237.5,374.4 L 922.5,405.6 L 922.5,426.0" fill="none" stroke="#7c3aed" stroke-width="2.4" marker-end="url(#arrowA)"/>
  <path d="M 1237.5,354.0 L 1237.5,374.4 L 1132.5,405.6 L 1132.5,426.0" fill="none" stroke="#7c3aed" stroke-width="2.4" marker-end="url(#arrowA)"/>
  <path d="M 1237.5,354.0 L 1237.5,374.4 L 1342.5,405.6 L 1342.5,426.0" fill="none" stroke="#7c3aed" stroke-width="2.4" marker-end="url(#arrowA)"/>
  <path d="M 1237.5,354.0 L 1237.5,374.4 L 1552.5,405.6 L 1552.5,426.0" fill="none" stroke="#7c3aed" stroke-width="2.4" marker-end="url(#arrowA)"/>
  <path d="M 922.5,484.0 L 922.5,504.4 L 206.0,535.6 L 206.0,556.0" fill="none" stroke="#7c3aed" stroke-width="2.4" marker-end="url(#arrowA)"/>
  <path d="M 922.5,484.0 L 922.5,504.4 L 554.5,535.6 L 554.5,556.0" fill="none" stroke="#7c3aed" stroke-width="2.4" marker-end="url(#arrowA)"/>
  <path d="M 1132.5,484.0 L 1132.5,504.4 L 899.5,535.6 L 899.5,556.0" fill="none" stroke="#7c3aed" stroke-width="2.4" marker-end="url(#arrowA)"/>
  <path d="M 1132.5,484.0 L 1132.5,504.4 L 1234.0,535.6 L 1234.0,556.0" fill="none" stroke="#7c3aed" stroke-width="2.4" marker-end="url(#arrowA)"/>
  <path d="M 1342.5,484.0 L 1342.5,504.4 L 1589.5,535.6 L 1589.5,556.0" fill="none" stroke="#7c3aed" stroke-width="2.4" marker-end="url(#arrowA)"/>
  <path d="M 1342.5,484.0 L 1342.5,504.4 L 1938.0,535.6 L 1938.0,556.0" fill="none" stroke="#7c3aed" stroke-width="2.4" marker-end="url(#arrowA)"/>
  <path d="M 1552.5,484.0 L 1552.5,504.4 L 2269.0,535.6 L 2269.0,556.0" fill="none" stroke="#7c3aed" stroke-width="2.4" marker-end="url(#arrowA)"/>
  <path d="M 206.0,626.0 L 206.0,646.4 L 1237.5,677.6 L 1237.5,698.0" fill="none" stroke="#7c3aed" stroke-width="2.4" marker-end="url(#arrowA)"/>
  <path d="M 899.5,626.0 L 899.5,646.4 L 1237.5,677.6 L 1237.5,698.0" fill="none" stroke="#7c3aed" stroke-width="2.4" marker-end="url(#arrowA)"/>
  <path d="M 1589.5,626.0 L 1589.5,646.4 L 1237.5,677.6 L 1237.5,698.0" fill="none" stroke="#7c3aed" stroke-width="2.4" marker-end="url(#arrowA)"/>
  <path d="M 2269.0,626.0 L 2269.0,646.4 L 1237.5,677.6 L 1237.5,698.0" fill="none" stroke="#7c3aed" stroke-width="2.4" marker-end="url(#arrowA)"/>
  <path d="M 1237.5,756.0 L 1237.5,828.0" fill="none" stroke="#7c3aed" stroke-width="2.4" marker-end="url(#arrowA)"/>
  <rect x="1119.5" y="154.0" width="236.0" height="70.0" rx="10.0" fill="#eff6ff" stroke="#bfdbfe" stroke-width="1.8"/>
  <text x="1237.5" y="189.0" text-anchor="middle" class="node-title">GPU idle / checkpoint slow</text>
  <text x="1237.5" y="211.0" text-anchor="middle" class="node-sub">model load slow</text>
  <rect x="1155.5" y="296.0" width="164.0" height="58.0" rx="10.0" fill="#fff7ed" stroke="#fdba74" stroke-width="2.0"/>
  <rect x="1161.5" y="302.0" width="152.0" height="46.0" rx="7.0" fill="none" stroke="#fdba74" stroke-width="1.2" opacity="0.65"/>
  <text x="1237.5" y="314.0" text-anchor="middle" class="node-type">DECISION</text>
  <text x="1237.5" y="331.0" text-anchor="middle" class="node-title">path kind</text>
  <rect x="840.5" y="426.0" width="164.0" height="58.0" rx="10.0" fill="#fff7ed" stroke="#fed7aa" stroke-width="1.8"/>
  <text x="922.5" y="455.0" text-anchor="middle" class="node-title">dataset path</text>
  <rect x="1050.5" y="426.0" width="164.0" height="58.0" rx="10.0" fill="#faf5ff" stroke="#e9d5ff" stroke-width="1.8"/>
  <text x="1132.5" y="455.0" text-anchor="middle" class="node-title">checkpoint path</text>
  <rect x="1260.5" y="426.0" width="164.0" height="58.0" rx="10.0" fill="#f0fdfa" stroke="#99f6e4" stroke-width="1.8"/>
  <text x="1342.5" y="455.0" text-anchor="middle" class="node-title">artifact path</text>
  <rect x="1470.5" y="426.0" width="164.0" height="58.0" rx="10.0" fill="#f8fafc" stroke="#cbd5e1" stroke-width="1.8"/>
  <text x="1552.5" y="455.0" text-anchor="middle" class="node-title">cache path</text>
  <rect x="60.0" y="556.0" width="292.0" height="70.0" rx="10.0" fill="#eff6ff" stroke="#bfdbfe" stroke-width="1.8"/>
  <text x="206.0" y="591.0" text-anchor="middle" class="node-title">dataset_manifest</text>
  <text x="206.0" y="613.0" text-anchor="middle" class="node-sub">shard checksum / reader / sampling</text>
  <rect x="398.0" y="556.0" width="313.0" height="70.0" rx="10.0" fill="#f0fdf4" stroke="#bbf7d0" stroke-width="1.8"/>
  <text x="554.5" y="591.0" text-anchor="middle" class="node-title">data_loader_wait</text>
  <text x="554.5" y="613.0" text-anchor="middle" class="node-sub">small file / remote LIST / cache miss</text>
  <rect x="757.0" y="556.0" width="285.0" height="70.0" rx="10.0" fill="#fff7ed" stroke="#fed7aa" stroke-width="1.8"/>
  <text x="899.5" y="591.0" text-anchor="middle" class="node-title">checkpoint_commit_record</text>
  <text x="899.5" y="613.0" text-anchor="middle" class="node-sub">rank write tail / manifest commit</text>
  <rect x="1088.0" y="556.0" width="292.0" height="70.0" rx="10.0" fill="#faf5ff" stroke="#e9d5ff" stroke-width="1.8"/>
  <text x="1234.0" y="591.0" text-anchor="middle" class="node-title">metadata ops</text>
  <text x="1234.0" y="613.0" text-anchor="middle" class="node-sub">backend throttle / network overlap</text>
  <rect x="1426.0" y="556.0" width="327.0" height="70.0" rx="10.0" fill="#f0fdfa" stroke="#99f6e4" stroke-width="1.8"/>
  <text x="1589.5" y="591.0" text-anchor="middle" class="node-title">model_artifact</text>
  <text x="1589.5" y="613.0" text-anchor="middle" class="node-sub">distribution / digest / registry / pull</text>
  <rect x="1799.0" y="556.0" width="278.0" height="70.0" rx="10.0" fill="#f8fafc" stroke="#cbd5e1" stroke-width="1.8"/>
  <text x="1938.0" y="591.0" text-anchor="middle" class="node-title">cache_residency</text>
  <text x="1938.0" y="613.0" text-anchor="middle" class="node-sub">cold node / warmup / ready delay</text>
  <rect x="2123.0" y="556.0" width="292.0" height="70.0" rx="10.0" fill="#eff6ff" stroke="#bfdbfe" stroke-width="1.8"/>
  <text x="2269.0" y="591.0" text-anchor="middle" class="node-title">local NVMe pressure</text>
  <text x="2269.0" y="613.0" text-anchor="middle" class="node-sub">eviction / stale version / cleanup</text>
  <rect x="1154.5" y="698.0" width="166.0" height="58.0" rx="10.0" fill="#f0fdf4" stroke="#bbf7d0" stroke-width="1.8"/>
  <text x="1237.5" y="727.0" text-anchor="middle" class="node-title">storage_evidence</text>
  <rect x="1109.0" y="828.0" width="257.0" height="70.0" rx="10.0" fill="#fff7ed" stroke="#fed7aa" stroke-width="1.8"/>
  <text x="1237.5" y="863.0" text-anchor="middle" class="node-title">reshard / prewarm</text>
  <text x="1237.5" y="885.0" text-anchor="middle" class="node-sub">move path / throttle / repair</text>
  <text x="2195.0" y="1018.0" class="footnote">Rendered with fireworks-tech-graph</text>
</svg>