<svg xmlns="http://www.w3.org/2000/svg" viewBox="0 0 1416 904" width="1416" height="904">
  <defs>
    <marker id="arrowA" markerWidth="10" markerHeight="7" refX="9" refY="3.5" orient="auto">
      <polygon points="0 0, 10 3.5, 0 7" fill="#7c3aed"/>
    </marker>
    <marker id="arrowB" markerWidth="10" markerHeight="7" refX="9" refY="3.5" orient="auto">
      <polygon points="0 0, 10 3.5, 0 7" fill="#10b981"/>
    </marker>
    <marker id="arrowC" markerWidth="10" markerHeight="7" refX="9" refY="3.5" orient="auto">
      <polygon points="0 0, 10 3.5, 0 7" fill="#2563eb"/>
    </marker>
    <marker id="arrowE" markerWidth="10" markerHeight="7" refX="9" refY="3.5" orient="auto">
      <polygon points="0 0, 10 3.5, 0 7" fill="#f97316"/>
    </marker>
    <marker id="arrowF" markerWidth="10" markerHeight="7" refX="9" refY="3.5" orient="auto">
      <polygon points="0 0, 10 3.5, 0 7" fill="#7c3aed"/>
    </marker>
    <marker id="arrowG" markerWidth="10" markerHeight="7" refX="9" refY="3.5" orient="auto">
      <polygon points="0 0, 10 3.5, 0 7" fill="#ef4444"/>
    </marker>
    <marker id="arrowH" markerWidth="10" markerHeight="7" refX="9" refY="3.5" orient="auto">
      <polygon points="0 0, 10 3.5, 0 7" fill="#6b7280"/>
    </marker>
    <filter id="shadowSoft" x="-20%" y="-20%" width="140%" height="160%">
      <feDropShadow dx="0" dy="3" stdDeviation="6" flood-color="#0f172a" flood-opacity="0.12"/>
    </filter>
    <filter id="shadowGlass" x="-20%" y="-20%" width="140%" height="160%">
      <feDropShadow dx="0" dy="10" stdDeviation="16" flood-color="#020617" flood-opacity="0.28"/>
    </filter>
    <style>
    text { font-family: 'Helvetica Neue', Helvetica, Arial, 'PingFang SC', 'Microsoft YaHei', 'Microsoft JhengHei', 'SimHei', sans-serif; }
    .title { font-size: 30px; font-weight: 700; fill: #111827; }
    .subtitle { font-size: 14px; font-weight: 500; fill: #6b7280; }
    .section { font-size: 13px; font-weight: 700; fill: #2563eb; letter-spacing: 1.4px; }
    .section-sub { font-size: 12px; font-weight: 500; fill: #94a3b8; }
    .node-title { font-size: 18px; font-weight: 700; fill: #111827; }
    .node-sub { font-size: 12px; font-weight: 500; fill: #6b7280; }
    .node-type { font-size: 12px; font-weight: 700; fill: #9ca3af; letter-spacing: 0.08em; }
    .arrow-label { font-size: 12px; font-weight: 600; fill: #6b7280; }
    .legend { font-size: 12px; font-weight: 500; fill: #6b7280; }
    .footnote { font-size: 12px; font-weight: 500; fill: #94a3b8; }
    </style>
  </defs>
  <rect width="1416.0" height="904.0" fill="#ffffff"/>
  <text x="708.0" y="56" text-anchor="middle" class="title">39.2.2 系统架构</text>
  <text x="708.0" y="82" text-anchor="middle" class="subtitle">part-09-reliability-observability/chapter-39-troubleshooting.md:445</text>
  <path d="M 708.0,224.0 L 708.0,296.0" fill="none" stroke="#7c3aed" stroke-width="2.4" marker-end="url(#arrowA)"/>
  <path d="M 708.0,354.0 L 708.0,374.4 L 250.0,405.6 L 250.0,426.0" fill="none" stroke="#7c3aed" stroke-width="2.4" marker-end="url(#arrowA)"/>
  <path d="M 708.0,354.0 L 708.0,374.4 L 597.0,405.6 L 597.0,426.0" fill="none" stroke="#7c3aed" stroke-width="2.4" marker-end="url(#arrowA)"/>
  <path d="M 708.0,354.0 L 708.0,374.4 L 924.5,405.6 L 924.5,426.0" fill="none" stroke="#7c3aed" stroke-width="2.4" marker-end="url(#arrowA)"/>
  <path d="M 708.0,354.0 L 708.0,374.4 L 1248.5,405.6 L 1248.5,426.0" fill="none" stroke="#7c3aed" stroke-width="2.4" marker-end="url(#arrowA)"/>
  <path d="M 250.0,496.0 L 250.0,516.4 L 708.0,547.6 L 708.0,568.0" fill="none" stroke="#7c3aed" stroke-width="2.4" marker-end="url(#arrowA)"/>
  <path d="M 597.0,496.0 L 597.0,516.4 L 708.0,547.6 L 708.0,568.0" fill="none" stroke="#7c3aed" stroke-width="2.4" marker-end="url(#arrowA)"/>
  <path d="M 924.5,496.0 L 924.5,516.4 L 708.0,547.6 L 708.0,568.0" fill="none" stroke="#7c3aed" stroke-width="2.4" marker-end="url(#arrowA)"/>
  <path d="M 1248.5,496.0 L 1248.5,516.4 L 708.0,547.6 L 708.0,568.0" fill="none" stroke="#7c3aed" stroke-width="2.4" marker-end="url(#arrowA)"/>
  <path d="M 708.0,626.0 L 708.0,646.4 L 591.5,677.6 L 591.5,698.0" fill="none" stroke="#7c3aed" stroke-width="2.4" marker-end="url(#arrowA)"/>
  <path d="M 708.0,626.0 L 708.0,646.4 L 908.5,683.6 L 908.5,704.0" fill="none" stroke="#7c3aed" stroke-width="2.4" marker-end="url(#arrowA)"/>
  <rect x="590.0" y="154.0" width="236.0" height="70.0" rx="10.0" fill="#eff6ff" stroke="#bfdbfe" stroke-width="1.8"/>
  <text x="708.0" y="189.0" text-anchor="middle" class="node-title">GPU idle / checkpoint slow</text>
  <text x="708.0" y="211.0" text-anchor="middle" class="node-sub">model load slow</text>
  <rect x="626.0" y="296.0" width="164.0" height="58.0" rx="10.0" fill="#fff7ed" stroke="#fdba74" stroke-width="2.0"/>
  <rect x="632.0" y="302.0" width="152.0" height="46.0" rx="7.0" fill="none" stroke="#fdba74" stroke-width="1.2" opacity="0.65"/>
  <text x="708.0" y="314.0" text-anchor="middle" class="node-type">DECISION</text>
  <text x="708.0" y="331.0" text-anchor="middle" class="node-title">是哪类路径?</text>
  <rect x="60.0" y="426.0" width="380.0" height="70.0" rx="10.0" fill="#fff7ed" stroke="#fed7aa" stroke-width="1.8"/>
  <text x="250.0" y="461.0" text-anchor="middle" class="node-title">检查 dataset</text>
  <text x="250.0" y="483.0" text-anchor="middle" class="node-sub">manifest / shard / data loader wait / cache hit</text>
  <rect x="486.0" y="426.0" width="222.0" height="70.0" rx="10.0" fill="#faf5ff" stroke="#e9d5ff" stroke-width="1.8"/>
  <text x="597.0" y="461.0" text-anchor="middle" class="node-title">检查 manifest commit</text>
  <text x="597.0" y="483.0" text-anchor="middle" class="node-sub">metadata ops / rank 写入长尾</text>
  <rect x="754.0" y="426.0" width="341.0" height="70.0" rx="10.0" fill="#f0fdfa" stroke="#99f6e4" stroke-width="1.8"/>
  <text x="924.5" y="461.0" text-anchor="middle" class="node-title">检查 registry</text>
  <text x="924.5" y="483.0" text-anchor="middle" class="node-sub">digest verify / weight cache / local NVMe</text>
  <rect x="1141.0" y="426.0" width="215.0" height="70.0" rx="10.0" fill="#f8fafc" stroke="#cbd5e1" stroke-width="1.8"/>
  <text x="1248.5" y="461.0" text-anchor="middle" class="node-title">检查容量水位 / eviction / 版本键</text>
  <text x="1248.5" y="483.0" text-anchor="middle" class="node-sub">预热状态</text>
  <rect x="625.0" y="568.0" width="166.0" height="58.0" rx="10.0" fill="#fff7ed" stroke="#fdba74" stroke-width="2.0"/>
  <rect x="631.0" y="574.0" width="154.0" height="46.0" rx="7.0" fill="none" stroke="#fdba74" stroke-width="1.2" opacity="0.65"/>
  <text x="708.0" y="586.0" text-anchor="middle" class="node-type">DECISION</text>
  <text x="708.0" y="603.0" text-anchor="middle" class="node-title">是否与 baseline 偏离?</text>
  <rect x="414.0" y="698.0" width="355.0" height="70.0" rx="10.0" fill="#f0fdf4" stroke="#bbf7d0" stroke-width="1.8"/>
  <text x="591.5" y="733.0" text-anchor="middle" class="node-title">reshard / prewarm</text>
  <text x="591.5" y="755.0" text-anchor="middle" class="node-sub">throttle / repair backend / adjust schedule</text>
  <rect x="815.0" y="704.0" width="187.0" height="58.0" rx="10.0" fill="#fff7ed" stroke="#fed7aa" stroke-width="1.8"/>
  <text x="908.5" y="733.0" text-anchor="middle" class="node-title">继续检查网络、runtime、模型配置</text>
  <rect x="447.5" y="360.0" width="63" height="20" rx="6" fill="#ffffff" opacity="0.94"/>
  <text x="479.0" y="374.0" text-anchor="middle" class="arrow-label">dataset</text>
  <rect x="610.5" y="360.0" width="84" height="20" rx="6" fill="#ffffff" opacity="0.94"/>
  <text x="652.5" y="374.0" text-anchor="middle" class="arrow-label">checkpoint</text>
  <rect x="781.25" y="360.0" width="70" height="20" rx="6" fill="#ffffff" opacity="0.94"/>
  <text x="816.25" y="374.0" text-anchor="middle" class="arrow-label">artifact</text>
  <rect x="953.75" y="360.0" width="49" height="20" rx="6" fill="#ffffff" opacity="0.94"/>
  <text x="978.25" y="374.0" text-anchor="middle" class="arrow-label">cache</text>
  <rect x="631.75" y="632.0" width="36" height="20" rx="6" fill="#ffffff" opacity="0.94"/>
  <text x="649.75" y="646.0" text-anchor="middle" class="arrow-label">是</text>
  <rect x="790.25" y="635.0" width="36" height="20" rx="6" fill="#ffffff" opacity="0.94"/>
  <text x="808.25" y="649.0" text-anchor="middle" class="arrow-label">否</text>
  <text x="1136.0" y="888.0" class="footnote">Rendered with fireworks-tech-graph</text>
</svg>