<svg xmlns="http://www.w3.org/2000/svg" viewBox="0 0 960 1188" width="960" height="1188">
  <defs>
    <marker id="arrowA" markerWidth="10" markerHeight="7" refX="9" refY="3.5" orient="auto">
      <polygon points="0 0, 10 3.5, 0 7" fill="#7c3aed"/>
    </marker>
    <marker id="arrowB" markerWidth="10" markerHeight="7" refX="9" refY="3.5" orient="auto">
      <polygon points="0 0, 10 3.5, 0 7" fill="#10b981"/>
    </marker>
    <marker id="arrowC" markerWidth="10" markerHeight="7" refX="9" refY="3.5" orient="auto">
      <polygon points="0 0, 10 3.5, 0 7" fill="#2563eb"/>
    </marker>
    <marker id="arrowE" markerWidth="10" markerHeight="7" refX="9" refY="3.5" orient="auto">
      <polygon points="0 0, 10 3.5, 0 7" fill="#f97316"/>
    </marker>
    <marker id="arrowF" markerWidth="10" markerHeight="7" refX="9" refY="3.5" orient="auto">
      <polygon points="0 0, 10 3.5, 0 7" fill="#7c3aed"/>
    </marker>
    <marker id="arrowG" markerWidth="10" markerHeight="7" refX="9" refY="3.5" orient="auto">
      <polygon points="0 0, 10 3.5, 0 7" fill="#ef4444"/>
    </marker>
    <marker id="arrowH" markerWidth="10" markerHeight="7" refX="9" refY="3.5" orient="auto">
      <polygon points="0 0, 10 3.5, 0 7" fill="#6b7280"/>
    </marker>
    <filter id="shadowSoft" x="-20%" y="-20%" width="140%" height="160%">
      <feDropShadow dx="0" dy="3" stdDeviation="6" flood-color="#0f172a" flood-opacity="0.12"/>
    </filter>
    <filter id="shadowGlass" x="-20%" y="-20%" width="140%" height="160%">
      <feDropShadow dx="0" dy="10" stdDeviation="16" flood-color="#020617" flood-opacity="0.28"/>
    </filter>
    <style>
    text { font-family: 'Helvetica Neue', Helvetica, Arial, 'PingFang SC', 'Microsoft YaHei', 'Microsoft JhengHei', 'SimHei', sans-serif; }
    .title { font-size: 30px; font-weight: 700; fill: #111827; }
    .subtitle { font-size: 14px; font-weight: 500; fill: #6b7280; }
    .section { font-size: 13px; font-weight: 700; fill: #2563eb; letter-spacing: 1.4px; }
    .section-sub { font-size: 12px; font-weight: 500; fill: #94a3b8; }
    .node-title { font-size: 18px; font-weight: 700; fill: #111827; }
    .node-sub { font-size: 12px; font-weight: 500; fill: #6b7280; }
    .node-type { font-size: 12px; font-weight: 700; fill: #9ca3af; letter-spacing: 0.08em; }
    .arrow-label { font-size: 12px; font-weight: 600; fill: #6b7280; }
    .legend { font-size: 12px; font-weight: 500; fill: #6b7280; }
    .footnote { font-size: 12px; font-weight: 500; fill: #94a3b8; }
    </style>
  </defs>
  <rect width="960.0" height="1188.0" fill="#ffffff"/>
  <text x="480.0" y="56" text-anchor="middle" class="title">21.3.10 GPU 容器运行时与 NVIDIA Container Toolkit</text>
  <text x="480.0" y="82" text-anchor="middle" class="subtitle">part-05-orchestration/chapter-21-containers-kubernetes.md:284</text>
  <path d="M 480.0,224.0 L 480.0,296.0" fill="none" stroke="#7c3aed" stroke-width="2.4" marker-end="url(#arrowA)"/>
  <path d="M 480.0,354.0 L 480.0,374.4 L 339.0,405.6 L 339.0,426.0" fill="none" stroke="#7c3aed" stroke-width="2.4" marker-end="url(#arrowA)"/>
  <path d="M 480.0,354.0 L 480.0,374.4 L 656.0,405.6 L 656.0,426.0" fill="none" stroke="#7c3aed" stroke-width="2.4" marker-end="url(#arrowA)"/>
  <path d="M 339.0,496.0 L 339.0,516.4 L 480.0,547.6 L 480.0,568.0" fill="none" stroke="#7c3aed" stroke-width="2.4" marker-end="url(#arrowA)"/>
  <path d="M 656.0,496.0 L 656.0,516.4 L 480.0,547.6 L 480.0,568.0" fill="none" stroke="#7c3aed" stroke-width="2.4" marker-end="url(#arrowA)"/>
  <path d="M 480.0,638.0 L 480.0,710.0" fill="none" stroke="#7c3aed" stroke-width="2.4" marker-end="url(#arrowA)"/>
  <path d="M 480.0,768.0 L 480.0,788.4 L 342.5,819.6 L 342.5,840.0" fill="none" stroke="#7c3aed" stroke-width="2.4" marker-end="url(#arrowA)"/>
  <path d="M 480.0,768.0 L 480.0,788.4 L 617.5,819.6 L 617.5,840.0" fill="none" stroke="#7c3aed" stroke-width="2.4" marker-end="url(#arrowA)"/>
  <path d="M 342.5,910.0 L 342.5,930.4 L 480.0,961.6 L 480.0,982.0" fill="none" stroke="#7c3aed" stroke-width="2.4" marker-end="url(#arrowA)"/>
  <path d="M 617.5,910.0 L 617.5,930.4 L 480.0,961.6 L 480.0,982.0" fill="none" stroke="#7c3aed" stroke-width="2.4" marker-end="url(#arrowA)"/>
  <rect x="393.5" y="154.0" width="173.0" height="70.0" rx="10.0" fill="#eff6ff" stroke="#bfdbfe" stroke-width="1.8"/>
  <text x="480.0" y="189.0" text-anchor="middle" class="node-title">GPU Device Plugin</text>
  <text x="480.0" y="211.0" text-anchor="middle" class="node-sub">发现 / 分配 GPU</text>
  <rect x="383.0" y="296.0" width="194.0" height="58.0" rx="10.0" fill="#fff7ed" stroke="#fdba74" stroke-width="2.0"/>
  <rect x="389.0" y="302.0" width="182.0" height="46.0" rx="7.0" fill="none" stroke="#fdba74" stroke-width="1.2" opacity="0.65"/>
  <text x="480.0" y="314.0" text-anchor="middle" class="node-type">DECISION</text>
  <text x="480.0" y="331.0" text-anchor="middle" class="node-title">device list strategy</text>
  <rect x="186.0" y="426.0" width="306.0" height="70.0" rx="10.0" fill="#fff7ed" stroke="#fed7aa" stroke-width="1.8"/>
  <text x="339.0" y="461.0" text-anchor="middle" class="node-title">envvar / volume</text>
  <text x="339.0" y="483.0" text-anchor="middle" class="node-sub">legacy path / NVIDIA_VISIBLE_DEVICES</text>
  <rect x="538.0" y="426.0" width="236.0" height="70.0" rx="10.0" fill="#faf5ff" stroke="#e9d5ff" stroke-width="1.8"/>
  <text x="656.0" y="461.0" text-anchor="middle" class="node-title">CDI spec</text>
  <text x="656.0" y="483.0" text-anchor="middle" class="node-sub">vendor.com/device=GPU-uuid</text>
  <rect x="390.0" y="568.0" width="180.0" height="70.0" rx="10.0" fill="#f0fdfa" stroke="#99f6e4" stroke-width="1.8"/>
  <text x="480.0" y="603.0" text-anchor="middle" class="node-title">kubelet -&gt; CRI</text>
  <text x="480.0" y="625.0" text-anchor="middle" class="node-sub">containerd / CRI-O</text>
  <rect x="398.0" y="710.0" width="164.0" height="58.0" rx="10.0" fill="#fff7ed" stroke="#fdba74" stroke-width="2.0"/>
  <rect x="404.0" y="716.0" width="152.0" height="46.0" rx="7.0" fill="none" stroke="#fdba74" stroke-width="1.2" opacity="0.65"/>
  <text x="480.0" y="728.0" text-anchor="middle" class="node-type">DECISION</text>
  <text x="480.0" y="745.0" text-anchor="middle" class="node-title">runtime handler</text>
  <rect x="228.0" y="840.0" width="229.0" height="70.0" rx="10.0" fill="#eff6ff" stroke="#bfdbfe" stroke-width="1.8"/>
  <text x="342.5" y="875.0" text-anchor="middle" class="node-title">nvidia runtime / OCI hook</text>
  <text x="342.5" y="897.0" text-anchor="middle" class="node-sub">legacy injection</text>
  <rect x="503.0" y="840.0" width="229.0" height="70.0" rx="10.0" fill="#f0fdf4" stroke="#bbf7d0" stroke-width="1.8"/>
  <text x="617.5" y="875.0" text-anchor="middle" class="node-title">OCI runtime consumes CDI</text>
  <text x="617.5" y="897.0" text-anchor="middle" class="node-sub">standard device injection</text>
  <rect x="362.0" y="982.0" width="236.0" height="70.0" rx="10.0" fill="#fff7ed" stroke="#fed7aa" stroke-width="1.8"/>
  <text x="480.0" y="1017.0" text-anchor="middle" class="node-title">container</text>
  <text x="480.0" y="1039.0" text-anchor="middle" class="node-sub">/dev/nvidia* + driver libs</text>
  <text x="680.0" y="1172.0" class="footnote">Rendered with fireworks-tech-graph</text>
</svg>