<svg xmlns="http://www.w3.org/2000/svg" viewBox="0 0 1324 922" width="1324" height="922">
  <defs>
    <marker id="arrowA" markerWidth="10" markerHeight="7" refX="9" refY="3.5" orient="auto">
      <polygon points="0 0, 10 3.5, 0 7" fill="#7c3aed"/>
    </marker>
    <marker id="arrowB" markerWidth="10" markerHeight="7" refX="9" refY="3.5" orient="auto">
      <polygon points="0 0, 10 3.5, 0 7" fill="#10b981"/>
    </marker>
    <marker id="arrowC" markerWidth="10" markerHeight="7" refX="9" refY="3.5" orient="auto">
      <polygon points="0 0, 10 3.5, 0 7" fill="#2563eb"/>
    </marker>
    <marker id="arrowE" markerWidth="10" markerHeight="7" refX="9" refY="3.5" orient="auto">
      <polygon points="0 0, 10 3.5, 0 7" fill="#f97316"/>
    </marker>
    <marker id="arrowF" markerWidth="10" markerHeight="7" refX="9" refY="3.5" orient="auto">
      <polygon points="0 0, 10 3.5, 0 7" fill="#7c3aed"/>
    </marker>
    <marker id="arrowG" markerWidth="10" markerHeight="7" refX="9" refY="3.5" orient="auto">
      <polygon points="0 0, 10 3.5, 0 7" fill="#ef4444"/>
    </marker>
    <marker id="arrowH" markerWidth="10" markerHeight="7" refX="9" refY="3.5" orient="auto">
      <polygon points="0 0, 10 3.5, 0 7" fill="#6b7280"/>
    </marker>
    <filter id="shadowSoft" x="-20%" y="-20%" width="140%" height="160%">
      <feDropShadow dx="0" dy="3" stdDeviation="6" flood-color="#0f172a" flood-opacity="0.12"/>
    </filter>
    <filter id="shadowGlass" x="-20%" y="-20%" width="140%" height="160%">
      <feDropShadow dx="0" dy="10" stdDeviation="16" flood-color="#020617" flood-opacity="0.28"/>
    </filter>
    <style>
    text { font-family: 'Helvetica Neue', Helvetica, Arial, 'PingFang SC', 'Microsoft YaHei', 'Microsoft JhengHei', 'SimHei', sans-serif; }
    .title { font-size: 30px; font-weight: 700; fill: #111827; }
    .subtitle { font-size: 14px; font-weight: 500; fill: #6b7280; }
    .section { font-size: 13px; font-weight: 700; fill: #2563eb; letter-spacing: 1.4px; }
    .section-sub { font-size: 12px; font-weight: 500; fill: #94a3b8; }
    .node-title { font-size: 18px; font-weight: 700; fill: #111827; }
    .node-sub { font-size: 12px; font-weight: 500; fill: #6b7280; }
    .node-type { font-size: 12px; font-weight: 700; fill: #9ca3af; letter-spacing: 0.08em; }
    .arrow-label { font-size: 12px; font-weight: 600; fill: #6b7280; }
    .legend { font-size: 12px; font-weight: 500; fill: #6b7280; }
    .footnote { font-size: 12px; font-weight: 500; fill: #94a3b8; }
    </style>
  </defs>
  <rect width="1324.0" height="922.0" fill="#ffffff"/>
  <text x="662.0" y="56" text-anchor="middle" class="title">41.3.4 cost/token</text>
  <text x="662.0" y="82" text-anchor="middle" class="subtitle">part-10-economics-cases/chapter-41-token-factory.md:799</text>
  <path d="M 325.0,435.0 L 345.4,435.0 L 376.6,441.0 L 397.0,441.0" fill="none" stroke="#7c3aed" stroke-width="2.4" marker-end="url(#arrowA)"/>
  <path d="M 626.0,441.0 L 698.0,441.0" fill="none" stroke="#7c3aed" stroke-width="2.4" marker-end="url(#arrowA)"/>
  <path d="M 934.0,441.0 L 954.4,441.0 L 1003.1,155.0 L 1023.5,155.0" fill="none" stroke="#7c3aed" stroke-width="2.4" marker-end="url(#arrowA)"/>
  <path d="M 934.0,441.0 L 954.4,441.0 L 992.6,273.0 L 1013.0,273.0" fill="none" stroke="#7c3aed" stroke-width="2.4" marker-end="url(#arrowA)"/>
  <path d="M 934.0,441.0 L 954.4,441.0 L 1003.1,379.0 L 1023.5,379.0" fill="none" stroke="#7c3aed" stroke-width="2.4" marker-end="url(#arrowA)"/>
  <path d="M 934.0,441.0 L 954.4,441.0 L 999.6,491.0 L 1020.0,491.0" fill="none" stroke="#7c3aed" stroke-width="2.4" marker-end="url(#arrowA)"/>
  <path d="M 934.0,441.0 L 954.4,441.0 L 996.1,609.0 L 1016.5,609.0" fill="none" stroke="#7c3aed" stroke-width="2.4" marker-end="url(#arrowA)"/>
  <path d="M 934.0,441.0 L 954.4,441.0 L 985.6,721.0 L 1006.0,721.0" fill="none" stroke="#7c3aed" stroke-width="2.4" marker-end="url(#arrowA)"/>
  <rect x="96.0" y="406.0" width="229.0" height="58.0" rx="10.0" fill="#eff6ff" stroke="#bfdbfe" stroke-width="1.8"/>
  <text x="210.5" y="435.0" text-anchor="middle" class="node-title">cache_invalidation_record</text>
  <rect x="397.0" y="406.0" width="229.0" height="70.0" rx="10.0" fill="#f0fdf4" stroke="#bbf7d0" stroke-width="1.8"/>
  <text x="511.5" y="441.0" text-anchor="middle" class="node-title">supply_chain_invalidation</text>
  <text x="511.5" y="463.0" text-anchor="middle" class="node-sub">evidence</text>
  <rect x="698.0" y="406.0" width="236.0" height="70.0" rx="10.0" fill="#fff7ed" stroke="#fed7aa" stroke-width="1.8"/>
  <text x="816.0" y="441.0" text-anchor="middle" class="node-title">supply_chain_incident_cost</text>
  <text x="816.0" y="463.0" text-anchor="middle" class="node-sub">record</text>
  <rect x="1023.5" y="126.0" width="187.0" height="58.0" rx="10.0" fill="#faf5ff" stroke="#e9d5ff" stroke-width="1.8"/>
  <text x="1117.0" y="155.0" text-anchor="middle" class="node-title">storage_cost_ledger</text>
  <rect x="1013.0" y="238.0" width="208.0" height="70.0" rx="10.0" fill="#f0fdfa" stroke="#99f6e4" stroke-width="1.8"/>
  <text x="1117.0" y="273.0" text-anchor="middle" class="node-title">inference_runtime_cost</text>
  <text x="1117.0" y="295.0" text-anchor="middle" class="node-sub">ledger</text>
  <rect x="1023.5" y="350.0" width="187.0" height="58.0" rx="10.0" fill="#f8fafc" stroke="#cbd5e1" stroke-width="1.8"/>
  <text x="1117.0" y="379.0" text-anchor="middle" class="node-title">quality_cost_ledger</text>
  <rect x="1020.0" y="462.0" width="194.0" height="58.0" rx="10.0" fill="#eff6ff" stroke="#bfdbfe" stroke-width="1.8"/>
  <text x="1117.0" y="491.0" text-anchor="middle" class="node-title">security_cost_ledger</text>
  <rect x="1016.5" y="574.0" width="201.0" height="70.0" rx="10.0" fill="#f0fdf4" stroke="#bbf7d0" stroke-width="1.8"/>
  <text x="1117.0" y="609.0" text-anchor="middle" class="node-title">billing hold / replay</text>
  <text x="1117.0" y="631.0" text-anchor="middle" class="node-sub">credit</text>
  <rect x="1006.0" y="686.0" width="222.0" height="70.0" rx="10.0" fill="#fff7ed" stroke="#fed7aa" stroke-width="1.8"/>
  <text x="1117.0" y="721.0" text-anchor="middle" class="node-title">PRR</text>
  <text x="1117.0" y="743.0" text-anchor="middle" class="node-sub">supply chain gate update</text>
  <text x="1044.0" y="906.0" class="footnote">Rendered with fireworks-tech-graph</text>
</svg>