<svg xmlns="http://www.w3.org/2000/svg" viewBox="0 0 960 1070" width="960" height="1070">
  <defs>
    <marker id="arrowA" markerWidth="10" markerHeight="7" refX="9" refY="3.5" orient="auto">
      <polygon points="0 0, 10 3.5, 0 7" fill="#7c3aed"/>
    </marker>
    <marker id="arrowB" markerWidth="10" markerHeight="7" refX="9" refY="3.5" orient="auto">
      <polygon points="0 0, 10 3.5, 0 7" fill="#10b981"/>
    </marker>
    <marker id="arrowC" markerWidth="10" markerHeight="7" refX="9" refY="3.5" orient="auto">
      <polygon points="0 0, 10 3.5, 0 7" fill="#2563eb"/>
    </marker>
    <marker id="arrowE" markerWidth="10" markerHeight="7" refX="9" refY="3.5" orient="auto">
      <polygon points="0 0, 10 3.5, 0 7" fill="#f97316"/>
    </marker>
    <marker id="arrowF" markerWidth="10" markerHeight="7" refX="9" refY="3.5" orient="auto">
      <polygon points="0 0, 10 3.5, 0 7" fill="#7c3aed"/>
    </marker>
    <marker id="arrowG" markerWidth="10" markerHeight="7" refX="9" refY="3.5" orient="auto">
      <polygon points="0 0, 10 3.5, 0 7" fill="#ef4444"/>
    </marker>
    <marker id="arrowH" markerWidth="10" markerHeight="7" refX="9" refY="3.5" orient="auto">
      <polygon points="0 0, 10 3.5, 0 7" fill="#6b7280"/>
    </marker>
    <filter id="shadowSoft" x="-20%" y="-20%" width="140%" height="160%">
      <feDropShadow dx="0" dy="3" stdDeviation="6" flood-color="#0f172a" flood-opacity="0.12"/>
    </filter>
    <filter id="shadowGlass" x="-20%" y="-20%" width="140%" height="160%">
      <feDropShadow dx="0" dy="10" stdDeviation="16" flood-color="#020617" flood-opacity="0.28"/>
    </filter>
    <style>
    text { font-family: 'Helvetica Neue', Helvetica, Arial, 'PingFang SC', 'Microsoft YaHei', 'Microsoft JhengHei', 'SimHei', sans-serif; }
    .title { font-size: 30px; font-weight: 700; fill: #111827; }
    .subtitle { font-size: 14px; font-weight: 500; fill: #6b7280; }
    .section { font-size: 13px; font-weight: 700; fill: #2563eb; letter-spacing: 1.4px; }
    .section-sub { font-size: 12px; font-weight: 500; fill: #94a3b8; }
    .node-title { font-size: 18px; font-weight: 700; fill: #111827; }
    .node-sub { font-size: 12px; font-weight: 500; fill: #6b7280; }
    .node-type { font-size: 12px; font-weight: 700; fill: #9ca3af; letter-spacing: 0.08em; }
    .arrow-label { font-size: 12px; font-weight: 600; fill: #6b7280; }
    .legend { font-size: 12px; font-weight: 500; fill: #6b7280; }
    .footnote { font-size: 12px; font-weight: 500; fill: #94a3b8; }
    </style>
  </defs>
  <rect width="960.0" height="1070.0" fill="#ffffff"/>
  <text x="480.0" y="56" text-anchor="middle" class="title">43.4.1 工程实现</text>
  <text x="480.0" y="82" text-anchor="middle" class="subtitle">part-10-economics-cases/chapter-43-case-studies.md:349</text>
  <path d="M 480.0,224.0 L 480.0,296.0" fill="none" stroke="#7c3aed" stroke-width="2.4" marker-end="url(#arrowA)"/>
  <path d="M 480.0,366.0 L 480.0,386.4 L 339.0,417.6 L 339.0,438.0" fill="none" stroke="#7c3aed" stroke-width="2.4" marker-end="url(#arrowA)"/>
  <path d="M 480.0,366.0 L 480.0,386.4 L 638.5,417.6 L 638.5,438.0" fill="none" stroke="#7c3aed" stroke-width="2.4" marker-end="url(#arrowA)"/>
  <path d="M 638.5,508.0 L 638.5,528.4 L 276.0,559.6 L 276.0,580.0" fill="none" stroke="#7c3aed" stroke-width="2.4" marker-end="url(#arrowA)"/>
  <path d="M 638.5,508.0 L 638.5,528.4 L 693.0,559.6 L 693.0,580.0" fill="none" stroke="#7c3aed" stroke-width="2.4" marker-end="url(#arrowA)"/>
  <path d="M 693.0,650.0 L 693.0,670.4 L 335.5,701.6 L 335.5,722.0" fill="none" stroke="#7c3aed" stroke-width="2.4" marker-end="url(#arrowA)"/>
  <path d="M 693.0,650.0 L 693.0,670.4 L 607.0,701.6 L 607.0,722.0" fill="none" stroke="#7c3aed" stroke-width="2.4" marker-end="url(#arrowA)"/>
  <path d="M 607.0,792.0 L 607.0,812.4 L 375.0,849.6 L 375.0,870.0" fill="none" stroke="#7c3aed" stroke-width="2.4" marker-end="url(#arrowA)"/>
  <path d="M 607.0,792.0 L 607.0,812.4 L 585.0,843.6 L 585.0,864.0" fill="none" stroke="#7c3aed" stroke-width="2.4" marker-end="url(#arrowA)"/>
  <rect x="341.0" y="154.0" width="278.0" height="70.0" rx="10.0" fill="#eff6ff" stroke="#bfdbfe" stroke-width="1.8"/>
  <text x="480.0" y="189.0" text-anchor="middle" class="node-title">症状</text>
  <text x="480.0" y="211.0" text-anchor="middle" class="node-sub">任务 pending / 延迟长尾 / 成本失控 / 业务无价值</text>
  <rect x="398.0" y="296.0" width="164.0" height="70.0" rx="10.0" fill="#f0fdf4" stroke="#bbf7d0" stroke-width="1.8"/>
  <text x="480.0" y="331.0" text-anchor="middle" class="node-title">目标层检查</text>
  <text x="480.0" y="353.0" text-anchor="middle" class="node-sub">服务对象和价值单位是否清楚</text>
  <rect x="203.5" y="438.0" width="271.0" height="70.0" rx="10.0" fill="#fff7ed" stroke="#fed7aa" stroke-width="1.8"/>
  <text x="339.0" y="473.0" text-anchor="middle" class="node-title">补 workload_profile</text>
  <text x="339.0" y="495.0" text-anchor="middle" class="node-sub">补 business_model_profile / 收缩范围</text>
  <rect x="520.5" y="438.0" width="236.0" height="70.0" rx="10.0" fill="#faf5ff" stroke="#e9d5ff" stroke-width="1.8"/>
  <text x="638.5" y="473.0" text-anchor="middle" class="node-title">生产层检查</text>
  <text x="638.5" y="495.0" text-anchor="middle" class="node-sub">应用-平台-模型-runtime-调度-资源是否闭环</text>
  <rect x="86.0" y="580.0" width="380.0" height="70.0" rx="10.0" fill="#f0fdfa" stroke="#99f6e4" stroke-width="1.8"/>
  <text x="276.0" y="615.0" text-anchor="middle" class="node-title">补缺口</text>
  <text x="276.0" y="637.0" text-anchor="middle" class="node-sub">Gateway / serving / queue / resource pool / data path</text>
  <rect x="512.0" y="580.0" width="362.0" height="70.0" rx="10.0" fill="#f8fafc" stroke="#cbd5e1" stroke-width="1.8"/>
  <text x="693.0" y="615.0" text-anchor="middle" class="node-title">运营层检查</text>
  <text x="693.0" y="637.0" text-anchor="middle" class="node-sub">准入 / baseline / telemetry / runbook / change</text>
  <rect x="231.5" y="722.0" width="208.0" height="70.0" rx="10.0" fill="#eff6ff" stroke="#bfdbfe" stroke-width="1.8"/>
  <text x="335.5" y="757.0" text-anchor="middle" class="node-title">建立 acceptance baseline</text>
  <text x="335.5" y="779.0" text-anchor="middle" class="node-sub">补观测标签和诊断包</text>
  <rect x="485.5" y="722.0" width="243.0" height="70.0" rx="10.0" fill="#f0fdf4" stroke="#bbf7d0" stroke-width="1.8"/>
  <text x="607.0" y="757.0" text-anchor="middle" class="node-title">经济层检查</text>
  <text x="607.0" y="779.0" text-anchor="middle" class="node-sub">cost / value / margin / ROI</text>
  <rect x="293.0" y="870.0" width="164.0" height="58.0" rx="10.0" fill="#fff7ed" stroke="#fed7aa" stroke-width="1.8"/>
  <text x="375.0" y="899.0" text-anchor="middle" class="node-title">调整路由、价格、容量或下线场景</text>
  <rect x="503.0" y="864.0" width="164.0" height="70.0" rx="10.0" fill="#faf5ff" stroke="#e9d5ff" stroke-width="1.8"/>
  <text x="585.0" y="899.0" text-anchor="middle" class="node-title">进入规模化</text>
  <text x="585.0" y="921.0" text-anchor="middle" class="node-sub">扩大资源或商业覆盖</text>
  <rect x="391.5" y="372.0" width="36" height="20" rx="6" fill="#ffffff" opacity="0.94"/>
  <text x="409.5" y="386.0" text-anchor="middle" class="arrow-label">不清楚</text>
  <rect x="541.25" y="372.0" width="36" height="20" rx="6" fill="#ffffff" opacity="0.94"/>
  <text x="559.25" y="386.0" text-anchor="middle" class="arrow-label">清楚</text>
  <rect x="439.25" y="514.0" width="36" height="20" rx="6" fill="#ffffff" opacity="0.94"/>
  <text x="457.25" y="528.0" text-anchor="middle" class="arrow-label">断裂</text>
  <rect x="647.75" y="514.0" width="36" height="20" rx="6" fill="#ffffff" opacity="0.94"/>
  <text x="665.75" y="528.0" text-anchor="middle" class="arrow-label">闭环</text>
  <rect x="496.25" y="656.0" width="36" height="20" rx="6" fill="#ffffff" opacity="0.94"/>
  <text x="514.25" y="670.0" text-anchor="middle" class="arrow-label">缺证据</text>
  <rect x="629.0" y="656.0" width="42" height="20" rx="6" fill="#ffffff" opacity="0.94"/>
  <text x="650.0" y="670.0" text-anchor="middle" class="arrow-label">证据完整</text>
  <rect x="473.0" y="801.0" width="36" height="20" rx="6" fill="#ffffff" opacity="0.94"/>
  <text x="491.0" y="815.0" text-anchor="middle" class="arrow-label">倒挂</text>
  <rect x="578.0" y="798.0" width="36" height="20" rx="6" fill="#ffffff" opacity="0.94"/>
  <text x="596.0" y="812.0" text-anchor="middle" class="arrow-label">成立</text>
  <text x="680.0" y="1054.0" class="footnote">Rendered with fireworks-tech-graph</text>
</svg>