<svg xmlns="http://www.w3.org/2000/svg" viewBox="0 0 1037 922" width="1037" height="922">
  <defs>
    <marker id="arrowA" markerWidth="10" markerHeight="7" refX="9" refY="3.5" orient="auto">
      <polygon points="0 0, 10 3.5, 0 7" fill="#7c3aed"/>
    </marker>
    <marker id="arrowB" markerWidth="10" markerHeight="7" refX="9" refY="3.5" orient="auto">
      <polygon points="0 0, 10 3.5, 0 7" fill="#10b981"/>
    </marker>
    <marker id="arrowC" markerWidth="10" markerHeight="7" refX="9" refY="3.5" orient="auto">
      <polygon points="0 0, 10 3.5, 0 7" fill="#2563eb"/>
    </marker>
    <marker id="arrowE" markerWidth="10" markerHeight="7" refX="9" refY="3.5" orient="auto">
      <polygon points="0 0, 10 3.5, 0 7" fill="#f97316"/>
    </marker>
    <marker id="arrowF" markerWidth="10" markerHeight="7" refX="9" refY="3.5" orient="auto">
      <polygon points="0 0, 10 3.5, 0 7" fill="#7c3aed"/>
    </marker>
    <marker id="arrowG" markerWidth="10" markerHeight="7" refX="9" refY="3.5" orient="auto">
      <polygon points="0 0, 10 3.5, 0 7" fill="#ef4444"/>
    </marker>
    <marker id="arrowH" markerWidth="10" markerHeight="7" refX="9" refY="3.5" orient="auto">
      <polygon points="0 0, 10 3.5, 0 7" fill="#6b7280"/>
    </marker>
    <filter id="shadowSoft" x="-20%" y="-20%" width="140%" height="160%">
      <feDropShadow dx="0" dy="3" stdDeviation="6" flood-color="#0f172a" flood-opacity="0.12"/>
    </filter>
    <filter id="shadowGlass" x="-20%" y="-20%" width="140%" height="160%">
      <feDropShadow dx="0" dy="10" stdDeviation="16" flood-color="#020617" flood-opacity="0.28"/>
    </filter>
    <style>
    text { font-family: 'Helvetica Neue', Helvetica, Arial, 'PingFang SC', 'Microsoft YaHei', 'Microsoft JhengHei', 'SimHei', sans-serif; }
    .title { font-size: 30px; font-weight: 700; fill: #111827; }
    .subtitle { font-size: 14px; font-weight: 500; fill: #6b7280; }
    .section { font-size: 13px; font-weight: 700; fill: #2563eb; letter-spacing: 1.4px; }
    .section-sub { font-size: 12px; font-weight: 500; fill: #94a3b8; }
    .node-title { font-size: 18px; font-weight: 700; fill: #111827; }
    .node-sub { font-size: 12px; font-weight: 500; fill: #6b7280; }
    .node-type { font-size: 12px; font-weight: 700; fill: #9ca3af; letter-spacing: 0.08em; }
    .arrow-label { font-size: 12px; font-weight: 600; fill: #6b7280; }
    .legend { font-size: 12px; font-weight: 500; fill: #6b7280; }
    .footnote { font-size: 12px; font-weight: 500; fill: #94a3b8; }
    </style>
  </defs>
  <rect width="1037.0" height="922.0" fill="#ffffff"/>
  <text x="518.5" y="56" text-anchor="middle" class="title">41.4.1 工程实现</text>
  <text x="518.5" y="82" text-anchor="middle" class="subtitle">part-10-economics-cases/chapter-41-token-factory.md:1892</text>
  <path d="M 275.0,155.0 L 295.4,155.0 L 341.6,435.0 L 362.0,435.0" fill="none" stroke="#7c3aed" stroke-width="2.4" marker-end="url(#arrowA)"/>
  <path d="M 283.0,273.0 L 303.4,273.0 L 341.6,435.0 L 362.0,435.0" fill="none" stroke="#7c3aed" stroke-width="2.4" marker-end="url(#arrowA)"/>
  <path d="M 290.0,385.0 L 310.4,385.0 L 341.6,435.0 L 362.0,435.0" fill="none" stroke="#7c3aed" stroke-width="2.4" marker-end="url(#arrowA)"/>
  <path d="M 275.0,497.0 L 295.4,497.0 L 341.6,435.0 L 362.0,435.0" fill="none" stroke="#7c3aed" stroke-width="2.4" marker-end="url(#arrowA)"/>
  <path d="M 283.0,609.0 L 303.4,609.0 L 341.6,435.0 L 362.0,435.0" fill="none" stroke="#7c3aed" stroke-width="2.4" marker-end="url(#arrowA)"/>
  <path d="M 275.0,721.0 L 295.4,721.0 L 341.6,435.0 L 362.0,435.0" fill="none" stroke="#7c3aed" stroke-width="2.4" marker-end="url(#arrowA)"/>
  <path d="M 570.0,435.0 L 590.4,435.0 L 621.6,329.0 L 642.0,329.0" fill="none" stroke="#7c3aed" stroke-width="2.4" marker-end="url(#arrowA)"/>
  <path d="M 570.0,435.0 L 590.4,435.0 L 689.1,441.0 L 709.5,441.0" fill="none" stroke="#7c3aed" stroke-width="2.4" marker-end="url(#arrowA)"/>
  <path d="M 570.0,435.0 L 590.4,435.0 L 677.6,547.0 L 698.0,547.0" fill="none" stroke="#7c3aed" stroke-width="2.4" marker-end="url(#arrowA)"/>
  <rect x="111.0" y="126.0" width="164.0" height="58.0" rx="10.0" fill="#eff6ff" stroke="#bfdbfe" stroke-width="1.8"/>
  <text x="193.0" y="155.0" text-anchor="middle" class="node-title">upload / scan</text>
  <rect x="103.0" y="238.0" width="180.0" height="70.0" rx="10.0" fill="#fff7ed" stroke="#fed7aa" stroke-width="1.8"/>
  <text x="193.0" y="273.0" text-anchor="middle" class="node-title">OCR / ASR / layout</text>
  <text x="193.0" y="295.0" text-anchor="middle" class="node-sub">frames</text>
  <rect x="96.0" y="350.0" width="194.0" height="70.0" rx="10.0" fill="#faf5ff" stroke="#e9d5ff" stroke-width="1.8"/>
  <text x="193.0" y="385.0" text-anchor="middle" class="node-title">vision/audio encoder</text>
  <text x="193.0" y="407.0" text-anchor="middle" class="node-sub">embedding</text>
  <rect x="111.0" y="462.0" width="164.0" height="70.0" rx="10.0" fill="#f0fdfa" stroke="#99f6e4" stroke-width="1.8"/>
  <text x="193.0" y="497.0" text-anchor="middle" class="node-title">LLM inference</text>
  <text x="193.0" y="519.0" text-anchor="middle" class="node-sub">text tokens</text>
  <rect x="103.0" y="574.0" width="180.0" height="70.0" rx="10.0" fill="#f8fafc" stroke="#cbd5e1" stroke-width="1.8"/>
  <text x="193.0" y="609.0" text-anchor="middle" class="node-title">artifact retention</text>
  <text x="193.0" y="631.0" text-anchor="middle" class="node-sub">derived objects</text>
  <rect x="111.0" y="686.0" width="164.0" height="70.0" rx="10.0" fill="#eff6ff" stroke="#bfdbfe" stroke-width="1.8"/>
  <text x="193.0" y="721.0" text-anchor="middle" class="node-title">human review</text>
  <text x="193.0" y="743.0" text-anchor="middle" class="node-sub">if required</text>
  <rect x="362.0" y="406.0" width="208.0" height="58.0" rx="10.0" fill="#f0fdf4" stroke="#bbf7d0" stroke-width="1.8"/>
  <text x="466.0" y="435.0" text-anchor="middle" class="node-title">multimodal_cost_ledger</text>
  <rect x="642.0" y="294.0" width="299.0" height="70.0" rx="10.0" fill="#f0fdf4" stroke="#bbf7d0" stroke-width="1.8"/>
  <text x="791.5" y="329.0" text-anchor="middle" class="node-title">unit economics</text>
  <text x="791.5" y="351.0" text-anchor="middle" class="node-sub">per page / minute / successful task</text>
  <rect x="709.5" y="406.0" width="164.0" height="70.0" rx="10.0" fill="#fff7ed" stroke="#fed7aa" stroke-width="1.8"/>
  <text x="791.5" y="441.0" text-anchor="middle" class="node-title">pricing / quota</text>
  <text x="791.5" y="463.0" text-anchor="middle" class="node-sub">product limits</text>
  <rect x="698.0" y="518.0" width="187.0" height="58.0" rx="10.0" fill="#faf5ff" stroke="#e9d5ff" stroke-width="1.8"/>
  <text x="791.5" y="547.0" text-anchor="middle" class="node-title">multimodal PRR gate</text>
  <text x="757.0" y="906.0" class="footnote">Rendered with fireworks-tech-graph</text>
</svg>