<svg xmlns="http://www.w3.org/2000/svg" viewBox="0 0 1069 904" width="1069" height="904">
  <defs>
    <marker id="arrowA" markerWidth="10" markerHeight="7" refX="9" refY="3.5" orient="auto">
      <polygon points="0 0, 10 3.5, 0 7" fill="#7c3aed"/>
    </marker>
    <marker id="arrowB" markerWidth="10" markerHeight="7" refX="9" refY="3.5" orient="auto">
      <polygon points="0 0, 10 3.5, 0 7" fill="#10b981"/>
    </marker>
    <marker id="arrowC" markerWidth="10" markerHeight="7" refX="9" refY="3.5" orient="auto">
      <polygon points="0 0, 10 3.5, 0 7" fill="#2563eb"/>
    </marker>
    <marker id="arrowE" markerWidth="10" markerHeight="7" refX="9" refY="3.5" orient="auto">
      <polygon points="0 0, 10 3.5, 0 7" fill="#f97316"/>
    </marker>
    <marker id="arrowF" markerWidth="10" markerHeight="7" refX="9" refY="3.5" orient="auto">
      <polygon points="0 0, 10 3.5, 0 7" fill="#7c3aed"/>
    </marker>
    <marker id="arrowG" markerWidth="10" markerHeight="7" refX="9" refY="3.5" orient="auto">
      <polygon points="0 0, 10 3.5, 0 7" fill="#ef4444"/>
    </marker>
    <marker id="arrowH" markerWidth="10" markerHeight="7" refX="9" refY="3.5" orient="auto">
      <polygon points="0 0, 10 3.5, 0 7" fill="#6b7280"/>
    </marker>
    <filter id="shadowSoft" x="-20%" y="-20%" width="140%" height="160%">
      <feDropShadow dx="0" dy="3" stdDeviation="6" flood-color="#0f172a" flood-opacity="0.12"/>
    </filter>
    <filter id="shadowGlass" x="-20%" y="-20%" width="140%" height="160%">
      <feDropShadow dx="0" dy="10" stdDeviation="16" flood-color="#020617" flood-opacity="0.28"/>
    </filter>
    <style>
    text { font-family: 'Helvetica Neue', Helvetica, Arial, 'PingFang SC', 'Microsoft YaHei', 'Microsoft JhengHei', 'SimHei', sans-serif; }
    .title { font-size: 30px; font-weight: 700; fill: #111827; }
    .subtitle { font-size: 14px; font-weight: 500; fill: #6b7280; }
    .section { font-size: 13px; font-weight: 700; fill: #2563eb; letter-spacing: 1.4px; }
    .section-sub { font-size: 12px; font-weight: 500; fill: #94a3b8; }
    .node-title { font-size: 18px; font-weight: 700; fill: #111827; }
    .node-sub { font-size: 12px; font-weight: 500; fill: #6b7280; }
    .node-type { font-size: 12px; font-weight: 700; fill: #9ca3af; letter-spacing: 0.08em; }
    .arrow-label { font-size: 12px; font-weight: 600; fill: #6b7280; }
    .legend { font-size: 12px; font-weight: 500; fill: #6b7280; }
    .footnote { font-size: 12px; font-weight: 500; fill: #94a3b8; }
    </style>
  </defs>
  <rect width="1069.0" height="904.0" fill="#ffffff"/>
  <text x="534.5" y="56" text-anchor="middle" class="title">13.4.1 工程实现</text>
  <text x="534.5" y="82" text-anchor="middle" class="subtitle">part-03-models/chapter-13-model-evaluation.md:928</text>
  <path d="M 397.0,218.0 L 397.0,238.4 L 534.5,275.6 L 534.5,296.0" fill="none" stroke="#7c3aed" stroke-width="2.4" marker-end="url(#arrowA)"/>
  <path d="M 665.0,224.0 L 665.0,244.4 L 534.5,275.6 L 534.5,296.0" fill="none" stroke="#7c3aed" stroke-width="2.4" marker-end="url(#arrowA)"/>
  <path d="M 534.5,354.0 L 534.5,374.4 L 150.0,411.6 L 150.0,432.0" fill="none" stroke="#7c3aed" stroke-width="2.4" marker-end="url(#arrowA)"/>
  <path d="M 534.5,354.0 L 534.5,374.4 L 400.5,411.6 L 400.5,432.0" fill="none" stroke="#7c3aed" stroke-width="2.4" marker-end="url(#arrowA)"/>
  <path d="M 534.5,354.0 L 534.5,374.4 L 679.0,405.6 L 679.0,426.0" fill="none" stroke="#7c3aed" stroke-width="2.4" marker-end="url(#arrowA)"/>
  <path d="M 534.5,354.0 L 534.5,374.4 L 926.0,405.6 L 926.0,426.0" fill="none" stroke="#7c3aed" stroke-width="2.4" marker-end="url(#arrowA)"/>
  <path d="M 150.0,490.0 L 150.0,510.4 L 534.5,547.6 L 534.5,568.0" fill="none" stroke="#7c3aed" stroke-width="2.4" marker-end="url(#arrowA)"/>
  <path d="M 400.5,490.0 L 400.5,510.4 L 534.5,547.6 L 534.5,568.0" fill="none" stroke="#7c3aed" stroke-width="2.4" marker-end="url(#arrowA)"/>
  <path d="M 679.0,496.0 L 679.0,516.4 L 534.5,547.6 L 534.5,568.0" fill="none" stroke="#7c3aed" stroke-width="2.4" marker-end="url(#arrowA)"/>
  <path d="M 926.0,496.0 L 926.0,516.4 L 534.5,547.6 L 534.5,568.0" fill="none" stroke="#7c3aed" stroke-width="2.4" marker-end="url(#arrowA)"/>
  <path d="M 534.5,638.0 L 534.5,658.4 L 270.0,689.6 L 270.0,710.0" fill="none" stroke="#7c3aed" stroke-width="2.4" marker-end="url(#arrowA)"/>
  <path d="M 534.5,638.0 L 534.5,658.4 L 531.0,689.6 L 531.0,710.0" fill="none" stroke="#7c3aed" stroke-width="2.4" marker-end="url(#arrowA)"/>
  <path d="M 534.5,638.0 L 534.5,658.4 L 795.5,689.6 L 795.5,710.0" fill="none" stroke="#7c3aed" stroke-width="2.4" marker-end="url(#arrowA)"/>
  <rect x="289.5" y="160.0" width="215.0" height="58.0" rx="10.0" fill="#eff6ff" stroke="#bfdbfe" stroke-width="1.8"/>
  <text x="397.0" y="189.0" text-anchor="middle" class="node-title">media_artifact_manifest</text>
  <rect x="550.5" y="154.0" width="229.0" height="70.0" rx="10.0" fill="#fff7ed" stroke="#fed7aa" stroke-width="1.8"/>
  <text x="665.0" y="189.0" text-anchor="middle" class="node-title">media_processing_pipeline</text>
  <text x="665.0" y="211.0" text-anchor="middle" class="node-sub">record</text>
  <rect x="430.5" y="296.0" width="208.0" height="58.0" rx="10.0" fill="#f0fdf4" stroke="#bbf7d0" stroke-width="1.8"/>
  <text x="534.5" y="325.0" text-anchor="middle" class="node-title">multimodal eval slices</text>
  <rect x="60.0" y="432.0" width="180.0" height="58.0" rx="10.0" fill="#faf5ff" stroke="#e9d5ff" stroke-width="1.8"/>
  <text x="150.0" y="461.0" text-anchor="middle" class="node-title">OCR / ASR fidelity</text>
  <rect x="286.0" y="432.0" width="229.0" height="58.0" rx="10.0" fill="#f0fdfa" stroke="#99f6e4" stroke-width="1.8"/>
  <text x="400.5" y="461.0" text-anchor="middle" class="node-title">layout / table extraction</text>
  <rect x="561.0" y="426.0" width="236.0" height="70.0" rx="10.0" fill="#f8fafc" stroke="#cbd5e1" stroke-width="1.8"/>
  <text x="679.0" y="461.0" text-anchor="middle" class="node-title">visual grounding</text>
  <text x="679.0" y="483.0" text-anchor="middle" class="node-sub">region / frame / timestamp</text>
  <rect x="843.0" y="426.0" width="166.0" height="70.0" rx="10.0" fill="#eff6ff" stroke="#bfdbfe" stroke-width="1.8"/>
  <text x="926.0" y="461.0" text-anchor="middle" class="node-title">privacy / safety</text>
  <text x="926.0" y="483.0" text-anchor="middle" class="node-sub">redaction</text>
  <rect x="427.0" y="568.0" width="215.0" height="70.0" rx="10.0" fill="#f0fdf4" stroke="#bbf7d0" stroke-width="1.8"/>
  <text x="534.5" y="603.0" text-anchor="middle" class="node-title">multimodal_quality_gate</text>
  <text x="534.5" y="625.0" text-anchor="middle" class="node-sub">execution</text>
  <rect x="159.0" y="710.0" width="222.0" height="58.0" rx="10.0" fill="#fff7ed" stroke="#fed7aa" stroke-width="1.8"/>
  <text x="270.0" y="739.0" text-anchor="middle" class="node-title">serving release / canary</text>
  <rect x="427.0" y="710.0" width="208.0" height="58.0" rx="10.0" fill="#faf5ff" stroke="#e9d5ff" stroke-width="1.8"/>
  <text x="531.0" y="739.0" text-anchor="middle" class="node-title">multimodal_cost_ledger</text>
  <rect x="681.0" y="710.0" width="229.0" height="58.0" rx="10.0" fill="#f0fdfa" stroke="#99f6e4" stroke-width="1.8"/>
  <text x="795.5" y="739.0" text-anchor="middle" class="node-title">quality_regression_record</text>
  <text x="789.0" y="888.0" class="footnote">Rendered with fireworks-tech-graph</text>
</svg>