<svg xmlns="http://www.w3.org/2000/svg" viewBox="0 0 960 1566" width="960" height="1566">
  <defs>
    <marker id="arrowA" markerWidth="10" markerHeight="7" refX="9" refY="3.5" orient="auto">
      <polygon points="0 0, 10 3.5, 0 7" fill="#7c3aed"/>
    </marker>
    <marker id="arrowB" markerWidth="10" markerHeight="7" refX="9" refY="3.5" orient="auto">
      <polygon points="0 0, 10 3.5, 0 7" fill="#10b981"/>
    </marker>
    <marker id="arrowC" markerWidth="10" markerHeight="7" refX="9" refY="3.5" orient="auto">
      <polygon points="0 0, 10 3.5, 0 7" fill="#2563eb"/>
    </marker>
    <marker id="arrowE" markerWidth="10" markerHeight="7" refX="9" refY="3.5" orient="auto">
      <polygon points="0 0, 10 3.5, 0 7" fill="#f97316"/>
    </marker>
    <marker id="arrowF" markerWidth="10" markerHeight="7" refX="9" refY="3.5" orient="auto">
      <polygon points="0 0, 10 3.5, 0 7" fill="#7c3aed"/>
    </marker>
    <marker id="arrowG" markerWidth="10" markerHeight="7" refX="9" refY="3.5" orient="auto">
      <polygon points="0 0, 10 3.5, 0 7" fill="#ef4444"/>
    </marker>
    <marker id="arrowH" markerWidth="10" markerHeight="7" refX="9" refY="3.5" orient="auto">
      <polygon points="0 0, 10 3.5, 0 7" fill="#6b7280"/>
    </marker>
    <filter id="shadowSoft" x="-20%" y="-20%" width="140%" height="160%">
      <feDropShadow dx="0" dy="3" stdDeviation="6" flood-color="#0f172a" flood-opacity="0.12"/>
    </filter>
    <filter id="shadowGlass" x="-20%" y="-20%" width="140%" height="160%">
      <feDropShadow dx="0" dy="10" stdDeviation="16" flood-color="#020617" flood-opacity="0.28"/>
    </filter>
    <style>
    text { font-family: 'Helvetica Neue', Helvetica, Arial, 'PingFang SC', 'Microsoft YaHei', 'Microsoft JhengHei', 'SimHei', sans-serif; }
    .title { font-size: 30px; font-weight: 700; fill: #111827; }
    .subtitle { font-size: 14px; font-weight: 500; fill: #6b7280; }
    .section { font-size: 13px; font-weight: 700; fill: #2563eb; letter-spacing: 1.4px; }
    .section-sub { font-size: 12px; font-weight: 500; fill: #94a3b8; }
    .node-title { font-size: 18px; font-weight: 700; fill: #111827; }
    .node-sub { font-size: 12px; font-weight: 500; fill: #6b7280; }
    .node-type { font-size: 12px; font-weight: 700; fill: #9ca3af; letter-spacing: 0.08em; }
    .arrow-label { font-size: 12px; font-weight: 600; fill: #6b7280; }
    .legend { font-size: 12px; font-weight: 500; fill: #6b7280; }
    .footnote { font-size: 12px; font-weight: 500; fill: #94a3b8; }
    </style>
  </defs>
  <rect width="960.0" height="1566.0" fill="#ffffff"/>
  <text x="480.0" y="56" text-anchor="middle" class="title">6.4.1 工程实现</text>
  <text x="480.0" y="82" text-anchor="middle" class="subtitle">part-02-platform/chapter-06-ai-gateway.md:612</text>
  <path d="M 480.0,212.0 L 480.0,284.0" fill="none" stroke="#7c3aed" stroke-width="2.4" marker-end="url(#arrowA)"/>
  <path d="M 480.0,342.0 L 480.0,414.0" fill="none" stroke="#7c3aed" stroke-width="2.4" marker-end="url(#arrowA)"/>
  <path d="M 480.0,484.0 L 480.0,556.0" fill="none" stroke="#7c3aed" stroke-width="2.4" marker-end="url(#arrowA)"/>
  <path d="M 480.0,626.0 L 480.0,698.0" fill="none" stroke="#7c3aed" stroke-width="2.4" marker-end="url(#arrowA)"/>
  <path d="M 480.0,768.0 L 480.0,840.0" fill="none" stroke="#7c3aed" stroke-width="2.4" marker-end="url(#arrowA)"/>
  <path d="M 480.0,898.0 L 480.0,918.4 L 375.0,949.6 L 375.0,970.0" fill="none" stroke="#7c3aed" stroke-width="2.4" marker-end="url(#arrowA)"/>
  <path d="M 480.0,898.0 L 480.0,918.4 L 610.5,949.6 L 610.5,970.0" fill="none" stroke="#7c3aed" stroke-width="2.4" marker-end="url(#arrowA)"/>
  <path d="M 610.5,1028.0 L 610.5,1048.4 L 353.0,1085.6 L 353.0,1106.0" fill="none" stroke="#7c3aed" stroke-width="2.4" marker-end="url(#arrowA)"/>
  <path d="M 610.5,1028.0 L 610.5,1100.0" fill="none" stroke="#7c3aed" stroke-width="2.4" marker-end="url(#arrowA)"/>
  <path d="M 375.0,1028.0 L 375.0,1048.4 L 480.0,1221.6 L 480.0,1242.0" fill="none" stroke="#7c3aed" stroke-width="2.4" marker-end="url(#arrowA)"/>
  <path d="M 353.0,1164.0 L 353.0,1184.4 L 480.0,1221.6 L 480.0,1242.0" fill="none" stroke="#7c3aed" stroke-width="2.4" marker-end="url(#arrowA)"/>
  <path d="M 610.5,1170.0 L 610.5,1190.4 L 480.0,1221.6 L 480.0,1242.0" fill="none" stroke="#7c3aed" stroke-width="2.4" marker-end="url(#arrowA)"/>
  <path d="M 480.0,1300.0 L 480.0,1320.4 L 226.0,1351.6 L 226.0,1372.0" fill="none" stroke="#7c3aed" stroke-width="2.4" marker-end="url(#arrowA)"/>
  <path d="M 480.0,1300.0 L 480.0,1320.4 L 487.0,1351.6 L 487.0,1372.0" fill="none" stroke="#7c3aed" stroke-width="2.4" marker-end="url(#arrowA)"/>
  <path d="M 480.0,1300.0 L 480.0,1320.4 L 741.0,1351.6 L 741.0,1372.0" fill="none" stroke="#7c3aed" stroke-width="2.4" marker-end="url(#arrowA)"/>
  <rect x="398.0" y="154.0" width="164.0" height="58.0" rx="10.0" fill="#eff6ff" stroke="#bfdbfe" stroke-width="1.8"/>
  <text x="480.0" y="183.0" text-anchor="middle" class="node-title">request</text>
  <rect x="393.5" y="284.0" width="173.0" height="58.0" rx="10.0" fill="#f0fdf4" stroke="#bbf7d0" stroke-width="1.8"/>
  <text x="480.0" y="313.0" text-anchor="middle" class="node-title">identity / tenant</text>
  <rect x="358.5" y="414.0" width="243.0" height="70.0" rx="10.0" fill="#fff7ed" stroke="#fed7aa" stroke-width="1.8"/>
  <text x="480.0" y="449.0" text-anchor="middle" class="node-title">data classification</text>
  <text x="480.0" y="471.0" text-anchor="middle" class="node-sub">prompt / file / RAG context</text>
  <rect x="348.0" y="556.0" width="264.0" height="70.0" rx="10.0" fill="#faf5ff" stroke="#e9d5ff" stroke-width="1.8"/>
  <text x="480.0" y="591.0" text-anchor="middle" class="node-title">provider contract</text>
  <text x="480.0" y="613.0" text-anchor="middle" class="node-sub">region / no training / logging</text>
  <rect x="376.0" y="698.0" width="208.0" height="70.0" rx="10.0" fill="#f0fdfa" stroke="#99f6e4" stroke-width="1.8"/>
  <text x="480.0" y="733.0" text-anchor="middle" class="node-title">provider cost guard</text>
  <text x="480.0" y="755.0" text-anchor="middle" class="node-sub">budget / price / quota</text>
  <rect x="376.0" y="840.0" width="208.0" height="58.0" rx="10.0" fill="#fff7ed" stroke="#fdba74" stroke-width="2.0"/>
  <rect x="382.0" y="846.0" width="196.0" height="46.0" rx="7.0" fill="none" stroke="#fdba74" stroke-width="1.2" opacity="0.65"/>
  <text x="480.0" y="858.0" text-anchor="middle" class="node-type">DECISION</text>
  <text x="480.0" y="875.0" text-anchor="middle" class="node-title">internal model usable?</text>
  <rect x="267.5" y="970.0" width="215.0" height="58.0" rx="10.0" fill="#eff6ff" stroke="#bfdbfe" stroke-width="1.8"/>
  <text x="375.0" y="999.0" text-anchor="middle" class="node-title">route internal endpoint</text>
  <rect x="528.5" y="970.0" width="164.0" height="58.0" rx="10.0" fill="#fff7ed" stroke="#fdba74" stroke-width="2.0"/>
  <rect x="534.5" y="976.0" width="152.0" height="46.0" rx="7.0" fill="none" stroke="#fdba74" stroke-width="1.2" opacity="0.65"/>
  <text x="610.5" y="988.0" text-anchor="middle" class="node-type">DECISION</text>
  <text x="610.5" y="1005.0" text-anchor="middle" class="node-title">egress allowed?</text>
  <rect x="245.5" y="1106.0" width="215.0" height="58.0" rx="10.0" fill="#fff7ed" stroke="#fed7aa" stroke-width="1.8"/>
  <text x="353.0" y="1135.0" text-anchor="middle" class="node-title">route provider endpoint</text>
  <rect x="506.5" y="1100.0" width="208.0" height="70.0" rx="10.0" fill="#faf5ff" stroke="#e9d5ff" stroke-width="1.8"/>
  <text x="610.5" y="1135.0" text-anchor="middle" class="node-title">deny / degrade / async</text>
  <text x="610.5" y="1157.0" text-anchor="middle" class="node-sub">human approval</text>
  <rect x="369.0" y="1242.0" width="222.0" height="58.0" rx="10.0" fill="#f0fdfa" stroke="#99f6e4" stroke-width="1.8"/>
  <text x="480.0" y="1271.0" text-anchor="middle" class="node-title">egress_provider_decision</text>
  <rect x="122.0" y="1372.0" width="208.0" height="58.0" rx="10.0" fill="#f8fafc" stroke="#cbd5e1" stroke-width="1.8"/>
  <text x="226.0" y="1401.0" text-anchor="middle" class="node-title">policy_decision_record</text>
  <rect x="376.0" y="1372.0" width="222.0" height="58.0" rx="10.0" fill="#eff6ff" stroke="#bfdbfe" stroke-width="1.8"/>
  <text x="487.0" y="1401.0" text-anchor="middle" class="node-title">metering / provider cost</text>
  <rect x="644.0" y="1372.0" width="194.0" height="58.0" rx="10.0" fill="#f0fdf4" stroke="#bbf7d0" stroke-width="1.8"/>
  <text x="741.0" y="1401.0" text-anchor="middle" class="node-title">security_audit_event</text>
  <rect x="409.5" y="904.0" width="36" height="20" rx="6" fill="#ffffff" opacity="0.94"/>
  <text x="427.5" y="918.0" text-anchor="middle" class="arrow-label">yes</text>
  <rect x="527.25" y="904.0" width="36" height="20" rx="6" fill="#ffffff" opacity="0.94"/>
  <text x="545.25" y="918.0" text-anchor="middle" class="arrow-label">no</text>
  <rect x="463.75" y="1037.0" width="36" height="20" rx="6" fill="#ffffff" opacity="0.94"/>
  <text x="481.75" y="1051.0" text-anchor="middle" class="arrow-label">yes</text>
  <rect x="574.5" y="1050.0" width="36" height="20" rx="6" fill="#ffffff" opacity="0.94"/>
  <text x="592.5" y="1064.0" text-anchor="middle" class="arrow-label">no</text>
  <text x="680.0" y="1550.0" class="footnote">Rendered with fireworks-tech-graph</text>
</svg>