<svg xmlns="http://www.w3.org/2000/svg" viewBox="0 0 1221 762" width="1221" height="762">
  <defs>
    <marker id="arrowA" markerWidth="10" markerHeight="7" refX="9" refY="3.5" orient="auto">
      <polygon points="0 0, 10 3.5, 0 7" fill="#7c3aed"/>
    </marker>
    <marker id="arrowB" markerWidth="10" markerHeight="7" refX="9" refY="3.5" orient="auto">
      <polygon points="0 0, 10 3.5, 0 7" fill="#10b981"/>
    </marker>
    <marker id="arrowC" markerWidth="10" markerHeight="7" refX="9" refY="3.5" orient="auto">
      <polygon points="0 0, 10 3.5, 0 7" fill="#2563eb"/>
    </marker>
    <marker id="arrowE" markerWidth="10" markerHeight="7" refX="9" refY="3.5" orient="auto">
      <polygon points="0 0, 10 3.5, 0 7" fill="#f97316"/>
    </marker>
    <marker id="arrowF" markerWidth="10" markerHeight="7" refX="9" refY="3.5" orient="auto">
      <polygon points="0 0, 10 3.5, 0 7" fill="#7c3aed"/>
    </marker>
    <marker id="arrowG" markerWidth="10" markerHeight="7" refX="9" refY="3.5" orient="auto">
      <polygon points="0 0, 10 3.5, 0 7" fill="#ef4444"/>
    </marker>
    <marker id="arrowHStart" markerWidth="10" markerHeight="7" refX="1" refY="3.5" orient="auto">
      <polygon points="10 0, 0 3.5, 10 7" fill="#6b7280"/>
    </marker>
    <marker id="arrowH" markerWidth="10" markerHeight="7" refX="9" refY="3.5" orient="auto">
      <polygon points="0 0, 10 3.5, 0 7" fill="#6b7280"/>
    </marker>
    <filter id="shadowSoft" x="-20%" y="-20%" width="140%" height="160%">
      <feDropShadow dx="0" dy="3" stdDeviation="6" flood-color="#0f172a" flood-opacity="0.12"/>
    </filter>
    <filter id="shadowGlass" x="-20%" y="-20%" width="140%" height="160%">
      <feDropShadow dx="0" dy="10" stdDeviation="16" flood-color="#020617" flood-opacity="0.28"/>
    </filter>
    <style>
    text { font-family: 'Helvetica Neue', Helvetica, Arial, 'PingFang SC', 'Microsoft YaHei', 'Microsoft JhengHei', 'SimHei', sans-serif; }
    .title { font-size: 30px; font-weight: 700; fill: #111827; }
    .subtitle { font-size: 14px; font-weight: 500; fill: #6b7280; }
    .section { font-size: 13px; font-weight: 700; fill: #2563eb; letter-spacing: 1.4px; }
    .section-sub { font-size: 12px; font-weight: 500; fill: #94a3b8; }
    .node-title { font-size: 18px; font-weight: 700; fill: #111827; }
    .node-sub { font-size: 12px; font-weight: 500; fill: #6b7280; }
    .node-type { font-size: 12px; font-weight: 700; fill: #9ca3af; letter-spacing: 0.08em; }
    .arrow-label { font-size: 12px; font-weight: 600; fill: #6b7280; }
    .legend { font-size: 12px; font-weight: 500; fill: #6b7280; }
    .footnote { font-size: 12px; font-weight: 500; fill: #94a3b8; }
    </style>
  </defs>
  <rect width="1221.0" height="762.0" fill="#ffffff"/>
  <text x="610.5" y="56" text-anchor="middle" class="title">30.2.2 系统架构</text>
  <text x="610.5" y="82" text-anchor="middle" class="subtitle">part-07-network-storage/chapter-30-ai-networking-basics.md:70</text>
  <rect x="36.0" y="112.0" width="571.0" height="402.0" rx="16.0" fill="none" stroke="#dbe5f1" stroke-width="1.4" stroke-dasharray="6 5"/>
  <text x="54.0" y="136.0" class="section">NORTH-SOUTH PATH</text>
  <rect x="246.0" y="112.0" width="580.0" height="538.0" rx="16.0" fill="none" stroke="#dbe5f1" stroke-width="1.4" stroke-dasharray="6 5"/>
  <text x="264.0" y="136.0" class="section">EAST-WEST PATH</text>
  <path d="M 142.0,218.0 L 142.0,238.4 L 501.0,275.6 L 501.0,296.0" fill="none" stroke="#7c3aed" stroke-width="2.4" marker-end="url(#arrowA)"/>
  <path d="M 501.0,354.0 L 501.0,374.4 L 388.0,411.6 L 388.0,432.0" fill="none" stroke="#7c3aed" stroke-width="2.4" marker-end="url(#arrowA)"/>
  <path d="M 356.5,218.0 L 356.5,238.4 L 715.5,275.6 L 715.5,296.0" fill="none" stroke="#6b7280" stroke-width="2.0" marker-start="url(#arrowHStart)" marker-end="url(#arrowH)"/>
  <path d="M 715.5,354.0 L 715.5,374.4 L 602.5,411.6 L 602.5,432.0" fill="none" stroke="#6b7280" stroke-width="2.0" marker-start="url(#arrowHStart)" marker-end="url(#arrowH)"/>
  <path d="M 388.0,490.0 L 388.0,510.4 L 610.5,547.6 L 610.5,568.0" fill="none" stroke="#7c3aed" stroke-width="2.4" marker-end="url(#arrowA)"/>
  <path d="M 356.5,218.0 L 356.5,238.4 L 825.0,405.6 L 825.0,426.0" fill="none" stroke="#7c3aed" stroke-width="2.4" marker-end="url(#arrowA)"/>
  <path d="M 715.5,354.0 L 715.5,374.4 L 825.0,405.6 L 825.0,426.0" fill="none" stroke="#7c3aed" stroke-width="2.4" marker-end="url(#arrowA)"/>
  <path d="M 571.0,224.0 L 571.0,244.4 L 715.5,275.6 L 715.5,296.0" fill="none" stroke="#6b7280" stroke-width="2.0"/>
  <path d="M 571.0,224.0 L 571.0,244.4 L 825.0,405.6 L 825.0,426.0" fill="none" stroke="#6b7280" stroke-width="2.0"/>
  <path d="M 699.0,189.0 L 653.0,189.0" fill="none" stroke="#7c3aed" stroke-width="2.4" marker-end="url(#arrowA)"/>
  <path d="M 939.0,189.0 L 918.6,189.0 L 918.6,248.0 L 463.4,248.0 L 463.4,189.0 L 443.0,189.0" fill="none" stroke="#7c3aed" stroke-width="2.4" marker-end="url(#arrowA)"/>
  <rect x="60.0" y="160.0" width="164.0" height="58.0" rx="10.0" fill="#eff6ff" stroke="#bfdbfe" stroke-width="1.8"/>
  <text x="142.0" y="189.0" text-anchor="middle" class="node-title">用户 / API Client</text>
  <rect x="270.0" y="160.0" width="173.0" height="58.0" rx="10.0" fill="#faf5ff" stroke="#e9d5ff" stroke-width="1.8"/>
  <text x="356.5" y="189.0" text-anchor="middle" class="node-title">Training Worker A</text>
  <rect x="489.0" y="154.0" width="164.0" height="70.0" rx="10.0" fill="#fff7ed" stroke="#fed7aa" stroke-width="1.8"/>
  <text x="571.0" y="189.0" text-anchor="middle" class="node-title">IB / RoCE</text>
  <text x="571.0" y="211.0" text-anchor="middle" class="node-sub">Ethernet Fabric</text>
  <rect x="699.0" y="154.0" width="194.0" height="70.0" rx="10.0" fill="#faf5ff" stroke="#e9d5ff" stroke-width="1.8"/>
  <text x="796.0" y="189.0" text-anchor="middle" class="node-title">Port counters / RDMA</text>
  <text x="796.0" y="211.0" text-anchor="middle" class="node-sub">NCCL / Trace</text>
  <rect x="939.0" y="160.0" width="222.0" height="58.0" rx="10.0" fill="#f0fdfa" stroke="#99f6e4" stroke-width="1.8"/>
  <text x="1050.0" y="189.0" text-anchor="middle" class="node-title">Topology-aware Scheduler</text>
  <rect x="419.0" y="296.0" width="164.0" height="58.0" rx="10.0" fill="#f0fdf4" stroke="#bbf7d0" stroke-width="1.8"/>
  <text x="501.0" y="325.0" text-anchor="middle" class="node-title">AI Gateway / LB</text>
  <rect x="629.0" y="296.0" width="173.0" height="58.0" rx="10.0" fill="#f0fdfa" stroke="#99f6e4" stroke-width="1.8"/>
  <text x="715.5" y="325.0" text-anchor="middle" class="node-title">Training Worker B</text>
  <rect x="306.0" y="432.0" width="164.0" height="58.0" rx="10.0" fill="#fff7ed" stroke="#fed7aa" stroke-width="1.8"/>
  <text x="388.0" y="461.0" text-anchor="middle" class="node-title">Model Serving</text>
  <rect x="516.0" y="432.0" width="173.0" height="58.0" rx="10.0" fill="#f8fafc" stroke="#cbd5e1" stroke-width="1.8"/>
  <text x="602.5" y="461.0" text-anchor="middle" class="node-title">Training Worker C</text>
  <rect x="735.0" y="426.0" width="180.0" height="70.0" rx="10.0" fill="#f0fdf4" stroke="#bbf7d0" stroke-width="1.8"/>
  <text x="825.0" y="461.0" text-anchor="middle" class="node-title">Dataset</text>
  <text x="825.0" y="483.0" text-anchor="middle" class="node-sub">Checkpoint Storage</text>
  <rect x="524.0" y="568.0" width="173.0" height="58.0" rx="10.0" fill="#eff6ff" stroke="#bfdbfe" stroke-width="1.8"/>
  <text x="610.5" y="597.0" text-anchor="middle" class="node-title">KV / Weight Cache</text>
  <line x1="42.0" y1="724.0" x2="72.0" y2="724.0" stroke="#6b7280" stroke-width="2.4" marker-start="url(#arrowHStart)" marker-end="url(#arrowH)"/>
  <text x="82.0" y="728.0" class="legend">物理 / 拓扑连接</text>
  <text x="941.0" y="746.0" class="footnote">Rendered with fireworks-tech-graph</text>
</svg>