<svg xmlns="http://www.w3.org/2000/svg" viewBox="0 0 2104 632" width="2104" height="632">
  <defs>
    <marker id="arrowA" markerWidth="10" markerHeight="7" refX="9" refY="3.5" orient="auto">
      <polygon points="0 0, 10 3.5, 0 7" fill="#7c3aed"/>
    </marker>
    <marker id="arrowB" markerWidth="10" markerHeight="7" refX="9" refY="3.5" orient="auto">
      <polygon points="0 0, 10 3.5, 0 7" fill="#10b981"/>
    </marker>
    <marker id="arrowC" markerWidth="10" markerHeight="7" refX="9" refY="3.5" orient="auto">
      <polygon points="0 0, 10 3.5, 0 7" fill="#2563eb"/>
    </marker>
    <marker id="arrowE" markerWidth="10" markerHeight="7" refX="9" refY="3.5" orient="auto">
      <polygon points="0 0, 10 3.5, 0 7" fill="#f97316"/>
    </marker>
    <marker id="arrowF" markerWidth="10" markerHeight="7" refX="9" refY="3.5" orient="auto">
      <polygon points="0 0, 10 3.5, 0 7" fill="#7c3aed"/>
    </marker>
    <marker id="arrowG" markerWidth="10" markerHeight="7" refX="9" refY="3.5" orient="auto">
      <polygon points="0 0, 10 3.5, 0 7" fill="#ef4444"/>
    </marker>
    <marker id="arrowH" markerWidth="10" markerHeight="7" refX="9" refY="3.5" orient="auto">
      <polygon points="0 0, 10 3.5, 0 7" fill="#6b7280"/>
    </marker>
    <filter id="shadowSoft" x="-20%" y="-20%" width="140%" height="160%">
      <feDropShadow dx="0" dy="3" stdDeviation="6" flood-color="#0f172a" flood-opacity="0.12"/>
    </filter>
    <filter id="shadowGlass" x="-20%" y="-20%" width="140%" height="160%">
      <feDropShadow dx="0" dy="10" stdDeviation="16" flood-color="#020617" flood-opacity="0.28"/>
    </filter>
    <style>
    text { font-family: 'Helvetica Neue', Helvetica, Arial, 'PingFang SC', 'Microsoft YaHei', 'Microsoft JhengHei', 'SimHei', sans-serif; }
    .title { font-size: 30px; font-weight: 700; fill: #111827; }
    .subtitle { font-size: 14px; font-weight: 500; fill: #6b7280; }
    .section { font-size: 13px; font-weight: 700; fill: #2563eb; letter-spacing: 1.4px; }
    .section-sub { font-size: 12px; font-weight: 500; fill: #94a3b8; }
    .node-title { font-size: 18px; font-weight: 700; fill: #111827; }
    .node-sub { font-size: 12px; font-weight: 500; fill: #6b7280; }
    .node-type { font-size: 12px; font-weight: 700; fill: #9ca3af; letter-spacing: 0.08em; }
    .arrow-label { font-size: 12px; font-weight: 600; fill: #6b7280; }
    .legend { font-size: 12px; font-weight: 500; fill: #6b7280; }
    .footnote { font-size: 12px; font-weight: 500; fill: #94a3b8; }
    </style>
  </defs>
  <rect width="2104.0" height="632.0" fill="#ffffff"/>
  <text x="1052.0" y="56" text-anchor="middle" class="title">33.4.1 工程实现</text>
  <text x="1052.0" y="82" text-anchor="middle" class="subtitle">part-07-network-storage/chapter-33-ai-storage.md:635</text>
  <path d="M 1052.0,212.0 L 1052.0,232.4 L 914.5,269.6 L 914.5,290.0" fill="none" stroke="#7c3aed" stroke-width="2.4" marker-end="url(#arrowA)"/>
  <path d="M 1052.0,212.0 L 1052.0,232.4 L 1182.5,263.6 L 1182.5,284.0" fill="none" stroke="#7c3aed" stroke-width="2.4" marker-end="url(#arrowA)"/>
  <path d="M 1182.5,354.0 L 1182.5,374.4 L 157.0,411.6 L 157.0,432.0" fill="none" stroke="#7c3aed" stroke-width="2.4" marker-end="url(#arrowA)"/>
  <path d="M 1182.5,354.0 L 1182.5,374.4 L 382.0,411.6 L 382.0,432.0" fill="none" stroke="#7c3aed" stroke-width="2.4" marker-end="url(#arrowA)"/>
  <path d="M 1182.5,354.0 L 1182.5,374.4 L 624.5,411.6 L 624.5,432.0" fill="none" stroke="#7c3aed" stroke-width="2.4" marker-end="url(#arrowA)"/>
  <path d="M 1182.5,354.0 L 1182.5,374.4 L 892.5,411.6 L 892.5,432.0" fill="none" stroke="#7c3aed" stroke-width="2.4" marker-end="url(#arrowA)"/>
  <path d="M 254.0,461.0 L 274.4,461.0 L 274.4,319.0 L 1022.0,319.0" fill="none" stroke="#7c3aed" stroke-width="2.4" marker-end="url(#arrowA)"/>
  <path d="M 464.0,461.0 L 484.4,461.0 L 484.4,319.0 L 1022.0,319.0" fill="none" stroke="#7c3aed" stroke-width="2.4" marker-end="url(#arrowA)"/>
  <path d="M 739.0,461.0 L 759.4,461.0 L 759.4,319.0 L 1022.0,319.0" fill="none" stroke="#7c3aed" stroke-width="2.4" marker-end="url(#arrowA)"/>
  <path d="M 1000.0,461.0 L 1020.4,461.0 L 1020.4,319.0 L 1022.0,319.0" fill="none" stroke="#7c3aed" stroke-width="2.4" marker-end="url(#arrowA)"/>
  <path d="M 914.5,348.0 L 914.5,368.4 L 1136.0,411.6 L 1136.0,432.0" fill="none" stroke="#7c3aed" stroke-width="2.4" marker-end="url(#arrowA)"/>
  <path d="M 914.5,348.0 L 914.5,368.4 L 1379.5,405.6 L 1379.5,426.0" fill="none" stroke="#7c3aed" stroke-width="2.4" marker-end="url(#arrowA)"/>
  <path d="M 914.5,348.0 L 914.5,368.4 L 1647.5,411.6 L 1647.5,432.0" fill="none" stroke="#7c3aed" stroke-width="2.4" marker-end="url(#arrowA)"/>
  <path d="M 914.5,348.0 L 914.5,368.4 L 1926.0,411.6 L 1926.0,432.0" fill="none" stroke="#7c3aed" stroke-width="2.4" marker-end="url(#arrowA)"/>
  <rect x="951.5" y="154.0" width="201.0" height="58.0" rx="10.0" fill="#eff6ff" stroke="#bfdbfe" stroke-width="1.8"/>
  <text x="1052.0" y="183.0" text-anchor="middle" class="node-title">original media object</text>
  <rect x="807.0" y="290.0" width="215.0" height="58.0" rx="10.0" fill="#f0fdf4" stroke="#bbf7d0" stroke-width="1.8"/>
  <text x="914.5" y="319.0" text-anchor="middle" class="node-title">media_artifact_manifest</text>
  <rect x="1068.0" y="284.0" width="229.0" height="70.0" rx="10.0" fill="#fff7ed" stroke="#fed7aa" stroke-width="1.8"/>
  <text x="1182.5" y="319.0" text-anchor="middle" class="node-title">media_processing_pipeline</text>
  <text x="1182.5" y="341.0" text-anchor="middle" class="node-sub">record</text>
  <rect x="60.0" y="432.0" width="194.0" height="58.0" rx="10.0" fill="#faf5ff" stroke="#e9d5ff" stroke-width="1.8"/>
  <text x="157.0" y="461.0" text-anchor="middle" class="node-title">page images / frames</text>
  <rect x="300.0" y="432.0" width="164.0" height="58.0" rx="10.0" fill="#f0fdfa" stroke="#99f6e4" stroke-width="1.8"/>
  <text x="382.0" y="461.0" text-anchor="middle" class="node-title">OCR / ASR text</text>
  <rect x="510.0" y="432.0" width="229.0" height="58.0" rx="10.0" fill="#f8fafc" stroke="#cbd5e1" stroke-width="1.8"/>
  <text x="624.5" y="461.0" text-anchor="middle" class="node-title">layout / tables / regions</text>
  <rect x="785.0" y="432.0" width="215.0" height="58.0" rx="10.0" fill="#eff6ff" stroke="#bfdbfe" stroke-width="1.8"/>
  <text x="892.5" y="461.0" text-anchor="middle" class="node-title">visual/audio embeddings</text>
  <rect x="1046.0" y="432.0" width="180.0" height="58.0" rx="10.0" fill="#f0fdf4" stroke="#bbf7d0" stroke-width="1.8"/>
  <text x="1136.0" y="461.0" text-anchor="middle" class="node-title">multimodal serving</text>
  <rect x="1272.0" y="426.0" width="215.0" height="70.0" rx="10.0" fill="#fff7ed" stroke="#fed7aa" stroke-width="1.8"/>
  <text x="1379.5" y="461.0" text-anchor="middle" class="node-title">multimodal_quality_gate</text>
  <text x="1379.5" y="483.0" text-anchor="middle" class="node-sub">execution</text>
  <rect x="1533.0" y="432.0" width="229.0" height="58.0" rx="10.0" fill="#faf5ff" stroke="#e9d5ff" stroke-width="1.8"/>
  <text x="1647.5" y="461.0" text-anchor="middle" class="node-title">multimodal_metering_event</text>
  <rect x="1808.0" y="432.0" width="236.0" height="58.0" rx="10.0" fill="#f0fdfa" stroke="#99f6e4" stroke-width="1.8"/>
  <text x="1926.0" y="461.0" text-anchor="middle" class="node-title">retention / delete / audit</text>
  <text x="1824.0" y="616.0" class="footnote">Rendered with fireworks-tech-graph</text>
</svg>