<svg xmlns="http://www.w3.org/2000/svg" viewBox="0 0 1591 1046" width="1591" height="1046">
  <defs>
    <marker id="arrowA" markerWidth="10" markerHeight="7" refX="9" refY="3.5" orient="auto">
      <polygon points="0 0, 10 3.5, 0 7" fill="#7c3aed"/>
    </marker>
    <marker id="arrowB" markerWidth="10" markerHeight="7" refX="9" refY="3.5" orient="auto">
      <polygon points="0 0, 10 3.5, 0 7" fill="#10b981"/>
    </marker>
    <marker id="arrowC" markerWidth="10" markerHeight="7" refX="9" refY="3.5" orient="auto">
      <polygon points="0 0, 10 3.5, 0 7" fill="#2563eb"/>
    </marker>
    <marker id="arrowE" markerWidth="10" markerHeight="7" refX="9" refY="3.5" orient="auto">
      <polygon points="0 0, 10 3.5, 0 7" fill="#f97316"/>
    </marker>
    <marker id="arrowF" markerWidth="10" markerHeight="7" refX="9" refY="3.5" orient="auto">
      <polygon points="0 0, 10 3.5, 0 7" fill="#7c3aed"/>
    </marker>
    <marker id="arrowG" markerWidth="10" markerHeight="7" refX="9" refY="3.5" orient="auto">
      <polygon points="0 0, 10 3.5, 0 7" fill="#ef4444"/>
    </marker>
    <marker id="arrowH" markerWidth="10" markerHeight="7" refX="9" refY="3.5" orient="auto">
      <polygon points="0 0, 10 3.5, 0 7" fill="#6b7280"/>
    </marker>
    <filter id="shadowSoft" x="-20%" y="-20%" width="140%" height="160%">
      <feDropShadow dx="0" dy="3" stdDeviation="6" flood-color="#0f172a" flood-opacity="0.12"/>
    </filter>
    <filter id="shadowGlass" x="-20%" y="-20%" width="140%" height="160%">
      <feDropShadow dx="0" dy="10" stdDeviation="16" flood-color="#020617" flood-opacity="0.28"/>
    </filter>
    <style>
    text { font-family: 'Helvetica Neue', Helvetica, Arial, 'PingFang SC', 'Microsoft YaHei', 'Microsoft JhengHei', 'SimHei', sans-serif; }
    .title { font-size: 30px; font-weight: 700; fill: #111827; }
    .subtitle { font-size: 14px; font-weight: 500; fill: #6b7280; }
    .section { font-size: 13px; font-weight: 700; fill: #2563eb; letter-spacing: 1.4px; }
    .section-sub { font-size: 12px; font-weight: 500; fill: #94a3b8; }
    .node-title { font-size: 18px; font-weight: 700; fill: #111827; }
    .node-sub { font-size: 12px; font-weight: 500; fill: #6b7280; }
    .node-type { font-size: 12px; font-weight: 700; fill: #9ca3af; letter-spacing: 0.08em; }
    .arrow-label { font-size: 12px; font-weight: 600; fill: #6b7280; }
    .legend { font-size: 12px; font-weight: 500; fill: #6b7280; }
    .footnote { font-size: 12px; font-weight: 500; fill: #94a3b8; }
    </style>
  </defs>
  <rect width="1591.0" height="1046.0" fill="#ffffff"/>
  <text x="795.5" y="56" text-anchor="middle" class="title">39.4.1 工程实现</text>
  <text x="795.5" y="82" text-anchor="middle" class="subtitle">part-09-reliability-observability/chapter-39-troubleshooting.md:1482</text>
  <path d="M 795.5,212.0 L 795.5,284.0" fill="none" stroke="#7c3aed" stroke-width="2.4" marker-end="url(#arrowA)"/>
  <path d="M 795.5,354.0 L 795.5,374.4 L 164.0,411.6 L 164.0,432.0" fill="none" stroke="#7c3aed" stroke-width="2.4" marker-end="url(#arrowA)"/>
  <path d="M 795.5,354.0 L 795.5,374.4 L 428.5,411.6 L 428.5,432.0" fill="none" stroke="#7c3aed" stroke-width="2.4" marker-end="url(#arrowA)"/>
  <path d="M 795.5,354.0 L 795.5,374.4 L 707.0,411.6 L 707.0,432.0" fill="none" stroke="#7c3aed" stroke-width="2.4" marker-end="url(#arrowA)"/>
  <path d="M 795.5,354.0 L 795.5,374.4 L 964.5,405.6 L 964.5,426.0" fill="none" stroke="#7c3aed" stroke-width="2.4" marker-end="url(#arrowA)"/>
  <path d="M 795.5,354.0 L 795.5,374.4 L 1208.0,411.6 L 1208.0,432.0" fill="none" stroke="#7c3aed" stroke-width="2.4" marker-end="url(#arrowA)"/>
  <path d="M 795.5,354.0 L 795.5,374.4 L 1444.5,411.6 L 1444.5,432.0" fill="none" stroke="#7c3aed" stroke-width="2.4" marker-end="url(#arrowA)"/>
  <path d="M 964.5,496.0 L 964.5,516.4 L 672.0,547.6 L 672.0,568.0" fill="none" stroke="#7c3aed" stroke-width="2.4" marker-end="url(#arrowA)"/>
  <path d="M 707.0,490.0 L 707.0,510.4 L 672.0,547.6 L 672.0,568.0" fill="none" stroke="#7c3aed" stroke-width="2.4" marker-end="url(#arrowA)"/>
  <path d="M 1208.0,490.0 L 1208.0,510.4 L 672.0,547.6 L 672.0,568.0" fill="none" stroke="#7c3aed" stroke-width="2.4" marker-end="url(#arrowA)"/>
  <path d="M 1444.5,490.0 L 1444.5,510.4 L 922.5,547.6 L 922.5,568.0" fill="none" stroke="#7c3aed" stroke-width="2.4" marker-end="url(#arrowA)"/>
  <path d="M 672.0,626.0 L 672.0,646.4 L 795.5,677.6 L 795.5,698.0" fill="none" stroke="#7c3aed" stroke-width="2.4" marker-end="url(#arrowA)"/>
  <path d="M 922.5,626.0 L 922.5,646.4 L 795.5,677.6 L 795.5,698.0" fill="none" stroke="#7c3aed" stroke-width="2.4" marker-end="url(#arrowA)"/>
  <path d="M 795.5,768.0 L 795.5,840.0" fill="none" stroke="#7c3aed" stroke-width="2.4" marker-end="url(#arrowA)"/>
  <rect x="698.5" y="154.0" width="194.0" height="58.0" rx="10.0" fill="#eff6ff" stroke="#bfdbfe" stroke-width="1.8"/>
  <text x="795.5" y="183.0" text-anchor="middle" class="node-title">supply chain symptom</text>
  <rect x="688.0" y="284.0" width="215.0" height="70.0" rx="10.0" fill="#f0fdf4" stroke="#bbf7d0" stroke-width="1.8"/>
  <text x="795.5" y="319.0" text-anchor="middle" class="node-title">supply_chain_fault_tree</text>
  <text x="795.5" y="341.0" text-anchor="middle" class="node-sub">execution</text>
  <rect x="60.0" y="432.0" width="208.0" height="58.0" rx="10.0" fill="#fff7ed" stroke="#fed7aa" stroke-width="1.8"/>
  <text x="164.0" y="461.0" text-anchor="middle" class="node-title">dataset lineage branch</text>
  <rect x="314.0" y="432.0" width="229.0" height="58.0" rx="10.0" fill="#faf5ff" stroke="#e9d5ff" stroke-width="1.8"/>
  <text x="428.5" y="461.0" text-anchor="middle" class="node-title">checkpoint restore branch</text>
  <rect x="589.0" y="432.0" width="236.0" height="58.0" rx="10.0" fill="#f0fdfa" stroke="#99f6e4" stroke-width="1.8"/>
  <text x="707.0" y="461.0" text-anchor="middle" class="node-title">artifact provenance branch</text>
  <rect x="871.0" y="426.0" width="187.0" height="70.0" rx="10.0" fill="#f8fafc" stroke="#cbd5e1" stroke-width="1.8"/>
  <text x="964.5" y="461.0" text-anchor="middle" class="node-title">cache</text>
  <text x="964.5" y="483.0" text-anchor="middle" class="node-sub">distribution branch</text>
  <rect x="1104.0" y="432.0" width="208.0" height="58.0" rx="10.0" fill="#eff6ff" stroke="#bfdbfe" stroke-width="1.8"/>
  <text x="1208.0" y="461.0" text-anchor="middle" class="node-title">RAG index / ACL branch</text>
  <rect x="1358.0" y="432.0" width="173.0" height="58.0" rx="10.0" fill="#f0fdf4" stroke="#bbf7d0" stroke-width="1.8"/>
  <text x="1444.5" y="461.0" text-anchor="middle" class="node-title">accounting branch</text>
  <rect x="568.0" y="568.0" width="208.0" height="58.0" rx="10.0" fill="#fff7ed" stroke="#fed7aa" stroke-width="1.8"/>
  <text x="672.0" y="597.0" text-anchor="middle" class="node-title">block / drain / rewarm</text>
  <rect x="822.0" y="568.0" width="201.0" height="58.0" rx="10.0" fill="#faf5ff" stroke="#e9d5ff" stroke-width="1.8"/>
  <text x="922.5" y="597.0" text-anchor="middle" class="node-title">billing hold / replay</text>
  <rect x="677.5" y="698.0" width="236.0" height="70.0" rx="10.0" fill="#f0fdfa" stroke="#99f6e4" stroke-width="1.8"/>
  <text x="795.5" y="733.0" text-anchor="middle" class="node-title">supply_chain_incident_cost</text>
  <text x="795.5" y="755.0" text-anchor="middle" class="node-sub">record</text>
  <rect x="695.0" y="840.0" width="201.0" height="70.0" rx="10.0" fill="#f8fafc" stroke="#cbd5e1" stroke-width="1.8"/>
  <text x="795.5" y="875.0" text-anchor="middle" class="node-title">supply chain PRR gate</text>
  <text x="795.5" y="897.0" text-anchor="middle" class="node-sub">update</text>
  <text x="1311.0" y="1030.0" class="footnote">Rendered with fireworks-tech-graph</text>
</svg>