<svg xmlns="http://www.w3.org/2000/svg" viewBox="0 0 1875 404" width="1875" height="404">
  <defs>
    <marker id="arrowA" markerWidth="10" markerHeight="7" refX="9" refY="3.5" orient="auto">
      <polygon points="0 0, 10 3.5, 0 7" fill="#7c3aed"/>
    </marker>
    <marker id="arrowB" markerWidth="10" markerHeight="7" refX="9" refY="3.5" orient="auto">
      <polygon points="0 0, 10 3.5, 0 7" fill="#10b981"/>
    </marker>
    <marker id="arrowC" markerWidth="10" markerHeight="7" refX="9" refY="3.5" orient="auto">
      <polygon points="0 0, 10 3.5, 0 7" fill="#2563eb"/>
    </marker>
    <marker id="arrowE" markerWidth="10" markerHeight="7" refX="9" refY="3.5" orient="auto">
      <polygon points="0 0, 10 3.5, 0 7" fill="#f97316"/>
    </marker>
    <marker id="arrowF" markerWidth="10" markerHeight="7" refX="9" refY="3.5" orient="auto">
      <polygon points="0 0, 10 3.5, 0 7" fill="#7c3aed"/>
    </marker>
    <marker id="arrowG" markerWidth="10" markerHeight="7" refX="9" refY="3.5" orient="auto">
      <polygon points="0 0, 10 3.5, 0 7" fill="#ef4444"/>
    </marker>
    <marker id="arrowH" markerWidth="10" markerHeight="7" refX="9" refY="3.5" orient="auto">
      <polygon points="0 0, 10 3.5, 0 7" fill="#6b7280"/>
    </marker>
    <filter id="shadowSoft" x="-20%" y="-20%" width="140%" height="160%">
      <feDropShadow dx="0" dy="3" stdDeviation="6" flood-color="#0f172a" flood-opacity="0.12"/>
    </filter>
    <filter id="shadowGlass" x="-20%" y="-20%" width="140%" height="160%">
      <feDropShadow dx="0" dy="10" stdDeviation="16" flood-color="#020617" flood-opacity="0.28"/>
    </filter>
    <style>
    text { font-family: 'Helvetica Neue', Helvetica, Arial, 'PingFang SC', 'Microsoft YaHei', 'Microsoft JhengHei', 'SimHei', sans-serif; }
    .title { font-size: 30px; font-weight: 700; fill: #111827; }
    .subtitle { font-size: 14px; font-weight: 500; fill: #6b7280; }
    .section { font-size: 13px; font-weight: 700; fill: #2563eb; letter-spacing: 1.4px; }
    .section-sub { font-size: 12px; font-weight: 500; fill: #94a3b8; }
    .node-title { font-size: 18px; font-weight: 700; fill: #111827; }
    .node-sub { font-size: 12px; font-weight: 500; fill: #6b7280; }
    .node-type { font-size: 12px; font-weight: 700; fill: #9ca3af; letter-spacing: 0.08em; }
    .arrow-label { font-size: 12px; font-weight: 600; fill: #6b7280; }
    .legend { font-size: 12px; font-weight: 500; fill: #6b7280; }
    .footnote { font-size: 12px; font-weight: 500; fill: #94a3b8; }
    </style>
  </defs>
  <rect width="1875.0" height="404.0" fill="#ffffff"/>
  <text x="937.5" y="56" text-anchor="middle" class="title">28.2.2 系统架构</text>
  <text x="937.5" y="82" text-anchor="middle" class="subtitle">part-06-gpu-iaas/chapter-28-gpu-resource-pool.md:156</text>
  <path d="M 419.5,161.0 L 439.9,161.0 L 502.6,211.0 L 523.0,211.0" fill="none" stroke="#7c3aed" stroke-width="2.4" marker-end="url(#arrowA)"/>
  <path d="M 451.0,273.0 L 471.4,273.0 L 502.6,211.0 L 523.0,211.0" fill="none" stroke="#7c3aed" stroke-width="2.4" marker-end="url(#arrowA)"/>
  <path d="M 752.0,211.0 L 772.4,211.0 L 803.6,161.0 L 824.0,161.0" fill="none" stroke="#7c3aed" stroke-width="2.4" marker-end="url(#arrowA)"/>
  <path d="M 1018.0,161.0 L 1038.4,161.0 L 1069.6,217.0 L 1090.0,217.0" fill="none" stroke="#7c3aed" stroke-width="2.4" marker-end="url(#arrowA)"/>
  <path d="M 1263.0,217.0 L 1283.4,217.0 L 1314.6,211.0 L 1335.0,211.0" fill="none" stroke="#7c3aed" stroke-width="2.4" marker-end="url(#arrowA)"/>
  <path d="M 1499.0,211.0 L 1519.4,211.0 L 1550.6,217.0 L 1571.0,217.0" fill="none" stroke="#7c3aed" stroke-width="2.4" marker-end="url(#arrowA)"/>
  <path d="M 1675.0,252.0 L 1675.0,330.0 L 273.5,330.0 L 273.5,308.0" fill="none" stroke="#7c3aed" stroke-width="2.4" marker-end="url(#arrowA)"/>
  <path d="M 752.0,211.0 L 772.4,211.0 L 803.6,273.0 L 824.0,273.0" fill="none" stroke="#7c3aed" stroke-width="2.4" marker-end="url(#arrowA)"/>
  <rect x="127.5" y="126.0" width="292.0" height="70.0" rx="10.0" fill="#eff6ff" stroke="#bfdbfe" stroke-width="1.8"/>
  <text x="273.5" y="161.0" text-anchor="middle" class="node-title">model requirements</text>
  <text x="273.5" y="183.0" text-anchor="middle" class="node-sub">context / precision / engine / SLO</text>
  <rect x="96.0" y="238.0" width="355.0" height="70.0" rx="10.0" fill="#fff7ed" stroke="#fed7aa" stroke-width="1.8"/>
  <text x="273.5" y="273.0" text-anchor="middle" class="node-title">heterogeneous_gpu_pool</text>
  <text x="273.5" y="295.0" text-anchor="middle" class="node-sub">profile / classes / baselines / entitlement</text>
  <rect x="523.0" y="182.0" width="229.0" height="58.0" rx="10.0" fill="#f0fdf4" stroke="#bbf7d0" stroke-width="1.8"/>
  <text x="637.5" y="211.0" text-anchor="middle" class="node-title">model_hardware_fit_record</text>
  <rect x="824.0" y="126.0" width="194.0" height="70.0" rx="10.0" fill="#faf5ff" stroke="#e9d5ff" stroke-width="1.8"/>
  <text x="921.0" y="161.0" text-anchor="middle" class="node-title">gpu_generation_route</text>
  <text x="921.0" y="183.0" text-anchor="middle" class="node-sub">decision</text>
  <rect x="824.0" y="238.0" width="194.0" height="70.0" rx="10.0" fill="#f0fdf4" stroke="#bbf7d0" stroke-width="1.8"/>
  <text x="921.0" y="273.0" text-anchor="middle" class="node-title">production_readiness</text>
  <text x="921.0" y="295.0" text-anchor="middle" class="node-sub">review</text>
  <rect x="1090.0" y="182.0" width="173.0" height="70.0" rx="10.0" fill="#f0fdfa" stroke="#99f6e4" stroke-width="1.8"/>
  <text x="1176.5" y="217.0" text-anchor="middle" class="node-title">serving placement</text>
  <text x="1176.5" y="239.0" text-anchor="middle" class="node-sub">endpoint</text>
  <rect x="1335.0" y="182.0" width="164.0" height="58.0" rx="10.0" fill="#f8fafc" stroke="#cbd5e1" stroke-width="1.8"/>
  <text x="1417.0" y="211.0" text-anchor="middle" class="node-title">metering events</text>
  <rect x="1571.0" y="182.0" width="208.0" height="70.0" rx="10.0" fill="#eff6ff" stroke="#bfdbfe" stroke-width="1.8"/>
  <text x="1675.0" y="217.0" text-anchor="middle" class="node-title">heterogeneous_gpu_cost</text>
  <text x="1675.0" y="239.0" text-anchor="middle" class="node-sub">scorecard</text>
  <text x="1595.0" y="388.0" class="footnote">Rendered with fireworks-tech-graph</text>
</svg>