<svg xmlns="http://www.w3.org/2000/svg" viewBox="0 0 2272 404" width="2272" height="404">
  <defs>
    <marker id="arrowA" markerWidth="10" markerHeight="7" refX="9" refY="3.5" orient="auto">
      <polygon points="0 0, 10 3.5, 0 7" fill="#7c3aed"/>
    </marker>
    <marker id="arrowB" markerWidth="10" markerHeight="7" refX="9" refY="3.5" orient="auto">
      <polygon points="0 0, 10 3.5, 0 7" fill="#10b981"/>
    </marker>
    <marker id="arrowC" markerWidth="10" markerHeight="7" refX="9" refY="3.5" orient="auto">
      <polygon points="0 0, 10 3.5, 0 7" fill="#2563eb"/>
    </marker>
    <marker id="arrowE" markerWidth="10" markerHeight="7" refX="9" refY="3.5" orient="auto">
      <polygon points="0 0, 10 3.5, 0 7" fill="#f97316"/>
    </marker>
    <marker id="arrowF" markerWidth="10" markerHeight="7" refX="9" refY="3.5" orient="auto">
      <polygon points="0 0, 10 3.5, 0 7" fill="#7c3aed"/>
    </marker>
    <marker id="arrowG" markerWidth="10" markerHeight="7" refX="9" refY="3.5" orient="auto">
      <polygon points="0 0, 10 3.5, 0 7" fill="#ef4444"/>
    </marker>
    <marker id="arrowH" markerWidth="10" markerHeight="7" refX="9" refY="3.5" orient="auto">
      <polygon points="0 0, 10 3.5, 0 7" fill="#6b7280"/>
    </marker>
    <filter id="shadowSoft" x="-20%" y="-20%" width="140%" height="160%">
      <feDropShadow dx="0" dy="3" stdDeviation="6" flood-color="#0f172a" flood-opacity="0.12"/>
    </filter>
    <filter id="shadowGlass" x="-20%" y="-20%" width="140%" height="160%">
      <feDropShadow dx="0" dy="10" stdDeviation="16" flood-color="#020617" flood-opacity="0.28"/>
    </filter>
    <style>
    text { font-family: 'Helvetica Neue', Helvetica, Arial, 'PingFang SC', 'Microsoft YaHei', 'Microsoft JhengHei', 'SimHei', sans-serif; }
    .title { font-size: 30px; font-weight: 700; fill: #111827; }
    .subtitle { font-size: 14px; font-weight: 500; fill: #6b7280; }
    .section { font-size: 13px; font-weight: 700; fill: #2563eb; letter-spacing: 1.4px; }
    .section-sub { font-size: 12px; font-weight: 500; fill: #94a3b8; }
    .node-title { font-size: 18px; font-weight: 700; fill: #111827; }
    .node-sub { font-size: 12px; font-weight: 500; fill: #6b7280; }
    .node-type { font-size: 12px; font-weight: 700; fill: #9ca3af; letter-spacing: 0.08em; }
    .arrow-label { font-size: 12px; font-weight: 600; fill: #6b7280; }
    .legend { font-size: 12px; font-weight: 500; fill: #6b7280; }
    .footnote { font-size: 12px; font-weight: 500; fill: #94a3b8; }
    </style>
  </defs>
  <rect width="2272.0" height="404.0" fill="#ffffff"/>
  <text x="1136.0" y="56" text-anchor="middle" class="title">21.4.1 工程实现</text>
  <text x="1136.0" y="82" text-anchor="middle" class="subtitle">part-05-orchestration/chapter-21-containers-kubernetes.md:612</text>
  <path d="M 318.0,211.0 L 390.0,211.0" fill="none" stroke="#7c3aed" stroke-width="2.4" marker-end="url(#arrowA)"/>
  <path d="M 612.0,211.0 L 632.4,211.0 L 663.6,217.0 L 684.0,217.0" fill="none" stroke="#7c3aed" stroke-width="2.4" marker-end="url(#arrowA)"/>
  <path d="M 864.0,217.0 L 884.4,217.0 L 915.6,211.0 L 936.0,211.0" fill="none" stroke="#7c3aed" stroke-width="2.4" marker-end="url(#arrowA)"/>
  <path d="M 1165.0,211.0 L 1185.4,211.0 L 1216.6,217.0 L 1237.0,217.0" fill="none" stroke="#7c3aed" stroke-width="2.4" marker-end="url(#arrowA)"/>
  <path d="M 1438.0,217.0 L 1458.4,217.0 L 1489.6,161.0 L 1510.0,161.0" fill="none" stroke="#7c3aed" stroke-width="2.4" marker-end="url(#arrowA)"/>
  <path d="M 1674.0,161.0 L 1694.4,161.0 L 1725.6,217.0 L 1746.0,217.0" fill="none" stroke="#7c3aed" stroke-width="2.4" marker-end="url(#arrowA)"/>
  <path d="M 1940.0,217.0 L 1960.4,217.0 L 1991.6,211.0 L 2012.0,211.0" fill="none" stroke="#7c3aed" stroke-width="2.4" marker-end="url(#arrowA)"/>
  <path d="M 612.0,211.0 L 632.4,211.0 L 1489.6,267.0 L 1510.0,267.0" fill="none" stroke="#7c3aed" stroke-width="2.4" marker-end="url(#arrowA)"/>
  <path d="M 864.0,217.0 L 884.4,217.0 L 1489.6,267.0 L 1510.0,267.0" fill="none" stroke="#7c3aed" stroke-width="2.4" marker-end="url(#arrowA)"/>
  <path d="M 1165.0,211.0 L 1185.4,211.0 L 1489.6,267.0 L 1510.0,267.0" fill="none" stroke="#7c3aed" stroke-width="2.4" marker-end="url(#arrowA)"/>
  <path d="M 1438.0,217.0 L 1458.4,217.0 L 1489.6,267.0 L 1510.0,267.0" fill="none" stroke="#7c3aed" stroke-width="2.4" marker-end="url(#arrowA)"/>
  <rect x="96.0" y="182.0" width="222.0" height="58.0" rx="10.0" fill="#eff6ff" stroke="#bfdbfe" stroke-width="1.8"/>
  <text x="207.0" y="211.0" text-anchor="middle" class="node-title">Pod / Job / ModelService</text>
  <rect x="390.0" y="182.0" width="222.0" height="58.0" rx="10.0" fill="#f0fdf4" stroke="#bbf7d0" stroke-width="1.8"/>
  <text x="501.0" y="211.0" text-anchor="middle" class="node-title">namespace / tenant check</text>
  <rect x="684.0" y="182.0" width="180.0" height="70.0" rx="10.0" fill="#fff7ed" stroke="#fed7aa" stroke-width="1.8"/>
  <text x="774.0" y="217.0" text-anchor="middle" class="node-title">image digest</text>
  <text x="774.0" y="239.0" text-anchor="middle" class="node-sub">vulnerability gate</text>
  <rect x="936.0" y="182.0" width="229.0" height="58.0" rx="10.0" fill="#faf5ff" stroke="#e9d5ff" stroke-width="1.8"/>
  <text x="1050.5" y="211.0" text-anchor="middle" class="node-title">runtime_privilege_profile</text>
  <rect x="1237.0" y="182.0" width="201.0" height="70.0" rx="10.0" fill="#f0fdfa" stroke="#99f6e4" stroke-width="1.8"/>
  <text x="1337.5" y="217.0" text-anchor="middle" class="node-title">GPU</text>
  <text x="1337.5" y="239.0" text-anchor="middle" class="node-sub">RDMA resource request</text>
  <rect x="1510.0" y="126.0" width="164.0" height="70.0" rx="10.0" fill="#f8fafc" stroke="#cbd5e1" stroke-width="1.8"/>
  <text x="1592.0" y="161.0" text-anchor="middle" class="node-title">owner / cost</text>
  <text x="1592.0" y="183.0" text-anchor="middle" class="node-sub">model labels</text>
  <rect x="1510.0" y="238.0" width="164.0" height="58.0" rx="10.0" fill="#fff7ed" stroke="#fed7aa" stroke-width="1.8"/>
  <text x="1592.0" y="267.0" text-anchor="middle" class="node-title">typed rejection</text>
  <rect x="1746.0" y="182.0" width="194.0" height="70.0" rx="10.0" fill="#eff6ff" stroke="#bfdbfe" stroke-width="1.8"/>
  <text x="1843.0" y="217.0" text-anchor="middle" class="node-title">node pool acceptance</text>
  <text x="1843.0" y="239.0" text-anchor="middle" class="node-sub">baseline</text>
  <rect x="2012.0" y="182.0" width="164.0" height="58.0" rx="10.0" fill="#f0fdf4" stroke="#bbf7d0" stroke-width="1.8"/>
  <text x="2094.0" y="211.0" text-anchor="middle" class="node-title">admit</text>
  <rect x="1040.0" y="241.0" width="42" height="20" rx="6" fill="#ffffff" opacity="0.94"/>
  <text x="1061.0" y="255.0" text-anchor="middle" class="arrow-label">deny</text>
  <rect x="1166.0" y="244.0" width="42" height="20" rx="6" fill="#ffffff" opacity="0.94"/>
  <text x="1187.0" y="258.0" text-anchor="middle" class="arrow-label">deny</text>
  <rect x="1316.5" y="225.0" width="42" height="20" rx="6" fill="#ffffff" opacity="0.94"/>
  <text x="1337.5" y="239.0" text-anchor="middle" class="arrow-label">deny</text>
  <rect x="1453.0" y="212.0" width="42" height="20" rx="6" fill="#ffffff" opacity="0.94"/>
  <text x="1474.0" y="226.0" text-anchor="middle" class="arrow-label">deny</text>
  <text x="1992.0" y="388.0" class="footnote">Rendered with fireworks-tech-graph</text>
</svg>