<svg xmlns="http://www.w3.org/2000/svg" viewBox="0 0 2143 600" width="2143" height="600">
  <defs>
    <marker id="arrowA" markerWidth="10" markerHeight="7" refX="9" refY="3.5" orient="auto">
      <polygon points="0 0, 10 3.5, 0 7" fill="#7c3aed"/>
    </marker>
    <marker id="arrowB" markerWidth="10" markerHeight="7" refX="9" refY="3.5" orient="auto">
      <polygon points="0 0, 10 3.5, 0 7" fill="#10b981"/>
    </marker>
    <marker id="arrowC" markerWidth="10" markerHeight="7" refX="9" refY="3.5" orient="auto">
      <polygon points="0 0, 10 3.5, 0 7" fill="#2563eb"/>
    </marker>
    <marker id="arrowE" markerWidth="10" markerHeight="7" refX="9" refY="3.5" orient="auto">
      <polygon points="0 0, 10 3.5, 0 7" fill="#f97316"/>
    </marker>
    <marker id="arrowF" markerWidth="10" markerHeight="7" refX="9" refY="3.5" orient="auto">
      <polygon points="0 0, 10 3.5, 0 7" fill="#7c3aed"/>
    </marker>
    <marker id="arrowG" markerWidth="10" markerHeight="7" refX="9" refY="3.5" orient="auto">
      <polygon points="0 0, 10 3.5, 0 7" fill="#ef4444"/>
    </marker>
    <marker id="arrowH" markerWidth="10" markerHeight="7" refX="9" refY="3.5" orient="auto">
      <polygon points="0 0, 10 3.5, 0 7" fill="#6b7280"/>
    </marker>
    <filter id="shadowSoft" x="-20%" y="-20%" width="140%" height="160%">
      <feDropShadow dx="0" dy="3" stdDeviation="6" flood-color="#0f172a" flood-opacity="0.12"/>
    </filter>
    <filter id="shadowGlass" x="-20%" y="-20%" width="140%" height="160%">
      <feDropShadow dx="0" dy="10" stdDeviation="16" flood-color="#020617" flood-opacity="0.28"/>
    </filter>
    <style>
    text { font-family: 'Helvetica Neue', Helvetica, Arial, 'PingFang SC', 'Microsoft YaHei', 'Microsoft JhengHei', 'SimHei', sans-serif; }
    .title { font-size: 30px; font-weight: 700; fill: #111827; }
    .subtitle { font-size: 14px; font-weight: 500; fill: #6b7280; }
    .section { font-size: 13px; font-weight: 700; fill: #2563eb; letter-spacing: 1.4px; }
    .section-sub { font-size: 12px; font-weight: 500; fill: #94a3b8; }
    .node-title { font-size: 18px; font-weight: 700; fill: #111827; }
    .node-sub { font-size: 12px; font-weight: 500; fill: #6b7280; }
    .node-type { font-size: 12px; font-weight: 700; fill: #9ca3af; letter-spacing: 0.08em; }
    .arrow-label { font-size: 12px; font-weight: 600; fill: #6b7280; }
    .legend { font-size: 12px; font-weight: 500; fill: #6b7280; }
    .footnote { font-size: 12px; font-weight: 500; fill: #94a3b8; }
    </style>
  </defs>
  <rect width="2143.0" height="600.0" fill="#ffffff"/>
  <text x="1071.5" y="56" text-anchor="middle" class="title">32.4.1 工程实现</text>
  <text x="1071.5" y="82" text-anchor="middle" class="subtitle">part-07-network-storage/chapter-32-scale-out-networking.md:417</text>
  <path d="M 290.0,267.0 L 362.0,267.0" fill="none" stroke="#7c3aed" stroke-width="2.4" marker-end="url(#arrowA)"/>
  <path d="M 598.0,267.0 L 618.4,267.0 L 649.6,273.0 L 670.0,273.0" fill="none" stroke="#7c3aed" stroke-width="2.4" marker-end="url(#arrowA)"/>
  <path d="M 864.0,273.0 L 936.0,273.0" fill="none" stroke="#7c3aed" stroke-width="2.4" marker-end="url(#arrowA)"/>
  <path d="M 1151.0,273.0 L 1223.0,273.0" fill="none" stroke="#7c3aed" stroke-width="2.4" marker-end="url(#arrowA)"/>
  <path d="M 1445.0,273.0 L 1465.4,273.0 L 1524.6,161.0 L 1545.0,161.0" fill="none" stroke="#7c3aed" stroke-width="2.4" marker-end="url(#arrowA)"/>
  <path d="M 1445.0,273.0 L 1465.4,273.0 L 1500.1,267.0 L 1520.5,267.0" fill="none" stroke="#7c3aed" stroke-width="2.4" marker-end="url(#arrowA)"/>
  <path d="M 1445.0,273.0 L 1465.4,273.0 L 1496.6,379.0 L 1517.0,379.0" fill="none" stroke="#7c3aed" stroke-width="2.4" marker-end="url(#arrowA)"/>
  <path d="M 1725.0,161.0 L 1745.4,161.0 L 1804.6,155.0 L 1825.0,155.0" fill="none" stroke="#7c3aed" stroke-width="2.4" marker-end="url(#arrowA)"/>
  <path d="M 1749.5,267.0 L 1769.9,267.0 L 1815.1,273.0 L 1835.5,273.0" fill="none" stroke="#7c3aed" stroke-width="2.4" marker-end="url(#arrowA)"/>
  <path d="M 1753.0,379.0 L 1832.0,379.0" fill="none" stroke="#7c3aed" stroke-width="2.4" marker-end="url(#arrowA)"/>
  <path d="M 1936.0,408.0 L 1936.0,442.0 L 1334.0,442.0 L 1334.0,308.0" fill="none" stroke="#7c3aed" stroke-width="2.4" marker-end="url(#arrowA)"/>
  <rect x="96.0" y="238.0" width="194.0" height="58.0" rx="10.0" fill="#eff6ff" stroke="#bfdbfe" stroke-width="1.8"/>
  <text x="193.0" y="267.0" text-anchor="middle" class="node-title">fabric_change_record</text>
  <rect x="362.0" y="238.0" width="236.0" height="58.0" rx="10.0" fill="#f0fdf4" stroke="#bbf7d0" stroke-width="1.8"/>
  <text x="480.0" y="267.0" text-anchor="middle" class="node-title">invalidate fabric_baseline</text>
  <rect x="670.0" y="238.0" width="194.0" height="70.0" rx="10.0" fill="#fff7ed" stroke="#fed7aa" stroke-width="1.8"/>
  <text x="767.0" y="273.0" text-anchor="middle" class="node-title">resource pool state:</text>
  <text x="767.0" y="295.0" text-anchor="middle" class="node-sub">limited</text>
  <rect x="936.0" y="238.0" width="215.0" height="70.0" rx="10.0" fill="#faf5ff" stroke="#e9d5ff" stroke-width="1.8"/>
  <text x="1043.5" y="273.0" text-anchor="middle" class="node-title">collect config + path +</text>
  <text x="1043.5" y="295.0" text-anchor="middle" class="node-sub">workload evidence</text>
  <rect x="1223.0" y="238.0" width="222.0" height="70.0" rx="10.0" fill="#f0fdfa" stroke="#99f6e4" stroke-width="1.8"/>
  <text x="1334.0" y="273.0" text-anchor="middle" class="node-title">fabric_change_regression</text>
  <text x="1334.0" y="295.0" text-anchor="middle" class="node-sub">gate</text>
  <rect x="1545.0" y="126.0" width="180.0" height="70.0" rx="10.0" fill="#f8fafc" stroke="#cbd5e1" stroke-width="1.8"/>
  <text x="1635.0" y="161.0" text-anchor="middle" class="node-title">publish new fabric</text>
  <text x="1635.0" y="183.0" text-anchor="middle" class="node-sub">baseline</text>
  <rect x="1520.5" y="238.0" width="229.0" height="58.0" rx="10.0" fill="#eff6ff" stroke="#bfdbfe" stroke-width="1.8"/>
  <text x="1635.0" y="267.0" text-anchor="middle" class="node-title">keep limited / quarantine</text>
  <rect x="1517.0" y="350.0" width="236.0" height="58.0" rx="10.0" fill="#f0fdf4" stroke="#bbf7d0" stroke-width="1.8"/>
  <text x="1635.0" y="379.0" text-anchor="middle" class="node-title">small topology canary only</text>
  <rect x="1825.0" y="126.0" width="222.0" height="58.0" rx="10.0" fill="#fff7ed" stroke="#fed7aa" stroke-width="1.8"/>
  <text x="1936.0" y="155.0" text-anchor="middle" class="node-title">restore scheduler labels</text>
  <rect x="1835.5" y="238.0" width="201.0" height="70.0" rx="10.0" fill="#faf5ff" stroke="#e9d5ff" stroke-width="1.8"/>
  <text x="1936.0" y="273.0" text-anchor="middle" class="node-title">congestion_fault_tree</text>
  <text x="1936.0" y="295.0" text-anchor="middle" class="node-sub">execution if incident</text>
  <rect x="1832.0" y="350.0" width="208.0" height="58.0" rx="10.0" fill="#f0fdfa" stroke="#99f6e4" stroke-width="1.8"/>
  <text x="1936.0" y="379.0" text-anchor="middle" class="node-title">telemetry watch window</text>
  <rect x="1474.0" y="187.0" width="42" height="20" rx="6" fill="#ffffff" opacity="0.94"/>
  <text x="1495.0" y="201.0" text-anchor="middle" class="arrow-label">pass</text>
  <rect x="1458.25" y="240.0" width="49" height="20" rx="6" fill="#ffffff" opacity="0.94"/>
  <text x="1482.75" y="254.0" text-anchor="middle" class="arrow-label">block</text>
  <rect x="1435.5" y="312.0" width="91" height="20" rx="6" fill="#ffffff" opacity="0.94"/>
  <text x="1481.0" y="326.0" text-anchor="middle" class="arrow-label">conditional</text>
  <text x="1863.0" y="584.0" class="footnote">Rendered with fireworks-tech-graph</text>
</svg>