<svg xmlns="http://www.w3.org/2000/svg" viewBox="0 0 1040 600" width="1040" height="600">
  <defs>
    <marker id="arrowA" markerWidth="10" markerHeight="7" refX="9" refY="3.5" orient="auto">
      <polygon points="0 0, 10 3.5, 0 7" fill="#7c3aed"/>
    </marker>
    <marker id="arrowB" markerWidth="10" markerHeight="7" refX="9" refY="3.5" orient="auto">
      <polygon points="0 0, 10 3.5, 0 7" fill="#10b981"/>
    </marker>
    <marker id="arrowC" markerWidth="10" markerHeight="7" refX="9" refY="3.5" orient="auto">
      <polygon points="0 0, 10 3.5, 0 7" fill="#2563eb"/>
    </marker>
    <marker id="arrowE" markerWidth="10" markerHeight="7" refX="9" refY="3.5" orient="auto">
      <polygon points="0 0, 10 3.5, 0 7" fill="#f97316"/>
    </marker>
    <marker id="arrowF" markerWidth="10" markerHeight="7" refX="9" refY="3.5" orient="auto">
      <polygon points="0 0, 10 3.5, 0 7" fill="#7c3aed"/>
    </marker>
    <marker id="arrowG" markerWidth="10" markerHeight="7" refX="9" refY="3.5" orient="auto">
      <polygon points="0 0, 10 3.5, 0 7" fill="#ef4444"/>
    </marker>
    <marker id="arrowH" markerWidth="10" markerHeight="7" refX="9" refY="3.5" orient="auto">
      <polygon points="0 0, 10 3.5, 0 7" fill="#6b7280"/>
    </marker>
    <filter id="shadowSoft" x="-20%" y="-20%" width="140%" height="160%">
      <feDropShadow dx="0" dy="3" stdDeviation="6" flood-color="#0f172a" flood-opacity="0.12"/>
    </filter>
    <filter id="shadowGlass" x="-20%" y="-20%" width="140%" height="160%">
      <feDropShadow dx="0" dy="10" stdDeviation="16" flood-color="#020617" flood-opacity="0.28"/>
    </filter>
    <style>
    text { font-family: 'Helvetica Neue', Helvetica, Arial, 'PingFang SC', 'Microsoft YaHei', 'Microsoft JhengHei', 'SimHei', sans-serif; }
    .title { font-size: 30px; font-weight: 700; fill: #111827; }
    .subtitle { font-size: 14px; font-weight: 500; fill: #6b7280; }
    .section { font-size: 13px; font-weight: 700; fill: #2563eb; letter-spacing: 1.4px; }
    .section-sub { font-size: 12px; font-weight: 500; fill: #94a3b8; }
    .node-title { font-size: 18px; font-weight: 700; fill: #111827; }
    .node-sub { font-size: 12px; font-weight: 500; fill: #6b7280; }
    .node-type { font-size: 12px; font-weight: 700; fill: #9ca3af; letter-spacing: 0.08em; }
    .arrow-label { font-size: 12px; font-weight: 600; fill: #6b7280; }
    .legend { font-size: 12px; font-weight: 500; fill: #6b7280; }
    .footnote { font-size: 12px; font-weight: 500; fill: #94a3b8; }
    </style>
  </defs>
  <rect width="1040.0" height="600.0" fill="#ffffff"/>
  <text x="520.0" y="56" text-anchor="middle" class="title">31.3.3 NVSwitch</text>
  <text x="520.0" y="82" text-anchor="middle" class="subtitle">part-07-network-storage/chapter-31-scale-up-networking.md:156</text>
  <rect x="112.5" y="118.0" width="228.0" height="372.0" rx="16.0" fill="#f8fafc" stroke="#dbe5f1" stroke-width="1.4" stroke-dasharray="7 5"/>
  <text x="130.5" y="142.0" class="section">阶段 1</text>
  <text x="130.5" y="162.0" class="section-sub">4-GPU 同域请求 -&gt; 完整域库存</text>
  <rect x="378.5" y="118.0" width="228.0" height="372.0" rx="16.0" fill="#ffffff" stroke="#dbe5f1" stroke-width="1.4" stroke-dasharray="7 5"/>
  <text x="396.5" y="142.0" class="section">阶段 2</text>
  <text x="396.5" y="162.0" class="section-sub">碎片库存 -&gt; NVSwitch domain</text>
  <rect x="644.5" y="118.0" width="283.0" height="372.0" rx="16.0" fill="#f8fafc" stroke="#dbe5f1" stroke-width="1.4" stroke-dasharray="7 5"/>
  <text x="662.5" y="142.0" class="section">阶段 3</text>
  <text x="662.5" y="162.0" class="section-sub">4-GPU tensor parallel 可调度 -&gt; 4-GPU 同域请求不可满足</text>
  <path d="M 226.5,230.0 L 226.5,270.0" fill="none" stroke="#7c3aed" stroke-width="2.4" marker-end="url(#arrowA)"/>
  <path d="M 226.5,328.0 L 226.5,368.0" fill="none" stroke="#7c3aed" stroke-width="2.4" marker-end="url(#arrowA)"/>
  <path d="M 308.5,299.0 L 328.9,299.0 L 390.1,207.0 L 410.5,207.0" fill="none" stroke="#7c3aed" stroke-width="2.4" marker-end="url(#arrowA)"/>
  <path d="M 308.5,403.0 L 328.9,403.0 L 389.1,305.0 L 409.5,305.0" fill="none" stroke="#7c3aed" stroke-width="2.4" marker-end="url(#arrowA)"/>
  <path d="M 492.5,242.0 L 492.5,368.0" fill="none" stroke="#7c3aed" stroke-width="2.4" marker-end="url(#arrowA)"/>
  <path d="M 575.5,305.0 L 595.9,305.0 L 651.1,250.0 L 671.5,250.0" fill="none" stroke="#7c3aed" stroke-width="2.4" marker-end="url(#arrowA)"/>
  <path d="M 574.5,403.0 L 594.9,403.0 L 683.6,348.0 L 704.0,348.0" fill="none" stroke="#7c3aed" stroke-width="2.4" marker-end="url(#arrowA)"/>
  <rect x="144.5" y="172.0" width="164.0" height="58.0" rx="10.0" fill="#eff6ff" stroke="#bfdbfe" stroke-width="1.8"/>
  <text x="226.5" y="201.0" text-anchor="middle" class="node-title">4-GPU 同域请求</text>
  <rect x="144.5" y="270.0" width="164.0" height="58.0" rx="10.0" fill="#f0fdf4" stroke="#bbf7d0" stroke-width="1.8"/>
  <text x="226.5" y="299.0" text-anchor="middle" class="node-title">资源池 / 调度器</text>
  <rect x="144.5" y="368.0" width="164.0" height="70.0" rx="10.0" fill="#fff7ed" stroke="#fed7aa" stroke-width="1.8"/>
  <text x="226.5" y="403.0" text-anchor="middle" class="node-title">完整域库存</text>
  <text x="226.5" y="425.0" text-anchor="middle" class="node-sub">GPU0-3 free</text>
  <rect x="410.5" y="172.0" width="164.0" height="70.0" rx="10.0" fill="#faf5ff" stroke="#e9d5ff" stroke-width="1.8"/>
  <text x="492.5" y="207.0" text-anchor="middle" class="node-title">碎片库存</text>
  <text x="492.5" y="229.0" text-anchor="middle" class="node-sub">GPU1/GPU3 free</text>
  <rect x="409.5" y="270.0" width="166.0" height="70.0" rx="10.0" fill="#f0fdfa" stroke="#99f6e4" stroke-width="1.8"/>
  <text x="492.5" y="305.0" text-anchor="middle" class="node-title">NVSwitch domain</text>
  <text x="492.5" y="327.0" text-anchor="middle" class="node-sub">4 connected GPUs</text>
  <rect x="410.5" y="368.0" width="164.0" height="70.0" rx="10.0" fill="#f8fafc" stroke="#cbd5e1" stroke-width="1.8"/>
  <text x="492.5" y="403.0" text-anchor="middle" class="node-title">NVSwitch domain</text>
  <text x="492.5" y="425.0" text-anchor="middle" class="node-sub">2 free slots</text>
  <rect x="671.5" y="221.0" width="229.0" height="58.0" rx="10.0" fill="#eff6ff" stroke="#bfdbfe" stroke-width="1.8"/>
  <text x="786.0" y="250.0" text-anchor="middle" class="node-title">4-GPU tensor parallel 可调度</text>
  <rect x="704.0" y="319.0" width="164.0" height="58.0" rx="10.0" fill="#f0fdf4" stroke="#bbf7d0" stroke-width="1.8"/>
  <text x="786.0" y="348.0" text-anchor="middle" class="node-title">4-GPU 同域请求不可满足</text>
  <line x1="42.0" y1="562.0" x2="72.0" y2="562.0" stroke="#7c3aed" stroke-width="2.4" marker-end="url(#arrowA)"/>
  <text x="82.0" y="566.0" class="legend">主路径 / 阶段推进</text>
  <text x="760.0" y="584.0" class="footnote">Rendered with fireworks-tech-graph</text>
</svg>