<svg xmlns="http://www.w3.org/2000/svg" viewBox="0 0 960 904" width="960" height="904">
  <defs>
    <marker id="arrowA" markerWidth="10" markerHeight="7" refX="9" refY="3.5" orient="auto">
      <polygon points="0 0, 10 3.5, 0 7" fill="#7c3aed"/>
    </marker>
    <marker id="arrowB" markerWidth="10" markerHeight="7" refX="9" refY="3.5" orient="auto">
      <polygon points="0 0, 10 3.5, 0 7" fill="#10b981"/>
    </marker>
    <marker id="arrowC" markerWidth="10" markerHeight="7" refX="9" refY="3.5" orient="auto">
      <polygon points="0 0, 10 3.5, 0 7" fill="#2563eb"/>
    </marker>
    <marker id="arrowE" markerWidth="10" markerHeight="7" refX="9" refY="3.5" orient="auto">
      <polygon points="0 0, 10 3.5, 0 7" fill="#f97316"/>
    </marker>
    <marker id="arrowF" markerWidth="10" markerHeight="7" refX="9" refY="3.5" orient="auto">
      <polygon points="0 0, 10 3.5, 0 7" fill="#7c3aed"/>
    </marker>
    <marker id="arrowG" markerWidth="10" markerHeight="7" refX="9" refY="3.5" orient="auto">
      <polygon points="0 0, 10 3.5, 0 7" fill="#ef4444"/>
    </marker>
    <marker id="arrowH" markerWidth="10" markerHeight="7" refX="9" refY="3.5" orient="auto">
      <polygon points="0 0, 10 3.5, 0 7" fill="#6b7280"/>
    </marker>
    <filter id="shadowSoft" x="-20%" y="-20%" width="140%" height="160%">
      <feDropShadow dx="0" dy="3" stdDeviation="6" flood-color="#0f172a" flood-opacity="0.12"/>
    </filter>
    <filter id="shadowGlass" x="-20%" y="-20%" width="140%" height="160%">
      <feDropShadow dx="0" dy="10" stdDeviation="16" flood-color="#020617" flood-opacity="0.28"/>
    </filter>
    <style>
    text { font-family: 'Helvetica Neue', Helvetica, Arial, 'PingFang SC', 'Microsoft YaHei', 'Microsoft JhengHei', 'SimHei', sans-serif; }
    .title { font-size: 30px; font-weight: 700; fill: #111827; }
    .subtitle { font-size: 14px; font-weight: 500; fill: #6b7280; }
    .section { font-size: 13px; font-weight: 700; fill: #2563eb; letter-spacing: 1.4px; }
    .section-sub { font-size: 12px; font-weight: 500; fill: #94a3b8; }
    .node-title { font-size: 18px; font-weight: 700; fill: #111827; }
    .node-sub { font-size: 12px; font-weight: 500; fill: #6b7280; }
    .node-type { font-size: 12px; font-weight: 700; fill: #9ca3af; letter-spacing: 0.08em; }
    .arrow-label { font-size: 12px; font-weight: 600; fill: #6b7280; }
    .legend { font-size: 12px; font-weight: 500; fill: #6b7280; }
    .footnote { font-size: 12px; font-weight: 500; fill: #94a3b8; }
    </style>
  </defs>
  <rect width="960.0" height="904.0" fill="#ffffff"/>
  <text x="480.0" y="56" text-anchor="middle" class="title">34.3.8 BMC</text>
  <text x="480.0" y="82" text-anchor="middle" class="subtitle">part-08-physical-infrastructure/chapter-34-gpu-server.md:256</text>
  <path d="M 480.0,212.0 L 480.0,284.0" fill="none" stroke="#7c3aed" stroke-width="2.4" marker-end="url(#arrowA)"/>
  <path d="M 480.0,354.0 L 480.0,374.4 L 247.0,405.6 L 247.0,426.0" fill="none" stroke="#7c3aed" stroke-width="2.4" marker-end="url(#arrowA)"/>
  <path d="M 480.0,354.0 L 480.0,374.4 L 466.0,405.6 L 466.0,426.0" fill="none" stroke="#7c3aed" stroke-width="2.4" marker-end="url(#arrowA)"/>
  <path d="M 480.0,354.0 L 480.0,374.4 L 699.0,405.6 L 699.0,426.0" fill="none" stroke="#7c3aed" stroke-width="2.4" marker-end="url(#arrowA)"/>
  <path d="M 247.0,496.0 L 247.0,516.4 L 480.0,547.6 L 480.0,568.0" fill="none" stroke="#7c3aed" stroke-width="2.4" marker-end="url(#arrowA)"/>
  <path d="M 466.0,496.0 L 466.0,516.4 L 480.0,547.6 L 480.0,568.0" fill="none" stroke="#7c3aed" stroke-width="2.4" marker-end="url(#arrowA)"/>
  <path d="M 699.0,496.0 L 699.0,516.4 L 480.0,547.6 L 480.0,568.0" fill="none" stroke="#7c3aed" stroke-width="2.4" marker-end="url(#arrowA)"/>
  <path d="M 480.0,638.0 L 480.0,710.0" fill="none" stroke="#7c3aed" stroke-width="2.4" marker-end="url(#arrowA)"/>
  <rect x="398.0" y="154.0" width="164.0" height="58.0" rx="10.0" fill="#eff6ff" stroke="#bfdbfe" stroke-width="1.8"/>
  <text x="480.0" y="183.0" text-anchor="middle" class="node-title">GPU server</text>
  <rect x="341.0" y="284.0" width="278.0" height="70.0" rx="10.0" fill="#f0fdf4" stroke="#bbf7d0" stroke-width="1.8"/>
  <text x="480.0" y="319.0" text-anchor="middle" class="node-title">BMC</text>
  <text x="480.0" y="341.0" text-anchor="middle" class="node-sub">power / sensors / remote console</text>
  <rect x="157.0" y="426.0" width="180.0" height="70.0" rx="10.0" fill="#fff7ed" stroke="#fed7aa" stroke-width="1.8"/>
  <text x="247.0" y="461.0" text-anchor="middle" class="node-title">firmware inventory</text>
  <text x="247.0" y="483.0" text-anchor="middle" class="node-sub">BIOS / NIC / GPU</text>
  <rect x="383.0" y="426.0" width="166.0" height="70.0" rx="10.0" fill="#faf5ff" stroke="#e9d5ff" stroke-width="1.8"/>
  <text x="466.0" y="461.0" text-anchor="middle" class="node-title">power telemetry</text>
  <text x="466.0" y="483.0" text-anchor="middle" class="node-sub">PSU / rail / cap</text>
  <rect x="595.0" y="426.0" width="208.0" height="70.0" rx="10.0" fill="#f0fdfa" stroke="#99f6e4" stroke-width="1.8"/>
  <text x="699.0" y="461.0" text-anchor="middle" class="node-title">thermal telemetry</text>
  <text x="699.0" y="483.0" text-anchor="middle" class="node-sub">fan / inlet / GPU temp</text>
  <rect x="379.5" y="568.0" width="201.0" height="70.0" rx="10.0" fill="#f8fafc" stroke="#cbd5e1" stroke-width="1.8"/>
  <text x="480.0" y="603.0" text-anchor="middle" class="node-title">hardware admission</text>
  <text x="480.0" y="625.0" text-anchor="middle" class="node-sub">version / health gate</text>
  <rect x="383.0" y="710.0" width="194.0" height="58.0" rx="10.0" fill="#eff6ff" stroke="#bfdbfe" stroke-width="1.8"/>
  <text x="480.0" y="739.0" text-anchor="middle" class="node-title">schedulable GPU node</text>
  <text x="680.0" y="888.0" class="footnote">Rendered with fireworks-tech-graph</text>
</svg>