<svg xmlns="http://www.w3.org/2000/svg" viewBox="0 0 960 1910" width="960" height="1910">
  <defs>
    <marker id="arrowA" markerWidth="10" markerHeight="7" refX="9" refY="3.5" orient="auto">
      <polygon points="0 0, 10 3.5, 0 7" fill="#7c3aed"/>
    </marker>
    <marker id="arrowB" markerWidth="10" markerHeight="7" refX="9" refY="3.5" orient="auto">
      <polygon points="0 0, 10 3.5, 0 7" fill="#10b981"/>
    </marker>
    <marker id="arrowC" markerWidth="10" markerHeight="7" refX="9" refY="3.5" orient="auto">
      <polygon points="0 0, 10 3.5, 0 7" fill="#2563eb"/>
    </marker>
    <marker id="arrowE" markerWidth="10" markerHeight="7" refX="9" refY="3.5" orient="auto">
      <polygon points="0 0, 10 3.5, 0 7" fill="#f97316"/>
    </marker>
    <marker id="arrowF" markerWidth="10" markerHeight="7" refX="9" refY="3.5" orient="auto">
      <polygon points="0 0, 10 3.5, 0 7" fill="#7c3aed"/>
    </marker>
    <marker id="arrowG" markerWidth="10" markerHeight="7" refX="9" refY="3.5" orient="auto">
      <polygon points="0 0, 10 3.5, 0 7" fill="#ef4444"/>
    </marker>
    <marker id="arrowH" markerWidth="10" markerHeight="7" refX="9" refY="3.5" orient="auto">
      <polygon points="0 0, 10 3.5, 0 7" fill="#6b7280"/>
    </marker>
    <filter id="shadowSoft" x="-20%" y="-20%" width="140%" height="160%">
      <feDropShadow dx="0" dy="3" stdDeviation="6" flood-color="#0f172a" flood-opacity="0.12"/>
    </filter>
    <filter id="shadowGlass" x="-20%" y="-20%" width="140%" height="160%">
      <feDropShadow dx="0" dy="10" stdDeviation="16" flood-color="#020617" flood-opacity="0.28"/>
    </filter>
    <style>
    text { font-family: 'Helvetica Neue', Helvetica, Arial, 'PingFang SC', 'Microsoft YaHei', 'Microsoft JhengHei', 'SimHei', sans-serif; }
    .title { font-size: 30px; font-weight: 700; fill: #111827; }
    .subtitle { font-size: 14px; font-weight: 500; fill: #6b7280; }
    .section { font-size: 13px; font-weight: 700; fill: #2563eb; letter-spacing: 1.4px; }
    .section-sub { font-size: 12px; font-weight: 500; fill: #94a3b8; }
    .node-title { font-size: 18px; font-weight: 700; fill: #111827; }
    .node-sub { font-size: 12px; font-weight: 500; fill: #6b7280; }
    .node-type { font-size: 12px; font-weight: 700; fill: #9ca3af; letter-spacing: 0.08em; }
    .arrow-label { font-size: 12px; font-weight: 600; fill: #6b7280; }
    .legend { font-size: 12px; font-weight: 500; fill: #6b7280; }
    .footnote { font-size: 12px; font-weight: 500; fill: #94a3b8; }
    </style>
  </defs>
  <rect width="960.0" height="1910.0" fill="#ffffff"/>
  <text x="480.0" y="56" text-anchor="middle" class="title">44.4.1 工程实现</text>
  <text x="480.0" y="82" text-anchor="middle" class="subtitle">part-10-economics-cases/chapter-44-building-ai-factory.md:1390</text>
  <path d="M 480.0,212.0 L 480.0,284.0" fill="none" stroke="#7c3aed" stroke-width="2.4" marker-end="url(#arrowA)"/>
  <path d="M 480.0,354.0 L 480.0,374.4 L 346.0,411.6 L 346.0,432.0" fill="none" stroke="#7c3aed" stroke-width="2.4" marker-end="url(#arrowA)"/>
  <path d="M 480.0,354.0 L 480.0,374.4 L 607.0,405.6 L 607.0,426.0" fill="none" stroke="#7c3aed" stroke-width="2.4" marker-end="url(#arrowA)"/>
  <path d="M 496.0,461.0 L 475.6,461.0 L 475.6,319.0 L 358.5,319.0" fill="none" stroke="#7c3aed" stroke-width="2.4" marker-end="url(#arrowA)"/>
  <path d="M 346.0,490.0 L 346.0,510.4 L 480.0,547.6 L 480.0,568.0" fill="none" stroke="#7c3aed" stroke-width="2.4" marker-end="url(#arrowA)"/>
  <path d="M 480.0,638.0 L 480.0,658.4 L 342.5,689.6 L 342.5,710.0" fill="none" stroke="#7c3aed" stroke-width="2.4" marker-end="url(#arrowA)"/>
  <path d="M 480.0,638.0 L 480.0,658.4 L 631.5,695.6 L 631.5,716.0" fill="none" stroke="#7c3aed" stroke-width="2.4" marker-end="url(#arrowA)"/>
  <path d="M 342.5,780.0 L 342.5,800.4 L 480.0,831.6 L 480.0,852.0" fill="none" stroke="#7c3aed" stroke-width="2.4" marker-end="url(#arrowA)"/>
  <path d="M 631.5,774.0 L 631.5,794.4 L 480.0,831.6 L 480.0,852.0" fill="none" stroke="#7c3aed" stroke-width="2.4" marker-end="url(#arrowA)"/>
  <path d="M 480.0,922.0 L 480.0,942.4 L 360.0,973.6 L 360.0,994.0" fill="none" stroke="#7c3aed" stroke-width="2.4" marker-end="url(#arrowA)"/>
  <path d="M 480.0,922.0 L 480.0,942.4 L 673.5,973.6 L 673.5,994.0" fill="none" stroke="#7c3aed" stroke-width="2.4" marker-end="url(#arrowA)"/>
  <path d="M 576.5,1029.0 L 530.5,1029.0" fill="none" stroke="#7c3aed" stroke-width="2.4" marker-end="url(#arrowA)"/>
  <path d="M 360.0,1064.0 L 360.0,1084.4 L 356.5,1115.6 L 356.5,1136.0" fill="none" stroke="#7c3aed" stroke-width="2.4" marker-end="url(#arrowA)"/>
  <path d="M 360.0,1064.0 L 360.0,1084.4 L 659.5,1115.6 L 659.5,1136.0" fill="none" stroke="#7c3aed" stroke-width="2.4" marker-end="url(#arrowA)"/>
  <path d="M 559.0,1171.0 L 513.0,1171.0" fill="none" stroke="#7c3aed" stroke-width="2.4" marker-end="url(#arrowA)"/>
  <path d="M 356.5,1206.0 L 356.5,1226.4 L 360.0,1257.6 L 360.0,1278.0" fill="none" stroke="#7c3aed" stroke-width="2.4" marker-end="url(#arrowA)"/>
  <path d="M 356.5,1206.0 L 356.5,1226.4 L 600.0,1257.6 L 600.0,1278.0" fill="none" stroke="#7c3aed" stroke-width="2.4" marker-end="url(#arrowA)"/>
  <path d="M 503.0,1313.0 L 457.0,1313.0" fill="none" stroke="#7c3aed" stroke-width="2.4" marker-end="url(#arrowA)"/>
  <path d="M 360.0,1348.0 L 360.0,1368.4 L 363.5,1399.6 L 363.5,1420.0" fill="none" stroke="#7c3aed" stroke-width="2.4" marker-end="url(#arrowA)"/>
  <path d="M 360.0,1348.0 L 360.0,1368.4 L 617.5,1405.6 L 617.5,1426.0" fill="none" stroke="#7c3aed" stroke-width="2.4" marker-end="url(#arrowA)"/>
  <path d="M 524.0,1455.0 L 478.0,1455.0" fill="none" stroke="#7c3aed" stroke-width="2.4" marker-end="url(#arrowA)"/>
  <path d="M 363.5,1490.0 L 363.5,1510.4 L 374.0,1547.6 L 374.0,1568.0" fill="none" stroke="#7c3aed" stroke-width="2.4" marker-end="url(#arrowA)"/>
  <path d="M 363.5,1490.0 L 363.5,1510.4 L 586.0,1541.6 L 586.0,1562.0" fill="none" stroke="#7c3aed" stroke-width="2.4" marker-end="url(#arrowA)"/>
  <path d="M 586.0,1632.0 L 586.0,1652.4 L 480.0,1683.6 L 480.0,1704.0" fill="none" stroke="#7c3aed" stroke-width="2.4" marker-end="url(#arrowA)"/>
  <path d="M 374.0,1626.0 L 374.0,1646.4 L 480.0,1683.6 L 480.0,1704.0" fill="none" stroke="#7c3aed" stroke-width="2.4" marker-end="url(#arrowA)"/>
  <rect x="393.5" y="154.0" width="173.0" height="58.0" rx="10.0" fill="#eff6ff" stroke="#bfdbfe" stroke-width="1.8"/>
  <text x="480.0" y="183.0" text-anchor="middle" class="node-title">硬件 / 节点 / 网络 / 存储</text>
  <rect x="358.5" y="284.0" width="243.0" height="70.0" rx="10.0" fill="#f0fdf4" stroke="#bbf7d0" stroke-width="1.8"/>
  <text x="480.0" y="319.0" text-anchor="middle" class="node-title">acceptance baseline</text>
  <text x="480.0" y="341.0" text-anchor="middle" class="node-sub">GPU / NCCL / RDMA / storage</text>
  <rect x="242.0" y="432.0" width="208.0" height="58.0" rx="10.0" fill="#fff7ed" stroke="#fed7aa" stroke-width="1.8"/>
  <text x="346.0" y="461.0" text-anchor="middle" class="node-title">accepted resource pool</text>
  <rect x="496.0" y="426.0" width="222.0" height="70.0" rx="10.0" fill="#faf5ff" stroke="#e9d5ff" stroke-width="1.8"/>
  <text x="607.0" y="461.0" text-anchor="middle" class="node-title">remediation</text>
  <text x="607.0" y="483.0" text-anchor="middle" class="node-sub">repair / config / vendor</text>
  <rect x="372.5" y="568.0" width="215.0" height="70.0" rx="10.0" fill="#f0fdfa" stroke="#99f6e4" stroke-width="1.8"/>
  <text x="480.0" y="603.0" text-anchor="middle" class="node-title">model quality gate</text>
  <text x="480.0" y="625.0" text-anchor="middle" class="node-sub">quality / safety / cost</text>
  <rect x="214.0" y="710.0" width="257.0" height="70.0" rx="10.0" fill="#f8fafc" stroke="#cbd5e1" stroke-width="1.8"/>
  <text x="342.5" y="745.0" text-anchor="middle" class="node-title">serving release</text>
  <text x="342.5" y="767.0" text-anchor="middle" class="node-sub">weights + tokenizer + runtime</text>
  <rect x="517.0" y="716.0" width="229.0" height="58.0" rx="10.0" fill="#eff6ff" stroke="#bfdbfe" stroke-width="1.8"/>
  <text x="631.5" y="745.0" text-anchor="middle" class="node-title">model / prompt / eval fix</text>
  <rect x="290.0" y="852.0" width="380.0" height="70.0" rx="10.0" fill="#f0fdf4" stroke="#bbf7d0" stroke-width="1.8"/>
  <text x="480.0" y="887.0" text-anchor="middle" class="node-title">quality evidence gate</text>
  <text x="480.0" y="909.0" text-anchor="middle" class="node-sub">slice / golden / experiment guardrail / rollback drill</text>
  <rect x="189.5" y="994.0" width="341.0" height="70.0" rx="10.0" fill="#fff7ed" stroke="#fed7aa" stroke-width="1.8"/>
  <text x="360.0" y="1029.0" text-anchor="middle" class="node-title">supply chain gate</text>
  <text x="360.0" y="1051.0" text-anchor="middle" class="node-sub">dataset / checkpoint / provenance / cache</text>
  <rect x="576.5" y="994.0" width="194.0" height="70.0" rx="10.0" fill="#faf5ff" stroke="#e9d5ff" stroke-width="1.8"/>
  <text x="673.5" y="1029.0" text-anchor="middle" class="node-title">fix slice / golden</text>
  <text x="673.5" y="1051.0" text-anchor="middle" class="node-sub">guardrail / rollback</text>
  <rect x="200.0" y="1136.0" width="313.0" height="70.0" rx="10.0" fill="#f0fdfa" stroke="#99f6e4" stroke-width="1.8"/>
  <text x="356.5" y="1171.0" text-anchor="middle" class="node-title">RAG / Agent gate</text>
  <text x="356.5" y="1193.0" text-anchor="middle" class="node-sub">permission / context / tools / budget</text>
  <rect x="559.0" y="1136.0" width="201.0" height="70.0" rx="10.0" fill="#f8fafc" stroke="#cbd5e1" stroke-width="1.8"/>
  <text x="659.5" y="1171.0" text-anchor="middle" class="node-title">fix lineage / restore</text>
  <text x="659.5" y="1193.0" text-anchor="middle" class="node-sub">provenance / cache</text>
  <rect x="263.0" y="1278.0" width="194.0" height="70.0" rx="10.0" fill="#eff6ff" stroke="#bfdbfe" stroke-width="1.8"/>
  <text x="360.0" y="1313.0" text-anchor="middle" class="node-title">production readiness</text>
  <text x="360.0" y="1335.0" text-anchor="middle" class="node-sub">review</text>
  <rect x="503.0" y="1278.0" width="194.0" height="70.0" rx="10.0" fill="#f0fdf4" stroke="#bbf7d0" stroke-width="1.8"/>
  <text x="600.0" y="1313.0" text-anchor="middle" class="node-title">fix retrieval</text>
  <text x="600.0" y="1335.0" text-anchor="middle" class="node-sub">tool policy / budget</text>
  <rect x="249.0" y="1420.0" width="229.0" height="70.0" rx="10.0" fill="#fff7ed" stroke="#fed7aa" stroke-width="1.8"/>
  <text x="363.5" y="1455.0" text-anchor="middle" class="node-title">canary</text>
  <text x="363.5" y="1477.0" text-anchor="middle" class="node-sub">limited tenants / traffic</text>
  <rect x="524.0" y="1426.0" width="187.0" height="58.0" rx="10.0" fill="#faf5ff" stroke="#e9d5ff" stroke-width="1.8"/>
  <text x="617.5" y="1455.0" text-anchor="middle" class="node-title">close evidence gaps</text>
  <rect x="291.0" y="1568.0" width="166.0" height="58.0" rx="10.0" fill="#f0fdfa" stroke="#99f6e4" stroke-width="1.8"/>
  <text x="374.0" y="1597.0" text-anchor="middle" class="node-title">production scale</text>
  <rect x="503.0" y="1562.0" width="166.0" height="70.0" rx="10.0" fill="#f8fafc" stroke="#cbd5e1" stroke-width="1.8"/>
  <text x="586.0" y="1597.0" text-anchor="middle" class="node-title">rollback / drain</text>
  <text x="586.0" y="1619.0" text-anchor="middle" class="node-sub">incident</text>
  <rect x="390.0" y="1704.0" width="180.0" height="70.0" rx="10.0" fill="#eff6ff" stroke="#bfdbfe" stroke-width="1.8"/>
  <text x="480.0" y="1739.0" text-anchor="middle" class="node-title">telemetry + cost +</text>
  <text x="480.0" y="1761.0" text-anchor="middle" class="node-sub">feedback</text>
  <rect x="392.0" y="363.0" width="42" height="20" rx="6" fill="#ffffff" opacity="0.94"/>
  <text x="413.0" y="377.0" text-anchor="middle" class="arrow-label">pass</text>
  <rect x="522.5" y="360.0" width="42" height="20" rx="6" fill="#ffffff" opacity="0.94"/>
  <text x="543.5" y="374.0" text-anchor="middle" class="arrow-label">fail</text>
  <rect x="390.25" y="644.0" width="42" height="20" rx="6" fill="#ffffff" opacity="0.94"/>
  <text x="411.25" y="658.0" text-anchor="middle" class="arrow-label">pass</text>
  <rect x="534.75" y="647.0" width="42" height="20" rx="6" fill="#ffffff" opacity="0.94"/>
  <text x="555.75" y="661.0" text-anchor="middle" class="arrow-label">fail</text>
  <rect x="399.0" y="928.0" width="42" height="20" rx="6" fill="#ffffff" opacity="0.94"/>
  <text x="420.0" y="942.0" text-anchor="middle" class="arrow-label">pass</text>
  <rect x="555.75" y="928.0" width="42" height="20" rx="6" fill="#ffffff" opacity="0.94"/>
  <text x="576.75" y="942.0" text-anchor="middle" class="arrow-label">fail</text>
  <rect x="337.25" y="1070.0" width="42" height="20" rx="6" fill="#ffffff" opacity="0.94"/>
  <text x="358.25" y="1084.0" text-anchor="middle" class="arrow-label">pass</text>
  <rect x="488.75" y="1070.0" width="42" height="20" rx="6" fill="#ffffff" opacity="0.94"/>
  <text x="509.75" y="1084.0" text-anchor="middle" class="arrow-label">fail</text>
  <rect x="337.25" y="1212.0" width="42" height="20" rx="6" fill="#ffffff" opacity="0.94"/>
  <text x="358.25" y="1226.0" text-anchor="middle" class="arrow-label">pass</text>
  <rect x="457.25" y="1212.0" width="42" height="20" rx="6" fill="#ffffff" opacity="0.94"/>
  <text x="478.25" y="1226.0" text-anchor="middle" class="arrow-label">fail</text>
  <rect x="305.75" y="1354.0" width="112" height="20" rx="6" fill="#ffffff" opacity="0.94"/>
  <text x="361.75" y="1368.0" text-anchor="middle" class="arrow-label">approve_canary</text>
  <rect x="464.25" y="1357.0" width="49" height="20" rx="6" fill="#ffffff" opacity="0.94"/>
  <text x="488.75" y="1371.0" text-anchor="middle" class="arrow-label">block</text>
  <rect x="337.25" y="1499.0" width="63" height="20" rx="6" fill="#ffffff" opacity="0.94"/>
  <text x="368.75" y="1513.0" text-anchor="middle" class="arrow-label">healthy</text>
  <rect x="446.75" y="1496.0" width="56" height="20" rx="6" fill="#ffffff" opacity="0.94"/>
  <text x="474.75" y="1510.0" text-anchor="middle" class="arrow-label">breach</text>
  <text x="680.0" y="1894.0" class="footnote">Rendered with fireworks-tech-graph</text>
</svg>