<svg xmlns="http://www.w3.org/2000/svg" viewBox="0 0 2409 404" width="2409" height="404">
  <defs>
    <marker id="arrowA" markerWidth="10" markerHeight="7" refX="9" refY="3.5" orient="auto">
      <polygon points="0 0, 10 3.5, 0 7" fill="#7c3aed"/>
    </marker>
    <marker id="arrowB" markerWidth="10" markerHeight="7" refX="9" refY="3.5" orient="auto">
      <polygon points="0 0, 10 3.5, 0 7" fill="#10b981"/>
    </marker>
    <marker id="arrowC" markerWidth="10" markerHeight="7" refX="9" refY="3.5" orient="auto">
      <polygon points="0 0, 10 3.5, 0 7" fill="#2563eb"/>
    </marker>
    <marker id="arrowE" markerWidth="10" markerHeight="7" refX="9" refY="3.5" orient="auto">
      <polygon points="0 0, 10 3.5, 0 7" fill="#f97316"/>
    </marker>
    <marker id="arrowF" markerWidth="10" markerHeight="7" refX="9" refY="3.5" orient="auto">
      <polygon points="0 0, 10 3.5, 0 7" fill="#7c3aed"/>
    </marker>
    <marker id="arrowG" markerWidth="10" markerHeight="7" refX="9" refY="3.5" orient="auto">
      <polygon points="0 0, 10 3.5, 0 7" fill="#ef4444"/>
    </marker>
    <marker id="arrowH" markerWidth="10" markerHeight="7" refX="9" refY="3.5" orient="auto">
      <polygon points="0 0, 10 3.5, 0 7" fill="#6b7280"/>
    </marker>
    <filter id="shadowSoft" x="-20%" y="-20%" width="140%" height="160%">
      <feDropShadow dx="0" dy="3" stdDeviation="6" flood-color="#0f172a" flood-opacity="0.12"/>
    </filter>
    <filter id="shadowGlass" x="-20%" y="-20%" width="140%" height="160%">
      <feDropShadow dx="0" dy="10" stdDeviation="16" flood-color="#020617" flood-opacity="0.28"/>
    </filter>
    <style>
    text { font-family: 'Helvetica Neue', Helvetica, Arial, 'PingFang SC', 'Microsoft YaHei', 'Microsoft JhengHei', 'SimHei', sans-serif; }
    .title { font-size: 30px; font-weight: 700; fill: #111827; }
    .subtitle { font-size: 14px; font-weight: 500; fill: #6b7280; }
    .section { font-size: 13px; font-weight: 700; fill: #2563eb; letter-spacing: 1.4px; }
    .section-sub { font-size: 12px; font-weight: 500; fill: #94a3b8; }
    .node-title { font-size: 18px; font-weight: 700; fill: #111827; }
    .node-sub { font-size: 12px; font-weight: 500; fill: #6b7280; }
    .node-type { font-size: 12px; font-weight: 700; fill: #9ca3af; letter-spacing: 0.08em; }
    .arrow-label { font-size: 12px; font-weight: 600; fill: #6b7280; }
    .legend { font-size: 12px; font-weight: 500; fill: #6b7280; }
    .footnote { font-size: 12px; font-weight: 500; fill: #94a3b8; }
    </style>
  </defs>
  <rect width="2409.0" height="404.0" fill="#ffffff"/>
  <text x="1204.5" y="56" text-anchor="middle" class="title">20.3.6 data processing</text>
  <text x="1204.5" y="82" text-anchor="middle" class="subtitle">part-05-orchestration/chapter-20-ai-workloads.md:251</text>
  <path d="M 297.0,211.0 L 317.4,211.0 L 348.6,217.0 L 369.0,217.0" fill="none" stroke="#7c3aed" stroke-width="2.4" marker-end="url(#arrowA)"/>
  <path d="M 591.0,217.0 L 611.4,217.0 L 642.6,211.0 L 663.0,211.0" fill="none" stroke="#7c3aed" stroke-width="2.4" marker-end="url(#arrowA)"/>
  <path d="M 850.0,211.0 L 870.4,211.0 L 901.6,217.0 L 922.0,217.0" fill="none" stroke="#7c3aed" stroke-width="2.4" marker-end="url(#arrowA)"/>
  <path d="M 1179.0,217.0 L 1251.0,217.0" fill="none" stroke="#7c3aed" stroke-width="2.4" marker-end="url(#arrowA)"/>
  <path d="M 1431.0,217.0 L 1451.4,217.0 L 1482.6,211.0 L 1503.0,211.0" fill="none" stroke="#7c3aed" stroke-width="2.4" marker-end="url(#arrowA)"/>
  <path d="M 1718.0,211.0 L 1738.4,211.0 L 1769.6,155.0 L 1790.0,155.0" fill="none" stroke="#7c3aed" stroke-width="2.4" marker-end="url(#arrowA)"/>
  <path d="M 1718.0,211.0 L 1738.4,211.0 L 1790.6,267.0 L 1811.0,267.0" fill="none" stroke="#7c3aed" stroke-width="2.4" marker-end="url(#arrowA)"/>
  <path d="M 850.0,211.0 L 870.4,211.0 L 870.4,102.0 L 2063.6,102.0 L 2063.6,211.0 L 2084.0,211.0" fill="none" stroke="#7c3aed" stroke-width="2.4" marker-end="url(#arrowA)"/>
  <path d="M 1179.0,217.0 L 1199.4,217.0 L 2063.6,211.0 L 2084.0,211.0" fill="none" stroke="#7c3aed" stroke-width="2.4" marker-end="url(#arrowA)"/>
  <path d="M 1431.0,217.0 L 1451.4,217.0 L 2063.6,211.0 L 2084.0,211.0" fill="none" stroke="#7c3aed" stroke-width="2.4" marker-end="url(#arrowA)"/>
  <path d="M 2012.0,155.0 L 2032.4,155.0 L 2063.6,211.0 L 2084.0,211.0" fill="none" stroke="#7c3aed" stroke-width="2.4" marker-end="url(#arrowA)"/>
  <rect x="96.0" y="182.0" width="201.0" height="58.0" rx="10.0" fill="#eff6ff" stroke="#bfdbfe" stroke-width="1.8"/>
  <text x="196.5" y="211.0" text-anchor="middle" class="node-title">uploaded media object</text>
  <rect x="369.0" y="182.0" width="222.0" height="70.0" rx="10.0" fill="#f0fdf4" stroke="#bbf7d0" stroke-width="1.8"/>
  <text x="480.0" y="217.0" text-anchor="middle" class="node-title">media workload admission</text>
  <text x="480.0" y="239.0" text-anchor="middle" class="node-sub">quota / type / retention</text>
  <rect x="663.0" y="182.0" width="187.0" height="58.0" rx="10.0" fill="#fff7ed" stroke="#fed7aa" stroke-width="1.8"/>
  <text x="756.5" y="211.0" text-anchor="middle" class="node-title">virus / policy scan</text>
  <rect x="922.0" y="182.0" width="257.0" height="70.0" rx="10.0" fill="#faf5ff" stroke="#e9d5ff" stroke-width="1.8"/>
  <text x="1050.5" y="217.0" text-anchor="middle" class="node-title">decode / render</text>
  <text x="1050.5" y="239.0" text-anchor="middle" class="node-sub">pages / frames / audio chunks</text>
  <rect x="1251.0" y="182.0" width="180.0" height="70.0" rx="10.0" fill="#f0fdfa" stroke="#99f6e4" stroke-width="1.8"/>
  <text x="1341.0" y="217.0" text-anchor="middle" class="node-title">OCR / ASR / layout</text>
  <text x="1341.0" y="239.0" text-anchor="middle" class="node-sub">embedding</text>
  <rect x="1503.0" y="182.0" width="215.0" height="58.0" rx="10.0" fill="#f8fafc" stroke="#cbd5e1" stroke-width="1.8"/>
  <text x="1610.5" y="211.0" text-anchor="middle" class="node-title">media_artifact_manifest</text>
  <rect x="1790.0" y="126.0" width="222.0" height="58.0" rx="10.0" fill="#eff6ff" stroke="#bfdbfe" stroke-width="1.8"/>
  <text x="1901.0" y="155.0" text-anchor="middle" class="node-title">multimodal model serving</text>
  <rect x="1811.0" y="238.0" width="180.0" height="58.0" rx="10.0" fill="#f0fdf4" stroke="#bbf7d0" stroke-width="1.8"/>
  <text x="1901.0" y="267.0" text-anchor="middle" class="node-title">RAG / vector index</text>
  <rect x="2084.0" y="182.0" width="229.0" height="58.0" rx="10.0" fill="#fff7ed" stroke="#fed7aa" stroke-width="1.8"/>
  <text x="2198.5" y="211.0" text-anchor="middle" class="node-title">multimodal_metering_event</text>
  <text x="2129.0" y="388.0" class="footnote">Rendered with fireworks-tech-graph</text>
</svg>