<svg xmlns="http://www.w3.org/2000/svg" viewBox="0 0 2395 404" width="2395" height="404">
  <defs>
    <marker id="arrowA" markerWidth="10" markerHeight="7" refX="9" refY="3.5" orient="auto">
      <polygon points="0 0, 10 3.5, 0 7" fill="#7c3aed"/>
    </marker>
    <marker id="arrowB" markerWidth="10" markerHeight="7" refX="9" refY="3.5" orient="auto">
      <polygon points="0 0, 10 3.5, 0 7" fill="#10b981"/>
    </marker>
    <marker id="arrowC" markerWidth="10" markerHeight="7" refX="9" refY="3.5" orient="auto">
      <polygon points="0 0, 10 3.5, 0 7" fill="#2563eb"/>
    </marker>
    <marker id="arrowE" markerWidth="10" markerHeight="7" refX="9" refY="3.5" orient="auto">
      <polygon points="0 0, 10 3.5, 0 7" fill="#f97316"/>
    </marker>
    <marker id="arrowF" markerWidth="10" markerHeight="7" refX="9" refY="3.5" orient="auto">
      <polygon points="0 0, 10 3.5, 0 7" fill="#7c3aed"/>
    </marker>
    <marker id="arrowG" markerWidth="10" markerHeight="7" refX="9" refY="3.5" orient="auto">
      <polygon points="0 0, 10 3.5, 0 7" fill="#ef4444"/>
    </marker>
    <marker id="arrowH" markerWidth="10" markerHeight="7" refX="9" refY="3.5" orient="auto">
      <polygon points="0 0, 10 3.5, 0 7" fill="#6b7280"/>
    </marker>
    <filter id="shadowSoft" x="-20%" y="-20%" width="140%" height="160%">
      <feDropShadow dx="0" dy="3" stdDeviation="6" flood-color="#0f172a" flood-opacity="0.12"/>
    </filter>
    <filter id="shadowGlass" x="-20%" y="-20%" width="140%" height="160%">
      <feDropShadow dx="0" dy="10" stdDeviation="16" flood-color="#020617" flood-opacity="0.28"/>
    </filter>
    <style>
    text { font-family: 'Helvetica Neue', Helvetica, Arial, 'PingFang SC', 'Microsoft YaHei', 'Microsoft JhengHei', 'SimHei', sans-serif; }
    .title { font-size: 30px; font-weight: 700; fill: #111827; }
    .subtitle { font-size: 14px; font-weight: 500; fill: #6b7280; }
    .section { font-size: 13px; font-weight: 700; fill: #2563eb; letter-spacing: 1.4px; }
    .section-sub { font-size: 12px; font-weight: 500; fill: #94a3b8; }
    .node-title { font-size: 18px; font-weight: 700; fill: #111827; }
    .node-sub { font-size: 12px; font-weight: 500; fill: #6b7280; }
    .node-type { font-size: 12px; font-weight: 700; fill: #9ca3af; letter-spacing: 0.08em; }
    .arrow-label { font-size: 12px; font-weight: 600; fill: #6b7280; }
    .legend { font-size: 12px; font-weight: 500; fill: #6b7280; }
    .footnote { font-size: 12px; font-weight: 500; fill: #94a3b8; }
    </style>
  </defs>
  <rect width="2395.0" height="404.0" fill="#ffffff"/>
  <text x="1197.5" y="56" text-anchor="middle" class="title">22.3.1 GPU device plugin</text>
  <text x="1197.5" y="82" text-anchor="middle" class="subtitle">part-05-orchestration/chapter-22-gpu-on-kubernetes.md:162</text>
  <path d="M 318.0,211.0 L 338.4,211.0 L 369.6,217.0 L 390.0,217.0" fill="none" stroke="#7c3aed" stroke-width="2.4" marker-end="url(#arrowA)"/>
  <path d="M 598.0,217.0 L 618.4,217.0 L 649.6,211.0 L 670.0,211.0" fill="none" stroke="#7c3aed" stroke-width="2.4" marker-end="url(#arrowA)"/>
  <path d="M 864.0,211.0 L 884.4,211.0 L 915.6,161.0 L 936.0,161.0" fill="none" stroke="#7c3aed" stroke-width="2.4" marker-end="url(#arrowA)"/>
  <path d="M 864.0,211.0 L 884.4,211.0 L 936.6,273.0 L 957.0,273.0" fill="none" stroke="#7c3aed" stroke-width="2.4" marker-end="url(#arrowA)"/>
  <path d="M 1144.0,161.0 L 1164.4,161.0 L 1195.6,211.0 L 1216.0,211.0" fill="none" stroke="#7c3aed" stroke-width="2.4" marker-end="url(#arrowA)"/>
  <path d="M 1123.0,273.0 L 1143.4,273.0 L 1195.6,211.0 L 1216.0,211.0" fill="none" stroke="#7c3aed" stroke-width="2.4" marker-end="url(#arrowA)"/>
  <path d="M 1452.0,211.0 L 1472.4,211.0 L 1503.6,217.0 L 1524.0,217.0" fill="none" stroke="#7c3aed" stroke-width="2.4" marker-end="url(#arrowA)"/>
  <path d="M 1725.0,217.0 L 1745.4,217.0 L 1776.6,211.0 L 1797.0,211.0" fill="none" stroke="#7c3aed" stroke-width="2.4" marker-end="url(#arrowA)"/>
  <path d="M 1998.0,211.0 L 2070.0,211.0" fill="none" stroke="#7c3aed" stroke-width="2.4" marker-end="url(#arrowA)"/>
  <rect x="96.0" y="182.0" width="222.0" height="58.0" rx="10.0" fill="#eff6ff" stroke="#bfdbfe" stroke-width="1.8"/>
  <text x="207.0" y="211.0" text-anchor="middle" class="node-title">gpu_device_plugin_policy</text>
  <rect x="390.0" y="182.0" width="208.0" height="70.0" rx="10.0" fill="#f0fdf4" stroke="#bbf7d0" stroke-width="1.8"/>
  <text x="494.0" y="217.0" text-anchor="middle" class="node-title">kubelet Allocate</text>
  <text x="494.0" y="239.0" text-anchor="middle" class="node-sub">resource -&gt; device ids</text>
  <rect x="670.0" y="182.0" width="194.0" height="58.0" rx="10.0" fill="#fff7ed" stroke="#fdba74" stroke-width="2.0"/>
  <rect x="676.0" y="188.0" width="182.0" height="46.0" rx="7.0" fill="none" stroke="#fdba74" stroke-width="1.2" opacity="0.65"/>
  <text x="767.0" y="200.0" text-anchor="middle" class="node-type">DECISION</text>
  <text x="767.0" y="217.0" text-anchor="middle" class="node-title">device_list_strategy</text>
  <rect x="936.0" y="126.0" width="208.0" height="70.0" rx="10.0" fill="#faf5ff" stroke="#e9d5ff" stroke-width="1.8"/>
  <text x="1040.0" y="161.0" text-anchor="middle" class="node-title">envvar</text>
  <text x="1040.0" y="183.0" text-anchor="middle" class="node-sub">NVIDIA_VISIBLE_DEVICES</text>
  <rect x="957.0" y="238.0" width="166.0" height="70.0" rx="10.0" fill="#f0fdfa" stroke="#99f6e4" stroke-width="1.8"/>
  <text x="1040.0" y="273.0" text-anchor="middle" class="node-title">CDI device names</text>
  <text x="1040.0" y="295.0" text-anchor="middle" class="node-sub">cdi spec</text>
  <rect x="1216.0" y="182.0" width="236.0" height="58.0" rx="10.0" fill="#f8fafc" stroke="#cbd5e1" stroke-width="1.8"/>
  <text x="1334.0" y="211.0" text-anchor="middle" class="node-title">oci_runtime_injection_diff</text>
  <rect x="1524.0" y="182.0" width="201.0" height="70.0" rx="10.0" fill="#eff6ff" stroke="#bfdbfe" stroke-width="1.8"/>
  <text x="1624.5" y="217.0" text-anchor="middle" class="node-title">gpu_device_visibility</text>
  <text x="1624.5" y="239.0" text-anchor="middle" class="node-sub">reconciliation</text>
  <rect x="1797.0" y="182.0" width="201.0" height="58.0" rx="10.0" fill="#f0fdf4" stroke="#bbf7d0" stroke-width="1.8"/>
  <text x="1897.5" y="211.0" text-anchor="middle" class="node-title">gpu_assignment_record</text>
  <rect x="2070.0" y="182.0" width="229.0" height="58.0" rx="10.0" fill="#fff7ed" stroke="#fed7aa" stroke-width="1.8"/>
  <text x="2184.5" y="211.0" text-anchor="middle" class="node-title">DCGM / billing / incident</text>
  <text x="2115.0" y="388.0" class="footnote">Rendered with fireworks-tech-graph</text>
</svg>