<svg xmlns="http://www.w3.org/2000/svg" viewBox="0 0 1274 892" width="1274" height="892">
  <defs>
    <marker id="arrowA" markerWidth="10" markerHeight="7" refX="9" refY="3.5" orient="auto">
      <polygon points="0 0, 10 3.5, 0 7" fill="#7c3aed"/>
    </marker>
    <marker id="arrowB" markerWidth="10" markerHeight="7" refX="9" refY="3.5" orient="auto">
      <polygon points="0 0, 10 3.5, 0 7" fill="#10b981"/>
    </marker>
    <marker id="arrowC" markerWidth="10" markerHeight="7" refX="9" refY="3.5" orient="auto">
      <polygon points="0 0, 10 3.5, 0 7" fill="#2563eb"/>
    </marker>
    <marker id="arrowE" markerWidth="10" markerHeight="7" refX="9" refY="3.5" orient="auto">
      <polygon points="0 0, 10 3.5, 0 7" fill="#f97316"/>
    </marker>
    <marker id="arrowF" markerWidth="10" markerHeight="7" refX="9" refY="3.5" orient="auto">
      <polygon points="0 0, 10 3.5, 0 7" fill="#7c3aed"/>
    </marker>
    <marker id="arrowG" markerWidth="10" markerHeight="7" refX="9" refY="3.5" orient="auto">
      <polygon points="0 0, 10 3.5, 0 7" fill="#ef4444"/>
    </marker>
    <marker id="arrowH" markerWidth="10" markerHeight="7" refX="9" refY="3.5" orient="auto">
      <polygon points="0 0, 10 3.5, 0 7" fill="#6b7280"/>
    </marker>
    <filter id="shadowSoft" x="-20%" y="-20%" width="140%" height="160%">
      <feDropShadow dx="0" dy="3" stdDeviation="6" flood-color="#0f172a" flood-opacity="0.12"/>
    </filter>
    <filter id="shadowGlass" x="-20%" y="-20%" width="140%" height="160%">
      <feDropShadow dx="0" dy="10" stdDeviation="16" flood-color="#020617" flood-opacity="0.28"/>
    </filter>
    <style>
    text { font-family: 'Helvetica Neue', Helvetica, Arial, 'PingFang SC', 'Microsoft YaHei', 'Microsoft JhengHei', 'SimHei', sans-serif; }
    .title { font-size: 30px; font-weight: 700; fill: #111827; }
    .subtitle { font-size: 14px; font-weight: 500; fill: #6b7280; }
    .section { font-size: 13px; font-weight: 700; fill: #2563eb; letter-spacing: 1.4px; }
    .section-sub { font-size: 12px; font-weight: 500; fill: #94a3b8; }
    .node-title { font-size: 18px; font-weight: 700; fill: #111827; }
    .node-sub { font-size: 12px; font-weight: 500; fill: #6b7280; }
    .node-type { font-size: 12px; font-weight: 700; fill: #9ca3af; letter-spacing: 0.08em; }
    .arrow-label { font-size: 12px; font-weight: 600; fill: #6b7280; }
    .legend { font-size: 12px; font-weight: 500; fill: #6b7280; }
    .footnote { font-size: 12px; font-weight: 500; fill: #94a3b8; }
    </style>
  </defs>
  <rect width="1274.0" height="892.0" fill="#ffffff"/>
  <text x="637.0" y="56" text-anchor="middle" class="title">29.2.2 系统架构</text>
  <text x="637.0" y="82" text-anchor="middle" class="subtitle">part-06-gpu-iaas/chapter-29-image-driver-bootstrap.md:70</text>
  <path d="M 517.0,212.0 L 517.0,232.4 L 637.0,263.6 L 637.0,284.0" fill="none" stroke="#7c3aed" stroke-width="2.4" marker-end="url(#arrowA)"/>
  <path d="M 637.0,342.0 L 637.0,362.4 L 178.0,399.6 L 178.0,420.0" fill="none" stroke="#7c3aed" stroke-width="2.4" marker-end="url(#arrowA)"/>
  <path d="M 637.0,342.0 L 637.0,362.4 L 439.0,399.6 L 439.0,420.0" fill="none" stroke="#7c3aed" stroke-width="2.4" marker-end="url(#arrowA)"/>
  <path d="M 637.0,342.0 L 637.0,362.4 L 668.5,399.6 L 668.5,420.0" fill="none" stroke="#7c3aed" stroke-width="2.4" marker-end="url(#arrowA)"/>
  <path d="M 637.0,342.0 L 637.0,362.4 L 887.5,393.6 L 887.5,414.0" fill="none" stroke="#7c3aed" stroke-width="2.4" marker-end="url(#arrowA)"/>
  <path d="M 887.5,484.0 L 887.5,504.4 L 532.0,535.6 L 532.0,556.0" fill="none" stroke="#7c3aed" stroke-width="2.4" marker-end="url(#arrowA)"/>
  <path d="M 532.0,614.0 L 532.0,634.4 L 637.0,665.6 L 637.0,686.0" fill="none" stroke="#7c3aed" stroke-width="2.4" marker-end="url(#arrowA)"/>
  <path d="M 637.0,342.0 L 637.0,362.4 L 1117.0,399.6 L 1117.0,420.0" fill="none" stroke="#7c3aed" stroke-width="2.4" marker-end="url(#arrowA)"/>
  <path d="M 1117.0,478.0 L 1117.0,498.4 L 750.0,535.6 L 750.0,556.0" fill="none" stroke="#7c3aed" stroke-width="2.4" marker-end="url(#arrowA)"/>
  <path d="M 645.0,183.0 L 599.0,183.0" fill="none" stroke="#7c3aed" stroke-width="2.4" marker-end="url(#arrowA)"/>
  <path d="M 742.0,212.0 L 742.0,232.4 L 532.0,535.6 L 532.0,556.0" fill="none" stroke="#7c3aed" stroke-width="2.4" marker-end="url(#arrowA)"/>
  <path d="M 742.0,212.0 L 742.0,232.4 L 1117.0,399.6 L 1117.0,420.0" fill="none" stroke="#7c3aed" stroke-width="2.4" marker-end="url(#arrowA)"/>
  <rect x="435.0" y="154.0" width="164.0" height="58.0" rx="10.0" fill="#eff6ff" stroke="#bfdbfe" stroke-width="1.8"/>
  <text x="517.0" y="183.0" text-anchor="middle" class="node-title">golden OS image</text>
  <rect x="645.0" y="154.0" width="194.0" height="58.0" rx="10.0" fill="#f0fdfa" stroke="#99f6e4" stroke-width="1.8"/>
  <text x="742.0" y="183.0" text-anchor="middle" class="node-title">compatibility matrix</text>
  <rect x="555.0" y="284.0" width="164.0" height="58.0" rx="10.0" fill="#f0fdf4" stroke="#bbf7d0" stroke-width="1.8"/>
  <text x="637.0" y="313.0" text-anchor="middle" class="node-title">host baseline</text>
  <rect x="60.0" y="420.0" width="236.0" height="58.0" rx="10.0" fill="#fff7ed" stroke="#fed7aa" stroke-width="1.8"/>
  <text x="178.0" y="449.0" text-anchor="middle" class="node-title">kernel / sysctl / security</text>
  <rect x="342.0" y="420.0" width="194.0" height="58.0" rx="10.0" fill="#faf5ff" stroke="#e9d5ff" stroke-width="1.8"/>
  <text x="439.0" y="449.0" text-anchor="middle" class="node-title">NVIDIA driver / DCGM</text>
  <rect x="582.0" y="420.0" width="173.0" height="58.0" rx="10.0" fill="#f0fdfa" stroke="#99f6e4" stroke-width="1.8"/>
  <text x="668.5" y="449.0" text-anchor="middle" class="node-title">OFED / RDMA stack</text>
  <rect x="801.0" y="414.0" width="173.0" height="70.0" rx="10.0" fill="#f8fafc" stroke="#cbd5e1" stroke-width="1.8"/>
  <text x="887.5" y="449.0" text-anchor="middle" class="node-title">container runtime</text>
  <text x="887.5" y="471.0" text-anchor="middle" class="node-sub">toolkit</text>
  <rect x="1020.0" y="420.0" width="194.0" height="58.0" rx="10.0" fill="#fff7ed" stroke="#fed7aa" stroke-width="1.8"/>
  <text x="1117.0" y="449.0" text-anchor="middle" class="node-title">bootstrap validation</text>
  <rect x="442.0" y="556.0" width="180.0" height="58.0" rx="10.0" fill="#eff6ff" stroke="#bfdbfe" stroke-width="1.8"/>
  <text x="532.0" y="585.0" text-anchor="middle" class="node-title">AI container image</text>
  <rect x="668.0" y="556.0" width="164.0" height="58.0" rx="10.0" fill="#faf5ff" stroke="#e9d5ff" stroke-width="1.8"/>
  <text x="750.0" y="585.0" text-anchor="middle" class="node-title">resource pool</text>
  <rect x="547.0" y="686.0" width="180.0" height="70.0" rx="10.0" fill="#f0fdf4" stroke="#bbf7d0" stroke-width="1.8"/>
  <text x="637.0" y="721.0" text-anchor="middle" class="node-title">training</text>
  <text x="637.0" y="743.0" text-anchor="middle" class="node-sub">inference workload</text>
  <text x="994.0" y="876.0" class="footnote">Rendered with fireworks-tech-graph</text>
</svg>