<svg xmlns="http://www.w3.org/2000/svg" viewBox="0 0 2337 404" width="2337" height="404">
  <defs>
    <marker id="arrowA" markerWidth="10" markerHeight="7" refX="9" refY="3.5" orient="auto">
      <polygon points="0 0, 10 3.5, 0 7" fill="#7c3aed"/>
    </marker>
    <marker id="arrowB" markerWidth="10" markerHeight="7" refX="9" refY="3.5" orient="auto">
      <polygon points="0 0, 10 3.5, 0 7" fill="#10b981"/>
    </marker>
    <marker id="arrowC" markerWidth="10" markerHeight="7" refX="9" refY="3.5" orient="auto">
      <polygon points="0 0, 10 3.5, 0 7" fill="#2563eb"/>
    </marker>
    <marker id="arrowE" markerWidth="10" markerHeight="7" refX="9" refY="3.5" orient="auto">
      <polygon points="0 0, 10 3.5, 0 7" fill="#f97316"/>
    </marker>
    <marker id="arrowF" markerWidth="10" markerHeight="7" refX="9" refY="3.5" orient="auto">
      <polygon points="0 0, 10 3.5, 0 7" fill="#7c3aed"/>
    </marker>
    <marker id="arrowG" markerWidth="10" markerHeight="7" refX="9" refY="3.5" orient="auto">
      <polygon points="0 0, 10 3.5, 0 7" fill="#ef4444"/>
    </marker>
    <marker id="arrowH" markerWidth="10" markerHeight="7" refX="9" refY="3.5" orient="auto">
      <polygon points="0 0, 10 3.5, 0 7" fill="#6b7280"/>
    </marker>
    <filter id="shadowSoft" x="-20%" y="-20%" width="140%" height="160%">
      <feDropShadow dx="0" dy="3" stdDeviation="6" flood-color="#0f172a" flood-opacity="0.12"/>
    </filter>
    <filter id="shadowGlass" x="-20%" y="-20%" width="140%" height="160%">
      <feDropShadow dx="0" dy="10" stdDeviation="16" flood-color="#020617" flood-opacity="0.28"/>
    </filter>
    <style>
    text { font-family: 'Helvetica Neue', Helvetica, Arial, 'PingFang SC', 'Microsoft YaHei', 'Microsoft JhengHei', 'SimHei', sans-serif; }
    .title { font-size: 30px; font-weight: 700; fill: #111827; }
    .subtitle { font-size: 14px; font-weight: 500; fill: #6b7280; }
    .section { font-size: 13px; font-weight: 700; fill: #2563eb; letter-spacing: 1.4px; }
    .section-sub { font-size: 12px; font-weight: 500; fill: #94a3b8; }
    .node-title { font-size: 18px; font-weight: 700; fill: #111827; }
    .node-sub { font-size: 12px; font-weight: 500; fill: #6b7280; }
    .node-type { font-size: 12px; font-weight: 700; fill: #9ca3af; letter-spacing: 0.08em; }
    .arrow-label { font-size: 12px; font-weight: 600; fill: #6b7280; }
    .legend { font-size: 12px; font-weight: 500; fill: #6b7280; }
    .footnote { font-size: 12px; font-weight: 500; fill: #94a3b8; }
    </style>
  </defs>
  <rect width="2337.0" height="404.0" fill="#ffffff"/>
  <text x="1168.5" y="56" text-anchor="middle" class="title">6.4.1 工程实现</text>
  <text x="1168.5" y="82" text-anchor="middle" class="subtitle">part-02-platform/chapter-06-ai-gateway.md:236</text>
  <path d="M 269.0,211.0 L 289.4,211.0 L 320.6,217.0 L 341.0,217.0" fill="none" stroke="#7c3aed" stroke-width="2.4" marker-end="url(#arrowA)"/>
  <path d="M 528.0,217.0 L 600.0,217.0" fill="none" stroke="#7c3aed" stroke-width="2.4" marker-end="url(#arrowA)"/>
  <path d="M 815.0,217.0 L 887.0,217.0" fill="none" stroke="#7c3aed" stroke-width="2.4" marker-end="url(#arrowA)"/>
  <path d="M 1109.0,217.0 L 1181.0,217.0" fill="none" stroke="#7c3aed" stroke-width="2.4" marker-end="url(#arrowA)"/>
  <path d="M 1417.0,217.0 L 1437.4,217.0 L 1468.6,161.0 L 1489.0,161.0" fill="none" stroke="#7c3aed" stroke-width="2.4" marker-end="url(#arrowA)"/>
  <path d="M 1725.0,161.0 L 1745.4,161.0 L 1776.6,217.0 L 1797.0,217.0" fill="none" stroke="#7c3aed" stroke-width="2.4" marker-end="url(#arrowA)"/>
  <path d="M 2005.0,217.0 L 2025.4,217.0 L 2056.6,211.0 L 2077.0,211.0" fill="none" stroke="#7c3aed" stroke-width="2.4" marker-end="url(#arrowA)"/>
  <path d="M 528.0,217.0 L 548.4,217.0 L 1504.6,267.0 L 1525.0,267.0" fill="none" stroke="#7c3aed" stroke-width="2.4" marker-end="url(#arrowA)"/>
  <path d="M 815.0,217.0 L 835.4,217.0 L 1504.6,267.0 L 1525.0,267.0" fill="none" stroke="#7c3aed" stroke-width="2.4" marker-end="url(#arrowA)"/>
  <path d="M 1109.0,217.0 L 1129.4,217.0 L 1504.6,267.0 L 1525.0,267.0" fill="none" stroke="#7c3aed" stroke-width="2.4" marker-end="url(#arrowA)"/>
  <path d="M 1417.0,217.0 L 1437.4,217.0 L 1504.6,267.0 L 1525.0,267.0" fill="none" stroke="#7c3aed" stroke-width="2.4" marker-end="url(#arrowA)"/>
  <rect x="96.0" y="182.0" width="173.0" height="58.0" rx="10.0" fill="#eff6ff" stroke="#bfdbfe" stroke-width="1.8"/>
  <text x="182.5" y="211.0" text-anchor="middle" class="node-title">HTTP Chat Request</text>
  <rect x="341.0" y="182.0" width="187.0" height="70.0" rx="10.0" fill="#f0fdf4" stroke="#bbf7d0" stroke-width="1.8"/>
  <text x="434.5" y="217.0" text-anchor="middle" class="node-title">1 identity</text>
  <text x="434.5" y="239.0" text-anchor="middle" class="node-sub">key / tenant / user</text>
  <rect x="600.0" y="182.0" width="215.0" height="70.0" rx="10.0" fill="#fff7ed" stroke="#fed7aa" stroke-width="1.8"/>
  <text x="707.5" y="217.0" text-anchor="middle" class="node-title">2 capability</text>
  <text x="707.5" y="239.0" text-anchor="middle" class="node-sub">model supports features</text>
  <rect x="887.0" y="182.0" width="222.0" height="70.0" rx="10.0" fill="#faf5ff" stroke="#e9d5ff" stroke-width="1.8"/>
  <text x="998.0" y="217.0" text-anchor="middle" class="node-title">3 budget</text>
  <text x="998.0" y="239.0" text-anchor="middle" class="node-sub">token / rpm / tpm / cost</text>
  <rect x="1181.0" y="182.0" width="236.0" height="70.0" rx="10.0" fill="#f0fdfa" stroke="#99f6e4" stroke-width="1.8"/>
  <text x="1299.0" y="217.0" text-anchor="middle" class="node-title">4 policy</text>
  <text x="1299.0" y="239.0" text-anchor="middle" class="node-sub">safety / canary / fallback</text>
  <rect x="1489.0" y="126.0" width="236.0" height="70.0" rx="10.0" fill="#f8fafc" stroke="#cbd5e1" stroke-width="1.8"/>
  <text x="1607.0" y="161.0" text-anchor="middle" class="node-title">5 route</text>
  <text x="1607.0" y="183.0" text-anchor="middle" class="node-sub">endpoint / pool / provider</text>
  <rect x="1525.0" y="238.0" width="164.0" height="58.0" rx="10.0" fill="#fff7ed" stroke="#fed7aa" stroke-width="1.8"/>
  <text x="1607.0" y="267.0" text-anchor="middle" class="node-title">typed error</text>
  <rect x="1797.0" y="182.0" width="208.0" height="70.0" rx="10.0" fill="#eff6ff" stroke="#bfdbfe" stroke-width="1.8"/>
  <text x="1901.0" y="217.0" text-anchor="middle" class="node-title">6 commit</text>
  <text x="1901.0" y="239.0" text-anchor="middle" class="node-sub">trace / metering start</text>
  <rect x="2077.0" y="182.0" width="164.0" height="58.0" rx="10.0" fill="#f0fdf4" stroke="#bbf7d0" stroke-width="1.8"/>
  <text x="2159.0" y="211.0" text-anchor="middle" class="node-title">Model Endpoint</text>
  <rect x="1005.5" y="228.0" width="42" height="20" rx="6" fill="#ffffff" opacity="0.94"/>
  <text x="1026.5" y="242.0" text-anchor="middle" class="arrow-label">deny</text>
  <rect x="1149.0" y="228.0" width="42" height="20" rx="6" fill="#ffffff" opacity="0.94"/>
  <text x="1170.0" y="242.0" text-anchor="middle" class="arrow-label">deny</text>
  <rect x="1296.0" y="228.0" width="42" height="20" rx="6" fill="#ffffff" opacity="0.94"/>
  <text x="1317.0" y="242.0" text-anchor="middle" class="arrow-label">deny</text>
  <rect x="1450.0" y="212.0" width="42" height="20" rx="6" fill="#ffffff" opacity="0.94"/>
  <text x="1471.0" y="226.0" text-anchor="middle" class="arrow-label">deny</text>
  <text x="2057.0" y="388.0" class="footnote">Rendered with fireworks-tech-graph</text>
</svg>