<svg xmlns="http://www.w3.org/2000/svg" viewBox="0 0 960 1176" width="960" height="1176">
  <defs>
    <marker id="arrowA" markerWidth="10" markerHeight="7" refX="9" refY="3.5" orient="auto">
      <polygon points="0 0, 10 3.5, 0 7" fill="#7c3aed"/>
    </marker>
    <marker id="arrowB" markerWidth="10" markerHeight="7" refX="9" refY="3.5" orient="auto">
      <polygon points="0 0, 10 3.5, 0 7" fill="#10b981"/>
    </marker>
    <marker id="arrowC" markerWidth="10" markerHeight="7" refX="9" refY="3.5" orient="auto">
      <polygon points="0 0, 10 3.5, 0 7" fill="#2563eb"/>
    </marker>
    <marker id="arrowE" markerWidth="10" markerHeight="7" refX="9" refY="3.5" orient="auto">
      <polygon points="0 0, 10 3.5, 0 7" fill="#f97316"/>
    </marker>
    <marker id="arrowF" markerWidth="10" markerHeight="7" refX="9" refY="3.5" orient="auto">
      <polygon points="0 0, 10 3.5, 0 7" fill="#7c3aed"/>
    </marker>
    <marker id="arrowG" markerWidth="10" markerHeight="7" refX="9" refY="3.5" orient="auto">
      <polygon points="0 0, 10 3.5, 0 7" fill="#ef4444"/>
    </marker>
    <marker id="arrowH" markerWidth="10" markerHeight="7" refX="9" refY="3.5" orient="auto">
      <polygon points="0 0, 10 3.5, 0 7" fill="#6b7280"/>
    </marker>
    <filter id="shadowSoft" x="-20%" y="-20%" width="140%" height="160%">
      <feDropShadow dx="0" dy="3" stdDeviation="6" flood-color="#0f172a" flood-opacity="0.12"/>
    </filter>
    <filter id="shadowGlass" x="-20%" y="-20%" width="140%" height="160%">
      <feDropShadow dx="0" dy="10" stdDeviation="16" flood-color="#020617" flood-opacity="0.28"/>
    </filter>
    <style>
    text { font-family: 'Helvetica Neue', Helvetica, Arial, 'PingFang SC', 'Microsoft YaHei', 'Microsoft JhengHei', 'SimHei', sans-serif; }
    .title { font-size: 30px; font-weight: 700; fill: #111827; }
    .subtitle { font-size: 14px; font-weight: 500; fill: #6b7280; }
    .section { font-size: 13px; font-weight: 700; fill: #2563eb; letter-spacing: 1.4px; }
    .section-sub { font-size: 12px; font-weight: 500; fill: #94a3b8; }
    .node-title { font-size: 18px; font-weight: 700; fill: #111827; }
    .node-sub { font-size: 12px; font-weight: 500; fill: #6b7280; }
    .node-type { font-size: 12px; font-weight: 700; fill: #9ca3af; letter-spacing: 0.08em; }
    .arrow-label { font-size: 12px; font-weight: 600; fill: #6b7280; }
    .legend { font-size: 12px; font-weight: 500; fill: #6b7280; }
    .footnote { font-size: 12px; font-weight: 500; fill: #94a3b8; }
    </style>
  </defs>
  <rect width="960.0" height="1176.0" fill="#ffffff"/>
  <text x="480.0" y="56" text-anchor="middle" class="title">44.4.1 工程实现</text>
  <text x="480.0" y="82" text-anchor="middle" class="subtitle">part-10-economics-cases/chapter-44-building-ai-factory.md:1506</text>
  <path d="M 480.0,224.0 L 480.0,244.4 L 219.0,275.6 L 219.0,296.0" fill="none" stroke="#7c3aed" stroke-width="2.4" marker-end="url(#arrowA)"/>
  <path d="M 480.0,224.0 L 480.0,244.4 L 466.0,275.6 L 466.0,296.0" fill="none" stroke="#7c3aed" stroke-width="2.4" marker-end="url(#arrowA)"/>
  <path d="M 480.0,224.0 L 480.0,244.4 L 727.0,275.6 L 727.0,296.0" fill="none" stroke="#7c3aed" stroke-width="2.4" marker-end="url(#arrowA)"/>
  <path d="M 219.0,366.0 L 219.0,386.4 L 480.0,417.6 L 480.0,438.0" fill="none" stroke="#7c3aed" stroke-width="2.4" marker-end="url(#arrowA)"/>
  <path d="M 466.0,366.0 L 466.0,386.4 L 480.0,417.6 L 480.0,438.0" fill="none" stroke="#7c3aed" stroke-width="2.4" marker-end="url(#arrowA)"/>
  <path d="M 727.0,366.0 L 727.0,386.4 L 480.0,417.6 L 480.0,438.0" fill="none" stroke="#7c3aed" stroke-width="2.4" marker-end="url(#arrowA)"/>
  <path d="M 480.0,496.0 L 480.0,568.0" fill="none" stroke="#7c3aed" stroke-width="2.4" marker-end="url(#arrowA)"/>
  <path d="M 480.0,626.0 L 480.0,646.4 L 342.5,683.6 L 342.5,704.0" fill="none" stroke="#7c3aed" stroke-width="2.4" marker-end="url(#arrowA)"/>
  <path d="M 480.0,626.0 L 480.0,646.4 L 607.0,677.6 L 607.0,698.0" fill="none" stroke="#7c3aed" stroke-width="2.4" marker-end="url(#arrowA)"/>
  <path d="M 607.0,768.0 L 607.0,788.4 L 480.0,819.6 L 480.0,840.0" fill="none" stroke="#7c3aed" stroke-width="2.4" marker-end="url(#arrowA)"/>
  <path d="M 480.0,910.0 L 480.0,982.0" fill="none" stroke="#7c3aed" stroke-width="2.4" marker-end="url(#arrowA)"/>
  <rect x="383.0" y="154.0" width="194.0" height="70.0" rx="10.0" fill="#eff6ff" stroke="#bfdbfe" stroke-width="1.8"/>
  <text x="480.0" y="189.0" text-anchor="middle" class="node-title">quality_evidence_prr</text>
  <text x="480.0" y="211.0" text-anchor="middle" class="node-sub">invalidation_drill</text>
  <rect x="125.5" y="296.0" width="187.0" height="70.0" rx="10.0" fill="#f0fdf4" stroke="#bbf7d0" stroke-width="1.8"/>
  <text x="219.0" y="331.0" text-anchor="middle" class="node-title">eval_contamination</text>
  <text x="219.0" y="353.0" text-anchor="middle" class="node-sub">invalidation_record</text>
  <rect x="358.5" y="296.0" width="215.0" height="70.0" rx="10.0" fill="#fff7ed" stroke="#fed7aa" stroke-width="1.8"/>
  <text x="466.0" y="331.0" text-anchor="middle" class="node-title">judge_drift_calibration</text>
  <text x="466.0" y="353.0" text-anchor="middle" class="node-sub">record</text>
  <rect x="619.5" y="296.0" width="215.0" height="70.0" rx="10.0" fill="#faf5ff" stroke="#e9d5ff" stroke-width="1.8"/>
  <text x="727.0" y="331.0" text-anchor="middle" class="node-title">quality_feedback_intake</text>
  <text x="727.0" y="353.0" text-anchor="middle" class="node-sub">pipeline health</text>
  <rect x="365.5" y="438.0" width="229.0" height="58.0" rx="10.0" fill="#f0fdfa" stroke="#99f6e4" stroke-width="1.8"/>
  <text x="480.0" y="467.0" text-anchor="middle" class="node-title">quality_evidence_validity</text>
  <rect x="379.5" y="568.0" width="201.0" height="58.0" rx="10.0" fill="#fff7ed" stroke="#fdba74" stroke-width="2.0"/>
  <rect x="385.5" y="574.0" width="189.0" height="46.0" rx="7.0" fill="none" stroke="#fdba74" stroke-width="1.2" opacity="0.65"/>
  <text x="480.0" y="586.0" text-anchor="middle" class="node-type">DECISION</text>
  <text x="480.0" y="603.0" text-anchor="middle" class="node-title">gate evidence usable?</text>
  <rect x="238.5" y="704.0" width="208.0" height="58.0" rx="10.0" fill="#eff6ff" stroke="#bfdbfe" stroke-width="1.8"/>
  <text x="342.5" y="733.0" text-anchor="middle" class="node-title">continue canary / ramp</text>
  <rect x="492.5" y="698.0" width="229.0" height="70.0" rx="10.0" fill="#f0fdf4" stroke="#bbf7d0" stroke-width="1.8"/>
  <text x="607.0" y="733.0" text-anchor="middle" class="node-title">block high-value release</text>
  <text x="607.0" y="755.0" text-anchor="middle" class="node-sub">rerun gate / replace data</text>
  <rect x="348.0" y="840.0" width="264.0" height="70.0" rx="10.0" fill="#fff7ed" stroke="#fed7aa" stroke-width="1.8"/>
  <text x="480.0" y="875.0" text-anchor="middle" class="node-title">quality_cost_ledger</text>
  <text x="480.0" y="897.0" text-anchor="middle" class="node-sub">prevention cost + avoided loss</text>
  <rect x="398.0" y="982.0" width="164.0" height="58.0" rx="10.0" fill="#faf5ff" stroke="#e9d5ff" stroke-width="1.8"/>
  <text x="480.0" y="1011.0" text-anchor="middle" class="node-title">PRR gate update</text>
  <rect x="393.25" y="635.0" width="36" height="20" rx="6" fill="#ffffff" opacity="0.94"/>
  <text x="411.25" y="649.0" text-anchor="middle" class="arrow-label">yes</text>
  <rect x="525.5" y="632.0" width="36" height="20" rx="6" fill="#ffffff" opacity="0.94"/>
  <text x="543.5" y="646.0" text-anchor="middle" class="arrow-label">no</text>
  <text x="680.0" y="1160.0" class="footnote">Rendered with fireworks-tech-graph</text>
</svg>