<svg xmlns="http://www.w3.org/2000/svg" viewBox="0 0 1342 762" width="1342" height="762">
  <defs>
    <marker id="arrowA" markerWidth="10" markerHeight="7" refX="9" refY="3.5" orient="auto">
      <polygon points="0 0, 10 3.5, 0 7" fill="#7c3aed"/>
    </marker>
    <marker id="arrowB" markerWidth="10" markerHeight="7" refX="9" refY="3.5" orient="auto">
      <polygon points="0 0, 10 3.5, 0 7" fill="#10b981"/>
    </marker>
    <marker id="arrowC" markerWidth="10" markerHeight="7" refX="9" refY="3.5" orient="auto">
      <polygon points="0 0, 10 3.5, 0 7" fill="#2563eb"/>
    </marker>
    <marker id="arrowE" markerWidth="10" markerHeight="7" refX="9" refY="3.5" orient="auto">
      <polygon points="0 0, 10 3.5, 0 7" fill="#f97316"/>
    </marker>
    <marker id="arrowF" markerWidth="10" markerHeight="7" refX="9" refY="3.5" orient="auto">
      <polygon points="0 0, 10 3.5, 0 7" fill="#7c3aed"/>
    </marker>
    <marker id="arrowG" markerWidth="10" markerHeight="7" refX="9" refY="3.5" orient="auto">
      <polygon points="0 0, 10 3.5, 0 7" fill="#ef4444"/>
    </marker>
    <marker id="arrowH" markerWidth="10" markerHeight="7" refX="9" refY="3.5" orient="auto">
      <polygon points="0 0, 10 3.5, 0 7" fill="#6b7280"/>
    </marker>
    <filter id="shadowSoft" x="-20%" y="-20%" width="140%" height="160%">
      <feDropShadow dx="0" dy="3" stdDeviation="6" flood-color="#0f172a" flood-opacity="0.12"/>
    </filter>
    <filter id="shadowGlass" x="-20%" y="-20%" width="140%" height="160%">
      <feDropShadow dx="0" dy="10" stdDeviation="16" flood-color="#020617" flood-opacity="0.28"/>
    </filter>
    <style>
    text { font-family: 'Helvetica Neue', Helvetica, Arial, 'PingFang SC', 'Microsoft YaHei', 'Microsoft JhengHei', 'SimHei', sans-serif; }
    .title { font-size: 30px; font-weight: 700; fill: #111827; }
    .subtitle { font-size: 14px; font-weight: 500; fill: #6b7280; }
    .section { font-size: 13px; font-weight: 700; fill: #2563eb; letter-spacing: 1.4px; }
    .section-sub { font-size: 12px; font-weight: 500; fill: #94a3b8; }
    .node-title { font-size: 18px; font-weight: 700; fill: #111827; }
    .node-sub { font-size: 12px; font-weight: 500; fill: #6b7280; }
    .node-type { font-size: 12px; font-weight: 700; fill: #9ca3af; letter-spacing: 0.08em; }
    .arrow-label { font-size: 12px; font-weight: 600; fill: #6b7280; }
    .legend { font-size: 12px; font-weight: 500; fill: #6b7280; }
    .footnote { font-size: 12px; font-weight: 500; fill: #94a3b8; }
    </style>
  </defs>
  <rect width="1342.0" height="762.0" fill="#ffffff"/>
  <text x="671.0" y="56" text-anchor="middle" class="title">33.2.2 系统架构</text>
  <text x="671.0" y="82" text-anchor="middle" class="subtitle">part-07-network-storage/chapter-33-ai-storage.md:103</text>
  <path d="M 671.0,212.0 L 671.0,232.4 L 192.0,263.6 L 192.0,284.0" fill="none" stroke="#7c3aed" stroke-width="2.4" marker-end="url(#arrowA)"/>
  <path d="M 671.0,212.0 L 671.0,232.4 L 495.0,263.6 L 495.0,284.0" fill="none" stroke="#7c3aed" stroke-width="2.4" marker-end="url(#arrowA)"/>
  <path d="M 671.0,212.0 L 671.0,232.4 L 840.0,263.6 L 840.0,284.0" fill="none" stroke="#7c3aed" stroke-width="2.4" marker-end="url(#arrowA)"/>
  <path d="M 671.0,212.0 L 671.0,232.4 L 1171.0,263.6 L 1171.0,284.0" fill="none" stroke="#7c3aed" stroke-width="2.4" marker-end="url(#arrowA)"/>
  <path d="M 192.0,354.0 L 192.0,374.4 L 671.0,405.6 L 671.0,426.0" fill="none" stroke="#7c3aed" stroke-width="2.4" marker-end="url(#arrowA)"/>
  <path d="M 495.0,354.0 L 495.0,374.4 L 671.0,405.6 L 671.0,426.0" fill="none" stroke="#7c3aed" stroke-width="2.4" marker-end="url(#arrowA)"/>
  <path d="M 840.0,354.0 L 840.0,374.4 L 671.0,405.6 L 671.0,426.0" fill="none" stroke="#7c3aed" stroke-width="2.4" marker-end="url(#arrowA)"/>
  <path d="M 1171.0,354.0 L 1171.0,374.4 L 671.0,405.6 L 671.0,426.0" fill="none" stroke="#7c3aed" stroke-width="2.4" marker-end="url(#arrowA)"/>
  <path d="M 671.0,484.0 L 671.0,504.4 L 417.0,535.6 L 417.0,556.0" fill="none" stroke="#7c3aed" stroke-width="2.4" marker-end="url(#arrowA)"/>
  <path d="M 671.0,484.0 L 671.0,504.4 L 720.0,541.6 L 720.0,562.0" fill="none" stroke="#7c3aed" stroke-width="2.4" marker-end="url(#arrowA)"/>
  <path d="M 671.0,484.0 L 671.0,504.4 L 974.0,541.6 L 974.0,562.0" fill="none" stroke="#7c3aed" stroke-width="2.4" marker-end="url(#arrowA)"/>
  <rect x="563.5" y="154.0" width="215.0" height="58.0" rx="10.0" fill="#eff6ff" stroke="#bfdbfe" stroke-width="1.8"/>
  <text x="671.0" y="183.0" text-anchor="middle" class="node-title">workload_storage_intent</text>
  <rect x="60.0" y="284.0" width="264.0" height="70.0" rx="10.0" fill="#f0fdf4" stroke="#bbf7d0" stroke-width="1.8"/>
  <text x="192.0" y="319.0" text-anchor="middle" class="node-title">dataset_manifest</text>
  <text x="192.0" y="341.0" text-anchor="middle" class="node-sub">shards / lineage / permissions</text>
  <rect x="370.0" y="284.0" width="250.0" height="70.0" rx="10.0" fill="#fff7ed" stroke="#fed7aa" stroke-width="1.8"/>
  <text x="495.0" y="319.0" text-anchor="middle" class="node-title">checkpoint_manifest</text>
  <text x="495.0" y="341.0" text-anchor="middle" class="node-sub">commit / restore / retention</text>
  <rect x="666.0" y="284.0" width="348.0" height="70.0" rx="10.0" fill="#faf5ff" stroke="#e9d5ff" stroke-width="1.8"/>
  <text x="840.0" y="319.0" text-anchor="middle" class="node-title">model_artifact</text>
  <text x="840.0" y="341.0" text-anchor="middle" class="node-sub">distribution / digest / rollout / rollback</text>
  <rect x="1060.0" y="284.0" width="222.0" height="70.0" rx="10.0" fill="#f0fdfa" stroke="#99f6e4" stroke-width="1.8"/>
  <text x="1171.0" y="319.0" text-anchor="middle" class="node-title">cache_residency</text>
  <text x="1171.0" y="341.0" text-anchor="middle" class="node-sub">node / rack / pool state</text>
  <rect x="588.0" y="426.0" width="166.0" height="58.0" rx="10.0" fill="#f8fafc" stroke="#cbd5e1" stroke-width="1.8"/>
  <text x="671.0" y="455.0" text-anchor="middle" class="node-title">storage_evidence</text>
  <rect x="253.5" y="556.0" width="327.0" height="70.0" rx="10.0" fill="#eff6ff" stroke="#bfdbfe" stroke-width="1.8"/>
  <text x="417.0" y="591.0" text-anchor="middle" class="node-title">storage diagnosis</text>
  <text x="417.0" y="613.0" text-anchor="middle" class="node-sub">GPU idle / checkpoint slow / cold start</text>
  <rect x="626.5" y="562.0" width="187.0" height="58.0" rx="10.0" fill="#f0fdf4" stroke="#bbf7d0" stroke-width="1.8"/>
  <text x="720.0" y="591.0" text-anchor="middle" class="node-title">storage_cost_ledger</text>
  <rect x="859.5" y="562.0" width="229.0" height="58.0" rx="10.0" fill="#fff7ed" stroke="#fed7aa" stroke-width="1.8"/>
  <text x="974.0" y="591.0" text-anchor="middle" class="node-title">storage_acceptance_matrix</text>
  <text x="1062.0" y="746.0" class="footnote">Rendered with fireworks-tech-graph</text>
</svg>