<svg xmlns="http://www.w3.org/2000/svg" viewBox="0 0 1088 880" width="1088" height="880">
  <defs>
    <marker id="arrowA" markerWidth="10" markerHeight="7" refX="9" refY="3.5" orient="auto">
      <polygon points="0 0, 10 3.5, 0 7" fill="#7c3aed"/>
    </marker>
    <marker id="arrowB" markerWidth="10" markerHeight="7" refX="9" refY="3.5" orient="auto">
      <polygon points="0 0, 10 3.5, 0 7" fill="#10b981"/>
    </marker>
    <marker id="arrowC" markerWidth="10" markerHeight="7" refX="9" refY="3.5" orient="auto">
      <polygon points="0 0, 10 3.5, 0 7" fill="#2563eb"/>
    </marker>
    <marker id="arrowE" markerWidth="10" markerHeight="7" refX="9" refY="3.5" orient="auto">
      <polygon points="0 0, 10 3.5, 0 7" fill="#f97316"/>
    </marker>
    <marker id="arrowF" markerWidth="10" markerHeight="7" refX="9" refY="3.5" orient="auto">
      <polygon points="0 0, 10 3.5, 0 7" fill="#7c3aed"/>
    </marker>
    <marker id="arrowG" markerWidth="10" markerHeight="7" refX="9" refY="3.5" orient="auto">
      <polygon points="0 0, 10 3.5, 0 7" fill="#ef4444"/>
    </marker>
    <marker id="arrowH" markerWidth="10" markerHeight="7" refX="9" refY="3.5" orient="auto">
      <polygon points="0 0, 10 3.5, 0 7" fill="#6b7280"/>
    </marker>
    <filter id="shadowSoft" x="-20%" y="-20%" width="140%" height="160%">
      <feDropShadow dx="0" dy="3" stdDeviation="6" flood-color="#0f172a" flood-opacity="0.12"/>
    </filter>
    <filter id="shadowGlass" x="-20%" y="-20%" width="140%" height="160%">
      <feDropShadow dx="0" dy="10" stdDeviation="16" flood-color="#020617" flood-opacity="0.28"/>
    </filter>
    <style>
    text { font-family: 'Helvetica Neue', Helvetica, Arial, 'PingFang SC', 'Microsoft YaHei', 'Microsoft JhengHei', 'SimHei', sans-serif; }
    .title { font-size: 30px; font-weight: 700; fill: #111827; }
    .subtitle { font-size: 14px; font-weight: 500; fill: #6b7280; }
    .section { font-size: 13px; font-weight: 700; fill: #2563eb; letter-spacing: 1.4px; }
    .section-sub { font-size: 12px; font-weight: 500; fill: #94a3b8; }
    .node-title { font-size: 18px; font-weight: 700; fill: #111827; }
    .node-sub { font-size: 12px; font-weight: 500; fill: #6b7280; }
    .node-type { font-size: 12px; font-weight: 700; fill: #9ca3af; letter-spacing: 0.08em; }
    .arrow-label { font-size: 12px; font-weight: 600; fill: #6b7280; }
    .legend { font-size: 12px; font-weight: 500; fill: #6b7280; }
    .footnote { font-size: 12px; font-weight: 500; fill: #94a3b8; }
    </style>
  </defs>
  <rect width="1088.0" height="880.0" fill="#ffffff"/>
  <text x="544.0" y="56" text-anchor="middle" class="title">8.4.1 工程实现</text>
  <text x="544.0" y="82" text-anchor="middle" class="subtitle">part-02-platform/chapter-08-platform-observability.md:278</text>
  <path d="M 544.0,212.0 L 544.0,284.0" fill="none" stroke="#7c3aed" stroke-width="2.4" marker-end="url(#arrowA)"/>
  <path d="M 544.0,342.0 L 544.0,414.0" fill="none" stroke="#7c3aed" stroke-width="2.4" marker-end="url(#arrowA)"/>
  <path d="M 544.0,472.0 L 544.0,492.4 L 167.5,523.6 L 167.5,544.0" fill="none" stroke="#7c3aed" stroke-width="2.4" marker-end="url(#arrowA)"/>
  <path d="M 544.0,472.0 L 544.0,492.4 L 432.0,523.6 L 432.0,544.0" fill="none" stroke="#7c3aed" stroke-width="2.4" marker-end="url(#arrowA)"/>
  <path d="M 544.0,472.0 L 544.0,492.4 L 703.5,529.6 L 703.5,550.0" fill="none" stroke="#7c3aed" stroke-width="2.4" marker-end="url(#arrowA)"/>
  <path d="M 544.0,472.0 L 544.0,492.4 L 946.0,523.6 L 946.0,544.0" fill="none" stroke="#7c3aed" stroke-width="2.4" marker-end="url(#arrowA)"/>
  <path d="M 167.5,614.0 L 167.5,634.4 L 229.0,665.6 L 229.0,686.0" fill="none" stroke="#7c3aed" stroke-width="2.4" marker-end="url(#arrowA)"/>
  <path d="M 432.0,614.0 L 432.0,634.4 L 439.0,665.6 L 439.0,686.0" fill="none" stroke="#7c3aed" stroke-width="2.4" marker-end="url(#arrowA)"/>
  <path d="M 703.5,608.0 L 703.5,628.4 L 649.0,665.6 L 649.0,686.0" fill="none" stroke="#7c3aed" stroke-width="2.4" marker-end="url(#arrowA)"/>
  <path d="M 946.0,614.0 L 946.0,634.4 L 859.0,665.6 L 859.0,686.0" fill="none" stroke="#7c3aed" stroke-width="2.4" marker-end="url(#arrowA)"/>
  <rect x="462.0" y="154.0" width="164.0" height="58.0" rx="10.0" fill="#eff6ff" stroke="#bfdbfe" stroke-width="1.8"/>
  <text x="544.0" y="183.0" text-anchor="middle" class="node-title">用户反馈 / 告警</text>
  <rect x="461.0" y="284.0" width="166.0" height="58.0" rx="10.0" fill="#f0fdf4" stroke="#bbf7d0" stroke-width="1.8"/>
  <text x="544.0" y="313.0" text-anchor="middle" class="node-title">按 trace_id 查请求路径</text>
  <rect x="462.0" y="414.0" width="164.0" height="58.0" rx="10.0" fill="#fff7ed" stroke="#fed7aa" stroke-width="1.8"/>
  <text x="544.0" y="443.0" text-anchor="middle" class="node-title">定位异常阶段</text>
  <rect x="60.0" y="544.0" width="215.0" height="70.0" rx="10.0" fill="#faf5ff" stroke="#e9d5ff" stroke-width="1.8"/>
  <text x="167.5" y="579.0" text-anchor="middle" class="node-title">Gateway: policy / quota</text>
  <text x="167.5" y="601.0" text-anchor="middle" class="node-sub">route</text>
  <rect x="321.0" y="544.0" width="222.0" height="70.0" rx="10.0" fill="#f0fdfa" stroke="#99f6e4" stroke-width="1.8"/>
  <text x="432.0" y="579.0" text-anchor="middle" class="node-title">Serving: queue / prefill</text>
  <text x="432.0" y="601.0" text-anchor="middle" class="node-sub">decode</text>
  <rect x="589.0" y="550.0" width="229.0" height="58.0" rx="10.0" fill="#f8fafc" stroke="#cbd5e1" stroke-width="1.8"/>
  <text x="703.5" y="579.0" text-anchor="middle" class="node-title">Runtime: KV / batch / GPU</text>
  <rect x="864.0" y="544.0" width="164.0" height="70.0" rx="10.0" fill="#eff6ff" stroke="#bfdbfe" stroke-width="1.8"/>
  <text x="946.0" y="579.0" text-anchor="middle" class="node-title">Metering: usage</text>
  <text x="946.0" y="601.0" text-anchor="middle" class="node-sub">close reason</text>
  <rect x="147.0" y="686.0" width="164.0" height="58.0" rx="10.0" fill="#f0fdf4" stroke="#bbf7d0" stroke-width="1.8"/>
  <text x="229.0" y="715.0" text-anchor="middle" class="node-title">策略或配额修复</text>
  <rect x="357.0" y="686.0" width="164.0" height="58.0" rx="10.0" fill="#fff7ed" stroke="#fed7aa" stroke-width="1.8"/>
  <text x="439.0" y="715.0" text-anchor="middle" class="node-title">扩容 / 隔离 / 发布回滚</text>
  <rect x="567.0" y="686.0" width="164.0" height="58.0" rx="10.0" fill="#faf5ff" stroke="#e9d5ff" stroke-width="1.8"/>
  <text x="649.0" y="715.0" text-anchor="middle" class="node-title">引擎参数 / 节点隔离</text>
  <rect x="777.0" y="686.0" width="164.0" height="58.0" rx="10.0" fill="#f0fdfa" stroke="#99f6e4" stroke-width="1.8"/>
  <text x="859.0" y="715.0" text-anchor="middle" class="node-title">账单修正 / 事件补偿</text>
  <text x="808.0" y="864.0" class="footnote">Rendered with fireworks-tech-graph</text>
</svg>