<svg xmlns="http://www.w3.org/2000/svg" viewBox="0 0 2143 404" width="2143" height="404">
  <defs>
    <marker id="arrowA" markerWidth="10" markerHeight="7" refX="9" refY="3.5" orient="auto">
      <polygon points="0 0, 10 3.5, 0 7" fill="#7c3aed"/>
    </marker>
    <marker id="arrowB" markerWidth="10" markerHeight="7" refX="9" refY="3.5" orient="auto">
      <polygon points="0 0, 10 3.5, 0 7" fill="#10b981"/>
    </marker>
    <marker id="arrowC" markerWidth="10" markerHeight="7" refX="9" refY="3.5" orient="auto">
      <polygon points="0 0, 10 3.5, 0 7" fill="#2563eb"/>
    </marker>
    <marker id="arrowE" markerWidth="10" markerHeight="7" refX="9" refY="3.5" orient="auto">
      <polygon points="0 0, 10 3.5, 0 7" fill="#f97316"/>
    </marker>
    <marker id="arrowF" markerWidth="10" markerHeight="7" refX="9" refY="3.5" orient="auto">
      <polygon points="0 0, 10 3.5, 0 7" fill="#7c3aed"/>
    </marker>
    <marker id="arrowG" markerWidth="10" markerHeight="7" refX="9" refY="3.5" orient="auto">
      <polygon points="0 0, 10 3.5, 0 7" fill="#ef4444"/>
    </marker>
    <marker id="arrowH" markerWidth="10" markerHeight="7" refX="9" refY="3.5" orient="auto">
      <polygon points="0 0, 10 3.5, 0 7" fill="#6b7280"/>
    </marker>
    <filter id="shadowSoft" x="-20%" y="-20%" width="140%" height="160%">
      <feDropShadow dx="0" dy="3" stdDeviation="6" flood-color="#0f172a" flood-opacity="0.12"/>
    </filter>
    <filter id="shadowGlass" x="-20%" y="-20%" width="140%" height="160%">
      <feDropShadow dx="0" dy="10" stdDeviation="16" flood-color="#020617" flood-opacity="0.28"/>
    </filter>
    <style>
    text { font-family: 'Helvetica Neue', Helvetica, Arial, 'PingFang SC', 'Microsoft YaHei', 'Microsoft JhengHei', 'SimHei', sans-serif; }
    .title { font-size: 30px; font-weight: 700; fill: #111827; }
    .subtitle { font-size: 14px; font-weight: 500; fill: #6b7280; }
    .section { font-size: 13px; font-weight: 700; fill: #2563eb; letter-spacing: 1.4px; }
    .section-sub { font-size: 12px; font-weight: 500; fill: #94a3b8; }
    .node-title { font-size: 18px; font-weight: 700; fill: #111827; }
    .node-sub { font-size: 12px; font-weight: 500; fill: #6b7280; }
    .node-type { font-size: 12px; font-weight: 700; fill: #9ca3af; letter-spacing: 0.08em; }
    .arrow-label { font-size: 12px; font-weight: 600; fill: #6b7280; }
    .legend { font-size: 12px; font-weight: 500; fill: #6b7280; }
    .footnote { font-size: 12px; font-weight: 500; fill: #94a3b8; }
    </style>
  </defs>
  <rect width="2143.0" height="404.0" fill="#ffffff"/>
  <text x="1071.5" y="56" text-anchor="middle" class="title">2.4.1 工程实现</text>
  <text x="1071.5" y="82" text-anchor="middle" class="subtitle">part-01-applications/chapter-02-rag.md:467</text>
  <path d="M 318.0,155.0 L 390.0,155.0" fill="none" stroke="#7c3aed" stroke-width="2.4" marker-end="url(#arrowA)"/>
  <path d="M 626.0,155.0 L 646.4,155.0 L 702.1,161.0 L 722.5,161.0" fill="none" stroke="#7c3aed" stroke-width="2.4" marker-end="url(#arrowA)"/>
  <path d="M 909.5,161.0 L 929.9,161.0 L 985.6,217.0 L 1006.0,217.0" fill="none" stroke="#7c3aed" stroke-width="2.4" marker-end="url(#arrowA)"/>
  <path d="M 1200.0,217.0 L 1220.4,217.0 L 1251.6,211.0 L 1272.0,211.0" fill="none" stroke="#7c3aed" stroke-width="2.4" marker-end="url(#arrowA)"/>
  <path d="M 1466.0,211.0 L 1538.0,211.0" fill="none" stroke="#7c3aed" stroke-width="2.4" marker-end="url(#arrowA)"/>
  <path d="M 304.0,267.0 L 324.4,267.0 L 369.6,273.0 L 390.0,273.0" fill="none" stroke="#7c3aed" stroke-width="2.4" marker-end="url(#arrowA)"/>
  <path d="M 626.0,273.0 L 508.0,273.0 L 508.0,155.0 L 390.0,155.0" fill="none" stroke="#7c3aed" stroke-width="2.4" marker-end="url(#arrowA)"/>
  <path d="M 626.0,273.0 L 698.0,273.0" fill="none" stroke="#7c3aed" stroke-width="2.4" marker-end="url(#arrowA)"/>
  <path d="M 1767.0,211.0 L 1787.4,211.0 L 1818.6,217.0 L 1839.0,217.0" fill="none" stroke="#7c3aed" stroke-width="2.4" marker-end="url(#arrowA)"/>
  <rect x="96.0" y="126.0" width="222.0" height="58.0" rx="10.0" fill="#eff6ff" stroke="#bfdbfe" stroke-width="1.8"/>
  <text x="207.0" y="155.0" text-anchor="middle" class="node-title">document / ACL / lineage</text>
  <rect x="110.0" y="238.0" width="194.0" height="58.0" rx="10.0" fill="#eff6ff" stroke="#bfdbfe" stroke-width="1.8"/>
  <text x="207.0" y="267.0" text-anchor="middle" class="node-title">ACL or delete change</text>
  <rect x="390.0" y="126.0" width="236.0" height="58.0" rx="10.0" fill="#f0fdf4" stroke="#bbf7d0" stroke-width="1.8"/>
  <text x="508.0" y="155.0" text-anchor="middle" class="node-title">rag_index_release_contract</text>
  <rect x="390.0" y="238.0" width="236.0" height="70.0" rx="10.0" fill="#f0fdf4" stroke="#bbf7d0" stroke-width="1.8"/>
  <text x="508.0" y="273.0" text-anchor="middle" class="node-title">retrieval_acl_invalidation</text>
  <text x="508.0" y="295.0" text-anchor="middle" class="node-sub">event</text>
  <rect x="722.5" y="126.0" width="187.0" height="70.0" rx="10.0" fill="#fff7ed" stroke="#fed7aa" stroke-width="1.8"/>
  <text x="816.0" y="161.0" text-anchor="middle" class="node-title">rag_agent_admission</text>
  <text x="816.0" y="183.0" text-anchor="middle" class="node-sub">context</text>
  <rect x="698.0" y="238.0" width="236.0" height="70.0" rx="10.0" fill="#fff7ed" stroke="#fed7aa" stroke-width="1.8"/>
  <text x="816.0" y="273.0" text-anchor="middle" class="node-title">index / rerank</text>
  <text x="816.0" y="295.0" text-anchor="middle" class="node-sub">context cache invalidation</text>
  <rect x="1006.0" y="182.0" width="194.0" height="70.0" rx="10.0" fill="#faf5ff" stroke="#e9d5ff" stroke-width="1.8"/>
  <text x="1103.0" y="217.0" text-anchor="middle" class="node-title">retrieval_permission</text>
  <text x="1103.0" y="239.0" text-anchor="middle" class="node-sub">decision</text>
  <rect x="1272.0" y="182.0" width="194.0" height="58.0" rx="10.0" fill="#f0fdfa" stroke="#99f6e4" stroke-width="1.8"/>
  <text x="1369.0" y="211.0" text-anchor="middle" class="node-title">rag_context_snapshot</text>
  <rect x="1538.0" y="182.0" width="229.0" height="58.0" rx="10.0" fill="#f8fafc" stroke="#cbd5e1" stroke-width="1.8"/>
  <text x="1652.5" y="211.0" text-anchor="middle" class="node-title">rag_context_replay_bundle</text>
  <rect x="1839.0" y="182.0" width="208.0" height="70.0" rx="10.0" fill="#faf5ff" stroke="#e9d5ff" stroke-width="1.8"/>
  <text x="1943.0" y="217.0" text-anchor="middle" class="node-title">rag_quality_regression</text>
  <text x="1943.0" y="239.0" text-anchor="middle" class="node-sub">record</text>
  <text x="1863.0" y="388.0" class="footnote">Rendered with fireworks-tech-graph</text>
</svg>