<svg xmlns="http://www.w3.org/2000/svg" viewBox="0 0 1876 1058" width="1876" height="1058">
  <defs>
    <marker id="arrowA" markerWidth="10" markerHeight="7" refX="9" refY="3.5" orient="auto">
      <polygon points="0 0, 10 3.5, 0 7" fill="#7c3aed"/>
    </marker>
    <marker id="arrowB" markerWidth="10" markerHeight="7" refX="9" refY="3.5" orient="auto">
      <polygon points="0 0, 10 3.5, 0 7" fill="#10b981"/>
    </marker>
    <marker id="arrowC" markerWidth="10" markerHeight="7" refX="9" refY="3.5" orient="auto">
      <polygon points="0 0, 10 3.5, 0 7" fill="#2563eb"/>
    </marker>
    <marker id="arrowE" markerWidth="10" markerHeight="7" refX="9" refY="3.5" orient="auto">
      <polygon points="0 0, 10 3.5, 0 7" fill="#f97316"/>
    </marker>
    <marker id="arrowF" markerWidth="10" markerHeight="7" refX="9" refY="3.5" orient="auto">
      <polygon points="0 0, 10 3.5, 0 7" fill="#7c3aed"/>
    </marker>
    <marker id="arrowG" markerWidth="10" markerHeight="7" refX="9" refY="3.5" orient="auto">
      <polygon points="0 0, 10 3.5, 0 7" fill="#ef4444"/>
    </marker>
    <marker id="arrowH" markerWidth="10" markerHeight="7" refX="9" refY="3.5" orient="auto">
      <polygon points="0 0, 10 3.5, 0 7" fill="#6b7280"/>
    </marker>
    <filter id="shadowSoft" x="-20%" y="-20%" width="140%" height="160%">
      <feDropShadow dx="0" dy="3" stdDeviation="6" flood-color="#0f172a" flood-opacity="0.12"/>
    </filter>
    <filter id="shadowGlass" x="-20%" y="-20%" width="140%" height="160%">
      <feDropShadow dx="0" dy="10" stdDeviation="16" flood-color="#020617" flood-opacity="0.28"/>
    </filter>
    <style>
    text { font-family: 'Helvetica Neue', Helvetica, Arial, 'PingFang SC', 'Microsoft YaHei', 'Microsoft JhengHei', 'SimHei', sans-serif; }
    .title { font-size: 30px; font-weight: 700; fill: #111827; }
    .subtitle { font-size: 14px; font-weight: 500; fill: #6b7280; }
    .section { font-size: 13px; font-weight: 700; fill: #2563eb; letter-spacing: 1.4px; }
    .section-sub { font-size: 12px; font-weight: 500; fill: #94a3b8; }
    .node-title { font-size: 18px; font-weight: 700; fill: #111827; }
    .node-sub { font-size: 12px; font-weight: 500; fill: #6b7280; }
    .node-type { font-size: 12px; font-weight: 700; fill: #9ca3af; letter-spacing: 0.08em; }
    .arrow-label { font-size: 12px; font-weight: 600; fill: #6b7280; }
    .legend { font-size: 12px; font-weight: 500; fill: #6b7280; }
    .footnote { font-size: 12px; font-weight: 500; fill: #94a3b8; }
    </style>
  </defs>
  <rect width="1876.0" height="1058.0" fill="#ffffff"/>
  <text x="938.0" y="56" text-anchor="middle" class="title">39.2.2 系统架构</text>
  <text x="938.0" y="82" text-anchor="middle" class="subtitle">part-09-reliability-observability/chapter-39-troubleshooting.md:416</text>
  <path d="M 938.0,224.0 L 938.0,296.0" fill="none" stroke="#7c3aed" stroke-width="2.4" marker-end="url(#arrowA)"/>
  <path d="M 938.0,354.0 L 938.0,426.0" fill="none" stroke="#7c3aed" stroke-width="2.4" marker-end="url(#arrowA)"/>
  <path d="M 938.0,496.0 L 938.0,516.4 L 174.5,553.6 L 174.5,574.0" fill="none" stroke="#7c3aed" stroke-width="2.4" marker-end="url(#arrowA)"/>
  <path d="M 938.0,496.0 L 938.0,516.4 L 425.0,553.6 L 425.0,574.0" fill="none" stroke="#7c3aed" stroke-width="2.4" marker-end="url(#arrowA)"/>
  <path d="M 938.0,496.0 L 938.0,516.4 L 643.0,553.6 L 643.0,574.0" fill="none" stroke="#7c3aed" stroke-width="2.4" marker-end="url(#arrowA)"/>
  <path d="M 938.0,496.0 L 938.0,516.4 L 854.0,553.6 L 854.0,574.0" fill="none" stroke="#7c3aed" stroke-width="2.4" marker-end="url(#arrowA)"/>
  <path d="M 938.0,496.0 L 938.0,516.4 L 1073.0,553.6 L 1073.0,574.0" fill="none" stroke="#7c3aed" stroke-width="2.4" marker-end="url(#arrowA)"/>
  <path d="M 938.0,496.0 L 938.0,516.4 L 1291.0,547.6 L 1291.0,568.0" fill="none" stroke="#7c3aed" stroke-width="2.4" marker-end="url(#arrowA)"/>
  <path d="M 938.0,496.0 L 938.0,516.4 L 1512.5,553.6 L 1512.5,574.0" fill="none" stroke="#7c3aed" stroke-width="2.4" marker-end="url(#arrowA)"/>
  <path d="M 938.0,496.0 L 938.0,516.4 L 1734.0,553.6 L 1734.0,574.0" fill="none" stroke="#7c3aed" stroke-width="2.4" marker-end="url(#arrowA)"/>
  <path d="M 174.5,632.0 L 174.5,652.4 L 938.0,689.6 L 938.0,710.0" fill="none" stroke="#7c3aed" stroke-width="2.4" marker-end="url(#arrowA)"/>
  <path d="M 425.0,632.0 L 425.0,652.4 L 938.0,689.6 L 938.0,710.0" fill="none" stroke="#7c3aed" stroke-width="2.4" marker-end="url(#arrowA)"/>
  <path d="M 643.0,632.0 L 643.0,652.4 L 938.0,689.6 L 938.0,710.0" fill="none" stroke="#7c3aed" stroke-width="2.4" marker-end="url(#arrowA)"/>
  <path d="M 854.0,632.0 L 854.0,652.4 L 938.0,689.6 L 938.0,710.0" fill="none" stroke="#7c3aed" stroke-width="2.4" marker-end="url(#arrowA)"/>
  <path d="M 1073.0,632.0 L 1073.0,652.4 L 938.0,689.6 L 938.0,710.0" fill="none" stroke="#7c3aed" stroke-width="2.4" marker-end="url(#arrowA)"/>
  <path d="M 1291.0,638.0 L 1291.0,658.4 L 938.0,689.6 L 938.0,710.0" fill="none" stroke="#7c3aed" stroke-width="2.4" marker-end="url(#arrowA)"/>
  <path d="M 1512.5,632.0 L 1512.5,652.4 L 938.0,689.6 L 938.0,710.0" fill="none" stroke="#7c3aed" stroke-width="2.4" marker-end="url(#arrowA)"/>
  <path d="M 1734.0,632.0 L 1734.0,652.4 L 938.0,689.6 L 938.0,710.0" fill="none" stroke="#7c3aed" stroke-width="2.4" marker-end="url(#arrowA)"/>
  <path d="M 938.0,780.0 L 938.0,800.4 L 694.5,831.6 L 694.5,852.0" fill="none" stroke="#7c3aed" stroke-width="2.4" marker-end="url(#arrowA)"/>
  <path d="M 938.0,780.0 L 938.0,800.4 L 952.0,831.6 L 952.0,852.0" fill="none" stroke="#7c3aed" stroke-width="2.4" marker-end="url(#arrowA)"/>
  <path d="M 938.0,780.0 L 938.0,800.4 L 1195.5,831.6 L 1195.5,852.0" fill="none" stroke="#7c3aed" stroke-width="2.4" marker-end="url(#arrowA)"/>
  <rect x="827.0" y="154.0" width="222.0" height="70.0" rx="10.0" fill="#eff6ff" stroke="#bfdbfe" stroke-width="1.8"/>
  <text x="938.0" y="189.0" text-anchor="middle" class="node-title">communication regression</text>
  <text x="938.0" y="211.0" text-anchor="middle" class="node-sub">congestion signal</text>
  <rect x="823.5" y="296.0" width="229.0" height="58.0" rx="10.0" fill="#f0fdf4" stroke="#bbf7d0" stroke-width="1.8"/>
  <text x="938.0" y="325.0" text-anchor="middle" class="node-title">network_diagnostic_bundle</text>
  <rect x="837.5" y="426.0" width="201.0" height="70.0" rx="10.0" fill="#fff7ed" stroke="#fed7aa" stroke-width="1.8"/>
  <text x="938.0" y="461.0" text-anchor="middle" class="node-title">congestion_fault_tree</text>
  <text x="938.0" y="483.0" text-anchor="middle" class="node-sub">execution</text>
  <rect x="60.0" y="574.0" width="229.0" height="58.0" rx="10.0" fill="#faf5ff" stroke="#e9d5ff" stroke-width="1.8"/>
  <text x="174.5" y="603.0" text-anchor="middle" class="node-title">workload / rank placement</text>
  <rect x="335.0" y="574.0" width="180.0" height="58.0" rx="10.0" fill="#f0fdfa" stroke="#99f6e4" stroke-width="1.8"/>
  <text x="425.0" y="603.0" text-anchor="middle" class="node-title">fabric path / rail</text>
  <rect x="561.0" y="574.0" width="164.0" height="58.0" rx="10.0" fill="#f8fafc" stroke="#cbd5e1" stroke-width="1.8"/>
  <text x="643.0" y="603.0" text-anchor="middle" class="node-title">PFC / ECN / QoS</text>
  <rect x="771.0" y="574.0" width="166.0" height="58.0" rx="10.0" fill="#eff6ff" stroke="#bfdbfe" stroke-width="1.8"/>
  <text x="854.0" y="603.0" text-anchor="middle" class="node-title">RDMA / NIC stack</text>
  <rect x="983.0" y="574.0" width="180.0" height="58.0" rx="10.0" fill="#f0fdf4" stroke="#bbf7d0" stroke-width="1.8"/>
  <text x="1073.0" y="603.0" text-anchor="middle" class="node-title">NCCL / runtime env</text>
  <rect x="1209.0" y="568.0" width="164.0" height="70.0" rx="10.0" fill="#fff7ed" stroke="#fed7aa" stroke-width="1.8"/>
  <text x="1291.0" y="603.0" text-anchor="middle" class="node-title">checkpoint</text>
  <text x="1291.0" y="625.0" text-anchor="middle" class="node-sub">storage overlap</text>
  <rect x="1419.0" y="574.0" width="187.0" height="58.0" rx="10.0" fill="#faf5ff" stroke="#e9d5ff" stroke-width="1.8"/>
  <text x="1512.5" y="603.0" text-anchor="middle" class="node-title">concurrent workload</text>
  <rect x="1652.0" y="574.0" width="164.0" height="58.0" rx="10.0" fill="#f0fdfa" stroke="#99f6e4" stroke-width="1.8"/>
  <text x="1734.0" y="603.0" text-anchor="middle" class="node-title">telemetry gap</text>
  <rect x="855.0" y="710.0" width="166.0" height="70.0" rx="10.0" fill="#f8fafc" stroke="#cbd5e1" stroke-width="1.8"/>
  <text x="938.0" y="745.0" text-anchor="middle" class="node-title">action + owner +</text>
  <text x="938.0" y="767.0" text-anchor="middle" class="node-sub">confidence</text>
  <rect x="594.0" y="852.0" width="201.0" height="70.0" rx="10.0" fill="#eff6ff" stroke="#bfdbfe" stroke-width="1.8"/>
  <text x="694.5" y="887.0" text-anchor="middle" class="node-title">network_incident_cost</text>
  <text x="694.5" y="909.0" text-anchor="middle" class="node-sub">record</text>
  <rect x="841.0" y="852.0" width="222.0" height="70.0" rx="10.0" fill="#f0fdf4" stroke="#bbf7d0" stroke-width="1.8"/>
  <text x="952.0" y="887.0" text-anchor="middle" class="node-title">fabric_change_acceptance</text>
  <text x="952.0" y="909.0" text-anchor="middle" class="node-sub">matrix update</text>
  <rect x="1109.0" y="852.0" width="173.0" height="70.0" rx="10.0" fill="#fff7ed" stroke="#fed7aa" stroke-width="1.8"/>
  <text x="1195.5" y="887.0" text-anchor="middle" class="node-title">fabric_change_prr</text>
  <text x="1195.5" y="909.0" text-anchor="middle" class="node-sub">drill update</text>
  <text x="1596.0" y="1042.0" class="footnote">Rendered with fireworks-tech-graph</text>
</svg>