<svg xmlns="http://www.w3.org/2000/svg" viewBox="0 0 1498 1046" width="1498" height="1046">
  <defs>
    <marker id="arrowA" markerWidth="10" markerHeight="7" refX="9" refY="3.5" orient="auto">
      <polygon points="0 0, 10 3.5, 0 7" fill="#7c3aed"/>
    </marker>
    <marker id="arrowB" markerWidth="10" markerHeight="7" refX="9" refY="3.5" orient="auto">
      <polygon points="0 0, 10 3.5, 0 7" fill="#10b981"/>
    </marker>
    <marker id="arrowC" markerWidth="10" markerHeight="7" refX="9" refY="3.5" orient="auto">
      <polygon points="0 0, 10 3.5, 0 7" fill="#2563eb"/>
    </marker>
    <marker id="arrowE" markerWidth="10" markerHeight="7" refX="9" refY="3.5" orient="auto">
      <polygon points="0 0, 10 3.5, 0 7" fill="#f97316"/>
    </marker>
    <marker id="arrowF" markerWidth="10" markerHeight="7" refX="9" refY="3.5" orient="auto">
      <polygon points="0 0, 10 3.5, 0 7" fill="#7c3aed"/>
    </marker>
    <marker id="arrowG" markerWidth="10" markerHeight="7" refX="9" refY="3.5" orient="auto">
      <polygon points="0 0, 10 3.5, 0 7" fill="#ef4444"/>
    </marker>
    <marker id="arrowH" markerWidth="10" markerHeight="7" refX="9" refY="3.5" orient="auto">
      <polygon points="0 0, 10 3.5, 0 7" fill="#6b7280"/>
    </marker>
    <filter id="shadowSoft" x="-20%" y="-20%" width="140%" height="160%">
      <feDropShadow dx="0" dy="3" stdDeviation="6" flood-color="#0f172a" flood-opacity="0.12"/>
    </filter>
    <filter id="shadowGlass" x="-20%" y="-20%" width="140%" height="160%">
      <feDropShadow dx="0" dy="10" stdDeviation="16" flood-color="#020617" flood-opacity="0.28"/>
    </filter>
    <style>
    text { font-family: 'Helvetica Neue', Helvetica, Arial, 'PingFang SC', 'Microsoft YaHei', 'Microsoft JhengHei', 'SimHei', sans-serif; }
    .title { font-size: 30px; font-weight: 700; fill: #111827; }
    .subtitle { font-size: 14px; font-weight: 500; fill: #6b7280; }
    .section { font-size: 13px; font-weight: 700; fill: #2563eb; letter-spacing: 1.4px; }
    .section-sub { font-size: 12px; font-weight: 500; fill: #94a3b8; }
    .node-title { font-size: 18px; font-weight: 700; fill: #111827; }
    .node-sub { font-size: 12px; font-weight: 500; fill: #6b7280; }
    .node-type { font-size: 12px; font-weight: 700; fill: #9ca3af; letter-spacing: 0.08em; }
    .arrow-label { font-size: 12px; font-weight: 600; fill: #6b7280; }
    .legend { font-size: 12px; font-weight: 500; fill: #6b7280; }
    .footnote { font-size: 12px; font-weight: 500; fill: #94a3b8; }
    </style>
  </defs>
  <rect width="1498.0" height="1046.0" fill="#ffffff"/>
  <text x="749.0" y="56" text-anchor="middle" class="title">39.3.8 inference latency spike</text>
  <text x="749.0" y="82" text-anchor="middle" class="subtitle">part-09-reliability-observability/chapter-39-troubleshooting.md:1049</text>
  <path d="M 749.0,212.0 L 749.0,284.0" fill="none" stroke="#7c3aed" stroke-width="2.4" marker-end="url(#arrowA)"/>
  <path d="M 749.0,342.0 L 749.0,414.0" fill="none" stroke="#7c3aed" stroke-width="2.4" marker-end="url(#arrowA)"/>
  <path d="M 749.0,484.0 L 749.0,504.4 L 171.0,535.6 L 171.0,556.0" fill="none" stroke="#7c3aed" stroke-width="2.4" marker-end="url(#arrowA)"/>
  <path d="M 749.0,484.0 L 749.0,504.4 L 442.5,535.6 L 442.5,556.0" fill="none" stroke="#7c3aed" stroke-width="2.4" marker-end="url(#arrowA)"/>
  <path d="M 749.0,484.0 L 749.0,504.4 L 728.0,535.6 L 728.0,556.0" fill="none" stroke="#7c3aed" stroke-width="2.4" marker-end="url(#arrowA)"/>
  <path d="M 749.0,484.0 L 749.0,504.4 L 1038.0,535.6 L 1038.0,556.0" fill="none" stroke="#7c3aed" stroke-width="2.4" marker-end="url(#arrowA)"/>
  <path d="M 749.0,484.0 L 749.0,504.4 L 1330.5,535.6 L 1330.5,556.0" fill="none" stroke="#7c3aed" stroke-width="2.4" marker-end="url(#arrowA)"/>
  <path d="M 171.0,626.0 L 171.0,646.4 L 749.0,677.6 L 749.0,698.0" fill="none" stroke="#7c3aed" stroke-width="2.4" marker-end="url(#arrowA)"/>
  <path d="M 442.5,626.0 L 442.5,646.4 L 749.0,677.6 L 749.0,698.0" fill="none" stroke="#7c3aed" stroke-width="2.4" marker-end="url(#arrowA)"/>
  <path d="M 728.0,626.0 L 728.0,646.4 L 749.0,677.6 L 749.0,698.0" fill="none" stroke="#7c3aed" stroke-width="2.4" marker-end="url(#arrowA)"/>
  <path d="M 1038.0,626.0 L 1038.0,646.4 L 749.0,677.6 L 749.0,698.0" fill="none" stroke="#7c3aed" stroke-width="2.4" marker-end="url(#arrowA)"/>
  <path d="M 1330.5,626.0 L 1330.5,646.4 L 749.0,677.6 L 749.0,698.0" fill="none" stroke="#7c3aed" stroke-width="2.4" marker-end="url(#arrowA)"/>
  <path d="M 749.0,768.0 L 749.0,788.4 L 378.5,819.6 L 378.5,840.0" fill="none" stroke="#7c3aed" stroke-width="2.4" marker-end="url(#arrowA)"/>
  <path d="M 749.0,768.0 L 749.0,788.4 L 643.0,825.6 L 643.0,846.0" fill="none" stroke="#7c3aed" stroke-width="2.4" marker-end="url(#arrowA)"/>
  <path d="M 749.0,768.0 L 749.0,788.4 L 879.5,825.6 L 879.5,846.0" fill="none" stroke="#7c3aed" stroke-width="2.4" marker-end="url(#arrowA)"/>
  <path d="M 749.0,768.0 L 749.0,788.4 L 1123.0,825.6 L 1123.0,846.0" fill="none" stroke="#7c3aed" stroke-width="2.4" marker-end="url(#arrowA)"/>
  <rect x="645.0" y="154.0" width="208.0" height="58.0" rx="10.0" fill="#eff6ff" stroke="#bfdbfe" stroke-width="1.8"/>
  <text x="749.0" y="183.0" text-anchor="middle" class="node-title">security / spend alert</text>
  <rect x="638.0" y="284.0" width="222.0" height="58.0" rx="10.0" fill="#f0fdf4" stroke="#bbf7d0" stroke-width="1.8"/>
  <text x="749.0" y="313.0" text-anchor="middle" class="node-title">security_evidence_bundle</text>
  <rect x="631.0" y="414.0" width="236.0" height="70.0" rx="10.0" fill="#fff7ed" stroke="#fed7aa" stroke-width="1.8"/>
  <text x="749.0" y="449.0" text-anchor="middle" class="node-title">security_policy_fault_tree</text>
  <text x="749.0" y="471.0" text-anchor="middle" class="node-sub">execution</text>
  <rect x="60.0" y="556.0" width="222.0" height="70.0" rx="10.0" fill="#faf5ff" stroke="#e9d5ff" stroke-width="1.8"/>
  <text x="171.0" y="591.0" text-anchor="middle" class="node-title">credential</text>
  <text x="171.0" y="613.0" text-anchor="middle" class="node-sub">key / source / lifecycle</text>
  <rect x="328.0" y="556.0" width="229.0" height="70.0" rx="10.0" fill="#f0fdfa" stroke="#99f6e4" stroke-width="1.8"/>
  <text x="442.5" y="591.0" text-anchor="middle" class="node-title">gateway policy</text>
  <text x="442.5" y="613.0" text-anchor="middle" class="node-sub">version / dry-run / drift</text>
  <rect x="603.0" y="556.0" width="250.0" height="70.0" rx="10.0" fill="#f8fafc" stroke="#cbd5e1" stroke-width="1.8"/>
  <text x="728.0" y="591.0" text-anchor="middle" class="node-title">provider egress</text>
  <text x="728.0" y="613.0" text-anchor="middle" class="node-sub">contract / region / fallback</text>
  <rect x="899.0" y="556.0" width="278.0" height="70.0" rx="10.0" fill="#eff6ff" stroke="#bfdbfe" stroke-width="1.8"/>
  <text x="1038.0" y="591.0" text-anchor="middle" class="node-title">spend velocity</text>
  <text x="1038.0" y="613.0" text-anchor="middle" class="node-sub">context / provider / agent steps</text>
  <rect x="1223.0" y="556.0" width="215.0" height="70.0" rx="10.0" fill="#f0fdf4" stroke="#bbf7d0" stroke-width="1.8"/>
  <text x="1330.5" y="591.0" text-anchor="middle" class="node-title">trace export</text>
  <text x="1330.5" y="613.0" text-anchor="middle" class="node-sub">redaction / break-glass</text>
  <rect x="596.0" y="698.0" width="306.0" height="70.0" rx="10.0" fill="#fff7ed" stroke="#fed7aa" stroke-width="1.8"/>
  <text x="749.0" y="733.0" text-anchor="middle" class="node-title">containment</text>
  <text x="749.0" y="755.0" text-anchor="middle" class="node-sub">freeze key / route / export / budget</text>
  <rect x="264.0" y="840.0" width="229.0" height="70.0" rx="10.0" fill="#faf5ff" stroke="#e9d5ff" stroke-width="1.8"/>
  <text x="378.5" y="875.0" text-anchor="middle" class="node-title">denial_of_wallet_incident</text>
  <text x="378.5" y="897.0" text-anchor="middle" class="node-sub">record</text>
  <rect x="539.0" y="846.0" width="208.0" height="58.0" rx="10.0" fill="#f0fdfa" stroke="#99f6e4" stroke-width="1.8"/>
  <text x="643.0" y="875.0" text-anchor="middle" class="node-title">billing_dispute_replay</text>
  <rect x="793.0" y="846.0" width="173.0" height="58.0" rx="10.0" fill="#f8fafc" stroke="#cbd5e1" stroke-width="1.8"/>
  <text x="879.5" y="875.0" text-anchor="middle" class="node-title">abuse_cost_ledger</text>
  <rect x="1012.0" y="846.0" width="222.0" height="58.0" rx="10.0" fill="#eff6ff" stroke="#bfdbfe" stroke-width="1.8"/>
  <text x="1123.0" y="875.0" text-anchor="middle" class="node-title">security PRR gate update</text>
  <text x="1218.0" y="1030.0" class="footnote">Rendered with fireworks-tech-graph</text>
</svg>