<svg xmlns="http://www.w3.org/2000/svg" viewBox="0 0 1139 1058" width="1139" height="1058">
  <defs>
    <marker id="arrowA" markerWidth="10" markerHeight="7" refX="9" refY="3.5" orient="auto">
      <polygon points="0 0, 10 3.5, 0 7" fill="#7c3aed"/>
    </marker>
    <marker id="arrowB" markerWidth="10" markerHeight="7" refX="9" refY="3.5" orient="auto">
      <polygon points="0 0, 10 3.5, 0 7" fill="#10b981"/>
    </marker>
    <marker id="arrowC" markerWidth="10" markerHeight="7" refX="9" refY="3.5" orient="auto">
      <polygon points="0 0, 10 3.5, 0 7" fill="#2563eb"/>
    </marker>
    <marker id="arrowE" markerWidth="10" markerHeight="7" refX="9" refY="3.5" orient="auto">
      <polygon points="0 0, 10 3.5, 0 7" fill="#f97316"/>
    </marker>
    <marker id="arrowF" markerWidth="10" markerHeight="7" refX="9" refY="3.5" orient="auto">
      <polygon points="0 0, 10 3.5, 0 7" fill="#7c3aed"/>
    </marker>
    <marker id="arrowG" markerWidth="10" markerHeight="7" refX="9" refY="3.5" orient="auto">
      <polygon points="0 0, 10 3.5, 0 7" fill="#ef4444"/>
    </marker>
    <marker id="arrowH" markerWidth="10" markerHeight="7" refX="9" refY="3.5" orient="auto">
      <polygon points="0 0, 10 3.5, 0 7" fill="#6b7280"/>
    </marker>
    <filter id="shadowSoft" x="-20%" y="-20%" width="140%" height="160%">
      <feDropShadow dx="0" dy="3" stdDeviation="6" flood-color="#0f172a" flood-opacity="0.12"/>
    </filter>
    <filter id="shadowGlass" x="-20%" y="-20%" width="140%" height="160%">
      <feDropShadow dx="0" dy="10" stdDeviation="16" flood-color="#020617" flood-opacity="0.28"/>
    </filter>
    <style>
    text { font-family: 'Helvetica Neue', Helvetica, Arial, 'PingFang SC', 'Microsoft YaHei', 'Microsoft JhengHei', 'SimHei', sans-serif; }
    .title { font-size: 30px; font-weight: 700; fill: #111827; }
    .subtitle { font-size: 14px; font-weight: 500; fill: #6b7280; }
    .section { font-size: 13px; font-weight: 700; fill: #2563eb; letter-spacing: 1.4px; }
    .section-sub { font-size: 12px; font-weight: 500; fill: #94a3b8; }
    .node-title { font-size: 18px; font-weight: 700; fill: #111827; }
    .node-sub { font-size: 12px; font-weight: 500; fill: #6b7280; }
    .node-type { font-size: 12px; font-weight: 700; fill: #9ca3af; letter-spacing: 0.08em; }
    .arrow-label { font-size: 12px; font-weight: 600; fill: #6b7280; }
    .legend { font-size: 12px; font-weight: 500; fill: #6b7280; }
    .footnote { font-size: 12px; font-weight: 500; fill: #94a3b8; }
    </style>
  </defs>
  <rect width="1139.0" height="1058.0" fill="#ffffff"/>
  <text x="569.5" y="56" text-anchor="middle" class="title">37.3.9 distributed tracing</text>
  <text x="569.5" y="82" text-anchor="middle" class="subtitle">part-09-reliability-observability/chapter-37-ai-factory-observability.md:717</text>
  <path d="M 569.5,224.0 L 569.5,296.0" fill="none" stroke="#7c3aed" stroke-width="2.4" marker-end="url(#arrowA)"/>
  <path d="M 569.5,366.0 L 569.5,438.0" fill="none" stroke="#7c3aed" stroke-width="2.4" marker-end="url(#arrowA)"/>
  <path d="M 569.5,508.0 L 569.5,528.4 L 160.5,559.6 L 160.5,580.0" fill="none" stroke="#7c3aed" stroke-width="2.4" marker-end="url(#arrowA)"/>
  <path d="M 569.5,508.0 L 569.5,528.4 L 418.0,559.6 L 418.0,580.0" fill="none" stroke="#7c3aed" stroke-width="2.4" marker-end="url(#arrowA)"/>
  <path d="M 569.5,508.0 L 569.5,528.4 L 693.0,559.6 L 693.0,580.0" fill="none" stroke="#7c3aed" stroke-width="2.4" marker-end="url(#arrowA)"/>
  <path d="M 569.5,508.0 L 569.5,528.4 L 968.0,559.6 L 968.0,580.0" fill="none" stroke="#7c3aed" stroke-width="2.4" marker-end="url(#arrowA)"/>
  <path d="M 160.5,650.0 L 160.5,670.4 L 569.5,701.6 L 569.5,722.0" fill="none" stroke="#7c3aed" stroke-width="2.4" marker-end="url(#arrowA)"/>
  <path d="M 418.0,650.0 L 418.0,670.4 L 569.5,701.6 L 569.5,722.0" fill="none" stroke="#7c3aed" stroke-width="2.4" marker-end="url(#arrowA)"/>
  <path d="M 693.0,650.0 L 693.0,670.4 L 569.5,701.6 L 569.5,722.0" fill="none" stroke="#7c3aed" stroke-width="2.4" marker-end="url(#arrowA)"/>
  <path d="M 968.0,650.0 L 968.0,670.4 L 569.5,701.6 L 569.5,722.0" fill="none" stroke="#7c3aed" stroke-width="2.4" marker-end="url(#arrowA)"/>
  <path d="M 569.5,780.0 L 569.5,800.4 L 464.5,831.6 L 464.5,852.0" fill="none" stroke="#7c3aed" stroke-width="2.4" marker-end="url(#arrowA)"/>
  <path d="M 569.5,780.0 L 569.5,800.4 L 707.0,837.6 L 707.0,858.0" fill="none" stroke="#7c3aed" stroke-width="2.4" marker-end="url(#arrowA)"/>
  <rect x="388.5" y="154.0" width="362.0" height="70.0" rx="10.0" fill="#eff6ff" stroke="#bfdbfe" stroke-width="1.8"/>
  <text x="569.5" y="189.0" text-anchor="middle" class="node-title">contamination</text>
  <text x="569.5" y="211.0" text-anchor="middle" class="node-sub">judge drift / feedback gap / contract change</text>
  <rect x="479.5" y="296.0" width="180.0" height="70.0" rx="10.0" fill="#f0fdf4" stroke="#bbf7d0" stroke-width="1.8"/>
  <text x="569.5" y="331.0" text-anchor="middle" class="node-title">quality_evidence</text>
  <text x="569.5" y="353.0" text-anchor="middle" class="node-sub">invalidation_event</text>
  <rect x="486.5" y="438.0" width="166.0" height="70.0" rx="10.0" fill="#fff7ed" stroke="#fed7aa" stroke-width="1.8"/>
  <text x="569.5" y="473.0" text-anchor="middle" class="node-title">quality_evidence</text>
  <text x="569.5" y="495.0" text-anchor="middle" class="node-sub">dependency_graph</text>
  <rect x="60.0" y="580.0" width="201.0" height="70.0" rx="10.0" fill="#faf5ff" stroke="#e9d5ff" stroke-width="1.8"/>
  <text x="160.5" y="615.0" text-anchor="middle" class="node-title">affected quality_gate</text>
  <text x="160.5" y="637.0" text-anchor="middle" class="node-sub">execution</text>
  <rect x="307.0" y="580.0" width="222.0" height="70.0" rx="10.0" fill="#f0fdfa" stroke="#99f6e4" stroke-width="1.8"/>
  <text x="418.0" y="615.0" text-anchor="middle" class="node-title">affected serving_quality</text>
  <text x="418.0" y="637.0" text-anchor="middle" class="node-sub">contract</text>
  <rect x="575.0" y="580.0" width="236.0" height="70.0" rx="10.0" fill="#f8fafc" stroke="#cbd5e1" stroke-width="1.8"/>
  <text x="693.0" y="615.0" text-anchor="middle" class="node-title">affected online_experiment</text>
  <text x="693.0" y="637.0" text-anchor="middle" class="node-sub">guardrail</text>
  <rect x="857.0" y="580.0" width="222.0" height="70.0" rx="10.0" fill="#eff6ff" stroke="#bfdbfe" stroke-width="1.8"/>
  <text x="968.0" y="615.0" text-anchor="middle" class="node-title">affected routing_quality</text>
  <text x="968.0" y="637.0" text-anchor="middle" class="node-sub">scorecard</text>
  <rect x="462.0" y="722.0" width="215.0" height="58.0" rx="10.0" fill="#f0fdf4" stroke="#bbf7d0" stroke-width="1.8"/>
  <text x="569.5" y="751.0" text-anchor="middle" class="node-title">rerun / degrade / block</text>
  <rect x="350.0" y="852.0" width="229.0" height="70.0" rx="10.0" fill="#fff7ed" stroke="#fed7aa" stroke-width="1.8"/>
  <text x="464.5" y="887.0" text-anchor="middle" class="node-title">quality_evidence_validity</text>
  <text x="464.5" y="909.0" text-anchor="middle" class="node-sub">cost</text>
  <rect x="625.0" y="858.0" width="164.0" height="58.0" rx="10.0" fill="#faf5ff" stroke="#e9d5ff" stroke-width="1.8"/>
  <text x="707.0" y="887.0" text-anchor="middle" class="node-title">PRR gate update</text>
  <text x="859.0" y="1042.0" class="footnote">Rendered with fireworks-tech-graph</text>
</svg>