<svg xmlns="http://www.w3.org/2000/svg" viewBox="0 0 1142 892" width="1142" height="892">
  <defs>
    <marker id="arrowA" markerWidth="10" markerHeight="7" refX="9" refY="3.5" orient="auto">
      <polygon points="0 0, 10 3.5, 0 7" fill="#7c3aed"/>
    </marker>
    <marker id="arrowB" markerWidth="10" markerHeight="7" refX="9" refY="3.5" orient="auto">
      <polygon points="0 0, 10 3.5, 0 7" fill="#10b981"/>
    </marker>
    <marker id="arrowC" markerWidth="10" markerHeight="7" refX="9" refY="3.5" orient="auto">
      <polygon points="0 0, 10 3.5, 0 7" fill="#2563eb"/>
    </marker>
    <marker id="arrowE" markerWidth="10" markerHeight="7" refX="9" refY="3.5" orient="auto">
      <polygon points="0 0, 10 3.5, 0 7" fill="#f97316"/>
    </marker>
    <marker id="arrowF" markerWidth="10" markerHeight="7" refX="9" refY="3.5" orient="auto">
      <polygon points="0 0, 10 3.5, 0 7" fill="#7c3aed"/>
    </marker>
    <marker id="arrowG" markerWidth="10" markerHeight="7" refX="9" refY="3.5" orient="auto">
      <polygon points="0 0, 10 3.5, 0 7" fill="#ef4444"/>
    </marker>
    <marker id="arrowH" markerWidth="10" markerHeight="7" refX="9" refY="3.5" orient="auto">
      <polygon points="0 0, 10 3.5, 0 7" fill="#6b7280"/>
    </marker>
    <filter id="shadowSoft" x="-20%" y="-20%" width="140%" height="160%">
      <feDropShadow dx="0" dy="3" stdDeviation="6" flood-color="#0f172a" flood-opacity="0.12"/>
    </filter>
    <filter id="shadowGlass" x="-20%" y="-20%" width="140%" height="160%">
      <feDropShadow dx="0" dy="10" stdDeviation="16" flood-color="#020617" flood-opacity="0.28"/>
    </filter>
    <style>
    text { font-family: 'Helvetica Neue', Helvetica, Arial, 'PingFang SC', 'Microsoft YaHei', 'Microsoft JhengHei', 'SimHei', sans-serif; }
    .title { font-size: 30px; font-weight: 700; fill: #111827; }
    .subtitle { font-size: 14px; font-weight: 500; fill: #6b7280; }
    .section { font-size: 13px; font-weight: 700; fill: #2563eb; letter-spacing: 1.4px; }
    .section-sub { font-size: 12px; font-weight: 500; fill: #94a3b8; }
    .node-title { font-size: 18px; font-weight: 700; fill: #111827; }
    .node-sub { font-size: 12px; font-weight: 500; fill: #6b7280; }
    .node-type { font-size: 12px; font-weight: 700; fill: #9ca3af; letter-spacing: 0.08em; }
    .arrow-label { font-size: 12px; font-weight: 600; fill: #6b7280; }
    .legend { font-size: 12px; font-weight: 500; fill: #6b7280; }
    .footnote { font-size: 12px; font-weight: 500; fill: #94a3b8; }
    </style>
  </defs>
  <rect width="1142.0" height="892.0" fill="#ffffff"/>
  <text x="571.0" y="56" text-anchor="middle" class="title">34.2.2 系统架构</text>
  <text x="571.0" y="82" text-anchor="middle" class="subtitle">part-08-physical-infrastructure/chapter-34-gpu-server.md:66</text>
  <path d="M 236.5,212.0 L 236.5,232.4 L 361.0,263.6 L 361.0,284.0" fill="none" stroke="#7c3aed" stroke-width="2.4" marker-end="url(#arrowA)"/>
  <path d="M 451.0,212.0 L 451.0,232.4 L 571.0,269.6 L 571.0,290.0" fill="none" stroke="#7c3aed" stroke-width="2.4" marker-end="url(#arrowA)"/>
  <path d="M 680.5,212.0 L 680.5,232.4 L 571.0,269.6 L 571.0,290.0" fill="none" stroke="#7c3aed" stroke-width="2.4" marker-end="url(#arrowA)"/>
  <path d="M 905.5,212.0 L 905.5,232.4 L 781.0,269.6 L 781.0,290.0" fill="none" stroke="#6b7280" stroke-width="2.0"/>
  <path d="M 781.0,348.0 L 781.0,368.4 L 142.0,405.6 L 142.0,426.0" fill="none" stroke="#6b7280" stroke-width="2.0"/>
  <path d="M 142.0,484.0 L 142.0,504.4 L 461.5,541.6 L 461.5,562.0" fill="none" stroke="#6b7280" stroke-width="2.0"/>
  <path d="M 781.0,348.0 L 781.0,368.4 L 352.0,405.6 L 352.0,426.0" fill="none" stroke="#6b7280" stroke-width="2.0"/>
  <path d="M 781.0,348.0 L 781.0,368.4 L 562.0,405.6 L 562.0,426.0" fill="none" stroke="#6b7280" stroke-width="2.0"/>
  <path d="M 361.0,354.0 L 361.0,374.4 L 776.5,405.6 L 776.5,426.0" fill="none" stroke="#7c3aed" stroke-width="2.4" marker-end="url(#arrowA)"/>
  <path d="M 571.0,348.0 L 571.0,368.4 L 995.5,405.6 L 995.5,426.0" fill="none" stroke="#7c3aed" stroke-width="2.4" marker-end="url(#arrowA)"/>
  <path d="M 995.5,484.0 L 995.5,504.4 L 705.0,535.6 L 705.0,556.0" fill="none" stroke="#7c3aed" stroke-width="2.4" marker-end="url(#arrowA)"/>
  <path d="M 705.0,626.0 L 705.0,646.4 L 571.0,677.6 L 571.0,698.0" fill="none" stroke="#7c3aed" stroke-width="2.4" marker-end="url(#arrowA)"/>
  <path d="M 776.5,484.0 L 776.5,504.4 L 571.0,677.6 L 571.0,698.0" fill="none" stroke="#7c3aed" stroke-width="2.4" marker-end="url(#arrowA)"/>
  <rect x="154.5" y="154.0" width="164.0" height="58.0" rx="10.0" fill="#eff6ff" stroke="#bfdbfe" stroke-width="1.8"/>
  <text x="236.5" y="183.0" text-anchor="middle" class="node-title">BMC / Redfish</text>
  <rect x="364.5" y="154.0" width="173.0" height="58.0" rx="10.0" fill="#fff7ed" stroke="#fed7aa" stroke-width="1.8"/>
  <text x="451.0" y="183.0" text-anchor="middle" class="node-title">Power Shelf / PSU</text>
  <rect x="583.5" y="154.0" width="194.0" height="58.0" rx="10.0" fill="#f0fdfa" stroke="#99f6e4" stroke-width="1.8"/>
  <text x="680.5" y="183.0" text-anchor="middle" class="node-title">Fan / Liquid Cooling</text>
  <rect x="823.5" y="154.0" width="164.0" height="58.0" rx="10.0" fill="#f8fafc" stroke="#cbd5e1" stroke-width="1.8"/>
  <text x="905.5" y="183.0" text-anchor="middle" class="node-title">CPU / NUMA</text>
  <rect x="279.0" y="284.0" width="164.0" height="70.0" rx="10.0" fill="#f0fdf4" stroke="#bbf7d0" stroke-width="1.8"/>
  <text x="361.0" y="319.0" text-anchor="middle" class="node-title">Hardware Events</text>
  <text x="361.0" y="341.0" text-anchor="middle" class="node-sub">Health State</text>
  <rect x="489.0" y="290.0" width="164.0" height="58.0" rx="10.0" fill="#faf5ff" stroke="#e9d5ff" stroke-width="1.8"/>
  <text x="571.0" y="319.0" text-anchor="middle" class="node-title">GPU Server</text>
  <rect x="699.0" y="290.0" width="164.0" height="58.0" rx="10.0" fill="#eff6ff" stroke="#bfdbfe" stroke-width="1.8"/>
  <text x="781.0" y="319.0" text-anchor="middle" class="node-title">PCIe Fabric</text>
  <rect x="60.0" y="426.0" width="164.0" height="58.0" rx="10.0" fill="#f0fdf4" stroke="#bbf7d0" stroke-width="1.8"/>
  <text x="142.0" y="455.0" text-anchor="middle" class="node-title">GPU + HBM</text>
  <rect x="270.0" y="426.0" width="164.0" height="58.0" rx="10.0" fill="#faf5ff" stroke="#e9d5ff" stroke-width="1.8"/>
  <text x="352.0" y="455.0" text-anchor="middle" class="node-title">NIC / DPU</text>
  <rect x="480.0" y="426.0" width="164.0" height="58.0" rx="10.0" fill="#f0fdfa" stroke="#99f6e4" stroke-width="1.8"/>
  <text x="562.0" y="455.0" text-anchor="middle" class="node-title">Local NVMe</text>
  <rect x="690.0" y="426.0" width="173.0" height="58.0" rx="10.0" fill="#f8fafc" stroke="#cbd5e1" stroke-width="1.8"/>
  <text x="776.5" y="455.0" text-anchor="middle" class="node-title">GPU Resource Pool</text>
  <rect x="909.0" y="426.0" width="173.0" height="58.0" rx="10.0" fill="#eff6ff" stroke="#bfdbfe" stroke-width="1.8"/>
  <text x="995.5" y="455.0" text-anchor="middle" class="node-title">Driver / Firmware</text>
  <rect x="350.5" y="562.0" width="222.0" height="58.0" rx="10.0" fill="#fff7ed" stroke="#fed7aa" stroke-width="1.8"/>
  <text x="461.5" y="591.0" text-anchor="middle" class="node-title">NVLink / NVSwitch Domain</text>
  <rect x="618.5" y="556.0" width="173.0" height="70.0" rx="10.0" fill="#f0fdf4" stroke="#bbf7d0" stroke-width="1.8"/>
  <text x="705.0" y="591.0" text-anchor="middle" class="node-title">CUDA / NCCL</text>
  <text x="705.0" y="613.0" text-anchor="middle" class="node-sub">Container Runtime</text>
  <rect x="481.0" y="698.0" width="180.0" height="58.0" rx="10.0" fill="#fff7ed" stroke="#fed7aa" stroke-width="1.8"/>
  <text x="571.0" y="727.0" text-anchor="middle" class="node-title">Kubernetes / Slurm</text>
  <line x1="42.0" y1="854.0" x2="72.0" y2="854.0" stroke="#6b7280" stroke-width="2.4"/>
  <text x="82.0" y="858.0" class="legend">物理 / 拓扑连接</text>
  <text x="862.0" y="876.0" class="footnote">Rendered with fireworks-tech-graph</text>
</svg>