<svg xmlns="http://www.w3.org/2000/svg" viewBox="0 0 1293 1318" width="1293" height="1318">
  <defs>
    <marker id="arrowA" markerWidth="10" markerHeight="7" refX="9" refY="3.5" orient="auto">
      <polygon points="0 0, 10 3.5, 0 7" fill="#7c3aed"/>
    </marker>
    <marker id="arrowB" markerWidth="10" markerHeight="7" refX="9" refY="3.5" orient="auto">
      <polygon points="0 0, 10 3.5, 0 7" fill="#10b981"/>
    </marker>
    <marker id="arrowC" markerWidth="10" markerHeight="7" refX="9" refY="3.5" orient="auto">
      <polygon points="0 0, 10 3.5, 0 7" fill="#2563eb"/>
    </marker>
    <marker id="arrowE" markerWidth="10" markerHeight="7" refX="9" refY="3.5" orient="auto">
      <polygon points="0 0, 10 3.5, 0 7" fill="#f97316"/>
    </marker>
    <marker id="arrowF" markerWidth="10" markerHeight="7" refX="9" refY="3.5" orient="auto">
      <polygon points="0 0, 10 3.5, 0 7" fill="#7c3aed"/>
    </marker>
    <marker id="arrowG" markerWidth="10" markerHeight="7" refX="9" refY="3.5" orient="auto">
      <polygon points="0 0, 10 3.5, 0 7" fill="#ef4444"/>
    </marker>
    <marker id="arrowH" markerWidth="10" markerHeight="7" refX="9" refY="3.5" orient="auto">
      <polygon points="0 0, 10 3.5, 0 7" fill="#6b7280"/>
    </marker>
    <filter id="shadowSoft" x="-20%" y="-20%" width="140%" height="160%">
      <feDropShadow dx="0" dy="3" stdDeviation="6" flood-color="#0f172a" flood-opacity="0.12"/>
    </filter>
    <filter id="shadowGlass" x="-20%" y="-20%" width="140%" height="160%">
      <feDropShadow dx="0" dy="10" stdDeviation="16" flood-color="#020617" flood-opacity="0.28"/>
    </filter>
    <style>
    text { font-family: 'Helvetica Neue', Helvetica, Arial, 'PingFang SC', 'Microsoft YaHei', 'Microsoft JhengHei', 'SimHei', sans-serif; }
    .title { font-size: 30px; font-weight: 700; fill: #111827; }
    .subtitle { font-size: 14px; font-weight: 500; fill: #6b7280; }
    .section { font-size: 13px; font-weight: 700; fill: #2563eb; letter-spacing: 1.4px; }
    .section-sub { font-size: 12px; font-weight: 500; fill: #94a3b8; }
    .node-title { font-size: 18px; font-weight: 700; fill: #111827; }
    .node-sub { font-size: 12px; font-weight: 500; fill: #6b7280; }
    .node-type { font-size: 12px; font-weight: 700; fill: #9ca3af; letter-spacing: 0.08em; }
    .arrow-label { font-size: 12px; font-weight: 600; fill: #6b7280; }
    .legend { font-size: 12px; font-weight: 500; fill: #6b7280; }
    .footnote { font-size: 12px; font-weight: 500; fill: #94a3b8; }
    </style>
  </defs>
  <rect width="1293.0" height="1318.0" fill="#ffffff"/>
  <text x="646.5" y="56" text-anchor="middle" class="title">39.3.8 inference latency spike</text>
  <text x="646.5" y="82" text-anchor="middle" class="subtitle">part-09-reliability-observability/chapter-39-troubleshooting.md:1120</text>
  <path d="M 646.5,212.0 L 646.5,284.0" fill="none" stroke="#7c3aed" stroke-width="2.4" marker-end="url(#arrowA)"/>
  <path d="M 646.5,354.0 L 646.5,426.0" fill="none" stroke="#7c3aed" stroke-width="2.4" marker-end="url(#arrowA)"/>
  <path d="M 646.5,496.0 L 646.5,516.4 L 142.0,547.6 L 142.0,568.0" fill="none" stroke="#7c3aed" stroke-width="2.4" marker-end="url(#arrowA)"/>
  <path d="M 646.5,496.0 L 646.5,516.4 L 374.0,553.6 L 374.0,574.0" fill="none" stroke="#7c3aed" stroke-width="2.4" marker-end="url(#arrowA)"/>
  <path d="M 646.5,496.0 L 646.5,516.4 L 628.0,547.6 L 628.0,568.0" fill="none" stroke="#7c3aed" stroke-width="2.4" marker-end="url(#arrowA)"/>
  <path d="M 646.5,496.0 L 646.5,516.4 L 875.0,547.6 L 875.0,568.0" fill="none" stroke="#7c3aed" stroke-width="2.4" marker-end="url(#arrowA)"/>
  <path d="M 646.5,496.0 L 646.5,516.4 L 1125.5,553.6 L 1125.5,574.0" fill="none" stroke="#7c3aed" stroke-width="2.4" marker-end="url(#arrowA)"/>
  <path d="M 142.0,638.0 L 142.0,658.4 L 646.5,689.6 L 646.5,710.0" fill="none" stroke="#7c3aed" stroke-width="2.4" marker-end="url(#arrowA)"/>
  <path d="M 374.0,632.0 L 374.0,652.4 L 646.5,689.6 L 646.5,710.0" fill="none" stroke="#7c3aed" stroke-width="2.4" marker-end="url(#arrowA)"/>
  <path d="M 628.0,638.0 L 628.0,658.4 L 646.5,689.6 L 646.5,710.0" fill="none" stroke="#7c3aed" stroke-width="2.4" marker-end="url(#arrowA)"/>
  <path d="M 875.0,638.0 L 875.0,658.4 L 646.5,689.6 L 646.5,710.0" fill="none" stroke="#7c3aed" stroke-width="2.4" marker-end="url(#arrowA)"/>
  <path d="M 1125.5,632.0 L 1125.5,652.4 L 646.5,689.6 L 646.5,710.0" fill="none" stroke="#7c3aed" stroke-width="2.4" marker-end="url(#arrowA)"/>
  <path d="M 646.5,768.0 L 646.5,840.0" fill="none" stroke="#7c3aed" stroke-width="2.4" marker-end="url(#arrowA)"/>
  <path d="M 646.5,910.0 L 646.5,930.4 L 516.0,961.6 L 516.0,982.0" fill="none" stroke="#7c3aed" stroke-width="2.4" marker-end="url(#arrowA)"/>
  <path d="M 646.5,910.0 L 646.5,930.4 L 770.0,967.6 L 770.0,988.0" fill="none" stroke="#7c3aed" stroke-width="2.4" marker-end="url(#arrowA)"/>
  <path d="M 516.0,1052.0 L 516.0,1072.4 L 646.5,1103.6 L 646.5,1124.0" fill="none" stroke="#7c3aed" stroke-width="2.4" marker-end="url(#arrowA)"/>
  <rect x="546.0" y="154.0" width="201.0" height="58.0" rx="10.0" fill="#eff6ff" stroke="#bfdbfe" stroke-width="1.8"/>
  <text x="646.5" y="183.0" text-anchor="middle" class="node-title">GPU container symptom</text>
  <rect x="535.5" y="284.0" width="222.0" height="70.0" rx="10.0" fill="#f0fdf4" stroke="#bbf7d0" stroke-width="1.8"/>
  <text x="646.5" y="319.0" text-anchor="middle" class="node-title">recent container_runtime</text>
  <text x="646.5" y="341.0" text-anchor="middle" class="node-sub">change_record?</text>
  <rect x="500.5" y="426.0" width="292.0" height="70.0" rx="10.0" fill="#fff7ed" stroke="#fed7aa" stroke-width="1.8"/>
  <text x="646.5" y="461.0" text-anchor="middle" class="node-title">collect runtime config</text>
  <text x="646.5" y="483.0" text-anchor="middle" class="node-sub">OCI diff / assignment / visibility</text>
  <rect x="60.0" y="568.0" width="164.0" height="70.0" rx="10.0" fill="#faf5ff" stroke="#e9d5ff" stroke-width="1.8"/>
  <text x="142.0" y="603.0" text-anchor="middle" class="node-title">runtime handler</text>
  <text x="142.0" y="625.0" text-anchor="middle" class="node-sub">RuntimeClass</text>
  <rect x="270.0" y="574.0" width="208.0" height="58.0" rx="10.0" fill="#f0fdfa" stroke="#99f6e4" stroke-width="1.8"/>
  <text x="374.0" y="603.0" text-anchor="middle" class="node-title">CDI spec / NVIDIA hook</text>
  <rect x="524.0" y="568.0" width="208.0" height="70.0" rx="10.0" fill="#f8fafc" stroke="#cbd5e1" stroke-width="1.8"/>
  <text x="628.0" y="603.0" text-anchor="middle" class="node-title">device plugin strategy</text>
  <text x="628.0" y="625.0" text-anchor="middle" class="node-sub">Allocate</text>
  <rect x="778.0" y="568.0" width="194.0" height="70.0" rx="10.0" fill="#eff6ff" stroke="#bfdbfe" stroke-width="1.8"/>
  <text x="875.0" y="603.0" text-anchor="middle" class="node-title">container visibility</text>
  <text x="875.0" y="625.0" text-anchor="middle" class="node-sub">reconciliation</text>
  <rect x="1018.0" y="574.0" width="215.0" height="58.0" rx="10.0" fill="#f0fdf4" stroke="#bbf7d0" stroke-width="1.8"/>
  <text x="1125.5" y="603.0" text-anchor="middle" class="node-title">RDMA + GPU/NIC topology</text>
  <rect x="532.0" y="710.0" width="229.0" height="58.0" rx="10.0" fill="#fff7ed" stroke="#fed7aa" stroke-width="1.8"/>
  <text x="646.5" y="739.0" text-anchor="middle" class="node-title">fault domain + confidence</text>
  <rect x="539.0" y="840.0" width="215.0" height="70.0" rx="10.0" fill="#faf5ff" stroke="#e9d5ff" stroke-width="1.8"/>
  <text x="646.5" y="875.0" text-anchor="middle" class="node-title">cordon / rollback</text>
  <text x="646.5" y="897.0" text-anchor="middle" class="node-sub">regenerate CDI / retest</text>
  <rect x="415.5" y="982.0" width="201.0" height="70.0" rx="10.0" fill="#f0fdfa" stroke="#99f6e4" stroke-width="1.8"/>
  <text x="516.0" y="1017.0" text-anchor="middle" class="node-title">baseline invalidation</text>
  <text x="516.0" y="1039.0" text-anchor="middle" class="node-sub">refresh</text>
  <rect x="662.5" y="988.0" width="215.0" height="58.0" rx="10.0" fill="#f8fafc" stroke="#cbd5e1" stroke-width="1.8"/>
  <text x="770.0" y="1017.0" text-anchor="middle" class="node-title">reliability_cost_ledger</text>
  <rect x="528.5" y="1124.0" width="236.0" height="58.0" rx="10.0" fill="#eff6ff" stroke="#bfdbfe" stroke-width="1.8"/>
  <text x="646.5" y="1153.0" text-anchor="middle" class="node-title">container runtime PRR gate</text>
  <text x="1013.0" y="1302.0" class="footnote">Rendered with fireworks-tech-graph</text>
</svg>