<svg xmlns="http://www.w3.org/2000/svg" viewBox="0 0 960 1306" width="960" height="1306">
  <defs>
    <marker id="arrowA" markerWidth="10" markerHeight="7" refX="9" refY="3.5" orient="auto">
      <polygon points="0 0, 10 3.5, 0 7" fill="#7c3aed"/>
    </marker>
    <marker id="arrowB" markerWidth="10" markerHeight="7" refX="9" refY="3.5" orient="auto">
      <polygon points="0 0, 10 3.5, 0 7" fill="#10b981"/>
    </marker>
    <marker id="arrowC" markerWidth="10" markerHeight="7" refX="9" refY="3.5" orient="auto">
      <polygon points="0 0, 10 3.5, 0 7" fill="#2563eb"/>
    </marker>
    <marker id="arrowE" markerWidth="10" markerHeight="7" refX="9" refY="3.5" orient="auto">
      <polygon points="0 0, 10 3.5, 0 7" fill="#f97316"/>
    </marker>
    <marker id="arrowF" markerWidth="10" markerHeight="7" refX="9" refY="3.5" orient="auto">
      <polygon points="0 0, 10 3.5, 0 7" fill="#7c3aed"/>
    </marker>
    <marker id="arrowG" markerWidth="10" markerHeight="7" refX="9" refY="3.5" orient="auto">
      <polygon points="0 0, 10 3.5, 0 7" fill="#ef4444"/>
    </marker>
    <marker id="arrowH" markerWidth="10" markerHeight="7" refX="9" refY="3.5" orient="auto">
      <polygon points="0 0, 10 3.5, 0 7" fill="#6b7280"/>
    </marker>
    <filter id="shadowSoft" x="-20%" y="-20%" width="140%" height="160%">
      <feDropShadow dx="0" dy="3" stdDeviation="6" flood-color="#0f172a" flood-opacity="0.12"/>
    </filter>
    <filter id="shadowGlass" x="-20%" y="-20%" width="140%" height="160%">
      <feDropShadow dx="0" dy="10" stdDeviation="16" flood-color="#020617" flood-opacity="0.28"/>
    </filter>
    <style>
    text { font-family: 'Helvetica Neue', Helvetica, Arial, 'PingFang SC', 'Microsoft YaHei', 'Microsoft JhengHei', 'SimHei', sans-serif; }
    .title { font-size: 30px; font-weight: 700; fill: #111827; }
    .subtitle { font-size: 14px; font-weight: 500; fill: #6b7280; }
    .section { font-size: 13px; font-weight: 700; fill: #2563eb; letter-spacing: 1.4px; }
    .section-sub { font-size: 12px; font-weight: 500; fill: #94a3b8; }
    .node-title { font-size: 18px; font-weight: 700; fill: #111827; }
    .node-sub { font-size: 12px; font-weight: 500; fill: #6b7280; }
    .node-type { font-size: 12px; font-weight: 700; fill: #9ca3af; letter-spacing: 0.08em; }
    .arrow-label { font-size: 12px; font-weight: 600; fill: #6b7280; }
    .legend { font-size: 12px; font-weight: 500; fill: #6b7280; }
    .footnote { font-size: 12px; font-weight: 500; fill: #94a3b8; }
    </style>
  </defs>
  <rect width="960.0" height="1306.0" fill="#ffffff"/>
  <text x="480.0" y="56" text-anchor="middle" class="title">18.2.2 系统架构</text>
  <text x="480.0" y="82" text-anchor="middle" class="subtitle">part-04-runtime/chapter-18-collective-communication.md:93</text>
  <path d="M 346.0,218.0 L 346.0,238.4 L 480.0,275.6 L 480.0,296.0" fill="none" stroke="#7c3aed" stroke-width="2.4" marker-end="url(#arrowA)"/>
  <path d="M 480.0,354.0 L 480.0,426.0" fill="none" stroke="#7c3aed" stroke-width="2.4" marker-end="url(#arrowA)"/>
  <path d="M 480.0,484.0 L 480.0,556.0" fill="none" stroke="#7c3aed" stroke-width="2.4" marker-end="url(#arrowA)"/>
  <path d="M 480.0,614.0 L 480.0,634.4 L 346.0,665.6 L 346.0,686.0" fill="none" stroke="#7c3aed" stroke-width="2.4" marker-end="url(#arrowA)"/>
  <path d="M 610.5,224.0 L 610.5,244.4 L 607.0,665.6 L 607.0,686.0" fill="none" stroke="#7c3aed" stroke-width="2.4" marker-end="url(#arrowA)"/>
  <path d="M 480.0,614.0 L 480.0,634.4 L 607.0,665.6 L 607.0,686.0" fill="none" stroke="#7c3aed" stroke-width="2.4" marker-end="url(#arrowA)"/>
  <path d="M 607.0,756.0 L 607.0,776.4 L 480.0,807.6 L 480.0,828.0" fill="none" stroke="#7c3aed" stroke-width="2.4" marker-end="url(#arrowA)"/>
  <path d="M 346.0,756.0 L 346.0,776.4 L 480.0,807.6 L 480.0,828.0" fill="none" stroke="#7c3aed" stroke-width="2.4" marker-end="url(#arrowA)"/>
  <path d="M 480.0,898.0 L 480.0,970.0" fill="none" stroke="#7c3aed" stroke-width="2.4" marker-end="url(#arrowA)"/>
  <path d="M 480.0,1028.0 L 480.0,1100.0" fill="none" stroke="#7c3aed" stroke-width="2.4" marker-end="url(#arrowA)"/>
  <rect x="238.5" y="160.0" width="215.0" height="58.0" rx="10.0" fill="#eff6ff" stroke="#bfdbfe" stroke-width="1.8"/>
  <text x="346.0" y="189.0" text-anchor="middle" class="node-title">parallelism_plan_record</text>
  <rect x="499.5" y="154.0" width="222.0" height="70.0" rx="10.0" fill="#f8fafc" stroke="#cbd5e1" stroke-width="1.8"/>
  <text x="610.5" y="189.0" text-anchor="middle" class="node-title">fabric</text>
  <text x="610.5" y="211.0" text-anchor="middle" class="node-sub">baseline / NCCL baseline</text>
  <rect x="376.0" y="296.0" width="208.0" height="58.0" rx="10.0" fill="#f0fdf4" stroke="#bbf7d0" stroke-width="1.8"/>
  <text x="480.0" y="325.0" text-anchor="middle" class="node-title">rank_topology_contract</text>
  <rect x="393.5" y="426.0" width="173.0" height="58.0" rx="10.0" fill="#fff7ed" stroke="#fed7aa" stroke-width="1.8"/>
  <text x="480.0" y="455.0" text-anchor="middle" class="node-title">nccl_env_contract</text>
  <rect x="372.5" y="556.0" width="215.0" height="58.0" rx="10.0" fill="#faf5ff" stroke="#e9d5ff" stroke-width="1.8"/>
  <text x="480.0" y="585.0" text-anchor="middle" class="node-title">collective_trace_record</text>
  <rect x="242.0" y="686.0" width="208.0" height="70.0" rx="10.0" fill="#f0fdfa" stroke="#99f6e4" stroke-width="1.8"/>
  <text x="346.0" y="721.0" text-anchor="middle" class="node-title">communication_critical</text>
  <text x="346.0" y="743.0" text-anchor="middle" class="node-sub">path_record</text>
  <rect x="496.0" y="686.0" width="222.0" height="70.0" rx="10.0" fill="#eff6ff" stroke="#bfdbfe" stroke-width="1.8"/>
  <text x="607.0" y="721.0" text-anchor="middle" class="node-title">communication_regression</text>
  <text x="607.0" y="743.0" text-anchor="middle" class="node-sub">record</text>
  <rect x="369.0" y="828.0" width="222.0" height="70.0" rx="10.0" fill="#f0fdf4" stroke="#bbf7d0" stroke-width="1.8"/>
  <text x="480.0" y="863.0" text-anchor="middle" class="node-title">communication_diagnostic</text>
  <text x="480.0" y="885.0" text-anchor="middle" class="node-sub">bundle</text>
  <rect x="369.0" y="970.0" width="222.0" height="58.0" rx="10.0" fill="#fff7ed" stroke="#fed7aa" stroke-width="1.8"/>
  <text x="480.0" y="999.0" text-anchor="middle" class="node-title">training_incident_record</text>
  <rect x="341.0" y="1100.0" width="278.0" height="70.0" rx="10.0" fill="#faf5ff" stroke="#e9d5ff" stroke-width="1.8"/>
  <text x="480.0" y="1135.0" text-anchor="middle" class="node-title">training_roi</text>
  <text x="480.0" y="1157.0" text-anchor="middle" class="node-sub">ledger / reliability_cost_ledger</text>
  <text x="680.0" y="1290.0" class="footnote">Rendered with fireworks-tech-graph</text>
</svg>