<svg xmlns="http://www.w3.org/2000/svg" viewBox="0 0 1226 698" width="1226" height="698">
  <defs>
    <marker id="arrowA" markerWidth="10" markerHeight="7" refX="9" refY="3.5" orient="auto">
      <polygon points="0 0, 10 3.5, 0 7" fill="#7c3aed"/>
    </marker>
    <marker id="arrowB" markerWidth="10" markerHeight="7" refX="9" refY="3.5" orient="auto">
      <polygon points="0 0, 10 3.5, 0 7" fill="#10b981"/>
    </marker>
    <marker id="arrowC" markerWidth="10" markerHeight="7" refX="9" refY="3.5" orient="auto">
      <polygon points="0 0, 10 3.5, 0 7" fill="#2563eb"/>
    </marker>
    <marker id="arrowE" markerWidth="10" markerHeight="7" refX="9" refY="3.5" orient="auto">
      <polygon points="0 0, 10 3.5, 0 7" fill="#f97316"/>
    </marker>
    <marker id="arrowF" markerWidth="10" markerHeight="7" refX="9" refY="3.5" orient="auto">
      <polygon points="0 0, 10 3.5, 0 7" fill="#7c3aed"/>
    </marker>
    <marker id="arrowG" markerWidth="10" markerHeight="7" refX="9" refY="3.5" orient="auto">
      <polygon points="0 0, 10 3.5, 0 7" fill="#ef4444"/>
    </marker>
    <marker id="arrowH" markerWidth="10" markerHeight="7" refX="9" refY="3.5" orient="auto">
      <polygon points="0 0, 10 3.5, 0 7" fill="#6b7280"/>
    </marker>
    <filter id="shadowSoft" x="-20%" y="-20%" width="140%" height="160%">
      <feDropShadow dx="0" dy="3" stdDeviation="6" flood-color="#0f172a" flood-opacity="0.12"/>
    </filter>
    <filter id="shadowGlass" x="-20%" y="-20%" width="140%" height="160%">
      <feDropShadow dx="0" dy="10" stdDeviation="16" flood-color="#020617" flood-opacity="0.28"/>
    </filter>
    <style>
    text { font-family: 'Helvetica Neue', Helvetica, Arial, 'PingFang SC', 'Microsoft YaHei', 'Microsoft JhengHei', 'SimHei', sans-serif; }
    .title { font-size: 30px; font-weight: 700; fill: #111827; }
    .subtitle { font-size: 14px; font-weight: 500; fill: #6b7280; }
    .section { font-size: 13px; font-weight: 700; fill: #2563eb; letter-spacing: 1.4px; }
    .section-sub { font-size: 12px; font-weight: 500; fill: #94a3b8; }
    .node-title { font-size: 18px; font-weight: 700; fill: #111827; }
    .node-sub { font-size: 12px; font-weight: 500; fill: #6b7280; }
    .node-type { font-size: 12px; font-weight: 700; fill: #9ca3af; letter-spacing: 0.08em; }
    .arrow-label { font-size: 12px; font-weight: 600; fill: #6b7280; }
    .legend { font-size: 12px; font-weight: 500; fill: #6b7280; }
    .footnote { font-size: 12px; font-weight: 500; fill: #94a3b8; }
    </style>
  </defs>
  <rect width="1226.0" height="698.0" fill="#ffffff"/>
  <text x="613.0" y="56" text-anchor="middle" class="title">15.4.1 工程实现</text>
  <text x="613.0" y="82" text-anchor="middle" class="subtitle">part-04-runtime/chapter-15-inference-engines.md:556</text>
  <path d="M 290.0,323.0 L 362.0,323.0" fill="none" stroke="#7c3aed" stroke-width="2.4" marker-end="url(#arrowA)"/>
  <path d="M 535.0,323.0 L 555.4,323.0 L 604.1,267.0 L 624.5,267.0" fill="none" stroke="#7c3aed" stroke-width="2.4" marker-end="url(#arrowA)"/>
  <path d="M 535.0,323.0 L 555.4,323.0 L 586.6,385.0 L 607.0,385.0" fill="none" stroke="#7c3aed" stroke-width="2.4" marker-end="url(#arrowA)"/>
  <path d="M 822.0,385.0 L 842.4,385.0 L 898.1,161.0 L 918.5,161.0" fill="none" stroke="#7c3aed" stroke-width="2.4" marker-end="url(#arrowA)"/>
  <path d="M 822.0,385.0 L 842.4,385.0 L 901.6,273.0 L 922.0,273.0" fill="none" stroke="#7c3aed" stroke-width="2.4" marker-end="url(#arrowA)"/>
  <path d="M 822.0,385.0 L 842.4,385.0 L 873.6,379.0 L 894.0,379.0" fill="none" stroke="#7c3aed" stroke-width="2.4" marker-end="url(#arrowA)"/>
  <path d="M 822.0,385.0 L 842.4,385.0 L 898.1,497.0 L 918.5,497.0" fill="none" stroke="#7c3aed" stroke-width="2.4" marker-end="url(#arrowA)"/>
  <rect x="96.0" y="294.0" width="194.0" height="58.0" rx="10.0" fill="#eff6ff" stroke="#bfdbfe" stroke-width="1.8"/>
  <text x="193.0" y="323.0" text-anchor="middle" class="node-title">engine_canary_record</text>
  <rect x="362.0" y="294.0" width="173.0" height="58.0" rx="10.0" fill="#fff7ed" stroke="#fdba74" stroke-width="2.0"/>
  <rect x="368.0" y="300.0" width="161.0" height="46.0" rx="7.0" fill="none" stroke="#fdba74" stroke-width="1.2" opacity="0.65"/>
  <text x="448.5" y="312.0" text-anchor="middle" class="node-type">DECISION</text>
  <text x="448.5" y="329.0" text-anchor="middle" class="node-title">guardrail breach?</text>
  <rect x="624.5" y="238.0" width="180.0" height="58.0" rx="10.0" fill="#fff7ed" stroke="#fed7aa" stroke-width="1.8"/>
  <text x="714.5" y="267.0" text-anchor="middle" class="node-title">continue / promote</text>
  <rect x="607.0" y="350.0" width="215.0" height="70.0" rx="10.0" fill="#faf5ff" stroke="#e9d5ff" stroke-width="1.8"/>
  <text x="714.5" y="385.0" text-anchor="middle" class="node-title">engine_canary_guardrail</text>
  <text x="714.5" y="407.0" text-anchor="middle" class="node-sub">action</text>
  <rect x="918.5" y="126.0" width="187.0" height="70.0" rx="10.0" fill="#f0fdfa" stroke="#99f6e4" stroke-width="1.8"/>
  <text x="1012.0" y="161.0" text-anchor="middle" class="node-title">patch Gateway route</text>
  <text x="1012.0" y="183.0" text-anchor="middle" class="node-sub">admission</text>
  <rect x="922.0" y="238.0" width="180.0" height="70.0" rx="10.0" fill="#f8fafc" stroke="#cbd5e1" stroke-width="1.8"/>
  <text x="1012.0" y="273.0" text-anchor="middle" class="node-title">disable feature or</text>
  <text x="1012.0" y="295.0" text-anchor="middle" class="node-sub">rollback profile</text>
  <rect x="894.0" y="350.0" width="236.0" height="58.0" rx="10.0" fill="#eff6ff" stroke="#bfdbfe" stroke-width="1.8"/>
  <text x="1012.0" y="379.0" text-anchor="middle" class="node-title">freeze diagnostic evidence</text>
  <rect x="918.5" y="462.0" width="187.0" height="70.0" rx="10.0" fill="#f0fdf4" stroke="#bbf7d0" stroke-width="1.8"/>
  <text x="1012.0" y="497.0" text-anchor="middle" class="node-title">record rollback and</text>
  <text x="1012.0" y="519.0" text-anchor="middle" class="node-sub">prevention cost</text>
  <rect x="561.75" y="265.0" width="36" height="20" rx="6" fill="#ffffff" opacity="0.94"/>
  <text x="579.75" y="279.0" text-anchor="middle" class="arrow-label">no</text>
  <rect x="553.0" y="324.0" width="36" height="20" rx="6" fill="#ffffff" opacity="0.94"/>
  <text x="571.0" y="338.0" text-anchor="middle" class="arrow-label">yes</text>
  <text x="946.0" y="682.0" class="footnote">Rendered with fireworks-tech-graph</text>
</svg>