<svg xmlns="http://www.w3.org/2000/svg" viewBox="0 0 960 698" width="960" height="698">
  <defs>
    <marker id="arrowA" markerWidth="10" markerHeight="7" refX="9" refY="3.5" orient="auto">
      <polygon points="0 0, 10 3.5, 0 7" fill="#7c3aed"/>
    </marker>
    <marker id="arrowB" markerWidth="10" markerHeight="7" refX="9" refY="3.5" orient="auto">
      <polygon points="0 0, 10 3.5, 0 7" fill="#10b981"/>
    </marker>
    <marker id="arrowC" markerWidth="10" markerHeight="7" refX="9" refY="3.5" orient="auto">
      <polygon points="0 0, 10 3.5, 0 7" fill="#2563eb"/>
    </marker>
    <marker id="arrowE" markerWidth="10" markerHeight="7" refX="9" refY="3.5" orient="auto">
      <polygon points="0 0, 10 3.5, 0 7" fill="#f97316"/>
    </marker>
    <marker id="arrowF" markerWidth="10" markerHeight="7" refX="9" refY="3.5" orient="auto">
      <polygon points="0 0, 10 3.5, 0 7" fill="#7c3aed"/>
    </marker>
    <marker id="arrowG" markerWidth="10" markerHeight="7" refX="9" refY="3.5" orient="auto">
      <polygon points="0 0, 10 3.5, 0 7" fill="#ef4444"/>
    </marker>
    <marker id="arrowH" markerWidth="10" markerHeight="7" refX="9" refY="3.5" orient="auto">
      <polygon points="0 0, 10 3.5, 0 7" fill="#6b7280"/>
    </marker>
    <filter id="shadowSoft" x="-20%" y="-20%" width="140%" height="160%">
      <feDropShadow dx="0" dy="3" stdDeviation="6" flood-color="#0f172a" flood-opacity="0.12"/>
    </filter>
    <filter id="shadowGlass" x="-20%" y="-20%" width="140%" height="160%">
      <feDropShadow dx="0" dy="10" stdDeviation="16" flood-color="#020617" flood-opacity="0.28"/>
    </filter>
    <style>
    text { font-family: 'Helvetica Neue', Helvetica, Arial, 'PingFang SC', 'Microsoft YaHei', 'Microsoft JhengHei', 'SimHei', sans-serif; }
    .title { font-size: 30px; font-weight: 700; fill: #111827; }
    .subtitle { font-size: 14px; font-weight: 500; fill: #6b7280; }
    .section { font-size: 13px; font-weight: 700; fill: #2563eb; letter-spacing: 1.4px; }
    .section-sub { font-size: 12px; font-weight: 500; fill: #94a3b8; }
    .node-title { font-size: 18px; font-weight: 700; fill: #111827; }
    .node-sub { font-size: 12px; font-weight: 500; fill: #6b7280; }
    .node-type { font-size: 12px; font-weight: 700; fill: #9ca3af; letter-spacing: 0.08em; }
    .arrow-label { font-size: 12px; font-weight: 600; fill: #6b7280; }
    .legend { font-size: 12px; font-weight: 500; fill: #6b7280; }
    .footnote { font-size: 12px; font-weight: 500; fill: #94a3b8; }
    </style>
  </defs>
  <rect width="960.0" height="698.0" fill="#ffffff"/>
  <text x="480.0" y="56" text-anchor="middle" class="title">41.3.4 cost/token</text>
  <text x="480.0" y="82" text-anchor="middle" class="subtitle">part-10-economics-cases/chapter-41-token-factory.md:472</text>
  <path d="M 300.5,161.0 L 320.9,161.0 L 355.6,329.0 L 376.0,329.0" fill="none" stroke="#7c3aed" stroke-width="2.4" marker-end="url(#arrowA)"/>
  <path d="M 304.0,273.0 L 324.4,273.0 L 355.6,329.0 L 376.0,329.0" fill="none" stroke="#7c3aed" stroke-width="2.4" marker-end="url(#arrowA)"/>
  <path d="M 293.5,379.0 L 313.9,379.0 L 355.6,329.0 L 376.0,329.0" fill="none" stroke="#7c3aed" stroke-width="2.4" marker-end="url(#arrowA)"/>
  <path d="M 290.0,497.0 L 310.4,497.0 L 355.6,329.0 L 376.0,329.0" fill="none" stroke="#7c3aed" stroke-width="2.4" marker-end="url(#arrowA)"/>
  <path d="M 577.0,329.0 L 597.4,329.0 L 642.6,155.0 L 663.0,155.0" fill="none" stroke="#7c3aed" stroke-width="2.4" marker-end="url(#arrowA)"/>
  <path d="M 577.0,329.0 L 597.4,329.0 L 628.6,267.0 L 649.0,267.0" fill="none" stroke="#7c3aed" stroke-width="2.4" marker-end="url(#arrowA)"/>
  <path d="M 577.0,329.0 L 597.4,329.0 L 642.6,379.0 L 663.0,379.0" fill="none" stroke="#7c3aed" stroke-width="2.4" marker-end="url(#arrowA)"/>
  <path d="M 577.0,329.0 L 597.4,329.0 L 649.6,497.0 L 670.0,497.0" fill="none" stroke="#7c3aed" stroke-width="2.4" marker-end="url(#arrowA)"/>
  <rect x="99.5" y="126.0" width="201.0" height="70.0" rx="10.0" fill="#eff6ff" stroke="#bfdbfe" stroke-width="1.8"/>
  <text x="200.0" y="161.0" text-anchor="middle" class="node-title">congestion_fault_tree</text>
  <text x="200.0" y="183.0" text-anchor="middle" class="node-sub">execution</text>
  <rect x="96.0" y="238.0" width="208.0" height="70.0" rx="10.0" fill="#fff7ed" stroke="#fed7aa" stroke-width="1.8"/>
  <text x="200.0" y="273.0" text-anchor="middle" class="node-title">communication_critical</text>
  <text x="200.0" y="295.0" text-anchor="middle" class="node-sub">path_record</text>
  <rect x="106.5" y="350.0" width="187.0" height="58.0" rx="10.0" fill="#faf5ff" stroke="#e9d5ff" stroke-width="1.8"/>
  <text x="200.0" y="379.0" text-anchor="middle" class="node-title">rail_balance_report</text>
  <rect x="110.0" y="462.0" width="180.0" height="70.0" rx="10.0" fill="#f0fdfa" stroke="#99f6e4" stroke-width="1.8"/>
  <text x="200.0" y="497.0" text-anchor="middle" class="node-title">checkpoint_overlap</text>
  <text x="200.0" y="519.0" text-anchor="middle" class="node-sub">evidence</text>
  <rect x="376.0" y="294.0" width="201.0" height="70.0" rx="10.0" fill="#f0fdf4" stroke="#bbf7d0" stroke-width="1.8"/>
  <text x="476.5" y="329.0" text-anchor="middle" class="node-title">network_incident_cost</text>
  <text x="476.5" y="351.0" text-anchor="middle" class="node-sub">record</text>
  <rect x="663.0" y="126.0" width="187.0" height="58.0" rx="10.0" fill="#f8fafc" stroke="#cbd5e1" stroke-width="1.8"/>
  <text x="756.5" y="155.0" text-anchor="middle" class="node-title">network_cost_ledger</text>
  <rect x="649.0" y="238.0" width="215.0" height="58.0" rx="10.0" fill="#eff6ff" stroke="#bfdbfe" stroke-width="1.8"/>
  <text x="756.5" y="267.0" text-anchor="middle" class="node-title">reliability_cost_ledger</text>
  <rect x="663.0" y="350.0" width="187.0" height="58.0" rx="10.0" fill="#f0fdf4" stroke="#bbf7d0" stroke-width="1.8"/>
  <text x="756.5" y="379.0" text-anchor="middle" class="node-title">training_roi_ledger</text>
  <rect x="670.0" y="462.0" width="173.0" height="70.0" rx="10.0" fill="#fff7ed" stroke="#fed7aa" stroke-width="1.8"/>
  <text x="756.5" y="497.0" text-anchor="middle" class="node-title">fabric_change_prr</text>
  <text x="756.5" y="519.0" text-anchor="middle" class="node-sub">drill update</text>
  <text x="680.0" y="682.0" class="footnote">Rendered with fireworks-tech-graph</text>
</svg>