<svg xmlns="http://www.w3.org/2000/svg" viewBox="0 0 1358 600" width="1358" height="600">
  <defs>
    <marker id="arrowA" markerWidth="10" markerHeight="7" refX="9" refY="3.5" orient="auto">
      <polygon points="0 0, 10 3.5, 0 7" fill="#7c3aed"/>
    </marker>
    <marker id="arrowB" markerWidth="10" markerHeight="7" refX="9" refY="3.5" orient="auto">
      <polygon points="0 0, 10 3.5, 0 7" fill="#10b981"/>
    </marker>
    <marker id="arrowC" markerWidth="10" markerHeight="7" refX="9" refY="3.5" orient="auto">
      <polygon points="0 0, 10 3.5, 0 7" fill="#2563eb"/>
    </marker>
    <marker id="arrowE" markerWidth="10" markerHeight="7" refX="9" refY="3.5" orient="auto">
      <polygon points="0 0, 10 3.5, 0 7" fill="#f97316"/>
    </marker>
    <marker id="arrowF" markerWidth="10" markerHeight="7" refX="9" refY="3.5" orient="auto">
      <polygon points="0 0, 10 3.5, 0 7" fill="#7c3aed"/>
    </marker>
    <marker id="arrowG" markerWidth="10" markerHeight="7" refX="9" refY="3.5" orient="auto">
      <polygon points="0 0, 10 3.5, 0 7" fill="#ef4444"/>
    </marker>
    <marker id="arrowH" markerWidth="10" markerHeight="7" refX="9" refY="3.5" orient="auto">
      <polygon points="0 0, 10 3.5, 0 7" fill="#6b7280"/>
    </marker>
    <filter id="shadowSoft" x="-20%" y="-20%" width="140%" height="160%">
      <feDropShadow dx="0" dy="3" stdDeviation="6" flood-color="#0f172a" flood-opacity="0.12"/>
    </filter>
    <filter id="shadowGlass" x="-20%" y="-20%" width="140%" height="160%">
      <feDropShadow dx="0" dy="10" stdDeviation="16" flood-color="#020617" flood-opacity="0.28"/>
    </filter>
    <style>
    text { font-family: 'Helvetica Neue', Helvetica, Arial, 'PingFang SC', 'Microsoft YaHei', 'Microsoft JhengHei', 'SimHei', sans-serif; }
    .title { font-size: 30px; font-weight: 700; fill: #111827; }
    .subtitle { font-size: 14px; font-weight: 500; fill: #6b7280; }
    .section { font-size: 13px; font-weight: 700; fill: #2563eb; letter-spacing: 1.4px; }
    .section-sub { font-size: 12px; font-weight: 500; fill: #94a3b8; }
    .node-title { font-size: 18px; font-weight: 700; fill: #111827; }
    .node-sub { font-size: 12px; font-weight: 500; fill: #6b7280; }
    .node-type { font-size: 12px; font-weight: 700; fill: #9ca3af; letter-spacing: 0.08em; }
    .arrow-label { font-size: 12px; font-weight: 600; fill: #6b7280; }
    .legend { font-size: 12px; font-weight: 500; fill: #6b7280; }
    .footnote { font-size: 12px; font-weight: 500; fill: #94a3b8; }
    </style>
  </defs>
  <rect width="1358.0" height="600.0" fill="#ffffff"/>
  <text x="679.0" y="56" text-anchor="middle" class="title">44.4.1 工程实现</text>
  <text x="679.0" y="82" text-anchor="middle" class="subtitle">part-10-economics-cases/chapter-44-building-ai-factory.md:1557</text>
  <rect x="42.0" y="118.0" width="290.0" height="372.0" rx="16.0" fill="#f8fafc" stroke="#dbe5f1" stroke-width="1.4" stroke-dasharray="7 5"/>
  <text x="60.0" y="142.0" class="section">阶段 1</text>
  <text x="60.0" y="162.0" class="section-sub">quality_gate_freshness_prr -&gt; quality_evidence</text>
  <rect x="370.0" y="118.0" width="276.0" height="372.0" rx="16.0" fill="#ffffff" stroke="#dbe5f1" stroke-width="1.4" stroke-dasharray="7 5"/>
  <text x="388.0" y="142.0" class="section">阶段 2</text>
  <text x="388.0" y="162.0" class="section-sub">inject dependency change -&gt; quality_evidence</text>
  <rect x="684.0" y="118.0" width="283.0" height="372.0" rx="16.0" fill="#f8fafc" stroke="#dbe5f1" stroke-width="1.4" stroke-dasharray="7 5"/>
  <text x="702.0" y="142.0" class="section">阶段 3</text>
  <text x="702.0" y="162.0" class="section-sub">affected gates / releases -&gt; quality_fault_tree</text>
  <rect x="1005.0" y="118.0" width="311.0" height="372.0" rx="16.0" fill="#ffffff" stroke="#dbe5f1" stroke-width="1.4" stroke-dasharray="7 5"/>
  <text x="1023.0" y="142.0" class="section">阶段 4</text>
  <text x="1023.0" y="162.0" class="section-sub">quality_incident_cost -&gt; PRR quality gate</text>
  <path d="M 187.0,242.0 L 187.0,270.0" fill="none" stroke="#7c3aed" stroke-width="2.4" marker-end="url(#arrowA)"/>
  <path d="M 187.0,340.0 L 187.0,368.0" fill="none" stroke="#7c3aed" stroke-width="2.4" marker-end="url(#arrowA)"/>
  <path d="M 305.0,207.0 L 325.4,207.0 L 376.6,250.0 L 397.0,250.0" fill="none" stroke="#7c3aed" stroke-width="2.4" marker-end="url(#arrowA)"/>
  <path d="M 508.0,279.0 L 508.0,319.0" fill="none" stroke="#7c3aed" stroke-width="2.4" marker-end="url(#arrowA)"/>
  <path d="M 598.0,354.0 L 618.4,354.0 L 690.6,256.0 L 711.0,256.0" fill="none" stroke="#7c3aed" stroke-width="2.4" marker-end="url(#arrowA)"/>
  <path d="M 825.5,291.0 L 825.5,319.0" fill="none" stroke="#7c3aed" stroke-width="2.4" marker-end="url(#arrowA)"/>
  <path d="M 915.5,354.0 L 935.9,354.0 L 1039.6,256.0 L 1060.0,256.0" fill="none" stroke="#7c3aed" stroke-width="2.4" marker-end="url(#arrowA)"/>
  <path d="M 1160.5,291.0 L 1160.5,319.0" fill="none" stroke="#7c3aed" stroke-width="2.4" marker-end="url(#arrowA)"/>
  <rect x="69.0" y="172.0" width="236.0" height="70.0" rx="10.0" fill="#eff6ff" stroke="#bfdbfe" stroke-width="1.8"/>
  <text x="187.0" y="207.0" text-anchor="middle" class="node-title">quality_gate_freshness_prr</text>
  <text x="187.0" y="229.0" text-anchor="middle" class="node-sub">drill</text>
  <rect x="83.0" y="270.0" width="208.0" height="70.0" rx="10.0" fill="#f0fdf4" stroke="#bbf7d0" stroke-width="1.8"/>
  <text x="187.0" y="305.0" text-anchor="middle" class="node-title">quality_gate_freshness</text>
  <text x="187.0" y="327.0" text-anchor="middle" class="node-sub">contract</text>
  <rect x="104.0" y="368.0" width="166.0" height="70.0" rx="10.0" fill="#fff7ed" stroke="#fed7aa" stroke-width="1.8"/>
  <text x="187.0" y="403.0" text-anchor="middle" class="node-title">quality_evidence</text>
  <text x="187.0" y="425.0" text-anchor="middle" class="node-sub">dependency_graph</text>
  <rect x="397.0" y="221.0" width="222.0" height="58.0" rx="10.0" fill="#faf5ff" stroke="#e9d5ff" stroke-width="1.8"/>
  <text x="508.0" y="250.0" text-anchor="middle" class="node-title">inject dependency change</text>
  <rect x="418.0" y="319.0" width="180.0" height="70.0" rx="10.0" fill="#f0fdfa" stroke="#99f6e4" stroke-width="1.8"/>
  <text x="508.0" y="354.0" text-anchor="middle" class="node-title">quality_evidence</text>
  <text x="508.0" y="376.0" text-anchor="middle" class="node-sub">invalidation_event</text>
  <rect x="711.0" y="221.0" width="229.0" height="70.0" rx="10.0" fill="#f8fafc" stroke="#cbd5e1" stroke-width="1.8"/>
  <text x="825.5" y="256.0" text-anchor="middle" class="node-title">affected gates / releases</text>
  <text x="825.5" y="278.0" text-anchor="middle" class="node-sub">experiments / routes</text>
  <rect x="735.5" y="319.0" width="180.0" height="70.0" rx="10.0" fill="#eff6ff" stroke="#bfdbfe" stroke-width="1.8"/>
  <text x="825.5" y="354.0" text-anchor="middle" class="node-title">quality_fault_tree</text>
  <text x="825.5" y="376.0" text-anchor="middle" class="node-sub">execution</text>
  <rect x="1060.0" y="221.0" width="201.0" height="70.0" rx="10.0" fill="#f0fdf4" stroke="#bbf7d0" stroke-width="1.8"/>
  <text x="1160.5" y="256.0" text-anchor="middle" class="node-title">quality_incident_cost</text>
  <text x="1160.5" y="278.0" text-anchor="middle" class="node-sub">record</text>
  <rect x="1032.0" y="319.0" width="257.0" height="70.0" rx="10.0" fill="#fff7ed" stroke="#fed7aa" stroke-width="1.8"/>
  <text x="1160.5" y="354.0" text-anchor="middle" class="node-title">PRR quality gate</text>
  <text x="1160.5" y="376.0" text-anchor="middle" class="node-sub">approve / conditional / block</text>
  <line x1="42.0" y1="562.0" x2="72.0" y2="562.0" stroke="#7c3aed" stroke-width="2.4" marker-end="url(#arrowA)"/>
  <text x="82.0" y="566.0" class="legend">主路径 / 阶段推进</text>
  <text x="1078.0" y="584.0" class="footnote">Rendered with fireworks-tech-graph</text>
</svg>