<svg xmlns="http://www.w3.org/2000/svg" viewBox="0 0 2144 600" width="2144" height="600">
  <defs>
    <marker id="arrowA" markerWidth="10" markerHeight="7" refX="9" refY="3.5" orient="auto">
      <polygon points="0 0, 10 3.5, 0 7" fill="#7c3aed"/>
    </marker>
    <marker id="arrowB" markerWidth="10" markerHeight="7" refX="9" refY="3.5" orient="auto">
      <polygon points="0 0, 10 3.5, 0 7" fill="#10b981"/>
    </marker>
    <marker id="arrowC" markerWidth="10" markerHeight="7" refX="9" refY="3.5" orient="auto">
      <polygon points="0 0, 10 3.5, 0 7" fill="#2563eb"/>
    </marker>
    <marker id="arrowE" markerWidth="10" markerHeight="7" refX="9" refY="3.5" orient="auto">
      <polygon points="0 0, 10 3.5, 0 7" fill="#f97316"/>
    </marker>
    <marker id="arrowF" markerWidth="10" markerHeight="7" refX="9" refY="3.5" orient="auto">
      <polygon points="0 0, 10 3.5, 0 7" fill="#7c3aed"/>
    </marker>
    <marker id="arrowG" markerWidth="10" markerHeight="7" refX="9" refY="3.5" orient="auto">
      <polygon points="0 0, 10 3.5, 0 7" fill="#ef4444"/>
    </marker>
    <marker id="arrowH" markerWidth="10" markerHeight="7" refX="9" refY="3.5" orient="auto">
      <polygon points="0 0, 10 3.5, 0 7" fill="#6b7280"/>
    </marker>
    <filter id="shadowSoft" x="-20%" y="-20%" width="140%" height="160%">
      <feDropShadow dx="0" dy="3" stdDeviation="6" flood-color="#0f172a" flood-opacity="0.12"/>
    </filter>
    <filter id="shadowGlass" x="-20%" y="-20%" width="140%" height="160%">
      <feDropShadow dx="0" dy="10" stdDeviation="16" flood-color="#020617" flood-opacity="0.28"/>
    </filter>
    <style>
    text { font-family: 'Helvetica Neue', Helvetica, Arial, 'PingFang SC', 'Microsoft YaHei', 'Microsoft JhengHei', 'SimHei', sans-serif; }
    .title { font-size: 30px; font-weight: 700; fill: #111827; }
    .subtitle { font-size: 14px; font-weight: 500; fill: #6b7280; }
    .section { font-size: 13px; font-weight: 700; fill: #2563eb; letter-spacing: 1.4px; }
    .section-sub { font-size: 12px; font-weight: 500; fill: #94a3b8; }
    .node-title { font-size: 18px; font-weight: 700; fill: #111827; }
    .node-sub { font-size: 12px; font-weight: 500; fill: #6b7280; }
    .node-type { font-size: 12px; font-weight: 700; fill: #9ca3af; letter-spacing: 0.08em; }
    .arrow-label { font-size: 12px; font-weight: 600; fill: #6b7280; }
    .legend { font-size: 12px; font-weight: 500; fill: #6b7280; }
    .footnote { font-size: 12px; font-weight: 500; fill: #94a3b8; }
    </style>
  </defs>
  <rect width="2144.0" height="600.0" fill="#ffffff"/>
  <text x="1072.0" y="56" text-anchor="middle" class="title">36.4.1 工程实现</text>
  <text x="1072.0" y="82" text-anchor="middle" class="subtitle">part-08-physical-infrastructure/chapter-36-ai-datacenter-engineering.md:503</text>
  <path d="M 260.0,267.0 L 332.0,267.0" fill="none" stroke="#7c3aed" stroke-width="2.4" marker-end="url(#arrowA)"/>
  <path d="M 496.0,267.0 L 568.0,267.0" fill="none" stroke="#7c3aed" stroke-width="2.4" marker-end="url(#arrowA)"/>
  <path d="M 741.0,267.0 L 813.0,267.0" fill="none" stroke="#7c3aed" stroke-width="2.4" marker-end="url(#arrowA)"/>
  <path d="M 977.0,267.0 L 1049.0,267.0" fill="none" stroke="#7c3aed" stroke-width="2.4" marker-end="url(#arrowA)"/>
  <path d="M 1285.0,267.0 L 1305.4,267.0 L 1368.1,161.0 L 1388.5,161.0" fill="none" stroke="#7c3aed" stroke-width="2.4" marker-end="url(#arrowA)"/>
  <path d="M 1285.0,267.0 L 1305.4,267.0 L 1336.6,273.0 L 1357.0,273.0" fill="none" stroke="#7c3aed" stroke-width="2.4" marker-end="url(#arrowA)"/>
  <path d="M 1285.0,267.0 L 1305.4,267.0 L 1389.1,379.0 L 1409.5,379.0" fill="none" stroke="#7c3aed" stroke-width="2.4" marker-end="url(#arrowA)"/>
  <path d="M 1631.5,379.0 L 1651.9,379.0 L 1735.6,273.0 L 1756.0,273.0" fill="none" stroke="#7c3aed" stroke-width="2.4" marker-end="url(#arrowA)"/>
  <path d="M 1902.0,308.0 L 1902.0,330.0 L 1167.0,330.0 L 1167.0,296.0" fill="none" stroke="#7c3aed" stroke-width="2.4" marker-end="url(#arrowA)"/>
  <rect x="96.0" y="238.0" width="164.0" height="58.0" rx="10.0" fill="#eff6ff" stroke="#bfdbfe" stroke-width="1.8"/>
  <text x="178.0" y="267.0" text-anchor="middle" class="node-title">planned GPU</text>
  <rect x="332.0" y="238.0" width="164.0" height="58.0" rx="10.0" fill="#f0fdf4" stroke="#bbf7d0" stroke-width="1.8"/>
  <text x="414.0" y="267.0" text-anchor="middle" class="node-title">installed</text>
  <rect x="568.0" y="238.0" width="173.0" height="58.0" rx="10.0" fill="#fff7ed" stroke="#fed7aa" stroke-width="1.8"/>
  <text x="654.5" y="267.0" text-anchor="middle" class="node-title">accepted baseline</text>
  <rect x="813.0" y="238.0" width="164.0" height="58.0" rx="10.0" fill="#faf5ff" stroke="#e9d5ff" stroke-width="1.8"/>
  <text x="895.0" y="267.0" text-anchor="middle" class="node-title">allocatable</text>
  <rect x="1049.0" y="238.0" width="236.0" height="58.0" rx="10.0" fill="#f0fdfa" stroke="#99f6e4" stroke-width="1.8"/>
  <text x="1167.0" y="267.0" text-anchor="middle" class="node-title">workload_fit_capacity_gate</text>
  <rect x="1388.5" y="126.0" width="264.0" height="70.0" rx="10.0" fill="#f8fafc" stroke="#cbd5e1" stroke-width="1.8"/>
  <text x="1520.5" y="161.0" text-anchor="middle" class="node-title">resource label</text>
  <text x="1520.5" y="183.0" text-anchor="middle" class="node-sub">workload_fit/premium_inference</text>
  <rect x="1357.0" y="238.0" width="327.0" height="70.0" rx="10.0" fill="#eff6ff" stroke="#bfdbfe" stroke-width="1.8"/>
  <text x="1520.5" y="273.0" text-anchor="middle" class="node-title">resource label</text>
  <text x="1520.5" y="295.0" text-anchor="middle" class="node-sub">workload_fit/large_distributed_training</text>
  <rect x="1409.5" y="350.0" width="222.0" height="58.0" rx="10.0" fill="#f0fdf4" stroke="#bbf7d0" stroke-width="1.8"/>
  <text x="1520.5" y="379.0" text-anchor="middle" class="node-title">limited / no reservation</text>
  <rect x="1756.0" y="238.0" width="292.0" height="70.0" rx="10.0" fill="#fff7ed" stroke="#fed7aa" stroke-width="1.8"/>
  <text x="1902.0" y="273.0" text-anchor="middle" class="node-title">close evidence gap</text>
  <text x="1902.0" y="295.0" text-anchor="middle" class="node-sub">power / cooling / fabric / storage</text>
  <rect x="1252.75" y="200.0" width="168" height="20" rx="6" fill="#ffffff" opacity="0.94"/>
  <text x="1336.75" y="214.0" text-anchor="middle" class="arrow-label">premium inference pass</text>
  <rect x="1247.5" y="256.0" width="147" height="20" rx="6" fill="#ffffff" opacity="0.94"/>
  <text x="1321.0" y="270.0" text-anchor="middle" class="arrow-label">large training pass</text>
  <rect x="1315.75" y="325.0" width="63" height="20" rx="6" fill="#ffffff" opacity="0.94"/>
  <text x="1347.25" y="339.0" text-anchor="middle" class="arrow-label">blocked</text>
  <text x="1864.0" y="584.0" class="footnote">Rendered with fireworks-tech-graph</text>
</svg>