<svg xmlns="http://www.w3.org/2000/svg" viewBox="0 0 1999 600" width="1999" height="600">
  <defs>
    <marker id="arrowA" markerWidth="10" markerHeight="7" refX="9" refY="3.5" orient="auto">
      <polygon points="0 0, 10 3.5, 0 7" fill="#7c3aed"/>
    </marker>
    <marker id="arrowB" markerWidth="10" markerHeight="7" refX="9" refY="3.5" orient="auto">
      <polygon points="0 0, 10 3.5, 0 7" fill="#10b981"/>
    </marker>
    <marker id="arrowC" markerWidth="10" markerHeight="7" refX="9" refY="3.5" orient="auto">
      <polygon points="0 0, 10 3.5, 0 7" fill="#2563eb"/>
    </marker>
    <marker id="arrowE" markerWidth="10" markerHeight="7" refX="9" refY="3.5" orient="auto">
      <polygon points="0 0, 10 3.5, 0 7" fill="#f97316"/>
    </marker>
    <marker id="arrowF" markerWidth="10" markerHeight="7" refX="9" refY="3.5" orient="auto">
      <polygon points="0 0, 10 3.5, 0 7" fill="#7c3aed"/>
    </marker>
    <marker id="arrowG" markerWidth="10" markerHeight="7" refX="9" refY="3.5" orient="auto">
      <polygon points="0 0, 10 3.5, 0 7" fill="#ef4444"/>
    </marker>
    <marker id="arrowH" markerWidth="10" markerHeight="7" refX="9" refY="3.5" orient="auto">
      <polygon points="0 0, 10 3.5, 0 7" fill="#6b7280"/>
    </marker>
    <filter id="shadowSoft" x="-20%" y="-20%" width="140%" height="160%">
      <feDropShadow dx="0" dy="3" stdDeviation="6" flood-color="#0f172a" flood-opacity="0.12"/>
    </filter>
    <filter id="shadowGlass" x="-20%" y="-20%" width="140%" height="160%">
      <feDropShadow dx="0" dy="10" stdDeviation="16" flood-color="#020617" flood-opacity="0.28"/>
    </filter>
    <style>
    text { font-family: 'Helvetica Neue', Helvetica, Arial, 'PingFang SC', 'Microsoft YaHei', 'Microsoft JhengHei', 'SimHei', sans-serif; }
    .title { font-size: 30px; font-weight: 700; fill: #111827; }
    .subtitle { font-size: 14px; font-weight: 500; fill: #6b7280; }
    .section { font-size: 13px; font-weight: 700; fill: #2563eb; letter-spacing: 1.4px; }
    .section-sub { font-size: 12px; font-weight: 500; fill: #94a3b8; }
    .node-title { font-size: 18px; font-weight: 700; fill: #111827; }
    .node-sub { font-size: 12px; font-weight: 500; fill: #6b7280; }
    .node-type { font-size: 12px; font-weight: 700; fill: #9ca3af; letter-spacing: 0.08em; }
    .arrow-label { font-size: 12px; font-weight: 600; fill: #6b7280; }
    .legend { font-size: 12px; font-weight: 500; fill: #6b7280; }
    .footnote { font-size: 12px; font-weight: 500; fill: #94a3b8; }
    </style>
  </defs>
  <rect width="1999.0" height="600.0" fill="#ffffff"/>
  <text x="999.5" y="56" text-anchor="middle" class="title">38.3.6 storage benchmark</text>
  <text x="999.5" y="82" text-anchor="middle" class="subtitle">part-09-reliability-observability/chapter-38-acceptance-testing.md:319</text>
  <path d="M 300.5,155.0 L 320.9,155.0 L 369.6,273.0 L 390.0,273.0" fill="none" stroke="#7c3aed" stroke-width="2.4" marker-end="url(#arrowA)"/>
  <path d="M 318.0,267.0 L 338.4,267.0 L 369.6,273.0 L 390.0,273.0" fill="none" stroke="#7c3aed" stroke-width="2.4" marker-end="url(#arrowA)"/>
  <path d="M 304.0,379.0 L 324.4,379.0 L 369.6,273.0 L 390.0,273.0" fill="none" stroke="#7c3aed" stroke-width="2.4" marker-end="url(#arrowA)"/>
  <path d="M 570.0,273.0 L 590.4,273.0 L 621.6,267.0 L 642.0,267.0" fill="none" stroke="#7c3aed" stroke-width="2.4" marker-end="url(#arrowA)"/>
  <path d="M 806.0,267.0 L 878.0,267.0" fill="none" stroke="#7c3aed" stroke-width="2.4" marker-end="url(#arrowA)"/>
  <path d="M 1072.0,267.0 L 1092.4,267.0 L 1123.6,273.0 L 1144.0,273.0" fill="none" stroke="#7c3aed" stroke-width="2.4" marker-end="url(#arrowA)"/>
  <path d="M 1352.0,273.0 L 1372.4,273.0 L 1403.6,267.0 L 1424.0,267.0" fill="none" stroke="#7c3aed" stroke-width="2.4" marker-end="url(#arrowA)"/>
  <path d="M 1588.0,267.0 L 1608.4,267.0 L 1646.6,211.0 L 1667.0,211.0" fill="none" stroke="#7c3aed" stroke-width="2.4" marker-end="url(#arrowA)"/>
  <path d="M 1588.0,267.0 L 1608.4,267.0 L 1639.6,329.0 L 1660.0,329.0" fill="none" stroke="#7c3aed" stroke-width="2.4" marker-end="url(#arrowA)"/>
  <rect x="113.5" y="126.0" width="187.0" height="58.0" rx="10.0" fill="#eff6ff" stroke="#bfdbfe" stroke-width="1.8"/>
  <text x="207.0" y="155.0" text-anchor="middle" class="node-title">checkpoint_manifest</text>
  <rect x="96.0" y="238.0" width="222.0" height="58.0" rx="10.0" fill="#fff7ed" stroke="#fed7aa" stroke-width="1.8"/>
  <text x="207.0" y="267.0" text-anchor="middle" class="node-title">framework_runtime_matrix</text>
  <rect x="110.0" y="350.0" width="194.0" height="58.0" rx="10.0" fill="#faf5ff" stroke="#e9d5ff" stroke-width="1.8"/>
  <text x="207.0" y="379.0" text-anchor="middle" class="node-title">reader / image / KMS</text>
  <rect x="390.0" y="238.0" width="180.0" height="70.0" rx="10.0" fill="#f0fdf4" stroke="#bbf7d0" stroke-width="1.8"/>
  <text x="480.0" y="273.0" text-anchor="middle" class="node-title">checkpoint_restore</text>
  <text x="480.0" y="295.0" text-anchor="middle" class="node-sub">acceptance_matrix</text>
  <rect x="642.0" y="238.0" width="164.0" height="58.0" rx="10.0" fill="#f0fdfa" stroke="#99f6e4" stroke-width="1.8"/>
  <text x="724.0" y="267.0" text-anchor="middle" class="node-title">restore run</text>
  <rect x="878.0" y="238.0" width="194.0" height="58.0" rx="10.0" fill="#f8fafc" stroke="#cbd5e1" stroke-width="1.8"/>
  <text x="975.0" y="267.0" text-anchor="middle" class="node-title">first effective step</text>
  <rect x="1144.0" y="238.0" width="208.0" height="70.0" rx="10.0" fill="#eff6ff" stroke="#bfdbfe" stroke-width="1.8"/>
  <text x="1248.0" y="273.0" text-anchor="middle" class="node-title">loss</text>
  <text x="1248.0" y="295.0" text-anchor="middle" class="node-sub">state continuity probe</text>
  <rect x="1424.0" y="238.0" width="164.0" height="58.0" rx="10.0" fill="#fff7ed" stroke="#fdba74" stroke-width="2.0"/>
  <rect x="1430.0" y="244.0" width="152.0" height="46.0" rx="7.0" fill="none" stroke="#fdba74" stroke-width="1.2" opacity="0.65"/>
  <text x="1506.0" y="256.0" text-anchor="middle" class="node-type">DECISION</text>
  <text x="1506.0" y="273.0" text-anchor="middle" class="node-title">accept?</text>
  <rect x="1667.0" y="182.0" width="229.0" height="58.0" rx="10.0" fill="#fff7ed" stroke="#fed7aa" stroke-width="1.8"/>
  <text x="1781.5" y="211.0" text-anchor="middle" class="node-title">long training schedulable</text>
  <rect x="1660.0" y="294.0" width="243.0" height="70.0" rx="10.0" fill="#faf5ff" stroke="#e9d5ff" stroke-width="1.8"/>
  <text x="1781.5" y="329.0" text-anchor="middle" class="node-title">block long training</text>
  <text x="1781.5" y="351.0" text-anchor="middle" class="node-sub">keep older valid checkpoint</text>
  <rect x="1606.5" y="209.0" width="42" height="20" rx="6" fill="#ffffff" opacity="0.94"/>
  <text x="1627.5" y="223.0" text-anchor="middle" class="arrow-label">pass</text>
  <rect x="1603.0" y="268.0" width="42" height="20" rx="6" fill="#ffffff" opacity="0.94"/>
  <text x="1624.0" y="282.0" text-anchor="middle" class="arrow-label">fail</text>
  <text x="1719.0" y="584.0" class="footnote">Rendered with fireworks-tech-graph</text>
</svg>