<svg xmlns="http://www.w3.org/2000/svg" viewBox="0 0 1743 1046" width="1743" height="1046">
  <defs>
    <marker id="arrowA" markerWidth="10" markerHeight="7" refX="9" refY="3.5" orient="auto">
      <polygon points="0 0, 10 3.5, 0 7" fill="#7c3aed"/>
    </marker>
    <marker id="arrowB" markerWidth="10" markerHeight="7" refX="9" refY="3.5" orient="auto">
      <polygon points="0 0, 10 3.5, 0 7" fill="#10b981"/>
    </marker>
    <marker id="arrowC" markerWidth="10" markerHeight="7" refX="9" refY="3.5" orient="auto">
      <polygon points="0 0, 10 3.5, 0 7" fill="#2563eb"/>
    </marker>
    <marker id="arrowE" markerWidth="10" markerHeight="7" refX="9" refY="3.5" orient="auto">
      <polygon points="0 0, 10 3.5, 0 7" fill="#f97316"/>
    </marker>
    <marker id="arrowF" markerWidth="10" markerHeight="7" refX="9" refY="3.5" orient="auto">
      <polygon points="0 0, 10 3.5, 0 7" fill="#7c3aed"/>
    </marker>
    <marker id="arrowG" markerWidth="10" markerHeight="7" refX="9" refY="3.5" orient="auto">
      <polygon points="0 0, 10 3.5, 0 7" fill="#ef4444"/>
    </marker>
    <marker id="arrowH" markerWidth="10" markerHeight="7" refX="9" refY="3.5" orient="auto">
      <polygon points="0 0, 10 3.5, 0 7" fill="#6b7280"/>
    </marker>
    <filter id="shadowSoft" x="-20%" y="-20%" width="140%" height="160%">
      <feDropShadow dx="0" dy="3" stdDeviation="6" flood-color="#0f172a" flood-opacity="0.12"/>
    </filter>
    <filter id="shadowGlass" x="-20%" y="-20%" width="140%" height="160%">
      <feDropShadow dx="0" dy="10" stdDeviation="16" flood-color="#020617" flood-opacity="0.28"/>
    </filter>
    <style>
    text { font-family: 'Helvetica Neue', Helvetica, Arial, 'PingFang SC', 'Microsoft YaHei', 'Microsoft JhengHei', 'SimHei', sans-serif; }
    .title { font-size: 30px; font-weight: 700; fill: #111827; }
    .subtitle { font-size: 14px; font-weight: 500; fill: #6b7280; }
    .section { font-size: 13px; font-weight: 700; fill: #2563eb; letter-spacing: 1.4px; }
    .section-sub { font-size: 12px; font-weight: 500; fill: #94a3b8; }
    .node-title { font-size: 18px; font-weight: 700; fill: #111827; }
    .node-sub { font-size: 12px; font-weight: 500; fill: #6b7280; }
    .node-type { font-size: 12px; font-weight: 700; fill: #9ca3af; letter-spacing: 0.08em; }
    .arrow-label { font-size: 12px; font-weight: 600; fill: #6b7280; }
    .legend { font-size: 12px; font-weight: 500; fill: #6b7280; }
    .footnote { font-size: 12px; font-weight: 500; fill: #94a3b8; }
    </style>
  </defs>
  <rect width="1743.0" height="1046.0" fill="#ffffff"/>
  <text x="871.5" y="56" text-anchor="middle" class="title">39.3.8 inference latency spike</text>
  <text x="871.5" y="82" text-anchor="middle" class="subtitle">part-09-reliability-observability/chapter-39-troubleshooting.md:721</text>
  <path d="M 871.5,224.0 L 871.5,296.0" fill="none" stroke="#7c3aed" stroke-width="2.4" marker-end="url(#arrowA)"/>
  <path d="M 871.5,366.0 L 871.5,438.0" fill="none" stroke="#7c3aed" stroke-width="2.4" marker-end="url(#arrowA)"/>
  <path d="M 871.5,508.0 L 871.5,528.4 L 146.5,559.6 L 146.5,580.0" fill="none" stroke="#7c3aed" stroke-width="2.4" marker-end="url(#arrowA)"/>
  <path d="M 871.5,508.0 L 871.5,528.4 L 383.0,559.6 L 383.0,580.0" fill="none" stroke="#7c3aed" stroke-width="2.4" marker-end="url(#arrowA)"/>
  <path d="M 871.5,508.0 L 871.5,528.4 L 644.0,559.6 L 644.0,580.0" fill="none" stroke="#7c3aed" stroke-width="2.4" marker-end="url(#arrowA)"/>
  <path d="M 871.5,508.0 L 871.5,528.4 L 891.0,559.6 L 891.0,580.0" fill="none" stroke="#7c3aed" stroke-width="2.4" marker-end="url(#arrowA)"/>
  <path d="M 871.5,508.0 L 871.5,528.4 L 1109.0,559.6 L 1109.0,580.0" fill="none" stroke="#7c3aed" stroke-width="2.4" marker-end="url(#arrowA)"/>
  <path d="M 871.5,508.0 L 871.5,528.4 L 1319.0,559.6 L 1319.0,580.0" fill="none" stroke="#7c3aed" stroke-width="2.4" marker-end="url(#arrowA)"/>
  <path d="M 871.5,508.0 L 871.5,528.4 L 1565.0,559.6 L 1565.0,580.0" fill="none" stroke="#7c3aed" stroke-width="2.4" marker-end="url(#arrowA)"/>
  <path d="M 146.5,638.0 L 146.5,658.4 L 871.5,689.6 L 871.5,710.0" fill="none" stroke="#7c3aed" stroke-width="2.4" marker-end="url(#arrowA)"/>
  <path d="M 383.0,638.0 L 383.0,658.4 L 871.5,689.6 L 871.5,710.0" fill="none" stroke="#7c3aed" stroke-width="2.4" marker-end="url(#arrowA)"/>
  <path d="M 644.0,638.0 L 644.0,658.4 L 871.5,689.6 L 871.5,710.0" fill="none" stroke="#7c3aed" stroke-width="2.4" marker-end="url(#arrowA)"/>
  <path d="M 891.0,638.0 L 891.0,658.4 L 871.5,689.6 L 871.5,710.0" fill="none" stroke="#7c3aed" stroke-width="2.4" marker-end="url(#arrowA)"/>
  <path d="M 1109.0,638.0 L 1109.0,658.4 L 871.5,689.6 L 871.5,710.0" fill="none" stroke="#7c3aed" stroke-width="2.4" marker-end="url(#arrowA)"/>
  <path d="M 1319.0,638.0 L 1319.0,658.4 L 871.5,689.6 L 871.5,710.0" fill="none" stroke="#7c3aed" stroke-width="2.4" marker-end="url(#arrowA)"/>
  <path d="M 1565.0,638.0 L 1565.0,658.4 L 871.5,689.6 L 871.5,710.0" fill="none" stroke="#7c3aed" stroke-width="2.4" marker-end="url(#arrowA)"/>
  <path d="M 871.5,768.0 L 871.5,788.4 L 734.0,819.6 L 734.0,840.0" fill="none" stroke="#7c3aed" stroke-width="2.4" marker-end="url(#arrowA)"/>
  <path d="M 871.5,768.0 L 871.5,788.4 L 1012.5,825.6 L 1012.5,846.0" fill="none" stroke="#7c3aed" stroke-width="2.4" marker-end="url(#arrowA)"/>
  <rect x="785.0" y="154.0" width="173.0" height="70.0" rx="10.0" fill="#eff6ff" stroke="#bfdbfe" stroke-width="1.8"/>
  <text x="871.5" y="189.0" text-anchor="middle" class="node-title">inference_runtime</text>
  <text x="871.5" y="211.0" text-anchor="middle" class="node-sub">diagnostic_bundle</text>
  <rect x="774.5" y="296.0" width="194.0" height="70.0" rx="10.0" fill="#f0fdf4" stroke="#bbf7d0" stroke-width="1.8"/>
  <text x="871.5" y="331.0" text-anchor="middle" class="node-title">engine_request_state</text>
  <text x="871.5" y="353.0" text-anchor="middle" class="node-sub">ledger</text>
  <rect x="764.0" y="438.0" width="215.0" height="70.0" rx="10.0" fill="#fff7ed" stroke="#fed7aa" stroke-width="1.8"/>
  <text x="871.5" y="473.0" text-anchor="middle" class="node-title">inference_runtime_fault</text>
  <text x="871.5" y="495.0" text-anchor="middle" class="node-sub">tree_execution</text>
  <rect x="60.0" y="580.0" width="173.0" height="58.0" rx="10.0" fill="#faf5ff" stroke="#e9d5ff" stroke-width="1.8"/>
  <text x="146.5" y="609.0" text-anchor="middle" class="node-title">admission / route</text>
  <rect x="279.0" y="580.0" width="208.0" height="58.0" rx="10.0" fill="#f0fdfa" stroke="#99f6e4" stroke-width="1.8"/>
  <text x="383.0" y="609.0" text-anchor="middle" class="node-title">prefill / cache / load</text>
  <rect x="533.0" y="580.0" width="222.0" height="58.0" rx="10.0" fill="#f8fafc" stroke="#cbd5e1" stroke-width="1.8"/>
  <text x="644.0" y="609.0" text-anchor="middle" class="node-title">decode / active sequence</text>
  <rect x="801.0" y="580.0" width="180.0" height="58.0" rx="10.0" fill="#eff6ff" stroke="#bfdbfe" stroke-width="1.8"/>
  <text x="891.0" y="609.0" text-anchor="middle" class="node-title">KV pressure / leak</text>
  <rect x="1027.0" y="580.0" width="164.0" height="58.0" rx="10.0" fill="#f0fdf4" stroke="#bbf7d0" stroke-width="1.8"/>
  <text x="1109.0" y="609.0" text-anchor="middle" class="node-title">PD transfer</text>
  <rect x="1237.0" y="580.0" width="164.0" height="58.0" rx="10.0" fill="#fff7ed" stroke="#fed7aa" stroke-width="1.8"/>
  <text x="1319.0" y="609.0" text-anchor="middle" class="node-title">engine canary</text>
  <rect x="1447.0" y="580.0" width="236.0" height="58.0" rx="10.0" fill="#faf5ff" stroke="#e9d5ff" stroke-width="1.8"/>
  <text x="1565.0" y="609.0" text-anchor="middle" class="node-title">streaming + metering close</text>
  <rect x="764.0" y="710.0" width="215.0" height="58.0" rx="10.0" fill="#f0fdfa" stroke="#99f6e4" stroke-width="1.8"/>
  <text x="871.5" y="739.0" text-anchor="middle" class="node-title">shed / route / fallback</text>
  <rect x="616.0" y="840.0" width="236.0" height="70.0" rx="10.0" fill="#f8fafc" stroke="#cbd5e1" stroke-width="1.8"/>
  <text x="734.0" y="875.0" text-anchor="middle" class="node-title">inference_runtime_incident</text>
  <text x="734.0" y="897.0" text-anchor="middle" class="node-sub">cost_record</text>
  <rect x="898.0" y="846.0" width="229.0" height="58.0" rx="10.0" fill="#eff6ff" stroke="#bfdbfe" stroke-width="1.8"/>
  <text x="1012.5" y="875.0" text-anchor="middle" class="node-title">runtime PRR / gate update</text>
  <text x="1463.0" y="1030.0" class="footnote">Rendered with fireworks-tech-graph</text>
</svg>