<svg xmlns="http://www.w3.org/2000/svg" viewBox="0 0 2512 360" width="2512" height="360">
  <defs>
    <marker id="arrowA" markerWidth="10" markerHeight="7" refX="9" refY="3.5" orient="auto">
      <polygon points="0 0, 10 3.5, 0 7" fill="#7c3aed"/>
    </marker>
    <marker id="arrowB" markerWidth="10" markerHeight="7" refX="9" refY="3.5" orient="auto">
      <polygon points="0 0, 10 3.5, 0 7" fill="#10b981"/>
    </marker>
    <marker id="arrowC" markerWidth="10" markerHeight="7" refX="9" refY="3.5" orient="auto">
      <polygon points="0 0, 10 3.5, 0 7" fill="#2563eb"/>
    </marker>
    <marker id="arrowE" markerWidth="10" markerHeight="7" refX="9" refY="3.5" orient="auto">
      <polygon points="0 0, 10 3.5, 0 7" fill="#f97316"/>
    </marker>
    <marker id="arrowF" markerWidth="10" markerHeight="7" refX="9" refY="3.5" orient="auto">
      <polygon points="0 0, 10 3.5, 0 7" fill="#7c3aed"/>
    </marker>
    <marker id="arrowG" markerWidth="10" markerHeight="7" refX="9" refY="3.5" orient="auto">
      <polygon points="0 0, 10 3.5, 0 7" fill="#ef4444"/>
    </marker>
    <marker id="arrowH" markerWidth="10" markerHeight="7" refX="9" refY="3.5" orient="auto">
      <polygon points="0 0, 10 3.5, 0 7" fill="#6b7280"/>
    </marker>
    <filter id="shadowSoft" x="-20%" y="-20%" width="140%" height="160%">
      <feDropShadow dx="0" dy="3" stdDeviation="6" flood-color="#0f172a" flood-opacity="0.12"/>
    </filter>
    <filter id="shadowGlass" x="-20%" y="-20%" width="140%" height="160%">
      <feDropShadow dx="0" dy="10" stdDeviation="16" flood-color="#020617" flood-opacity="0.28"/>
    </filter>
    <style>
    text { font-family: 'Helvetica Neue', Helvetica, Arial, 'PingFang SC', 'Microsoft YaHei', 'Microsoft JhengHei', 'SimHei', sans-serif; }
    .title { font-size: 30px; font-weight: 700; fill: #111827; }
    .subtitle { font-size: 14px; font-weight: 500; fill: #6b7280; }
    .section { font-size: 13px; font-weight: 700; fill: #2563eb; letter-spacing: 1.4px; }
    .section-sub { font-size: 12px; font-weight: 500; fill: #94a3b8; }
    .node-title { font-size: 18px; font-weight: 700; fill: #111827; }
    .node-sub { font-size: 12px; font-weight: 500; fill: #6b7280; }
    .node-type { font-size: 12px; font-weight: 700; fill: #9ca3af; letter-spacing: 0.08em; }
    .arrow-label { font-size: 12px; font-weight: 600; fill: #6b7280; }
    .legend { font-size: 12px; font-weight: 500; fill: #6b7280; }
    .footnote { font-size: 12px; font-weight: 500; fill: #94a3b8; }
    </style>
  </defs>
  <rect width="2512.0" height="360.0" fill="#ffffff"/>
  <text x="1256.0" y="56" text-anchor="middle" class="title">1.4.1 工程实现</text>
  <text x="1256.0" y="82" text-anchor="middle" class="subtitle">part-01-applications/chapter-01-chat-request.md:390</text>
  <path d="M 276.0,155.0 L 348.0,155.0" fill="none" stroke="#7c3aed" stroke-width="2.4" marker-end="url(#arrowA)"/>
  <path d="M 556.0,155.0 L 576.4,155.0 L 607.6,161.0 L 628.0,161.0" fill="none" stroke="#7c3aed" stroke-width="2.4" marker-end="url(#arrowA)"/>
  <path d="M 962.0,161.0 L 1034.0,161.0" fill="none" stroke="#7c3aed" stroke-width="2.4" marker-end="url(#arrowA)"/>
  <path d="M 1263.0,161.0 L 1283.4,161.0 L 1314.6,155.0 L 1335.0,155.0" fill="none" stroke="#7c3aed" stroke-width="2.4" marker-end="url(#arrowA)"/>
  <path d="M 1571.0,155.0 L 1643.0,155.0" fill="none" stroke="#7c3aed" stroke-width="2.4" marker-end="url(#arrowA)"/>
  <path d="M 1879.0,155.0 L 1951.0,155.0" fill="none" stroke="#7c3aed" stroke-width="2.4" marker-end="url(#arrowA)"/>
  <path d="M 2115.0,155.0 L 2187.0,155.0" fill="none" stroke="#7c3aed" stroke-width="2.4" marker-end="url(#arrowA)"/>
  <rect x="96.0" y="126.0" width="180.0" height="58.0" rx="10.0" fill="#eff6ff" stroke="#bfdbfe" stroke-width="1.8"/>
  <text x="186.0" y="155.0" text-anchor="middle" class="node-title">用户反馈 / 重新生成 / 人工接管</text>
  <rect x="348.0" y="126.0" width="208.0" height="58.0" rx="10.0" fill="#f0fdf4" stroke="#bbf7d0" stroke-width="1.8"/>
  <text x="452.0" y="155.0" text-anchor="middle" class="node-title">quality_feedback_event</text>
  <rect x="628.0" y="126.0" width="334.0" height="70.0" rx="10.0" fill="#fff7ed" stroke="#fed7aa" stroke-width="1.8"/>
  <text x="795.0" y="161.0" text-anchor="middle" class="node-title">triage</text>
  <text x="795.0" y="183.0" text-anchor="middle" class="node-sub">模型 / RAG / prompt / route / runtime / UI</text>
  <rect x="1034.0" y="126.0" width="229.0" height="70.0" rx="10.0" fill="#faf5ff" stroke="#e9d5ff" stroke-width="1.8"/>
  <text x="1148.5" y="161.0" text-anchor="middle" class="node-title">trace replay</text>
  <text x="1148.5" y="183.0" text-anchor="middle" class="node-sub">prompt + context + params</text>
  <rect x="1335.0" y="126.0" width="236.0" height="58.0" rx="10.0" fill="#f0fdfa" stroke="#99f6e4" stroke-width="1.8"/>
  <text x="1453.0" y="155.0" text-anchor="middle" class="node-title">human label / judge rubric</text>
  <rect x="1643.0" y="126.0" width="236.0" height="58.0" rx="10.0" fill="#f8fafc" stroke="#cbd5e1" stroke-width="1.8"/>
  <text x="1761.0" y="155.0" text-anchor="middle" class="node-title">eval case / regression set</text>
  <rect x="1951.0" y="126.0" width="164.0" height="58.0" rx="10.0" fill="#eff6ff" stroke="#bfdbfe" stroke-width="1.8"/>
  <text x="2033.0" y="155.0" text-anchor="middle" class="node-title">quality gate</text>
  <rect x="2187.0" y="126.0" width="229.0" height="58.0" rx="10.0" fill="#f0fdf4" stroke="#bbf7d0" stroke-width="1.8"/>
  <text x="2301.5" y="155.0" text-anchor="middle" class="node-title">serving / gateway release</text>
  <text x="2232.0" y="344.0" class="footnote">Rendered with fireworks-tech-graph</text>
</svg>