<svg xmlns="http://www.w3.org/2000/svg" viewBox="0 0 1261 600" width="1261" height="600">
  <defs>
    <marker id="arrowA" markerWidth="10" markerHeight="7" refX="9" refY="3.5" orient="auto">
      <polygon points="0 0, 10 3.5, 0 7" fill="#7c3aed"/>
    </marker>
    <marker id="arrowB" markerWidth="10" markerHeight="7" refX="9" refY="3.5" orient="auto">
      <polygon points="0 0, 10 3.5, 0 7" fill="#10b981"/>
    </marker>
    <marker id="arrowC" markerWidth="10" markerHeight="7" refX="9" refY="3.5" orient="auto">
      <polygon points="0 0, 10 3.5, 0 7" fill="#2563eb"/>
    </marker>
    <marker id="arrowE" markerWidth="10" markerHeight="7" refX="9" refY="3.5" orient="auto">
      <polygon points="0 0, 10 3.5, 0 7" fill="#f97316"/>
    </marker>
    <marker id="arrowF" markerWidth="10" markerHeight="7" refX="9" refY="3.5" orient="auto">
      <polygon points="0 0, 10 3.5, 0 7" fill="#7c3aed"/>
    </marker>
    <marker id="arrowG" markerWidth="10" markerHeight="7" refX="9" refY="3.5" orient="auto">
      <polygon points="0 0, 10 3.5, 0 7" fill="#ef4444"/>
    </marker>
    <marker id="arrowH" markerWidth="10" markerHeight="7" refX="9" refY="3.5" orient="auto">
      <polygon points="0 0, 10 3.5, 0 7" fill="#6b7280"/>
    </marker>
    <filter id="shadowSoft" x="-20%" y="-20%" width="140%" height="160%">
      <feDropShadow dx="0" dy="3" stdDeviation="6" flood-color="#0f172a" flood-opacity="0.12"/>
    </filter>
    <filter id="shadowGlass" x="-20%" y="-20%" width="140%" height="160%">
      <feDropShadow dx="0" dy="10" stdDeviation="16" flood-color="#020617" flood-opacity="0.28"/>
    </filter>
    <style>
    text { font-family: 'Helvetica Neue', Helvetica, Arial, 'PingFang SC', 'Microsoft YaHei', 'Microsoft JhengHei', 'SimHei', sans-serif; }
    .title { font-size: 30px; font-weight: 700; fill: #111827; }
    .subtitle { font-size: 14px; font-weight: 500; fill: #6b7280; }
    .section { font-size: 13px; font-weight: 700; fill: #2563eb; letter-spacing: 1.4px; }
    .section-sub { font-size: 12px; font-weight: 500; fill: #94a3b8; }
    .node-title { font-size: 18px; font-weight: 700; fill: #111827; }
    .node-sub { font-size: 12px; font-weight: 500; fill: #6b7280; }
    .node-type { font-size: 12px; font-weight: 700; fill: #9ca3af; letter-spacing: 0.08em; }
    .arrow-label { font-size: 12px; font-weight: 600; fill: #6b7280; }
    .legend { font-size: 12px; font-weight: 500; fill: #6b7280; }
    .footnote { font-size: 12px; font-weight: 500; fill: #94a3b8; }
    </style>
  </defs>
  <rect width="1261.0" height="600.0" fill="#ffffff"/>
  <text x="630.5" y="56" text-anchor="middle" class="title">41.4.1 工程实现</text>
  <text x="630.5" y="82" text-anchor="middle" class="subtitle">part-10-economics-cases/chapter-41-token-factory.md:1402</text>
  <path d="M 311.0,161.0 L 331.4,161.0 L 383.6,273.0 L 404.0,273.0" fill="none" stroke="#7c3aed" stroke-width="2.4" marker-end="url(#arrowA)"/>
  <path d="M 328.5,267.0 L 348.9,267.0 L 383.6,273.0 L 404.0,273.0" fill="none" stroke="#7c3aed" stroke-width="2.4" marker-end="url(#arrowA)"/>
  <path d="M 332.0,379.0 L 352.4,379.0 L 383.6,273.0 L 404.0,273.0" fill="none" stroke="#7c3aed" stroke-width="2.4" marker-end="url(#arrowA)"/>
  <path d="M 619.0,273.0 L 639.4,273.0 L 677.6,155.0 L 698.0,155.0" fill="none" stroke="#7c3aed" stroke-width="2.4" marker-end="url(#arrowA)"/>
  <path d="M 619.0,273.0 L 639.4,273.0 L 674.1,267.0 L 694.5,267.0" fill="none" stroke="#7c3aed" stroke-width="2.4" marker-end="url(#arrowA)"/>
  <path d="M 619.0,273.0 L 639.4,273.0 L 670.6,385.0 L 691.0,385.0" fill="none" stroke="#7c3aed" stroke-width="2.4" marker-end="url(#arrowA)"/>
  <path d="M 888.5,267.0 L 908.9,267.0 L 943.6,273.0 L 964.0,273.0" fill="none" stroke="#7c3aed" stroke-width="2.4" marker-end="url(#arrowA)"/>
  <rect x="117.0" y="126.0" width="194.0" height="70.0" rx="10.0" fill="#eff6ff" stroke="#bfdbfe" stroke-width="1.8"/>
  <text x="214.0" y="161.0" text-anchor="middle" class="node-title">rag_agent_fault_tree</text>
  <text x="214.0" y="183.0" text-anchor="middle" class="node-sub">execution</text>
  <rect x="99.5" y="238.0" width="229.0" height="58.0" rx="10.0" fill="#fff7ed" stroke="#fed7aa" stroke-width="1.8"/>
  <text x="214.0" y="267.0" text-anchor="middle" class="node-title">rag_agent_evidence_bundle</text>
  <rect x="96.0" y="350.0" width="236.0" height="58.0" rx="10.0" fill="#faf5ff" stroke="#e9d5ff" stroke-width="1.8"/>
  <text x="214.0" y="379.0" text-anchor="middle" class="node-title">rag_agent_cost_attribution</text>
  <rect x="404.0" y="238.0" width="215.0" height="70.0" rx="10.0" fill="#f0fdf4" stroke="#bbf7d0" stroke-width="1.8"/>
  <text x="511.5" y="273.0" text-anchor="middle" class="node-title">rag_agent_incident_cost</text>
  <text x="511.5" y="295.0" text-anchor="middle" class="node-sub">record</text>
  <rect x="698.0" y="126.0" width="187.0" height="58.0" rx="10.0" fill="#f0fdfa" stroke="#99f6e4" stroke-width="1.8"/>
  <text x="791.5" y="155.0" text-anchor="middle" class="node-title">quality_cost_ledger</text>
  <rect x="694.5" y="238.0" width="194.0" height="58.0" rx="10.0" fill="#f8fafc" stroke="#cbd5e1" stroke-width="1.8"/>
  <text x="791.5" y="267.0" text-anchor="middle" class="node-title">Token Factory ledger</text>
  <rect x="691.0" y="350.0" width="201.0" height="70.0" rx="10.0" fill="#eff6ff" stroke="#bfdbfe" stroke-width="1.8"/>
  <text x="791.5" y="385.0" text-anchor="middle" class="node-title">agent_tool_policy_prr</text>
  <text x="791.5" y="407.0" text-anchor="middle" class="node-sub">drill / PRR gate</text>
  <rect x="964.0" y="238.0" width="201.0" height="70.0" rx="10.0" fill="#f0fdf4" stroke="#bbf7d0" stroke-width="1.8"/>
  <text x="1064.5" y="273.0" text-anchor="middle" class="node-title">route / budget</text>
  <text x="1064.5" y="295.0" text-anchor="middle" class="node-sub">tool policy / pricing</text>
  <text x="981.0" y="584.0" class="footnote">Rendered with fireworks-tech-graph</text>
</svg>