<svg xmlns="http://www.w3.org/2000/svg" viewBox="0 0 1884 600" width="1884" height="600">
  <defs>
    <marker id="arrowA" markerWidth="10" markerHeight="7" refX="9" refY="3.5" orient="auto">
      <polygon points="0 0, 10 3.5, 0 7" fill="#7c3aed"/>
    </marker>
    <marker id="arrowB" markerWidth="10" markerHeight="7" refX="9" refY="3.5" orient="auto">
      <polygon points="0 0, 10 3.5, 0 7" fill="#10b981"/>
    </marker>
    <marker id="arrowC" markerWidth="10" markerHeight="7" refX="9" refY="3.5" orient="auto">
      <polygon points="0 0, 10 3.5, 0 7" fill="#2563eb"/>
    </marker>
    <marker id="arrowE" markerWidth="10" markerHeight="7" refX="9" refY="3.5" orient="auto">
      <polygon points="0 0, 10 3.5, 0 7" fill="#f97316"/>
    </marker>
    <marker id="arrowF" markerWidth="10" markerHeight="7" refX="9" refY="3.5" orient="auto">
      <polygon points="0 0, 10 3.5, 0 7" fill="#7c3aed"/>
    </marker>
    <marker id="arrowG" markerWidth="10" markerHeight="7" refX="9" refY="3.5" orient="auto">
      <polygon points="0 0, 10 3.5, 0 7" fill="#ef4444"/>
    </marker>
    <marker id="arrowH" markerWidth="10" markerHeight="7" refX="9" refY="3.5" orient="auto">
      <polygon points="0 0, 10 3.5, 0 7" fill="#6b7280"/>
    </marker>
    <filter id="shadowSoft" x="-20%" y="-20%" width="140%" height="160%">
      <feDropShadow dx="0" dy="3" stdDeviation="6" flood-color="#0f172a" flood-opacity="0.12"/>
    </filter>
    <filter id="shadowGlass" x="-20%" y="-20%" width="140%" height="160%">
      <feDropShadow dx="0" dy="10" stdDeviation="16" flood-color="#020617" flood-opacity="0.28"/>
    </filter>
    <style>
    text { font-family: 'Helvetica Neue', Helvetica, Arial, 'PingFang SC', 'Microsoft YaHei', 'Microsoft JhengHei', 'SimHei', sans-serif; }
    .title { font-size: 30px; font-weight: 700; fill: #111827; }
    .subtitle { font-size: 14px; font-weight: 500; fill: #6b7280; }
    .section { font-size: 13px; font-weight: 700; fill: #2563eb; letter-spacing: 1.4px; }
    .section-sub { font-size: 12px; font-weight: 500; fill: #94a3b8; }
    .node-title { font-size: 18px; font-weight: 700; fill: #111827; }
    .node-sub { font-size: 12px; font-weight: 500; fill: #6b7280; }
    .node-type { font-size: 12px; font-weight: 700; fill: #9ca3af; letter-spacing: 0.08em; }
    .arrow-label { font-size: 12px; font-weight: 600; fill: #6b7280; }
    .legend { font-size: 12px; font-weight: 500; fill: #6b7280; }
    .footnote { font-size: 12px; font-weight: 500; fill: #94a3b8; }
    </style>
  </defs>
  <rect width="1884.0" height="600.0" fill="#ffffff"/>
  <text x="942.0" y="56" text-anchor="middle" class="title">6.4.1 工程实现</text>
  <text x="942.0" y="82" text-anchor="middle" class="subtitle">part-02-platform/chapter-06-ai-gateway.md:389</text>
  <path d="M 381.0,273.0 L 453.0,273.0" fill="none" stroke="#7c3aed" stroke-width="2.4" marker-end="url(#arrowA)"/>
  <path d="M 654.0,273.0 L 674.4,273.0 L 709.1,155.0 L 729.5,155.0" fill="none" stroke="#7c3aed" stroke-width="2.4" marker-end="url(#arrowA)"/>
  <path d="M 654.0,273.0 L 674.4,273.0 L 712.6,267.0 L 733.0,267.0" fill="none" stroke="#7c3aed" stroke-width="2.4" marker-end="url(#arrowA)"/>
  <path d="M 654.0,273.0 L 674.4,273.0 L 705.6,379.0 L 726.0,379.0" fill="none" stroke="#7c3aed" stroke-width="2.4" marker-end="url(#arrowA)"/>
  <path d="M 937.5,155.0 L 1020.0,155.0" fill="none" stroke="#7c3aed" stroke-width="2.4" marker-end="url(#arrowA)"/>
  <path d="M 934.0,267.0 L 954.4,267.0 L 1017.1,273.0 L 1037.5,273.0" fill="none" stroke="#7c3aed" stroke-width="2.4" marker-end="url(#arrowA)"/>
  <path d="M 941.0,379.0 L 961.4,379.0 L 992.6,385.0 L 1013.0,385.0" fill="none" stroke="#7c3aed" stroke-width="2.4" marker-end="url(#arrowA)"/>
  <path d="M 1235.0,155.0 L 1255.4,155.0 L 1293.6,273.0 L 1314.0,273.0" fill="none" stroke="#7c3aed" stroke-width="2.4" marker-end="url(#arrowA)"/>
  <path d="M 1217.5,273.0 L 1314.0,273.0" fill="none" stroke="#7c3aed" stroke-width="2.4" marker-end="url(#arrowA)"/>
  <path d="M 1242.0,385.0 L 1262.4,385.0 L 1293.6,273.0 L 1314.0,273.0" fill="none" stroke="#7c3aed" stroke-width="2.4" marker-end="url(#arrowA)"/>
  <path d="M 1494.0,273.0 L 1514.4,273.0 L 1545.6,267.0 L 1566.0,267.0" fill="none" stroke="#7c3aed" stroke-width="2.4" marker-end="url(#arrowA)"/>
  <rect x="96.0" y="238.0" width="285.0" height="70.0" rx="10.0" fill="#eff6ff" stroke="#bfdbfe" stroke-width="1.8"/>
  <text x="238.5" y="273.0" text-anchor="middle" class="node-title">request</text>
  <text x="238.5" y="295.0" text-anchor="middle" class="node-sub">model alias + tenant + task slice</text>
  <rect x="453.0" y="238.0" width="201.0" height="70.0" rx="10.0" fill="#f0fdf4" stroke="#bbf7d0" stroke-width="1.8"/>
  <text x="553.5" y="273.0" text-anchor="middle" class="node-title">serving_route_release</text>
  <text x="553.5" y="295.0" text-anchor="middle" class="node-sub">contract</text>
  <rect x="729.5" y="126.0" width="208.0" height="58.0" rx="10.0" fill="#fff7ed" stroke="#fed7aa" stroke-width="1.8"/>
  <text x="833.5" y="155.0" text-anchor="middle" class="node-title">primary release bundle</text>
  <rect x="733.0" y="238.0" width="201.0" height="58.0" rx="10.0" fill="#faf5ff" stroke="#e9d5ff" stroke-width="1.8"/>
  <text x="833.5" y="267.0" text-anchor="middle" class="node-title">canary release bundle</text>
  <rect x="726.0" y="350.0" width="215.0" height="58.0" rx="10.0" fill="#f0fdfa" stroke="#99f6e4" stroke-width="1.8"/>
  <text x="833.5" y="379.0" text-anchor="middle" class="node-title">fallback release bundle</text>
  <rect x="1020.0" y="126.0" width="215.0" height="58.0" rx="10.0" fill="#f8fafc" stroke="#cbd5e1" stroke-width="1.8"/>
  <text x="1127.5" y="155.0" text-anchor="middle" class="node-title">engine_admission_health</text>
  <rect x="1037.5" y="238.0" width="180.0" height="70.0" rx="10.0" fill="#eff6ff" stroke="#bfdbfe" stroke-width="1.8"/>
  <text x="1127.5" y="273.0" text-anchor="middle" class="node-title">quality / protocol</text>
  <text x="1127.5" y="295.0" text-anchor="middle" class="node-sub">cost guardrails</text>
  <rect x="1013.0" y="350.0" width="229.0" height="70.0" rx="10.0" fill="#f0fdf4" stroke="#bbf7d0" stroke-width="1.8"/>
  <text x="1127.5" y="385.0" text-anchor="middle" class="node-title">capability + usage + data</text>
  <text x="1127.5" y="407.0" text-anchor="middle" class="node-sub">boundary compatibility</text>
  <rect x="1314.0" y="238.0" width="180.0" height="70.0" rx="10.0" fill="#fff7ed" stroke="#fed7aa" stroke-width="1.8"/>
  <text x="1404.0" y="273.0" text-anchor="middle" class="node-title">endpoint_admission</text>
  <text x="1404.0" y="295.0" text-anchor="middle" class="node-sub">decision</text>
  <rect x="1566.0" y="238.0" width="222.0" height="58.0" rx="10.0" fill="#faf5ff" stroke="#e9d5ff" stroke-width="1.8"/>
  <text x="1677.0" y="267.0" text-anchor="middle" class="node-title">trace + metering + audit</text>
  <text x="1604.0" y="584.0" class="footnote">Rendered with fireworks-tech-graph</text>
</svg>