<svg xmlns="http://www.w3.org/2000/svg" viewBox="0 0 2288 698" width="2288" height="698">
  <defs>
    <marker id="arrowA" markerWidth="10" markerHeight="7" refX="9" refY="3.5" orient="auto">
      <polygon points="0 0, 10 3.5, 0 7" fill="#7c3aed"/>
    </marker>
    <marker id="arrowB" markerWidth="10" markerHeight="7" refX="9" refY="3.5" orient="auto">
      <polygon points="0 0, 10 3.5, 0 7" fill="#10b981"/>
    </marker>
    <marker id="arrowC" markerWidth="10" markerHeight="7" refX="9" refY="3.5" orient="auto">
      <polygon points="0 0, 10 3.5, 0 7" fill="#2563eb"/>
    </marker>
    <marker id="arrowE" markerWidth="10" markerHeight="7" refX="9" refY="3.5" orient="auto">
      <polygon points="0 0, 10 3.5, 0 7" fill="#f97316"/>
    </marker>
    <marker id="arrowF" markerWidth="10" markerHeight="7" refX="9" refY="3.5" orient="auto">
      <polygon points="0 0, 10 3.5, 0 7" fill="#7c3aed"/>
    </marker>
    <marker id="arrowG" markerWidth="10" markerHeight="7" refX="9" refY="3.5" orient="auto">
      <polygon points="0 0, 10 3.5, 0 7" fill="#ef4444"/>
    </marker>
    <marker id="arrowH" markerWidth="10" markerHeight="7" refX="9" refY="3.5" orient="auto">
      <polygon points="0 0, 10 3.5, 0 7" fill="#6b7280"/>
    </marker>
    <filter id="shadowSoft" x="-20%" y="-20%" width="140%" height="160%">
      <feDropShadow dx="0" dy="3" stdDeviation="6" flood-color="#0f172a" flood-opacity="0.12"/>
    </filter>
    <filter id="shadowGlass" x="-20%" y="-20%" width="140%" height="160%">
      <feDropShadow dx="0" dy="10" stdDeviation="16" flood-color="#020617" flood-opacity="0.28"/>
    </filter>
    <style>
    text { font-family: 'Helvetica Neue', Helvetica, Arial, 'PingFang SC', 'Microsoft YaHei', 'Microsoft JhengHei', 'SimHei', sans-serif; }
    .title { font-size: 30px; font-weight: 700; fill: #111827; }
    .subtitle { font-size: 14px; font-weight: 500; fill: #6b7280; }
    .section { font-size: 13px; font-weight: 700; fill: #2563eb; letter-spacing: 1.4px; }
    .section-sub { font-size: 12px; font-weight: 500; fill: #94a3b8; }
    .node-title { font-size: 18px; font-weight: 700; fill: #111827; }
    .node-sub { font-size: 12px; font-weight: 500; fill: #6b7280; }
    .node-type { font-size: 12px; font-weight: 700; fill: #9ca3af; letter-spacing: 0.08em; }
    .arrow-label { font-size: 12px; font-weight: 600; fill: #6b7280; }
    .legend { font-size: 12px; font-weight: 500; fill: #6b7280; }
    .footnote { font-size: 12px; font-weight: 500; fill: #94a3b8; }
    </style>
  </defs>
  <rect width="2288.0" height="698.0" fill="#ffffff"/>
  <text x="1144.0" y="56" text-anchor="middle" class="title">2.4.1 工程实现</text>
  <text x="1144.0" y="82" text-anchor="middle" class="subtitle">part-01-applications/chapter-02-rag.md:276</text>
  <path d="M 293.5,155.0 L 313.9,155.0 L 355.6,329.0 L 376.0,329.0" fill="none" stroke="#7c3aed" stroke-width="2.4" marker-end="url(#arrowA)"/>
  <path d="M 304.0,273.0 L 324.4,273.0 L 355.6,329.0 L 376.0,329.0" fill="none" stroke="#7c3aed" stroke-width="2.4" marker-end="url(#arrowA)"/>
  <path d="M 282.0,379.0 L 302.4,379.0 L 621.6,323.0 L 642.0,323.0" fill="none" stroke="#7c3aed" stroke-width="2.4" marker-end="url(#arrowA)"/>
  <path d="M 570.0,329.0 L 590.4,329.0 L 621.6,323.0 L 642.0,323.0" fill="none" stroke="#7c3aed" stroke-width="2.4" marker-end="url(#arrowA)"/>
  <path d="M 878.0,323.0 L 950.0,323.0" fill="none" stroke="#7c3aed" stroke-width="2.4" marker-end="url(#arrowA)"/>
  <path d="M 1130.0,323.0 L 1202.0,323.0" fill="none" stroke="#7c3aed" stroke-width="2.4" marker-end="url(#arrowA)"/>
  <path d="M 282.0,497.0 L 302.4,497.0 L 1181.6,323.0 L 1202.0,323.0" fill="none" stroke="#7c3aed" stroke-width="2.4" marker-end="url(#arrowA)"/>
  <path d="M 1396.0,323.0 L 1468.0,323.0" fill="none" stroke="#7c3aed" stroke-width="2.4" marker-end="url(#arrowA)"/>
  <path d="M 1632.0,323.0 L 1704.0,323.0" fill="none" stroke="#7c3aed" stroke-width="2.4" marker-end="url(#arrowA)"/>
  <path d="M 1912.0,323.0 L 1932.4,323.0 L 1963.6,329.0 L 1984.0,329.0" fill="none" stroke="#7c3aed" stroke-width="2.4" marker-end="url(#arrowA)"/>
  <rect x="106.5" y="126.0" width="187.0" height="58.0" rx="10.0" fill="#eff6ff" stroke="#bfdbfe" stroke-width="1.8"/>
  <text x="200.0" y="155.0" text-anchor="middle" class="node-title">tenant / app / user</text>
  <rect x="96.0" y="238.0" width="208.0" height="70.0" rx="10.0" fill="#fff7ed" stroke="#fed7aa" stroke-width="1.8"/>
  <text x="200.0" y="273.0" text-anchor="middle" class="node-title">tenant_boundary / data</text>
  <text x="200.0" y="295.0" text-anchor="middle" class="node-sub">boundary / ACL</text>
  <rect x="118.0" y="350.0" width="164.0" height="58.0" rx="10.0" fill="#faf5ff" stroke="#e9d5ff" stroke-width="1.8"/>
  <text x="200.0" y="379.0" text-anchor="middle" class="node-title">query + rewrite</text>
  <rect x="118.0" y="462.0" width="164.0" height="70.0" rx="10.0" fill="#f0fdf4" stroke="#bbf7d0" stroke-width="1.8"/>
  <text x="200.0" y="497.0" text-anchor="middle" class="node-title">token budget</text>
  <text x="200.0" y="519.0" text-anchor="middle" class="node-sub">prompt template</text>
  <rect x="376.0" y="294.0" width="194.0" height="70.0" rx="10.0" fill="#f0fdf4" stroke="#bbf7d0" stroke-width="1.8"/>
  <text x="473.0" y="329.0" text-anchor="middle" class="node-title">retrieval_permission</text>
  <text x="473.0" y="351.0" text-anchor="middle" class="node-sub">decision</text>
  <rect x="642.0" y="294.0" width="236.0" height="58.0" rx="10.0" fill="#f0fdfa" stroke="#99f6e4" stroke-width="1.8"/>
  <text x="760.0" y="323.0" text-anchor="middle" class="node-title">vector + keyword retrieval</text>
  <rect x="950.0" y="294.0" width="180.0" height="58.0" rx="10.0" fill="#f8fafc" stroke="#cbd5e1" stroke-width="1.8"/>
  <text x="1040.0" y="323.0" text-anchor="middle" class="node-title">rerank + diversity</text>
  <rect x="1202.0" y="294.0" width="194.0" height="58.0" rx="10.0" fill="#eff6ff" stroke="#bfdbfe" stroke-width="1.8"/>
  <text x="1299.0" y="323.0" text-anchor="middle" class="node-title">rag_context_snapshot</text>
  <rect x="1468.0" y="294.0" width="164.0" height="58.0" rx="10.0" fill="#fff7ed" stroke="#fed7aa" stroke-width="1.8"/>
  <text x="1550.0" y="323.0" text-anchor="middle" class="node-title">LLM generation</text>
  <rect x="1704.0" y="294.0" width="208.0" height="58.0" rx="10.0" fill="#faf5ff" stroke="#e9d5ff" stroke-width="1.8"/>
  <text x="1808.0" y="323.0" text-anchor="middle" class="node-title">quality_feedback_event</text>
  <rect x="1984.0" y="294.0" width="208.0" height="70.0" rx="10.0" fill="#f0fdfa" stroke="#99f6e4" stroke-width="1.8"/>
  <text x="2088.0" y="329.0" text-anchor="middle" class="node-title">rag_quality_regression</text>
  <text x="2088.0" y="351.0" text-anchor="middle" class="node-sub">record</text>
  <text x="2008.0" y="682.0" class="footnote">Rendered with fireworks-tech-graph</text>
</svg>