<svg xmlns="http://www.w3.org/2000/svg" viewBox="0 0 1272 1354" width="1272" height="1354">
  <defs>
    <marker id="arrowA" markerWidth="10" markerHeight="7" refX="9" refY="3.5" orient="auto">
      <polygon points="0 0, 10 3.5, 0 7" fill="#7c3aed"/>
    </marker>
    <marker id="arrowB" markerWidth="10" markerHeight="7" refX="9" refY="3.5" orient="auto">
      <polygon points="0 0, 10 3.5, 0 7" fill="#10b981"/>
    </marker>
    <marker id="arrowC" markerWidth="10" markerHeight="7" refX="9" refY="3.5" orient="auto">
      <polygon points="0 0, 10 3.5, 0 7" fill="#2563eb"/>
    </marker>
    <marker id="arrowE" markerWidth="10" markerHeight="7" refX="9" refY="3.5" orient="auto">
      <polygon points="0 0, 10 3.5, 0 7" fill="#f97316"/>
    </marker>
    <marker id="arrowF" markerWidth="10" markerHeight="7" refX="9" refY="3.5" orient="auto">
      <polygon points="0 0, 10 3.5, 0 7" fill="#7c3aed"/>
    </marker>
    <marker id="arrowG" markerWidth="10" markerHeight="7" refX="9" refY="3.5" orient="auto">
      <polygon points="0 0, 10 3.5, 0 7" fill="#ef4444"/>
    </marker>
    <marker id="arrowH" markerWidth="10" markerHeight="7" refX="9" refY="3.5" orient="auto">
      <polygon points="0 0, 10 3.5, 0 7" fill="#6b7280"/>
    </marker>
    <filter id="shadowSoft" x="-20%" y="-20%" width="140%" height="160%">
      <feDropShadow dx="0" dy="3" stdDeviation="6" flood-color="#0f172a" flood-opacity="0.12"/>
    </filter>
    <filter id="shadowGlass" x="-20%" y="-20%" width="140%" height="160%">
      <feDropShadow dx="0" dy="10" stdDeviation="16" flood-color="#020617" flood-opacity="0.28"/>
    </filter>
    <style>
    text { font-family: 'Helvetica Neue', Helvetica, Arial, 'PingFang SC', 'Microsoft YaHei', 'Microsoft JhengHei', 'SimHei', sans-serif; }
    .title { font-size: 30px; font-weight: 700; fill: #111827; }
    .subtitle { font-size: 14px; font-weight: 500; fill: #6b7280; }
    .section { font-size: 13px; font-weight: 700; fill: #2563eb; letter-spacing: 1.4px; }
    .section-sub { font-size: 12px; font-weight: 500; fill: #94a3b8; }
    .node-title { font-size: 18px; font-weight: 700; fill: #111827; }
    .node-sub { font-size: 12px; font-weight: 500; fill: #6b7280; }
    .node-type { font-size: 12px; font-weight: 700; fill: #9ca3af; letter-spacing: 0.08em; }
    .arrow-label { font-size: 12px; font-weight: 600; fill: #6b7280; }
    .legend { font-size: 12px; font-weight: 500; fill: #6b7280; }
    .footnote { font-size: 12px; font-weight: 500; fill: #94a3b8; }
    </style>
  </defs>
  <rect width="1272.0" height="1354.0" fill="#ffffff"/>
  <text x="636.0" y="56" text-anchor="middle" class="title">1. 一张图串起全书</text>
  <text x="636.0" y="82" text-anchor="middle" class="subtitle">system-map.md:9</text>
  <rect x="92.5" y="106.0" width="781.0" height="284.0" rx="16.0" fill="none" stroke="#dbe5f1" stroke-width="1.4" stroke-dasharray="6 5"/>
  <text x="110.5" y="130.0" class="section">目标与需求</text>
  <rect x="36.0" y="248.0" width="1143.5" height="284.0" rx="16.0" fill="none" stroke="#dbe5f1" stroke-width="1.4" stroke-dasharray="6 5"/>
  <text x="54.0" y="272.0" class="section">生产路径</text>
  <rect x="332.0" y="390.0" width="403.0" height="710.0" rx="16.0" fill="none" stroke="#dbe5f1" stroke-width="1.4" stroke-dasharray="6 5"/>
  <text x="350.0" y="414.0" class="section">资源与基础设施</text>
  <rect x="518.5" y="106.0" width="717.5" height="1136.0" rx="16.0" fill="none" stroke="#dbe5f1" stroke-width="1.4" stroke-dasharray="6 5"/>
  <text x="536.5" y="130.0" class="section">证据、SRE 与治理</text>
  <path d="M 265.5,224.0 L 265.5,230.0 L 539.5,230.0 L 539.5,296.0" fill="none" stroke="#7c3aed" stroke-width="2.4" marker-end="url(#arrowA)"/>
  <path d="M 265.5,224.0 L 265.5,248.0 L 965.5,248.0 L 965.5,296.0" fill="none" stroke="#7c3aed" stroke-width="2.4" marker-end="url(#arrowA)"/>
  <path d="M 498.5,224.0 L 498.5,230.0 L 812.0,230.0 L 812.0,580.0" fill="none" stroke="#7c3aed" stroke-width="2.4" marker-end="url(#arrowA)"/>
  <path d="M 498.5,224.0 L 498.5,230.0 L 210.0,230.0 L 210.0,296.0" fill="none" stroke="#7c3aed" stroke-width="2.4" marker-end="url(#arrowA)"/>
  <path d="M 210.0,366.0 L 210.0,386.4 L 1115.0,417.6 L 1115.0,438.0" fill="none" stroke="#7c3aed" stroke-width="2.4" marker-end="url(#arrowA)"/>
  <path d="M 749.0,224.0 L 749.0,230.0 L 1115.0,230.0 L 1115.0,438.0" fill="none" stroke="#7c3aed" stroke-width="2.4" marker-end="url(#arrowA)"/>
  <path d="M 992.5,224.0 L 992.5,230.0 L 1115.0,230.0 L 1115.0,438.0" fill="none" stroke="#7c3aed" stroke-width="2.4" marker-end="url(#arrowA)"/>
  <path d="M 539.5,366.0 L 539.5,372.0 L 572.0,372.0 L 572.0,438.0" fill="none" stroke="#7c3aed" stroke-width="2.4" marker-end="url(#arrowA)"/>
  <path d="M 572.0,508.0 L 572.0,528.4 L 516.0,559.6 L 516.0,580.0" fill="none" stroke="#7c3aed" stroke-width="2.4" marker-end="url(#arrowA)"/>
  <path d="M 516.0,650.0 L 516.0,670.4 L 512.5,701.6 L 512.5,722.0" fill="none" stroke="#7c3aed" stroke-width="2.4" marker-end="url(#arrowA)"/>
  <path d="M 512.5,792.0 L 512.5,812.4 L 531.0,843.6 L 531.0,864.0" fill="none" stroke="#7c3aed" stroke-width="2.4" marker-end="url(#arrowA)"/>
  <path d="M 531.0,934.0 L 531.0,1006.0" fill="none" stroke="#7c3aed" stroke-width="2.4" marker-end="url(#arrowA)"/>
  <path d="M 965.5,366.0 L 965.5,390.0 L 572.0,390.0 L 572.0,438.0" fill="none" stroke="#7c3aed" stroke-width="2.4" marker-end="url(#arrowA)"/>
  <path d="M 965.5,366.0 L 965.5,386.4 L 223.5,417.6 L 223.5,438.0" fill="none" stroke="#7c3aed" stroke-width="2.4" marker-end="url(#arrowA)"/>
  <path d="M 223.5,508.0 L 223.5,528.4 L 531.0,843.6 L 531.0,864.0" fill="none" stroke="#7c3aed" stroke-width="2.4" marker-end="url(#arrowA)"/>
  <path d="M 531.0,1076.0 L 531.0,1096.4 L 636.0,1127.6 L 636.0,1148.0" fill="none" stroke="#7c3aed" stroke-width="2.4" marker-end="url(#arrowA)"/>
  <path d="M 542.5,1183.0 L 370.5,1183.0 L 370.5,757.0 L 356.0,757.0" fill="none" stroke="#7c3aed" stroke-width="2.4" marker-end="url(#arrowA)"/>
  <path d="M 512.5,792.0 L 512.5,812.4 L 777.0,843.6 L 777.0,864.0" fill="none" stroke="#7c3aed" stroke-width="2.4" marker-end="url(#arrowA)"/>
  <path d="M 572.0,508.0 L 572.0,528.4 L 777.0,843.6 L 777.0,864.0" fill="none" stroke="#7c3aed" stroke-width="2.4" marker-end="url(#arrowA)"/>
  <path d="M 539.5,366.0 L 539.5,372.0 L 864.5,372.0 L 864.5,438.0" fill="none" stroke="#7c3aed" stroke-width="2.4" marker-end="url(#arrowA)"/>
  <path d="M 864.5,508.0 L 864.5,528.4 L 794.5,985.6 L 794.5,1006.0" fill="none" stroke="#7c3aed" stroke-width="2.4" marker-end="url(#arrowA)"/>
  <path d="M 864.5,508.0 L 864.5,528.4 L 812.0,559.6 L 812.0,580.0" fill="none" stroke="#7c3aed" stroke-width="2.4" marker-end="url(#arrowA)"/>
  <path d="M 539.5,366.0 L 539.5,372.0 L 812.0,372.0 L 812.0,580.0" fill="none" stroke="#7c3aed" stroke-width="2.4" marker-end="url(#arrowA)"/>
  <path d="M 965.5,366.0 L 965.5,386.4 L 812.0,559.6 L 812.0,580.0" fill="none" stroke="#7c3aed" stroke-width="2.4" marker-end="url(#arrowA)"/>
  <path d="M 812.0,650.0 L 812.0,670.4 L 815.5,701.6 L 815.5,722.0" fill="none" stroke="#7c3aed" stroke-width="2.4" marker-end="url(#arrowA)"/>
  <path d="M 715.0,757.0 L 694.6,757.0 L 374.1,189.0 L 394.5,189.0" fill="none" stroke="#7c3aed" stroke-width="2.4" marker-end="url(#arrowA)"/>
  <path d="M 777.0,934.0 L 777.0,954.4 L 794.5,985.6 L 794.5,1006.0" fill="none" stroke="#7c3aed" stroke-width="2.4" marker-end="url(#arrowA)"/>
  <path d="M 712.5,1041.0 L 692.1,1041.0 L 628.1,189.0 L 648.5,189.0" fill="none" stroke="#7c3aed" stroke-width="2.4" marker-end="url(#arrowA)"/>
  <path d="M 715.0,615.0 L 694.6,615.0 L 374.1,189.0 L 394.5,189.0" fill="none" stroke="#7c3aed" stroke-width="2.4" marker-end="url(#arrowA)"/>
  <path d="M 1018.0,473.0 L 997.6,473.0 L 329.1,331.0 L 349.5,331.0" fill="none" stroke="#7c3aed" stroke-width="2.4" marker-end="url(#arrowA)"/>
  <rect x="182.5" y="154.0" width="166.0" height="70.0" rx="10.0" fill="#eff6ff" stroke="#bfdbfe" stroke-width="1.8"/>
  <text x="265.5" y="189.0" text-anchor="middle" class="node-title">workload_profile</text>
  <text x="265.5" y="211.0" text-anchor="middle" class="node-sub">应用如何消耗能力</text>
  <rect x="394.5" y="154.0" width="208.0" height="70.0" rx="10.0" fill="#f0fdf4" stroke="#bbf7d0" stroke-width="1.8"/>
  <text x="498.5" y="189.0" text-anchor="middle" class="node-title">business_model_profile</text>
  <text x="498.5" y="211.0" text-anchor="middle" class="node-sub">商业模式与结算</text>
  <rect x="648.5" y="154.0" width="201.0" height="70.0" rx="10.0" fill="#faf5ff" stroke="#e9d5ff" stroke-width="1.8"/>
  <text x="749.0" y="189.0" text-anchor="middle" class="node-title">ai_factory_build_plan</text>
  <text x="749.0" y="211.0" text-anchor="middle" class="node-sub">建设阶段与停止条件</text>
  <rect x="895.5" y="154.0" width="194.0" height="70.0" rx="10.0" fill="#eff6ff" stroke="#bfdbfe" stroke-width="1.8"/>
  <text x="992.5" y="189.0" text-anchor="middle" class="node-title">launch_risk_register</text>
  <text x="992.5" y="211.0" text-anchor="middle" class="node-sub">上线风险登记</text>
  <rect x="116.5" y="296.0" width="187.0" height="70.0" rx="10.0" fill="#fff7ed" stroke="#fed7aa" stroke-width="1.8"/>
  <text x="210.0" y="331.0" text-anchor="middle" class="node-title">customer_onboarding</text>
  <text x="210.0" y="353.0" text-anchor="middle" class="node-sub">evidence / 客户接入证据</text>
  <rect x="349.5" y="296.0" width="380.0" height="70.0" rx="10.0" fill="#f0fdfa" stroke="#99f6e4" stroke-width="1.8"/>
  <text x="539.5" y="331.0" text-anchor="middle" class="node-title">推理请求链路</text>
  <text x="539.5" y="353.0" text-anchor="middle" class="node-sub">Gateway -&gt; Serving -&gt; Runtime -&gt; GPU -&gt; Billing</text>
  <rect x="775.5" y="296.0" width="380.0" height="70.0" rx="10.0" fill="#f8fafc" stroke="#cbd5e1" stroke-width="1.8"/>
  <text x="965.5" y="331.0" text-anchor="middle" class="node-title">训练任务链路</text>
  <text x="965.5" y="353.0" text-anchor="middle" class="node-sub">Queue -&gt; Gang -&gt; NCCL -&gt; Checkpoint -&gt; Registry</text>
  <rect x="60.0" y="438.0" width="327.0" height="70.0" rx="10.0" fill="#eff6ff" stroke="#bfdbfe" stroke-width="1.8"/>
  <text x="223.5" y="473.0" text-anchor="middle" class="node-title">数据链路</text>
  <text x="223.5" y="495.0" text-anchor="middle" class="node-sub">Dataset / Artifact / Cache / Checkpoint</text>
  <rect x="433.0" y="438.0" width="278.0" height="70.0" rx="10.0" fill="#f0fdf4" stroke="#bbf7d0" stroke-width="1.8"/>
  <text x="572.0" y="473.0" text-anchor="middle" class="node-title">AI Runtime</text>
  <text x="572.0" y="495.0" text-anchor="middle" class="node-sub">CUDA / NCCL / Engine / Framework</text>
  <rect x="757.0" y="438.0" width="215.0" height="70.0" rx="10.0" fill="#f0fdf4" stroke="#bbf7d0" stroke-width="1.8"/>
  <text x="864.5" y="473.0" text-anchor="middle" class="node-title">quality_evidence_bundle</text>
  <text x="864.5" y="495.0" text-anchor="middle" class="node-sub">质量证据包</text>
  <rect x="1018.0" y="438.0" width="194.0" height="70.0" rx="10.0" fill="#f0fdf4" stroke="#bbf7d0" stroke-width="1.8"/>
  <text x="1115.0" y="473.0" text-anchor="middle" class="node-title">production_readiness</text>
  <text x="1115.0" y="495.0" text-anchor="middle" class="node-sub">review / 上线门禁</text>
  <rect x="363.0" y="580.0" width="306.0" height="70.0" rx="10.0" fill="#fff7ed" stroke="#fed7aa" stroke-width="1.8"/>
  <text x="516.0" y="615.0" text-anchor="middle" class="node-title">Orchestration</text>
  <text x="516.0" y="637.0" text-anchor="middle" class="node-sub">Kubernetes / Slurm / Kueue / Volcano</text>
  <rect x="715.0" y="580.0" width="194.0" height="70.0" rx="10.0" fill="#f0fdfa" stroke="#99f6e4" stroke-width="1.8"/>
  <text x="812.0" y="615.0" text-anchor="middle" class="node-title">Token Factory ledger</text>
  <text x="812.0" y="637.0" text-anchor="middle" class="node-sub">经济账本 / 成本与价值</text>
  <rect x="356.0" y="722.0" width="313.0" height="70.0" rx="10.0" fill="#faf5ff" stroke="#e9d5ff" stroke-width="1.8"/>
  <text x="512.5" y="757.0" text-anchor="middle" class="node-title">GPU Resource Pool</text>
  <text x="512.5" y="779.0" text-anchor="middle" class="node-sub">health / quota / topology / isolation</text>
  <rect x="715.0" y="722.0" width="201.0" height="70.0" rx="10.0" fill="#f8fafc" stroke="#cbd5e1" stroke-width="1.8"/>
  <text x="815.5" y="757.0" text-anchor="middle" class="node-title">commercial_pnl_ledger</text>
  <text x="815.5" y="779.0" text-anchor="middle" class="node-sub">商业 P&amp;L</text>
  <rect x="413.0" y="864.0" width="236.0" height="70.0" rx="10.0" fill="#f0fdfa" stroke="#99f6e4" stroke-width="1.8"/>
  <text x="531.0" y="899.0" text-anchor="middle" class="node-title">Network &amp; Storage</text>
  <text x="531.0" y="921.0" text-anchor="middle" class="node-sub">NVLink / RDMA / PFS / NVMe</text>
  <rect x="695.0" y="864.0" width="164.0" height="70.0" rx="10.0" fill="#fff7ed" stroke="#fed7aa" stroke-width="1.8"/>
  <text x="777.0" y="899.0" text-anchor="middle" class="node-title">telemetry_event</text>
  <text x="777.0" y="921.0" text-anchor="middle" class="node-sub">观测事实</text>
  <rect x="395.5" y="1006.0" width="271.0" height="70.0" rx="10.0" fill="#f8fafc" stroke="#cbd5e1" stroke-width="1.8"/>
  <text x="531.0" y="1041.0" text-anchor="middle" class="node-title">Physical</text>
  <text x="531.0" y="1063.0" text-anchor="middle" class="node-sub">rack / power / cooling / server</text>
  <rect x="712.5" y="1006.0" width="164.0" height="70.0" rx="10.0" fill="#faf5ff" stroke="#e9d5ff" stroke-width="1.8"/>
  <text x="794.5" y="1041.0" text-anchor="middle" class="node-title">incident_record</text>
  <text x="794.5" y="1063.0" text-anchor="middle" class="node-sub">故障复盘</text>
  <rect x="542.5" y="1148.0" width="187.0" height="70.0" rx="10.0" fill="#eff6ff" stroke="#bfdbfe" stroke-width="1.8"/>
  <text x="636.0" y="1183.0" text-anchor="middle" class="node-title">acceptance_baseline</text>
  <text x="636.0" y="1205.0" text-anchor="middle" class="node-sub">准入与验收</text>
  <text x="992.0" y="1338.0" class="footnote">Rendered with fireworks-tech-graph</text>
</svg>